<?xml version="1.0" standalone="no"?>
<!DOCTYPE svg PUBLIC "-//W3C//DTD SVG 20010904//EN"
 "http://www.w3.org/TR/2001/REC-SVG-20010904/DTD/svg10.dtd">
<svg version="1.0" xmlns="http://www.w3.org/2000/svg"
 width="1280.000000pt" height="1280.000000pt" viewBox="0 0 1280.000000 1280.000000"
 preserveAspectRatio="xMidYMid meet">
<metadata>
Created by potrace 1.15, written by Peter Selinger 2001-2017
</metadata>
<g transform="translate(0.000000,1280.000000) scale(0.100000,-0.100000)"
fill="#000000" stroke="none">
<path d="M4375 10979 c-311 -30 -547 -116 -734 -268 -59 -49 -282 -299 -343
-386 -89 -125 -176 -322 -223 -504 -43 -168 -84 -547 -70 -655 24 -183 134
-461 251 -632 84 -123 280 -367 340 -425 107 -100 194 -149 398 -225 70 -25
126 -48 124 -49 -2 -1 -54 -17 -117 -34 -130 -36 -292 -115 -391 -190 -101
-77 -329 -307 -393 -398 -121 -171 -189 -337 -231 -566 -98 -527 -31 -858 267
-1337 172 -276 247 -364 402 -475 137 -98 356 -198 490 -224 33 -7 66 -14 74
-17 8 -3 -28 -24 -81 -48 -152 -68 -440 -265 -545 -373 -61 -62 -279 -350
-323 -425 -45 -79 -68 -145 -116 -337 -60 -234 -76 -340 -77 -506 -1 -160 17
-253 79 -403 40 -96 169 -326 248 -442 111 -163 253 -284 408 -348 103 -43
310 -98 439 -117 125 -18 537 -21 669 -5 138 17 425 78 526 111 202 67 517
286 862 598 l92 83 93 -83 c160 -145 317 -273 458 -372 267 -188 366 -231 670
-291 246 -50 313 -56 582 -56 274 0 384 12 581 66 238 64 366 134 492 266 83
89 145 178 252 363 152 266 197 409 195 630 -1 166 -17 272 -77 506 -48 192
-71 258 -116 337 -44 75 -262 363 -323 425 -105 108 -393 305 -545 373 -53 24
-89 45 -81 48 8 3 41 10 74 17 134 26 353 126 490 224 155 111 230 199 402
475 199 319 286 557 308 840 14 173 -34 535 -92 714 -36 107 -109 248 -180
349 -64 91 -292 321 -393 398 -99 75 -261 154 -391 190 -63 17 -115 33 -117
34 -2 1 54 24 124 49 204 76 291 125 398 225 60 58 256 302 340 425 117 171
227 449 251 632 14 108 -27 487 -70 655 -47 182 -134 379 -223 504 -61 87
-284 337 -343 386 -243 198 -595 292 -1002 269 -376 -22 -876 -182 -1177 -378
-212 -137 -330 -260 -500 -517 -39 -60 -76 -110 -80 -110 -4 0 -41 50 -80 110
-170 257 -288 380 -500 517 -227 148 -558 272 -925 348 -79 17 -373 43 -420
38 -5 0 -50 -5 -100 -9z m30 -464 c0 -129 -3 -234 -7 -233 -4 2 -66 49 -138
106 -71 57 -176 130 -233 164 -56 33 -104 62 -106 64 -6 5 92 47 169 72 55 19
253 59 300 61 13 1 15 -31 15 -234z m365 220 c105 -16 208 -39 217 -49 3 -3
-17 -45 -44 -93 -28 -49 -58 -104 -68 -123 -26 -52 -89 -150 -97 -150 -4 0
-41 66 -82 148 -41 81 -95 177 -120 215 l-46 67 73 0 c39 0 115 -7 167 -15z
m3454 -52 c-25 -38 -79 -134 -120 -215 -41 -82 -78 -148 -82 -148 -8 0 -71 98
-97 150 -10 19 -40 75 -68 123 -37 66 -47 91 -38 96 36 23 256 58 368 60 l83
1 -46 -67z m356 37 c94 -18 252 -70 284 -93 14 -10 2 -20 -84 -71 -56 -32
-163 -107 -238 -167 -75 -59 -139 -108 -142 -109 -3 0 -5 106 -5 235 l0 235
45 -6 c25 -3 88 -14 140 -24z m-3143 -178 c48 -21 105 -47 126 -58 l38 -20
-58 -41 c-32 -22 -121 -95 -198 -162 l-140 -122 -8 108 c-6 92 -19 200 -44
366 l-6 37 101 -35 c55 -19 140 -52 189 -73z m2199 -4 c-14 -81 -31 -242 -39
-361 l-2 -38 -140 121 c-77 68 -166 141 -198 163 -56 40 -57 41 -35 54 101 56
421 178 426 162 2 -5 -3 -50 -12 -101z m-3015 -152 l85 -161 -88 -9 c-49 -4
-92 -5 -96 -1 -4 4 -8 88 -10 188 -2 150 0 179 10 163 7 -11 52 -92 99 -180z
m3664 -135 l-7 -44 -66 7 c-37 3 -79 6 -94 6 l-28 0 34 63 c18 34 62 116 97
182 l64 119 3 -144 c2 -80 0 -165 -3 -189z m-3211 164 c19 -161 27 -287 18
-283 -53 28 -120 53 -174 66 -38 10 -68 21 -68 26 0 4 15 29 34 55 18 25 56
89 84 142 64 123 75 140 83 131 4 -4 14 -65 23 -137z m2757 9 c28 -54 67 -120
85 -145 19 -26 34 -51 34 -55 0 -5 -30 -16 -68 -26 -54 -13 -121 -38 -174 -66
-13 -6 24 398 39 421 7 12 23 -13 84 -129z m-4011 89 c109 -233 251 -574 243
-585 -10 -17 -38 -3 -199 102 -193 127 -325 222 -321 232 4 14 248 278 256
278 4 0 14 -12 21 -27z m5312 -108 c68 -75 124 -139 125 -143 4 -10 -128 -105
-321 -232 -161 -105 -189 -119 -199 -102 -6 9 77 216 165 412 90 199 90 200
99 200 5 0 64 -61 131 -135z m-5042 -20 c30 -23 106 -81 167 -129 l113 -88
-47 -25 c-61 -32 -100 -59 -139 -95 -18 -17 -34 -26 -37 -21 -3 5 -23 53 -46
108 -22 55 -63 151 -90 214 -28 62 -51 115 -51 118 0 8 71 -37 130 -82z m4700
-36 c-28 -63 -69 -159 -91 -214 -23 -55 -43 -103 -46 -108 -3 -5 -19 4 -37 21
-39 36 -78 63 -139 95 l-47 25 125 99 c132 104 276 205 282 200 2 -2 -20 -55
-47 -118z m-3156 -26 c-41 -72 -219 -333 -253 -373 l-30 -35 -56 56 -56 56
113 99 c201 176 284 243 301 244 5 0 -3 -21 -19 -47z m1549 25 c39 -27 116
-91 265 -222 l113 -99 -56 -56 -56 -56 -30 35 c-34 40 -212 301 -253 373 -31
53 -28 57 17 25z m-1358 -34 l40 -34 -41 -38 c-23 -20 -91 -81 -152 -134
l-111 -97 74 114 c41 63 89 139 106 170 17 30 34 55 37 55 4 -1 25 -16 47 -36z
m1234 -19 c17 -31 65 -107 106 -170 l74 -114 -111 97 c-61 53 -129 114 -152
134 l-41 38 40 34 c22 20 43 35 47 36 3 0 20 -25 37 -55z m-1160 -227 c-10
-57 -29 -139 -43 -183 -25 -85 -137 -407 -143 -415 -9 -10 -191 213 -235 288
l-17 29 59 46 c32 25 110 93 172 151 113 104 207 184 219 185 4 1 -2 -45 -12
-101z m1059 48 c37 -29 114 -98 172 -151 57 -54 128 -116 157 -138 l53 -39
-18 -30 c-44 -75 -226 -298 -235 -288 -6 8 -118 330 -143 415 -24 79 -65 285
-57 285 2 0 34 -24 71 -54z m-3453 -21 c27 -65 142 -270 245 -438 29 -48 51
-90 47 -93 -3 -3 -56 9 -119 26 -207 59 -378 131 -378 161 0 60 145 409 170
409 4 0 19 -29 35 -65z m5879 -25 c45 -86 116 -282 116 -319 0 -30 -171 -102
-378 -161 -63 -17 -116 -29 -119 -26 -4 3 18 45 47 93 103 168 218 373 245
438 16 36 31 65 35 65 5 0 29 -40 54 -90z m-3325 -10 l34 -50 -32 -72 c-26
-58 -168 -308 -176 -308 -1 0 20 64 46 143 27 78 56 186 66 240 10 53 20 97
23 97 3 0 20 -22 39 -50z m744 -47 c10 -54 39 -162 66 -240 26 -79 47 -143 46
-143 -8 0 -150 250 -176 308 l-32 72 34 50 c19 28 36 50 39 50 3 0 13 -44 23
-97z m-2961 -94 c64 -42 122 -79 130 -81 8 -3 -7 -30 -47 -82 -55 -72 -60 -76
-73 -59 -12 16 -101 165 -178 298 l-28 49 39 -24 c22 -13 92 -59 157 -101z
m5282 74 c-74 -130 -164 -280 -176 -296 -13 -17 -18 -13 -73 59 -36 46 -55 79
-48 81 7 3 81 49 165 104 83 54 154 99 156 99 2 0 -8 -21 -24 -47z m-4223 -32
c31 -12 78 -36 105 -53 58 -37 252 -230 276 -273 16 -30 16 -32 -24 -123 -22
-51 -44 -92 -47 -92 -4 0 -22 18 -39 40 -41 50 -142 123 -210 149 -60 24 -209
43 -262 35 l-36 -6 -118 149 -117 148 39 17 c92 41 336 46 433 9z m3297 18
c53 -6 114 -18 135 -27 l38 -17 -117 -148 -118 -149 -36 6 c-53 8 -202 -11
-262 -35 -68 -26 -169 -99 -210 -149 -17 -22 -35 -40 -39 -40 -3 0 -25 41 -47
92 -40 90 -40 93 -24 122 24 42 166 190 232 241 137 106 234 128 448 104z
m-3682 -394 c-66 -58 -80 -112 -66 -260 11 -113 45 -234 85 -304 14 -23 25
-47 25 -52 0 -11 -106 -65 -215 -109 -90 -37 -104 -46 -115 -74 -6 -17 -13 -9
-47 50 -79 134 -144 270 -159 333 -9 35 -17 109 -17 165 -2 96 0 104 31 166
34 67 151 220 248 323 l55 58 104 -133 105 -133 -34 -30z m4016 220 c104 -118
200 -245 230 -305 31 -62 33 -70 31 -166 0 -56 -8 -130 -17 -165 -15 -63 -80
-199 -159 -333 -34 -59 -41 -67 -47 -50 -11 28 -25 37 -115 74 -109 44 -215
98 -215 109 0 5 11 29 25 52 40 70 74 191 85 304 14 148 0 202 -66 260 l-34
30 103 131 c115 148 104 144 179 59z m-2241 -70 c11 -4 19 -13 19 -22 0 -13
-33 -124 -114 -378 l-25 -80 4 75 c2 41 9 173 16 292 l12 217 35 -49 c19 -27
43 -52 53 -55z m330 -308 c7 -86 10 -159 7 -162 -3 -3 -15 30 -27 72 -12 43
-42 142 -67 219 -24 78 -44 149 -44 157 0 9 9 18 19 22 10 3 34 28 53 54 l33
49 7 -126 c4 -70 12 -198 19 -285z m-541 93 c-6 -74 -14 -192 -17 -262 l-6
-127 -60 47 c-33 26 -86 72 -119 102 l-58 55 62 95 c35 52 95 146 133 208 l70
113 3 -48 c2 -26 -2 -109 -8 -183z m818 -58 l82 -127 -59 -55 c-32 -30 -86
-77 -120 -103 l-61 -48 0 83 c0 46 -5 124 -10 173 -5 50 -12 153 -15 230 l-6
140 53 -83 c29 -46 90 -140 136 -210z m-3509 60 c47 -40 125 -101 175 -136
110 -77 200 -156 189 -167 -12 -11 -243 -47 -348 -54 -49 -3 -107 -8 -127 -11
l-38 -6 0 124 c0 67 7 173 15 233 8 61 15 112 15 114 0 5 22 -13 119 -97z
m3055 -29 c20 -71 57 -191 81 -268 24 -77 46 -150 49 -161 6 -19 1 -23 -38
-33 -25 -6 -86 -11 -136 -11 -50 0 -111 5 -136 11 -39 10 -44 14 -38 33 3 11
25 84 49 161 24 77 61 197 81 268 21 70 41 127 44 127 3 0 23 -57 44 -127z
m3101 11 c8 -60 15 -165 15 -232 l0 -124 -37 6 c-21 3 -78 8 -128 11 -105 7
-336 43 -348 54 -11 11 78 90 188 166 49 35 135 102 189 149 55 47 101 84 103
82 2 -2 10 -52 18 -112z m-5783 -44 c5 0 8 -20 8 -45 0 -47 -9 -56 -31 -29 -7
9 -42 36 -78 62 -37 25 -70 49 -75 53 -5 4 31 -3 80 -17 49 -13 92 -24 96 -24z
m5453 42 c-6 -5 -39 -29 -76 -54 -36 -26 -71 -53 -78 -62 -22 -26 -31 -18 -31
27 l0 44 93 25 c50 15 94 27 97 27 2 1 0 -3 -5 -7z m-3690 -179 c208 -245 386
-395 562 -475 l65 -29 -53 -49 c-39 -35 -85 -62 -163 -95 -132 -57 -261 -102
-341 -118 l-59 -13 -22 86 c-12 47 -27 116 -33 153 -26 150 -110 389 -172 491
l-31 49 44 89 c23 48 45 88 48 87 3 0 73 -80 155 -176z m1953 89 l44 -89 -31
-49 c-62 -102 -146 -341 -172 -491 -6 -37 -21 -106 -33 -153 l-22 -86 -59 13
c-80 16 -209 61 -341 118 -78 33 -124 60 -163 95 l-53 49 65 29 c176 80 354
230 562 475 83 96 152 176 155 176 3 1 25 -39 48 -87z m-2748 -14 c0 -7 3 -22
6 -34 4 -15 -1 -23 -21 -32 -36 -17 -35 -17 -35 33 0 41 2 45 25 45 14 0 25
-6 25 -12z m3390 -33 c0 -50 1 -50 -35 -33 -20 9 -25 17 -21 32 3 12 6 27 6
34 0 6 11 12 25 12 23 0 25 -4 25 -45z m-3172 -17 c-6 -17 -36 -34 -44 -25 -4
4 1 14 12 22 23 18 37 19 32 3z m2936 -3 c23 -17 13 -34 -11 -19 -19 12 -29
34 -16 34 4 0 17 -7 27 -15z m-3065 -79 c-2 -2 -15 -9 -29 -15 -24 -11 -24
-11 -6 3 16 13 49 24 35 12z m216 -41 c-24 -17 -41 -19 -51 -4 -4 7 4 20 17
30 21 16 26 16 39 4 12 -13 12 -17 -5 -30z m2782 1 c-6 -17 -30 -17 -51 -1
-15 12 -17 17 -7 29 11 14 16 13 37 -1 14 -9 23 -21 21 -27z m199 28 c18 -14
18 -14 -6 -3 -31 14 -36 19 -24 19 6 0 19 -7 30 -16z m-3118 -95 c1 -8 -24
-31 -58 -53 -58 -37 -61 -38 -75 -20 -8 11 -14 21 -14 24 -1 8 123 69 134 66
6 -1 11 -9 13 -17z m3087 -11 c36 -18 64 -35 64 -38 0 -3 -6 -13 -14 -24 -14
-18 -17 -17 -75 20 -57 37 -69 52 -53 67 9 10 7 10 78 -25z m-2865 -11 c0 -8
-9 -22 -20 -32 -16 -15 -23 -16 -33 -6 -9 9 -7 16 13 31 30 23 40 25 40 7z
m2600 -7 c20 -15 22 -22 13 -31 -10 -10 -17 -9 -33 6 -20 18 -27 45 -12 45 4
0 18 -9 32 -20z m-3913 -55 c7 -20 7 -35 2 -35 -18 0 -213 31 -217 34 -4 5
143 33 179 35 21 1 28 -5 36 -34z m5314 19 c49 -9 88 -18 86 -20 -3 -3 -198
-34 -216 -34 -5 0 -5 15 2 35 12 40 11 40 128 19z m-4141 -53 c9 -17 4 -25
-36 -55 -54 -42 -56 -42 -78 -18 -15 18 -14 21 36 55 63 42 64 43 78 18z
m2915 -18 c53 -34 55 -37 39 -55 -22 -24 -24 -24 -78 18 -40 30 -45 38 -36 55
6 10 13 19 16 19 2 0 29 -16 59 -37z m-4474 -22 c68 -17 171 -38 228 -46 58
-9 107 -17 109 -19 2 -2 -63 -39 -145 -81 -81 -43 -163 -86 -181 -96 l-33 -19
-43 92 c-63 134 -90 212 -72 205 8 -3 70 -19 137 -36z m6088 -18 c-12 -32 -41
-99 -64 -150 l-43 -92 -174 91 c-95 50 -177 94 -181 98 -5 4 11 11 35 15 164
25 239 40 330 65 57 15 106 29 110 29 4 1 -2 -25 -13 -56z m-4322 2 c9 -27 8
-37 -3 -46 -11 -9 -17 -3 -31 26 -15 31 -15 37 -3 45 23 15 26 13 37 -25z
m2463 25 c12 -8 12 -14 -3 -45 -14 -29 -20 -35 -31 -26 -11 9 -12 19 -3 46 11
38 14 40 37 25z m-2575 -119 c13 -26 13 -30 -5 -46 -18 -16 -21 -16 -55 5 -19
12 -35 25 -35 30 0 12 63 50 72 44 5 -3 15 -18 23 -33z m2743 -9 c2 -6 -13
-20 -33 -32 -36 -22 -37 -22 -56 -4 -18 19 -18 20 1 52 l21 34 32 -21 c17 -11
33 -24 35 -29z m-3896 -59 l28 -50 -113 -6 c-61 -3 -128 -9 -147 -12 -27 -4
-31 -3 -20 5 36 26 206 117 215 116 6 -1 22 -25 37 -53z m773 -4 c155 -158
447 -326 625 -360 36 -6 68 -14 72 -18 6 -5 47 -159 63 -239 l7 -33 -83 41
c-96 49 -300 125 -484 181 -354 108 -485 166 -572 256 -35 35 -63 68 -63 73 0
6 11 10 24 10 29 0 231 84 296 123 25 15 47 27 50 27 3 0 32 -28 65 -61z
m3538 27 c83 -46 254 -116 283 -116 13 0 24 -4 24 -10 0 -5 -28 -38 -62 -73
-88 -90 -219 -148 -573 -256 -184 -56 -388 -132 -484 -181 l-83 -41 7 33 c16
80 57 234 63 239 4 4 36 12 72 18 178 34 470 202 625 360 33 33 61 61 63 61 2
0 31 -15 65 -34z m782 -21 c131 -71 139 -77 95 -70 -19 3 -85 9 -147 12 l-112
6 21 41 c18 36 37 66 42 66 1 0 47 -25 101 -55z m-5075 -162 c-1 -15 -119
-164 -187 -236 l-69 -73 -90 115 c-49 63 -99 129 -110 146 l-22 30 72 -3 c39
-1 132 4 206 11 165 18 200 19 200 10z m5109 -9 c91 -9 194 -14 227 -12 l62 4
-22 -31 c-11 -17 -61 -83 -110 -146 l-90 -115 -69 73 c-68 72 -186 221 -187
236 0 9 -3 9 189 -9z m-2719 -24 c8 -15 2 -45 -29 -137 -22 -65 -46 -152 -52
-193 -14 -94 -5 -268 20 -376 l19 -79 -44 50 c-79 89 -127 215 -159 421 -9 58
-15 106 -13 107 1 1 56 53 120 115 64 61 119 112 122 112 3 0 10 -9 16 -20z
m297 -111 l104 -103 -16 -103 c-32 -203 -80 -330 -159 -418 l-44 -50 19 79
c25 108 34 282 20 376 -6 41 -30 128 -52 193 -31 93 -37 121 -29 137 10 18 13
19 32 6 11 -8 67 -61 125 -117z m-2507 -3 c0 -2 -30 -9 -67 -16 -38 -7 -78
-17 -90 -21 -13 -5 -23 -6 -23 -4 0 3 23 36 51 74 l52 69 38 -49 c22 -26 39
-50 39 -53z m4693 27 c26 -34 47 -64 47 -67 0 -3 -10 -2 -22 3 -13 4 -54 14
-91 21 -37 7 -67 15 -65 19 11 23 74 98 79 93 3 -4 27 -35 52 -69z m-3018 -85
c-85 -115 -135 -245 -151 -397 l-7 -65 -22 29 c-15 18 -30 64 -45 134 -12 58
-31 141 -41 185 -11 43 -18 80 -16 83 3 2 51 15 108 28 57 13 127 32 154 43
28 11 53 20 57 21 5 1 -12 -27 -37 -61z m1225 41 c30 -12 102 -32 159 -45 57
-12 105 -25 108 -27 2 -3 -5 -40 -16 -83 -10 -44 -29 -127 -41 -185 -15 -70
-30 -116 -45 -134 l-22 -29 -7 65 c-16 152 -66 282 -151 397 -25 34 -44 62
-42 62 1 0 27 -9 57 -21z m-590 -133 c19 -81 22 -112 18 -232 -5 -128 -31
-284 -48 -284 -17 0 -43 156 -48 284 -4 120 -1 151 18 232 13 52 26 94 30 94
4 0 17 -42 30 -94z m-2244 -3 c-8 -59 -54 -264 -61 -271 -7 -8 -154 47 -228
85 -37 20 -86 52 -108 72 l-41 36 124 48 c112 43 230 74 297 76 22 1 23 -1 17
-46z m4539 32 c44 -8 135 -36 203 -62 l124 -48 -41 -36 c-22 -20 -71 -52 -108
-72 -74 -38 -221 -93 -228 -85 -7 7 -53 212 -61 271 -8 55 -12 54 111 32z
m-4305 -84 c52 -23 103 -45 114 -49 14 -6 -4 -17 -75 -45 -152 -59 -212 -78
-206 -64 2 6 12 56 23 110 14 79 21 97 33 93 9 -2 59 -23 111 -45z m4105 -48
c10 -54 20 -104 22 -110 3 -8 -19 -4 -64 11 -66 23 -225 85 -230 90 -2 2 39
19 90 40 50 20 103 43 117 51 14 8 30 14 36 15 6 0 19 -44 29 -97z m-2512
-113 c20 -87 43 -147 95 -254 11 -22 -195 73 -222 103 -15 16 -15 25 -2 92 17
87 28 118 64 179 l26 45 7 -30 c4 -16 18 -77 32 -135z m863 73 c14 -28 31 -86
39 -129 14 -70 14 -79 -1 -95 -27 -30 -233 -125 -222 -103 65 133 100 241 123
379 7 38 7 39 22 20 8 -11 26 -43 39 -72z m-2136 -89 c-63 -64 -211 -174 -235
-174 -21 0 -120 29 -194 56 l-44 17 94 34 c252 93 305 108 394 112 l29 1 -44
-46z m3452 20 c31 -8 108 -34 170 -58 62 -25 126 -48 141 -52 21 -5 25 -9 15
-15 -19 -13 -202 -69 -224 -69 -24 0 -174 113 -234 175 l-45 47 60 -7 c33 -3
86 -13 117 -21z m-3130 -65 c227 -82 308 -128 369 -213 21 -28 29 -51 29 -81
0 -23 -3 -44 -6 -47 -3 -4 -38 8 -77 26 -68 31 -182 71 -272 96 -22 6 -123 15
-225 20 -102 5 -197 12 -212 16 -27 5 -25 7 45 64 40 32 97 83 127 114 30 31
60 56 67 56 7 0 77 -23 155 -51z m2898 -5 c30 -31 87 -82 127 -114 70 -57 72
-59 45 -64 -15 -4 -110 -11 -212 -16 -102 -5 -203 -14 -225 -20 -90 -25 -204
-65 -272 -96 -39 -18 -74 -30 -77 -26 -3 3 -6 24 -6 47 0 71 69 149 184 207
66 34 341 137 366 138 9 0 40 -25 70 -56z m-1890 -295 l104 -43 -54 -12 c-30
-6 -88 -21 -128 -34 -40 -12 -78 -20 -85 -17 -14 5 -37 111 -37 166 l0 31 48
-24 c26 -13 94 -43 152 -67z m849 -27 c-7 -42 -18 -76 -25 -79 -8 -3 -46 5
-86 17 -40 13 -97 28 -127 34 l-55 12 125 52 c68 29 135 59 149 67 23 13 25
12 29 -8 1 -12 -3 -55 -10 -95z m-2030 23 c91 -5 165 -14 227 -30 149 -38 148
-44 -11 -45 -195 0 -455 37 -455 64 0 22 12 26 59 21 25 -2 106 -7 180 -10z
m3259 -7 c2 -12 -9 -19 -50 -28 -113 -24 -269 -40 -403 -39 -127 1 -137 2
-110 14 65 30 214 56 365 64 190 10 194 10 198 -11z m-3610 -145 c141 -99 323
-236 319 -239 -10 -11 -507 240 -507 256 0 6 52 19 113 29 5 0 38 -20 75 -46z
m3870 31 c23 -4 42 -10 42 -14 0 -16 -497 -267 -507 -256 -4 3 134 107 317
239 41 29 72 45 85 42 11 -2 39 -7 63 -11z m-2174 -32 c-57 -36 -195 -151
-219 -182 -16 -22 -33 -39 -36 -40 -6 0 -49 137 -49 158 0 6 7 12 14 12 8 0
51 11 95 25 107 34 233 51 195 27z m528 -27 c44 -14 86 -25 94 -25 7 0 14 -6
14 -12 0 -21 -42 -158 -49 -158 -3 1 -21 20 -39 43 -18 23 -75 74 -127 112
-52 39 -94 73 -95 76 0 11 123 -11 202 -36z m-1917 13 c56 -8 178 -13 327 -12
l237 0 -19 -25 c-52 -72 -203 -179 -297 -210 l-41 -14 -58 58 c-32 31 -103 90
-158 132 -118 88 -129 97 -101 90 11 -3 61 -11 110 -19z m3230 13 c-6 -5 -55
-43 -111 -84 -55 -42 -126 -101 -158 -132 l-58 -58 -41 14 c-94 31 -245 138
-297 209 l-18 26 251 0 c177 1 277 6 337 17 109 19 106 19 95 8z m-2360 -161
c20 -69 51 -160 70 -203 l33 -78 -48 -57 c-47 -56 -215 -208 -228 -206 -4 0
-34 4 -68 8 l-61 8 -12 83 c-7 45 -23 111 -35 147 l-23 65 58 37 c108 70 205
190 245 304 22 61 18 68 69 -108z m735 79 c55 -107 59 -120 70 -286 8 -111 7
-159 -4 -220 -19 -104 -50 -183 -86 -218 l-30 -29 -30 29 c-36 35 -67 114 -86
218 -11 61 -12 109 -4 220 5 78 14 156 19 174 12 42 91 193 101 193 4 0 27
-36 50 -81z m765 -93 c41 -62 132 -150 196 -190 l46 -29 -23 -65 c-12 -36 -28
-102 -35 -147 l-12 -83 -61 -8 c-34 -4 -64 -8 -68 -8 -13 -2 -181 150 -228
207 l-49 57 29 63 c26 58 85 237 111 337 l11 45 24 -63 c13 -34 39 -86 59
-116z m-2980 54 c97 -159 124 -207 135 -235 l11 -28 -38 29 c-21 15 -76 60
-123 99 -47 39 -116 95 -153 124 -37 30 -66 56 -63 58 4 4 170 52 172 49 1 0
27 -44 59 -96z m4561 47 c3 -3 -26 -28 -63 -58 -37 -29 -106 -85 -153 -124
-47 -39 -102 -84 -123 -100 l-39 -29 15 35 c8 20 41 78 72 130 32 52 72 117
88 145 l30 52 84 -23 c47 -13 87 -26 89 -28z m-4420 -46 c11 -10 301 -157 389
-196 l60 -27 -140 -30 c-77 -16 -150 -32 -161 -35 -18 -4 -24 2 -34 34 -16 48
-52 120 -101 201 -34 56 -40 78 -13 53z m4035 -53 c-49 -81 -85 -153 -101
-201 -10 -32 -16 -38 -34 -34 -11 3 -84 19 -161 35 l-140 30 60 27 c88 39 378
186 390 196 26 25 20 3 -14 -53z m-4539 -51 c14 -39 54 -139 88 -220 34 -82
60 -150 58 -152 -4 -4 -331 198 -376 232 l-34 25 44 45 c47 49 167 143 183
143 6 0 22 -33 37 -73z m2318 17 c-6 -27 -13 -118 -17 -202 l-6 -152 -38 52
c-21 29 -52 78 -68 109 l-31 56 39 59 c32 50 120 139 128 130 2 -1 -2 -25 -7
-52z m538 -73 l42 -63 -30 -56 c-17 -32 -49 -82 -70 -112 l-40 -55 0 105 c-1
98 -11 215 -26 285 l-7 30 44 -36 c24 -19 63 -64 87 -98z m2306 85 c33 -24 83
-67 109 -94 l49 -50 -34 -25 c-45 -34 -372 -236 -376 -232 -2 2 24 70 58 152
34 81 74 181 88 220 15 40 31 73 36 73 5 0 36 -20 70 -44z m-4894 -131 c47
-39 108 -90 137 -112 l52 -41 -95 -46 c-53 -25 -99 -46 -103 -46 -5 0 -129
288 -160 373 -5 13 48 -28 169 -128z m4613 -58 c-43 -103 -80 -187 -84 -187
-4 0 -50 21 -102 46 l-95 46 100 81 c220 180 253 205 255 203 2 -1 -32 -86
-74 -189z m-5165 -104 c77 -139 205 -403 199 -410 -4 -3 -21 0 -39 8 -50 19
-421 188 -425 193 -8 8 83 147 145 221 35 41 65 75 67 75 2 0 26 -39 53 -87z
m5783 -37 c43 -52 112 -166 106 -172 -5 -5 -377 -174 -425 -193 -18 -8 -35
-11 -39 -8 -6 7 122 271 201 411 l49 90 35 -40 c19 -21 52 -61 73 -88z m-4098
15 c10 -29 20 -79 24 -110 l6 -58 -94 -6 c-90 -6 -381 -72 -489 -111 -85 -31
-174 -90 -255 -168 l-82 -78 -59 44 c-63 46 -110 94 -137 138 -17 27 -17 27
26 56 61 42 135 78 261 127 108 41 167 57 406 108 63 14 169 45 235 70 66 24
125 44 130 43 6 -1 18 -26 28 -55z m2435 3 c67 -24 191 -58 275 -75 184 -37
227 -49 356 -99 116 -45 189 -81 248 -122 43 -29 43 -29 26 -56 -27 -44 -74
-92 -137 -138 l-59 -44 -82 78 c-81 78 -170 137 -255 168 -107 38 -399 105
-487 111 l-93 6 0 31 c0 38 26 150 41 178 7 13 16 17 27 13 9 -4 72 -27 140
-51z m-1647 -291 c57 -70 129 -158 161 -194 32 -37 58 -70 58 -75 0 -4 12 -21
28 -38 16 -18 6 -13 -26 15 -198 165 -349 260 -502 313 -41 15 -81 29 -89 32
-10 3 16 36 84 104 l98 99 43 -64 c23 -35 89 -121 145 -192z m1051 56 c-4 -3
-43 -18 -87 -33 -156 -54 -306 -148 -507 -315 -32 -28 -42 -33 -25 -15 15 17
27 34 27 38 0 4 24 36 54 69 91 104 276 339 314 399 l37 57 97 -97 c54 -53 94
-99 90 -103z m-3247 113 c50 -31 92 -57 94 -59 5 -4 -90 -92 -99 -93 -5 0
-110 205 -110 216 0 6 3 5 115 -64z m5133 -46 c-29 -58 -55 -106 -58 -106 -9
1 -104 89 -99 93 21 17 204 126 206 123 2 -2 -20 -51 -49 -110z m-5681 -158
c44 -47 316 -409 311 -414 -3 -2 -90 0 -194 6 -104 5 -201 10 -216 10 -25 0
-28 4 -28 34 0 90 68 396 88 396 5 0 22 -15 39 -32z m6233 -35 c23 -76 60
-276 60 -329 0 -30 -3 -34 -27 -34 -16 0 -113 -5 -217 -10 -104 -6 -191 -8
-194 -6 -5 5 267 367 311 414 17 17 34 32 39 32 4 0 17 -30 28 -67z m-5436
-67 c27 -47 92 -109 166 -159 25 -17 46 -31 48 -33 2 -1 -10 -28 -26 -61 -101
-198 -99 -361 4 -514 19 -28 34 -52 34 -53 0 -2 -55 -44 -122 -93 -145 -107
-227 -152 -239 -131 -4 7 -24 60 -43 118 -38 117 -56 253 -56 429 0 149 41
319 90 381 11 14 25 36 31 50 9 22 76 110 84 110 2 0 15 -20 29 -44z m4682
-61 c8 -16 23 -41 34 -55 49 -62 90 -233 90 -381 0 -176 -18 -312 -56 -429
-19 -58 -39 -111 -43 -118 -12 -21 -94 24 -238 131 -68 49 -123 91 -123 93 0
1 15 25 34 53 103 153 105 316 4 514 -16 33 -28 60 -26 61 2 2 23 16 48 33 75
51 139 112 167 161 l27 45 34 -39 c19 -21 41 -52 48 -69z m-5146 34 c41 -19
76 -34 77 -34 5 -2 -41 -135 -47 -134 -4 0 -112 143 -159 210 -17 24 -30 28
129 -42z m5629 41 c-49 -69 -155 -209 -160 -209 -3 -1 -13 25 -23 57 -10 31
-21 63 -23 70 -3 6 1 12 8 12 8 1 57 21 109 45 52 25 97 45 99 45 2 0 -3 -9
-10 -20z m-3808 -11 l52 -11 -34 -26 c-54 -41 -133 -124 -171 -181 l-35 -52
-7 68 c-4 37 -18 100 -31 138 -14 39 -25 74 -25 79 0 11 179 0 251 -15z m2109
14 c0 -5 -11 -39 -25 -78 -13 -38 -27 -101 -31 -138 l-7 -68 -25 38 c-44 67
-110 139 -162 179 -47 36 -49 39 -29 46 53 20 279 36 279 21z m-2445 -80 c25
-56 52 -179 42 -190 -3 -3 -23 11 -44 31 -47 46 -209 156 -229 156 -8 0 -14 4
-14 8 0 9 201 61 213 54 4 -2 19 -29 32 -59z m2775 5 c0 -4 -6 -8 -14 -8 -20
0 -182 -110 -229 -156 -21 -20 -41 -34 -44 -31 -16 16 36 203 68 243 7 8 39 4
114 -14 58 -15 105 -30 105 -34z m-2106 -47 c86 -42 252 -149 243 -157 -1 -1
-29 4 -62 12 -110 26 -212 21 -410 -20 -99 -21 -184 -41 -189 -44 -5 -3 -6 3
-3 12 14 35 102 132 177 194 91 75 97 75 244 3z m1434 -3 c75 -61 165 -158
179 -194 3 -9 2 -15 -3 -12 -5 3 -90 23 -189 44 -198 41 -300 46 -410 20 -33
-8 -61 -13 -62 -12 -4 4 118 91 170 121 65 37 198 95 220 95 10 0 53 -28 95
-62z m-2463 -17 c17 -8 59 -27 94 -43 65 -29 181 -109 216 -149 l20 -22 -25 7
c-14 4 -115 10 -225 13 -152 4 -216 2 -267 -9 -38 -8 -68 -13 -68 -11 0 11 32
62 59 97 33 42 149 139 160 134 3 -2 20 -10 36 -17z m3354 -30 c63 -50 112
-105 137 -153 8 -15 14 -29 14 -31 0 -2 -30 3 -67 11 -52 11 -116 13 -268 9
-110 -3 -211 -9 -225 -13 l-25 -7 20 22 c36 42 152 121 221 151 38 17 80 37
94 45 36 19 33 20 99 -34z m-2114 -211 c116 -31 116 -31 50 -79 -67 -47 -77
-48 -300 -31 -108 9 -327 49 -341 62 -2 2 74 20 169 41 198 42 285 43 422 7z
m1182 -7 c100 -21 180 -39 178 -41 -2 -2 -50 -14 -107 -28 -69 -16 -163 -28
-285 -36 l-182 -12 -56 38 c-30 22 -58 42 -61 47 -5 9 101 42 181 57 89 17
146 13 332 -25z m-3549 -95 c2 -27 1 -48 -3 -48 -6 0 -185 100 -185 103 0 1
42 0 92 -3 l93 -5 3 -47z m5692 58 c0 -5 -177 -106 -185 -106 -4 0 -5 21 -3
48 l3 47 90 6 c50 3 91 6 93 7 1 1 2 0 2 -2z m-5912 -111 c186 -95 180 -87 86
-123 -74 -28 -251 -72 -292 -72 -16 0 -21 12 -31 69 -6 39 -11 106 -11 150 l0
79 58 -18 c33 -9 118 -48 190 -85z m1600 89 c34 -4 62 -10 62 -14 0 -13 -146
-70 -219 -86 -36 -8 -144 -18 -239 -21 l-173 -6 3 44 c3 44 3 44 57 62 104 35
304 43 509 21z m3210 -9 c93 -22 102 -29 102 -77 l0 -41 -172 6 c-95 3 -203
13 -239 21 -74 16 -219 73 -219 86 0 5 39 11 88 15 48 3 94 8 102 10 33 9 279
-6 338 -20z m1372 -192 c-10 -71 -15 -83 -31 -83 -42 0 -218 44 -293 72 -69
27 -77 32 -62 43 40 30 285 150 336 165 l55 16 3 -65 c2 -36 -2 -103 -8 -148z
m-4133 96 c70 -17 184 -37 253 -43 l125 -11 -50 -31 c-133 -84 -199 -116 -220
-106 -40 18 -142 110 -179 160 -20 28 -44 53 -54 55 -9 3 -14 5 -10 6 3 0 64
-13 135 -30z m1971 24 c-10 -2 -34 -27 -54 -55 -37 -50 -139 -142 -179 -160
-21 -10 -87 22 -220 106 l-50 31 130 12 c72 7 182 25 245 42 63 16 122 29 130
29 10 0 10 -2 -2 -5z m-2398 -118 c-70 -91 -228 -195 -295 -195 -39 0 -138 58
-190 110 l-49 50 54 0 c162 0 373 34 465 75 28 12 52 21 54 19 2 -2 -15 -28
-39 -59z m2835 2 c77 -18 258 -37 345 -37 l54 0 -49 -50 c-52 -52 -151 -110
-190 -110 -36 0 -125 44 -191 94 -53 39 -144 140 -144 159 0 3 24 -5 53 -17
28 -13 84 -31 122 -39z m-2676 -27 c-7 -72 2 -197 16 -219 7 -12 -144 -15
-232 -5 -58 7 -65 15 -29 32 41 19 153 130 202 202 26 39 48 69 49 67 1 -1 -1
-36 -6 -77z m2433 -1 c49 -69 155 -173 195 -192 12 -5 23 -13 23 -17 0 -11
-92 -20 -197 -20 l-93 0 11 28 c12 30 15 227 4 263 -9 31 0 21 57 -62z m-2161
-137 c2 -10 -151 -75 -159 -67 -4 4 -9 60 -11 126 l-3 119 85 -86 c47 -47 87
-88 88 -92z m2004 -30 c-7 -49 -6 -49 -113 -1 l-62 28 87 88 88 88 3 -80 c2
-44 0 -99 -3 -123z m-1358 131 c-153 -261 -208 -387 -286 -652 -7 -23 -12 -19
-105 69 -54 53 -119 126 -146 169 l-50 75 131 67 c144 76 255 142 372 224 76
53 93 63 84 48z m668 -73 c103 -73 173 -115 334 -198 l131 -68 -50 -75 c-27
-43 -92 -116 -146 -169 -93 -88 -98 -92 -105 -69 -78 264 -137 398 -286 652
-9 15 39 -13 122 -73z m-356 -36 c52 -169 64 -251 64 -429 0 -137 -4 -177 -26
-280 -33 -146 -67 -265 -77 -265 -10 0 -44 119 -77 265 -22 103 -26 143 -26
280 0 104 5 188 15 241 19 95 78 294 88 294 4 0 21 -48 39 -106z m-2777 39 c2
-32 4 -59 3 -60 0 -2 -188 36 -200 41 -5 3 -1 7 10 11 11 3 52 19 90 35 39 16
75 29 82 29 7 1 13 -21 15 -56z m5570 28 c40 -15 82 -32 93 -36 11 -4 16 -9
10 -11 -14 -5 -200 -43 -200 -41 -5 14 9 117 15 117 5 0 41 -13 82 -29z
m-5762 -157 c102 -20 187 -39 189 -40 13 -11 -40 -45 -163 -106 -76 -37 -140
-67 -141 -66 -14 16 -115 241 -115 256 0 2 10 2 23 -1 12 -3 105 -22 207 -43z
m6090 43 c0 -14 -101 -239 -115 -255 -1 -1 -65 29 -141 66 -123 61 -176 95
-163 106 4 3 386 83 407 85 6 1 12 0 12 -2z m-4976 -162 c120 -57 311 -98 519
-111 l117 -7 2 -76 c2 -113 -13 -276 -28 -302 -2 -3 -26 0 -53 7 -27 7 -143
22 -258 34 -458 46 -528 61 -664 142 -65 39 -146 115 -170 159 -8 16 -1 23 48
48 32 16 116 72 186 125 l129 95 50 -40 c28 -21 82 -55 122 -74z m3946 9 c69
-50 149 -103 178 -118 44 -23 51 -29 43 -45 -24 -44 -105 -120 -170 -159 -136
-81 -206 -96 -664 -142 -115 -12 -231 -27 -258 -34 -27 -7 -51 -10 -53 -7 -15
26 -30 189 -28 302 l2 76 118 7 c287 18 527 88 647 190 22 19 45 31 50 28 6
-3 66 -47 135 -98z m-4797 -53 c4 -16 -2 -21 -35 -26 -52 -9 -56 -2 -16 24 41
26 44 26 51 2z m5384 -2 c42 -26 37 -33 -15 -24 -33 5 -39 10 -35 26 7 24 8
24 50 -2z m-2922 -171 c0 -188 9 -250 70 -478 8 -30 12 -56 10 -59 -8 -8 -101
94 -139 151 -22 33 -43 84 -55 132 l-20 79 36 111 c28 87 91 246 97 246 0 0 1
-82 1 -182z m505 -54 l39 -120 -20 -80 c-12 -48 -33 -99 -55 -132 -38 -57
-131 -159 -139 -151 -2 3 2 29 10 59 61 229 70 290 70 478 l0 184 28 -59 c15
-32 45 -112 67 -179z m-1221 165 c34 -73 125 -183 227 -274 49 -44 91 -81 93
-83 6 -3 -10 -117 -35 -249 l-16 -93 -53 49 c-92 83 -235 167 -353 206 -42 13
-52 21 -47 33 20 52 36 225 30 318 l-6 100 63 21 c35 11 65 21 68 21 3 1 16
-21 29 -49z m1944 25 l58 -17 -6 -101 c-6 -93 10 -266 30 -318 5 -12 -5 -20
-47 -33 -118 -39 -261 -123 -353 -206 l-53 -49 -16 93 c-25 132 -41 246 -35
249 2 2 44 39 93 83 102 91 193 200 227 274 13 27 29 48 34 46 6 -2 36 -11 68
-21z m-3624 -113 c9 -16 -3 -32 -91 -113 -55 -51 -107 -106 -113 -122 l-13
-30 -44 70 c-24 38 -61 95 -81 126 l-36 57 52 5 c29 3 86 9 127 14 136 16 188
14 199 -7z m5380 9 c47 -6 112 -13 143 -16 l57 -5 -36 -57 c-20 -31 -57 -88
-81 -126 l-44 -70 -13 30 c-6 16 -58 71 -113 122 -88 81 -100 97 -91 113 11
22 47 24 178 9z m-5254 -212 c-11 -35 -55 -249 -55 -271 0 -14 -4 -28 -9 -31
-20 -13 -222 154 -252 207 -9 16 -8 17 10 5 23 -14 69 -1 211 63 94 43 101 45
95 27z m5044 -26 c145 -65 189 -78 212 -64 18 12 19 11 10 -5 -30 -53 -232
-220 -252 -207 -5 3 -9 17 -9 31 0 22 -44 236 -55 271 -6 17 -2 16 94 -26z
m-4887 -79 l60 -37 -23 -16 c-13 -8 -48 -34 -79 -57 -30 -23 -57 -37 -59 -31
-4 13 29 178 36 178 3 0 32 -17 65 -37z m4723 -47 c10 -46 16 -88 14 -94 -2
-6 -29 8 -59 31 -31 23 -66 49 -79 57 l-23 16 58 36 c33 21 62 37 65 38 4 0
14 -38 24 -84z m-4437 -81 c5 -5 -31 -65 -39 -65 -4 0 -9 18 -11 41 -3 39 -3
40 22 34 14 -4 27 -8 28 -10z m1720 -82 c48 -60 45 -62 -47 -22 -43 19 -43 20
-37 57 3 20 6 44 6 52 1 10 6 8 18 -8 9 -13 37 -48 60 -79z m711 19 c1 -23
-35 -45 -109 -67 -24 -8 -23 -6 8 29 18 21 45 56 59 79 l27 42 7 -30 c4 -16 7
-40 8 -53z m1683 38 c-5 -48 -12 -50 -35 -11 -21 36 -21 38 1 44 35 9 38 7 34
-33z m-4260 -26 c3 -27 7 -77 7 -111 l1 -62 -32 6 c-18 3 -71 19 -117 36 l-84
30 53 46 c70 60 142 111 155 107 6 -1 13 -25 17 -52z m4436 16 c31 -21 77 -57
101 -78 l44 -39 -84 -30 c-46 -17 -99 -33 -118 -37 l-34 -6 6 106 c7 99 11
124 23 124 3 0 31 -18 62 -40z m-3933 -12 c2 -2 -20 -28 -50 -58 -38 -38 -56
-49 -59 -39 -19 50 -36 102 -36 108 0 7 137 -3 145 -11z m3480 -40 c-10 -29
-20 -56 -24 -60 -4 -5 -31 17 -60 46 l-54 55 34 5 c37 6 112 12 118 9 1 -1 -5
-26 -14 -55z m-3700 -55 c17 -49 31 -94 33 -100 3 -10 -18 -13 -80 -12 -129 1
-128 -1 -55 107 34 50 64 92 67 92 3 0 19 -39 35 -87z m3894 -8 c71 -105 72
-103 -57 -104 -62 -1 -83 2 -80 12 15 57 64 187 69 185 4 -2 34 -43 68 -93z
m-3369 75 c89 -15 234 -60 224 -70 -9 -8 -328 -110 -346 -110 -5 0 -7 12 -4
28 3 15 11 57 17 95 12 75 7 73 109 57z m2849 -57 c6 -38 14 -80 17 -95 3 -16
1 -28 -4 -28 -18 0 -337 102 -346 110 -16 15 208 75 295 79 26 1 28 -3 38 -66z
m-3074 -57 c-7 -53 -9 -56 -40 -62 -17 -3 -44 -4 -59 -2 -26 3 -25 4 34 67 34
35 63 61 66 58 3 -3 3 -30 -1 -61z m3274 -17 l44 -52 -56 5 c-31 3 -59 7 -61
9 -2 2 -7 30 -11 63 l-8 58 24 -16 c13 -8 44 -39 68 -67z m-2559 -76 c76 -68
113 -183 96 -296 l-7 -46 -103 49 c-82 38 -313 131 -461 185 -17 6 -11 11 35
31 30 14 80 38 110 55 30 16 79 42 108 56 29 14 58 33 65 43 11 18 13 18 61
-8 27 -15 71 -46 96 -69z m2025 11 c87 -46 153 -79 205 -101 24 -10 24 -11 5
-18 -172 -64 -379 -147 -461 -185 l-103 -49 -7 46 c-16 106 19 222 84 286 20
20 63 52 96 71 57 34 59 35 75 16 9 -10 57 -40 106 -66z m-1498 54 c32 -12 62
-24 66 -28 6 -6 -121 -70 -138 -70 -7 0 -6 85 1 104 8 20 1 20 71 -6z m777 6
c7 -19 8 -104 1 -104 -15 0 -145 64 -140 69 6 6 114 49 126 50 4 1 10 -6 13
-15z m-485 -334 c-4 -107 -13 -235 -18 -285 -6 -49 -11 -117 -11 -150 -1 -78
-13 -57 -35 60 -22 112 -16 339 10 425 18 59 56 152 60 148 2 -2 -1 -91 -6
-198z m167 75 c35 -109 45 -317 19 -450 -21 -115 -34 -138 -35 -63 0 32 -6
124 -14 205 -8 82 -17 213 -19 292 -5 163 0 164 49 16z m-398 66 c-19 -22 -50
-67 -68 -101 -58 -100 -59 -102 -60 -50 0 25 -3 62 -6 82 l-6 37 83 39 c46 21
86 38 88 36 2 -2 -12 -21 -31 -43z m714 -30 c4 -3 4 -42 0 -86 l-8 -80 -23 45
c-31 58 -94 152 -115 169 -36 30 -12 28 62 -6 42 -19 80 -38 84 -42z m-646
-67 c-4 -9 -11 -80 -16 -157 -14 -212 6 -326 96 -538 30 -71 54 -142 54 -160
l-1 -34 -25 30 c-58 69 -162 236 -191 305 -17 41 -42 113 -54 160 l-22 85 33
87 c31 83 114 238 126 238 4 0 3 -7 0 -16z m509 -79 c19 -33 48 -98 66 -145
l33 -85 -23 -85 c-12 -47 -37 -119 -54 -160 -29 -69 -133 -236 -191 -305 l-25
-30 -1 34 c0 18 24 89 54 160 90 212 110 326 96 538 -5 77 -12 149 -16 159 -5
18 -4 18 11 -1 9 -11 32 -47 50 -80z m-1785 -27 l45 -53 -35 22 c-19 12 -55
33 -78 46 -28 15 -39 27 -30 30 35 14 55 5 98 -45z m3095 46 c12 -5 6 -12 -27
-31 -24 -14 -59 -34 -78 -46 l-35 -22 45 53 c44 51 61 59 95 46z m-2472 -184
l57 -13 -33 -61 c-17 -33 -54 -84 -82 -114 l-50 -54 -155 150 c-86 82 -172
169 -192 194 l-36 44 217 -67 c119 -37 242 -72 274 -79z m2210 104 c-20 -26
-107 -114 -193 -196 l-155 -150 -50 54 c-27 30 -64 81 -82 114 l-32 61 72 17
c51 12 427 127 475 145 2 0 -14 -20 -35 -45z m-3062 -106 c31 -76 56 -138 54
-138 -2 0 -24 29 -50 65 -25 36 -71 95 -101 130 -36 42 -51 67 -42 69 7 3 20
7 28 10 43 15 53 3 111 -136z m3602 125 c4 -2 -17 -33 -47 -68 -30 -36 -76
-94 -101 -130 -26 -36 -48 -65 -50 -65 -2 0 40 104 99 244 15 37 17 38 53 31
21 -4 41 -9 46 -12z m-3845 -118 c34 -114 82 -308 78 -312 -2 -2 -39 34 -82
79 -43 46 -114 117 -158 159 l-79 76 104 41 c57 22 107 38 111 34 3 -4 15 -38
26 -77z m4141 20 l44 -18 -79 -76 c-44 -42 -115 -113 -158 -158 -43 -46 -80
-83 -82 -83 -5 0 -1 19 47 202 21 80 43 158 49 172 l10 26 62 -24 c35 -13 83
-32 107 -41z m-3624 -71 c55 -40 138 -107 184 -149 46 -41 97 -83 113 -92 15
-10 28 -20 28 -24 0 -14 -162 -37 -280 -40 -64 -2 -75 0 -72 14 1 9 -20 67
-48 129 -55 121 -120 275 -120 284 0 10 95 -50 195 -122z m3071 35 c-19 -46
-57 -135 -86 -197 -28 -62 -49 -120 -48 -129 3 -14 -8 -16 -72 -14 -118 3
-280 26 -280 40 0 4 13 14 29 24 16 9 64 49 107 88 117 107 369 287 382 274 2
-1 -13 -40 -32 -86z m-3896 -169 c18 -47 54 -141 80 -210 27 -68 47 -126 45
-128 -2 -2 -41 23 -87 55 -46 33 -138 97 -206 143 -67 46 -119 87 -115 91 4 4
60 43 123 88 96 67 116 77 121 63 4 -9 21 -55 39 -102z m4828 -38 l23 -18
-123 -84 c-68 -46 -160 -110 -205 -142 -44 -32 -84 -58 -87 -58 -8 0 54 168
98 269 19 44 42 105 51 136 l16 55 102 -70 c56 -39 112 -78 125 -88z m-4237
-159 c-79 -19 -76 -21 -95 70 -10 45 -24 104 -32 131 -8 27 -14 54 -14 59 0 5
42 -49 94 -120 l94 -128 -47 -12z m3500 181 c-11 -44 -25 -105 -31 -136 -13
-64 -13 -64 -91 -45 l-47 12 92 126 c50 69 92 125 94 124 1 -1 -6 -38 -17 -81z
m-2450 -51 c-6 -43 -42 -167 -79 -277 l-67 -198 -40 -15 c-51 -18 -44 -19
-145 12 -71 23 -110 28 -240 32 -137 4 -167 2 -260 -18 -58 -13 -121 -23 -142
-22 -36 1 -178 68 -178 84 0 20 140 50 275 60 372 25 434 37 578 111 95 50
204 155 261 252 21 36 41 64 44 62 2 -3 -1 -40 -7 -83z m1315 20 c57 -96 166
-201 261 -251 144 -74 206 -86 578 -111 135 -10 275 -40 275 -60 0 -16 -142
-83 -178 -84 -21 -1 -84 9 -142 22 -93 20 -123 22 -260 18 -130 -4 -169 -9
-240 -32 -101 -31 -94 -30 -145 -12 l-40 15 -63 183 c-34 101 -69 218 -77 259
-14 74 -18 120 -11 120 2 0 21 -30 42 -67z m-2639 -245 c-27 -15 -55 -32 -62
-38 -16 -13 -17 -12 -45 74 -13 39 -40 113 -61 165 l-39 94 129 -134 128 -134
-50 -27z m4094 199 c-21 -51 -48 -124 -61 -163 -12 -38 -24 -72 -26 -76 -3 -3
-30 9 -61 28 -31 19 -61 34 -66 34 -7 0 242 269 250 270 1 0 -15 -42 -36 -93z
m-2527 -343 c36 -53 66 -97 66 -98 0 0 -77 -1 -170 -1 -109 0 -169 4 -167 10
2 6 30 90 62 188 l59 178 42 -90 c23 -50 72 -133 108 -187z m1005 87 c34 -101
61 -184 61 -185 0 -1 -77 -1 -170 -1 -94 0 -169 2 -168 5 2 3 35 52 73 110 39
58 86 140 105 183 18 42 35 76 36 74 1 -1 29 -85 63 -186z m-3106 -86 c52 -66
94 -121 93 -122 -3 -4 -352 116 -399 137 -28 13 -47 27 -44 34 3 6 40 58 82
114 l78 102 47 -72 c26 -40 90 -127 143 -193z m5271 150 c42 -55 76 -103 76
-107 0 -4 -21 -17 -47 -28 -47 -21 -396 -141 -399 -137 -1 1 47 64 107 140 60
77 123 163 141 193 18 29 36 50 39 46 4 -4 42 -52 83 -107z m-4999 -139 l30
-24 -42 -45 -42 -46 -93 117 c-133 167 -158 199 -158 205 0 6 257 -168 305
-207z m4724 162 c-18 -24 -75 -96 -127 -160 l-93 -117 -42 46 -42 46 34 26
c59 46 296 208 300 205 2 -2 -12 -22 -30 -46z m-5205 -435 l89 -63 -195 0
c-107 0 -197 2 -200 5 -7 8 44 181 66 223 l17 32 67 -67 c37 -38 107 -96 156
-130z m5652 165 c22 -42 73 -215 66 -223 -3 -3 -93 -5 -200 -5 l-195 0 89 63
c49 34 118 92 154 129 36 37 66 67 67 67 1 1 10 -14 19 -31z m-4779 -38 c37
-22 70 -40 75 -40 22 0 2 -21 -51 -54 -74 -45 -142 -120 -204 -223 -100 -167
-116 -242 -72 -347 13 -33 23 -60 22 -60 -1 -1 -49 -25 -106 -55 -115 -60
-108 -61 -140 24 -26 71 -34 155 -21 220 23 111 161 350 264 457 49 52 138
117 159 118 4 0 38 -18 74 -40z m3790 13 c60 -35 153 -131 210 -217 68 -101
150 -268 163 -331 13 -65 5 -149 -21 -220 -32 -85 -25 -84 -140 -24 -57 30
-105 54 -106 55 -1 0 9 27 22 60 44 105 28 180 -72 347 -62 103 -130 178 -204
223 -32 20 -59 40 -59 44 0 4 13 13 28 19 15 6 48 25 72 41 25 17 49 30 53 30
5 0 29 -12 54 -27z m-4472 -75 c61 -22 114 -44 118 -48 7 -6 -13 -59 -28 -78
-1 -1 -62 39 -136 89 -150 102 -145 106 46 37z m5075 -38 c-73 -50 -134 -89
-135 -88 -6 7 -35 68 -35 73 0 7 23 16 165 66 61 21 117 39 125 39 8 0 -46
-41 -120 -90z m-2840 15 c55 -11 70 -20 98 -52 25 -29 32 -46 30 -72 -3 -34
-6 -36 -93 -71 -154 -63 -335 -181 -504 -329 -97 -85 -337 -261 -355 -261 -4
0 -6 30 -6 66 l0 66 85 91 c220 239 305 388 305 534 l0 43 188 0 c121 -1 210
-6 252 -15z m1000 -28 c0 -146 85 -295 305 -534 l85 -91 0 -66 c0 -36 -2 -66
-6 -66 -18 0 -258 176 -355 261 -169 148 -350 266 -504 329 -87 35 -90 37 -93
71 -2 26 5 43 31 72 45 54 102 65 345 66 l192 1 0 -43z m-1961 -113 c22 -31
38 -61 35 -65 -3 -5 -23 -18 -44 -29 l-38 -20 -25 43 c-53 92 -60 109 -45 118
7 5 27 9 45 9 27 0 38 -8 72 -56z m2599 47 c15 -9 8 -26 -45 -118 l-25 -43
-38 20 c-21 11 -41 24 -44 29 -3 4 13 34 35 65 34 48 45 56 72 56 18 0 38 -4
45 -9z m-2428 -21 c9 -16 8 -22 -5 -26 -21 -8 -42 1 -55 25 -10 19 -8 21 19
21 20 0 34 -7 41 -20z m2200 -1 c-13 -24 -34 -33 -55 -25 -27 10 1 46 36 46
27 0 29 -2 19 -21z m-2560 -97 c46 -86 47 -93 30 -102 -20 -11 -19 -12 -115
140 l-26 40 23 10 c13 5 27 8 31 7 4 -1 30 -44 57 -95z m2961 79 c6 -5 -87
-161 -109 -183 -5 -5 -15 -2 -24 4 -13 12 -9 24 34 106 44 82 52 92 71 86 12
-3 25 -9 28 -13z m-3101 -146 c27 -43 50 -82 50 -85 0 -3 -20 -12 -45 -21
l-46 -17 -23 42 c-14 22 -35 63 -48 89 l-23 49 30 24 c36 28 36 28 105 -81z
m3270 54 c0 -11 -55 -122 -77 -155 -13 -21 -15 -21 -58 -5 -25 9 -45 18 -45
21 0 7 92 153 109 174 12 14 16 14 42 -5 16 -11 29 -25 29 -30z m-4195 9 c3
-2 -7 -34 -22 -71 -31 -78 -24 -78 -173 -12 -52 23 -117 50 -145 60 -93 34
-78 38 133 32 112 -2 205 -7 207 -9z m5390 4 c-6 -5 -32 -17 -60 -27 -27 -10
-93 -37 -145 -60 -146 -65 -144 -65 -168 -2 -11 28 -23 60 -27 69 -6 14 1 17
47 21 111 7 362 7 353 -1z m-5730 -139 c72 -30 154 -63 183 -75 29 -12 51 -23
49 -25 -5 -5 -481 -33 -485 -28 -5 5 26 204 34 216 3 5 24 -1 47 -13 23 -11
101 -45 172 -75z m5911 -21 c9 -57 14 -105 12 -107 -4 -5 -480 23 -485 28 -2
2 20 13 49 25 129 51 316 131 353 150 22 11 43 17 47 13 4 -3 15 -53 24 -109z
m-4200 62 c2 -5 -12 -27 -32 -49 l-34 -40 -20 24 c-11 13 -20 26 -20 30 0 9
82 50 94 47 6 -1 11 -6 12 -12z m2307 -5 c23 -12 44 -23 46 -25 6 -5 -28 -54
-38 -54 -14 0 -72 80 -66 90 8 13 10 13 58 -11z m-2929 -54 c20 -36 36 -67 36
-69 0 -5 -63 -27 -65 -24 0 2 -13 22 -28 45 l-27 43 22 35 c13 19 24 35 25 35
0 0 17 -29 37 -65z m3549 -47 c-15 -24 -28 -44 -28 -46 -2 -3 -65 19 -65 24 0
2 16 33 36 69 l36 66 24 -35 24 -36 -27 -42z m-1728 43 c63 -22 66 -40 29
-148 -14 -43 -36 -116 -48 -162 l-22 -85 -34 0 -34 0 -22 85 c-12 46 -34 119
-48 162 -37 108 -34 126 29 148 28 10 61 17 75 17 14 0 48 -7 75 -17z m-1368
-61 l33 -39 -31 -21 c-16 -12 -32 -21 -33 -19 -2 2 -14 24 -26 48 -21 43 -21
45 -4 58 24 18 25 18 61 -27z m2647 27 c17 -13 17 -15 -4 -58 -12 -24 -24 -46
-26 -48 -1 -2 -17 7 -33 19 l-31 21 33 39 c36 45 37 45 61 27z m-1566 -115
c46 -154 72 -247 72 -260 0 -8 -23 5 -52 29 -29 23 -95 73 -145 110 -51 38
-93 73 -93 77 0 4 17 18 38 31 61 41 145 91 151 91 3 0 16 -35 29 -78z m513
45 c90 -55 129 -82 129 -89 0 -4 -42 -39 -92 -77 -51 -37 -117 -87 -145 -110
-30 -24 -53 -37 -53 -29 0 26 93 338 101 338 3 0 30 -15 60 -33z m-1739 -43
l27 -55 -27 -10 c-15 -6 -39 -13 -54 -16 -25 -5 -28 -3 -28 21 0 15 -7 40 -15
57 -16 29 -16 30 17 44 18 8 38 14 43 14 6 1 22 -24 37 -55z m2954 41 c35 -14
35 -14 19 -44 -8 -17 -15 -42 -15 -57 0 -24 -3 -26 -27 -21 -16 3 -40 10 -55
16 l-27 10 27 55 c15 31 31 56 35 56 4 0 23 -7 43 -15z m-3139 -95 l21 -40
-28 0 c-71 0 -115 49 -61 69 41 15 45 13 68 -29z m3310 29 c58 -20 17 -69 -57
-69 l-28 0 21 40 c25 45 23 44 64 29z m-4247 -24 c0 -12 -16 -15 -84 -15 -116
0 -142 13 -41 21 44 3 90 6 103 7 14 1 22 -4 22 -13z m5260 5 c46 0 61 -3 50
-10 -8 -5 -54 -10 -102 -10 -75 0 -88 2 -88 16 0 14 7 15 38 10 20 -3 66 -6
102 -6z m-5642 -91 c53 -11 147 -23 207 -27 l110 -7 -106 -57 c-131 -72 -251
-127 -280 -131 -19 -2 -25 8 -46 68 -13 39 -26 97 -30 129 l-6 59 27 -7 c15
-4 71 -16 124 -27z m6029 -26 c-4 -32 -17 -89 -30 -128 -21 -60 -27 -70 -46
-68 -29 4 -149 59 -280 131 l-106 57 115 7 c63 5 162 19 220 32 145 33 134 35
127 -31z m-3471 -251 c9 -13 14 -25 12 -27 -2 -2 -37 19 -78 46 -41 27 -110
68 -152 92 -43 23 -78 45 -78 48 0 3 32 34 71 68 l72 62 69 -133 c38 -73 76
-144 84 -156z m1002 219 c34 -30 62 -57 62 -60 0 -3 -35 -25 -78 -48 -42 -24
-111 -65 -152 -92 -41 -27 -76 -48 -77 -47 -2 1 26 54 60 118 35 64 71 135 82
157 20 46 18 47 103 -28z m-2585 -21 c136 -129 458 -147 675 -38 42 20 77 37
78 35 1 -1 5 -27 9 -58 l7 -56 -59 -36 c-33 -20 -95 -53 -139 -74 l-79 -38
-160 0 c-153 1 -166 2 -300 39 -198 54 -196 53 -239 89 l-39 33 101 59 c56 32
102 62 102 67 0 14 10 9 43 -22z m3977 22 c0 -5 46 -35 102 -67 l101 -59 -39
-33 c-43 -36 -41 -35 -239 -89 -134 -37 -147 -38 -300 -39 l-160 0 -79 38
c-44 21 -106 54 -139 74 l-59 36 7 56 c4 31 8 57 9 58 1 2 36 -15 78 -35 94
-48 202 -72 316 -72 153 0 289 42 357 109 30 30 45 38 45 23z m-4482 -157 c-5
-5 -227 -25 -273 -25 -38 0 -34 4 90 69 l130 70 28 -56 c16 -30 27 -56 25 -58z
m5229 -23 c-22 -4 -279 17 -285 22 -1 2 9 29 24 59 l28 56 127 -67 c90 -47
121 -68 106 -70z m-2972 24 c28 -21 52 -40 54 -42 5 -5 -60 -74 -69 -74 -7 0
-120 204 -120 216 0 4 19 -9 43 -28 23 -19 65 -52 92 -72z m509 -10 c-32 -58
-60 -106 -64 -106 -3 0 -22 16 -41 36 l-34 36 24 16 c14 10 57 42 95 74 39 31
72 55 74 53 2 -2 -23 -51 -54 -109z m-1053 -38 c17 -35 54 -97 82 -138 l50
-75 -64 56 c-35 30 -92 76 -126 103 -35 26 -63 50 -63 54 1 8 71 60 82 61 4 1
22 -27 39 -61z m1601 32 c21 -14 38 -28 38 -32 0 -4 -28 -28 -62 -54 -35 -27
-92 -73 -127 -103 l-64 -56 50 75 c28 41 65 103 82 138 18 35 35 62 39 60 4
-2 24 -14 44 -28z m-1282 -159 c41 -25 77 -47 80 -49 6 -5 -93 -92 -101 -89
-8 3 -169 242 -169 251 0 4 26 -10 58 -30 31 -21 91 -58 132 -83z m990 -13
c-45 -68 -85 -124 -89 -125 -12 -5 -106 88 -94 93 6 3 67 40 135 83 67 43 125
77 127 75 2 -1 -34 -58 -79 -126z m-3050 68 c0 -2 -26 -21 -58 -44 -32 -22
-104 -77 -161 -121 -57 -45 -107 -81 -111 -81 -10 0 -130 203 -130 219 0 7 35
11 98 12 53 1 140 5 192 9 123 9 170 11 170 6z m1530 -25 c0 -16 14 -66 30
-111 35 -96 93 -306 88 -321 -6 -19 -303 314 -303 340 0 11 162 120 178 121 4
0 7 -13 7 -29z m2041 -27 c49 -31 89 -60 89 -63 0 -10 -164 -204 -240 -284
-35 -38 -66 -64 -68 -58 -5 15 53 225 88 321 16 45 30 95 30 111 0 16 3 29 6
29 4 0 46 -25 95 -56z m1720 40 c93 -4 169 -11 169 -16 0 -15 -121 -218 -130
-218 -4 0 -54 36 -111 81 -57 44 -129 99 -161 121 -32 23 -58 43 -58 46 0 3
27 2 61 -1 33 -4 136 -10 230 -13z m-5141 -22 c0 -5 -17 -16 -37 -25 l-38 -17
30 25 c31 26 45 31 45 17z m4745 -17 l30 -25 -37 17 c-21 9 -38 20 -38 25 0
14 14 9 45 -17z m-3110 -158 l108 -103 -71 -52 -72 -52 -6 28 c-12 54 -53 198
-68 240 -8 23 -11 42 -7 42 5 0 57 -46 116 -103z m1539 61 c-15 -42 -56 -186
-68 -240 l-6 -28 -72 52 -71 52 108 103 c59 57 111 103 116 103 4 0 1 -19 -7
-42z m-3202 -76 c-33 -43 -90 -125 -128 -182 -37 -58 -69 -107 -70 -109 -7 -8
-74 43 -128 98 l-60 60 28 11 c99 37 185 78 286 135 63 36 119 65 123 65 4 0
-19 -35 -51 -78z m179 41 c-65 -80 -77 -93 -84 -93 -3 0 15 29 41 65 26 36 53
65 60 65 8 0 2 -15 -17 -37z m4441 -28 c47 -65 54 -90 11 -37 -74 87 -84 102
-71 102 7 0 34 -29 60 -65z m208 0 c101 -57 187 -98 286 -135 l28 -11 -60 -60
c-54 -55 -121 -106 -128 -98 -1 2 -33 51 -70 109 -38 57 -95 139 -128 182 -32
43 -55 78 -51 78 4 0 60 -29 123 -65z m-4436 23 c22 -6 42 -13 44 -14 5 -3
-132 -295 -161 -344 -25 -42 -27 -43 -27 -18 0 15 9 74 20 130 11 57 23 138
26 181 7 74 8 77 32 77 13 0 43 -5 66 -12z m4070 -65 c3 -43 15 -124 26 -181
11 -56 20 -115 20 -130 0 -25 -2 -24 -27 18 -30 49 -166 341 -161 344 11 8 78
24 104 25 l31 1 7 -77z m-3400 30 c11 -51 19 -309 10 -326 -8 -13 -17 4 -43
76 -19 50 -49 122 -68 159 -39 80 -40 88 -10 89 12 0 38 7 57 14 48 18 47 19
54 -12z m2719 4 c26 -7 47 -15 47 -20 0 -4 -15 -38 -33 -75 -19 -37 -49 -109
-68 -159 -44 -122 -54 -104 -46 81 8 170 13 200 36 191 9 -4 37 -12 64 -18z
m-2995 -31 c10 -11 -75 -306 -88 -306 -3 0 -28 66 -55 148 -26 81 -51 153 -53
161 -4 12 11 13 94 7 54 -4 100 -9 102 -10z m479 -90 c37 -45 91 -106 120
-137 l54 -56 -58 -21 c-62 -23 -172 -52 -195 -52 -11 0 -12 16 -7 83 4 45 5
102 3 127 -2 25 -6 71 -8 103 -6 70 -4 70 91 -47z m2313 -1 c-4 -55 -4 -137
-1 -182 5 -67 4 -83 -7 -83 -23 0 -133 29 -195 52 l-58 21 58 61 c32 34 91
101 131 150 41 48 75 86 76 84 2 -2 0 -48 -4 -103z m588 93 c-3 -7 -27 -79
-53 -160 -27 -82 -52 -148 -55 -148 -12 0 -90 266 -90 305 0 4 68 10 149 13
39 2 52 -1 49 -10z m-3633 -148 c41 -114 85 -252 85 -267 0 -10 -30 -13 -127
-13 -71 0 -138 3 -150 6 -21 6 -21 7 14 62 33 51 67 119 122 246 12 27 23 47
25 45 2 -2 16 -38 31 -79z m3778 -38 c25 -57 64 -132 85 -167 39 -61 39 -63
19 -69 -12 -3 -79 -6 -149 -6 -115 0 -128 2 -128 18 1 9 19 69 41 132 22 63
47 137 56 163 8 27 19 45 23 40 5 -4 29 -54 53 -111z m-4147 -9 c-9 -43 -17
-104 -18 -135 -2 -32 -8 -58 -13 -58 -15 0 -189 51 -195 57 -3 2 49 56 115
119 66 62 121 109 123 104 2 -5 -4 -44 -12 -87z m4538 -17 c64 -60 116 -112
116 -116 0 -7 -174 -60 -195 -60 -6 0 -11 28 -13 62 -2 34 -10 92 -17 130 -15
70 -19 105 -11 97 3 -2 57 -53 120 -113z m-3768 -57 c49 -125 50 -130 30 -134
-34 -8 -181 -23 -185 -18 -3 2 17 68 44 148 27 79 51 142 54 139 3 -3 28 -63
57 -135z m3000 -6 c26 -78 46 -144 43 -146 -4 -5 -151 10 -185 18 -20 5 -20 8
26 122 25 65 49 127 53 137 4 10 9 17 11 15 2 -2 25 -68 52 -146z"/>
</g>
</svg>
