<?xml version="1.0" standalone="no"?>
<!DOCTYPE svg PUBLIC "-//W3C//DTD SVG 20010904//EN"
 "http://www.w3.org/TR/2001/REC-SVG-20010904/DTD/svg10.dtd">
<svg version="1.0" xmlns="http://www.w3.org/2000/svg"
 width="1280.000000pt" height="1280.000000pt" viewBox="0 0 1280.000000 1280.000000"
 preserveAspectRatio="xMidYMid meet">
<metadata>
Created by potrace 1.15, written by Peter Selinger 2001-2017
</metadata>
<g transform="translate(0.000000,1280.000000) scale(0.100000,-0.100000)"
fill="#000000" stroke="none">
<path d="M6175 12454 c-131 -24 -282 -107 -301 -167 -4 -12 -20 -41 -36 -65
-38 -55 -165 -318 -211 -437 -19 -49 -61 -172 -93 -272 l-59 -183 -95 -31
c-1094 -361 -2055 -1023 -2749 -1894 -686 -859 -1159 -1973 -1326 -3120 -55
-379 -55 -500 1 -880 142 -957 496 -1898 1008 -2675 855 -1297 2127 -2149
3776 -2529 302 -70 292 -69 465 -32 1623 350 2856 1109 3737 2301 342 463 642
1029 853 1609 237 650 407 1511 375 1894 -65 765 -320 1643 -690 2376 -712
1412 -1848 2400 -3369 2931 l-134 47 -72 219 c-94 287 -212 557 -295 679 -15
22 -30 50 -34 62 -20 62 -170 144 -310 168 -110 19 -332 18 -441 -1z m468
-109 c66 -17 157 -61 157 -75 0 -15 -133 -79 -203 -97 -42 -11 -105 -16 -197
-16 -92 0 -155 5 -197 16 -70 18 -203 82 -203 97 0 11 77 51 132 69 96 31 403
35 511 6z m-630 -210 l68 -37 -48 -87 c-26 -47 -64 -120 -85 -161 l-37 -75 -1
120 c-1 66 -5 140 -10 165 -7 38 -5 51 12 82 12 20 24 36 27 34 3 -2 37 -20
74 -41z m891 -45 c-4 -8 -9 -82 -12 -164 l-5 -149 -36 74 c-20 41 -58 113 -84
161 l-48 86 73 41 73 40 23 -37 c12 -20 19 -44 16 -52z m-654 -37 c-1 -5 -9
-24 -20 -43 -15 -27 -19 -30 -20 -15 0 11 -3 30 -6 43 -5 19 -2 22 20 22 14 0
26 -3 26 -7z m346 -15 c-3 -13 -6 -32 -6 -43 -1 -15 -5 -12 -20 15 -25 46 -25
50 6 50 22 0 25 -3 20 -22z m-133 -46 c44 -97 122 -441 104 -458 -3 -3 -44 2
-91 12 -81 16 -92 16 -163 0 -42 -9 -78 -14 -81 -12 -7 8 27 202 54 305 13 52
36 121 51 153 25 56 27 58 63 58 36 0 38 -2 63 -58z m-656 -270 c-4 -114 -10
-228 -13 -253 l-6 -46 -92 -26 c-50 -14 -92 -24 -94 -22 -13 12 187 555 205
555 3 0 3 -93 0 -208z m299 -208 c-5 -12 -175 -58 -184 -49 -11 10 76 251 129
360 l54 109 3 -204 c1 -113 0 -210 -2 -216z m673 248 c44 -99 107 -289 98
-298 -5 -5 -93 12 -169 33 -16 4 -18 23 -18 221 l0 217 25 -43 c13 -24 42 -82
64 -130z m279 28 c55 -139 146 -410 139 -417 -5 -5 -158 36 -176 47 -7 4 -16
61 -21 141 -12 173 -13 376 -1 364 5 -6 31 -66 59 -135z m-1736 -816 c-117
-62 -142 -69 -142 -39 0 11 225 104 255 104 6 1 -45 -29 -113 -65z m641 4
c-61 -85 -85 -125 -161 -268 -120 -229 -158 -345 -192 -587 -10 -74 -21 -137
-23 -140 -3 -2 -43 7 -88 21 -87 26 -337 83 -469 107 -46 9 -148 14 -268 14
l-193 0 28 23 c85 71 219 176 299 234 50 37 138 103 195 148 57 45 156 112
219 150 123 72 682 361 688 355 2 -2 -14 -27 -35 -57z m1031 -42 c299 -154
506 -265 540 -288 94 -65 579 -434 626 -476 l55 -50 -140 5 c-82 4 -182 1
-240 -6 -116 -14 -423 -80 -540 -116 -44 -14 -85 -25 -90 -25 -6 0 -16 48 -23
108 -16 135 -47 276 -79 367 -51 141 -195 411 -284 532 -22 29 -37 53 -33 53
4 0 98 -47 208 -104z m495 56 c68 -26 126 -51 128 -57 1 -5 -1 -16 -5 -22 -6
-9 -44 6 -143 57 -73 38 -127 69 -119 69 8 0 71 -21 139 -47z m-1163 -39 c-64
-199 -78 -458 -34 -630 13 -51 21 -93 17 -93 -5 0 -57 17 -117 39 -107 37
-228 97 -250 123 -8 10 7 48 60 153 88 176 125 238 201 334 84 107 119 143
130 132 6 -6 3 -28 -7 -58z m211 -15 c33 -40 83 -107 111 -148 61 -90 214
-388 207 -401 -13 -20 -144 -84 -247 -120 -60 -22 -112 -39 -117 -39 -4 0 4
42 17 93 44 170 30 435 -33 626 -28 85 -15 82 62 -11z m-1468 -62 c-13 -27
-26 -31 -68 -19 -23 6 -21 8 25 28 27 12 50 21 52 20 1 -1 -3 -14 -9 -29z
m2701 5 c31 -14 37 -20 25 -25 -32 -12 -52 -6 -63 19 -14 30 -15 30 38 6z
m-2936 -113 c-10 -59 -9 -58 -59 -42 -25 9 -45 18 -45 20 0 4 92 53 102 54 4
0 5 -15 2 -32z m1585 -43 c6 -42 11 -116 11 -166 0 -94 -18 -229 -30 -229 -12
0 -30 135 -30 229 0 98 18 241 30 241 4 0 13 -34 19 -75z m1610 41 l44 -23
-47 -16 c-50 -17 -50 -17 -59 36 -5 33 4 33 62 3z m-3069 -21 c-7 -8 -16 -15
-21 -15 -5 0 -9 7 -9 15 0 9 9 15 21 15 18 0 19 -2 9 -15z m2910 -5 c0 -11 -4
-20 -8 -20 -5 0 -17 9 -27 20 -18 20 -17 20 8 20 20 0 27 -5 27 -20z m-3285
-168 c-7 -7 -95 39 -95 50 0 4 21 19 48 32 l47 24 3 -50 c2 -28 0 -53 -3 -56z
m3681 72 l45 -27 -38 -23 c-56 -34 -63 -32 -63 26 0 28 3 50 6 50 3 0 26 -12
50 -26z m-3525 -16 c22 -6 39 -14 39 -17 0 -7 -75 -61 -84 -61 -3 0 -6 20 -6
45 0 50 -2 49 51 33z m3369 -38 c0 -27 -3 -50 -6 -50 -9 0 -94 63 -94 70 0 6
60 26 88 29 8 1 12 -15 12 -49z m-3780 -151 c0 -104 9 -101 -115 -45 l-69 32
84 52 c47 28 88 52 93 52 4 0 7 -41 7 -91z m199 -22 c-24 -21 -56 -47 -71 -58
l-28 -20 0 95 0 95 71 -37 71 -37 -43 -38z m3839 -38 l-3 -51 -72 58 c-39 33
-72 61 -72 64 0 3 32 21 72 41 l72 35 3 -48 c2 -26 2 -71 0 -99z m192 95 c41
-25 77 -48 79 -50 4 -4 -108 -56 -147 -68 -21 -7 -22 -5 -22 78 0 47 4 86 8
86 4 0 41 -21 82 -46z m-4520 -294 c34 -150 33 -140 10 -140 -55 0 -286 102
-274 121 3 5 55 45 117 90 l112 81 7 -29 c4 -15 16 -71 28 -123z m170 105 c47
-19 91 -35 98 -35 8 0 12 -4 10 -9 -4 -11 -150 -163 -152 -159 -1 2 -8 30 -14
63 -7 33 -19 86 -26 118 -8 31 -11 57 -7 57 4 0 45 -16 91 -35z m4464 -27 c-8
-35 -19 -79 -24 -98 -6 -19 -10 -47 -10 -62 0 -16 -4 -28 -8 -28 -15 0 -163
163 -155 170 4 4 26 13 47 20 22 7 63 23 90 36 75 34 76 33 60 -38z m258 -35
c49 -36 85 -69 82 -74 -15 -26 -218 -109 -264 -109 -23 0 -24 -10 10 140 12
52 23 106 26 118 5 23 5 23 32 6 15 -9 66 -46 114 -81z m-2866 -18 l74 -32
-53 -7 c-72 -8 -217 -8 -217 2 1 10 20 94 25 110 4 10 17 6 50 -14 26 -15 80
-41 121 -59z m840 14 l10 -54 -55 -3 c-31 -2 -89 0 -129 3 l-74 7 75 33 c42
18 90 41 109 53 18 11 38 19 43 18 6 -1 15 -27 21 -57z m-3211 -204 c10 -27
32 -75 50 -105 39 -66 70 -127 79 -156 6 -21 4 -21 -97 11 -112 36 -244 88
-271 108 -16 12 -6 23 95 110 63 53 116 93 120 89 3 -4 14 -29 24 -57z m2575
57 c0 -32 -108 -163 -191 -233 l-48 -40 -88 37 c-48 20 -92 41 -97 45 -4 4 -5
43 -1 87 l7 80 136 7 c76 4 164 11 197 15 33 4 66 8 73 9 6 0 12 -3 12 -7z
m455 -12 c77 -5 155 -10 172 -10 37 0 38 -3 48 -106 4 -45 2 -63 -7 -67 -7 -3
-50 -21 -95 -40 l-81 -35 -75 69 c-68 63 -157 176 -157 201 0 5 12 7 28 4 15
-3 90 -11 167 -16z m-266 -77 c30 -47 87 -118 126 -157 l72 -70 -127 -73 c-70
-40 -133 -73 -139 -73 -6 0 -32 13 -58 29 -27 15 -81 47 -121 71 l-73 42 74
72 c41 40 98 112 128 159 30 48 56 87 59 87 3 0 29 -39 59 -87z m2785 -8 c58
-49 106 -92 106 -96 0 -15 -366 -154 -379 -143 -5 4 46 111 83 173 19 31 42
80 52 109 10 28 22 51 26 50 4 -2 54 -43 112 -93z m-5372 10 c29 -13 77 -30
106 -36 28 -7 52 -15 52 -18 -1 -9 -110 -125 -113 -120 -1 2 -14 29 -29 59
-15 30 -39 74 -54 98 -14 23 -24 42 -21 42 3 0 29 -11 59 -25z m5094 -17 c-15
-24 -41 -71 -58 -106 -30 -62 -31 -63 -50 -45 -11 10 -38 39 -59 65 l-40 47
83 25 c46 15 94 33 108 41 40 23 44 18 16 -27z m-4076 -95 c0 -3 -11 -20 -24
-37 -62 -82 -96 -184 -96 -291 l0 -70 -56 4 c-105 6 -243 -33 -335 -95 -28
-19 -54 -34 -58 -34 -22 0 -47 268 -36 383 l7 77 41 11 c93 25 187 41 277 49
125 10 280 12 280 3z m3415 -19 c44 -8 106 -22 138 -31 l57 -16 0 -161 c0 -88
-5 -181 -10 -206 -22 -100 -14 -93 -70 -55 -91 61 -229 100 -334 94 l-56 -4 0
70 c0 107 -34 209 -96 291 -13 17 -24 34 -24 39 0 12 303 -4 395 -21z m-568
-42 c-74 -108 -87 -260 -34 -391 l24 -60 -29 -43 c-92 -137 -131 -302 -97
-421 6 -22 9 -40 7 -42 -2 -2 -42 -8 -88 -13 l-85 -9 -65 61 c-73 68 -167 119
-261 140 -34 8 -63 17 -66 20 -3 3 18 51 47 106 66 129 109 290 118 445 l7
109 95 32 c73 25 411 109 453 113 4 1 -8 -21 -26 -47z m-2519 3 c143 -32 320
-84 348 -103 7 -4 14 -55 17 -122 8 -152 42 -284 111 -423 36 -73 49 -110 42
-115 -6 -5 -36 -14 -66 -21 -87 -19 -192 -76 -257 -140 l-59 -58 -79 9 c-43 4
-80 10 -83 12 -2 2 1 21 7 43 34 119 -5 284 -97 421 l-29 43 25 62 c22 53 26
78 26 167 1 95 -2 110 -26 160 -15 30 -35 65 -44 78 -10 14 -12 22 -5 22 7 0
83 -16 169 -35z m-1818 -108 c17 -47 55 -134 85 -193 30 -59 55 -113 55 -120
0 -10 -12 -9 -52 5 -29 10 -105 30 -168 45 -149 35 -240 65 -240 79 0 17 273
288 282 279 5 -5 22 -47 38 -95z m6185 -49 l137 -143 -34 -14 c-18 -7 -103
-31 -188 -52 -85 -21 -174 -45 -197 -53 -35 -12 -43 -13 -43 -2 0 7 25 61 55
120 42 82 115 262 115 283 0 16 39 -19 155 -139z m-4574 33 c17 -45 20 -69 15
-121 -6 -67 -31 -156 -47 -165 -15 -10 -107 45 -113 68 -20 74 1 191 49 273
l27 46 24 -23 c13 -12 33 -47 45 -78z m2896 10 c27 -57 40 -155 29 -214 -5
-29 -15 -39 -57 -61 -27 -15 -54 -24 -58 -21 -15 9 -40 95 -47 160 -8 73 13
148 54 196 24 30 26 30 40 13 8 -11 26 -43 39 -73z m-4145 -71 c-2 -10 -89
-127 -118 -159 -11 -12 -23 6 -73 109 -34 67 -61 128 -61 135 0 7 46 -4 128
-31 70 -24 126 -48 124 -54z m5467 -51 c-34 -71 -65 -129 -68 -128 -3 0 -37
41 -75 92 -48 64 -64 93 -55 96 123 44 255 84 258 78 2 -5 -25 -67 -60 -138z
m-3221 -50 c89 -45 162 -85 160 -89 -2 -5 -56 -49 -121 -99 l-118 -91 -24 54
c-40 90 -88 306 -69 306 5 0 82 -36 172 -81z m941 18 c-10 -76 -46 -201 -72
-252 l-22 -44 -115 89 c-63 49 -116 93 -117 97 -6 16 311 176 328 167 3 -2 2
-27 -2 -57z m-2883 -222 c15 -82 35 -174 45 -202 35 -103 165 -314 251 -408
28 -31 49 -57 47 -59 -2 -2 -38 -25 -79 -50 -41 -25 -101 -65 -132 -87 l-58
-42 -172 86 c-197 98 -294 154 -390 224 l-67 49 162 236 c89 130 205 292 257
359 l95 123 7 -40 c3 -21 19 -106 34 -189z m4715 203 c107 -127 481 -657 483
-686 1 -9 -44 -46 -99 -84 -121 -84 -513 -285 -531 -272 -24 18 -221 149 -240
160 -18 11 -17 14 21 55 86 93 215 300 255 407 27 71 80 334 80 395 0 26 3 47
6 47 3 0 14 -10 25 -22z m-5731 -164 c25 -37 87 -123 138 -192 50 -69 92 -129
92 -133 0 -5 -28 2 -62 15 -35 14 -115 44 -178 69 -63 24 -139 56 -168 71 -48
24 -52 29 -40 44 47 62 161 192 166 192 4 0 27 -30 52 -66z m6862 -72 c33 -40
59 -75 57 -76 -14 -12 -111 -56 -209 -93 -63 -25 -143 -55 -177 -69 -35 -13
-63 -20 -63 -15 0 4 42 64 93 133 50 69 112 155 137 192 l45 67 28 -33 c16
-18 56 -66 89 -106z m-5143 79 c84 -17 69 -53 -49 -115 -90 -47 -179 -70 -244
-62 -62 8 -116 25 -116 36 0 16 75 73 125 96 105 48 194 62 284 45z m3436 -6
c33 -9 83 -26 110 -39 50 -23 125 -80 125 -96 0 -11 -54 -28 -116 -36 -65 -8
-154 15 -244 62 -116 60 -133 99 -54 114 64 13 116 11 179 -5z m-4860 -35 c61
-16 123 -33 138 -39 l28 -11 -62 -92 c-34 -51 -64 -95 -67 -98 -2 -3 -12 6
-21 20 -9 13 -53 75 -98 136 -46 61 -83 115 -83 118 0 7 5 6 165 -34z m6275
34 c0 -4 -39 -59 -86 -123 -47 -64 -93 -127 -103 -140 l-17 -24 -67 99 -68 99
33 14 c28 11 277 78 301 80 4 1 7 -2 7 -5z m-3095 -175 c176 -136 169 -128
150 -166 -9 -17 -40 -45 -74 -66 -62 -39 -161 -138 -187 -189 -9 -17 -19 -26
-23 -22 -4 5 -25 33 -46 62 -41 58 -128 135 -186 166 -47 25 -71 81 -42 101
10 8 74 59 143 113 69 55 127 101 130 101 3 1 64 -44 135 -100z m-1486 43 c60
-85 86 -246 54 -337 l-18 -50 -93 -7 c-51 -4 -109 -12 -129 -17 -20 -6 -40 -8
-45 -5 -11 7 -10 93 3 156 16 78 62 157 131 227 33 33 64 61 69 61 4 0 17 -13
28 -28z m2819 -33 c69 -70 115 -149 131 -227 13 -64 14 -149 2 -156 -5 -4 -31
-1 -58 4 -26 6 -84 14 -128 18 l-80 7 -18 50 c-32 91 -6 252 54 337 11 15 24
28 28 28 5 0 36 -28 69 -61z m-3103 -79 c-38 -75 -58 -172 -53 -262 5 -88 2
-91 -59 -57 -70 38 -145 125 -217 251 l-27 46 78 -5 c89 -6 173 11 250 51 27
14 49 25 51 26 1 0 -9 -22 -23 -50z m3444 -21 c30 -6 83 -9 118 -7 35 2 63 1
63 -2 0 -15 -102 -170 -140 -213 -33 -38 -121 -97 -143 -97 -2 0 -2 35 1 78 5
89 -15 187 -53 262 l-25 49 62 -29 c34 -16 86 -34 117 -41z m-5413 -41 c21
-35 74 -117 119 -183 44 -66 84 -125 88 -131 10 -17 -370 104 -415 132 -5 3 6
26 24 52 50 74 138 192 142 192 3 0 21 -28 42 -62z m7353 -64 c45 -64 81 -118
79 -119 -19 -20 -421 -148 -411 -131 4 6 44 65 89 131 44 66 96 146 115 178
18 31 36 57 40 57 3 0 43 -52 88 -116z m-6986 -27 c59 -23 105 -46 103 -52 -2
-5 -31 -52 -64 -103 l-60 -93 -23 38 c-13 21 -53 81 -89 133 -37 52 -77 112
-89 132 l-22 38 68 -26 c37 -14 116 -44 176 -67z m6716 56 c-12 -21 -52 -80
-88 -132 -36 -52 -78 -115 -92 -139 l-26 -44 -67 102 c-37 57 -64 106 -59 110
4 4 69 31 143 59 74 29 151 59 170 66 19 8 36 14 38 14 2 1 -7 -16 -19 -36z
m-3903 -239 c27 -9 53 -20 57 -24 5 -4 -14 -37 -41 -73 -27 -36 -58 -79 -68
-96 -11 -19 -24 -29 -32 -26 -8 3 -21 5 -29 5 -14 0 -15 12 -10 83 10 149 24
164 123 131z m974 -16 c6 -18 14 -70 17 -115 l6 -83 -31 0 c-27 0 -37 8 -72
60 -23 34 -55 76 -72 95 l-30 35 29 11 c52 21 78 27 110 28 26 1 33 -4 43 -31z
m-1184 0 c-4 -13 -10 -65 -13 -115 l-6 -93 -55 -25 c-30 -14 -57 -24 -58 -22
-15 15 -84 130 -84 140 0 36 150 137 204 137 14 0 17 -5 12 -22z m1342 7 c54
-23 108 -62 137 -101 l25 -33 -45 -70 -46 -71 -52 30 -52 29 -6 88 c-4 49 -10
100 -14 116 -8 32 0 34 53 12z m-4378 -366 c44 -72 80 -132 80 -134 0 -7 -105
33 -283 109 -98 42 -182 76 -187 76 -6 0 -10 4 -10 10 0 10 117 213 152 262
l19 27 75 -110 c41 -61 111 -169 154 -240z m7669 201 c45 -74 81 -137 81 -140
0 -3 -87 -43 -192 -88 -196 -83 -278 -114 -278 -107 0 17 299 479 306 472 1
-1 39 -63 83 -137z m-7697 111 c29 -11 118 -40 198 -66 80 -25 151 -49 158
-54 11 -6 6 -23 -21 -77 -19 -38 -47 -103 -62 -144 -16 -41 -32 -79 -36 -83
-8 -10 -58 62 -139 198 -29 50 -78 125 -107 168 -30 42 -52 77 -50 77 3 0 29
-9 59 -19z m7405 -90 c-40 -60 -100 -155 -135 -212 -35 -57 -71 -115 -81 -128
l-18 -23 -27 78 c-16 43 -46 116 -67 162 l-38 83 45 19 c24 11 106 38 182 61
75 23 151 48 167 55 17 7 33 13 37 14 4 0 -25 -49 -65 -109z m-3348 -15 c34
-46 61 -88 61 -93 0 -27 -24 -29 -98 -11 -42 10 -89 16 -104 14 -19 -4 -28 -1
-28 8 0 28 83 164 102 165 4 1 34 -37 67 -83z m-605 41 c14 -18 34 -53 45 -77
l20 -44 -83 -17 c-46 -9 -92 -20 -103 -23 -12 -4 -25 -1 -31 7 -9 11 2 33 50
100 33 48 65 87 69 87 4 0 19 -15 33 -33z m-2751 -104 c9 -27 43 -126 76 -221
34 -96 61 -178 61 -183 0 -5 -41 -30 -92 -55 -51 -26 -134 -73 -186 -105 -111
-71 -152 -92 -159 -85 -9 9 27 155 72 291 55 168 171 405 199 405 7 0 20 -21
29 -47z m1781 30 c-46 -106 -57 -160 -56 -280 l1 -122 -27 10 c-15 6 -124 35
-242 65 -250 64 -420 114 -420 124 0 14 217 119 320 155 132 46 220 63 339 64
85 1 92 0 85 -16z m2666 6 c133 -21 362 -109 484 -187 l41 -25 -55 -19 c-30
-10 -174 -50 -320 -88 -146 -37 -278 -73 -293 -79 -16 -6 -29 -11 -30 -11 -2
0 -1 46 1 103 5 116 -7 187 -43 265 l-24 52 87 0 c48 0 116 -5 152 -11z m1648
-81 c80 -144 152 -335 188 -498 8 -36 17 -75 19 -88 5 -22 5 -22 -24 -7 -16 8
-72 41 -123 74 -52 32 -135 79 -186 105 -51 25 -92 50 -92 55 0 5 27 87 61
183 33 95 67 194 76 221 9 26 20 47 23 47 4 0 30 -42 58 -92z m-3970 -16 c39
-60 44 -74 45 -132 2 -53 7 -74 32 -114 46 -73 57 -97 52 -103 -3 -3 -67 24
-141 58 l-135 64 -1 61 c0 34 7 80 15 103 15 43 71 131 83 131 4 0 27 -31 50
-68z m3774 -43 c-21 -57 -49 -140 -62 -184 -13 -44 -25 -81 -26 -83 0 -1 -48
20 -106 48 -81 40 -120 53 -174 58 l-69 8 150 76 c83 43 188 101 235 131 47
30 86 53 88 52 1 -1 -15 -49 -36 -106z m-5690 21 c42 -25 131 -72 197 -105 66
-33 120 -63 120 -66 1 -3 -25 -9 -56 -12 -39 -4 -89 -21 -161 -57 -58 -28
-106 -49 -107 -48 -1 2 -15 48 -32 103 -17 55 -44 138 -61 183 l-31 84 27 -18
c15 -10 62 -39 104 -64z m3766 27 c40 -67 52 -107 52 -178 l0 -56 -128 -61
c-71 -34 -131 -62 -135 -62 -13 0 6 64 29 97 31 46 47 98 41 136 -3 26 5 46
45 104 27 40 52 73 56 73 4 0 22 -24 40 -53z m-1209 -93 c-32 -36 -119 -91
-155 -100 -26 -6 -27 -5 -12 7 10 8 24 31 33 51 15 37 21 41 110 61 45 10 49
7 24 -19z m523 15 c60 -13 78 -24 78 -49 0 -9 9 -29 21 -44 33 -42 1 -33 -84
24 -84 56 -109 80 -84 80 9 0 40 -5 69 -11z m-4218 -327 c52 -64 129 -155 170
-202 41 -47 73 -86 71 -88 -5 -6 -236 114 -399 207 -87 50 -163 92 -169 94 -5
1 21 63 58 136 l66 134 54 -82 c30 -46 97 -135 149 -199z m8136 137 c34 -66
60 -123 57 -125 -26 -26 -555 -310 -562 -302 -2 2 31 41 72 88 121 138 274
330 316 398 22 34 43 62 47 62 5 0 36 -54 70 -121z m-8043 25 c59 -26 153 -62
208 -81 55 -19 104 -38 108 -43 5 -4 4 -25 -2 -47 -6 -23 -19 -89 -29 -148
l-18 -108 -133 155 c-212 250 -265 318 -246 318 2 0 53 -21 112 -46z m7803 40
c0 -10 -69 -96 -233 -290 l-162 -192 -12 76 c-6 43 -19 112 -29 155 -9 42 -15
79 -12 82 3 3 66 28 139 54 74 27 170 65 214 84 83 37 95 41 95 31z m-4014
-304 c3 -144 1 -219 -6 -215 -14 9 -62 80 -136 202 l-64 106 62 38 c35 21 79
51 98 67 19 17 37 28 39 27 2 -2 5 -103 7 -225z m262 118 c23 -13 42 -28 42
-34 0 -15 -155 -263 -180 -288 -19 -20 -19 -17 -16 185 2 112 5 212 5 221 1
14 11 10 54 -22 28 -22 71 -50 95 -62z m2469 33 l102 -51 -31 -89 -31 -89 -53
84 c-29 47 -73 111 -99 144 -25 33 -45 62 -45 64 0 10 62 -15 157 -63z m-5223
47 c-4 -6 -31 -45 -61 -86 -29 -41 -65 -96 -81 -123 -15 -27 -29 -49 -32 -49
-3 0 -18 36 -32 81 l-27 80 111 55 c114 55 135 63 122 42z m491 -53 c72 -24
243 -73 380 -109 138 -36 286 -76 330 -89 44 -14 99 -28 122 -32 38 -6 47 -14
87 -71 25 -35 43 -64 41 -64 -3 0 -44 11 -92 25 -159 46 -260 58 -503 59
l-225 1 -123 -42 c-228 -79 -388 -176 -511 -309 -58 -63 -63 -66 -58 -39 3 17
9 50 13 75 9 63 51 195 81 255 69 136 282 402 312 390 9 -4 75 -26 146 -50z
m4461 -190 c97 -142 139 -237 169 -378 27 -126 25 -128 -62 -39 -113 116 -240
193 -436 266 -162 61 -224 69 -442 63 -227 -7 -344 -25 -538 -83 -14 -4 -7 11
25 59 38 58 47 66 83 72 22 3 92 21 155 40 63 18 212 58 330 89 118 30 280 78
360 105 l145 50 75 -78 c41 -42 103 -117 136 -166z m-3345 164 c34 -16 100
-43 147 -58 l87 -29 47 -103 c25 -57 47 -107 47 -111 3 -24 -168 12 -208 43
-43 34 -110 120 -142 182 -35 68 -51 107 -43 107 2 0 32 -14 65 -31z m1924 -1
c-16 -53 -82 -155 -139 -215 -54 -58 -68 -66 -121 -79 -66 -15 -115 -18 -114
-6 0 4 22 54 47 111 l47 103 95 32 c52 18 113 42 135 54 51 27 58 27 50 0z
m-424 -164 l-58 -139 -144 -5 c-79 -3 -146 -4 -148 -3 -2 1 30 56 70 123 l74
121 85 2 c60 2 98 9 130 23 25 12 46 20 48 19 1 -1 -24 -64 -57 -141z m-1103
109 c30 -11 67 -14 117 -11 71 5 74 4 85 -20 6 -14 38 -70 72 -124 33 -54 59
-100 57 -101 -2 -1 -69 0 -148 3 l-144 5 -27 65 c-15 36 -41 98 -59 139 -26
61 -28 72 -14 66 10 -4 38 -14 61 -22z m-2293 -15 c2 -7 19 -57 39 -110 20
-54 33 -103 31 -110 -4 -10 -40 -13 -138 -14 -141 -2 -243 -18 -354 -58 l-63
-24 0 32 c0 29 6 35 73 71 39 21 103 59 141 84 72 46 245 140 259 141 4 0 9
-6 12 -12z m5763 -27 c42 -22 123 -68 179 -103 56 -35 125 -75 153 -90 43 -24
50 -32 50 -58 0 -36 -3 -36 -81 -10 -111 38 -201 52 -336 53 -98 2 -133 5
-133 14 0 7 16 57 36 110 19 54 37 104 39 111 6 17 6 17 93 -27z m-7162 -188
c59 -71 168 -189 241 -264 73 -74 133 -138 133 -142 0 -4 -130 59 -290 139
-159 81 -290 150 -290 155 0 9 91 239 95 239 1 0 51 -57 111 -127z m179 45
c44 -25 170 -91 280 -148 110 -56 204 -105 208 -110 5 -4 -7 -17 -26 -29 -44
-27 -61 -54 -83 -127 l-17 -58 -151 154 c-153 157 -356 382 -356 395 0 3 15
-2 33 -13 17 -11 68 -40 112 -64z m8154 -45 c-57 -65 -174 -190 -260 -277
l-156 -160 -21 71 c-18 59 -30 78 -66 110 l-45 39 237 122 c130 67 275 144
322 171 47 27 87 47 89 45 2 -2 -43 -56 -100 -121z m286 2 c25 -60 44 -114 41
-121 -5 -12 -566 -297 -566 -287 0 3 62 70 138 147 75 78 182 194 236 258 55
65 101 116 102 115 2 -1 24 -52 49 -112z m-4543 -141 c26 -5 25 -7 -40 -63
-37 -32 -91 -84 -120 -115 l-54 -56 -121 116 c-67 64 -124 121 -126 126 -4 11
403 3 461 -8z m766 7 c-1 -4 -57 -58 -123 -119 l-120 -111 -80 78 c-44 43 -97
92 -118 109 -21 18 -36 33 -35 33 6 3 276 15 376 17 57 1 102 -2 100 -7z
m-2205 -87 l46 -7 -43 -86 c-24 -47 -54 -116 -66 -153 l-23 -68 -67 0 -68 0
-6 38 c-3 20 -11 83 -16 140 -6 57 -13 109 -16 117 -3 7 3 15 13 18 28 7 195
8 246 1z m3426 0 c21 -4 30 -11 27 -20 -3 -7 -10 -59 -16 -116 -5 -57 -13
-120 -16 -140 l-6 -38 -68 0 -67 0 -23 68 c-12 37 -42 106 -66 154 l-44 87 28
4 c46 7 218 7 251 1z m-1894 -292 c-4 -95 -11 -172 -15 -170 -4 2 -55 55 -113
118 l-106 115 33 40 c18 22 71 74 117 115 l84 75 3 -60 c2 -33 1 -138 -3 -233z
m229 205 c42 -38 88 -84 102 -103 l26 -34 -108 -117 -109 -116 -6 94 c-4 52
-7 154 -8 227 -1 154 -9 150 103 49z m-1504 58 c83 -20 293 -85 302 -94 5 -4
-58 -64 -138 -135 l-146 -127 -38 15 c-20 8 -75 22 -120 30 -46 9 -86 18 -88
21 -19 18 119 305 146 305 9 0 46 -7 82 -15z m2840 -107 c33 -68 63 -137 66
-154 l6 -31 -74 -12 c-40 -7 -98 -20 -127 -31 l-55 -18 -80 72 c-45 40 -111
98 -148 129 -37 31 -64 58 -60 60 17 10 175 59 262 81 153 40 140 46 210 -96z
m-3455 80 c2 -13 9 -68 15 -123 6 -55 13 -114 16 -131 5 -28 2 -32 -27 -44
-18 -8 -52 -29 -76 -47 -24 -18 -45 -33 -47 -33 -9 0 -176 243 -176 256 0 16
89 67 193 110 45 18 85 34 89 34 4 0 10 -10 13 -22z m4092 -57 c131 -66 127
-57 64 -148 -30 -43 -72 -102 -93 -131 l-39 -53 -42 34 c-23 19 -57 42 -75 52
-30 15 -33 20 -28 48 3 18 10 77 16 132 6 55 13 110 15 122 l5 23 50 -20 c27
-11 84 -37 127 -59z m-6243 -71 l268 -134 -63 -18 c-35 -10 -102 -36 -148 -58
-46 -22 -87 -37 -91 -33 -11 14 -205 306 -230 347 -13 21 -19 37 -14 35 5 -3
130 -65 278 -139z m8475 103 c-13 -21 -69 -107 -126 -192 -57 -84 -103 -158
-103 -162 0 -5 -35 8 -78 30 -43 22 -111 49 -151 61 l-73 23 53 28 c85 46 483
245 492 247 5 1 -2 -15 -14 -35z m-7213 -30 c-8 -75 8 -273 30 -359 12 -48 13
-69 5 -77 -13 -13 -195 -12 -251 1 -34 8 -35 10 -37 57 -7 154 -7 404 -1 411
13 13 80 22 172 23 l89 1 -7 -57z m5894 44 c39 -11 45 -16 52 -47 5 -19 5
-101 2 -182 -4 -81 -7 -168 -8 -195 -1 -45 -2 -47 -36 -55 -19 -5 -83 -9 -142
-10 -123 -2 -144 7 -127 50 22 54 39 201 39 325 l0 127 88 -1 c48 0 107 -6
132 -12z m-7425 -191 c69 -104 125 -190 125 -191 0 -3 -343 115 -347 119 -2 1
15 54 36 117 46 134 52 151 57 146 2 -2 60 -88 129 -191z m8923 46 c29 -86 37
-124 29 -127 -137 -49 -327 -111 -325 -106 16 35 245 367 249 362 4 -3 25 -61
47 -129z m-7758 40 c0 -33 2 -115 6 -183 l5 -124 -33 40 c-18 22 -71 80 -118
128 -69 72 -82 90 -70 98 21 14 193 99 203 99 4 0 7 -26 7 -58z m6589 -24 c22
-12 41 -27 41 -32 0 -5 -35 -46 -77 -90 -43 -45 -93 -99 -111 -121 l-33 -40 5
124 c4 68 6 150 6 182 l0 58 64 -29 c35 -15 83 -39 105 -52z m-4133 -77 c89
-68 183 -145 183 -152 1 -3 -25 -12 -56 -19 -84 -18 -305 -96 -373 -130 -33
-17 -65 -30 -72 -30 -7 0 -24 19 -38 41 -14 23 -44 59 -67 80 -24 22 -43 41
-43 43 0 6 209 188 264 230 l48 37 47 -27 c25 -15 73 -48 107 -73z m1711 62
c62 -47 253 -214 253 -221 0 -3 -24 -30 -53 -61 -29 -31 -62 -69 -73 -84 l-20
-28 -74 36 c-83 39 -323 120 -388 131 -23 4 -42 10 -42 14 0 21 313 250 341
250 4 0 29 -16 56 -37z m-3140 -255 l43 -57 -27 -58 c-14 -32 -27 -60 -29 -62
-7 -8 -99 58 -272 196 -13 11 -11 19 22 68 20 31 53 74 73 95 l35 40 57 -82
c31 -46 75 -109 98 -140z m4603 105 c44 -63 50 -76 39 -90 -16 -19 -155 -127
-223 -173 -54 -37 -54 -37 -81 44 l-18 53 55 74 c30 41 73 102 97 137 41 61
44 63 61 47 11 -10 42 -51 70 -92z m-5801 -60 c34 -38 73 -84 87 -104 l25 -37
-29 -43 c-15 -24 -47 -78 -71 -119 -50 -89 -69 -116 -76 -108 -3 3 -10 79 -15
169 -9 162 -4 309 11 309 4 0 35 -30 68 -67z m6830 -121 c-1 -92 -4 -194 -8
-227 l-6 -60 -21 30 c-12 17 -43 68 -69 115 -26 47 -54 93 -63 103 -14 15 -13
20 10 53 47 65 139 164 149 159 5 -4 9 -80 8 -173z m-7886 48 c70 -24 127 -46
126 -49 0 -3 -32 -31 -71 -62 l-72 -56 -68 104 c-71 108 -76 118 -55 111 6 -3
69 -24 140 -48z m9025 42 c-8 -21 -134 -211 -140 -211 -3 -1 -38 26 -78 59
l-72 60 29 11 c44 18 247 87 256 88 5 1 7 -3 5 -7z m-4988 -162 c0 -3 -44 -5
-98 -5 -88 0 -103 -3 -162 -31 -36 -17 -82 -48 -104 -69 -40 -40 -100 -127
-116 -170 -8 -21 -16 -25 -50 -25 -35 0 -40 3 -46 28 -6 29 -42 149 -50 170
-11 25 251 129 451 177 l90 22 42 -46 c24 -25 43 -48 43 -51z m957 79 c120
-27 260 -73 371 -121 75 -33 92 -44 86 -57 -12 -28 -54 -173 -54 -187 0 -10
-12 -14 -39 -14 -38 0 -41 2 -73 62 -48 91 -118 162 -196 200 -62 31 -74 33
-168 33 l-102 0 32 38 c17 21 35 45 41 53 5 8 11 14 12 14 1 0 41 -9 90 -21z
m-5121 -141 l35 -57 -70 -81 c-39 -45 -96 -121 -127 -171 -32 -49 -59 -87 -60
-86 -6 6 90 420 118 505 l10 34 29 -44 c17 -23 46 -69 65 -100z m2252 -21 l94
-62 -5 -73 c-3 -41 -8 -77 -12 -80 -6 -7 -204 20 -287 39 l-48 11 0 76 c0 87
13 183 29 225 l11 29 63 -51 c34 -28 104 -79 155 -114z m4850 103 c6 -27 15
-99 18 -159 6 -101 6 -109 -12 -115 -38 -12 -257 -46 -295 -46 l-39 0 0 59 c0
33 -2 66 -5 74 -4 9 15 26 58 51 36 21 107 71 158 112 52 40 97 74 100 74 3 0
11 -22 17 -50z m2156 -115 c44 -178 79 -345 74 -350 -2 -3 -30 35 -60 83 -31
48 -84 119 -118 157 -34 40 -59 77 -57 86 8 31 110 180 118 172 4 -4 23 -71
43 -148z m-8414 130 c0 -8 -6 -15 -13 -15 -64 0 -258 -237 -402 -490 -26 -47
-49 -87 -52 -89 -2 -3 -11 6 -21 20 -9 13 -52 62 -94 108 -43 46 -78 87 -78
91 0 12 165 166 228 213 73 53 227 134 302 158 70 23 130 25 130 4z m2013 -92
c-3 -60 -11 -111 -17 -116 -6 -4 -21 6 -36 25 -14 18 -46 59 -72 91 -26 33
-45 64 -42 69 12 19 70 37 121 38 l53 0 -7 -107z m3537 88 c19 -10 35 -25 34
-33 -1 -17 -124 -178 -136 -178 -13 0 -16 16 -22 128 l-6 102 48 0 c28 0 62
-8 82 -19z m2001 3 c75 -22 231 -105 314 -167 39 -28 106 -86 150 -128 l80
-77 -84 -93 c-47 -52 -92 -102 -101 -112 -16 -18 -20 -14 -70 75 -129 229
-293 434 -382 479 -73 37 -10 53 93 23z m-5328 -14 c98 -21 162 -71 211 -164
30 -57 30 -58 -58 -76 -33 -7 -94 -22 -138 -35 -57 -16 -78 -19 -78 -10 0 7
-12 30 -26 51 -25 37 -26 42 -20 132 9 114 12 123 40 117 11 -3 43 -9 69 -15z
m3090 6 c3 -7 8 -54 12 -104 l8 -91 -32 -36 c-17 -20 -31 -43 -31 -52 0 -11
-6 -14 -22 -9 -13 3 -79 20 -148 37 -69 17 -127 32 -128 34 -2 2 8 26 23 54
52 95 116 142 229 166 79 17 83 17 89 1z m-4613 -63 l54 -6 -49 -43 c-55 -49
-57 -49 -107 24 l-31 45 39 -7 c21 -4 64 -10 94 -13z m6142 -25 c-16 -24 -38
-51 -48 -60 -18 -16 -21 -14 -67 28 -26 25 -47 47 -47 50 0 2 19 5 43 5 23 1
56 5 72 9 17 4 40 8 53 9 23 1 23 1 -6 -41z m-6301 -82 l45 -62 -49 -70 c-60
-85 -107 -177 -137 -269 l-23 -70 -19 45 c-11 25 -28 78 -39 118 l-20 73 59
92 c33 51 74 118 92 150 17 31 35 57 38 56 4 0 28 -29 53 -63z m6452 2 c20
-35 59 -99 87 -142 l51 -79 -16 -66 c-9 -36 -27 -93 -40 -126 -26 -68 -18 -75
-69 67 -16 43 -57 121 -93 175 -39 60 -61 102 -56 109 4 6 26 37 48 67 22 31
43 56 47 57 3 0 22 -28 41 -62z m-5145 -34 c35 -47 62 -93 60 -102 -4 -24 -66
-52 -115 -52 l-43 0 0 63 c0 66 18 177 29 177 3 -1 34 -39 69 -86z m3829 -66
l6 -88 -49 0 c-49 0 -114 28 -114 50 0 5 30 49 67 96 67 87 67 87 75 58 4 -16
11 -68 15 -116z m-1947 88 c0 -15 -14 -35 -21 -30 -15 9 -10 34 6 34 8 0 15
-2 15 -4z m-462 -116 c39 -24 55 -60 46 -106 -8 -43 -18 -49 -46 -30 -13 9
-43 16 -70 16 -64 0 -107 -36 -115 -97 -7 -56 10 -95 60 -138 127 -109 301
-69 384 88 l17 32 7 -25 c11 -38 10 -325 -1 -354 -19 -51 -133 -55 -235 -7
-87 40 -195 146 -232 228 -31 67 -43 197 -24 255 20 60 69 128 104 143 44 19
66 18 105 -5z m998 4 c36 -17 84 -85 104 -148 30 -95 -8 -248 -85 -342 -113
-137 -325 -214 -395 -144 -32 32 -39 333 -10 380 7 11 11 8 19 -12 15 -40 79
-107 125 -131 54 -28 145 -29 201 -2 121 59 161 174 83 247 -24 22 -39 28 -75
28 -25 0 -58 -8 -74 -17 -35 -21 -40 -16 -46 42 -5 42 -3 48 31 80 42 39 70
43 122 19z m2430 -167 c58 -86 88 -160 130 -322 67 -257 69 -504 4 -758 -57
-223 -119 -343 -238 -460 l-59 -59 -7 64 c-23 206 -110 439 -221 586 -50 67
-155 166 -224 211 l-42 28 76 58 c146 111 242 237 318 415 40 94 83 260 93
358 l7 63 59 -58 c32 -32 79 -88 104 -126z m-5792 104 c13 -144 86 -362 168
-498 42 -72 169 -206 247 -263 34 -25 61 -47 61 -51 0 -3 -18 -18 -40 -33
-111 -73 -246 -227 -308 -351 -65 -131 -131 -363 -132 -463 l0 -43 -31 22
c-45 32 -145 162 -183 238 -41 82 -68 162 -103 311 -25 106 -28 131 -27 320 0
177 3 218 22 300 51 216 88 310 163 422 41 60 132 158 147 158 5 0 12 -31 16
-69z m-866 -18 c10 -63 10 -79 -2 -92 -11 -13 -161 -258 -265 -433 -9 -16 -19
-28 -22 -28 -3 0 -15 18 -28 40 -28 50 -23 70 56 219 79 149 224 370 244 371
3 0 11 -34 17 -77z m7477 -68 c89 -134 165 -270 193 -348 l22 -58 -26 -40 -26
-41 -23 34 c-47 69 -275 452 -275 461 0 6 5 39 11 74 11 63 12 64 31 46 11
-10 53 -67 93 -128z m-5021 99 c19 -51 -4 -247 -37 -311 l-13 -25 -75 79 c-91
98 -164 191 -155 200 5 5 245 70 267 72 4 1 10 -6 13 -15z m2586 -15 c70 -17
133 -35 140 -39 17 -11 -41 -88 -156 -209 l-81 -85 -21 57 c-36 94 -49 307
-20 307 6 0 68 -14 138 -31z m-3780 -54 c47 -8 111 -15 142 -15 54 0 58 -2 73
-31 9 -16 32 -48 52 -70 20 -22 34 -41 32 -43 -101 -81 -256 -176 -288 -176
-24 0 -99 166 -130 288 l-19 73 26 -6 c15 -3 65 -12 112 -20z m4940 -72 c-19
-68 -81 -213 -108 -251 -16 -24 -141 47 -277 156 l-28 22 25 19 c13 11 35 40
49 65 l24 46 70 1 c38 0 113 8 165 17 52 10 96 14 98 10 2 -4 -6 -42 -18 -85z
m-3443 15 c-6 -41 5 -168 18 -221 l7 -26 -48 16 c-27 9 -50 17 -52 18 -1 1 4
34 13 74 8 40 15 94 15 120 0 53 4 61 33 61 17 0 19 -5 14 -42z m1878 -25 c7
-64 19 -137 31 -174 3 -13 -7 -21 -42 -33 -63 -21 -65 -21 -53 12 6 15 14 80
17 145 4 104 7 117 23 117 14 0 19 -12 24 -67z m-2492 -51 c15 -20 66 -78 113
-129 46 -50 84 -96 84 -102 0 -20 -128 -137 -190 -173 -35 -21 -65 -36 -67
-34 -2 2 3 43 12 91 12 64 16 129 13 237 -1 81 -1 148 2 148 3 -1 18 -17 33
-38z m3109 -108 c-3 -107 1 -172 13 -241 9 -52 15 -96 13 -98 -8 -9 -139 78
-193 127 -88 80 -88 76 6 176 44 48 98 108 118 134 20 26 38 47 41 48 3 0 3
-66 2 -146z m-3248 -134 c-5 -60 -27 -181 -40 -222 -5 -15 -18 -18 -94 -18
l-88 0 29 85 c36 107 54 180 69 276 l12 76 52 25 51 25 8 -91 c4 -50 4 -120 1
-156z m3417 213 l47 -21 12 -74 c15 -96 34 -169 69 -273 l29 -85 -88 0 c-98 0
-90 -6 -110 82 -23 106 -30 196 -24 295 4 57 10 102 13 100 3 -1 27 -12 52
-24z m-6201 -87 c39 -44 92 -113 117 -154 l46 -74 3 -127 c1 -69 2 -137 2
-151 0 -14 -1 -82 -2 -151 l-3 -127 -46 -74 c-46 -74 -181 -238 -196 -238 -15
0 -70 115 -90 190 -33 123 -81 358 -81 400 0 42 48 277 81 400 21 78 76 193
90 188 5 -2 40 -39 79 -82z m9033 11 c26 -55 69 -211 107 -397 25 -121 24
-137 -25 -360 -39 -175 -75 -282 -108 -324 l-23 -28 -63 68 c-35 37 -89 106
-120 153 l-56 86 -2 125 c-3 155 -3 166 0 320 l2 125 57 85 c75 113 176 224
192 210 7 -5 24 -34 39 -63z m-6490 33 c17 0 18 -6 12 -52 -12 -87 -82 -314
-104 -340 -11 -13 -137 27 -193 61 -29 18 -72 50 -96 71 l-43 39 58 30 c55 27
179 115 248 175 24 21 37 25 65 21 19 -2 43 -5 53 -5z m3986 -43 c103 -83 136
-106 201 -141 l61 -33 -44 -40 c-63 -58 -113 -89 -181 -113 -91 -31 -98 -29
-123 38 -31 81 -69 218 -78 279 -7 51 -6 52 22 56 67 10 76 7 142 -46z m-5594
-210 c26 -59 61 -121 76 -137 29 -28 29 -29 29 -160 l0 -132 -29 -28 c-16 -16
-50 -79 -77 -139 l-47 -110 -77 127 c-42 70 -98 160 -123 200 -26 40 -47 76
-47 81 0 4 35 65 79 134 43 69 98 160 122 201 24 41 45 74 45 73 1 -1 23 -51
49 -110z m7125 46 c18 -32 73 -122 122 -201 l90 -143 -80 -127 c-44 -70 -101
-163 -126 -207 l-45 -79 -16 39 c-42 103 -90 196 -111 216 -23 22 -24 28 -24
159 0 127 2 138 21 156 23 20 75 119 104 197 10 26 21 47 25 47 5 0 23 -26 40
-57z m-4467 -18 c28 -12 87 -80 87 -101 0 -3 -43 -53 -96 -110 -113 -121 -93
-123 -205 17 l-68 86 56 86 57 85 67 -24 c37 -13 83 -31 102 -39z m1907 46 c0
-5 23 -44 51 -86 l51 -76 -44 -56 c-23 -31 -61 -76 -83 -101 l-40 -44 -104
111 -103 112 26 38 c23 33 42 45 119 74 94 37 127 44 127 28z m-1714 -243 c23
-26 140 -103 172 -112 12 -4 22 -10 22 -14 0 -4 -28 -22 -63 -40 -66 -34 -162
-112 -217 -175 l-32 -37 -49 79 c-27 44 -54 83 -59 86 -9 5 187 235 201 235 3
0 14 -10 25 -22z m1480 -91 l100 -112 -32 -45 c-18 -25 -43 -65 -55 -90 -12
-25 -23 -46 -24 -48 -2 -2 -31 27 -66 64 -67 70 -159 140 -221 170 -21 10 -38
20 -38 23 0 3 28 21 63 38 34 18 82 51 107 72 25 22 50 40 55 40 6 1 55 -50
111 -112z m-1918 -31 l63 -76 -57 -65 -58 -65 -70 68 c-39 38 -90 81 -113 97
-24 15 -43 31 -43 35 0 4 24 23 53 43 29 20 66 50 82 67 l30 31 25 -29 c14
-16 53 -64 88 -106z m2439 36 c29 -20 52 -39 52 -42 0 -3 -21 -20 -47 -37 -26
-18 -75 -60 -107 -92 -33 -33 -62 -60 -65 -61 -3 0 -29 27 -59 60 l-53 60 49
58 c27 31 64 76 82 100 l33 43 32 -26 c17 -14 54 -42 83 -63z m-1301 -28 l38
-16 -39 -14 c-26 -8 -43 -10 -49 -4 -6 6 -18 10 -28 10 -10 0 -18 5 -18 10 0
6 9 10 19 10 11 0 23 5 26 10 8 13 6 13 51 -6z m-1903 -226 c-13 -40 -36 -133
-51 -207 l-27 -135 -50 -11 c-54 -12 -109 -38 -138 -63 -17 -15 -20 -14 -45
18 -14 19 -66 77 -116 128 l-90 92 55 56 c106 108 183 152 319 179 36 7 88 14
116 14 l50 1 -23 -72z m252 41 c28 -10 73 -33 99 -49 l48 -31 -82 -80 c-78
-77 -143 -164 -170 -228 -14 -36 -11 -35 -70 -17 -43 13 -45 15 -42 47 8 80
75 340 99 382 6 10 52 1 118 -24z m3392 -44 c27 -78 58 -206 71 -288 l9 -54
-51 -16 c-27 -9 -51 -15 -51 -14 -1 1 -17 30 -34 64 -39 73 -132 184 -195 233
-25 19 -45 38 -46 41 0 11 155 88 196 98 69 16 75 13 101 -64z m216 64 c89
-14 168 -43 227 -82 56 -38 170 -146 170 -161 0 -7 -32 -43 -71 -81 -38 -39
-88 -94 -111 -122 l-40 -52 -33 25 c-36 27 -124 64 -153 64 -14 0 -22 24 -44
138 -15 75 -38 170 -51 210 l-23 72 28 0 c16 0 62 -5 101 -11z m-2892 -113
c17 -32 28 -61 24 -64 -3 -4 -36 -25 -72 -48 l-67 -42 -38 65 c-38 66 -45 83
-30 83 5 0 30 27 58 60 l49 60 23 -27 c13 -16 37 -54 53 -87z m1962 31 l38
-45 -37 -66 c-20 -36 -37 -66 -39 -66 -7 0 -135 82 -135 86 0 12 56 113 78
142 25 33 26 33 41 14 9 -11 33 -40 54 -65z m-1283 12 c40 -9 53 -16 61 -36
10 -27 11 -315 0 -352 -6 -22 -8 -20 -38 27 -60 97 -164 146 -263 122 -137
-33 -214 -166 -144 -249 41 -50 123 -59 170 -20 23 19 37 -3 38 -57 1 -41 -3
-49 -34 -76 -29 -25 -41 -29 -74 -24 -56 7 -86 33 -124 106 -32 62 -33 69 -30
155 5 116 37 185 122 271 69 68 135 110 204 129 61 17 53 17 112 4z m555 -5
c80 -20 130 -51 205 -125 82 -80 118 -157 126 -265 4 -59 2 -90 -11 -124 -50
-138 -148 -189 -222 -115 -33 33 -35 39 -30 81 2 25 7 47 9 50 3 2 26 -5 52
-17 43 -18 51 -19 89 -7 85 27 112 125 54 201 -13 18 -49 46 -78 62 -125 69
-268 18 -337 -120 l-20 -40 -9 40 c-12 59 -8 327 6 352 9 19 33 28 101 42 3 1
33 -6 65 -15z m-4150 -247 c60 -100 119 -196 132 -214 22 -30 23 -34 11 -107
-6 -42 -14 -76 -18 -76 -30 0 -263 382 -305 500 -16 44 -16 46 7 88 l23 43 21
-26 c12 -15 70 -109 129 -208z m7811 192 l26 -41 -21 -55 c-41 -107 -237 -431
-288 -476 -21 -18 -21 -17 -32 46 -6 35 -11 68 -11 74 0 12 290 493 297 493 2
0 14 -19 29 -41z m-2493 -131 c64 -65 103 -113 127 -159 l34 -66 -40 -48 -39
-47 -90 6 c-177 13 -265 23 -272 30 -13 13 15 133 46 197 31 65 115 179 132
179 4 0 50 -42 102 -92z m-2844 36 c23 -26 56 -77 75 -114 33 -66 65 -194 51
-208 -6 -7 -87 -15 -265 -28 l-95 -6 -39 40 -38 40 38 74 c28 51 65 99 126
161 48 48 92 87 97 87 5 0 28 -21 50 -46z m2292 -111 c31 -22 38 -33 34 -51
-3 -12 -8 -42 -12 -68 -5 -39 -9 -45 -27 -42 -18 3 -22 12 -27 58 -3 30 -9 72
-13 93 -4 20 -4 37 -1 37 4 0 24 -12 46 -27z m-1847 2 c-3 -8 -9 -47 -13 -87
-5 -64 -9 -73 -27 -76 -19 -3 -23 5 -33 59 -7 34 -9 65 -4 69 28 23 67 50 74
50 5 0 6 -7 3 -15z m-1361 -192 l41 -53 2 -120 c1 -106 -1 -120 -15 -116 -9 2
-50 12 -91 21 -41 9 -111 29 -155 44 l-80 27 2 39 c4 64 33 173 71 268 l36 88
73 -73 c41 -40 93 -97 116 -125z m4756 86 c17 -41 39 -120 50 -175 25 -118 28
-111 -94 -149 -66 -20 -213 -55 -231 -55 -2 0 -4 50 -4 111 l0 112 37 46 c77
96 196 212 205 199 4 -7 21 -47 37 -89z m-5808 -6 c49 -152 143 -299 266 -420
72 -71 206 -172 244 -185 11 -4 10 -19 -5 -78 -22 -92 -38 -287 -30 -361 8
-69 6 -70 -128 -58 -116 10 -246 51 -372 117 -103 54 -98 46 -115 213 -22 229
18 586 85 768 14 39 28 71 29 71 2 0 13 -30 26 -67z m6699 -61 c38 -122 61
-288 67 -477 5 -164 -5 -343 -23 -389 -8 -20 -187 -108 -288 -141 -74 -25
-248 -48 -286 -38 -15 4 -18 25 -23 171 -3 120 -10 188 -24 241 -14 52 -17 76
-9 82 6 5 40 28 76 51 88 57 265 236 325 328 43 66 115 217 115 240 0 5 5 21
11 37 l11 28 14 -33 c7 -18 23 -63 34 -100z m-7516 -10 c139 -249 338 -492
403 -492 7 0 13 -7 13 -15 0 -18 -55 -20 -115 -4 -71 19 -242 110 -327 174
-88 67 -218 187 -218 201 0 5 41 54 90 108 50 55 90 103 90 108 0 24 20 -1 64
-80z m8456 -76 l55 -58 -88 -84 c-143 -137 -318 -247 -456 -288 -98 -29 -176
-15 -98 18 77 32 238 229 363 444 l77 133 46 -53 c25 -29 71 -79 101 -112z
m-9031 -49 c29 -45 76 -108 103 -139 28 -32 47 -58 44 -58 -10 0 -161 31 -163
34 -3 2 -48 205 -58 256 -5 29 -13 38 74 -93z m9456 -36 l-27 -129 -42 -10
c-22 -6 -61 -13 -86 -17 l-45 -8 28 34 c71 88 116 149 152 206 22 34 42 60 44
58 2 -3 -9 -63 -24 -134z m-5659 62 c3 -10 16 -46 29 -80 13 -35 20 -63 17
-63 -30 1 -107 29 -106 38 1 7 2 30 3 51 2 56 44 95 57 54z m1858 9 c2 -4 8
-35 11 -68 l7 -60 -57 -16 c-52 -15 -56 -15 -51 1 3 9 16 46 28 83 16 48 28
68 40 68 9 0 19 -4 22 -8z m-2886 -104 c23 -27 60 -23 74 7 14 30 22 31 48 5
36 -36 26 -53 -59 -98 -78 -42 -79 -42 -85 -20 -3 13 -5 55 -5 93 1 39 4 61 6
50 3 -11 12 -28 21 -37z m711 13 c-23 -101 -74 -197 -134 -249 l-37 -33 -37
58 c-21 32 -58 81 -84 109 -42 47 -45 53 -40 92 l6 42 61 1 c33 0 84 4 111 9
28 4 75 8 106 9 l57 1 -9 -39z m2689 23 c78 -7 83 -8 88 -33 3 -14 8 -34 10
-43 3 -11 -15 -41 -48 -80 -29 -35 -64 -81 -77 -103 -14 -22 -26 -42 -27 -44
-6 -8 -71 39 -90 66 -43 58 -104 203 -104 246 0 9 33 8 248 -9z m409 -24 c13
-35 45 -40 76 -12 20 17 20 16 13 -47 -3 -35 -8 -66 -11 -69 -2 -2 -37 14 -77
36 -83 45 -94 68 -52 101 35 27 37 27 51 -9z m-1857 -132 c0 -5 -7 -8 -15 -8
-17 0 -18 2 -9 25 5 13 8 14 15 3 5 -7 9 -16 9 -20z m-1710 1 c0 -14 -73 -145
-99 -179 l-20 -25 -36 19 c-20 11 -45 32 -56 47 l-19 27 52 25 c29 14 78 41
108 60 61 39 70 42 70 26z m3501 -44 c51 -30 97 -55 101 -55 4 0 8 -6 8 -14 0
-14 -74 -86 -88 -86 -12 0 -44 46 -91 133 -24 42 -38 77 -33 77 5 0 52 -25
103 -55z m-2698 15 c59 -16 113 -30 120 -30 6 0 34 -15 60 -34 65 -46 157 -70
247 -64 38 3 70 3 70 -1 0 -29 -260 -286 -289 -286 -5 0 -63 72 -129 160 -67
88 -138 180 -160 204 -25 28 -37 51 -34 63 2 10 5 18 6 18 2 0 51 -13 109 -30z
m-1578 -6 c61 -19 249 -64 270 -64 2 0 9 -17 16 -37 6 -21 20 -55 31 -76 11
-22 18 -41 16 -43 -9 -8 -238 -62 -291 -68 l-58 -6 -30 65 c-35 79 -64 255
-41 255 4 0 43 -12 87 -26z m3478 7 c3 -13 -12 -38 -47 -78 -28 -32 -100 -125
-160 -206 l-108 -146 -57 44 c-63 49 -159 147 -214 215 l-35 45 101 0 c91 0
109 3 164 29 34 15 71 39 84 52 14 15 30 22 43 19 12 -3 57 6 101 19 99 30
121 32 128 7z m1557 11 c0 -64 -26 -189 -52 -244 l-31 -67 -46 5 c-25 3 -104
20 -174 37 -105 25 -126 34 -121 47 4 8 17 42 29 75 l23 60 103 22 c57 12 138
33 179 46 87 29 90 30 90 19z m-4105 -102 c19 -26 35 -52 35 -58 0 -5 -24 -12
-52 -16 -29 -4 -70 -10 -92 -13 l-38 -6 43 81 c49 90 47 89 104 12z m3195 -14
l43 -79 -59 7 c-98 12 -124 18 -124 30 0 11 90 130 94 124 2 -1 22 -38 46 -82z
m-6256 29 c44 -9 82 -17 84 -20 7 -7 -43 -76 -87 -119 l-39 -38 -10 34 c-6 18
-16 53 -22 78 -6 25 -13 53 -16 63 -6 21 -8 21 90 2z m9275 -57 c-11 -40 -22
-81 -25 -92 -5 -16 -10 -14 -40 15 -41 39 -89 107 -82 115 4 4 97 23 160 33 4
1 -2 -32 -13 -71z m-5578 -175 c71 -95 129 -176 129 -181 0 -15 -178 -112
-228 -124 -9 -2 -32 55 -72 177 -33 99 -60 186 -60 194 0 7 17 39 38 71 29 45
40 55 51 46 8 -6 72 -88 142 -183z m-3334 51 c-4 -5 -243 -62 -287 -69 l-45
-8 46 50 c26 27 63 75 84 105 l37 56 84 -66 c46 -36 83 -67 81 -68z m5352 59
l34 -46 -58 -181 c-32 -100 -62 -185 -66 -190 -8 -9 -185 71 -224 102 l-24 19
125 169 c160 215 156 211 169 189 5 -9 25 -38 44 -62z m3336 20 c21 -31 58
-79 84 -106 l46 -50 -40 7 c-71 12 -305 70 -304 76 1 6 161 128 170 129 3 1
23 -25 44 -56z m-4505 -388 c0 -241 -2 -295 -14 -295 -21 0 -96 43 -226 130
l-121 81 38 44 c81 93 308 334 316 334 4 1 7 -132 7 -294z m299 101 c94 -101
171 -186 171 -189 0 -3 -62 -45 -138 -95 -127 -84 -178 -112 -203 -112 -5 0
-9 117 -9 290 0 160 2 290 4 290 2 0 81 -83 175 -184z m-1414 -18 c29 -90 50
-166 47 -170 -10 -9 -210 -65 -265 -73 l-44 -7 -6 79 c-4 43 -9 116 -13 163
l-6 85 74 23 c40 12 91 33 113 47 22 13 41 22 43 20 2 -2 28 -77 57 -167z
m-865 147 c6 -8 31 -25 55 -39 l43 -26 -43 -111 c-47 -118 -69 -159 -87 -159
-21 0 -168 84 -216 123 -26 21 -66 62 -89 90 -45 54 -43 66 7 67 14 0 84 16
155 34 152 40 159 41 175 21z m3449 -58 l53 -12 -6 -85 c-19 -249 -18 -240
-37 -240 -39 0 -282 61 -297 75 -3 2 97 314 104 327 3 4 33 -6 67 -23 35 -16
87 -35 116 -42z m801 38 c76 -19 150 -35 164 -35 14 0 27 -4 30 -9 3 -5 -24
-40 -59 -79 -66 -71 -158 -137 -241 -172 l-44 -19 -16 24 c-8 13 -35 74 -60
137 -40 101 -43 114 -28 123 9 6 33 22 53 37 20 15 42 27 49 27 7 1 76 -15
152 -34z m1935 -30 c22 -27 91 -105 153 -172 62 -68 111 -123 107 -123 -16 0
-280 107 -354 144 -47 24 -117 55 -156 71 -82 34 -99 45 -64 45 35 0 142 36
209 70 30 16 57 25 61 22 3 -4 23 -29 44 -57z m-8145 11 c47 -20 106 -39 133
-42 26 -4 47 -10 47 -13 0 -4 -17 -13 -37 -20 -21 -7 -94 -40 -163 -73 -107
-51 -368 -158 -385 -158 -3 0 51 61 120 136 69 75 138 154 153 175 15 21 32
37 37 35 6 -3 48 -21 95 -40z m-338 -73 c-33 -38 -89 -96 -124 -131 l-64 -62
-28 87 c-16 49 -31 93 -33 99 -3 8 20 16 64 23 38 7 100 20 138 31 113 30 114
28 47 -47z m8740 43 c57 -13 119 -27 140 -30 l36 -7 -31 -94 -31 -95 -59 57
c-85 84 -181 193 -169 193 6 0 57 -11 114 -24z m-5961 -91 c4 -39 7 -109 8
-156 l1 -86 -31 -7 c-60 -12 -240 -6 -310 10 -38 8 -69 18 -69 20 0 3 8 19 17
37 9 18 35 79 58 137 l41 105 109 3 c61 1 117 4 125 6 39 10 45 2 51 -69z
m3395 61 c6 -2 26 -44 44 -93 18 -48 44 -109 57 -136 26 -53 30 -48 -62 -72
-65 -17 -290 -21 -314 -6 -12 8 -13 35 -7 157 4 81 8 150 10 153 4 6 253 3
272 -3z m1861 -18 c-3 -8 -6 -5 -6 6 -1 11 2 17 5 13 3 -3 4 -12 1 -19z m157
-312 c30 -45 94 -128 143 -186 90 -106 183 -225 183 -233 0 -2 -60 20 -132 50
-73 30 -189 74 -258 99 -237 85 -230 81 -230 122 0 19 -5 65 -11 101 -9 51 -9
66 1 69 22 8 81 64 94 91 12 22 22 64 42 158 3 17 17 -2 59 -84 31 -58 80
-143 109 -187z m-7537 205 c16 -84 40 -128 90 -162 32 -23 43 -35 38 -47 -4
-10 -9 -54 -12 -100 -4 -62 -10 -85 -22 -91 -9 -5 -77 -30 -151 -56 -74 -27
-204 -76 -287 -110 -84 -34 -153 -60 -153 -58 0 8 94 127 183 233 102 120 182
239 247 363 25 48 47 87 50 87 3 0 10 -26 17 -59z m-202 -58 c-52 -89 -104
-161 -196 -270 -50 -59 -121 -148 -157 -196 -36 -48 -68 -84 -72 -80 -11 11
-138 314 -142 337 -2 15 11 24 77 46 131 45 303 116 410 168 55 28 102 49 104
47 2 -2 -9 -26 -24 -52z m7905 -20 c58 -28 168 -74 245 -102 77 -29 150 -56
162 -61 22 -9 22 -9 -27 -127 -78 -189 -101 -237 -109 -227 -4 5 -33 43 -64
84 -30 42 -100 128 -154 193 -89 105 -191 252 -209 301 -6 17 -5 17 22 3 16
-8 76 -37 134 -64z m-6426 -137 c115 -82 316 -172 460 -206 93 -23 304 -27
477 -10 86 9 310 56 366 77 8 3 -7 -24 -32 -60 -39 -56 -52 -67 -83 -73 -20
-3 -89 -21 -152 -39 -63 -19 -218 -61 -345 -94 -126 -33 -290 -81 -364 -105
-156 -53 -132 -60 -240 69 -76 90 -156 205 -193 280 -30 59 -73 192 -82 255
-4 25 -10 58 -13 75 -5 27 2 21 67 -48 40 -43 101 -98 134 -121z m4992 122
c-22 -189 -150 -432 -324 -611 l-62 -65 -133 44 c-72 25 -244 74 -382 110
-137 36 -284 76 -325 89 -41 12 -102 28 -135 35 -59 11 -61 13 -104 77 -31 47
-38 64 -25 59 43 -17 205 -55 284 -68 52 -8 170 -13 305 -13 l220 0 100 33
c135 45 325 140 408 202 37 29 91 79 120 111 28 32 53 59 56 59 2 0 0 -28 -3
-62z m-3122 -223 c-53 -171 -62 -209 -70 -274 l-6 -57 -77 76 c-42 42 -91 87
-110 101 l-34 25 114 96 c63 53 137 116 164 141 65 58 67 46 19 -108z m1279
-64 c42 -34 77 -66 77 -70 0 -5 -18 -21 -40 -36 -22 -15 -69 -58 -103 -95
l-63 -67 -12 81 c-7 45 -30 136 -52 203 -21 67 -42 139 -46 160 l-7 38 84 -76
c46 -41 119 -103 162 -138z m-1065 97 c42 -29 103 -66 134 -83 l58 -31 -127
-112 -127 -112 -61 0 -62 0 9 55 c4 30 26 111 48 180 22 69 40 133 40 140 0 8
2 15 5 15 3 0 41 -23 83 -52z m732 37 c0 -7 18 -71 40 -140 22 -69 44 -150 48
-180 l9 -55 -62 0 -61 0 -128 112 -127 112 53 28 c29 15 89 52 133 82 87 60
95 63 95 41z m-3421 -136 c53 -6 126 -8 162 -5 l65 6 -41 -148 c-23 -81 -45
-160 -49 -175 l-7 -28 -42 30 c-62 42 -347 347 -347 371 0 4 37 -4 82 -17 44
-13 124 -28 177 -34z m6269 29 c-41 -59 -290 -318 -334 -349 l-43 -30 -7 28
c-4 15 -26 94 -48 174 l-42 147 56 -5 c79 -7 241 12 335 41 108 32 111 32 83
-6z m-6231 -412 l70 -47 -19 -77 c-10 -42 -25 -120 -34 -172 -17 -109 -35
-137 -76 -121 -34 13 -153 247 -203 401 -38 120 -85 308 -85 348 0 17 34 -15
139 -131 92 -101 163 -170 208 -201z m6263 234 c-24 -113 -80 -298 -121 -395
-50 -119 -129 -253 -152 -259 -34 -8 -44 10 -57 98 -6 46 -22 126 -34 179
l-23 96 69 47 c45 30 116 98 200 191 72 79 132 142 134 140 2 -1 -6 -45 -16
-97z m-515 -81 c30 -123 34 -153 23 -160 -53 -35 -331 -120 -344 -106 -4 4 5
21 20 39 75 92 161 212 207 291 29 48 53 87 55 87 1 0 19 -68 39 -151z m-5484
89 c32 -63 111 -178 186 -269 35 -44 63 -83 60 -86 -13 -12 -286 74 -335 106
-11 7 -8 33 18 142 32 132 37 149 45 149 3 0 14 -19 26 -42z m2625 -5 c-3 -16
-8 -74 -12 -130 -4 -57 -8 -103 -10 -103 -4 0 -136 85 -154 98 -6 5 162 161
173 162 5 0 6 -12 3 -27z m261 -50 c74 -67 83 -79 68 -88 -10 -5 -44 -27 -77
-47 -32 -21 -60 -38 -62 -38 -2 0 -7 44 -10 98 -4 53 -9 109 -12 125 -3 15 -3
27 1 27 4 0 45 -35 92 -77z m-3807 40 c0 -11 -108 -180 -172 -268 -32 -44 -98
-135 -147 -203 l-89 -122 -45 77 c-74 130 -149 285 -140 293 18 16 560 228
586 230 4 0 7 -3 7 -7z m2799 -39 c56 -42 131 -119 131 -134 0 -4 -17 -20 -37
-37 -33 -26 -49 -31 -123 -36 -47 -4 -103 -10 -124 -14 l-39 -6 7 44 c11 70
91 229 116 229 4 0 35 -21 69 -46z m1790 -59 c30 -61 57 -152 49 -161 -3 -2
-36 0 -74 6 -38 5 -93 10 -122 10 -45 0 -57 4 -87 33 l-35 32 40 47 c22 25 68
67 102 93 l62 46 18 -23 c10 -13 31 -50 47 -83z m2752 80 c138 -47 509 -200
509 -210 0 -19 -178 -340 -189 -340 -10 0 -56 61 -229 300 -64 88 -172 257
-172 268 0 10 -3 10 81 -18z m-80 -184 c41 -64 124 -181 182 -260 59 -79 105
-146 103 -148 -6 -6 -260 46 -332 68 -69 21 -174 66 -174 74 0 3 17 56 39 118
21 61 49 154 62 206 18 77 25 91 33 77 6 -10 45 -71 87 -135z m-7103 -111 c25
-80 48 -150 50 -156 3 -13 -125 -65 -213 -87 -94 -24 -276 -59 -281 -54 -2 2
49 76 115 165 65 89 150 209 187 268 l69 107 13 -49 c7 -27 34 -114 60 -194z
m2190 -32 c-1 -122 10 -173 57 -282 8 -18 3 -19 -121 -13 -141 6 -224 26 -389
92 -91 37 -235 114 -235 125 0 9 133 48 371 109 154 40 294 80 316 90 1 1 2
-54 1 -121z m2902 23 c146 -39 283 -76 304 -84 l39 -13 -29 -21 c-92 -65 -335
-162 -472 -189 -41 -8 -116 -14 -167 -14 l-93 0 19 40 c38 78 52 158 47 271
l-4 107 45 -14 c25 -8 165 -45 311 -83z m-1610 30 c0 -11 -4 -23 -10 -26 -6
-4 -10 5 -10 19 0 14 5 26 10 26 6 0 10 -9 10 -19z m-2719 -62 c48 -16 96 -29
108 -29 37 0 23 -15 -41 -46 -34 -16 -102 -53 -151 -82 l-90 -52 7 52 c6 48
29 151 42 187 2 8 11 10 22 6 9 -4 56 -20 103 -36z m5561 -35 c9 -38 20 -95
24 -127 l7 -59 -56 36 c-31 20 -102 60 -159 91 -101 54 -102 55 -70 61 19 4
75 21 125 39 51 18 96 32 102 31 5 -1 17 -34 27 -72z m-3209 25 c54 -27 120
-81 153 -125 25 -32 26 -37 14 -79 l-12 -44 -37 19 c-20 10 -58 34 -86 52 -49
32 -49 34 -46 80 2 47 -17 102 -41 111 -10 4 -10 6 0 6 7 1 32 -9 55 -20z
m737 -7 c-22 -30 -28 -71 -17 -114 7 -25 2 -30 -47 -62 -93 -59 -117 -70 -127
-54 -23 36 -21 78 6 117 35 51 157 137 198 140 4 1 -2 -11 -13 -27z m614 2
c27 -6 28 -8 22 -50 -6 -48 -42 -123 -78 -166 l-23 -28 -53 60 c-53 59 -53 59
-42 101 6 22 11 53 10 67 -1 15 -2 30 -1 33 1 6 113 -6 165 -17z m-1834 -28
c0 -23 5 -57 11 -74 10 -30 8 -35 -42 -92 l-54 -60 -17 22 c-47 63 -79 129
-85 175 l-6 51 54 10 c30 5 73 10 97 11 l42 1 0 -44z m-1296 -210 c68 -46 131
-86 138 -88 9 -3 -2 -21 -33 -54 -54 -59 -127 -166 -198 -290 -55 -96 -84
-192 -115 -379 -10 -55 -20 -117 -24 -139 l-7 -39 -73 92 c-40 50 -115 151
-166 224 -163 233 -277 400 -274 402 153 112 217 150 438 262 102 51 186 93
187 93 1 0 58 -38 127 -84z m4584 -15 c178 -90 400 -224 418 -252 13 -22 -478
-718 -508 -719 -5 0 -8 20 -8 44 0 52 -32 227 -61 336 -32 119 -151 325 -262
454 -46 54 -49 59 -32 69 11 6 71 45 135 88 63 43 116 78 118 79 2 0 92 -45
200 -99z m-1617 -53 l19 -27 -31 -35 c-37 -43 -137 -94 -201 -102 l-46 -7 9
44 c6 24 13 77 17 118 l7 74 45 11 c25 7 54 17 65 24 18 10 25 7 58 -31 21
-23 47 -54 58 -69z m-1488 75 l57 -16 0 -46 c1 -25 7 -77 14 -115 l13 -68 -54
6 c-71 8 -149 45 -195 93 l-37 38 56 68 c40 48 61 66 72 62 9 -4 42 -13 74
-22z m301 -40 c50 -31 93 -58 95 -60 12 -8 -80 -87 -126 -108 -83 -40 -83 -40
-102 69 -16 89 -14 133 7 145 26 16 28 15 126 -46z m853 -33 c-3 -36 -11 -88
-17 -117 l-11 -51 -37 10 c-70 19 -167 83 -174 115 -2 6 39 38 91 71 87 54 97
58 124 48 29 -11 29 -11 24 -76z m2927 -63 c35 -79 93 -201 129 -270 l66 -126
-38 14 c-22 7 -70 27 -108 43 -37 17 -129 49 -203 73 -74 23 -136 44 -138 45
-2 1 30 53 71 115 41 63 92 146 113 186 21 39 40 70 42 68 2 -2 32 -68 66
-148z m-6746 70 c18 -35 66 -115 107 -178 40 -62 73 -114 72 -115 -1 -1 -67
-23 -147 -49 -80 -26 -158 -54 -174 -62 -16 -8 -57 -26 -92 -39 l-63 -23 78
152 c43 84 100 203 127 265 26 61 50 112 53 112 3 0 21 -29 39 -63z m-168 40
c0 -13 -122 -271 -167 -354 -44 -81 -59 -101 -69 -92 -18 15 -224 325 -224
336 0 6 44 17 98 27 120 21 312 65 332 77 15 9 30 11 30 6z m7085 -28 c39 -10
131 -31 205 -45 74 -14 137 -28 139 -30 5 -4 -112 -186 -177 -277 -37 -51 -52
-64 -59 -55 -30 39 -213 413 -213 436 0 2 8 1 18 -3 9 -4 49 -16 87 -26z
m-3479 -280 c22 -21 64 -53 94 -72 69 -43 89 -85 56 -115 -25 -23 -246 -195
-263 -205 -10 -6 -213 141 -297 214 -19 17 17 71 71 105 73 46 134 104 178
169 l38 54 42 -57 c23 -31 60 -73 81 -93z m-1706 81 c99 -27 348 -45 457 -33
l82 9 61 -57 c70 -65 147 -109 235 -134 115 -33 110 -18 46 -147 l-56 -115
-66 34 c-36 18 -103 43 -149 54 -84 21 -122 22 -323 6 -25 -2 -30 3 -46 49
-34 101 -80 163 -171 230 -46 35 -113 76 -147 91 -111 49 -76 55 77 13z m3304
22 c3 -5 -23 -22 -57 -39 -34 -17 -98 -57 -142 -90 -86 -64 -133 -128 -166
-227 l-18 -51 -48 5 c-26 3 -97 5 -158 5 -93 0 -123 -4 -195 -28 -47 -15 -105
-40 -129 -56 l-45 -27 -57 115 c-43 88 -55 119 -46 127 7 6 36 16 66 23 87 19
177 67 249 135 l67 63 75 -10 c110 -14 371 6 480 37 94 27 116 30 124 18z
m-3442 -119 c58 -22 181 -107 220 -151 41 -48 76 -126 80 -182 l3 -44 -45 -9
c-96 -19 -213 34 -268 121 -32 50 -56 131 -66 225 -6 52 -5 57 14 57 11 0 39
-7 62 -17z m3532 -40 c-10 -94 -34 -175 -66 -225 -55 -87 -172 -140 -268 -121
l-45 9 3 44 c4 56 39 134 80 182 62 69 223 166 280 167 21 1 22 -2 16 -56z
m-3694 -112 c26 -129 91 -231 186 -290 12 -8 15 -14 7 -17 -6 -3 -35 -22 -64
-42 -94 -66 -164 -192 -197 -355 l-16 -79 -30 6 c-16 4 -47 11 -67 16 l-37 10
-7 77 c-16 160 31 465 87 577 42 85 110 198 115 192 2 -2 12 -45 23 -95z
m3871 -31 c54 -97 61 -116 89 -254 26 -129 30 -171 30 -307 l0 -158 -37 -10
c-98 -26 -88 -31 -105 56 -33 163 -103 289 -197 355 -29 20 -58 39 -64 42 -8
3 -4 10 8 17 92 58 167 176 187 297 7 40 16 71 21 69 5 -1 36 -50 68 -107z
m1159 -139 c37 -75 75 -136 104 -168 11 -13 17 -26 13 -29 -13 -13 -336 98
-385 132 -2 2 38 64 89 138 l93 136 26 -72 c15 -40 42 -102 60 -137z m-6320
165 c-61 -160 -205 -373 -239 -352 -14 9 -184 216 -180 219 31 19 401 157 421
157 4 0 3 -11 -2 -24z m220 -111 l81 -120 -78 -36 c-86 -40 -291 -105 -300
-95 -4 3 2 16 13 29 55 62 127 199 178 341 8 24 7 26 106 -119z m6222 109 c64
-20 313 -118 325 -128 1 -1 -38 -53 -89 -115 l-91 -112 -34 33 c-19 18 -52 60
-74 93 -50 75 -137 255 -124 255 2 0 41 -12 87 -26z m-3492 -374 c1 -12 -313
-170 -337 -170 -18 0 38 232 74 304 l26 53 118 -91 c65 -50 118 -93 119 -96z
m716 124 c30 -67 64 -204 64 -256 l0 -37 -82 35 c-101 43 -249 125 -246 135 4
11 221 178 231 179 4 0 19 -25 33 -56z m-1504 21 c64 -13 172 -59 210 -88 16
-13 17 -19 3 -83 -8 -38 -15 -86 -15 -106 l0 -38 -57 0 c-193 1 -435 160 -421
278 3 23 10 29 48 39 62 16 152 15 232 -2z m2268 2 c38 -10 45 -16 48 -39 7
-58 -62 -144 -161 -202 -72 -42 -155 -68 -244 -75 l-83 -7 0 26 c-1 14 -7 61
-15 105 -14 79 -14 80 8 98 39 31 146 78 210 92 76 17 177 17 237 2z m1594
-441 c9 -60 14 -111 12 -113 -2 -3 -52 27 -110 66 -109 74 -137 82 -168 54
-25 -22 -24 -121 3 -258 11 -59 19 -111 17 -117 -2 -5 -44 19 -93 55 -50 35
-105 72 -123 81 -18 9 -32 21 -30 26 2 5 52 63 112 130 115 127 244 287 311
385 l40 58 7 -129 c4 -71 14 -178 22 -238z m-5574 229 c100 -133 154 -197 283
-337 l98 -107 -33 -17 c-18 -9 -73 -46 -123 -81 -49 -36 -91 -60 -93 -55 -2 6
6 58 17 117 26 132 28 231 4 257 -28 31 -60 21 -169 -53 -58 -39 -107 -69
-109 -67 -2 2 5 71 15 153 11 83 20 186 20 229 0 44 2 77 4 75 2 -2 41 -53 86
-114z m1270 18 c0 -80 -21 -130 -86 -203 -36 -39 -71 -62 -168 -110 -67 -33
-129 -60 -137 -60 -39 0 26 221 89 304 54 72 175 135 260 136 l42 0 0 -67z
m3107 21 c92 -46 138 -100 178 -208 31 -84 45 -186 24 -186 -7 0 -68 27 -135
60 -97 48 -132 71 -168 110 -65 73 -86 123 -86 204 l0 68 55 -4 c37 -3 79 -17
132 -44z m-4567 7 c0 -30 -30 -280 -41 -348 -9 -54 -13 -61 -27 -53 -10 5 -84
76 -166 159 -96 96 -145 152 -135 154 8 3 48 12 89 22 41 10 116 32 165 50
109 39 115 40 115 16z m5970 -22 c67 -22 150 -47 184 -54 l61 -12 -158 -158
c-87 -86 -160 -155 -163 -153 -7 8 -23 106 -39 246 -16 139 -18 172 -11 172 2
0 59 -18 126 -41z m-4225 -151 c75 -39 175 -71 265 -85 l55 -8 -85 -28 c-191
-61 -565 -134 -648 -125 l-34 3 67 44 c111 72 195 205 195 307 l0 42 58 -57
c32 -31 89 -73 127 -93z m2557 2 c31 -70 105 -157 173 -201 l66 -44 -49 -3
c-97 -6 -454 64 -652 127 l-85 28 70 7 c151 17 303 85 395 176 l55 55 6 -55
c3 -30 13 -71 21 -90z m-1248 -56 l133 -76 -92 -91 c-51 -51 -109 -118 -130
-149 -21 -32 -41 -58 -45 -58 -4 0 -24 26 -45 58 -21 31 -81 100 -133 152 -52
52 -91 95 -86 97 5 2 63 35 129 73 66 39 124 70 128 70 5 0 68 -34 141 -76z
m-445 -178 c36 -30 87 -78 112 -108 44 -51 109 -142 109 -151 0 -3 -19 0 -42
6 -50 12 -305 15 -364 5 l-41 -8 -7 48 c-3 26 -9 79 -12 118 l-7 70 84 37 c46
20 88 37 93 37 5 0 39 -24 75 -54z m784 14 l78 -33 -7 -61 c-3 -34 -9 -86 -13
-116 l-6 -55 -40 5 c-68 8 -308 3 -352 -8 -24 -5 -43 -8 -43 -5 0 11 84 123
127 170 60 66 155 144 168 139 6 -2 45 -18 88 -36z m-3158 -134 c-10 -50 -21
-95 -26 -100 -8 -9 -134 90 -134 105 0 4 38 32 85 63 67 43 86 52 88 39 2 -8
-4 -57 -13 -107z m5465 55 c30 -19 57 -37 60 -39 3 -2 -24 -30 -60 -63 -36
-32 -68 -55 -71 -51 -8 9 -39 169 -39 201 0 23 0 23 28 5 15 -9 52 -33 82 -53z
m-3586 -83 c3 -18 11 -71 16 -118 15 -117 53 -271 89 -363 58 -146 180 -373
256 -476 25 -34 45 -64 45 -67 0 -8 -593 296 -695 357 -46 27 -117 74 -157
105 -40 31 -143 108 -228 172 -138 103 -350 270 -350 277 0 1 69 0 153 -3 88
-3 190 0 242 7 112 15 471 94 545 120 74 26 78 26 84 -11z m1714 2 c131 -38
400 -95 516 -111 50 -6 155 -10 238 -7 81 2 148 2 148 -1 -1 -10 -138 -119
-338 -270 -266 -201 -343 -255 -442 -310 -100 -57 -634 -331 -643 -331 -4 0
14 28 39 62 59 81 106 162 187 323 102 205 141 335 169 568 7 59 15 107 18
107 3 0 51 -14 108 -30z m-3252 -87 c-3 -16 -10 -64 -16 -108 -6 -44 -13 -92
-16 -107 l-6 -28 -46 32 c-26 17 -66 46 -89 63 l-41 31 101 72 c56 40 105 72
110 72 5 0 6 -12 3 -27z m4593 -69 c7 -53 11 -98 8 -100 -2 -2 -29 10 -61 27
-35 19 -66 29 -81 27 -19 -4 -12 8 42 69 37 40 69 73 73 73 3 0 11 -43 19 -96z
m210 24 c50 -35 90 -65 90 -68 0 -3 -37 -31 -82 -62 -56 -39 -83 -54 -88 -45
-3 6 -12 55 -18 107 -7 52 -15 106 -18 119 -8 33 5 27 116 -51z m-4604 -73
c-18 -7 -50 -22 -70 -34 -21 -12 -40 -20 -42 -17 -3 2 1 45 8 96 l13 91 63
-63 62 -62 -34 -11z m1963 -1 c28 -3 52 -10 52 -15 0 -5 -4 -9 -9 -9 -13 0
-176 -128 -240 -188 -30 -29 -55 -51 -56 -49 -23 38 -89 246 -81 254 2 2 32 8
67 13 61 8 152 6 267 -6z m665 0 c9 -3 17 -15 17 -27 0 -20 -63 -213 -72 -222
-2 -3 -27 16 -54 41 -55 53 -217 180 -236 187 -69 24 262 44 345 21z m1587
-33 c-5 -11 -14 -70 -20 -132 -5 -61 -11 -113 -12 -115 -2 -1 -28 8 -58 21
-103 45 -133 28 -165 -90 -15 -52 -21 -65 -34 -60 -9 4 -42 13 -73 22 -32 9
-58 19 -58 22 0 3 19 19 43 36 78 55 282 223 327 269 46 48 68 60 50 27z
m-4009 -112 c47 -41 129 -105 182 -144 53 -38 96 -73 96 -77 1 -4 -24 -14 -54
-22 -30 -9 -60 -19 -68 -22 -10 -3 -19 14 -32 61 -32 118 -62 135 -165 90
l-55 -23 -6 26 c-4 15 -7 52 -8 82 -1 30 -6 74 -10 98 l-9 43 22 -19 c11 -10
60 -52 107 -93z m1980 21 c81 -163 76 -410 -12 -651 -12 -33 -25 -59 -29 -59
-4 0 -17 26 -29 59 -65 179 -87 378 -56 516 17 78 46 158 67 182 18 22 31 11
59 -47z m-2193 -89 l-3 -58 -63 40 -63 40 58 33 c69 39 75 34 71 -55z m4409
24 c0 -5 -24 -24 -51 -42 l-51 -32 -3 46 c-2 26 -1 57 3 70 l6 24 48 -28 c27
-15 49 -32 48 -38z m-2443 -42 c-25 -106 -14 -355 21 -458 19 -57 -132 157
-183 261 l-30 60 25 33 c21 26 170 161 178 161 1 0 -4 -26 -11 -57z m474 -38
c92 -84 91 -80 32 -186 -48 -87 -139 -224 -145 -217 -1 2 4 37 11 78 18 97 18
289 0 362 l-13 57 26 -18 c14 -11 54 -45 89 -76z m-2204 -101 c14 -37 7 -45
-21 -27 -16 9 -30 19 -33 21 -6 4 22 22 36 22 7 0 15 -7 18 -16z m3875 7 c11
-7 7 -13 -18 -25 -31 -16 -37 -12 -25 18 7 18 22 20 43 7z m-446 -149 l-17
-52 -40 7 c-51 7 -54 10 -30 27 10 8 37 28 58 45 22 17 41 30 42 28 2 -2 -4
-26 -13 -55z m-3135 -4 c6 -23 10 -43 9 -44 -1 -1 -29 11 -61 27 -56 26 -58
29 -35 37 21 9 52 17 70 21 4 0 11 -18 17 -41z m162 2 c36 -31 41 -39 25 -40
-11 0 -29 -3 -41 -6 -17 -4 -22 1 -32 34 -20 66 -15 67 48 12z m3165 20 c17
-6 11 -11 -34 -34 -29 -15 -55 -26 -57 -24 -2 2 2 21 8 41 12 38 19 40 83 17z
m-462 -198 c-25 -31 -49 -44 -157 -85 -71 -27 -130 -46 -132 -44 -2 2 45 29
104 59 60 31 131 70 158 86 26 17 51 29 53 26 2 -2 -9 -21 -26 -42z m-2321
-67 c67 -35 119 -65 113 -65 -11 0 -245 86 -249 92 -1 1 -12 16 -24 32 -31 40
-27 51 7 27 16 -12 85 -50 153 -86z"/>
</g>
</svg>
