<?xml version="1.0" standalone="no"?>
<!DOCTYPE svg PUBLIC "-//W3C//DTD SVG 20010904//EN"
 "http://www.w3.org/TR/2001/REC-SVG-20010904/DTD/svg10.dtd">
<svg version="1.0" xmlns="http://www.w3.org/2000/svg"
 width="1280.000000pt" height="1280.000000pt" viewBox="0 0 1280.000000 1280.000000"
 preserveAspectRatio="xMidYMid meet">
<metadata>
Created by potrace 1.15, written by Peter Selinger 2001-2017
</metadata>
<g transform="translate(0.000000,1280.000000) scale(0.100000,-0.100000)"
fill="#000000" stroke="none">
<path d="M6340 12698 c-142 -258 -305 -625 -419 -940 -228 -632 -358 -1241
-391 -1833 -6 -99 -12 -191 -13 -204 -2 -18 -20 4 -82 100 -245 382 -500 695
-850 1044 -288 288 -574 531 -898 763 -143 103 -467 312 -483 312 -16 0 11
-501 41 -735 107 -846 341 -1627 681 -2273 l65 -123 -123 65 c-644 339 -1429
575 -2273 681 -231 29 -735 57 -735 41 0 -16 209 -340 312 -483 235 -329 477
-613 773 -908 346 -346 677 -614 1049 -851 86 -54 104 -69 85 -71 -13 -1 -105
-7 -204 -13 -817 -46 -1726 -293 -2527 -684 -195 -95 -338 -174 -338 -186 0
-12 143 -91 338 -186 801 -391 1710 -638 2527 -684 99 -6 191 -12 204 -13 19
-2 1 -17 -85 -71 -372 -237 -703 -505 -1049 -851 -296 -295 -538 -579 -773
-908 -103 -143 -312 -467 -312 -483 0 -16 504 12 735 41 845 107 1628 341
2273 681 l123 65 -65 -123 c-340 -646 -574 -1427 -681 -2273 -30 -234 -57
-735 -41 -735 16 0 340 209 483 312 324 232 610 475 898 763 350 349 605 662
850 1044 62 96 80 118 82 100 1 -13 7 -105 13 -204 46 -817 291 -1721 683
-2525 96 -196 175 -340 187 -340 12 0 91 144 187 340 392 804 637 1708 683
2525 6 99 12 191 13 204 2 18 20 -4 82 -100 245 -382 500 -695 850 -1044 288
-288 574 -531 898 -763 143 -103 467 -312 483 -312 16 0 -11 501 -41 735 -107
846 -341 1627 -681 2273 l-65 123 123 -65 c644 -339 1429 -575 2273 -681 231
-29 735 -57 735 -41 0 16 -209 340 -312 483 -235 329 -477 613 -773 908 -346
346 -677 614 -1049 851 -86 54 -104 69 -85 71 13 1 105 7 204 13 707 40 1485
229 2202 536 280 119 663 313 663 334 0 21 -383 215 -663 334 -717 307 -1495
496 -2202 536 -99 6 -191 12 -204 13 -19 2 -1 17 85 71 372 237 703 505 1049
851 296 295 538 579 773 908 103 143 312 467 312 483 0 16 -504 -12 -735 -41
-845 -107 -1628 -341 -2273 -681 l-123 -65 65 123 c340 646 574 1427 681 2273
30 234 57 735 41 735 -16 0 -340 -209 -483 -312 -324 -232 -610 -475 -898
-763 -350 -349 -605 -662 -850 -1044 -62 -96 -80 -118 -82 -100 -1 13 -7 105
-13 204 -46 817 -291 1721 -683 2525 -96 196 -175 340 -187 340 -5 0 -32 -42
-60 -92z"/>
</g>
</svg>
