<?xml version="1.0" standalone="no"?>
<!DOCTYPE svg PUBLIC "-//W3C//DTD SVG 20010904//EN"
 "http://www.w3.org/TR/2001/REC-SVG-20010904/DTD/svg10.dtd">
<svg version="1.0" xmlns="http://www.w3.org/2000/svg"
 width="1280.000000pt" height="1280.000000pt" viewBox="0 0 1280.000000 1280.000000"
 preserveAspectRatio="xMidYMid meet">
<metadata>
Created by potrace 1.15, written by Peter Selinger 2001-2017
</metadata>
<g transform="translate(0.000000,1280.000000) scale(0.100000,-0.100000)"
fill="#000000" stroke="none">
<path d="M5568 12588 l-367 -211 52 -76 c28 -42 548 -812 1155 -1711 1340
-1982 1338 -1980 1315 -1954 -10 12 -664 912 -1453 2002 -789 1089 -1438 1980
-1442 1979 -3 -1 -151 -123 -328 -271 l-321 -270 139 -140 c77 -78 737 -760
1467 -1516 730 -756 1382 -1431 1449 -1500 193 -199 211 -216 -2518 2424
l-939 908 -27 -28 c-16 -16 -139 -161 -274 -323 l-246 -293 43 -32 c39 -30
519 -379 2702 -1960 839 -608 1044 -760 800 -594 -60 41 -945 639 -1965 1328
-1020 689 -1890 1277 -1934 1307 -43 29 -80 52 -81 51 -14 -19 -415 -722 -415
-727 0 -4 84 -49 188 -99 103 -50 313 -152 467 -228 154 -75 339 -165 410
-199 72 -34 222 -108 335 -163 495 -241 2166 -1054 2373 -1155 125 -60 226
-112 224 -113 -2 -2 -457 199 -1012 447 -556 248 -1363 609 -1795 801 -1525
681 -1633 729 -1641 721 -14 -15 -287 -778 -280 -784 3 -4 972 -283 2153 -620
1181 -337 2146 -614 2144 -616 -1 -2 -1070 264 -2374 591 -2299 576 -2372 593
-2377 573 -9 -40 -144 -812 -142 -813 1 -1 160 -18 352 -38 630 -65 2258 -235
2850 -296 1346 -140 1266 -132 1262 -136 -2 -2 -250 14 -553 36 -556 40 -1696
121 -2609 185 -275 20 -750 53 -1055 75 -305 21 -582 40 -615 42 l-60 3 -3
-414 c-1 -228 1 -418 5 -422 5 -5 386 19 848 52 462 32 1351 95 1975 139 624
44 1256 89 1404 100 148 11 271 18 274 15 3 -3 -2 -5 -10 -5 -15 0 -656 -66
-1890 -195 -1533 -160 -2730 -285 -2865 -298 -67 -7 -125 -16 -128 -19 -6 -5
132 -817 140 -826 1 -1 976 241 2165 538 1189 297 2164 539 2165 538 2 -2
-1050 -304 -2338 -672 -1288 -368 -2344 -671 -2346 -672 -3 -3 277 -783 285
-792 1 -2 105 42 231 98 537 240 1649 736 3347 1494 291 130 531 235 533 233
2 -2 -45 -27 -104 -55 -60 -27 -475 -229 -923 -447 -448 -219 -878 -428 -955
-465 -77 -37 -594 -289 -1150 -560 -556 -270 -1072 -522 -1148 -558 -76 -36
-136 -68 -135 -72 2 -3 97 -168 212 -367 l209 -361 321 216 c177 119 894 604
1594 1077 1702 1151 1849 1250 1832 1233 -8 -8 -226 -168 -485 -355 -258 -187
-931 -674 -1495 -1083 -1458 -1058 -1802 -1307 -1912 -1386 -53 -38 -96 -72
-95 -75 1 -4 123 -151 272 -328 l269 -322 141 139 c129 128 1328 1288 3020
2921 160 154 229 227 -1690 -1758 l-1647 -1703 23 -23 c72 -70 624 -524 629
-518 6 6 1008 1389 2512 3466 71 97 131 177 134 177 3 0 -33 -55 -79 -122 -46
-68 -648 -958 -1337 -1978 -689 -1020 -1273 -1884 -1297 -1919 -24 -35 -43
-64 -41 -66 17 -12 715 -411 723 -413 6 -1 310 611 675 1360 365 750 805 1654
978 2011 173 356 317 646 319 644 1 -2 -42 -102 -96 -223 -54 -120 -248 -554
-431 -964 -362 -811 -809 -1813 -1207 -2704 -139 -313 -251 -571 -248 -575 13
-13 780 -288 786 -282 4 3 283 972 620 2153 337 1181 615 2146 616 2144 2 -2
-264 -1070 -591 -2375 -576 -2299 -593 -2371 -573 -2376 36 -8 812 -143 813
-142 1 1 22 202 48 447 25 245 68 659 96 920 27 261 81 781 120 1155 39 374
93 892 120 1150 27 259 57 545 66 638 10 92 19 165 21 163 2 -2 -10 -192 -27
-422 -16 -230 -43 -610 -60 -844 -16 -234 -52 -744 -80 -1135 -136 -1924 -169
-2386 -172 -2448 l-3 -48 419 1 c231 0 421 2 423 3 1 2 -15 253 -37 558 -53
746 -108 1523 -180 2544 -33 468 -67 947 -76 1066 -23 311 -13 308 18 -6 16
-148 66 -634 113 -1080 46 -445 102 -983 124 -1195 22 -212 66 -626 96 -920
31 -294 75 -721 99 -948 24 -227 45 -415 48 -418 5 -4 818 134 826 141 2 2
-240 976 -538 2165 -297 1189 -539 2164 -537 2166 1 2 304 -1051 672 -2339
367 -1288 670 -2344 671 -2346 3 -3 783 278 793 285 1 1 -143 330 -322 731
-179 400 -466 1043 -637 1428 -172 385 -438 981 -591 1324 -154 343 -278 625
-276 627 1 2 192 -387 424 -864 803 -1651 1725 -3547 1727 -3549 1 -1 167 93
368 209 l366 212 -71 105 c-87 130 -2243 3322 -2375 3516 -52 77 -90 136 -84
130 6 -5 127 -170 269 -366 2119 -2925 2629 -3627 2634 -3626 4 1 151 123 328
272 l322 269 -129 131 c-71 71 -729 751 -1462 1510 -733 759 -1390 1438 -1459
1509 -201 207 -76 87 1753 -1682 l1699 -1644 23 24 c69 71 523 623 517 628 -5
4 -253 185 -553 402 -300 217 -750 543 -1000 724 -250 182 -817 593 -1260 913
-443 321 -812 590 -820 598 -8 9 82 -50 200 -130 118 -80 1038 -701 2044
-1381 l1829 -1235 208 360 c115 199 209 365 209 369 0 4 -692 344 -1537 755
-846 412 -1671 813 -1833 892 -162 80 -375 183 -473 230 -97 48 -176 88 -174
90 2 2 39 -13 83 -33 43 -20 349 -157 679 -304 330 -147 915 -408 1300 -580
385 -172 990 -442 1345 -600 355 -158 737 -329 849 -379 112 -51 208 -88 212
-84 14 15 287 778 280 784 -3 4 -973 283 -2154 620 -1182 338 -2145 615 -2140
616 4 1 1073 -264 2376 -591 2272 -569 2368 -592 2372 -572 9 40 144 811 142
812 -1 1 -438 48 -972 103 -1002 104 -1975 206 -2315 241 -669 70 -1155 120
-1168 120 -9 0 -13 2 -10 5 2 3 384 -22 849 -55 799 -57 1724 -123 2684 -190
237 -17 637 -46 890 -64 253 -18 463 -31 468 -29 10 6 9 831 -2 837 -5 3 -326
-17 -712 -44 -387 -28 -893 -64 -1124 -80 -231 -16 -899 -64 -1485 -105 -586
-42 -1076 -74 -1090 -73 -14 2 119 18 295 36 321 33 880 91 1940 202 314 33
809 84 1100 115 1317 137 1466 153 1471 158 5 5 -134 818 -141 825 -2 2 -985
-242 -2185 -543 -1200 -300 -2184 -545 -2185 -543 -2 2 1057 306 2353 677
1296 370 2360 676 2365 680 5 5 -265 772 -279 789 -3 4 -3 4 -3243 -1442 -476
-212 -866 -384 -868 -383 -1 2 131 68 295 147 163 79 421 204 572 278 526 256
2157 1050 3035 1477 281 136 511 249 513 250 1 1 -93 166 -210 368 l-211 365
-106 -71 c-110 -74 -1762 -1189 -2076 -1402 -99 -67 -432 -292 -740 -500 -308
-208 -623 -421 -700 -473 -77 -52 -135 -90 -130 -84 6 6 170 127 366 269 2823
2044 3627 2629 3626 2635 -1 3 -123 151 -272 327 l-269 322 -131 -129 c-71
-71 -751 -729 -1510 -1462 -759 -733 -1438 -1390 -1509 -1459 -207 -201 -88
-77 1682 1753 l1644 1699 -29 27 c-80 78 -617 520 -623 513 -4 -4 -596 -820
-1315 -1813 -719 -993 -1314 -1812 -1323 -1820 -8 -8 28 48 80 125 52 77 442
653 865 1280 424 627 1003 1484 1287 1904 452 670 514 766 499 775 -10 5 -172
99 -361 208 -189 109 -347 198 -351 198 -7 0 -313 -625 -1654 -3382 -171 -351
-312 -637 -314 -635 -1 2 69 163 156 358 87 195 289 647 449 1004 159 358 448
1006 642 1440 194 435 440 985 547 1224 106 239 190 438 186 442 -15 14 -778
287 -784 281 -4 -4 -283 -974 -620 -2155 -338 -1182 -615 -2145 -616 -2140 -1
4 265 1073 591 2376 575 2293 593 2367 572 2372 -36 9 -810 144 -812 142 -1
-1 -22 -202 -48 -447 -25 -245 -68 -659 -96 -920 -27 -261 -81 -781 -120
-1155 -39 -374 -93 -891 -120 -1150 -27 -258 -57 -545 -66 -638 -10 -92 -19
-165 -21 -163 -2 2 10 192 27 422 16 230 43 610 60 844 16 234 55 776 85 1205
30 429 76 1068 100 1420 25 352 52 721 59 820 7 99 11 183 9 188 -6 10 -831 9
-837 -2 -3 -5 12 -258 34 -562 53 -746 108 -1524 180 -2544 33 -467 67 -947
76 -1066 25 -344 12 -295 -29 106 -21 204 -56 541 -78 750 -129 1243 -272
2614 -343 3293 -23 226 -45 415 -49 418 -5 5 -817 -133 -825 -141 -1 -1 241
-976 538 -2165 297 -1189 539 -2164 537 -2166 -1 -2 -304 1051 -672 2339 -367
1288 -670 2344 -672 2346 -3 4 -783 -276 -791 -284 -2 -2 115 -271 261 -597
146 -326 414 -928 597 -1338 183 -410 478 -1071 656 -1469 178 -399 322 -726
321 -728 -2 -1 -71 138 -154 310 -83 171 -454 933 -823 1692 -370 759 -787
1616 -927 1905 -140 289 -256 526 -257 527 -1 1 -167 -93 -368 -209z m858
-3584 c18 -14 18 -14 -6 -3 -31 14 -36 19 -24 19 6 0 19 -7 30 -16z m227 -265
c178 -19 220 -27 400 -79 280 -80 486 -181 726 -354 341 -245 593 -555 766
-941 75 -165 93 -216 136 -390 45 -180 52 -220 66 -405 14 -198 14 -212 -7
-414 -20 -190 -27 -226 -80 -411 -52 -180 -69 -224 -153 -391 -77 -152 -118
-221 -214 -350 -244 -333 -550 -579 -931 -751 -162 -73 -214 -91 -386 -134
-177 -44 -221 -52 -400 -65 -195 -15 -208 -15 -416 7 -198 20 -231 26 -416 80
-179 51 -223 68 -390 152 -153 77 -220 118 -350 214 -334 246 -579 550 -751
931 -73 162 -91 214 -134 387 -45 180 -52 220 -66 405 -14 198 -14 212 7 414
20 190 27 226 80 410 51 176 70 226 150 386 187 376 442 671 784 904 131 90
197 127 354 198 170 78 217 94 395 139 167 42 230 53 362 64 226 18 247 18
468 -6z m2014 -1056 c-3 -10 -5 -2 -5 17 0 19 2 27 5 18 2 -10 2 -26 0 -35z
m-4530 -2600 c-3 -10 -5 -2 -5 17 0 19 2 27 5 18 2 -10 2 -26 0 -35z m3576
-950 c-7 -2 -21 -2 -30 0 -10 3 -4 5 12 5 17 0 24 -2 18 -5z"/>
</g>
</svg>
