<?xml version="1.0" standalone="no"?>
<!DOCTYPE svg PUBLIC "-//W3C//DTD SVG 20010904//EN"
 "http://www.w3.org/TR/2001/REC-SVG-20010904/DTD/svg10.dtd">
<svg version="1.0" xmlns="http://www.w3.org/2000/svg"
 width="1280.000000pt" height="1240.000000pt" viewBox="0 0 1280.000000 1240.000000"
 preserveAspectRatio="xMidYMid meet">
<metadata>
Created by potrace 1.15, written by Peter Selinger 2001-2017
</metadata>
<g transform="translate(0.000000,1240.000000) scale(0.100000,-0.100000)"
fill="#000000" stroke="none">
<path d="M2980 12394 c-19 -2 -84 -9 -145 -15 -227 -23 -523 -93 -742 -175
-1049 -391 -1818 -1292 -2033 -2384 -45 -232 -55 -342 -54 -620 0 -270 9 -358
60 -610 304 -1513 1690 -3657 4034 -6240 407 -449 702 -760 1230 -1300 337
-344 1047 -1040 1068 -1048 22 -7 1176 1157 1693 1708 1801 1922 3165 3692
3933 5104 431 791 666 1430 758 2061 17 121 17 557 -1 695 -95 750 -423 1412
-952 1925 -504 489 -1107 780 -1824 881 -155 22 -620 25 -775 5 -155 -19 -378
-65 -517 -105 -1119 -323 -1985 -1242 -2237 -2376 -32 -145 -66 -382 -66 -460
0 -99 -17 -68 -23 43 -12 208 -81 534 -162 767 -270 774 -844 1432 -1569 1800
-332 168 -667 273 -1044 326 -100 14 -552 27 -632 18z"/>
</g>
</svg>
