<?xml version="1.0" standalone="no"?>
<!DOCTYPE svg PUBLIC "-//W3C//DTD SVG 20010904//EN"
 "http://www.w3.org/TR/2001/REC-SVG-20010904/DTD/svg10.dtd">
<svg version="1.0" xmlns="http://www.w3.org/2000/svg"
 width="1280.000000pt" height="1172.000000pt" viewBox="0 0 1280.000000 1172.000000"
 preserveAspectRatio="xMidYMid meet">
<metadata>
Created by potrace 1.15, written by Peter Selinger 2001-2017
</metadata>
<g transform="translate(0.000000,1172.000000) scale(0.100000,-0.100000)"
fill="#000000" stroke="none">
<path d="M6380 11713 c-347 -18 -654 -50 -910 -94 -334 -57 -762 -173 -948
-258 -413 -188 -507 -236 -609 -310 -34 -24 -43 -37 -43 -60 0 -40 35 -66 134
-96 203 -63 317 -75 598 -63 41 2 62 -1 73 -12 23 -24 -4 -54 -88 -97 -99 -49
-136 -80 -226 -192 -95 -116 -170 -188 -207 -197 -77 -20 -176 94 -309 357
-52 103 -100 191 -105 194 -16 10 -109 -25 -124 -46 -7 -11 -32 -32 -54 -47
-137 -91 -543 -471 -613 -575 -22 -31 -52 -65 -66 -74 -76 -50 -111 -161 -58
-185 21 -9 47 -5 163 30 75 22 171 50 212 62 41 12 92 31 113 42 45 23 92 21
92 -4 0 -23 -200 -272 -309 -385 -69 -72 -95 -93 -116 -93 -26 0 -141 64 -229
128 -74 54 -91 46 -176 -87 -68 -105 -326 -644 -375 -782 -46 -129 104 -128
170 1 28 55 76 92 114 88 28 -3 31 -7 34 -39 4 -43 -22 -147 -48 -200 -26 -50
-59 -60 -161 -49 -90 10 -116 4 -148 -36 -51 -64 -95 -287 -145 -734 -38 -333
-46 -373 -79 -394 -53 -33 -406 -76 -992 -121 -186 -14 -356 -32 -389 -41 -50
-13 -69 -14 -121 -3 -120 24 -270 -20 -250 -73 7 -18 166 -69 305 -99 125 -26
384 -37 483 -19 40 7 101 24 137 37 85 33 238 44 259 19 11 -13 11 -19 0 -32
-31 -38 -254 -137 -823 -364 -394 -158 -539 -225 -544 -252 -10 -53 140 -43
334 22 71 24 154 44 206 50 120 14 168 34 377 159 226 135 331 170 331 110 0
-40 -42 -89 -128 -151 -51 -36 -195 -166 -350 -316 -216 -210 -274 -273 -331
-356 -38 -56 -117 -162 -175 -236 -151 -191 -201 -304 -194 -442 3 -57 5 -63
26 -66 33 -5 50 14 87 93 54 118 240 351 555 695 248 271 325 343 397 370 31
11 62 19 70 16 23 -9 14 -43 -24 -88 -66 -78 -151 -217 -232 -377 -102 -201
-153 -330 -203 -511 -22 -80 -50 -182 -64 -228 -21 -74 -57 -273 -67 -377 -6
-66 11 -292 34 -425 35 -210 84 -333 154 -388 31 -25 70 -29 78 -8 7 17 -11
101 -47 221 -63 211 -61 635 4 911 43 186 144 453 252 668 87 173 130 226 185
226 31 0 9 -112 -50 -265 -108 -276 -127 -401 -127 -820 0 -395 17 -553 91
-850 42 -165 89 -310 166 -505 36 -91 76 -196 89 -234 32 -91 56 -131 166
-272 142 -182 198 -264 198 -291 0 -5 -18 -17 -41 -26 -39 -16 -41 -15 -46 3
-6 24 -123 64 -236 81 -100 16 -360 7 -409 -14 -42 -17 -71 -56 -62 -81 8 -20
27 -20 128 0 69 14 96 15 188 5 164 -18 326 -72 346 -117 9 -17 20 -24 41 -24
54 0 219 -156 290 -274 28 -47 31 -59 21 -72 -17 -19 -81 -13 -226 22 -108 25
-163 30 -192 15 -9 -5 -47 -23 -84 -40 -51 -22 -69 -36 -74 -55 -12 -50 13
-57 118 -30 47 13 87 15 158 10 82 -5 105 -11 165 -41 126 -63 375 -257 375
-292 0 -6 -33 -28 -74 -47 -82 -39 -131 -93 -142 -154 -12 -61 41 -65 126 -11
43 27 143 59 183 59 44 0 85 -31 110 -83 24 -50 122 -154 209 -221 29 -21 52
-58 97 -150 76 -154 107 -257 121 -393 12 -114 21 -137 44 -113 21 22 55 143
62 219 10 102 -13 172 -110 341 -46 80 -89 163 -96 185 -13 45 -11 97 5 102
18 6 108 -57 326 -227 333 -260 446 -350 564 -455 144 -128 222 -167 345 -173
81 -4 88 -3 117 22 36 30 53 86 54 178 0 35 5 79 12 98 21 61 48 55 206 -49
186 -122 336 -208 520 -297 354 -172 437 -168 486 26 9 35 25 76 35 90 15 22
19 48 21 141 3 122 -3 143 -57 215 -13 17 -24 45 -24 62 0 22 -15 49 -60 102
-33 39 -60 78 -60 86 0 7 11 21 25 30 35 23 111 11 208 -33 95 -42 183 -57
302 -50 109 6 181 31 249 87 77 64 121 65 139 4 9 -33 1 -208 -13 -287 -34
-175 -126 -363 -299 -608 -43 -60 -37 -80 32 -108 29 -11 160 -38 292 -60 132
-22 293 -51 357 -65 141 -31 381 -56 528 -56 96 0 109 2 126 21 26 29 23 134
-6 210 -50 135 -122 205 -375 364 -150 94 -180 117 -180 136 0 24 1 24 126 26
215 2 414 69 528 177 73 71 114 89 157 71 43 -18 67 -61 107 -195 76 -249 86
-392 42 -556 -35 -125 -32 -208 7 -237 25 -19 32 -19 135 -8 59 6 216 23 348
36 245 26 455 58 650 101 155 34 174 62 115 173 -122 229 -359 380 -600 381
-36 0 -82 5 -104 9 -84 20 -73 42 52 106 77 39 114 66 178 130 74 72 88 92
143 208 68 141 87 160 140 133 66 -35 222 -237 272 -352 57 -134 131 -388 169
-577 7 -37 18 -61 30 -67 56 -30 370 91 692 268 185 102 240 140 353 242 50
45 118 102 153 127 34 25 62 52 62 61 0 34 -40 80 -109 126 -141 94 -298 139
-491 140 -132 0 -225 -18 -325 -65 -45 -21 -75 -20 -75 2 0 7 24 33 53 58 216
188 302 326 316 506 9 126 20 138 116 133 171 -9 373 -168 648 -510 56 -70
108 -129 116 -133 19 -8 48 21 147 146 79 99 89 108 152 134 37 16 111 50 164
76 214 104 343 80 241 -45 -141 -170 -359 -399 -576 -604 -288 -273 -273 -260
-452 -396 -184 -140 -303 -246 -387 -341 -152 -174 -192 -267 -193 -446 0
-107 9 -139 41 -139 7 0 46 60 88 132 107 191 164 267 301 406 94 94 127 122
147 122 37 0 40 -10 23 -76 -27 -106 -14 -181 30 -173 13 3 22 16 26 39 4 19
12 59 18 88 15 72 65 147 175 260 76 78 96 93 113 88 29 -9 31 -26 16 -130 -9
-63 -10 -93 -3 -100 19 -19 45 8 51 53 7 54 44 92 143 144 108 58 146 93 222
209 78 118 120 152 314 253 87 46 152 87 187 120 87 83 67 101 -65 60 -48 -15
-144 -54 -214 -87 -126 -60 -158 -66 -158 -30 0 40 75 127 346 402 155 158
286 295 292 306 29 55 82 231 82 274 0 101 -46 178 -140 235 -56 34 -69 37
-143 40 -66 2 -98 9 -162 35 -65 27 -97 34 -175 38 -140 7 -218 -16 -485 -143
-122 -58 -227 -105 -234 -105 -18 0 -7 42 31 115 17 33 48 93 69 134 42 83 65
187 54 253 -4 24 -23 90 -42 147 -35 101 -35 104 -17 118 27 21 154 10 241
-19 124 -42 388 -214 534 -347 146 -133 175 -139 259 -53 110 113 337 478 514
827 142 279 160 352 99 392 -23 16 -52 18 -203 18 -245 0 -292 -14 -464 -137
-57 -40 -100 -79 -117 -107 -34 -52 -62 -73 -92 -69 -31 4 -33 35 -6 147 47
192 25 367 -61 479 -32 41 -40 61 -38 85 5 50 31 57 213 57 257 0 388 -31 644
-150 80 -38 170 -78 198 -89 l53 -21 15 23 c25 39 85 236 101 336 41 246 67
387 99 516 44 186 58 285 54 394 -4 78 -7 94 -27 113 -20 21 -31 23 -108 21
-112 -2 -170 -16 -283 -70 -116 -56 -197 -134 -291 -280 -40 -63 -72 -102 -82
-103 -26 0 -41 37 -34 84 14 98 -33 234 -120 340 -24 30 -94 92 -154 137 -70
51 -110 88 -110 99 0 72 195 127 554 156 212 17 346 10 488 -26 96 -25 180
-26 199 -4 11 14 14 100 14 453 0 537 -13 693 -72 870 -13 40 -27 105 -30 143
-7 86 -16 92 -127 86 -258 -14 -424 -252 -511 -730 -14 -75 -31 -138 -39 -147
-14 -13 -18 -12 -42 10 -34 32 -69 93 -93 160 -33 96 -150 269 -229 340 -47
42 -153 99 -183 99 -22 0 -69 45 -69 67 0 44 67 114 167 176 56 36 278 128
398 166 115 37 362 81 458 81 67 0 128 17 142 40 15 25 5 99 -26 186 -98 278
-378 825 -569 1109 -48 70 -120 145 -141 145 -41 0 -156 -113 -202 -198 -39
-71 -74 -187 -87 -284 -13 -97 -3 -219 30 -348 28 -113 45 -239 32 -252 -18
-18 -50 2 -82 53 -17 28 -67 85 -110 126 -194 184 -296 243 -458 263 -83 11
-147 42 -167 80 -10 20 -11 32 -1 61 48 139 210 310 434 457 151 99 313 189
383 211 20 7 45 21 55 32 18 20 18 22 -6 67 -58 110 -675 697 -879 836 -99 67
-134 62 -191 -25 -136 -211 -147 -485 -28 -710 48 -91 51 -100 36 -115 -23
-24 -63 -11 -170 53 -159 96 -160 96 -361 103 -163 5 -180 7 -194 25 -20 27
-11 91 23 160 57 117 358 456 474 535 69 47 130 106 130 126 0 9 -13 28 -28
42 -36 34 -169 117 -191 118 -9 1 -21 2 -28 3 -6 1 -15 10 -18 21 -8 25 -58
51 -155 80 -53 16 -87 33 -115 59 -25 22 -153 93 -335 184 -233 117 -308 150
-355 157 -37 5 -137 41 -265 95 -118 50 -226 89 -254 92 l-49 6 6 -74 c11
-130 71 -279 176 -436 85 -127 269 -326 337 -365 43 -24 54 -35 52 -52 -3 -20
-8 -21 -108 -21 -58 1 -129 6 -159 13 -86 19 -309 15 -405 -7 -176 -42 -261
-37 -286 17 -19 40 -25 201 -11 290 33 205 94 352 216 522 86 119 90 141 36
177 -112 75 -680 186 -1376 268 -136 16 -242 19 -269 9 -67 -26 81 -291 264
-474 88 -87 177 -147 264 -178 178 -62 236 -96 210 -122 -7 -7 -88 -12 -215
-14 -243 -4 -295 -14 -508 -106 -78 -33 -148 -60 -156 -60 -44 0 -96 192 -101
370 -3 118 -2 127 26 190 16 36 33 85 39 110 20 87 43 260 37 275 -15 41 -127
52 -386 38z m-876 -362 c103 -85 197 -143 361 -223 109 -53 145 -75 145 -89 0
-25 -45 -46 -134 -63 -90 -18 -175 -59 -254 -125 -122 -102 -153 -110 -201
-56 -72 82 -102 194 -100 369 2 193 20 246 82 246 22 0 49 -16 101 -59z m938
-1011 c92 -6 218 -17 280 -25 62 -8 221 -28 353 -45 132 -16 287 -42 344 -56
183 -45 660 -214 1061 -373 193 -77 468 -217 492 -251 10 -14 43 -81 73 -149
48 -106 66 -135 130 -205 41 -44 75 -89 75 -98 0 -40 -108 -35 -223 11 -92 37
-168 59 -395 116 -173 44 -193 47 -335 49 -140 2 -160 5 -252 35 -250 80 -451
79 -660 -4 -123 -49 -286 -153 -330 -211 -59 -77 -83 -185 -52 -229 18 -24 30
-15 57 40 31 64 99 120 215 175 149 72 207 84 417 84 163 1 179 -1 204 -20 15
-11 29 -25 32 -32 5 -17 -52 -48 -143 -79 -97 -32 -135 -65 -135 -118 0 -64
23 -61 215 28 106 49 113 51 215 55 81 3 109 0 124 -11 32 -24 14 -61 -48
-101 -61 -39 -76 -60 -76 -105 0 -39 13 -39 58 0 61 54 127 79 210 79 240 0
537 -168 625 -353 29 -62 48 -80 79 -75 22 3 23 7 23 83 -1 146 -59 225 -236
320 -109 59 -169 111 -169 147 0 42 22 52 100 44 101 -9 187 -41 308 -113 116
-69 224 -109 325 -119 121 -12 205 36 307 177 55 76 80 91 122 77 36 -13 296
-246 402 -360 177 -193 340 -417 464 -643 82 -148 228 -468 292 -640 89 -238
163 -569 206 -920 21 -174 30 -614 15 -725 -14 -103 -69 -352 -106 -475 -21
-71 -28 -123 -35 -245 -10 -190 -31 -286 -115 -536 -64 -191 -124 -329 -276
-644 -154 -317 -325 -536 -726 -930 -277 -274 -305 -289 -628 -336 -99 -14
-216 -37 -260 -50 -112 -34 -351 -86 -405 -88 -73 -2 -66 22 37 127 168 172
233 301 233 462 0 108 -40 240 -101 330 -31 46 -87 82 -114 71 -23 -9 -16 -71
21 -181 20 -61 28 -106 31 -190 l5 -110 -51 -88 c-100 -173 -160 -239 -257
-284 -73 -33 -90 -29 -86 22 7 97 4 203 -7 241 -13 47 -43 79 -66 71 -12 -5
-15 -26 -15 -115 0 -141 -17 -199 -77 -263 -43 -46 -49 -49 -96 -49 -49 0 -53
-2 -106 -60 -89 -94 -122 -99 -341 -45 -103 26 -162 35 -205 33 -56 -3 -60 -4
-60 -28 0 -34 53 -61 194 -100 123 -33 161 -51 161 -75 0 -44 -119 -56 -562
-58 -419 -2 -381 -6 -638 63 -46 13 -98 20 -135 18 -54 -3 -60 -5 -63 -26 -5
-33 22 -59 108 -102 161 -81 357 -130 521 -130 48 0 121 -7 161 -16 116 -24
344 4 763 95 127 27 291 61 365 76 74 14 217 48 317 76 100 27 211 52 245 55
55 5 67 3 91 -16 15 -12 27 -27 27 -35 0 -20 -55 -62 -91 -70 -18 -4 -62 -21
-98 -37 -36 -17 -124 -52 -196 -78 -71 -27 -174 -67 -227 -89 -156 -64 -515
-144 -798 -177 -236 -27 -688 -1 -760 44 -22 14 -51 22 -80 22 -191 1 -548
112 -854 267 -326 164 -476 270 -701 497 -437 440 -635 868 -635 1376 0 259
64 528 180 761 63 125 91 167 185 279 40 47 107 131 149 188 173 230 262 321
375 380 31 17 124 51 206 77 139 43 155 46 220 40 227 -21 463 -109 581 -218
112 -102 166 -280 168 -552 0 -88 -5 -181 -13 -225 -45 -249 -162 -470 -355
-668 -113 -117 -116 -132 -20 -112 86 18 202 65 255 104 60 44 163 197 185
274 9 31 34 101 55 154 25 60 41 120 45 160 3 35 12 94 21 131 12 53 14 103
10 220 -6 172 -19 232 -91 425 -74 199 -62 293 37 277 139 -24 208 -122 271
-387 19 -81 42 -163 51 -184 29 -69 15 -383 -26 -589 -38 -189 -135 -444 -222
-581 -32 -52 -67 -87 -206 -209 -113 -99 -191 -185 -191 -210 0 -31 25 -34 96
-13 154 46 280 125 404 254 214 222 335 496 380 854 14 119 13 299 -4 378 -8
37 -20 105 -27 152 -6 47 -34 165 -60 263 -54 197 -59 247 -29 277 39 39 125
39 179 0 74 -52 169 -274 214 -501 42 -205 50 -306 44 -503 -13 -436 -110
-773 -290 -1016 -23 -30 -123 -141 -224 -248 -101 -106 -183 -197 -183 -201 0
-22 33 -33 88 -29 50 3 75 14 168 67 249 144 331 235 464 515 172 360 240 721
211 1120 -18 240 -53 394 -106 466 -14 19 -25 41 -25 49 0 8 -34 85 -75 171
-80 166 -107 260 -87 305 6 14 30 34 53 46 91 46 201 6 290 -104 53 -66 141
-239 194 -381 72 -194 147 -542 176 -811 12 -115 6 -339 -11 -410 -5 -22 -10
-79 -10 -126 0 -96 -15 -163 -84 -374 -25 -77 -51 -162 -57 -190 -15 -64 -101
-246 -172 -367 -83 -141 -169 -252 -275 -355 -104 -101 -105 -110 -12 -101 97
10 241 124 392 312 147 182 253 361 311 523 58 161 109 359 116 448 5 63 13
99 27 120 18 27 19 48 18 280 -1 606 -101 1044 -311 1359 -79 119 -251 300
-319 337 -60 32 -74 57 -74 135 0 119 -37 243 -75 258 -9 3 -35 6 -57 6 -46 0
-83 -32 -130 -113 -22 -38 -33 -47 -54 -47 -40 0 -62 25 -81 93 -13 46 -23 63
-47 78 -38 23 -58 24 -97 3 -39 -20 -63 -75 -79 -176 -19 -115 -49 -128 -94
-41 -24 47 -76 103 -125 136 -18 12 -29 13 -43 6 -30 -16 -98 -128 -98 -161 0
-42 -17 -68 -45 -68 -19 0 -31 13 -60 65 -41 73 -66 95 -107 95 -44 0 -64 -29
-78 -111 -15 -91 -24 -109 -54 -109 -54 0 -221 139 -214 178 5 31 252 246 328
286 81 43 209 81 360 107 91 16 153 19 300 17 171 -2 194 0 300 25 165 40 224
71 304 163 37 42 66 84 64 93 -5 27 -131 27 -236 -1 -94 -24 -201 -27 -607
-18 -179 5 -195 4 -265 -19 -174 -54 -315 -141 -525 -321 -152 -131 -206 -170
-234 -170 -33 0 -28 67 10 142 81 161 31 302 -133 378 -127 59 -249 43 -347
-46 -70 -62 -96 -117 -96 -199 0 -116 29 -167 146 -256 59 -45 79 -66 79 -83
0 -40 -26 -51 -114 -51 -102 1 -166 28 -252 108 -74 69 -110 132 -126 225 -30
177 50 340 222 451 180 116 396 116 570 -1 88 -58 131 -127 191 -300 18 -54
37 -98 42 -98 5 0 46 31 91 69 271 230 449 303 821 340 194 19 315 64 435 160
46 37 72 51 90 49 22 -3 25 -7 23 -43 -1 -22 -4 -54 -8 -72 -6 -26 -3 -33 14
-43 12 -6 26 -8 32 -5 5 4 34 45 64 91 64 98 93 114 131 71 12 -14 30 -52 39
-84 24 -81 42 -113 65 -113 28 0 50 50 50 112 0 57 14 94 42 112 25 15 55 -17
94 -102 51 -109 82 -109 95 -1 5 41 14 68 27 82 l20 20 27 -29 c15 -16 45 -66
67 -112 31 -65 58 -103 131 -178 50 -53 117 -113 147 -134 79 -53 274 -156
425 -224 235 -105 293 -134 355 -176 88 -59 187 -156 200 -194 5 -17 30 -52
55 -76 78 -77 139 -272 139 -447 l0 -112 -32 -34 c-24 -25 -35 -48 -43 -92
-14 -78 -45 -130 -116 -195 -159 -145 -271 -195 -421 -188 -103 5 -184 37
-283 114 -70 54 -87 83 -71 118 9 21 18 24 95 28 148 8 216 70 217 199 0 166
-114 278 -295 287 -75 4 -87 2 -132 -22 -97 -53 -147 -164 -147 -326 1 -90 4
-115 27 -174 66 -169 222 -317 395 -376 141 -47 317 -46 494 1 183 49 311 173
422 411 82 174 106 275 108 463 0 93 -2 108 -41 219 -84 238 -144 339 -274
463 -133 125 -250 201 -512 332 -132 66 -282 148 -334 183 -276 183 -462 455
-464 679 -1 63 4 86 26 132 47 95 139 165 281 212 110 37 202 37 281 1 31 -14
74 -26 95 -26 32 0 44 -8 98 -64 34 -35 62 -71 62 -78 0 -25 -23 -38 -69 -38
-63 0 -158 -24 -190 -47 -39 -29 -61 -80 -61 -144 0 -109 61 -220 131 -239 44
-12 115 -5 169 17 113 46 188 208 177 386 -4 76 -10 99 -41 162 -74 150 -212
230 -481 280 -203 38 -310 -4 -539 -214 -49 -44 -96 -81 -105 -81 -9 0 -35 31
-60 71 -58 94 -147 188 -212 224 -73 40 -180 46 -260 16 -118 -45 -179 -129
-179 -248 0 -83 27 -143 83 -184 53 -39 94 -44 205 -29 113 15 127 9 97 -46
-21 -40 -77 -76 -156 -101 -42 -14 -90 -18 -214 -18 l-160 0 -69 35 c-60 30
-73 42 -100 90 -27 49 -31 64 -31 135 0 67 4 87 25 125 29 52 94 99 178 129
84 30 126 54 130 73 5 24 -49 80 -109 112 -128 70 -335 26 -470 -101 -66 -62
-93 -122 -133 -298 -19 -82 -48 -193 -65 -246 -27 -85 -38 -104 -96 -170 -128
-146 -252 -227 -380 -250 -75 -13 -115 -3 -115 30 0 18 48 67 123 124 20 15
49 49 64 75 26 43 28 55 28 152 0 88 -4 113 -23 155 -65 140 -220 214 -381
181 -120 -25 -198 -86 -247 -190 -34 -73 -31 -132 11 -236 41 -101 43 -118 11
-126 -107 -27 -264 146 -274 302 -10 153 107 344 250 409 151 68 422 54 589
-31 110 -55 169 -139 189 -269 17 -106 19 -115 34 -115 8 0 27 15 42 33 108
128 123 374 33 556 -78 157 -177 232 -429 324 -216 79 -263 84 -518 63 -231
-20 -318 -20 -373 0 -24 8 -78 19 -119 25 -93 11 -173 49 -265 123 -38 31 -89
65 -112 76 -61 29 -134 134 -174 253 -17 50 -20 74 -14 127 14 128 13 133 -17
144 -23 8 -32 6 -53 -14 -36 -34 -45 -78 -45 -225 0 -155 16 -230 68 -329 63
-121 247 -296 430 -408 83 -52 97 -73 67 -98 -20 -17 -125 -8 -230 20 -266 71
-588 232 -810 405 -101 78 -138 119 -221 245 -37 55 -73 100 -80 100 -22 0
-26 -41 -9 -100 9 -30 20 -72 24 -93 12 -55 50 -104 221 -284 l155 -164 190
-93 c105 -51 208 -99 230 -106 63 -22 72 -35 41 -55 -23 -15 -44 -17 -144 -13
-143 7 -306 40 -583 118 -230 66 -265 78 -429 154 -135 63 -195 79 -300 79
-94 0 -145 -16 -188 -56 -56 -54 -65 -152 -22 -237 55 -107 168 -145 469 -160
148 -7 198 -12 209 -24 41 -41 -27 -74 -229 -115 -285 -57 -480 -123 -644
-218 -145 -83 -209 -143 -261 -245 -57 -111 -68 -275 -26 -370 26 -59 89 -113
153 -132 107 -32 161 -16 251 76 36 38 80 73 97 79 23 8 39 25 58 63 55 110
232 294 408 425 259 193 487 291 684 295 80 1 86 0 86 -19 0 -15 -22 -31 -90
-66 -121 -63 -162 -114 -120 -149 28 -23 141 -5 218 35 37 19 97 51 135 70 91
47 194 63 305 47 149 -22 245 -84 408 -265 71 -80 89 -106 87 -126 -3 -22 -8
-26 -42 -29 -22 -2 -78 7 -125 20 -123 32 -327 32 -421 -1 -100 -35 -263 -122
-415 -221 -75 -50 -153 -99 -173 -109 -51 -26 -250 -88 -325 -102 -75 -13 -97
-24 -97 -49 0 -45 21 -50 203 -50 95 1 192 5 216 9 50 10 67 6 76 -17 9 -23
-9 -35 -115 -77 -77 -31 -109 -39 -170 -40 -49 -2 -96 -10 -135 -25 -120 -45
-172 -53 -305 -46 -69 3 -137 8 -152 12 -20 5 -29 1 -38 -16 -15 -28 -2 -44
62 -76 122 -62 325 -76 492 -35 99 25 129 24 134 -2 10 -52 -79 -106 -248
-152 -52 -14 -210 -48 -350 -75 -275 -53 -315 -64 -324 -86 -23 -60 334 -92
504 -45 224 62 273 72 284 61 16 -17 -8 -34 -222 -156 -221 -126 -348 -208
-362 -233 -14 -28 8 -41 70 -41 46 0 65 6 101 29 48 32 231 104 291 115 22 4
39 2 43 -4 14 -23 -361 -607 -406 -631 -67 -36 -313 114 -494 302 -215 222
-340 479 -234 479 11 0 77 -29 148 -65 213 -106 331 -136 463 -115 74 11 108
30 108 60 0 30 -23 40 -92 40 -193 0 -473 176 -615 385 -133 198 -174 386
-137 630 12 73 18 159 16 219 -3 113 -2 117 95 411 168 513 331 821 576 1085
38 41 83 99 99 128 30 52 213 227 363 347 76 61 419 267 570 344 352 178 425
209 620 261 712 190 971 241 1325 259 215 12 231 12 412 1z m-4435 -3222 c6
-7 13 -49 17 -93 14 -156 40 -231 96 -278 56 -48 133 -55 202 -21 55 28 88 9
88 -51 0 -69 -99 -172 -192 -199 -66 -20 -167 -4 -255 39 -121 60 -183 152
-191 288 -6 108 12 150 106 249 74 78 107 94 129 66z m2638 -633 c192 -41 287
-148 316 -353 20 -141 -10 -237 -110 -362 -140 -174 -307 -242 -527 -212 -154
20 -264 87 -348 209 -81 119 -122 286 -115 468 4 74 7 88 29 109 14 14 36 27
50 28 l25 3 0 -135 c1 -79 6 -154 14 -180 21 -75 73 -162 129 -217 152 -149
360 -164 501 -37 123 110 143 288 47 401 -73 84 -178 106 -300 62 -51 -18 -70
-21 -84 -13 -36 23 -26 118 18 162 75 75 202 99 355 67z m-2294 -385 c4 -8 19
-42 34 -74 48 -112 312 -355 468 -431 81 -39 157 -61 266 -74 41 -5 78 -15 82
-23 5 -7 16 -35 25 -63 30 -92 92 -210 130 -249 48 -49 101 -73 195 -86 138
-20 263 12 351 89 59 51 75 42 103 -54 26 -92 57 -140 111 -165 42 -21 56 -22
165 -17 141 6 152 1 128 -66 -27 -80 -130 -122 -299 -122 -124 0 -162 14 -225
84 -104 116 -111 121 -150 121 -21 0 -62 -11 -90 -25 -73 -34 -118 -39 -203
-21 -77 16 -124 40 -182 92 -62 56 -111 84 -146 84 -43 0 -60 -26 -69 -103 -9
-75 -39 -113 -79 -103 -49 12 -300 264 -409 411 -57 76 -107 163 -107 185 0 5
-27 65 -60 133 -32 67 -69 156 -80 197 -26 94 -38 247 -21 279 14 25 49 26 62
1z m-251 -109 c5 -11 10 -45 10 -76 0 -31 8 -86 17 -123 21 -84 207 -459 262
-527 22 -27 52 -71 65 -96 14 -25 49 -68 78 -94 64 -58 253 -183 367 -245 51
-27 86 -53 92 -67 10 -26 -3 -111 -31 -208 -32 -107 -50 -201 -50 -254 0 -63
29 -106 100 -148 53 -32 57 -33 185 -35 184 -3 209 -1 261 24 64 30 155 116
204 194 31 50 46 64 64 64 32 0 34 -9 28 -110 -5 -92 6 -131 55 -203 38 -55
132 -113 232 -144 47 -14 90 -29 95 -34 5 -4 6 -19 2 -34 -15 -59 -202 -111
-441 -122 -210 -9 -461 37 -624 116 -58 28 -98 41 -127 41 l-42 0 -7 -50 c-16
-119 17 -430 70 -661 29 -126 45 -207 71 -375 2 -17 15 -43 29 -58 21 -22 32
-26 83 -26 32 0 81 7 108 15 27 8 66 15 87 15 48 0 207 80 289 145 67 52 112
125 129 205 20 98 49 178 66 184 27 11 66 -37 101 -122 38 -94 69 -136 141
-194 83 -68 118 -85 207 -104 77 -16 88 -16 138 -1 62 17 80 8 74 -35 -6 -43
-207 -171 -328 -209 -124 -39 -411 -43 -660 -10 -114 16 -195 14 -210 -4 -22
-27 -5 -113 44 -217 25 -54 73 -164 106 -245 90 -216 160 -355 234 -467 53
-80 64 -102 55 -117 -12 -23 -16 -23 -87 -3 -197 57 -482 193 -692 332 -296
194 -547 433 -776 738 -95 127 -234 340 -234 360 0 7 -9 22 -21 33 -54 50
-290 494 -394 741 -74 177 -167 456 -199 600 -30 138 -41 242 -56 535 -17 332
3 490 88 716 80 210 114 266 147 239 23 -19 19 -63 -21 -216 l-35 -139 -2
-280 c-1 -324 3 -356 78 -682 53 -227 55 -235 151 -440 137 -295 179 -377 239
-468 99 -148 238 -289 387 -392 57 -39 70 -44 83 -33 8 7 15 18 15 25 0 21
-41 65 -61 65 -12 0 -19 7 -19 20 0 23 -36 81 -98 158 -23 29 -55 79 -71 110
-16 31 -56 99 -90 150 -98 149 -154 267 -228 477 -19 55 -52 140 -73 190 -29
66 -42 115 -50 185 -15 119 -33 208 -60 284 -18 54 -20 83 -20 349 l0 290 31
106 c16 58 44 137 61 174 26 55 35 67 52 65 19 -3 21 -11 23 -68 12 -307 60
-583 132 -759 17 -41 31 -85 31 -98 0 -17 18 -42 55 -78 40 -38 55 -60 55 -79
0 -58 141 -295 233 -394 29 -30 88 -78 132 -107 44 -28 102 -71 130 -95 58
-50 100 -70 150 -70 62 0 54 23 -37 114 -235 233 -396 490 -553 881 -59 147
-87 247 -109 385 -9 52 -22 119 -30 148 -11 42 -13 79 -6 177 11 151 25 185
75 185 24 0 37 -6 45 -19z m2385 -3776 c113 -100 168 -131 267 -146 91 -14
162 -7 277 27 109 33 126 29 117 -27 -10 -60 -38 -109 -94 -161 -160 -149
-479 -276 -867 -343 -117 -20 -285 -31 -285 -18 0 12 109 100 183 147 75 47
118 95 155 171 39 80 48 115 67 269 9 71 20 137 26 148 19 36 55 21 154 -67z"/>
</g>
</svg>
