<?xml version="1.0" standalone="no"?>
<!DOCTYPE svg PUBLIC "-//W3C//DTD SVG 20010904//EN"
 "http://www.w3.org/TR/2001/REC-SVG-20010904/DTD/svg10.dtd">
<svg version="1.0" xmlns="http://www.w3.org/2000/svg"
 width="1280.000000pt" height="1125.000000pt" viewBox="0 0 1280.000000 1125.000000"
 preserveAspectRatio="xMidYMid meet">
<metadata>
Created by potrace 1.15, written by Peter Selinger 2001-2017
</metadata>
<g transform="translate(0.000000,1125.000000) scale(0.100000,-0.100000)"
fill="#000000" stroke="none">
<path d="M6295 11027 c-369 -803 -921 -2182 -1336 -3336 l-84 -233 -165 6
c-415 15 -2093 18 -3300 6 -707 -7 -1311 -15 -1342 -19 l-57 -6 310 -249 c412
-331 852 -640 1652 -1160 793 -515 1771 -1112 2172 -1325 l80 -43 -90 88
c-338 330 -1382 1216 -2222 1888 -150 120 -273 218 -273 219 0 2 404 1 897 -2
738 -3 2556 14 2613 25 8 1 38 3 65 3 l51 1 42 113 c49 131 76 216 182 587
228 797 434 1572 595 2237 143 594 314 1377 303 1389 -3 2 -44 -83 -93 -189z"/>
<path d="M6416 11175 c109 -703 867 -3634 1093 -4227 l22 -57 92 -3 c51 -2
184 -5 297 -7 113 -2 369 -7 570 -11 201 -4 883 -7 1517 -6 845 1 1149 -2
1140 -10 -7 -6 -91 -73 -187 -149 -733 -580 -1724 -1416 -2210 -1865 -63 -59
-130 -119 -148 -135 -17 -16 -30 -30 -28 -33 14 -14 937 532 1563 924 1061
666 1824 1186 2333 1594 173 138 316 256 318 260 2 5 -90 9 -205 9 -114 1
-651 6 -1193 12 -944 11 -2870 7 -3281 -7 l-186 -7 -38 104 c-528 1448 -1013
2662 -1388 3476 -83 179 -89 191 -81 138z"/>
<path d="M4137 4378 c-365 -854 -1008 -2512 -1302 -3358 -88 -256 -136 -413
-201 -668 -47 -184 -83 -336 -81 -338 6 -6 428 280 827 561 173 122 441 309
595 415 660 456 1389 971 2024 1428 216 156 399 281 406 278 7 -2 165 -114
351 -248 656 -472 1433 -1020 2074 -1463 190 -131 487 -338 660 -460 353 -248
750 -518 755 -513 2 2 -34 149 -80 328 -123 486 -338 1094 -890 2515 -280 723
-714 1777 -715 1740 -1 -50 259 -1112 451 -1840 101 -381 261 -973 362 -1333
29 -105 51 -192 48 -192 -3 0 -127 94 -276 207 -582 445 -1555 1171 -2290
1708 -187 136 -366 268 -397 292 l-58 44 -337 -247 c-984 -721 -1703 -1256
-2342 -1743 -189 -144 -344 -261 -346 -259 -2 2 13 57 31 123 298 1053 654
2436 829 3223 3 12 4 22 1 22 -2 0 -47 -100 -99 -222z"/>
</g>
</svg>
