<?xml version="1.0" standalone="no"?>
<!DOCTYPE svg PUBLIC "-//W3C//DTD SVG 20010904//EN"
 "http://www.w3.org/TR/2001/REC-SVG-20010904/DTD/svg10.dtd">
<svg version="1.0" xmlns="http://www.w3.org/2000/svg"
 width="1151.000000pt" height="1280.000000pt" viewBox="0 0 1151.000000 1280.000000"
 preserveAspectRatio="xMidYMid meet">
<metadata>
Created by potrace 1.15, written by Peter Selinger 2001-2017
</metadata>
<g transform="translate(0.000000,1280.000000) scale(0.100000,-0.100000)"
fill="#000000" stroke="none">
<path d="M4490 10662 c0 -4 63 -70 141 -147 331 -329 473 -550 547 -852 20
-82 40 -142 46 -140 14 5 41 87 62 187 13 67 16 114 11 220 -7 151 -22 221
-68 313 -57 113 -252 285 -394 348 -101 45 -345 95 -345 71z"/>
<path d="M6828 10640 c-59 -16 -127 -38 -152 -49 -85 -37 -191 -114 -277 -200
-137 -137 -176 -233 -186 -461 -5 -106 -2 -153 11 -220 31 -152 67 -228 80
-168 52 239 83 325 167 474 81 142 181 266 371 460 98 99 178 184 178 187 0
15 -90 3 -192 -23z"/>
<path d="M5745 10351 c-3 -7 -17 -72 -31 -145 -59 -326 -205 -621 -450 -905
-198 -231 -405 -376 -749 -527 -237 -104 -446 -178 -1035 -369 -223 -72 -527
-228 -745 -383 -212 -151 -473 -458 -593 -698 -93 -185 -172 -427 -212 -645
-23 -128 -22 -179 5 -179 8 0 22 15 31 33 83 164 384 503 584 656 302 233 584
385 1140 617 168 69 331 140 364 156 32 16 60 28 61 26 2 -2 0 -21 -5 -43 -8
-37 1 -75 19 -75 7 0 128 40 164 55 28 12 20 27 -53 100 -38 38 -70 72 -70 75
0 3 65 4 145 2 170 -4 164 -10 115 113 -16 42 -30 80 -30 85 0 6 48 10 118 10
64 0 123 4 131 9 13 8 12 24 -2 117 -9 60 -14 110 -12 112 2 2 40 -10 85 -28
116 -44 128 -41 162 42 40 101 143 248 174 248 6 0 46 -27 89 -60 43 -33 86
-60 97 -60 14 0 32 28 74 113 30 61 58 113 62 114 4 2 25 -25 47 -60 22 -34
72 -95 110 -136 68 -71 196 -171 220 -171 24 0 152 100 220 171 39 41 88 102
110 136 22 35 43 62 47 60 4 -1 32 -53 62 -114 41 -83 60 -113 74 -113 10 0
53 27 96 60 43 33 84 60 90 60 31 0 134 -147 174 -248 34 -83 46 -86 162 -42
45 18 83 30 86 28 2 -3 -3 -43 -11 -89 -19 -108 -19 -135 1 -143 9 -3 67 -6
130 -6 67 0 114 -4 114 -10 0 -5 -13 -43 -30 -85 -49 -123 -55 -117 115 -113
80 2 145 1 145 -2 0 -3 -31 -37 -70 -75 -73 -73 -81 -88 -52 -100 35 -15 156
-55 163 -55 18 0 27 38 19 75 -5 22 -7 41 -5 43 1 2 29 -10 61 -26 33 -16 196
-87 364 -156 549 -229 830 -380 1125 -605 209 -160 513 -499 599 -668 9 -18
23 -33 31 -33 26 0 28 51 6 174 -40 218 -121 466 -213 651 -120 238 -381 546
-593 697 -217 154 -523 312 -746 384 -590 191 -797 264 -1034 368 -344 151
-551 296 -749 527 -245 285 -391 579 -451 907 -24 132 -35 166 -50 143z"/>
<path d="M4075 10194 c-82 -20 -203 -81 -307 -156 -127 -92 -129 -114 -8 -92
41 7 104 13 140 14 123 0 325 -39 467 -91 82 -30 341 -156 448 -217 49 -29 93
-52 97 -52 47 0 -140 291 -258 400 -193 180 -380 242 -579 194z"/>
<path d="M7180 10196 c-106 -30 -214 -94 -319 -192 -124 -115 -313 -404 -263
-404 4 0 43 21 87 46 324 186 572 279 818 306 102 11 235 4 315 -18 17 -5 22
-2 22 13 0 26 -155 139 -265 193 -134 66 -283 87 -395 56z"/>
<path d="M3785 9845 c-131 -29 -275 -102 -395 -200 -76 -62 -279 -269 -341
-347 -67 -85 -42 -88 132 -17 136 55 347 121 449 140 36 7 126 12 200 12 120
1 149 -3 256 -31 220 -57 496 -63 664 -15 76 22 230 81 258 99 35 23 12 44
-47 44 -52 0 -168 21 -251 45 -125 37 -184 62 -372 155 -128 64 -221 104 -267
114 -83 19 -203 19 -286 1z"/>
<path d="M7435 9845 c-33 -8 -150 -59 -260 -114 -191 -94 -251 -119 -375 -156
-83 -24 -199 -45 -251 -45 -59 0 -82 -21 -47 -44 28 -18 182 -77 258 -99 168
-48 444 -42 664 15 104 27 139 31 246 32 69 0 159 -6 200 -12 104 -17 311 -81
459 -141 224 -92 221 -69 -22 185 -195 203 -328 298 -501 356 -111 37 -272 47
-371 23z"/>
<path d="M5069 9415 c-92 -71 -161 -106 -269 -139 -204 -61 -429 -75 -932 -57
-456 17 -630 -1 -853 -88 -112 -43 -196 -100 -296 -201 -139 -140 -238 -308
-308 -515 -39 -116 -72 -268 -62 -278 11 -11 47 8 154 77 169 110 465 252 672
323 229 78 523 156 745 197 263 49 460 110 635 195 151 74 316 183 406 268 77
73 201 226 203 250 2 31 -23 23 -95 -32z"/>
<path d="M6345 9460 c-7 -11 13 -43 91 -140 75 -95 170 -180 291 -260 245
-163 497 -258 863 -326 231 -43 508 -117 745 -197 215 -74 483 -203 696 -337
62 -38 116 -70 120 -70 18 0 18 23 -2 107 -71 300 -182 515 -358 693 -100 101
-184 158 -296 201 -223 87 -397 105 -853 88 -711 -26 -964 15 -1200 195 -76
58 -87 63 -97 46z"/>
<path d="M4715 7858 c-22 -16 -104 -68 -182 -116 -79 -47 -143 -91 -143 -98 0
-16 57 -64 76 -64 7 0 31 7 53 16 58 23 83 16 94 -26 12 -47 31 -67 102 -103
84 -42 107 -48 215 -56 l95 -6 3 -30 c2 -16 -1 -54 -8 -84 -16 -70 -6 -79 55
-52 26 12 50 21 53 21 12 0 -9 -231 -28 -310 -12 -46 -48 -171 -82 -278 -46
-145 -58 -196 -49 -205 16 -16 22 -6 79 128 93 218 163 425 182 535 40 228 41
241 24 362 -26 191 -50 216 -254 265 -23 6 -39 18 -48 36 -7 15 -17 27 -22 27
-4 0 -36 -23 -70 -51 -33 -28 -63 -49 -65 -47 -3 3 17 24 45 47 27 23 50 46
50 51 0 10 -80 53 -115 63 -13 3 -34 -5 -60 -25z"/>
<path d="M6688 7859 c-32 -16 -58 -33 -58 -38 0 -5 24 -30 53 -55 28 -25 48
-46 42 -46 -5 0 -36 23 -68 50 -32 28 -63 50 -67 50 -5 0 -15 -12 -22 -27 -10
-20 -24 -30 -53 -37 -146 -33 -195 -60 -222 -123 -7 -19 -20 -81 -28 -139 -14
-95 -14 -119 1 -233 8 -69 26 -166 39 -216 41 -156 212 -585 234 -585 24 0 18
31 -39 212 -34 106 -70 229 -81 273 -18 74 -39 315 -27 315 3 0 27 -9 53 -21
26 -11 51 -17 55 -12 5 4 4 29 -1 55 -6 25 -9 64 -7 85 l3 38 90 6 c98 6 142
18 225 59 68 34 86 54 95 103 8 43 24 46 97 21 41 -14 50 -14 75 0 43 22 58
43 44 60 -7 8 -55 40 -109 72 -53 31 -130 79 -170 106 -39 27 -78 51 -85 53
-6 2 -38 -9 -69 -26z"/>
<path d="M3890 7751 c-14 -10 -142 -79 -285 -153 -391 -203 -710 -403 -918
-576 -187 -155 -383 -424 -456 -628 -140 -386 -159 -849 -56 -1363 20 -95 38
-177 41 -182 11 -18 44 -9 48 14 3 12 12 58 21 102 60 306 271 706 536 1015
200 235 370 389 795 727 181 143 362 295 401 336 82 85 143 196 151 277 4 44
1 52 -36 99 -49 61 -113 177 -137 246 -35 102 -37 105 -59 105 -11 0 -32 -9
-46 -19z"/>
<path d="M7542 7743 c-5 -16 -18 -50 -27 -78 -24 -69 -88 -185 -137 -246 -37
-48 -40 -55 -36 -101 3 -29 21 -81 46 -132 55 -110 137 -188 502 -476 365
-288 454 -365 627 -543 390 -403 626 -807 713 -1219 10 -48 21 -92 25 -97 8
-13 32 -14 39 -2 3 5 21 87 41 182 103 516 84 976 -56 1363 -91 251 -323 540
-584 728 -265 190 -468 311 -830 498 -121 62 -232 121 -247 131 -38 27 -64 24
-76 -8z"/>
<path d="M3777 6601 c-629 -519 -767 -665 -912 -966 -123 -255 -174 -511 -161
-815 16 -402 117 -770 328 -1195 72 -144 243 -440 260 -451 27 -17 33 23 40
284 6 272 15 352 63 593 109 544 356 1068 691 1465 32 38 110 128 174 199 183
206 233 272 232 305 -1 31 -134 311 -157 330 -40 33 -129 -19 -326 -191 -487
-422 -791 -985 -910 -1684 l-19 -110 6 184 c6 232 31 381 94 571 161 489 440
876 919 1276 52 44 99 86 104 96 8 12 2 35 -25 95 -20 43 -46 107 -58 143 -22
61 -45 100 -59 100 -3 -1 -131 -104 -284 -229z"/>
<path d="M7428 6813 c-8 -10 -25 -47 -38 -83 -12 -36 -38 -100 -58 -143 -27
-60 -33 -83 -25 -95 5 -10 52 -52 104 -95 445 -371 725 -744 887 -1182 89
-241 119 -395 126 -666 l6 -184 -15 85 c-48 278 -91 442 -171 642 -172 435
-411 780 -743 1067 -197 172 -286 224 -326 191 -25 -21 -155 -297 -155 -331 0
-40 16 -59 340 -429 429 -489 687 -1059 795 -1760 10 -63 19 -212 24 -372 7
-276 13 -311 45 -278 29 30 181 300 260 460 211 428 307 782 323 1185 17 449
-123 857 -405 1181 -86 99 -318 306 -624 557 -128 105 -253 208 -277 229 -50
44 -53 44 -73 21z"/>
<path d="M5090 6249 c0 -60 52 -163 100 -198 22 -16 92 -52 157 -80 187 -83
316 -147 340 -167 20 -18 22 -29 25 -156 2 -159 9 -144 -122 -251 -101 -82
-201 -128 -288 -134 -57 -4 -81 0 -156 26 -49 17 -93 31 -98 31 -17 0 -38 -70
-38 -127 0 -72 32 -145 84 -191 20 -17 40 -32 44 -32 5 0 24 16 43 36 47 49
181 150 238 178 105 54 186 71 336 71 150 0 231 -17 336 -71 57 -28 191 -129
238 -178 19 -20 38 -36 43 -36 4 0 24 15 44 32 52 46 84 119 84 191 0 57 -21
127 -38 127 -5 0 -49 -14 -98 -31 -75 -26 -99 -30 -156 -26 -87 6 -187 52
-288 134 -130 106 -123 91 -121 250 2 129 3 139 24 157 24 20 154 84 340 167
157 69 188 93 226 172 33 68 42 147 18 147 -7 0 -37 -19 -67 -41 -73 -55 -86
-59 -191 -59 -74 0 -100 -4 -143 -24 -91 -42 -155 -56 -251 -56 -96 0 -160 14
-251 56 -43 20 -69 24 -143 24 -105 0 -118 4 -191 59 -69 52 -80 52 -80 0z"/>
<path d="M4710 6137 c0 -55 121 -177 227 -229 55 -27 80 -33 152 -36 99 -4
154 9 130 33 -8 8 -59 26 -113 40 -112 28 -193 72 -294 160 -68 60 -102 70
-102 32z"/>
<path d="M4620 6089 c0 -40 80 -186 136 -248 40 -44 75 -71 128 -97 65 -32 82
-36 152 -36 44 -1 121 5 172 12 61 9 138 11 223 7 120 -6 129 -5 129 12 0 22
-22 42 -75 69 -66 33 -145 43 -233 31 -42 -6 -120 -12 -172 -12 -84 -1 -102 2
-155 26 -67 31 -118 77 -207 185 -61 74 -98 93 -98 51z"/>
<path d="M4535 5812 c-13 -9 -170 -191 -260 -302 -281 -347 -495 -855 -569
-1357 -17 -112 -36 -407 -36 -555 0 -281 73 -644 176 -878 61 -139 159 -280
195 -280 24 0 24 3 -5 132 -94 416 -41 948 145 1444 133 354 299 664 576 1073
69 101 121 187 116 191 -4 4 -44 34 -89 67 -147 111 -176 160 -203 334 -18
120 -27 145 -46 131z"/>
<path d="M6950 5800 c-5 -10 -10 -30 -10 -43 0 -52 -31 -200 -50 -237 -30 -58
-74 -105 -164 -173 -45 -33 -85 -63 -89 -67 -4 -4 48 -90 116 -191 281 -415
444 -720 576 -1073 186 -496 239 -1028 145 -1444 -29 -129 -29 -132 -5 -132
40 0 149 164 210 316 80 199 129 416 152 672 15 163 1 549 -26 725 -70 460
-249 914 -492 1254 -68 96 -322 399 -340 407 -7 3 -17 -3 -23 -14z"/>
<path d="M6128 5604 c-20 -20 -5 -42 45 -66 136 -67 215 -72 326 -23 71 32
100 60 83 77 -9 9 -26 9 -70 0 -67 -14 -196 -15 -262 -2 -25 4 -61 11 -80 15
-19 4 -38 3 -42 -1z"/>
<path d="M4768 4793 c-254 -425 -409 -793 -463 -1098 -22 -123 -31 -471 -16
-605 14 -121 52 -299 88 -415 62 -197 281 -551 336 -543 19 3 20 8 16 73 -9
157 -3 986 9 1125 44 501 94 779 220 1214 l66 229 -35 65 c-41 78 -86 142 -99
142 -5 0 -60 -84 -122 -187z"/>
<path d="M6587 4948 c-13 -18 -41 -64 -62 -102 l-38 -69 15 -56 c9 -31 39
-136 67 -234 166 -572 228 -1114 219 -1919 -3 -222 -7 -410 -9 -418 -2 -9 4
-16 17 -18 55 -8 274 345 337 543 38 120 75 297 88 420 15 140 6 477 -16 600
-35 201 -131 472 -251 715 -88 177 -318 570 -334 570 -5 0 -20 -15 -33 -32z"/>
<path d="M5212 4657 c-20 -24 -90 -249 -116 -373 -35 -167 -64 -391 -78 -608
-10 -161 -10 -203 5 -337 22 -197 63 -357 124 -479 40 -80 63 -111 143 -191
149 -151 223 -175 179 -58 -28 73 -101 360 -138 545 -71 359 -93 630 -90 1157
1 331 -3 376 -29 344z"/>
<path d="M6275 4660 c-4 -7 -7 -163 -6 -348 3 -526 -19 -797 -90 -1156 -37
-185 -110 -472 -138 -545 -44 -117 30 -93 179 58 80 80 103 111 143 191 61
122 102 282 124 479 15 134 15 176 5 337 -23 346 -71 631 -144 851 -40 121
-59 156 -73 133z"/>
<path d="M5523 4574 c-3 -9 -3 -107 0 -218 13 -406 59 -895 98 -1036 36 -136
118 -340 135 -340 21 0 124 284 149 408 36 188 76 693 79 997 l1 200 -228 3
c-203 2 -228 1 -234 -14z"/>
</g>
</svg>
