<?xml version="1.0" standalone="no"?>
<!DOCTYPE svg PUBLIC "-//W3C//DTD SVG 20010904//EN"
 "http://www.w3.org/TR/2001/REC-SVG-20010904/DTD/svg10.dtd">
<svg version="1.0" xmlns="http://www.w3.org/2000/svg"
 width="1280.000000pt" height="640.000000pt" viewBox="0 0 1280.000000 640.000000"
 preserveAspectRatio="xMidYMid meet">
<metadata>
Created by potrace 1.15, written by Peter Selinger 2001-2017
</metadata>
<g transform="translate(0.000000,640.000000) scale(0.100000,-0.100000)"
fill="#000000" stroke="none">
<path d="M3225 6214 c-279 -44 -593 -153 -1045 -361 -589 -271 -1039 -409
-1573 -479 -62 -8 -209 -18 -327 -21 -118 -4 -206 -8 -195 -10 516 -90 944
-218 1266 -377 329 -164 474 -383 399 -605 -71 -213 -338 -452 -740 -666 -69
-36 -116 -64 -105 -61 11 3 74 21 140 40 360 105 655 169 866 187 191 18 456
1 582 -36 310 -90 496 -311 497 -591 0 -179 -92 -623 -156 -746 -9 -17 -14
-32 -12 -34 2 -2 40 26 84 63 259 216 528 378 694 417 85 20 194 20 254 0 112
-38 205 -169 247 -351 28 -118 37 -474 16 -673 -8 -74 -13 -136 -12 -138 1 -1
33 55 71 125 262 487 511 706 695 613 176 -90 312 -438 393 -1004 l22 -149 54
93 c70 123 185 274 256 339 101 92 200 126 293 101 93 -25 222 -202 284 -390
68 -203 137 -625 182 -1110 9 -96 18 -176 19 -178 2 -1 6 44 10 100 29 424
106 865 196 1123 116 330 283 444 491 334 82 -43 232 -192 319 -317 l65 -93 8
58 c61 446 116 657 215 827 49 84 96 131 158 162 190 93 438 -82 722 -510 l92
-139 0 155 c0 512 114 855 317 954 132 65 315 35 527 -86 100 -57 263 -180
360 -271 l79 -74 -6 49 c-19 136 -29 355 -25 547 6 253 19 317 100 478 110
221 309 361 569 402 97 15 395 6 514 -16 133 -24 266 -59 400 -105 124 -43
361 -146 371 -161 3 -5 10 -9 15 -9 5 0 -41 59 -103 131 -198 229 -276 348
-324 489 -28 83 -26 244 4 331 115 336 535 599 1202 753 l105 25 -180 0 c-686
3 -1303 163 -2100 543 -392 187 -559 245 -855 297 -380 67 -626 43 -883 -85
-169 -84 -295 -182 -467 -361 -133 -138 -227 -256 -405 -510 -70 -100 -166
-231 -213 -290 -110 -138 -311 -339 -430 -431 -80 -61 -250 -172 -265 -172 -2
0 -7 38 -11 85 -11 136 -43 222 -117 322 l-39 52 11 77 c21 151 77 303 151
412 16 23 25 42 20 42 -6 0 -32 -15 -58 -33 -64 -44 -160 -159 -226 -270 -28
-49 -55 -90 -58 -92 -4 -2 -44 12 -89 31 -105 46 -222 67 -320 59 -89 -7 -210
-44 -271 -83 -25 -15 -50 -31 -57 -35 -8 -5 -21 10 -39 45 -75 150 -215 321
-305 373 l-34 19 17 -24 c74 -105 135 -255 163 -403 24 -126 21 -161 -24 -247
-22 -41 -42 -93 -46 -115 -13 -83 -17 -95 -27 -95 -14 0 -125 91 -240 196
-162 147 -263 270 -458 554 -143 209 -273 371 -423 527 -265 274 -446 392
-706 460 -82 22 -122 26 -276 29 -123 2 -208 -2 -270 -12z"/>
</g>
</svg>
