<?xml version="1.0" standalone="no"?>
<!DOCTYPE svg PUBLIC "-//W3C//DTD SVG 20010904//EN"
 "http://www.w3.org/TR/2001/REC-SVG-20010904/DTD/svg10.dtd">
<svg version="1.0" xmlns="http://www.w3.org/2000/svg"
 width="1197.000000pt" height="1280.000000pt" viewBox="0 0 1197.000000 1280.000000"
 preserveAspectRatio="xMidYMid meet">
<metadata>
Created by potrace 1.15, written by Peter Selinger 2001-2017
</metadata>
<g transform="translate(0.000000,1280.000000) scale(0.100000,-0.100000)"
fill="#000000" stroke="none">
<path d="M3726 12789 c-197 -29 -344 -102 -361 -181 -7 -28 -7 -28 -63 -20
-104 13 -312 7 -362 -12 -70 -26 -115 -62 -144 -115 -27 -51 -44 -149 -32
-195 l6 -25 42 45 c23 25 59 54 80 65 76 39 186 17 304 -60 75 -48 187 -152
177 -162 -5 -5 -52 -13 -105 -19 -200 -22 -494 33 -623 117 -22 14 -92 79
-155 144 -121 124 -151 141 -216 125 -62 -16 -69 -131 -13 -218 81 -126 200
-193 427 -238 191 -38 324 -47 532 -39 91 3 187 4 213 1 l48 -5 -43 -29 c-110
-75 -205 -105 -296 -94 -30 4 -123 29 -206 56 -82 27 -152 48 -154 45 -9 -9
33 -77 64 -105 37 -32 113 -73 178 -97 23 -8 181 -45 351 -83 342 -77 507
-121 647 -175 182 -70 347 -181 503 -339 250 -252 355 -468 355 -726 -1 -282
-111 -468 -319 -535 -114 -37 -307 -2 -414 75 -57 41 -121 138 -153 235 -21
62 -28 106 -32 195 -4 111 -3 122 32 243 20 70 39 153 42 185 10 96 4 102
-220 221 -461 243 -1178 561 -1266 561 -49 0 -104 -41 -154 -113 -44 -64 -25
-61 -201 -25 -541 110 -1088 491 -1375 958 -84 136 -136 180 -216 180 -50 0
-104 -31 -157 -90 -53 -59 -85 -134 -100 -236 -13 -88 6 -178 64 -302 134
-290 379 -504 812 -712 330 -158 583 -230 861 -246 131 -8 181 -25 222 -80 25
-32 29 -46 29 -100 0 -83 -35 -136 -120 -179 l-59 -30 -201 2 c-559 6 -827 91
-1134 361 -108 94 -178 132 -246 132 -53 0 -89 -16 -126 -57 -67 -72 -83 -162
-49 -274 45 -146 103 -242 204 -337 296 -277 859 -361 1538 -231 123 23 168
20 204 -16 32 -32 31 -86 -2 -153 -28 -56 -56 -83 -154 -144 -193 -121 -383
-200 -565 -233 -122 -23 -338 -16 -448 13 -145 40 -294 120 -432 235 -82 69
-146 97 -219 97 -54 0 -61 -3 -96 -37 -69 -70 -72 -187 -9 -340 91 -219 258
-361 499 -425 75 -20 108 -23 275 -22 165 1 206 4 310 26 214 46 461 136 642
234 101 55 163 60 212 18 39 -32 56 -90 42 -141 -20 -73 -56 -109 -204 -207
-425 -280 -715 -396 -991 -396 -123 0 -232 28 -379 97 -103 48 -130 57 -194
61 -90 6 -148 -14 -192 -64 -86 -98 -59 -289 58 -403 97 -94 234 -127 494
-118 360 13 765 142 1132 361 134 81 174 86 205 27 16 -32 6 -95 -25 -147 -15
-26 -84 -92 -177 -170 -463 -391 -701 -517 -1028 -543 -79 -7 -160 -6 -260 2
-217 18 -287 15 -337 -11 -108 -57 -137 -213 -66 -359 37 -74 135 -165 208
-192 131 -49 274 -49 460 0 280 73 668 287 1000 551 151 121 235 145 285 81
27 -35 34 -83 22 -150 -18 -100 -48 -164 -118 -248 -369 -445 -749 -709 -1117
-774 -175 -31 -402 -19 -543 29 -31 11 -83 20 -115 20 -47 0 -63 -5 -88 -26
-51 -43 -64 -127 -35 -237 21 -83 66 -168 107 -204 73 -64 227 -99 387 -90
444 27 937 312 1336 773 121 140 175 184 226 184 52 0 63 -78 27 -196 -27 -91
-72 -171 -185 -334 -342 -494 -667 -776 -1024 -891 -176 -57 -223 -63 -490
-63 -229 -1 -247 -2 -280 -22 -55 -32 -80 -77 -80 -143 1 -107 64 -206 183
-285 291 -193 623 -190 942 9 105 66 482 452 1142 1171 234 254 270 284 347
284 91 0 125 -124 96 -347 -14 -97 -24 -130 -67 -217 -90 -181 -211 -288 -488
-426 -124 -63 -155 -82 -182 -118 -57 -75 -41 -170 38 -233 95 -75 215 -89
331 -40 217 93 475 344 591 576 34 68 77 193 143 413 61 204 80 239 150 273
119 57 244 -35 244 -179 0 -66 -64 -264 -122 -374 -44 -85 -104 -152 -265
-298 -79 -71 -96 -106 -72 -149 30 -55 164 -87 256 -62 92 25 292 206 399 362
65 93 138 232 199 374 58 135 96 180 155 180 78 0 129 -89 116 -200 -16 -136
-171 -482 -294 -655 -124 -175 -303 -333 -502 -443 -142 -78 -380 -161 -611
-212 -128 -29 -144 -36 -165 -76 -27 -53 -13 -75 146 -234 83 -83 150 -153
150 -156 0 -4 -17 -11 -37 -17 -21 -5 -121 -32 -223 -60 -102 -27 -336 -89
-520 -136 -184 -47 -380 -98 -435 -113 l-100 -27 -320 215 -320 214 -32 78
c-18 44 -42 92 -54 108 -50 70 -150 87 -272 45 l-69 -23 -81 28 c-135 47 -232
38 -334 -33 l-48 -32 76 -12 c140 -22 232 -79 276 -172 37 -78 105 -144 176
-171 69 -25 203 -29 286 -6 l54 14 36 -31 c20 -17 101 -94 181 -171 l145 -139
-85 6 c-47 3 -209 9 -360 12 l-275 6 -55 52 c-201 190 -371 205 -541 49 -48
-45 -66 -55 -120 -66 -76 -16 -115 -35 -150 -74 -35 -38 -72 -93 -67 -98 2 -3
31 5 64 16 88 31 152 35 194 10 93 -53 204 -102 266 -117 119 -28 239 -3 336
69 l33 24 360 -23 c198 -13 369 -23 380 -24 l20 -1 -20 -15 c-11 -9 -63 -41
-115 -71 -52 -30 -117 -70 -145 -88 l-50 -34 -58 14 c-204 48 -362 17 -471
-92 -58 -58 -92 -124 -141 -278 -46 -146 -65 -238 -65 -317 0 -82 10 -85 41
-13 34 82 97 167 147 199 37 24 38 24 117 9 143 -26 248 -5 325 64 49 44 79
103 94 185 5 25 16 44 36 58 35 25 197 101 338 160 57 23 130 60 163 81 33 22
64 39 69 39 9 0 482 -158 485 -163 2 -1 17 -30 34 -65 38 -76 90 -129 156
-162 48 -24 59 -25 235 -25 206 -1 253 -9 299 -55 28 -28 33 -43 54 -155 3
-16 7 -11 21 20 40 93 39 181 -5 252 -11 17 -44 54 -73 81 -30 27 -65 71 -79
98 -73 142 -202 191 -350 134 -57 -22 -60 -22 -105 -5 -26 10 -103 47 -171 82
-69 35 -142 68 -164 74 -21 6 -37 12 -36 14 12 11 342 98 629 166 184 43 411
100 503 125 l168 48 52 -51 c84 -82 273 -240 306 -257 16 -9 48 -16 70 -16 31
0 44 6 65 30 38 46 168 259 311 510 218 383 292 486 515 711 110 111 148 142
203 169 249 122 419 -51 385 -392 -13 -131 -41 -224 -114 -380 -79 -170 -136
-261 -271 -429 -153 -189 -277 -296 -536 -458 -215 -134 -288 -153 -507 -127
-114 14 -152 15 -197 6 -78 -17 -123 -37 -160 -73 -61 -58 -41 -137 55 -230
102 -96 295 -153 496 -145 162 6 211 33 421 223 128 116 141 125 190 125 51 0
97 -28 118 -73 35 -72 14 -123 -105 -254 -240 -267 -462 -400 -697 -418 -140
-11 -210 -33 -264 -83 -55 -52 -27 -134 69 -197 185 -123 419 -123 651 0 111
59 185 116 328 255 136 133 159 150 196 150 41 0 61 -31 66 -102 4 -53 0 -77
-27 -153 -62 -173 -142 -308 -236 -396 -103 -96 -205 -136 -376 -149 -148 -11
-192 -31 -204 -96 -14 -78 77 -194 200 -254 279 -137 543 38 781 518 93 188
140 219 215 144 49 -49 70 -119 70 -231 -1 -249 -123 -475 -392 -725 l-96 -89
51 -81 c28 -45 182 -277 342 -516 160 -239 333 -501 386 -582 l95 -147 54 87
c30 48 204 310 385 582 182 272 353 531 382 576 l50 81 -103 97 c-266 250
-383 469 -384 717 0 112 21 182 70 231 75 75 122 44 214 -142 171 -344 348
-527 544 -561 153 -27 351 71 418 206 20 41 25 63 20 89 -12 65 -56 85 -204
96 -216 16 -349 88 -467 255 -84 118 -175 336 -175 418 0 69 17 116 45 123 48
12 78 -8 223 -149 238 -229 408 -324 614 -343 165 -14 378 64 438 160 69 113
-32 192 -271 211 -235 18 -463 155 -696 416 -120 136 -139 181 -109 254 28 66
129 97 186 58 14 -9 70 -58 125 -108 210 -190 259 -217 421 -223 201 -8 394
49 496 145 31 30 64 70 72 88 49 103 -15 181 -177 215 -45 9 -82 8 -197 -6
-219 -26 -294 -7 -513 131 -253 159 -378 266 -528 453 -137 170 -194 259 -273
430 -74 158 -101 248 -115 384 -33 337 138 509 386 388 55 -27 93 -58 203
-169 223 -225 297 -328 515 -711 143 -251 273 -464 311 -510 21 -24 34 -30 65
-30 22 0 54 7 70 16 33 17 222 175 306 257 l52 51 168 -48 c92 -25 319 -82
503 -125 280 -66 617 -155 628 -166 1 -1 -21 -10 -50 -20 -29 -9 -102 -43
-163 -75 -60 -32 -131 -65 -157 -75 -45 -17 -48 -17 -105 5 -148 57 -277 8
-350 -134 -14 -27 -49 -71 -79 -98 -29 -27 -62 -64 -73 -81 -44 -71 -45 -159
-5 -252 14 -31 18 -36 21 -20 21 112 26 127 54 155 46 46 93 54 299 55 176 0
187 1 235 25 66 32 123 93 159 168 l29 60 221 76 c122 41 233 78 247 81 20 5
40 -3 87 -33 34 -22 107 -59 164 -82 141 -58 303 -135 338 -160 22 -16 31 -33
40 -78 17 -78 41 -123 94 -169 74 -65 182 -85 321 -60 79 15 80 15 117 -9 50
-32 113 -117 147 -199 20 -46 30 -61 35 -50 9 25 7 102 -5 175 -14 92 -93 336
-128 395 -102 176 -288 238 -539 180 l-57 -14 -50 34 c-27 18 -93 58 -145 88
-52 30 -104 62 -115 71 l-20 15 20 1 c11 1 182 11 380 24 l360 23 33 -24 c56
-42 141 -75 206 -80 104 -8 231 33 396 128 42 25 106 21 194 -10 33 -11 62
-19 64 -16 5 5 -32 60 -67 98 -35 39 -74 58 -150 74 -55 11 -72 21 -116 62
-169 160 -343 145 -545 -45 l-55 -52 -275 -6 c-151 -3 -313 -9 -360 -12 l-85
-6 145 139 c80 77 161 154 181 171 l36 31 54 -14 c83 -23 217 -19 286 6 71 27
139 93 176 171 44 93 136 150 276 172 l76 12 -48 32 c-102 71 -199 80 -334 33
l-81 -28 -69 23 c-123 42 -222 25 -273 -47 -13 -17 -37 -65 -54 -107 l-31 -77
-320 -214 -320 -215 -100 27 c-55 15 -251 66 -435 113 -184 47 -418 109 -520
136 -102 28 -202 55 -222 60 -21 6 -38 13 -38 17 0 3 67 73 150 156 159 159
173 181 146 234 -21 40 -37 47 -165 76 -231 51 -469 134 -611 212 -199 110
-378 268 -502 443 -124 175 -278 518 -294 656 -13 110 38 199 116 199 59 0 98
-45 155 -180 58 -139 133 -279 199 -374 107 -156 307 -337 399 -362 92 -25
226 7 256 62 24 43 7 78 -72 149 -161 146 -221 213 -265 298 -58 110 -122 308
-122 374 0 144 125 236 244 179 70 -34 89 -69 150 -273 129 -430 186 -540 390
-744 168 -167 351 -273 472 -274 204 -1 341 170 241 302 -27 36 -58 55 -182
118 -277 138 -398 245 -488 426 -43 87 -53 120 -67 217 -29 223 5 347 96 347
77 0 114 -30 342 -279 606 -660 1028 -1097 1126 -1163 132 -91 302 -151 458
-164 230 -18 530 105 629 259 87 134 79 253 -21 311 -33 20 -51 21 -280 22
-268 0 -326 8 -496 64 -357 119 -681 402 -1018 890 -52 74 -110 164 -129 200
-64 118 -94 259 -67 311 23 42 109 10 175 -63 22 -25 78 -89 125 -143 143
-166 366 -355 557 -474 375 -232 778 -318 1039 -220 76 29 121 71 160 152 66
138 70 273 9 334 -30 30 -38 33 -92 33 -34 0 -85 -9 -117 -20 -141 -48 -368
-60 -543 -29 -368 65 -748 329 -1117 774 -70 84 -100 148 -118 248 -12 67 -5
115 22 150 50 64 134 40 285 -81 194 -154 497 -347 664 -424 139 -63 178 -79
253 -103 305 -97 516 -80 659 53 163 151 177 395 26 474 -51 27 -121 29 -340
11 -388 -32 -652 51 -1006 317 -202 152 -429 347 -456 394 -31 52 -41 115 -25
147 31 59 71 54 205 -27 367 -219 772 -348 1132 -361 185 -7 282 5 381 44 240
96 305 449 97 529 -33 12 -64 15 -118 12 -64 -4 -91 -13 -194 -61 -147 -69
-256 -97 -379 -97 -276 0 -571 118 -991 396 -148 98 -184 135 -204 206 -14 52
3 110 42 142 53 45 101 37 264 -43 212 -105 393 -168 610 -213 91 -18 142 -22
295 -22 214 -1 293 15 440 86 198 95 370 346 372 542 2 80 -15 128 -58 166
-30 26 -42 30 -92 30 -71 0 -135 -29 -217 -97 -138 -115 -287 -195 -432 -235
-110 -29 -326 -36 -448 -13 -180 33 -365 108 -550 223 -112 70 -140 95 -169
154 -33 67 -34 121 -2 153 36 36 81 39 204 16 205 -39 317 -52 512 -58 587
-17 1011 158 1176 487 64 127 84 232 60 313 -40 139 -153 192 -280 132 -29
-14 -95 -62 -147 -107 -307 -270 -575 -355 -1134 -361 l-201 -2 -59 30 c-154
79 -169 263 -26 334 25 13 70 20 151 25 282 15 535 87 867 246 479 230 741
479 854 815 41 122 28 269 -34 375 -50 87 -135 150 -202 150 -80 0 -130 -42
-214 -178 -288 -469 -834 -850 -1376 -960 -176 -36 -157 -39 -201 25 -50 72
-105 113 -154 113 -77 0 -661 -253 -1110 -481 -303 -154 -356 -185 -370 -219
-17 -42 -7 -115 37 -268 34 -120 35 -131 31 -242 -4 -89 -11 -133 -32 -194
-33 -98 -96 -196 -152 -236 -108 -77 -300 -112 -415 -75 -157 51 -265 179
-304 361 -21 101 -19 261 5 364 80 335 447 721 828 871 144 56 307 101 657
179 171 38 328 75 351 83 65 24 141 65 178 97 31 28 73 96 64 105 -2 3 -72
-18 -154 -45 -83 -27 -176 -52 -206 -56 -91 -11 -186 19 -296 94 l-43 29 48 5
c26 3 122 2 213 -1 208 -8 341 1 532 39 175 35 266 73 346 145 98 88 137 180
110 260 -15 47 -45 61 -104 51 -33 -6 -57 -26 -154 -125 -63 -65 -133 -130
-155 -144 -129 -84 -423 -139 -623 -117 -53 6 -100 14 -105 19 -10 10 102 114
177 162 118 77 228 99 304 60 21 -11 57 -40 80 -65 l42 -45 6 25 c12 46 -5
144 -32 195 -29 53 -74 89 -144 115 -50 19 -258 25 -361 12 -55 -8 -57 -7 -63
17 -21 85 -161 155 -371 185 -181 26 -352 -5 -619 -112 -180 -71 -485 -141
-766 -176 l-145 -18 79 -62 c43 -35 130 -97 192 -140 63 -42 114 -79 114 -83
0 -3 -29 -18 -64 -33 -121 -52 -273 -160 -393 -282 -62 -62 -113 -117 -113
-122 0 -6 76 -11 178 -14 97 -2 185 -8 195 -14 14 -8 -11 -19 -120 -53 -212
-66 -357 -140 -478 -245 -22 -19 -37 -37 -35 -39 3 -2 50 -15 105 -28 76 -18
100 -28 100 -40 0 -9 -76 -97 -170 -194 -93 -98 -202 -212 -241 -253 l-70 -74
-120 128 c-65 71 -173 184 -239 251 -66 68 -120 131 -120 140 0 14 21 23 103
43 56 13 102 27 102 31 0 16 -164 134 -244 175 -49 26 -161 70 -249 99 -121
39 -156 54 -141 60 10 4 99 10 197 13 101 2 177 8 177 14 0 5 -51 60 -112 122
-121 122 -273 230 -394 282 -35 15 -64 30 -64 33 0 4 51 41 114 83 62 43 149
105 192 140 l79 63 -143 17 c-274 32 -587 104 -768 176 -268 107 -443 138
-628 111z m351 -374 c95 -28 138 -95 97 -153 -69 -99 -382 -107 -484 -12 -62
58 -32 125 72 161 68 24 242 26 315 4z m4121 0 c110 -33 146 -105 82 -165
-102 -95 -415 -87 -484 12 -40 57 2 124 93 152 64 20 243 20 309 1z"/>
</g>
</svg>
