<?xml version="1.0" standalone="no"?>
<!DOCTYPE svg PUBLIC "-//W3C//DTD SVG 20010904//EN"
 "http://www.w3.org/TR/2001/REC-SVG-20010904/DTD/svg10.dtd">
<svg version="1.0" xmlns="http://www.w3.org/2000/svg"
 width="1280.000000pt" height="1178.000000pt" viewBox="0 0 1280.000000 1178.000000"
 preserveAspectRatio="xMidYMid meet">
<metadata>
Created by potrace 1.15, written by Peter Selinger 2001-2017
</metadata>
<g transform="translate(0.000000,1178.000000) scale(0.100000,-0.100000)"
fill="#000000" stroke="none">
<path d="M5590 11774 c-1318 -80 -2487 -543 -3505 -1390 -168 -139 -560 -532
-699 -699 -779 -938 -1227 -2000 -1357 -3220 -19 -176 -23 -268 -23 -570 0
-375 10 -541 55 -845 233 -1598 1104 -3021 2424 -3965 834 -596 1809 -954
2885 -1062 246 -24 806 -24 1050 0 345 35 554 71 885 153 787 193 1528 550
2175 1048 218 168 374 309 685 618 l320 319 -330 -230 c-389 -271 -529 -357
-806 -495 -559 -279 -1123 -438 -1769 -497 -280 -26 -734 -14 -1040 27 -1302
174 -2481 861 -3260 1899 -527 702 -854 1518 -954 2378 -109 937 61 1902 486
2751 238 476 507 852 883 1235 800 814 1811 1304 2965 1437 190 22 638 30 840
15 914 -67 1763 -368 2498 -885 173 -122 325 -247 584 -482 293 -266 336 -303
322 -284 -56 75 -448 577 -483 620 -182 219 -472 515 -681 696 -929 803 -2058
1284 -3310 1409 -149 15 -699 27 -840 19z"/>
<path d="M10516 7920 c-3 -8 -39 -118 -80 -245 -106 -328 -328 -1010 -394
-1212 l-56 -173 -868 -2 -868 -3 700 -510 c385 -280 700 -514 700 -518 0 -4
-119 -375 -265 -824 -146 -449 -263 -818 -262 -820 2 -1 313 223 692 498 379
276 695 503 702 506 6 3 321 -220 700 -494 378 -275 693 -502 700 -506 8 -5 5
13 -7 50 -10 32 -50 155 -88 273 -39 118 -121 370 -182 560 -154 476 -242 744
-246 752 -3 3 303 230 678 504 376 273 692 505 703 516 19 18 -4 18 -848 18
-685 0 -869 3 -872 13 -2 6 -119 365 -259 797 -287 886 -272 841 -280 820z"/>
</g>
</svg>
