<?xml version="1.0" standalone="no"?>
<!DOCTYPE svg PUBLIC "-//W3C//DTD SVG 20010904//EN"
 "http://www.w3.org/TR/2001/REC-SVG-20010904/DTD/svg10.dtd">
<svg version="1.0" xmlns="http://www.w3.org/2000/svg"
 width="958.000000pt" height="1280.000000pt" viewBox="0 0 958.000000 1280.000000"
 preserveAspectRatio="xMidYMid meet">
<metadata>
Created by potrace 1.15, written by Peter Selinger 2001-2017
</metadata>
<g transform="translate(0.000000,1280.000000) scale(0.100000,-0.100000)"
fill="#000000" stroke="none">
<path d="M7580 12501 c-355 -164 -838 -388 -1073 -497 l-429 -199 -261 -537
-262 -537 -415 -277 c-228 -152 -421 -278 -427 -281 -11 -4 -223 126 -785 481
-54 33 -99 66 -100 71 -8 27 -510 1004 -521 1012 -23 19 -2109 934 -2115 929
-5 -5 16 -127 112 -638 l32 -167 365 -303 c201 -167 396 -328 435 -359 75 -62
34 -46 664 -246 l185 -59 281 -488 c154 -268 287 -493 295 -500 15 -14 1128
-509 1144 -509 12 0 1105 511 1121 524 6 5 139 238 295 518 l284 509 255 87
c140 48 317 108 394 133 l138 47 417 354 c229 194 429 364 444 377 27 22 30
37 101 436 40 227 73 414 72 415 -1 1 -292 -132 -646 -296z"/>
<path d="M6143 12457 l-111 -22 -404 -243 -405 -244 -182 -606 c-101 -334
-209 -691 -239 -794 l-56 -188 -41 0 -41 0 -28 88 c-29 92 -250 773 -393 1207
-47 143 -90 265 -96 272 -7 7 -192 110 -412 229 l-400 216 -95 14 c-141 20
-142 19 -24 -39 l109 -54 28 -254 29 -254 260 -510 260 -510 401 -251 401
-251 395 263 394 263 258 529 257 529 21 204 c12 112 24 225 27 251 l7 48 108
61 c60 33 109 63 109 65 0 6 -16 4 -137 -19z"/>
<path d="M7840 11491 c-118 -26 -227 -50 -242 -54 -14 -4 -102 -71 -195 -150
l-168 -143 -380 -128 c-209 -71 -385 -134 -392 -140 -6 -6 -175 -306 -376
-666 l-365 -655 -249 -178 c-136 -99 -256 -185 -266 -192 -11 -8 -67 -161
-154 -420 l-137 -409 225 -218 c123 -119 227 -218 231 -218 4 0 153 90 330
200 247 153 331 200 356 200 18 0 182 -14 365 -30 183 -17 341 -29 352 -26 11
3 149 68 307 145 l288 141 -236 225 -236 226 -51 -44 c-217 -183 -645 -544
-659 -555 -13 -10 -21 -9 -47 5 -17 10 -31 23 -31 28 1 6 58 249 129 540 l128
530 -20 23 c-19 20 -29 22 -123 22 l-103 0 -10 37 c-6 20 -8 39 -5 42 3 3 256
186 562 406 517 372 561 406 617 476 135 170 790 1012 793 1020 5 13 -3 12
-238 -40z"/>
<path d="M4848 11410 c-81 -61 -153 -110 -160 -109 -7 0 -78 47 -158 103 -80
57 -146 102 -148 101 -2 -2 27 -95 63 -207 103 -313 201 -614 231 -708 15 -47
29 -80 30 -75 2 6 28 91 58 190 155 514 237 787 242 800 4 8 2 15 -2 15 -5 -1
-75 -50 -156 -110z"/>
<path d="M1320 11433 c0 -2 125 -158 278 -346 153 -188 343 -423 424 -522 80
-99 154 -187 164 -197 11 -9 264 -186 564 -393 300 -207 548 -380 552 -384 4
-3 2 -23 -4 -44 l-11 -37 -107 0 c-91 0 -109 -3 -123 -18 -10 -10 -17 -24 -17
-31 0 -6 29 -121 64 -254 35 -133 96 -368 136 -521 l73 -280 -29 -23 c-16 -13
-32 -22 -36 -20 -4 1 -159 128 -344 282 -186 154 -345 285 -355 292 -14 11
-46 -18 -245 -218 -126 -126 -227 -233 -224 -237 3 -4 132 -63 286 -132 l282
-126 373 38 374 37 322 -185 c178 -101 330 -187 339 -191 11 -4 76 55 230 208
118 118 214 219 214 225 0 24 -282 809 -293 816 -6 4 -128 85 -270 180 l-258
173 -374 650 -374 650 -198 63 c-109 35 -282 90 -385 123 l-187 60 -161 133
-161 133 -117 22 c-64 12 -181 34 -259 50 -79 15 -143 26 -143 24z"/>
<path d="M7930 11206 c-14 -19 -164 -213 -335 -431 l-310 -397 -225 -162
c-124 -88 -354 -253 -512 -366 -158 -113 -287 -208 -287 -212 -1 -5 23 -8 53
-8 54 0 55 0 113 -65 l58 -64 170 29 c94 17 304 53 468 81 l298 51 322 -127
322 -128 405 -33 c401 -33 868 -59 878 -49 3 3 -151 362 -342 799 l-348 794
-341 157 c-188 87 -346 159 -352 161 -5 2 -21 -12 -35 -30z"/>
<path d="M1110 10976 l-334 -162 -26 -59 c-59 -139 -636 -1550 -635 -1553 1
-1 134 11 296 27 162 16 440 42 619 57 l325 27 323 139 c178 76 336 138 352
138 15 0 100 -11 187 -25 87 -14 277 -43 422 -66 l264 -41 66 66 c64 63 68 65
123 68 32 2 58 4 58 5 0 1 -231 162 -514 357 l-513 356 -332 410 c-183 225
-335 411 -339 414 -4 2 -158 -69 -342 -158z"/>
<path d="M5231 9550 c-282 -132 -519 -240 -526 -240 -13 0 -37 11 -600 260
-176 78 -355 157 -398 176 -88 38 -87 47 -11 -86 l43 -76 274 -183 274 -184
123 -351 c68 -193 138 -391 156 -441 l33 -90 -241 -241 -240 -241 31 -119 c17
-65 45 -175 63 -244 l31 -125 -108 -195 c-59 -107 -172 -310 -251 -450 -79
-141 -144 -263 -144 -272 0 -16 137 -469 144 -476 2 -2 191 74 419 168 l416
172 427 -171 c235 -94 430 -169 432 -167 4 5 105 360 124 437 l11 47 -262 457
c-143 252 -261 463 -261 469 0 6 29 114 65 239 l65 227 -187 183 c-104 100
-216 209 -250 240 l-61 58 149 447 150 447 267 190 267 191 52 92 c29 51 49
92 45 92 -4 0 -238 -108 -521 -240z"/>
<path d="M6993 9506 c-226 -39 -414 -74 -417 -77 -4 -3 59 -68 139 -144 291
-275 430 -405 435 -405 3 0 77 55 165 123 88 67 214 164 281 214 l120 93 740
-284 c406 -155 740 -282 742 -281 2 2 -72 117 -164 256 -92 140 -168 255 -169
256 -1 2 -185 18 -411 37 l-409 34 -310 122 c-170 67 -314 124 -320 125 -5 2
-195 -29 -422 -69z"/>
<path d="M1705 9373 l-310 -135 -370 -34 c-203 -18 -379 -34 -391 -34 -16 0
-55 -56 -182 -264 -89 -145 -162 -266 -162 -269 0 -2 320 130 712 295 391 164
714 300 718 301 7 2 195 -133 452 -324 l116 -87 154 156 c309 316 392 402 387
406 -4 5 -787 127 -804 125 -5 0 -149 -61 -320 -136z"/>
<path d="M6430 9427 c0 -3 -47 -202 -105 -443 -58 -240 -103 -439 -101 -441 2
-2 68 52 148 119 80 68 171 145 204 173 170 144 254 218 254 224 0 8 -378 364
-391 369 -5 2 -9 1 -9 -1z"/>
<path d="M2777 9205 l-187 -194 232 -193 c312 -260 372 -308 375 -305 3 4
-224 877 -230 883 -2 2 -88 -84 -190 -191z"/>
<path d="M7655 9161 c-33 -26 -147 -114 -253 -195 l-193 -148 127 -121 c109
-106 184 -163 560 -427 l434 -305 382 -620 c572 -926 863 -1393 865 -1391 2 2
-2 38 -7 80 -5 43 -17 137 -25 210 -8 72 -64 568 -125 1101 -61 534 -118 1038
-127 1120 -9 83 -19 153 -23 158 -3 4 -107 46 -231 93 -123 47 -289 111 -369
141 -80 30 -319 122 -532 204 -213 82 -395 149 -405 149 -10 -1 -45 -22 -78
-49z"/>
<path d="M1585 9089 c-179 -76 -370 -156 -890 -374 -259 -109 -471 -198 -472
-199 -2 -2 -39 -429 -83 -966 -5 -69 -39 -474 -75 -900 -35 -426 -63 -775 -62
-776 3 -3 323 555 778 1356 l378 665 388 290 c315 235 415 316 533 430 80 77
145 143 145 147 0 10 -500 378 -513 378 -4 0 -61 -23 -127 -51z"/>
<path d="M7095 8325 l-290 -143 -135 -137 c-131 -133 -145 -143 -435 -337
-165 -111 -302 -202 -304 -205 -3 -2 25 -34 61 -71 l66 -67 -52 -116 -53 -115
301 -361 c166 -199 305 -361 310 -359 5 1 164 265 354 586 l344 585 64 440
c34 242 62 440 61 441 -1 1 -132 -63 -292 -141z"/>
<path d="M7467 8433 c-3 -16 -11 -73 -18 -129 l-13 -101 311 -609 311 -609
433 -322 c239 -177 437 -322 441 -323 4 0 7 102 8 228 1 125 2 232 3 238 0 6
-47 87 -105 180 -58 93 -210 339 -337 546 l-233 377 -393 276 c-216 151 -395
275 -397 275 -3 0 -8 -12 -11 -27z"/>
<path d="M2050 8393 c0 -4 34 -200 75 -436 l76 -430 158 -266 c87 -146 239
-402 337 -568 99 -166 183 -303 188 -305 11 -3 596 720 596 736 0 5 -22 51
-50 102 -27 51 -50 99 -50 106 0 7 30 43 67 80 37 37 65 69 62 71 -2 2 -137
88 -299 192 -284 182 -301 195 -443 331 l-148 142 -252 112 c-318 142 -317
142 -317 133z"/>
<path d="M1585 8111 l-370 -278 -46 -84 c-26 -46 -168 -298 -317 -560 l-271
-477 10 -203 c6 -112 13 -211 17 -220 6 -13 92 51 413 305 l407 321 289 618
289 619 -20 119 c-11 65 -22 119 -25 119 -4 0 -172 -126 -376 -279z"/>
<path d="M5727 8041 c-175 -110 -320 -201 -323 -204 -2 -2 -33 -103 -68 -225
l-63 -220 114 -199 c67 -117 119 -197 126 -195 7 1 92 38 188 82 l174 79 42
93 41 93 -60 61 -60 62 -147 23 c-80 12 -156 25 -168 28 -21 6 -18 14 68 171
49 90 94 167 99 170 6 4 52 12 103 18 50 7 225 31 387 53 l295 41 103 101 c56
56 102 104 102 107 0 4 -314 34 -585 56 -50 4 -51 3 -368 -195z"/>
<path d="M3012 8180 c-145 -15 -265 -30 -268 -32 -2 -3 46 -52 107 -109 l112
-104 371 -42 c204 -23 383 -42 397 -42 24 -1 35 -16 94 -123 38 -68 81 -146
97 -174 l28 -51 -175 -29 -175 -28 -62 -63 -63 -63 45 -88 45 -87 184 -83
c101 -45 185 -81 186 -80 2 2 53 92 113 202 l110 198 -13 47 c-8 25 -35 127
-60 226 -26 99 -48 181 -49 182 -1 1 -148 85 -326 187 -380 217 -295 198 -698
156z"/>
<path d="M7381 7833 c-18 -125 -33 -240 -32 -257 0 -17 42 -211 93 -432 l94
-400 556 -595 c489 -523 1072 -1120 1082 -1108 2 2 -5 123 -15 269 -10 146
-25 378 -34 515 -9 138 -19 259 -21 270 -3 12 -212 173 -557 427 l-552 407
-280 548 c-154 301 -283 555 -287 565 -4 10 -9 18 -11 18 -2 0 -18 -102 -36
-227z"/>
<path d="M1759 7432 l-265 -567 -532 -420 c-312 -246 -534 -428 -536 -440 -5
-19 -34 -1027 -30 -1033 4 -7 1149 1270 1496 1668 55 64 57 67 82 185 14 66
52 248 86 404 l60 284 -42 236 c-23 130 -44 239 -47 243 -4 4 -126 -248 -272
-560z"/>
<path d="M6220 7855 c-47 -7 -172 -25 -279 -39 -107 -15 -197 -29 -202 -31
-10 -6 -112 -196 -107 -200 2 -1 52 -10 112 -20 l108 -17 234 157 c129 87 234
159 234 161 0 2 -3 3 -7 3 -5 -1 -46 -7 -93 -14z"/>
<path d="M3132 7825 c7 -7 113 -76 236 -155 l222 -142 115 17 c63 10 115 19
115 21 0 6 -112 204 -115 204 -6 0 -446 50 -518 58 -53 7 -65 6 -55 -3z"/>
<path d="M6946 6889 l-336 -571 -45 -373 c-25 -205 -45 -404 -45 -441 l0 -68
58 80 c246 336 872 1214 872 1223 0 12 -161 715 -165 719 -1 1 -153 -255 -339
-569z"/>
<path d="M2176 7383 c-3 -10 -37 -170 -76 -355 l-71 -338 62 -92 c34 -50 202
-284 373 -518 171 -235 347 -478 391 -541 66 -94 80 -110 83 -90 2 12 -1 114
-7 225 -9 163 -18 243 -50 409 l-39 205 -330 557 c-224 376 -332 550 -336 538z"/>
<path d="M5720 6999 c-85 -39 -159 -74 -164 -79 -9 -9 199 -381 315 -567 40
-62 157 -210 304 -383 132 -155 246 -289 252 -298 7 -8 15 -14 17 -11 4 4 74
564 79 632 2 23 -51 91 -308 402 -170 206 -317 374 -325 374 -8 0 -85 -31
-170 -70z"/>
<path d="M3236 6679 c-175 -218 -306 -390 -306 -402 0 -11 16 -104 36 -206 21
-106 39 -235 43 -300 l6 -113 240 277 c132 153 254 299 271 324 17 25 107 181
199 345 155 278 166 301 149 313 -10 7 -21 13 -25 13 -5 0 -66 26 -136 59 -70
32 -138 61 -150 65 -20 6 -56 -36 -327 -375z"/>
<path d="M7451 6589 c-29 -39 -55 -78 -58 -85 -2 -7 76 -185 175 -396 99 -211
376 -804 617 -1318 240 -514 461 -984 489 -1045 51 -106 188 -315 194 -296 2
5 -63 470 -143 1033 -145 1014 -147 1023 -174 1053 -15 17 -252 271 -526 565
-274 294 -503 541 -510 548 -9 10 -22 -1 -64 -59z"/>
<path d="M1485 6059 c-269 -303 -502 -567 -516 -587 -25 -35 -29 -60 -73 -417
-25 -209 -80 -654 -121 -989 -42 -335 -74 -614 -72 -619 10 -32 152 259 387
793 144 327 311 705 370 840 59 135 219 497 355 805 136 308 249 568 252 577
5 16 -73 147 -87 148 -3 0 -225 -248 -495 -551z"/>
<path d="M7311 6397 c-8 -12 -122 -172 -254 -355 -202 -281 -237 -336 -226
-347 8 -7 250 -203 539 -435 l525 -422 37 -167 c21 -91 103 -467 183 -836 125
-575 230 -1001 254 -1027 3 -4 66 177 140 403 l133 411 -523 1116 c-287 614
-542 1158 -565 1207 -23 50 -81 173 -129 275 -47 102 -89 188 -93 192 -4 4
-14 -3 -21 -15z"/>
<path d="M2003 6112 c-98 -223 -780 -1774 -1045 -2373 l-60 -136 133 -407 c73
-223 135 -406 139 -406 7 0 168 765 351 1670 l71 355 42 37 c22 20 257 215
521 433 264 218 481 401 483 406 4 9 -497 699 -507 699 -3 0 -61 -125 -128
-278z"/>
<path d="M3635 6278 c-26 -47 -140 -187 -329 -407 l-288 -335 6 -106 c4 -58 9
-139 13 -180 l6 -75 176 -161 177 -162 404 -39 405 -40 235 60 c129 33 237 62
240 64 6 5 -83 364 -95 379 -5 8 -104 45 -220 84 -115 39 -222 75 -237 81 -17
7 -46 42 -84 102 -32 51 -95 148 -140 218 -82 125 -82 125 -150 350 -37 123
-70 227 -73 231 -4 4 -24 -25 -46 -64z"/>
<path d="M5751 6283 c-11 -38 -41 -144 -67 -238 -29 -105 -55 -180 -68 -196
-12 -14 -76 -111 -143 -215 l-122 -189 -235 -78 c-129 -43 -239 -83 -244 -90
-8 -10 -79 -314 -85 -366 -2 -11 58 -30 233 -76 l235 -61 412 31 411 31 44 39
c23 21 104 95 180 163 l136 124 1 186 0 187 -290 340 c-159 186 -307 370 -330
407 -22 37 -42 68 -44 68 -2 0 -13 -30 -24 -67z"/>
<path d="M4352 6073 c-193 -81 -351 -147 -350 -148 2 -2 140 -30 308 -64 168
-34 312 -64 321 -67 9 -2 33 -29 54 -59 21 -31 41 -58 45 -60 5 -3 23 18 41
47 19 28 36 55 39 59 5 7 607 139 634 139 6 0 6 3 0 9 -12 12 -711 291 -727
290 -7 0 -171 -66 -365 -146z"/>
<path d="M3950 5846 c0 -12 213 -336 221 -336 5 0 117 -37 248 -82 l240 -82
31 -130 c18 -72 34 -138 37 -146 3 -8 18 41 34 110 16 69 31 134 34 145 4 17
48 36 254 105 l249 85 106 164 c58 90 104 166 102 168 -4 5 -624 -125 -638
-133 -4 -3 -36 -46 -69 -95 -33 -49 -63 -88 -67 -85 -4 2 -36 45 -72 94 -62
87 -67 91 -115 100 -27 6 -171 36 -319 66 -297 62 -276 58 -276 52z"/>
<path d="M6703 5550 c-35 -49 -63 -94 -63 -100 0 -6 122 -159 270 -340 l270
-329 10 -1138 c5 -626 12 -1295 15 -1488 3 -192 5 -403 5 -467 0 -65 3 -118 8
-118 4 0 25 30 48 67 41 69 331 542 707 1155 114 185 207 343 207 351 0 12
-37 184 -170 792 -22 99 -71 326 -110 505 -39 179 -74 332 -78 341 -5 13
-1047 860 -1055 859 -1 -1 -30 -41 -64 -90z"/>
<path d="M2190 5209 c-272 -225 -501 -416 -508 -423 -7 -7 -33 -111 -58 -232
-25 -120 -76 -370 -114 -554 -38 -184 -93 -453 -123 -596 l-54 -262 212 -338
c116 -187 334 -536 484 -776 150 -241 275 -438 278 -438 3 0 2 717 -2 1593
l-7 1592 261 330 c144 181 260 334 257 340 -8 21 -118 175 -124 175 -4 -1
-230 -185 -502 -411z"/>
<path d="M6551 5339 c-29 -40 -31 -48 -31 -128 l0 -86 -205 -185 c-113 -102
-205 -186 -205 -188 0 -3 132 -342 410 -1052 48 -124 201 -515 340 -870 139
-355 254 -647 257 -650 5 -5 -1 899 -13 2014 l-7 560 -250 305 c-138 168 -253
310 -257 314 -4 5 -21 -11 -39 -34z"/>
<path d="M2626 5058 l-248 -313 7 -1250 c4 -687 8 -1251 9 -1252 1 -2 29 70
376 977 313 819 331 865 464 1213 69 180 126 331 126 335 0 5 -89 90 -198 189
l-199 181 -6 67 c-5 55 -12 75 -43 116 -19 27 -37 49 -38 49 -1 0 -114 -141
-250 -312z"/>
<path d="M4585 4788 c-60 -17 -111 -31 -113 -33 -2 -2 14 -30 35 -64 l38 -61
187 0 186 0 37 51 c20 28 38 56 41 63 5 13 -225 77 -272 75 -16 -1 -78 -14
-139 -31z"/>
<path d="M3473 4738 c3 -13 15 -76 27 -141 21 -109 25 -120 54 -141 17 -13
184 -130 371 -260 l339 -236 476 0 475 0 365 254 365 253 26 139 c15 77 26
140 25 141 -1 1 -170 -11 -376 -27 l-375 -30 -79 22 c-52 14 -80 17 -85 10 -3
-5 -31 -46 -61 -91 l-55 -81 -232 0 -232 0 -48 76 c-27 41 -53 83 -59 91 -10
15 -19 14 -95 -5 l-84 -21 -355 34 c-195 19 -363 35 -374 35 -14 0 -17 -5 -13
-22z"/>
<path d="M3357 4523 c-25 -65 -91 -235 -145 -378 -115 -300 -275 -717 -566
-1478 -113 -296 -206 -541 -206 -546 0 -4 50 -81 111 -172 61 -90 237 -352
392 -582 154 -230 284 -414 288 -410 4 4 43 121 87 258 69 213 90 296 142 560
34 171 90 456 125 635 35 179 99 501 141 715 l76 390 250 180 250 180 -39 6
c-29 4 -132 71 -423 274 -212 147 -386 269 -388 270 -1 1 -11 48 -22 105 -11
57 -21 105 -23 107 -3 2 -25 -49 -50 -114z"/>
<path d="M6061 4638 c-1 -4 -7 -37 -15 -75 -8 -37 -17 -85 -20 -105 -6 -35
-19 -46 -234 -196 -553 -386 -544 -380 -596 -384 l-47 -3 251 -189 c137 -104
250 -191 250 -194 0 -5 140 -657 300 -1397 50 -231 100 -463 110 -515 18 -90
199 -650 210 -650 3 1 182 262 398 581 l394 579 -255 653 c-739 1889 -746
1905 -746 1895z"/>
<path d="M4495 3843 c29 -76 225 -636 225 -645 0 -36 28 38 124 328 58 176
106 324 106 327 0 4 -104 7 -231 7 -216 0 -231 -1 -224 -17z"/>
<path d="M4374 3828 c-16 -14 -131 -97 -256 -187 -124 -89 -231 -167 -236
-174 -5 -7 -23 -84 -40 -172 -17 -88 -60 -308 -96 -490 -36 -181 -110 -559
-165 -840 l-100 -510 109 -398 c108 -396 109 -401 150 -700 22 -166 43 -313
46 -327 5 -20 12 -8 39 65 18 50 70 191 115 315 l83 225 -12 210 c-7 116 -20
332 -30 480 l-18 270 384 500 c211 275 387 498 391 496 6 -4 201 -252 669
-851 l113 -145 0 -60 c0 -33 -9 -261 -20 -506 l-20 -446 111 -274 c106 -261
129 -311 129 -279 0 8 18 154 40 325 40 309 40 312 144 699 l103 388 -79 367
c-214 992 -299 1388 -325 1509 l-28 134 -258 194 c-141 107 -263 197 -270 199
-8 3 -55 -125 -145 -400 l-133 -405 -38 0 -38 0 -133 378 c-74 207 -139 390
-145 405 l-12 28 -29 -23z"/>
<path d="M4507 2169 l-225 -293 62 -75 c35 -42 136 -166 226 -276 89 -110 168
-200 174 -200 6 0 111 123 233 273 l222 273 -215 277 c-119 152 -224 285 -234
295 -17 18 -26 8 -243 -274z"/>
</g>
</svg>
