<?xml version="1.0" standalone="no"?>
<!DOCTYPE svg PUBLIC "-//W3C//DTD SVG 20010904//EN"
 "http://www.w3.org/TR/2001/REC-SVG-20010904/DTD/svg10.dtd">
<svg version="1.0" xmlns="http://www.w3.org/2000/svg"
 width="1280.000000pt" height="833.000000pt" viewBox="0 0 1280.000000 833.000000"
 preserveAspectRatio="xMidYMid meet">
<metadata>
Created by potrace 1.15, written by Peter Selinger 2001-2017
</metadata>
<g transform="translate(0.000000,833.000000) scale(0.100000,-0.100000)"
fill="#000000" stroke="none">
<path d="M6361 8257 c-169 -281 -413 -711 -590 -1045 -103 -193 -228 -476
-316 -714 l-57 -158 -92 79 c-386 331 -897 635 -1365 812 -57 22 -106 38 -107
36 -2 -1 -10 -68 -19 -147 -23 -199 -31 -724 -15 -917 11 -139 51 -409 67
-449 5 -13 3 -16 -8 -11 -130 57 -325 136 -435 177 -302 113 -864 293 -1211
388 l-73 20 -9 -36 c-20 -75 -33 -228 -26 -311 13 -153 68 -302 146 -393 33
-40 54 -51 186 -103 278 -111 538 -252 655 -354 25 -23 49 -41 52 -41 7 0 -58
178 -104 283 -21 48 -34 87 -29 87 16 0 394 -143 554 -210 635 -263 1172 -538
1654 -848 125 -80 165 -102 171 -91 5 7 16 44 24 82 43 190 249 676 426 1004
194 360 489 879 555 976 12 16 20 7 78 -90 176 -295 580 -1022 644 -1163 103
-224 245 -588 293 -750 12 -41 23 -76 25 -78 1 -2 67 39 146 91 521 339 1104
632 1741 876 211 80 539 193 545 187 2 -2 -24 -59 -58 -127 -87 -173 -179
-369 -173 -369 2 0 23 17 47 38 133 122 393 280 712 432 168 81 193 100 263
201 51 75 121 223 157 333 34 104 75 293 75 345 l0 29 -112 -30 c-751 -197
-1471 -415 -1709 -517 -51 -22 -95 -39 -97 -36 -2 2 3 34 11 72 73 326 87 837
37 1313 -6 52 -13 105 -15 117 l-5 22 -80 -29 c-478 -176 -1011 -492 -1398
-829 -91 -79 -112 -92 -112 -71 0 44 -207 554 -301 742 -118 236 -541 991
-655 1170 l-50 77 -43 -72z"/>
<path d="M6302 5518 c-225 -377 -529 -936 -612 -1123 -414 -934 -528 -1682
-344 -2260 34 -109 131 -305 191 -390 187 -262 463 -465 782 -576 l93 -32 72
22 c113 37 291 125 411 205 722 483 864 1398 408 2626 -76 204 -164 413 -229
543 -126 251 -613 1111 -659 1165 -2 2 -52 -79 -113 -180z"/>
<path d="M10 5523 c0 -1 33 -27 74 -58 283 -213 529 -653 666 -1195 55 -216
118 -380 237 -613 149 -291 327 -534 562 -767 295 -292 638 -520 1037 -689
304 -128 653 -224 936 -257 l56 -6 -117 118 c-315 318 -489 751 -562 1394 -16
132 -17 665 -2 804 l9 89 -36 46 c-61 76 -249 251 -355 331 -449 335 -1077
582 -1834 720 -209 38 -671 96 -671 83z"/>
<path d="M12565 5509 c-683 -76 -1360 -263 -1848 -511 -288 -147 -497 -296
-705 -505 -142 -142 -144 -144 -138 -181 12 -74 26 -320 26 -462 0 -388 -55
-763 -160 -1080 -97 -298 -227 -517 -421 -714 l-117 -118 56 6 c351 41 796
177 1140 350 626 314 1106 786 1405 1381 110 219 171 377 223 575 99 377 218
661 378 899 77 116 230 278 316 335 l55 36 -65 -1 c-36 -1 -101 -6 -145 -10z"/>
<path d="M3104 4698 c89 -125 101 -243 76 -743 -32 -610 31 -1027 217 -1454
306 -705 792 -1088 1459 -1152 122 -11 297 -7 414 11 101 16 220 42 219 49 0
3 -26 27 -58 53 -112 90 -241 273 -316 448 -146 340 -201 873 -140 1365 21
171 21 191 -8 263 -82 202 -305 423 -637 631 -255 160 -715 370 -1094 500
-135 47 -147 49 -132 29z"/>
<path d="M9495 4651 c-657 -233 -1169 -514 -1456 -800 -102 -103 -162 -184
-210 -284 -42 -89 -44 -112 -23 -275 26 -204 27 -682 1 -857 -64 -429 -209
-747 -438 -959 -40 -37 -70 -69 -67 -71 13 -13 209 -46 335 -57 468 -38 910
109 1251 418 304 275 564 770 666 1266 58 283 64 458 40 1204 -5 129 -3 213 5
260 13 71 50 165 78 196 9 10 14 20 12 22 -2 2 -89 -26 -194 -63z"/>
<path d="M845 2934 c-215 -33 -429 -91 -572 -155 -79 -35 -187 -106 -227 -148
l-30 -31 35 -36 c139 -146 415 -308 692 -407 15 -6 4 -18 -60 -63 -43 -31
-109 -81 -146 -112 -71 -58 -277 -269 -277 -284 0 -5 24 -5 53 -1 86 13 389 7
582 -12 99 -9 182 -19 184 -21 2 -2 -29 -39 -70 -81 -122 -128 -270 -308 -312
-380 -19 -32 468 -136 765 -164 185 -17 577 -7 746 20 155 24 310 59 439 101
50 17 95 30 98 30 11 0 -197 -240 -228 -264 -76 -57 -226 -117 -387 -156 -52
-12 -99 -26 -103 -30 -20 -18 341 -106 588 -144 252 -39 408 -50 725 -50 456
0 835 40 1344 144 83 16 153 27 156 23 4 -5 30 -38 59 -75 119 -154 343 -334
530 -427 171 -86 378 -152 586 -188 126 -21 497 -24 630 -5 443 64 803 226
1079 484 45 42 111 112 145 156 35 44 68 79 75 77 36 -12 266 -58 416 -84 403
-70 747 -101 1130 -101 378 0 679 29 975 95 140 31 325 85 325 95 0 4 -27 13
-60 19 -142 28 -332 98 -414 152 -41 28 -252 266 -243 275 2 2 37 -7 77 -21
250 -85 498 -125 822 -132 273 -6 412 3 658 43 155 26 467 99 484 114 16 16
-145 220 -303 382 -46 49 -83 90 -80 92 2 2 85 12 184 21 197 19 471 24 579
12 l69 -8 -44 53 c-105 126 -264 268 -403 361 -44 29 -64 48 -55 51 259 91
482 217 663 372 l79 68 -56 52 c-98 91 -243 161 -457 220 -139 38 -310 70
-427 80 l-78 6 -23 -43 c-80 -155 -412 -499 -685 -712 -273 -213 -473 -318
-784 -412 -300 -91 -711 -138 -914 -103 -67 12 -71 11 -82 -7 -22 -41 -145
-160 -237 -229 -334 -252 -707 -405 -1160 -477 -172 -27 -506 -37 -572 -16
l-47 15 -26 -44 c-61 -104 -243 -189 -498 -234 -130 -22 -335 -41 -392 -35
-22 3 -94 10 -160 16 -325 29 -628 117 -745 216 l-33 28 -191 1 c-393 4 -740
81 -1060 238 -266 130 -539 341 -642 495 l-28 43 -56 -8 c-77 -12 -356 -9
-470 5 -52 6 -151 23 -220 37 -539 108 -901 315 -1366 779 -186 185 -284 299
-336 392 -30 52 -30 53 -76 52 -26 -1 -87 -7 -137 -15z"/>
</g>
</svg>
