<?xml version="1.0" standalone="no"?>
<!DOCTYPE svg PUBLIC "-//W3C//DTD SVG 20010904//EN"
 "http://www.w3.org/TR/2001/REC-SVG-20010904/DTD/svg10.dtd">
<svg version="1.0" xmlns="http://www.w3.org/2000/svg"
 width="1264.000000pt" height="1280.000000pt" viewBox="0 0 1264.000000 1280.000000"
 preserveAspectRatio="xMidYMid meet">
<metadata>
Created by potrace 1.15, written by Peter Selinger 2001-2017
</metadata>
<g transform="translate(0.000000,1280.000000) scale(0.100000,-0.100000)"
fill="#000000" stroke="none">
<path d="M6253 12597 c-34 -106 -120 -372 -191 -592 -72 -220 -165 -507 -208
-637 l-77 -238 -1537 0 -1538 0 -26 -77 c-13 -43 -83 -258 -155 -478 -71 -220
-188 -580 -259 -800 -72 -220 -183 -562 -247 -760 -64 -198 -149 -459 -189
-580 l-72 -220 -875 -5 -874 -5 706 -514 707 -513 -23 -72 c-13 -39 -83 -253
-155 -476 -72 -223 -162 -499 -200 -615 -38 -115 -125 -384 -194 -597 -69
-214 -182 -561 -251 -772 -69 -211 -125 -386 -125 -389 0 -4 444 -329 987
-724 544 -394 1102 -800 1240 -901 139 -101 253 -188 253 -194 0 -6 -79 -254
-176 -552 -97 -297 -216 -664 -265 -815 -49 -151 -87 -276 -85 -279 3 -2 320
226 706 506 l702 510 216 -157 c119 -87 679 -493 1245 -904 l1027 -747 1028
747 c565 411 1124 817 1244 904 l216 157 702 -510 c386 -280 703 -508 706
-506 2 3 -36 128 -85 279 -49 151 -168 518 -265 815 -97 298 -176 546 -176
552 0 6 114 93 253 194 138 101 696 507 1240 901 543 395 987 721 987 725 0 4
-27 88 -59 187 -33 99 -119 362 -191 585 -72 223 -190 585 -262 805 -71 220
-188 580 -259 800 -72 220 -141 432 -154 471 l-23 72 707 513 706 514 -874 5
-875 5 -72 220 c-40 121 -127 387 -193 590 -146 451 -478 1477 -567 1750 -36
110 -77 235 -91 278 l-25 77 -1538 0 -1537 0 -77 238 c-43 130 -136 417 -208
637 -71 220 -157 486 -191 592 -34 106 -64 192 -67 192 -3 0 -33 -86 -67 -192z"/>
</g>
</svg>
