<?xml version="1.0" standalone="no"?>
<!DOCTYPE svg PUBLIC "-//W3C//DTD SVG 20010904//EN"
 "http://www.w3.org/TR/2001/REC-SVG-20010904/DTD/svg10.dtd">
<svg version="1.0" xmlns="http://www.w3.org/2000/svg"
 width="1280.000000pt" height="1280.000000pt" viewBox="0 0 1280.000000 1280.000000"
 preserveAspectRatio="xMidYMid meet">
<metadata>
Created by potrace 1.15, written by Peter Selinger 2001-2017
</metadata>
<g transform="translate(0.000000,1280.000000) scale(0.100000,-0.100000)"
fill="#000000" stroke="none">
<path d="M6235 12720 c-685 -101 -1290 -1201 -1633 -2970 -22 -113 -48 -254
-57 -315 -10 -60 -21 -114 -25 -118 -5 -5 -86 19 -181 53 -714 257 -1457 455
-2019 539 -480 72 -939 80 -1243 21 -133 -26 -308 -87 -402 -141 -148 -83
-269 -229 -318 -384 -18 -57 -22 -93 -22 -195 1 -134 23 -242 81 -388 247
-622 1010 -1436 2126 -2266 l187 -139 -189 -143 c-778 -588 -1374 -1153 -1752
-1661 -237 -318 -381 -601 -433 -851 -20 -96 -19 -267 1 -346 116 -452 665
-641 1594 -550 644 63 1486 273 2390 597 85 30 161 57 169 59 10 2 20 -39 42
-167 286 -1688 814 -2852 1434 -3160 136 -68 232 -89 380 -82 174 7 301 55
460 175 501 373 925 1313 1190 2637 29 149 66 348 81 443 15 94 31 172 35 172
5 0 63 -21 131 -46 68 -25 256 -90 418 -145 1548 -519 2728 -643 3294 -346 94
49 226 172 270 252 170 309 76 726 -282 1250 -369 541 -1055 1209 -1852 1805
-69 51 -129 96 -133 100 -4 4 89 80 207 169 722 543 1323 1107 1692 1586 311
406 475 769 476 1060 0 181 -47 309 -156 424 -332 349 -1104 411 -2248 180
-442 -89 -925 -224 -1501 -419 -165 -56 -301 -99 -303 -97 -3 2 -18 82 -34
178 -204 1179 -533 2120 -948 2704 -86 121 -290 322 -396 391 -177 114 -357
160 -531 134z m284 -293 c97 -34 205 -103 300 -193 348 -328 666 -1050 880
-2002 93 -411 194 -1003 176 -1021 -6 -5 -181 -78 -390 -161 -436 -175 -728
-299 -968 -410 l-168 -78 -112 53 c-276 130 -786 347 -1229 524 -176 70 -208
86 -208 104 0 38 70 442 120 687 108 537 233 978 392 1382 257 656 578 1060
902 1134 87 20 216 12 305 -19z m4909 -2693 c342 -50 562 -190 631 -402 28
-84 29 -229 1 -335 -114 -446 -619 -1058 -1436 -1738 -258 -215 -817 -642
-879 -671 -18 -8 -50 11 -205 122 -314 224 -676 459 -1065 692 l-140 84 -7 95
c-3 52 -11 186 -18 299 -18 340 -52 655 -107 1013 -14 92 -23 170 -20 173 19
19 621 224 952 324 705 213 1329 338 1810 364 122 6 376 -4 483 -20z m-9313
-32 c421 -56 848 -149 1363 -298 309 -89 999 -318 1019 -338 3 -3 -4 -56 -15
-118 -60 -323 -100 -698 -135 -1278 l-12 -194 -220 -135 c-121 -74 -431 -276
-689 -449 -257 -172 -474 -311 -481 -308 -34 13 -452 325 -685 512 -938 750
-1519 1442 -1616 1923 -77 386 157 629 673 700 118 17 627 5 798 -17z m2835
-814 c273 -103 629 -258 944 -411 l148 -72 -108 -44 c-140 -56 -408 -190 -599
-299 -82 -47 -253 -142 -380 -212 -126 -70 -251 -140 -277 -155 l-48 -27 0 34
c0 171 91 1056 126 1221 7 35 7 35 194 -35z m2954 54 c9 -16 56 -299 76 -462
27 -222 67 -810 56 -810 -3 0 -55 31 -115 69 -261 165 -870 490 -1154 617
l-109 48 64 32 c165 82 1138 511 1165 513 6 1 14 -3 17 -7z m-1115 -919 c355
-180 922 -489 1202 -655 l66 -39 7 -63 c29 -283 34 -871 11 -1299 -8 -155 -16
-324 -18 -376 l-2 -93 -144 -90 c-249 -157 -741 -424 -1168 -635 l-412 -204
-448 225 c-456 229 -824 428 -1103 597 l-155 94 -12 75 c-30 196 -37 375 -37
885 1 460 11 753 30 860 5 27 28 43 242 167 425 246 879 487 1202 638 118 55
229 107 245 114 17 8 38 15 49 15 10 1 210 -96 445 -216z m-2502 -1235 c-8
-263 -8 -486 0 -740 6 -200 9 -364 8 -366 -7 -8 -516 315 -868 551 -216 145
-266 182 -255 192 73 68 1113 755 1123 743 2 -2 -2 -173 -8 -380z m4241 285
c266 -163 949 -624 967 -652 6 -11 -63 -63 -292 -219 -182 -123 -836 -544
-838 -539 -1 1 3 74 8 162 10 184 3 1301 -8 1328 -4 9 -4 17 -1 17 4 0 77 -43
164 -97z m-5113 -1142 c211 -141 516 -327 790 -483 l130 -74 7 -179 c15 -390
61 -882 114 -1225 14 -91 26 -174 27 -184 2 -24 -83 -58 -508 -201 -1502 -506
-2625 -635 -3095 -356 -173 103 -259 267 -247 471 32 556 780 1407 2115 2407
l203 152 122 -91 c67 -50 221 -156 342 -237z m6490 201 c1449 -1059 2252
-2007 2175 -2570 -58 -427 -578 -586 -1490 -456 -586 83 -1341 292 -2174 601
l-238 88 6 40 c3 22 17 111 30 198 51 318 86 687 107 1092 6 121 11 220 12
221 1 0 94 56 207 124 377 226 844 534 1105 729 93 69 62 77 260 -67z m-4865
-1204 c96 -52 272 -147 390 -211 212 -115 445 -227 548 -263 28 -10 52 -21 52
-25 0 -8 -365 -184 -571 -275 -264 -116 -685 -281 -694 -272 -13 12 -73 445
-95 678 -11 120 -30 467 -30 557 l0 53 113 -74 c61 -41 191 -116 287 -168z
m2990 56 c-12 -204 -33 -441 -55 -624 -23 -190 -66 -464 -75 -473 -8 -9 -251
79 -472 172 -321 133 -803 360 -791 372 4 4 64 31 133 60 265 112 918 454
1157 606 59 39 109 69 111 68 1 -1 -2 -83 -8 -181z m-1442 -812 c364 -182 704
-329 1187 -514 l90 -34 -3 -34 c-7 -76 -76 -496 -113 -690 -187 -962 -459
-1703 -779 -2129 -80 -105 -231 -249 -316 -299 -465 -277 -922 46 -1302 918
-211 486 -400 1189 -533 1979 -21 129 -39 239 -39 245 0 6 35 24 78 40 175 66
698 278 842 342 85 37 261 121 390 185 129 65 236 118 238 118 2 1 119 -57
260 -127z"/>
<path d="M6165 7045 c-272 -60 -468 -253 -521 -515 -30 -148 5 -325 90 -453
86 -130 246 -241 406 -284 102 -28 303 -25 400 6 250 77 417 246 476 481 24
93 15 241 -19 338 -72 207 -252 365 -481 422 -93 23 -257 26 -351 5z"/>
</g>
</svg>
