<?xml version="1.0" standalone="no"?>
<!DOCTYPE svg PUBLIC "-//W3C//DTD SVG 20010904//EN"
 "http://www.w3.org/TR/2001/REC-SVG-20010904/DTD/svg10.dtd">
<svg version="1.0" xmlns="http://www.w3.org/2000/svg"
 width="1280.000000pt" height="1280.000000pt" viewBox="0 0 1280.000000 1280.000000"
 preserveAspectRatio="xMidYMid meet">
<metadata>
Created by potrace 1.15, written by Peter Selinger 2001-2017
</metadata>
<g transform="translate(0.000000,1280.000000) scale(0.100000,-0.100000)"
fill="#000000" stroke="none">
<path d="M6368 12763 c-8 -21 -404 -1108 -878 -2415 l-864 -2378 -2313 0
c-2196 0 -2313 -1 -2312 -17 0 -11 336 -304 826 -723 1606 -1371 2648 -2262
2676 -2289 l27 -27 -655 -2428 c-361 -1335 -654 -2430 -652 -2433 3 -2 942
642 2087 1431 l2081 1436 2062 -1422 c1134 -781 2074 -1429 2089 -1440 18 -12
26 -14 23 -6 -2 7 -344 1104 -760 2438 -722 2317 -755 2425 -738 2442 10 9
853 692 1873 1518 1020 825 1856 1505 1858 1510 3 7 -795 10 -2307 10 l-2311
0 -10 23 c-6 12 -405 1097 -888 2411 -482 1314 -882 2391 -888 2393 -7 2 -18
-13 -26 -34z m20 -3880 l-3 -2978 -1230 -428 c-970 -337 -1234 -425 -1248
-417 -12 7 -2892 2399 -3006 2497 -3 2 5 13 17 25 l21 22 153 -47 c84 -26
1307 -407 2718 -846 1411 -439 2567 -797 2569 -795 2 1 -176 226 -395 500
-220 273 -555 691 -746 929 l-347 433 725 2029 c398 1115 727 2034 729 2041 2
6 14 12 25 12 l20 0 -2 -2977z m5480 -1235 c-3 -20 -245 -98 -2718 -874 -1493
-469 -2723 -855 -2733 -858 -11 -3 -15 0 -10 7 4 7 321 402 705 880 l699 867
2030 0 2030 0 -3 -22z m-4344 -2097 c610 -193 1112 -354 1116 -358 4 -4 316
-971 693 -2148 628 -1956 685 -2141 670 -2153 -14 -10 -20 -9 -34 5 -15 16
-3543 4959 -3562 4990 -4 7 -4 13 0 13 4 0 507 -157 1117 -349z m-1134 -948
l-1 -1278 -1818 -1284 c-1000 -706 -1822 -1285 -1826 -1285 -4 -1 -16 21 -26
49 l-19 50 23 31 c67 94 3662 4993 3665 4994 1 0 2 -575 2 -1277z"/>
</g>
</svg>
