<?xml version="1.0" standalone="no"?>
<!DOCTYPE svg PUBLIC "-//W3C//DTD SVG 20010904//EN"
 "http://www.w3.org/TR/2001/REC-SVG-20010904/DTD/svg10.dtd">
<svg version="1.0" xmlns="http://www.w3.org/2000/svg"
 width="1280.000000pt" height="1280.000000pt" viewBox="0 0 1280.000000 1280.000000"
 preserveAspectRatio="xMidYMid meet">
<metadata>
Created by potrace 1.15, written by Peter Selinger 2001-2017
</metadata>
<g transform="translate(0.000000,1280.000000) scale(0.100000,-0.100000)"
fill="#000000" stroke="none">
<path d="M5460 11865 l-935 -935 -1322 0 -1323 0 0 -1322 0 -1323 -942 -942
-943 -943 943 -943 942 -942 0 -1308 0 -1307 1307 0 1308 0 952 -952 953 -953
953 953 952 952 1303 0 1302 0 0 1302 0 1303 947 947 948 948 -947 948 -948
947 -2 1315 -3 1315 -1315 3 -1315 2 -935 935 c-514 514 -937 935 -940 935 -3
0 -426 -421 -940 -935z"/>
</g>
</svg>
