<?xml version="1.0" standalone="no"?>
<!DOCTYPE svg PUBLIC "-//W3C//DTD SVG 20010904//EN"
 "http://www.w3.org/TR/2001/REC-SVG-20010904/DTD/svg10.dtd">
<svg version="1.0" xmlns="http://www.w3.org/2000/svg"
 width="950.000000pt" height="1280.000000pt" viewBox="0 0 950.000000 1280.000000"
 preserveAspectRatio="xMidYMid meet">
<metadata>
Created by potrace 1.15, written by Peter Selinger 2001-2017
</metadata>
<g transform="translate(0.000000,1280.000000) scale(0.100000,-0.100000)"
fill="#000000" stroke="none">
<path d="M4092 12633 l3 -168 81 -3 82 -3 6 -257 c4 -141 8 -277 9 -302 l2
-45 -40 -3 c-22 -2 -184 -18 -360 -37 -176 -18 -321 -32 -322 -31 -2 1 -25
137 -52 302 -33 207 -45 301 -38 306 6 4 34 10 62 13 27 4 55 10 61 14 10 6
-36 324 -50 338 -3 4 -138 -15 -299 -40 -160 -26 -494 -79 -742 -118 -247 -39
-452 -73 -454 -75 -7 -6 52 -344 60 -344 4 0 42 7 85 15 43 8 80 12 83 10 6
-7 113 -597 108 -601 -9 -10 -623 -171 -629 -165 -4 3 -52 130 -106 281 -55
151 -103 283 -107 292 -8 20 -9 19 78 43 41 12 57 21 57 33 -1 22 -84 299 -93
308 -3 4 -28 0 -54 -9 -319 -102 -623 -200 -643 -207 -29 -10 -542 -175 -673
-216 -62 -20 -86 -32 -82 -41 2 -8 25 -79 51 -158 25 -80 50 -145 56 -145 5 0
41 10 80 21 39 12 73 18 78 13 5 -5 65 -162 135 -349 69 -187 160 -430 201
-540 41 -110 74 -203 74 -207 0 -5 -180 -8 -400 -8 l-400 0 3 -2957 c3 -3274
-2 -3009 67 -3420 182 -1083 714 -1990 1585 -2704 512 -420 1210 -786 1848
-969 95 -27 224 -58 287 -69 63 -11 180 -31 260 -45 349 -60 535 -153 636
-316 l37 -60 27 58 c73 156 296 257 745 342 330 62 844 212 1183 346 814 322
1458 830 1920 1515 118 175 208 333 317 554 263 535 441 1117 555 1823 l30
183 0 2844 0 2845 -401 0 c-365 0 -401 1 -395 16 3 9 103 253 222 543 119 289
220 536 225 548 l8 22 103 -35 c56 -18 107 -34 114 -34 6 0 15 10 18 23 3 12
26 83 50 159 l43 136 -716 237 c-394 130 -720 238 -726 239 -11 1 -118 -303
-111 -319 2 -6 51 -26 110 -45 71 -23 105 -38 102 -47 -3 -6 -44 -139 -92
-295 -47 -156 -89 -286 -93 -290 -5 -6 -648 187 -660 198 -4 4 128 586 134
593 3 3 32 0 65 -5 51 -9 61 -8 64 5 11 39 59 331 55 334 -4 4 -1447 238
-1483 241 -17 1 -22 -15 -42 -139 -33 -201 -35 -190 33 -204 31 -6 67 -11 80
-11 15 0 23 -6 22 -17 0 -10 -22 -144 -48 -298 l-47 -280 -29 3 c-143 17 -699
93 -703 97 -6 6 18 556 24 567 3 5 45 8 95 8 l89 0 0 165 0 165 -760 0 -760 0
2 -167z m1308 -1633 c622 -43 1204 -133 1775 -276 215 -54 585 -162 585 -170
0 -2 -1369 -4 -3042 -4 -1673 0 -3038 4 -3032 8 24 21 623 170 959 238 617
125 1122 186 1815 218 136 6 782 -3 940 -14z"/>
</g>
</svg>
