<?xml version="1.0" standalone="no"?>
<!DOCTYPE svg PUBLIC "-//W3C//DTD SVG 20010904//EN"
 "http://www.w3.org/TR/2001/REC-SVG-20010904/DTD/svg10.dtd">
<svg version="1.0" xmlns="http://www.w3.org/2000/svg"
 width="1279.000000pt" height="1280.000000pt" viewBox="0 0 1279.000000 1280.000000"
 preserveAspectRatio="xMidYMid meet">
<metadata>
Created by potrace 1.15, written by Peter Selinger 2001-2017
</metadata>
<g transform="translate(0.000000,1280.000000) scale(0.100000,-0.100000)"
fill="#000000" stroke="none">
<path d="M6690 12774 c-19 -14 -135 -88 -256 -166 l-222 -140 -180 -367 -179
-367 -144 -18 c-79 -10 -188 -26 -242 -35 -99 -18 -99 -18 -107 3 -4 12 -63
160 -131 331 -67 170 -122 314 -122 320 0 5 25 53 55 106 l55 96 -22 62 c-13
34 -25 65 -28 68 -6 5 -463 -402 -498 -443 -10 -12 -45 -159 -93 -394 -43
-206 -80 -384 -82 -395 -4 -14 -25 -28 -67 -44 -34 -13 -138 -58 -230 -99 -92
-41 -169 -73 -171 -71 -2 2 -98 131 -215 287 l-211 282 25 99 c14 55 25 108
25 118 0 20 -66 123 -78 123 -7 0 -211 -311 -360 -547 -11 -18 -10 -76 7 -385
12 -200 23 -384 26 -409 l5 -46 -97 -74 c-54 -41 -139 -109 -190 -151 -50 -43
-96 -78 -101 -78 -5 0 -135 97 -288 216 -252 195 -279 220 -281 248 -2 17 -6
72 -9 121 l-6 90 -54 44 c-30 24 -56 42 -57 40 -2 -2 -49 -148 -105 -324
l-102 -320 132 -390 132 -390 -95 -125 c-53 -69 -117 -155 -143 -192 -26 -38
-51 -68 -56 -68 -9 0 -649 276 -656 282 -2 3 -18 55 -35 115 l-31 111 -69 30
-69 31 0 -37 c0 -20 -7 -175 -16 -343 l-16 -306 204 -309 c112 -170 214 -326
226 -346 l23 -37 -74 -188 c-41 -103 -81 -207 -88 -231 -12 -41 -14 -43 -43
-38 -17 3 -175 26 -351 51 -176 25 -326 49 -333 53 -8 4 -39 50 -71 101 l-57
95 -69 13 c-38 7 -71 11 -73 9 -2 -2 29 -150 67 -328 39 -178 71 -326 71 -330
0 -4 521 -473 610 -548 17 -14 17 -21 -1 -145 -10 -71 -21 -176 -25 -232 -4
-56 -10 -106 -13 -112 -4 -5 -168 -30 -366 -55 l-360 -46 -81 81 -82 82 -76
-9 -75 -9 158 -304 157 -303 364 -179 c199 -98 367 -179 371 -179 10 0 15 -23
24 -95 3 -27 17 -125 32 -217 14 -93 25 -169 22 -171 -11 -9 -662 -267 -672
-267 -7 0 -56 24 -109 54 l-97 54 -71 -26 -71 -25 39 -41 c21 -23 125 -136
231 -253 105 -116 199 -214 209 -217 9 -3 188 -39 397 -81 209 -41 386 -78
393 -83 7 -4 37 -63 66 -132 29 -69 73 -168 98 -220 l45 -96 -291 -219 c-160
-121 -297 -219 -306 -218 -8 1 -59 13 -112 26 l-98 24 -60 -41 c-46 -32 -57
-43 -47 -53 6 -6 136 -89 287 -185 l275 -174 120 8 c471 32 711 46 717 42 4
-2 44 -53 90 -112 45 -59 111 -140 147 -181 46 -53 62 -78 55 -88 -5 -7 -106
-139 -224 -293 l-215 -279 -113 0 -113 -1 -30 -33 c-45 -48 -70 -85 -62 -90 5
-2 150 -48 323 -102 l315 -99 390 132 c215 73 396 132 403 132 7 0 45 -26 85
-58 40 -31 125 -94 189 -140 l117 -82 -45 -108 c-25 -59 -88 -211 -141 -338
l-96 -231 -111 -34 -111 -34 -31 -65 c-17 -36 -31 -66 -30 -67 1 -1 154 -9
339 -18 l338 -15 350 234 350 233 143 -57 c79 -32 181 -70 226 -85 l82 -27 -6
-32 c-2 -17 -24 -182 -47 -367 l-43 -337 -94 -57 c-53 -33 -97 -67 -102 -79
-4 -12 -11 -48 -15 -78 l-7 -56 73 18 c41 10 190 44 333 76 l258 58 272 315
c245 284 275 316 302 315 31 -1 316 -31 399 -42 l50 -7 46 -364 46 -363 -79
-83 -78 -83 1 -53 c2 -110 -22 -115 314 60 l300 156 190 380 190 380 65 7 c36
4 138 20 228 34 92 15 167 23 171 18 4 -5 68 -158 141 -340 l133 -332 -56
-102 -57 -103 37 -64 c20 -34 40 -63 44 -63 11 0 468 439 478 459 4 9 43 195
86 413 l79 398 109 45 c60 26 161 70 223 100 l114 53 63 -81 c35 -45 135 -176
222 -291 l158 -208 -26 -115 -27 -114 42 -60 c23 -32 45 -56 49 -52 29 32 359
570 359 586 0 16 -43 646 -53 780 -3 38 -1 40 108 125 60 48 145 117 188 154
l78 67 252 -195 c138 -107 269 -210 291 -227 l38 -32 5 -115 c6 -124 1 -114
77 -174 20 -16 39 -26 42 -24 6 7 195 618 196 638 1 8 -58 187 -130 396 -73
210 -132 386 -132 391 0 6 48 75 108 155 59 79 121 165 137 191 17 26 35 47
40 47 6 0 159 -61 341 -137 l332 -138 33 -110 34 -110 65 -31 c36 -17 66 -30
68 -29 1 1 9 155 16 341 l14 338 -232 345 -232 346 52 130 c29 72 68 174 86
228 l33 99 35 -6 c19 -3 181 -24 359 -46 179 -23 328 -43 331 -45 4 -2 33 -47
65 -99 l59 -95 69 -11 c37 -7 70 -10 73 -8 8 9 -147 663 -160 673 -7 6 -149
127 -315 270 l-303 259 6 41 c3 22 13 110 21 195 26 253 24 239 48 245 12 3
162 23 332 45 171 22 323 42 339 45 25 4 38 -5 110 -75 89 -86 100 -90 197
-72 l37 7 -157 300 -158 300 -134 68 c-74 37 -242 120 -374 185 l-240 117 -17
125 c-10 69 -27 174 -38 234 -12 60 -18 112 -13 117 4 4 156 67 336 140 l328
132 95 -41 c53 -23 101 -42 108 -42 19 0 123 44 125 53 1 5 -83 99 -186 210
-104 111 -207 221 -228 245 l-40 42 -215 40 c-118 21 -291 53 -385 70 -93 17
-179 34 -190 39 -13 5 -34 43 -59 102 -22 52 -66 150 -98 218 -32 68 -57 125
-56 126 2 1 131 99 287 219 l283 217 113 -27 113 -26 62 42 c34 23 60 43 58
45 -2 1 -133 84 -293 184 l-290 182 -50 -6 c-27 -3 -183 -14 -345 -25 -162
-11 -324 -23 -360 -26 l-65 -6 -55 73 c-30 40 -99 125 -152 189 -54 63 -96
121 -93 128 5 13 384 512 418 550 19 20 29 22 131 22 l111 0 47 58 c25 31 45
58 43 60 -2 2 -148 48 -325 102 l-323 99 -389 -134 -389 -135 -104 79 c-57 43
-147 107 -199 142 -68 45 -95 69 -92 81 2 9 64 160 137 336 l133 320 111 32
111 33 31 67 30 67 -116 7 c-64 3 -219 8 -346 11 l-230 6 -330 -225 c-181
-124 -334 -226 -340 -226 -7 0 -54 17 -106 38 -52 21 -150 58 -219 82 -69 24
-129 47 -133 51 -8 7 67 649 81 697 5 14 42 43 102 80 l95 59 11 69 c7 38 10
71 8 73 -4 4 -613 -135 -649 -149 -12 -5 -141 -147 -285 -316 l-262 -307 -62
7 c-267 28 -329 35 -333 39 -2 3 -35 166 -72 363 l-69 359 64 89 c36 50 63 95
60 101 -2 7 -7 37 -11 69 -4 31 -10 58 -14 60 -3 2 -22 -7 -41 -20z m250
-1443 c238 -28 431 -63 647 -116 1542 -380 2813 -1482 3408 -2955 394 -976
468 -2033 215 -3060 -321 -1299 -1186 -2443 -2350 -3104 -1538 -875 -3390
-875 -4930 -1 -878 499 -1608 1293 -2033 2211 -582 1257 -618 2675 -102 3954
250 619 616 1171 1090 1645 860 860 1996 1371 3220 1449 167 10 666 -3 835
-23z"/>
<path d="M6025 10955 c-948 -80 -1835 -443 -2565 -1050 -224 -187 -534 -512
-711 -747 -1093 -1452 -1229 -3400 -347 -4982 210 -377 440 -680 762 -1002
369 -368 716 -621 1166 -848 506 -256 1016 -407 1602 -473 214 -24 712 -24
926 0 695 79 1325 290 1902 637 530 320 1027 786 1387 1300 759 1085 1006
2465 673 3755 -177 685 -521 1337 -985 1865 -116 132 -380 390 -505 494 -648
541 -1433 893 -2269 1017 -319 47 -720 61 -1036 34z m605 -435 c1588 -97 2959
-1067 3574 -2528 140 -333 235 -694 292 -1102 24 -178 30 -655 10 -860 -50
-521 -179 -982 -406 -1445 -595 -1217 -1742 -2058 -3086 -2264 -225 -35 -362
-44 -619 -44 -407 0 -744 46 -1125 153 -1530 433 -2680 1714 -2944 3280 -47
276 -59 452 -53 775 6 315 21 460 76 731 194 958 711 1803 1473 2411 792 631
1807 954 2808 893z"/>
<path d="M6305 8531 c-70 -31 -125 -113 -125 -186 0 -43 23 -98 56 -135 121
-134 339 -60 352 119 3 47 0 69 -17 105 -48 98 -167 142 -266 97z"/>
<path d="M6230 7730 c-237 -33 -451 -120 -639 -259 -93 -69 -247 -231 -310
-327 -149 -225 -222 -471 -222 -744 0 -360 124 -666 373 -926 197 -205 437
-336 718 -391 116 -23 374 -23 490 0 278 55 518 185 714 387 250 258 377 571
377 930 0 357 -123 666 -368 921 -257 267 -566 405 -933 414 -74 2 -164 0
-200 -5z m373 -115 c282 -49 538 -193 724 -407 414 -478 400 -1189 -32 -1646
-246 -260 -549 -392 -900 -392 -345 0 -649 130 -891 381 -164 171 -270 372
-321 611 -24 114 -24 362 0 476 108 507 494 886 996 976 103 19 319 19 424 1z"/>
<path d="M6167 7490 c-347 -73 -629 -298 -782 -623 -195 -412 -109 -916 212
-1242 146 -149 316 -248 531 -307 66 -19 103 -22 267 -22 164 0 201 3 267 22
272 75 488 223 640 437 373 525 226 1250 -321 1593 -99 62 -241 118 -361 142
-129 26 -328 26 -453 0z"/>
<path d="M6335 4648 c-123 -43 -174 -197 -103 -306 33 -49 114 -92 172 -92
106 1 206 100 206 205 0 135 -147 238 -275 193z"/>
</g>
</svg>
