<?xml version="1.0" standalone="no"?>
<!DOCTYPE svg PUBLIC "-//W3C//DTD SVG 20010904//EN"
 "http://www.w3.org/TR/2001/REC-SVG-20010904/DTD/svg10.dtd">
<svg version="1.0" xmlns="http://www.w3.org/2000/svg"
 width="1278.000000pt" height="1280.000000pt" viewBox="0 0 1278.000000 1280.000000"
 preserveAspectRatio="xMidYMid meet">
<metadata>
Created by potrace 1.15, written by Peter Selinger 2001-2017
</metadata>
<g transform="translate(0.000000,1280.000000) scale(0.100000,-0.100000)"
fill="#000000" stroke="none">
<path d="M6240 12785 c-300 -64 -537 -297 -605 -595 -23 -103 -22 -263 3 -360
97 -371 417 -606 796 -587 227 12 409 103 559 282 228 272 238 678 22 963 -96
127 -258 237 -415 282 -96 28 -269 35 -360 15z"/>
<path d="M5205 11851 c-63 -16 -127 -52 -180 -102 -213 -201 -141 -556 132
-659 48 -18 74 -21 153 -18 81 3 105 8 155 33 80 38 149 110 188 193 29 61 32
75 32 167 0 87 -3 107 -27 157 -31 67 -92 135 -156 177 -80 51 -208 73 -297
52z"/>
<path d="M7390 11845 c-297 -84 -393 -443 -176 -661 32 -31 81 -67 113 -82 52
-24 70 -27 163 -27 93 0 112 3 162 27 160 75 254 249 227 420 -37 232 -268
384 -489 323z"/>
<path d="M4621 11316 c-84 -30 -152 -121 -155 -207 l-1 -48 -25 23 c-93 87
-231 86 -320 -3 -120 -121 -82 -300 84 -398 36 -21 92 -15 161 18 95 45 145
113 145 199 0 22 3 40 6 40 4 0 22 -13 40 -30 134 -117 359 -15 372 171 12
163 -154 290 -307 235z"/>
<path d="M8030 11321 c-82 -25 -141 -84 -165 -163 -8 -28 -15 -57 -15 -63 0
-35 35 -120 62 -151 48 -54 102 -78 178 -79 53 0 73 5 112 28 26 15 54 37 63
49 14 22 15 20 15 -28 0 -106 77 -201 182 -223 192 -42 346 154 258 329 -71
141 -257 173 -371 64 l-26 -25 -6 54 c-3 30 -13 69 -21 86 -50 96 -170 151
-266 122z"/>
<path d="M2280 11135 c-165 -33 -287 -99 -410 -224 -70 -70 -94 -104 -133
-181 -67 -136 -82 -199 -81 -355 0 -92 5 -149 18 -194 77 -282 291 -494 571
-567 95 -25 285 -25 375 0 280 76 500 299 567 573 23 94 22 276 -1 368 -106
411 -497 662 -906 580z"/>
<path d="M3488 11135 c-186 -51 -313 -255 -279 -447 49 -280 370 -418 608
-262 229 150 234 494 10 648 -100 69 -228 92 -339 61z"/>
<path d="M9072 11131 c-66 -23 -148 -79 -185 -126 -16 -20 -40 -61 -55 -93
-24 -51 -27 -69 -27 -162 1 -95 3 -111 30 -165 37 -77 113 -153 190 -190 55
-27 70 -30 165 -30 97 0 110 2 170 31 305 144 305 574 0 718 -84 39 -205 46
-288 17z"/>
<path d="M10220 11136 c-235 -49 -439 -201 -543 -403 -54 -104 -74 -171 -87
-281 -57 -505 398 -935 898 -848 294 51 524 245 618 521 25 73 28 93 28 235 1
136 -2 164 -22 230 -46 144 -112 250 -219 353 -87 83 -180 137 -308 177 -90
28 -271 36 -365 16z"/>
<path d="M6135 11133 c-659 -39 -1252 -194 -1830 -478 -1432 -702 -2413 -2074
-2615 -3658 -87 -681 -19 -1407 190 -2052 55 -169 55 -166 31 -124 -73 132
-257 162 -365 61 -40 -38 -76 -118 -76 -172 0 -92 76 -197 160 -220 19 -6 53
-10 75 -10 l39 0 -36 -37 c-47 -49 -68 -99 -68 -165 1 -200 243 -303 389 -165
146 139 52 397 -146 397 l-47 0 31 33 c51 53 67 95 68 169 0 36 1 66 1 65 1
-1 26 -65 57 -142 367 -922 1045 -1731 1895 -2259 1105 -688 2446 -890 3708
-560 814 212 1548 636 2154 1243 350 351 615 713 847 1156 46 88 81 149 78
136 -13 -45 -6 -130 14 -168 60 -119 189 -164 306 -109 60 28 87 56 114 116
37 81 23 171 -36 240 l-35 40 47 0 c149 0 261 159 211 299 -24 65 -59 106
-118 135 -201 100 -410 -113 -308 -314 10 -20 26 -42 34 -49 26 -22 18 -31
-26 -31 -54 0 -120 -33 -158 -78 -26 -31 -21 -16 36 119 133 310 254 724 309
1054 49 296 59 436 59 795 0 253 -4 373 -17 490 -41 363 -118 715 -222 1019
l-25 75 35 -41 c47 -56 107 -83 178 -83 93 0 168 44 208 123 80 156 -30 337
-206 337 l-39 0 36 38 c47 48 68 98 68 164 0 67 -26 124 -75 167 -51 44 -93
61 -155 61 -176 0 -284 -183 -202 -341 37 -71 112 -119 186 -119 l50 0 -31
-32 c-43 -44 -72 -113 -73 -168 0 -43 -3 -38 -52 85 -104 258 -289 608 -453
856 -284 427 -689 854 -1105 1165 -829 620 -1843 953 -2870 942 -96 -1 -197
-3 -225 -5z"/>
<path d="M1962 9590 c-111 -23 -230 -120 -280 -228 -24 -50 -27 -69 -27 -158
0 -96 2 -103 38 -176 58 -119 159 -194 291 -219 163 -30 343 65 419 220 30 62
32 73 32 171 0 98 -2 109 -33 171 -41 85 -129 169 -207 198 -65 24 -172 34
-233 21z"/>
<path d="M10672 9589 c-161 -31 -283 -156 -313 -322 -31 -168 61 -346 217
-423 73 -36 201 -45 285 -21 118 35 220 136 260 259 73 228 -69 464 -305 507
-67 12 -83 12 -144 0z"/>
<path d="M1794 8736 c-83 -37 -144 -127 -144 -216 0 -54 28 -126 61 -156 28
-26 23 -34 -21 -34 -76 0 -154 -50 -191 -122 -101 -199 109 -412 309 -312 140
70 173 250 66 364 l-23 25 50 2 c135 6 239 145 208 281 -14 67 -51 117 -112
152 -42 24 -63 30 -112 30 -33 -1 -74 -7 -91 -14z"/>
<path d="M1246 7890 c-67 -17 -155 -71 -206 -127 -68 -74 -93 -144 -94 -258
-1 -81 2 -97 31 -157 42 -90 110 -160 192 -201 61 -30 73 -32 166 -32 92 0
106 3 168 32 82 39 154 110 194 190 26 53 28 67 28 168 0 101 -2 115 -29 170
-64 130 -191 214 -334 221 -42 2 -94 -1 -116 -6z"/>
<path d="M11337 7875 c-286 -79 -386 -436 -183 -653 56 -60 122 -97 211 -117
125 -29 258 11 354 106 220 221 121 584 -183 665 -63 17 -135 16 -199 -1z"/>
<path d="M675 7183 c-171 -24 -336 -112 -462 -247 -79 -84 -134 -177 -174
-296 -30 -88 -33 -105 -33 -230 -1 -156 13 -220 74 -345 76 -154 194 -271 355
-350 115 -57 185 -76 311 -82 360 -19 675 205 785 557 20 64 24 96 24 215 0
119 -4 151 -23 215 -74 234 -250 427 -471 513 -121 47 -268 66 -386 50z"/>
<path d="M11839 7156 c-276 -58 -504 -268 -591 -546 -19 -64 -23 -96 -23 -215
0 -119 4 -151 23 -215 75 -239 254 -431 482 -517 299 -112 621 -34 840 204
387 422 215 1080 -330 1264 -82 27 -112 32 -215 35 -76 2 -144 -2 -186 -10z"/>
<path d="M1238 5691 c-119 -31 -214 -114 -270 -237 -18 -40 -22 -67 -22 -149
0 -94 2 -104 33 -167 78 -157 252 -249 417 -221 178 31 314 166 333 333 26
215 -101 395 -310 445 -80 18 -98 18 -181 -4z"/>
<path d="M11307 5666 c-113 -47 -174 -104 -225 -206 -24 -50 -27 -66 -27 -165
0 -101 2 -115 29 -170 40 -80 111 -149 194 -188 59 -27 78 -31 162 -31 87 -1
101 2 161 30 119 57 194 145 225 264 45 176 -47 370 -214 452 -56 28 -78 33
-156 35 -79 3 -99 0 -149 -21z"/>
<path d="M1966 3990 c-122 -21 -235 -109 -293 -228 -25 -51 -27 -68 -28 -162
0 -95 3 -111 29 -167 71 -154 259 -254 422 -224 219 40 364 244 325 457 -40
219 -239 361 -455 324z"/>
<path d="M10659 3990 c-112 -20 -229 -111 -282 -219 -30 -62 -32 -73 -32 -171
0 -98 2 -109 32 -170 78 -159 250 -250 416 -221 288 50 425 351 275 601 -80
132 -252 209 -409 180z"/>
<path d="M2295 3200 c-86 -14 -201 -55 -275 -98 -80 -46 -233 -197 -279 -274
-18 -32 -47 -97 -65 -145 -30 -85 -31 -94 -30 -248 0 -147 2 -167 27 -240 71
-210 207 -370 392 -461 109 -53 182 -73 297 -81 417 -29 784 282 828 702 33
314 -141 631 -422 768 -51 25 -122 53 -158 62 -80 20 -234 27 -315 15z"/>
<path d="M10205 3196 c-243 -48 -443 -201 -550 -421 -60 -123 -79 -204 -79
-345 1 -176 48 -324 148 -463 281 -392 865 -425 1197 -69 149 159 216 342 206
557 -7 134 -25 203 -83 320 -99 201 -288 354 -504 410 -90 23 -249 28 -335 11z"/>
<path d="M3475 2427 c-117 -39 -199 -110 -247 -214 -118 -252 55 -545 331
-561 167 -9 308 74 384 228 30 60 32 72 32 170 0 96 -3 110 -29 165 -38 77
-115 154 -191 190 -49 23 -76 29 -150 31 -57 3 -105 -1 -130 -9z"/>
<path d="M9084 2431 c-105 -27 -216 -119 -262 -218 -24 -52 -27 -70 -27 -163
0 -97 2 -110 31 -170 67 -140 210 -230 365 -230 68 0 167 34 224 77 107 82
159 186 159 323 0 113 -26 180 -101 260 -78 85 -158 122 -272 126 -47 2 -100
0 -117 -5z"/>
<path d="M4215 2111 c-85 -22 -146 -82 -171 -167 -54 -186 139 -353 316 -273
25 11 57 31 71 45 l26 25 6 -56 c17 -167 188 -262 335 -186 168 87 167 324 -3
414 -62 33 -156 30 -217 -6 -26 -15 -53 -36 -61 -48 -13 -18 -15 -15 -19 40
-5 76 -46 145 -108 183 -49 29 -125 42 -175 29z"/>
<path d="M8437 2106 c-93 -25 -167 -115 -167 -203 0 -23 -3 -43 -6 -43 -4 0
-22 13 -40 30 -98 85 -265 54 -338 -64 -79 -128 -21 -290 123 -341 81 -28 156
-14 221 43 52 44 80 100 83 162 l2 49 25 -23 c87 -81 220 -85 308 -10 145 124
86 364 -99 403 -59 13 -51 13 -112 -3z"/>
<path d="M7422 1729 c-121 -16 -238 -106 -295 -227 -29 -61 -32 -75 -32 -167
0 -93 2 -105 32 -166 41 -82 111 -150 201 -192 61 -29 75 -32 162 -32 86 1
101 4 161 33 179 86 269 289 211 478 -58 189 -239 301 -440 273z"/>
<path d="M5165 1715 c-139 -51 -238 -169 -265 -313 -49 -272 213 -516 480
-448 247 63 372 321 267 549 -36 78 -107 151 -185 189 -59 29 -77 33 -162 35
-64 2 -108 -2 -135 -12z"/>
<path d="M6224 1545 c-288 -62 -519 -288 -594 -579 -25 -100 -27 -267 -4 -364
23 -96 94 -236 156 -312 99 -119 251 -218 400 -260 491 -140 979 236 979 755
0 371 -245 676 -609 759 -85 19 -242 20 -328 1z"/>
</g>
</svg>
