<?xml version="1.0" standalone="no"?>
<!DOCTYPE svg PUBLIC "-//W3C//DTD SVG 20010904//EN"
 "http://www.w3.org/TR/2001/REC-SVG-20010904/DTD/svg10.dtd">
<svg version="1.0" xmlns="http://www.w3.org/2000/svg"
 width="1110.000000pt" height="1280.000000pt" viewBox="0 0 1110.000000 1280.000000"
 preserveAspectRatio="xMidYMid meet">
<metadata>
Created by potrace 1.15, written by Peter Selinger 2001-2017
</metadata>
<g transform="translate(0.000000,1280.000000) scale(0.100000,-0.100000)"
fill="#000000" stroke="none">
<path d="M2470 12653 c-820 -718 -1333 -1225 -1704 -1686 -867 -1079 -982
-1933 -366 -2712 163 -207 488 -487 768 -664 29 -18 57 -41 62 -50 11 -22 103
-366 185 -694 66 -263 102 -417 157 -667 67 -310 92 -429 143 -685 51 -258 78
-396 145 -755 125 -667 173 -903 251 -1235 101 -431 241 -806 402 -1075 223
-372 487 -617 947 -880 161 -92 237 -144 385 -265 104 -86 146 -124 540 -499
438 -417 676 -597 918 -696 168 -68 311 -90 478 -71 217 25 408 84 639 201
294 147 491 282 1055 720 418 325 564 428 827 586 203 121 287 184 418 314
318 314 515 715 655 1337 33 150 100 539 124 723 27 211 50 392 60 475 161
1346 263 1904 477 2590 58 187 126 375 134 370 9 -6 163 99 251 171 96 78 265
257 330 349 124 175 218 377 274 587 80 305 81 687 4 1063 -100 479 -327 995
-663 1505 -369 560 -893 1112 -1441 1520 -75 56 -285 200 -291 200 -3 0 20
-34 51 -76 358 -483 648 -1068 770 -1554 52 -203 67 -323 69 -530 1 -206 -8
-282 -49 -421 -103 -345 -359 -601 -737 -739 l-82 -30 -85 17 c-135 27 -458
25 -616 -5 -236 -45 -428 -102 -885 -267 -634 -229 -926 -295 -1295 -295 -289
0 -473 47 -1055 270 -425 163 -652 238 -845 280 -343 74 -668 67 -940 -20
-111 -36 -96 -38 -255 40 -398 197 -629 478 -712 865 -17 81 -17 455 0 555 61
351 158 655 412 1290 113 283 254 669 247 676 -1 1 -72 -59 -157 -133z"/>
</g>
</svg>
