<?xml version="1.0" standalone="no"?>
<!DOCTYPE svg PUBLIC "-//W3C//DTD SVG 20010904//EN"
 "http://www.w3.org/TR/2001/REC-SVG-20010904/DTD/svg10.dtd">
<svg version="1.0" xmlns="http://www.w3.org/2000/svg"
 width="1280.000000pt" height="1278.000000pt" viewBox="0 0 1280.000000 1278.000000"
 preserveAspectRatio="xMidYMid meet">
<metadata>
Created by potrace 1.15, written by Peter Selinger 2001-2017
</metadata>
<g transform="translate(0.000000,1278.000000) scale(0.100000,-0.100000)"
fill="#000000" stroke="none">
<path d="M6677 12745 c-3 -11 -9 -40 -12 -65 -14 -86 -84 -279 -149 -407 -81
-158 -150 -265 -399 -615 -108 -151 -231 -331 -273 -398 -87 -141 -203 -373
-235 -470 -12 -36 -25 -68 -28 -73 -6 -6 -69 71 -128 158 -12 17 -53 91 -93
165 l-71 135 5 -55 c11 -110 19 -330 11 -330 -4 0 -52 42 -106 94 -164 158
-344 286 -724 516 -448 271 -634 407 -818 600 l-107 112 25 -73 c89 -261 97
-550 30 -1106 -59 -483 -71 -793 -40 -1029 9 -64 14 -119 11 -121 -10 -11
-222 102 -336 178 -69 46 -128 86 -133 87 -4 2 27 -45 69 -105 69 -99 144
-229 144 -252 0 -5 -34 2 -76 15 -238 73 -495 102 -1094 124 -437 16 -675 49
-914 127 l-114 38 101 -105 c205 -211 307 -394 552 -991 164 -400 318 -690
458 -862 39 -47 45 -59 31 -64 -23 -9 -302 -9 -424 0 l-105 7 136 -67 c130
-65 195 -107 284 -186 l40 -35 -40 -7 c-308 -53 -564 -155 -1060 -422 -154
-83 -316 -169 -361 -191 -206 -103 -436 -187 -624 -226 l-105 -22 65 -13 c175
-34 403 -135 615 -272 55 -36 226 -160 380 -276 468 -351 634 -455 889 -558
l80 -33 -70 -51 c-38 -28 -142 -88 -231 -133 -89 -45 -161 -83 -160 -84 1 -2
66 2 144 9 133 10 312 2 329 -16 3 -3 -14 -22 -38 -43 -71 -62 -215 -214 -281
-297 -108 -137 -182 -246 -339 -497 -310 -500 -405 -629 -606 -829 -79 -79
-136 -141 -126 -136 116 47 275 75 474 82 202 7 310 -2 752 -57 509 -64 750
-73 996 -36 81 12 82 12 76 -9 -16 -52 -92 -187 -167 -298 -46 -67 -87 -128
-92 -136 -4 -8 41 19 101 61 123 85 207 130 307 164 61 21 68 22 62 6 -25 -59
-78 -242 -99 -341 -39 -185 -56 -363 -66 -711 -13 -422 -27 -660 -46 -790 -18
-125 -58 -298 -90 -394 -13 -38 -24 -71 -24 -74 0 -2 34 33 76 77 191 203 400
326 974 571 312 134 507 229 650 315 98 60 227 151 272 193 15 14 31 23 35 19
11 -12 15 -306 5 -417 -5 -58 -8 -106 -6 -108 1 -2 30 54 64 125 l62 128 10
-35 c56 -213 129 -391 323 -790 95 -195 194 -404 220 -464 70 -160 142 -389
169 -533 l23 -128 12 45 c48 180 127 355 238 525 84 128 148 212 360 473 221
272 304 382 402 532 66 100 166 289 207 389 10 23 13 20 61 -55 59 -92 96
-164 148 -289 21 -49 41 -93 44 -97 3 -4 6 82 6 190 0 183 2 205 28 310 16 61
32 112 35 112 4 -1 23 -24 43 -53 66 -94 213 -250 325 -345 147 -125 309 -240
576 -406 499 -312 707 -471 872 -665 38 -45 70 -80 72 -78 1 1 -6 27 -16 57
-80 236 -89 542 -29 995 58 445 69 545 80 708 11 177 3 402 -21 527 -4 25 -7
46 -6 48 6 5 140 -59 200 -96 34 -20 104 -67 157 -104 54 -37 99 -68 102 -68
3 0 -27 48 -67 108 -109 160 -147 240 -191 411 -14 51 -25 97 -25 101 0 4 44
-9 98 -30 112 -44 236 -82 349 -105 201 -42 277 -47 863 -55 650 -9 756 -17
990 -76 52 -12 114 -30 138 -38 23 -8 42 -11 42 -6 0 6 -4 10 -8 10 -16 0
-163 143 -223 218 -142 175 -231 335 -441 785 -87 188 -186 392 -219 452 -79
143 -211 340 -293 437 l-65 77 47 8 c26 4 149 8 275 8 125 0 227 1 227 1 0 1
-51 23 -112 50 -117 50 -255 126 -251 140 1 4 53 22 115 40 235 67 452 169
888 417 424 241 662 349 888 404 156 37 158 38 77 52 -106 18 -272 77 -398
140 -149 75 -279 158 -505 320 -473 340 -577 408 -786 511 -76 38 -174 82
-217 97 -43 15 -78 33 -76 38 8 24 173 131 310 201 82 42 147 77 145 79 -1 2
-61 -3 -133 -11 -138 -14 -225 -18 -225 -8 0 3 40 49 89 102 170 184 294 358
526 737 257 420 367 569 564 764 74 74 126 131 116 127 -129 -54 -336 -86
-553 -86 -183 0 -287 9 -662 55 -151 19 -338 39 -415 46 -165 14 -492 6 -610
-15 -44 -7 -81 -12 -83 -11 -10 9 108 229 181 339 48 70 90 132 93 137 3 5
-57 -33 -133 -84 -156 -105 -337 -186 -319 -144 14 35 67 211 81 272 48 209
64 402 85 1080 13 418 42 631 119 857 l28 84 -111 -111 c-190 -190 -404 -315
-906 -530 -460 -197 -748 -354 -928 -504 -35 -29 -65 -51 -67 -49 -3 2 -10 49
-16 104 -10 90 -8 253 6 399 5 48 3 45 -63 -90 -64 -131 -155 -268 -215 -324
l-26 -24 -5 24 c-3 13 -12 58 -21 99 -59 280 -162 514 -444 1008 -266 465
-363 678 -426 926 -20 80 -34 123 -38 111z"/>
</g>
</svg>
