<?xml version="1.0" standalone="no"?>
<!DOCTYPE svg PUBLIC "-//W3C//DTD SVG 20010904//EN"
 "http://www.w3.org/TR/2001/REC-SVG-20010904/DTD/svg10.dtd">
<svg version="1.0" xmlns="http://www.w3.org/2000/svg"
 width="1280.000000pt" height="1280.000000pt" viewBox="0 0 1280.000000 1280.000000"
 preserveAspectRatio="xMidYMid meet">
<metadata>
Created by potrace 1.15, written by Peter Selinger 2001-2017
</metadata>
<g transform="translate(0.000000,1280.000000) scale(0.100000,-0.100000)"
fill="#000000" stroke="none">
<path d="M6420 9694 c0 -1710 -2 -3134 -5 -3164 -4 -37 -3 -49 4 -35 5 11 100
724 211 1585 112 861 294 2260 405 3110 111 850 201 1546 199 1548 -9 12 -414
49 -636 58 l-178 7 0 -3109z"/>
<path d="M5350 12705 c-143 -23 -363 -68 -510 -103 -52 -12 -75 -22 -74 -32 1
-16 63 -248 714 -2675 94 -352 229 -856 300 -1120 71 -264 197 -734 280 -1045
83 -311 192 -716 241 -900 91 -341 103 -382 94 -320 -3 19 -106 798 -230 1730
-124 932 -309 2320 -410 3083 -102 763 -185 1392 -185 1397 0 15 -60 11 -220
-15z"/>
<path d="M8061 12533 c-59 -221 -301 -1125 -421 -1573 -144 -537 -241 -900
-539 -2010 -71 -267 -207 -773 -301 -1125 -326 -1215 -359 -1340 -356 -1342 2
-2 26 54 55 124 28 71 568 1379 1199 2908 l1148 2780 -48 22 c-88 41 -392 151
-549 199 -85 26 -159 49 -166 51 -7 3 -16 -11 -22 -34z"/>
<path d="M3815 12256 c-143 -62 -419 -198 -527 -258 l-77 -44 1174 -2034 c647
-1119 1356 -2349 1578 -2732 221 -383 403 -695 404 -694 2 2 -44 115 -101 252
-105 252 -400 962 -830 1997 -130 312 -342 822 -472 1135 -130 312 -345 830
-479 1152 -134 322 -307 737 -384 924 -78 186 -141 342 -141 347 0 16 -23 9
-145 -45z"/>
<path d="M9606 11908 c-8 -13 -335 -579 -726 -1258 -1072 -1857 -2391 -4142
-2408 -4170 -14 -23 -14 -24 0 -10 46 45 3829 5003 3822 5010 -76 69 -642 450
-669 450 -2 0 -11 -10 -19 -22z"/>
<path d="M2456 11427 c-255 -208 -566 -481 -566 -497 0 -3 1004 -1009 2232
-2235 1227 -1227 2222 -2218 2212 -2203 -84 119 -3821 4967 -3829 4967 -5 0
-28 -14 -49 -32z"/>
<path d="M8705 8670 c-1227 -1227 -2226 -2228 -2220 -2226 26 12 693 291 1060
444 226 93 721 299 1100 457 380 158 861 358 1070 445 209 87 637 265 950 395
314 130 809 336 1100 457 292 121 533 223 537 227 10 9 -130 312 -229 496
-126 233 -127 235 -140 231 -6 -3 -1203 -693 -2660 -1534 -1456 -841 -2666
-1540 -2688 -1552 -22 -13 -35 -19 -30 -13 6 5 1103 851 2440 1878 1337 1027
2441 1878 2454 1891 l24 22 -49 64 c-126 164 -454 536 -479 545 -5 2 -1014
-1001 -2240 -2227z"/>
<path d="M1244 10192 c-103 -140 -216 -307 -306 -451 -61 -98 -75 -128 -66
-136 7 -7 1236 -717 2731 -1580 1495 -862 2716 -1569 2714 -1571 -1 -2 -99 37
-217 85 -330 136 -848 349 -1360 561 -256 106 -539 223 -630 260 -91 37 -374
154 -630 260 -256 106 -539 223 -630 260 -91 37 -307 126 -480 198 -868 358
-1270 524 -1520 627 -151 63 -291 121 -311 129 l-37 15 -32 -77 c-75 -181
-248 -688 -237 -698 1 -1 205 -56 452 -122 475 -127 1054 -282 1985 -532 311
-83 781 -209 1045 -280 1439 -385 2563 -687 2598 -697 47 -14 -2 31 -210 189
-192 146 -1815 1389 -2363 1808 -489 375 -2155 1649 -2277 1742 -78 59 -143
108 -145 108 -2 -1 -35 -44 -74 -98z"/>
<path d="M12275 7981 c-329 -89 -1226 -330 -1942 -522 -1585 -424 -2498 -669
-3213 -861 -267 -71 -516 -138 -555 -148 -38 -10 -62 -19 -53 -19 15 -1 1399
183 5161 684 593 79 1080 145 1082 147 7 7 -54 344 -94 523 -53 233 -64 269
-81 272 -8 1 -145 -33 -305 -76z"/>
<path d="M56 7208 c-21 -129 -44 -400 -52 -615 l-7 -173 3159 1 3159 1 -480
63 c-264 35 -1571 206 -2905 380 -1334 173 -2510 326 -2615 340 -104 14 -204
27 -222 30 -30 5 -32 4 -37 -27z"/>
<path d="M6515 6404 c11 -2 178 -24 370 -49 193 -24 919 -119 1615 -209 2775
-362 4196 -546 4225 -549 l30 -2 12 120 c16 160 33 465 33 593 l0 102 -3152
-1 c-1734 -1 -3144 -3 -3133 -5z"/>
<path d="M6220 6384 c-47 -7 -1205 -162 -2575 -344 -1369 -182 -2733 -363
-3030 -403 l-540 -72 3 -35 c11 -126 130 -750 147 -768 1 -2 265 67 586 153
552 148 1056 283 2179 584 267 71 739 198 1050 281 803 215 1425 382 1870 500
212 57 389 107 395 112 5 4 7 7 5 7 -3 -1 -43 -8 -90 -15z"/>
<path d="M6490 6387 c3 -2 210 -89 460 -192 617 -254 950 -392 2170 -895 256
-106 539 -223 630 -260 91 -37 374 -154 630 -260 256 -106 539 -223 630 -260
91 -37 374 -154 630 -260 666 -275 678 -280 688 -280 19 0 157 386 228 636 18
67 34 127 34 132 0 5 -19 13 -42 19 -24 5 -306 81 -628 167 -322 87 -801 215
-1065 286 -264 71 -734 197 -1045 280 -311 83 -747 200 -970 260 -441 118
-1295 347 -1920 514 -217 59 -404 109 -415 112 -11 4 -18 4 -15 1z"/>
<path d="M6230 6335 c-41 -18 -286 -121 -545 -228 -258 -107 -753 -313 -1100
-457 -346 -144 -801 -333 -1010 -420 -209 -87 -580 -241 -825 -343 -245 -102
-618 -257 -830 -345 -212 -88 -614 -255 -895 -372 -280 -116 -514 -216 -519
-220 -13 -13 84 -232 221 -500 63 -124 118 -229 123 -234 6 -6 14 -5 22 1 7 6
1224 709 2703 1563 1480 854 2704 1561 2720 1571 44 27 20 22 -65 -16z"/>
<path d="M6480 6357 c0 -3 361 -282 803 -620 441 -337 1304 -998 1917 -1467
613 -469 1377 -1054 1698 -1299 320 -245 586 -447 590 -448 7 -2 206 278 268
377 60 96 183 304 181 306 -1 1 -1224 707 -2717 1569 -1493 862 -2721 1572
-2727 1577 -7 6 -13 8 -13 5z"/>
<path d="M6487 6305 c266 -350 3826 -4971 3831 -4973 14 -4 311 249 462 394
80 76 146 141 148 144 1 3 -1004 1011 -2235 2240 -1230 1229 -2222 2217 -2206
2195z"/>
<path d="M6310 6302 c-19 -16 -1140 -878 -2490 -1917 -1350 -1038 -2461 -1893
-2469 -1900 -11 -11 -3 -26 50 -92 103 -127 256 -300 374 -421 l110 -113 2235
2236 c1229 1229 2233 2235 2230 2235 -3 0 -21 -13 -40 -28z"/>
<path d="M6466 6285 c8 -22 102 -249 209 -505 257 -618 620 -1492 848 -2040
271 -652 516 -1241 867 -2085 171 -412 348 -838 392 -945 45 -107 84 -199 88
-203 13 -14 360 150 613 290 86 48 116 70 112 81 -3 8 -443 773 -979 1701
-535 927 -1237 2143 -1559 2701 -322 558 -591 1022 -596 1030 -6 8 -4 -3 5
-25z"/>
<path d="M6435 6265 c5 -42 222 -1678 725 -5459 55 -412 101 -751 103 -753 6
-5 227 31 382 62 197 41 420 99 418 110 -1 6 -54 206 -118 445 -64 239 -165
617 -225 840 -120 447 -338 1262 -540 2015 -72 270 -199 742 -281 1050 -492
1836 -471 1759 -464 1690z"/>
<path d="M4469 3838 c-1036 -1354 -1897 -2478 -1912 -2499 l-28 -37 118 -85
c160 -114 563 -372 569 -364 1 1 472 817 1046 1812 1373 2378 2089 3618 2095
3628 2 4 2 7 0 7 -2 0 -852 -1108 -1888 -2462z"/>
<path d="M6395 6243 c-8 -68 -238 -1838 -570 -4383 -129 -992 -232 -1807 -227
-1811 17 -15 500 -49 700 -49 l112 0 0 3150 c0 1733 -2 3150 -4 3150 -2 0 -7
-26 -11 -57z"/>
<path d="M5925 5202 c-246 -598 -539 -1307 -650 -1577 -264 -639 -439 -1064
-675 -1635 -106 -256 -239 -580 -297 -720 -96 -231 -318 -769 -329 -796 -9
-21 657 -249 749 -257 l31 -2 102 380 c56 209 172 641 257 960 353 1316 465
1733 587 2190 71 264 197 734 280 1045 334 1246 400 1494 397 1496 -2 2 -205
-486 -452 -1084z"/>
</g>
</svg>
