<?xml version="1.0" standalone="no"?>
<!DOCTYPE svg PUBLIC "-//W3C//DTD SVG 20010904//EN"
 "http://www.w3.org/TR/2001/REC-SVG-20010904/DTD/svg10.dtd">
<svg version="1.0" xmlns="http://www.w3.org/2000/svg"
 width="1280.000000pt" height="643.000000pt" viewBox="0 0 1280.000000 643.000000"
 preserveAspectRatio="xMidYMid meet">
<metadata>
Created by potrace 1.15, written by Peter Selinger 2001-2017
</metadata>
<g transform="translate(0.000000,643.000000) scale(0.100000,-0.100000)"
fill="#000000" stroke="none">
<path d="M8213 6410 c-45 -20 -79 -64 -89 -116 -7 -36 14 -92 52 -137 l26 -31
-86 -17 c-149 -30 -210 -83 -209 -181 1 -86 57 -146 154 -167 28 -6 156 -11
288 -11 220 0 241 -2 262 -19 l24 -19 -25 -21 c-27 -22 -41 -25 -170 -41 -283
-35 -367 -52 -427 -86 -55 -32 -83 -78 -83 -140 0 -133 132 -188 392 -164 62
6 128 13 146 16 l32 6 0 -59 c0 -32 7 -85 15 -118 26 -99 30 -99 -280 4 -689
229 -798 255 -1034 249 -123 -3 -140 -5 -180 -28 -56 -31 -81 -65 -88 -118 -9
-67 50 -137 132 -158 34 -8 31 -17 -10 -37 -44 -21 -122 -92 -141 -128 -27
-54 -13 -109 43 -160 43 -40 66 -49 131 -49 77 0 148 23 385 121 192 79 192
79 240 67 26 -6 47 -14 47 -17 0 -4 -48 -33 -107 -65 -188 -103 -347 -197
-385 -227 -40 -32 -78 -101 -78 -140 0 -14 12 -43 26 -65 79 -122 233 -104
534 60 167 91 276 146 290 146 6 0 39 -19 73 -42 34 -23 87 -52 117 -65 49
-19 55 -25 58 -54 3 -27 -4 -40 -44 -80 l-48 -49 -136 0 c-231 0 -346 -40
-406 -138 -38 -63 -46 -107 -33 -180 14 -75 59 -157 125 -231 l54 -60 -37 -75
c-21 -42 -41 -76 -45 -76 -4 0 -44 19 -89 41 -84 42 -247 102 -313 114 -20 4
-36 10 -36 14 0 3 14 26 31 51 65 96 93 162 93 222 1 46 -3 61 -23 82 -56 59
-142 59 -321 -2 -152 -52 -209 -76 -303 -124 -43 -22 -79 -39 -80 -37 -2 2
-24 33 -49 69 -25 36 -75 97 -111 136 l-66 70 29 85 c73 219 101 529 56 618
-37 71 -109 90 -189 50 -49 -25 -202 -178 -276 -276 -28 -38 -70 -103 -93
-145 -31 -56 -47 -76 -58 -71 -8 3 -90 8 -182 11 l-168 5 -44 93 c-73 154
-211 347 -285 399 -23 15 -59 30 -84 32 -38 5 -48 1 -80 -26 -61 -55 -72 -104
-72 -341 0 -113 4 -230 8 -260 9 -55 8 -56 -20 -69 -15 -7 -65 -37 -111 -68
l-82 -54 -59 36 c-79 47 -230 118 -311 145 -47 16 -81 21 -124 18 -52 -4 -63
-9 -89 -38 -27 -30 -29 -37 -25 -99 3 -57 12 -82 61 -180 31 -63 82 -152 113
-197 l55 -84 -63 -88 c-35 -48 -77 -109 -93 -135 -17 -26 -34 -47 -38 -47 -4
0 -36 12 -70 26 -161 69 -251 87 -310 65 -22 -8 -24 -6 -35 35 -13 49 -50 79
-111 90 -42 8 -217 -25 -340 -64 l-89 -29 -42 101 c-23 56 -73 160 -110 233
l-67 132 49 48 c71 69 165 197 179 242 21 70 -13 133 -83 152 -53 14 -189 -9
-333 -56 l-100 -32 -40 27 c-59 40 -163 95 -217 115 -52 19 -51 16 -63 143
-14 146 -85 342 -141 392 -53 46 -123 39 -172 -20 -38 -45 -114 -250 -135
-366 l-13 -69 -50 -7 c-103 -16 -162 -31 -267 -70 l-107 -40 -23 28 c-67 87
-197 204 -264 238 -61 31 -133 15 -159 -35 -28 -54 -10 -195 45 -350 l28 -78
-124 -83 c-69 -46 -130 -87 -137 -92 -9 -6 -33 8 -77 45 -96 82 -221 151 -281
157 -79 8 -128 -33 -128 -108 0 -57 71 -243 131 -342 l22 -36 -59 -69 c-32
-37 -60 -70 -62 -73 -2 -2 -31 5 -65 18 -145 51 -308 71 -360 43 -14 -7 -31
-26 -37 -42 -19 -46 -3 -86 61 -150 57 -57 165 -143 191 -152 9 -3 1 -29 -28
-88 -50 -101 -92 -232 -100 -308 -12 -108 45 -174 128 -150 50 13 138 73 244
165 320 278 399 344 484 409 118 89 188 134 288 184 178 89 346 136 461 129
l65 -4 60 -66 c132 -142 259 -456 376 -929 48 -196 84 -381 105 -545 27 -209
76 -386 159 -568 20 -43 39 -97 43 -120 14 -93 84 -187 181 -243 26 -15 74
-50 107 -79 124 -107 295 -204 448 -254 l67 -22 -22 -31 c-60 -86 -133 -149
-231 -199 -275 -141 -391 -259 -357 -363 6 -20 38 -59 75 -94 64 -59 247 -186
334 -232 40 -20 46 -21 70 -8 32 18 49 83 58 225 l6 100 131 0 c72 -1 168 3
214 8 83 9 84 9 153 -24 38 -19 69 -36 69 -39 0 -4 -12 -12 -28 -18 -34 -16
-97 -76 -130 -125 -27 -42 -31 -80 -11 -104 30 -36 394 1 517 53 59 24 117 71
140 111 l21 37 144 -8 c161 -8 193 -2 203 38 10 39 -68 236 -113 287 -14 16
-13 18 13 28 78 30 160 76 212 119 102 85 129 98 216 105 43 4 76 3 74 -1 -41
-82 -57 -129 -63 -181 -8 -77 9 -112 53 -112 52 0 239 129 355 245 90 90 112
137 114 245 1 47 4 119 8 160 6 68 5 78 -17 109 -73 108 -214 101 -499 -25
-57 -25 -137 -64 -177 -86 -82 -45 -89 -42 -77 39 6 42 17 58 104 149 196 205
403 491 551 762 13 23 27 39 31 35 3 -5 60 -123 125 -263 134 -290 214 -447
287 -570 128 -215 304 -448 421 -558 246 -230 574 -354 936 -355 293 0 566 84
818 253 112 75 294 248 382 364 36 46 68 84 73 83 4 -1 35 -49 70 -107 95
-158 73 -157 339 -21 123 63 272 143 332 178 l108 64 16 -23 c39 -54 159 -183
224 -239 169 -146 297 -152 376 -19 38 64 71 163 79 236 5 48 4 53 -21 69 -21
14 -41 17 -95 13 l-68 -5 24 60 c15 37 22 69 18 84 -11 44 -114 68 -179 43
-23 -8 -26 -7 -26 12 0 27 21 99 33 115 15 20 157 104 166 98 5 -2 14 -25 21
-50 24 -84 131 -205 183 -205 32 0 50 22 77 95 59 161 75 335 40 435 -11 30
-20 75 -20 100 0 66 -16 112 -53 156 -19 21 -40 57 -47 79 -41 127 -104 185
-204 185 -99 0 -224 -102 -379 -312 -84 -114 -87 -116 -154 -142 -37 -14 -117
-37 -178 -51 -60 -14 -120 -28 -133 -31 -21 -6 -22 -4 -18 32 3 22 8 70 11
108 4 44 17 95 36 140 17 39 55 134 85 210 101 259 167 407 178 402 78 -34
193 -73 286 -98 102 -26 139 -31 320 -38 237 -9 274 -16 665 -144 353 -114
487 -154 594 -176 108 -22 224 -26 267 -10 32 13 53 -3 91 -67 l25 -43 -33
-87 c-48 -128 -42 -193 18 -193 40 0 60 17 145 123 79 100 81 101 74 62 -17
-104 -18 -160 -3 -198 17 -38 47 -58 79 -49 33 8 178 247 233 382 l18 45 77
-160 c42 -88 84 -168 94 -178 41 -40 86 -7 104 76 14 63 9 446 -8 592 -16 144
-33 197 -75 234 -20 17 -40 31 -45 31 -4 0 -11 13 -15 29 -8 38 -89 167 -133
213 -88 92 -182 41 -213 -115 -7 -32 -15 -59 -18 -61 -3 -2 -58 15 -121 38
-112 42 -115 44 -112 72 4 56 -20 121 -76 207 -66 99 -100 129 -154 137 l-38
5 60 84 c75 105 170 263 241 401 30 58 54 106 55 108 1 1 27 -15 58 -36 55
-36 59 -43 97 -138 108 -269 169 -361 246 -371 80 -11 132 41 177 179 59 175
88 310 88 406 0 50 4 94 9 97 4 3 13 -14 19 -37 45 -167 157 -212 220 -88 28
54 80 247 87 322 3 35 1 79 -5 99 -7 28 -6 42 7 65 10 19 16 54 16 99 0 59 -5
78 -30 124 -30 55 -89 106 -132 117 -22 6 -23 11 -23 88 0 57 -6 93 -19 121
-51 110 -207 179 -298 131 -29 -14 -93 -79 -93 -94 -1 -22 -23 -32 -90 -42
-41 -6 -201 -36 -355 -66 -486 -95 -756 -134 -935 -134 -73 0 -90 3 -104 19
-10 11 -30 25 -46 31 -19 8 -40 32 -60 67 -39 69 -89 123 -215 233 -134 117
-163 135 -245 156 l-69 18 -20 53 c-24 62 -76 146 -124 200 -31 35 -35 45 -39
114 -9 150 -93 208 -215 147 -46 -23 -266 -242 -313 -311 -14 -20 -28 -36 -32
-34 -4 1 -39 38 -79 82 -168 186 -486 519 -538 564 -153 131 -328 221 -430
221 -20 0 -55 -9 -78 -20z m3029 -2513 l27 -22 -56 -78 c-30 -43 -56 -77 -57
-75 -2 2 -6 42 -9 89 l-6 86 27 10 c39 15 44 15 74 -10z m-417 -136 c3 -11 50
-47 103 -80 141 -88 131 -78 103 -100 -24 -18 -25 -18 -64 10 -22 16 -51 29
-64 29 -27 0 -64 -17 -75 -34 -12 -19 -16 -3 -24 97 -5 67 -3 97 4 97 6 0 13
-9 17 -19z m-140 -273 c10 -9 -45 -11 -69 -2 -9 3 -16 17 -16 31 l0 25 38 -23
c20 -12 41 -26 47 -31z m-6853 -200 c22 -43 65 -115 95 -160 l53 -80 -32 -56
c-38 -68 -183 -305 -211 -345 l-19 -29 -36 64 c-47 85 -202 416 -201 431 0 7
25 31 55 55 56 45 166 166 212 236 l27 39 7 -38 c5 -20 27 -73 50 -117z m3218
94 c0 -4 34 -51 75 -103 92 -115 243 -268 307 -312 26 -17 48 -35 48 -39 0 -8
-114 -281 -158 -378 l-29 -65 -36 72 c-48 95 -91 198 -207 504 l-97 257 41 35
c41 36 56 44 56 29z m4290 -63 c-6 -18 -14 -53 -20 -76 l-10 -42 -41 14 c-62
22 -62 24 -12 64 27 21 57 48 67 60 24 27 28 23 16 -20z m-7028 -2401 c-3 -12
-33 -65 -66 -118 -34 -54 -66 -105 -71 -115 -10 -16 -18 -17 -95 -6 -47 7
-139 15 -204 19 -82 5 -121 11 -124 20 -2 7 26 43 62 81 l66 68 93 6 c87 5
245 35 297 56 39 15 49 13 42 -11z"/>
</g>
</svg>
