<?xml version="1.0" standalone="no"?>
<!DOCTYPE svg PUBLIC "-//W3C//DTD SVG 20010904//EN"
 "http://www.w3.org/TR/2001/REC-SVG-20010904/DTD/svg10.dtd">
<svg version="1.0" xmlns="http://www.w3.org/2000/svg"
 width="986.000000pt" height="1280.000000pt" viewBox="0 0 986.000000 1280.000000"
 preserveAspectRatio="xMidYMid meet">
<metadata>
Created by potrace 1.15, written by Peter Selinger 2001-2017
</metadata>
<g transform="translate(0.000000,1280.000000) scale(0.100000,-0.100000)"
fill="#000000" stroke="none">
<path d="M1840 12784 c-247 -67 -390 -380 -390 -856 0 -238 39 -516 100 -718
18 -60 18 -63 2 -42 -30 39 -137 240 -190 357 -61 135 -131 326 -169 463 l-28
103 -29 -5 c-16 -4 -31 -7 -32 -9 -4 -3 48 -183 77 -271 37 -110 126 -327 229
-561 152 -342 141 -315 126 -315 -19 0 -96 82 -157 166 -176 241 -476 783
-542 979 -21 62 -27 70 -55 77 -74 19 -170 -40 -217 -132 -47 -92 -59 -163
-59 -335 l0 -160 38 -100 c143 -368 376 -747 732 -1192 63 -79 113 -143 111
-143 -2 0 -45 23 -96 50 -225 122 -451 292 -851 639 -99 86 -131 104 -145 81
-19 -31 23 -71 415 -396 225 -186 407 -340 406 -342 -5 -5 -281 115 -382 166
-146 73 -256 140 -358 217 -49 37 -105 74 -124 82 -36 15 -103 20 -121 9 -70
-44 -55 -292 29 -461 125 -253 384 -451 818 -625 79 -32 139 -60 135 -63 -5
-3 -31 -9 -59 -12 -79 -11 -231 27 -569 140 -352 119 -388 127 -404 97 -18
-33 14 -57 129 -100 267 -100 545 -179 904 -257 115 -25 211 -47 213 -49 13
-12 -185 -31 -327 -30 -183 1 -264 10 -583 60 -246 39 -316 42 -358 17 -78
-46 -77 -169 2 -325 35 -70 106 -129 229 -192 236 -121 456 -166 912 -188
l247 -12 -73 -32 c-278 -121 -547 -173 -1018 -198 -125 -7 -231 -15 -235 -19
-4 -4 1 -15 10 -25 48 -47 665 -17 1073 52 76 13 140 23 141 22 4 -3 -483
-248 -597 -300 -203 -94 -429 -172 -609 -212 -79 -17 -115 -42 -127 -88 -18
-72 35 -154 125 -193 246 -109 502 -121 816 -38 107 29 348 118 645 239 147
60 179 71 155 50 -16 -14 -104 -92 -193 -173 -90 -80 -169 -145 -175 -143 -7
2 -9 0 -4 -4 8 -8 -61 -84 -77 -84 -5 0 3 15 20 33 16 17 8 12 -18 -12 -26
-24 -45 -48 -43 -52 6 -9 -85 -90 -94 -85 -4 3 -22 0 -41 -5 l-35 -9 38 5 c21
2 37 0 35 -4 -5 -14 -156 -141 -259 -218 -185 -139 -397 -255 -564 -308 l-83
-26 -12 -45 c-7 -24 -11 -46 -9 -48 8 -8 189 57 285 103 182 87 369 214 681
463 94 75 182 143 195 150 12 7 27 18 33 25 13 16 230 189 291 233 48 34 48
34 -31 -60 -45 -52 -94 -113 -110 -135 -61 -84 -594 -751 -614 -769 -11 -11
-21 -16 -21 -12 0 3 -19 -3 -43 -15 -23 -13 -78 -37 -122 -55 -44 -19 -73 -34
-65 -34 8 0 60 20 114 45 55 25 102 43 104 40 9 -9 -30 -45 -41 -38 -6 4 -7 1
-3 -6 9 -14 -18 -48 -184 -235 -150 -171 -307 -333 -440 -454 -148 -135 -163
-155 -156 -207 16 -129 285 -212 505 -157 46 12 120 38 165 57 44 20 87 39 95
42 10 5 12 2 6 -7 -5 -9 -4 -11 4 -6 6 4 9 11 6 16 -3 5 22 25 56 46 34 20 96
64 138 97 42 34 69 52 61 42 -8 -10 -58 -50 -110 -88 -52 -39 -98 -73 -103
-77 -6 -5 9 -74 54 -237 6 -24 18 -44 28 -46 31 -7 -75 -30 -174 -38 l-100 -7
110 3 c161 5 290 55 458 176 37 27 67 47 67 44 0 -3 -14 -31 -32 -63 l-31 -57
37 35 c21 19 74 82 119 139 45 58 116 141 157 186 113 121 229 263 359 436 64
85 126 168 138 185 l23 29 -11 -30 c-189 -522 -388 -926 -603 -1225 -82 -113
-100 -152 -92 -199 6 -37 45 -84 90 -108 29 -15 41 -15 189 3 47 6 48 5 38
-14 -15 -29 -14 -88 4 -122 8 -15 31 -38 51 -50 31 -20 44 -22 102 -16 302 30
499 188 705 561 86 157 148 311 367 918 51 141 95 256 96 254 2 -1 -10 -65
-25 -142 -16 -77 -36 -196 -45 -265 -10 -69 -24 -156 -32 -195 -20 -99 -107
-384 -161 -531 -43 -118 -47 -126 -94 -160 -27 -19 -66 -56 -89 -81 l-40 -45
21 -29 c11 -15 36 -42 57 -59 32 -26 59 -37 161 -67 10 -2 1 -18 -30 -49 -77
-80 -198 -173 -394 -302 -209 -138 -290 -196 -350 -253 -24 -23 -77 -53 -135
-77 -165 -70 -238 -81 -331 -53 -89 28 -145 67 -280 198 -116 112 -116 113
-122 167 -8 80 -30 119 -80 143 -35 17 -46 29 -55 61 -28 92 -111 125 -317
126 -109 1 -125 -1 -176 -25 -79 -37 -130 -117 -145 -227 l-7 -52 43 0 43 0
-6 -43 c-4 -23 -1 -70 4 -104 9 -50 19 -71 48 -105 35 -38 42 -42 97 -46 41
-3 72 1 98 12 88 37 123 18 152 -81 8 -28 21 -56 27 -62 7 -5 51 -20 97 -32
68 -17 91 -28 118 -55 40 -42 40 -54 2 -82 -70 -52 -153 -44 -310 28 -58 27
-124 52 -146 56 -82 13 -143 -27 -164 -107 -7 -25 -24 -49 -50 -70 -54 -44
-125 -137 -158 -206 -22 -47 -27 -73 -27 -133 0 -64 4 -83 29 -127 16 -29 39
-62 52 -74 l23 -21 56 61 57 61 44 -45 c104 -104 257 -81 340 50 47 74 89 115
117 115 13 0 44 -7 67 -15 83 -29 117 -16 234 92 59 55 120 92 132 80 3 -3
-39 -78 -95 -167 -55 -89 -101 -171 -101 -183 0 -48 -21 -91 -74 -148 -46 -49
-60 -73 -81 -142 -66 -207 -7 -394 148 -472 l52 -26 3 28 c5 48 33 104 51 99
87 -24 159 -11 219 39 93 80 116 241 62 436 -18 62 -8 92 49 147 67 65 74 81
76 197 4 187 74 275 233 291 l57 6 17 -50 c32 -91 107 -140 193 -128 53 8 59
0 69 -89 14 -123 38 -155 114 -155 24 0 71 10 106 22 34 12 69 19 78 15 9 -3
25 -29 36 -58 l19 -53 51 52 c28 29 66 82 84 119 28 57 33 78 33 138 0 47 3
68 10 62 6 -5 9 -30 8 -56 l-1 -46 6 42 7 42 52 -40 c50 -38 75 -72 95 -129 6
-20 7 -18 3 10 -7 48 -38 88 -107 140 -33 25 -79 67 -102 94 -22 27 -75 74
-116 106 -41 31 -86 67 -100 78 -14 12 -36 31 -50 43 -31 26 -6 13 36 -18 l32
-24 6 36 c6 31 10 35 39 35 44 1 115 34 157 75 30 30 46 36 110 45 127 18 223
46 366 106 7 3 17 -11 25 -33 16 -49 34 -79 77 -125 l35 -37 44 60 c50 65 137
141 390 337 336 261 504 423 610 589 26 40 48 71 50 70 2 -2 10 -53 19 -113
30 -202 18 -612 -22 -809 -44 -209 -159 -470 -305 -689 -119 -178 -201 -279
-349 -426 -318 -318 -597 -448 -771 -360 -70 36 -146 99 -163 135 -21 43 -20
104 0 134 19 26 87 60 122 61 54 0 -4 52 -87 76 -153 45 -411 -31 -471 -138
-20 -35 -22 -50 -18 -126 3 -53 13 -110 26 -147 12 -32 22 -63 22 -67 0 -4
-26 -8 -57 -8 -264 -1 -507 -208 -569 -486 -34 -157 -5 -362 73 -505 92 -170
287 -311 481 -350 54 -11 108 -25 120 -31 50 -26 64 -94 38 -181 l-14 -47 32
0 c46 0 132 27 178 56 83 53 129 157 108 248 -15 67 -42 116 -97 175 l-48 52
-90 9 c-49 5 -147 14 -216 19 -134 10 -187 25 -231 68 -46 44 -61 99 -56 210
3 83 8 108 31 155 88 180 299 223 527 107 30 -15 69 -38 86 -51 l31 -23 -18
-34 c-39 -73 -33 -214 13 -306 83 -164 217 -208 348 -115 l29 21 -36 47 c-63
82 -78 126 -78 227 0 79 3 97 29 150 45 92 114 154 221 199 225 95 422 242
604 451 171 196 268 334 470 667 73 120 135 218 137 218 3 0 3 -3 1 -7 -3 -5
-22 -37 -44 -73 -55 -91 -107 -188 -90 -167 15 18 53 24 42 7 -3 -6 -4 -10 -1
-10 2 0 32 38 66 85 33 46 66 88 73 92 7 4 -2 -11 -19 -32 -52 -66 -218 -322
-289 -445 -188 -327 -369 -734 -540 -1215 -57 -161 -175 -530 -175 -547 0 -12
126 141 240 292 313 415 553 877 774 1487 36 100 82 237 101 304 20 67 42 135
50 153 l15 31 -4 -50 c-1 -27 -11 -68 -21 -90 -10 -22 -17 -46 -16 -54 1 -8
-2 -10 -10 -5 -8 4 -10 3 -5 -4 4 -7 -11 -69 -33 -139 -49 -161 -83 -283 -111
-398 -200 -842 -140 -1591 180 -2263 67 -139 158 -302 169 -302 12 0 166 324
206 433 141 383 206 805 191 1242 -11 357 -63 693 -180 1179 -26 104 -48 205
-51 225 -3 20 -9 54 -15 76 -5 22 -9 63 -9 90 1 48 2 47 25 -45 229 -891 439
-1411 772 -1909 90 -136 233 -330 243 -331 8 0 -39 226 -87 418 -135 543 -368
1135 -700 1780 -64 123 -114 225 -112 227 2 2 32 -52 68 -120 36 -69 68 -121
73 -116 4 4 -15 57 -42 116 -28 59 -51 111 -51 114 1 3 41 -73 89 -170 152
-301 297 -529 461 -724 78 -93 248 -262 334 -331 152 -122 398 -266 536 -312
71 -24 93 -59 93 -143 -1 -74 -26 -145 -76 -210 l-38 -51 22 -24 c46 -49 157
-56 236 -15 52 27 108 87 133 144 24 54 41 180 33 247 -5 44 -4 46 48 89 74
60 132 84 199 84 66 -1 112 -20 207 -85 59 -41 75 -58 94 -101 25 -59 30 -156
11 -222 -18 -63 -73 -146 -119 -181 -56 -43 -107 -52 -223 -41 -124 11 -257 4
-296 -16 -17 -9 -46 -33 -66 -55 -30 -34 -36 -49 -43 -106 -14 -137 19 -231
100 -281 41 -25 61 -31 126 -34 l78 -3 -6 75 c-5 65 -3 80 16 110 26 42 45 50
182 81 268 61 425 198 495 431 26 87 24 264 -5 370 -44 164 -150 325 -265 404
-91 62 -216 87 -305 61 -19 -5 -36 -8 -39 -6 -2 2 8 27 22 54 14 28 34 82 45
121 18 65 18 76 6 119 -19 62 -61 111 -121 142 -43 22 -62 25 -149 25 -93 0
-105 -2 -173 -34 -66 -31 -152 -104 -152 -130 0 -5 12 -12 28 -16 38 -9 89
-50 108 -87 24 -45 14 -112 -22 -149 -36 -38 -79 -49 -190 -49 -377 0 -757
310 -1072 876 -109 195 -224 486 -281 709 -55 216 -66 676 -22 870 12 50 23
96 26 103 3 7 47 -38 105 -108 139 -167 352 -384 494 -503 113 -94 275 -209
314 -221 9 -3 29 -25 44 -48 79 -125 149 -208 200 -237 49 -28 54 -29 70 -14
10 9 27 48 39 87 30 103 32 104 125 68 44 -16 151 -53 239 -82 88 -29 193 -68
234 -87 l75 -33 53 22 c29 12 53 25 53 30 0 4 7 4 17 1 11 -4 14 -3 9 5 -4 7
10 20 35 32 50 26 46 32 -51 85 -79 42 -72 47 9 6 66 -34 124 -79 116 -91 -3
-5 -53 -27 -112 -50 -151 -58 -215 -106 -260 -195 -14 -27 -41 -71 -59 -96
-50 -68 -67 -116 -67 -189 -1 -83 34 -151 113 -222 l55 -49 5 65 c3 42 11 71
22 82 16 16 20 14 63 -24 134 -118 304 -34 305 151 0 54 1 58 21 52 38 -12
107 -8 131 7 15 10 30 38 42 74 37 117 95 172 165 158 45 -9 116 -76 146 -138
23 -47 25 -58 16 -97 -17 -71 -13 -179 8 -224 17 -38 93 -117 120 -126 10 -4
9 -26 -4 -107 -23 -135 -17 -270 13 -328 45 -88 141 -134 244 -119 40 6 45 4
67 -26 21 -28 23 -37 13 -61 -10 -27 -9 -28 22 -28 66 0 141 80 187 199 17 43
22 78 23 152 1 92 -1 100 -37 170 -30 59 -37 85 -37 130 0 73 -25 118 -121
217 -42 43 -81 93 -87 110 -11 33 -3 42 17 18 6 -7 37 -21 67 -31 70 -22 153
-16 246 18 l66 24 6 -39 c14 -89 78 -173 156 -206 79 -33 187 4 241 83 l23 33
30 -22 c41 -28 55 -46 62 -78 4 -16 10 -28 14 -28 19 0 70 54 90 96 19 38 22
58 18 117 -7 102 -43 171 -145 278 -60 62 -83 93 -83 112 0 14 -12 39 -26 56
-23 27 -32 31 -79 31 -43 0 -70 -8 -138 -42 l-84 -43 -89 7 c-125 11 -192 26
-216 50 -25 25 -16 32 52 42 60 9 146 59 165 96 9 17 25 60 36 96 11 36 27 68
36 71 8 3 59 -2 112 -12 79 -14 104 -15 133 -6 71 24 108 92 108 201 l0 70 53
0 c30 0 56 3 59 6 10 9 -20 122 -46 172 -57 111 -164 161 -348 163 -137 2
-171 -21 -275 -181 -42 -63 -96 -146 -121 -185 -92 -140 -259 -275 -413 -335
l-81 -31 -78 20 c-152 38 -317 121 -493 248 -101 72 -342 264 -426 340 -50 45
-53 50 -42 72 12 22 11 59 -3 91 -4 11 11 24 58 48 106 55 111 122 15 178 -30
18 -79 59 -111 91 l-56 58 -62 305 c-34 168 -102 500 -151 739 -49 239 -87
436 -85 438 2 2 26 -63 55 -144 35 -102 88 -309 171 -663 66 -283 125 -525
130 -537 11 -26 28 -29 55 -9 18 13 17 21 -33 247 -29 129 -52 239 -52 244 0
6 25 -48 56 -120 299 -698 581 -1042 864 -1055 128 -7 139 -4 192 49 46 46 49
53 46 93 l-3 43 55 5 c44 4 65 12 98 38 75 60 80 100 26 200 -20 37 -29 58
-20 47 37 -47 37 -48 54 -31 21 21 22 19 -163 312 -300 474 -508 835 -565 979
-43 107 -120 325 -120 337 0 6 26 -27 57 -73 102 -152 265 -382 338 -479 39
-52 128 -180 196 -285 182 -277 409 -580 449 -599 26 -12 50 -1 50 24 0 11
-38 76 -85 145 -47 68 -85 128 -85 132 0 4 15 -7 33 -24 58 -56 183 -139 279
-186 93 -46 207 -87 237 -87 9 1 -22 13 -69 29 -100 33 -163 62 -152 70 10 7
64 121 83 175 8 21 20 41 27 43 7 3 -22 29 -65 59 -43 29 -94 67 -113 84 -19
17 -1 7 40 -23 41 -29 96 -66 123 -81 26 -15 45 -32 42 -36 -3 -5 0 -12 6 -16
8 -4 9 -3 5 4 -10 17 -8 16 85 -27 176 -82 335 -117 488 -107 87 5 99 9 148
41 85 56 112 120 79 183 -8 15 -78 87 -156 161 -247 234 -641 660 -873 945
-92 112 -112 142 -76 110 78 -70 449 -314 567 -373 91 -46 89 -37 -3 12 -142
76 -161 92 -163 134 -2 21 -10 45 -19 55 -9 10 -13 18 -8 18 4 0 2 7 -5 15 -7
9 -19 14 -26 11 -8 -3 -13 0 -11 6 1 7 -123 96 -276 198 l-278 185 -109 147
c-104 139 -126 173 -97 151 13 -11 177 -79 307 -127 64 -24 127 -61 250 -147
331 -230 553 -368 731 -454 101 -49 186 -70 177 -44 -4 13 -144 116 -383 281
-117 81 -168 114 -567 365 -106 67 -202 129 -213 138 -26 21 -1 9 50 -25 22
-15 115 -73 207 -128 l167 -102 93 2 93 2 -100 5 c-55 3 -106 10 -113 15 -8 4
-29 43 -48 85 -53 116 -57 124 -77 154 -13 20 -15 27 -5 28 14 0 7 3 -240 99
-89 35 -160 65 -158 67 2 2 50 -15 107 -38 551 -220 835 -263 1088 -165 281
109 357 242 202 354 -42 31 -63 37 -226 72 -232 50 -439 129 -810 309 -198 97
-434 226 -395 217 57 -14 490 -79 865 -131 220 -31 424 -62 453 -69 55 -14 64
-11 76 30 13 44 -21 53 -434 109 -288 39 -590 92 -740 130 -151 38 -156 42
-37 37 143 -6 391 14 530 43 123 26 260 71 352 117 157 79 342 227 376 303 28
60 26 178 -4 230 -30 54 -84 81 -131 65 -19 -6 -45 -19 -58 -29 -19 -14 -60
-20 -233 -29 -115 -7 -295 -12 -400 -12 l-190 1 100 36 c55 20 273 98 485 173
326 115 385 139 388 156 2 12 -4 26 -12 34 -13 10 -33 6 -113 -23 -416 -150
-1103 -325 -1103 -281 0 5 85 38 188 73 453 154 681 283 852 482 136 159 207
314 217 474 6 108 -7 167 -48 208 -25 25 -35 29 -65 24 -21 -4 -153 -76 -317
-175 -399 -240 -575 -326 -803 -392 -56 -17 -106 -30 -110 -30 -5 0 56 33 136
73 394 198 726 470 962 787 53 71 78 114 78 133 0 15 -5 27 -12 27 -7 0 -39
-30 -72 -67 -33 -38 -132 -140 -221 -228 -243 -244 -432 -387 -687 -520 -69
-36 -128 -65 -132 -65 -4 0 37 55 92 123 54 67 137 172 183 232 550 711 715
1219 507 1562 -65 108 -131 151 -185 122 -17 -9 -41 -48 -76 -124 -259 -556
-512 -984 -705 -1195 -68 -75 -52 -24 69 221 164 330 226 468 274 614 65 195
90 378 55 400 -13 8 -26 -21 -50 -115 -30 -120 -113 -363 -167 -488 -77 -182
-237 -491 -249 -480 -1 2 6 37 17 78 102 400 118 923 39 1235 -69 271 -188
418 -340 419 -138 2 -178 -108 -151 -412 14 -158 7 -229 -54 -537 -144 -729
-366 -1351 -653 -1830 -118 -198 -150 -316 -139 -523 9 -168 58 -335 127 -433
12 -16 23 -36 24 -45 1 -8 4 -13 7 -12 2 2 25 -12 49 -30 25 -18 62 -35 83
-39 l39 -6 -4 -81 c-3 -60 -11 -96 -31 -138 -14 -32 -28 -58 -31 -58 -3 0 7
26 21 57 19 41 28 80 31 135 5 77 4 78 -19 77 -17 -1 -19 -3 -6 -6 9 -2 17 -8
17 -13 0 -5 -15 -3 -32 5 -18 8 -32 19 -30 25 1 7 -5 9 -16 6 -10 -3 -37 3
-60 14 -22 11 -45 20 -50 20 -5 0 -41 13 -80 29 -63 26 -71 27 -75 13 -2 -9
-12 18 -22 62 -11 43 -21 73 -23 67 -12 -36 68 -261 119 -333 33 -46 97 -88
136 -88 l33 0 0 -74 0 -74 -47 -41 c-219 -193 -640 -202 -910 -20 -119 80
-132 118 -63 193 35 38 38 45 25 56 -11 9 -13 16 -6 23 13 13 44 -10 35 -25
-11 -17 17 -27 45 -17 33 12 61 57 61 99 0 22 8 38 30 56 43 36 57 90 40 158
-16 67 -7 116 28 158 15 18 19 27 9 19 -13 -10 -17 -11 -17 -1 0 21 41 83 87
131 39 41 42 47 28 59 -14 11 -23 10 -61 -8 -33 -16 -63 -22 -114 -22 -104 0
-162 -30 -175 -91 -5 -23 -10 -27 -23 -20 -9 4 -34 11 -54 14 l-36 5 5 -36 c5
-31 3 -35 -8 -24 -7 6 -23 12 -35 12 -20 0 -21 6 -28 118 -8 142 -31 323 -57
455 -17 89 -18 102 -4 160 9 38 15 113 15 193 0 121 2 137 34 230 30 91 50
136 75 173 7 11 16 6 42 -24 65 -74 188 -107 260 -69 l31 15 -47 50 c-101 108
-152 282 -171 587 l-7 112 38 -16 c75 -31 184 17 224 98 34 71 31 75 -53 80
-146 9 -227 90 -306 306 -32 89 -22 116 90 238 95 103 120 144 120 192 l0 30
-47 -15 c-33 -11 -87 -16 -173 -16 -185 0 -343 37 -624 147 -333 130 -617 139
-674 20 -14 -30 -20 -34 -55 -34 -43 0 -70 -11 -107 -45 -16 -15 -48 -27 -93
-34 -132 -23 -228 -69 -289 -141 -83 -97 -75 -245 23 -417 l30 -52 51 37 c43
30 61 37 113 40 81 5 140 -24 242 -121 l76 -72 96 0 c78 0 102 -4 130 -20 33
-20 79 -71 70 -79 -12 -12 -548 -38 -674 -33 -148 7 -196 18 -262 61 -61 40
-74 72 -74 174 0 96 -15 135 -63 167 -43 28 -75 16 -116 -44 -147 -213 -59
-445 200 -530 148 -49 324 -47 655 5 205 33 323 31 405 -8 64 -30 73 -26 -127
-58 -120 -19 -239 -51 -291 -79 -28 -15 -38 -77 -16 -102 21 -24 35 -24 162 1
184 36 282 22 267 -37 -17 -71 -85 -112 -285 -172 -192 -59 -297 -99 -360
-139 -134 -85 -302 -305 -431 -562 -104 -210 -151 -382 -171 -622 l-11 -148
-28 0 c-15 0 -31 -4 -34 -10 -13 -22 -23 -9 -15 20 5 16 5 32 1 34 -7 5 -63
-6 -93 -19 -14 -6 -18 -2 -18 17 0 62 -62 98 -170 98 -55 0 -81 5 -118 24 -46
23 -49 23 -59 7 -10 -15 -5 -25 27 -56 34 -33 100 -139 100 -160 0 -12 -87 3
-122 21 l-33 17 32 -36 c50 -57 82 -118 102 -198 18 -69 18 -75 3 -93 -11 -12
-17 -36 -17 -72 0 -44 4 -58 25 -78 25 -24 38 -29 74 -27 12 1 16 6 12 16 -3
8 -1 15 4 15 15 0 42 60 37 81 -3 11 -1 22 4 25 17 10 9 -71 -10 -102 l-19
-32 35 -33 c19 -19 51 -56 70 -82 42 -56 46 -50 -72 -108 -111 -54 -202 -72
-360 -71 -150 0 -247 21 -360 76 -180 89 -279 218 -301 392 l-6 50 55 13 c31
7 73 25 94 40 139 100 226 411 193 685 -17 143 -46 217 -137 354 -235 353
-500 1055 -612 1622 -73 371 -86 708 -34 921 19 82 12 128 -28 173 -56 65
-115 78 -219 50z m1860 -3689 c-13 -16 -40 -21 -40 -7 0 8 42 30 49 25 2 -1
-2 -9 -9 -18z m2426 -3 c-4 -3 -14 2 -24 12 -16 18 -16 18 6 6 13 -6 21 -14
18 -18z m-62 -118 c9 -3 16 -10 16 -15 0 -7 -25 -7 -70 0 -7 2 23 21 32 21 3
0 13 -3 22 -6z m-2263 -144 c28 0 39 -4 39 -15 0 -19 -31 -19 -75 -1 -34 14
-51 34 -19 22 9 -3 33 -6 55 -6z m2236 -7 c6 -18 -47 -29 -58 -12 -5 9 -3 16
9 21 23 9 45 5 49 -9z m-2364 -107 c20 -30 32 -76 20 -76 -15 0 -63 55 -63 71
0 35 22 38 43 5z m3537 -120 c0 -2 -8 -10 -17 -17 -16 -13 -17 -12 -4 4 13 16
21 21 21 13z m870 -766 c8 -5 11 -10 5 -10 -5 0 -17 5 -25 10 -8 5 -10 10 -5
10 6 0 17 -5 25 -10z m27 -25 c0 -8 -4 -12 -9 -9 -5 3 -6 10 -3 15 9 13 12 11
12 -6z m-92 -35 c10 -11 16 -20 13 -20 -3 0 -13 9 -23 20 -10 11 -16 20 -13
20 3 0 13 -9 23 -20z m295 -30 c8 -5 11 -10 5 -10 -5 0 -17 5 -25 10 -8 5 -10
10 -5 10 6 0 17 -5 25 -10z m50 -20 c8 -5 11 -10 5 -10 -5 0 -17 5 -25 10 -8
5 -10 10 -5 10 6 0 17 -5 25 -10z m-99 -37 c13 -16 12 -17 -3 -4 -10 7 -18 15
-18 17 0 8 8 3 21 -13z m100 -70 c13 -16 12 -17 -3 -4 -10 7 -18 15 -18 17 0
8 8 3 21 -13z m70 -160 c13 -16 12 -17 -3 -4 -10 7 -18 15 -18 17 0 8 8 3 21
-13z m-7131 -7 c0 -2 -8 -10 -17 -17 -16 -13 -17 -12 -4 4 13 16 21 21 21 13z
m7171 -23 c13 -16 12 -17 -3 -4 -10 7 -18 15 -18 17 0 8 8 3 21 -13z m69 -50
c0 -7 -39 17 -46 28 -3 6 5 3 20 -6 14 -10 26 -19 26 -22z m-2715 -559 c14
-192 28 -413 32 -491 3 -79 10 -143 16 -143 5 0 22 8 38 17 29 17 29 18 29
109 0 78 3 93 20 109 19 17 20 32 21 284 l1 266 23 -201 c43 -372 94 -602 178
-802 l35 -82 -81 57 c-153 107 -192 136 -269 205 -95 85 -132 143 -158 243
-32 124 -27 197 32 507 29 152 53 276 55 274 2 -1 14 -160 28 -352z m2706 259
c13 -16 12 -17 -3 -4 -10 7 -18 15 -18 17 0 8 8 3 21 -13z m-4433 -248 c3 -93
5 -198 4 -233 -2 -75 -27 -202 -43 -216 -9 -8 -10 -5 -5 14 4 14 10 167 13
340 4 224 9 307 16 290 6 -14 12 -101 15 -195z m4473 198 c13 -16 12 -17 -3
-4 -10 7 -18 15 -18 17 0 8 8 3 21 -13z m40 -50 c13 -16 12 -17 -3 -4 -10 7
-18 15 -18 17 0 8 8 3 21 -13z m-4641 -393 c0 -210 -11 -339 -31 -367 -17 -24
-136 -130 -163 -145 -16 -9 -18 -8 -12 8 20 50 66 198 66 211 0 12 7 14 30 10
17 -4 30 -3 30 1 0 4 7 40 15 81 18 85 44 317 46 406 1 59 1 59 10 20 4 -22 8
-123 9 -225z m-2720 -643 c0 -2 -19 -21 -42 -42 l-43 -40 40 43 c36 39 45 47
45 39z m7350 -42 c13 -14 21 -25 18 -25 -2 0 -15 11 -28 25 -13 14 -21 25 -18
25 2 0 15 -11 28 -25z m66 -57 l29 -33 -32 29 c-31 28 -38 36 -30 36 2 0 16
-15 33 -32z m-1801 -292 c30 -137 53 -251 51 -253 -8 -9 -63 24 -86 52 -13 17
-65 72 -114 123 -49 50 -85 92 -78 92 6 0 27 14 46 30 35 31 62 104 54 148 -2
14 8 28 32 44 19 14 36 22 38 19 1 -4 27 -118 57 -255z m-3680 149 c-7 -74 -8
-77 -61 -138 -30 -34 -80 -99 -110 -144 -52 -78 -90 -121 -66 -76 13 23 109
339 117 386 6 32 9 34 63 43 31 5 59 9 61 7 2 -1 0 -36 -4 -78z m5590 -265 c3
-6 -1 -7 -9 -4 -18 7 -21 14 -7 14 6 0 13 -4 16 -10z m-454 -237 c13 -16 12
-17 -3 -4 -10 7 -18 15 -18 17 0 8 8 3 21 -13z m-264 -319 c-3 -3 -12 -4 -19
-1 -8 3 -5 6 6 6 11 1 17 -2 13 -5z m40 -10 c-3 -3 -12 -4 -19 -1 -8 3 -5 6 6
6 11 1 17 -2 13 -5z m66 -11 c-7 -2 -21 -2 -30 0 -10 3 -4 5 12 5 17 0 24 -2
18 -5z m-948 -693 c13 -6 15 -9 5 -9 -8 0 -22 4 -30 9 -18 12 -2 12 25 0z m65
-25 c14 -8 21 -14 15 -14 -5 0 -21 6 -35 14 -14 8 -20 14 -15 14 6 0 21 -6 35
-14z m-4857 -2 c-12 -2 -24 -12 -26 -21 -3 -12 -5 -10 -6 6 -1 18 4 22 27 21
22 -1 23 -2 5 -6z m-44 -77 c-7 -14 -16 -26 -20 -26 -5 0 0 13 9 29 20 36 27
34 11 -3z m26 -36 c3 -6 -1 -7 -9 -4 -18 7 -21 14 -7 14 6 0 13 -4 16 -10z
m90 -55 c11 -9 2 -7 -20 6 -22 12 -44 26 -50 32 -16 15 48 -20 70 -38z m2135
-368 c0 -2 -10 -12 -22 -23 l-23 -19 19 23 c18 21 26 27 26 19z m90 -21 c0 -2
-8 -10 -17 -17 -16 -13 -17 -12 -4 4 13 16 21 21 21 13z m-30 -39 c0 -2 -10
-12 -22 -23 l-23 -19 19 23 c18 21 26 27 26 19z m-40 -51 c0 -2 -8 -10 -17
-17 -16 -13 -17 -12 -4 4 13 16 21 21 21 13z"/>
<path d="M4491 10991 c-25 -16 -1 -31 49 -31 50 0 74 15 49 31 -8 5 -30 9 -49
9 -19 0 -41 -4 -49 -9z"/>
<path d="M6852 9290 c0 -14 2 -19 5 -12 2 6 2 18 0 25 -3 6 -5 1 -5 -13z"/>
<path d="M6863 9165 c0 -27 2 -38 4 -22 2 15 2 37 0 50 -2 12 -4 0 -4 -28z"/>
<path d="M3032 9070 c0 -14 2 -19 5 -12 2 6 2 18 0 25 -3 6 -5 1 -5 -13z"/>
<path d="M3011 8994 c0 -11 3 -14 6 -6 3 7 2 16 -1 19 -3 4 -6 -2 -5 -13z"/>
<path d="M2973 8901 c-54 -113 -102 -152 -217 -176 -28 -6 -29 -7 -23 -63 2
-31 3 -47 0 -34 -5 25 -15 27 -43 10 -15 -10 -23 -9 -42 6 -13 11 8 -11 45
-48 38 -37 71 -66 73 -64 2 3 0 18 -5 35 -5 17 -11 57 -13 89 l-3 59 40 6 c54
7 95 31 135 76 31 35 97 160 89 168 -2 1 -18 -27 -36 -64z"/>
<path d="M8698 8373 c7 -3 16 -2 19 1 4 3 -2 6 -13 5 -11 0 -14 -3 -6 -6z"/>
<path d="M8588 8363 c6 -2 18 -2 25 0 6 3 1 5 -13 5 -14 0 -19 -2 -12 -5z"/>
<path d="M1653 7817 c-40 -17 -69 -35 -66 -40 4 -6 -1 -8 -11 -4 -10 4 -15 3
-11 -3 4 -6 -1 -17 -10 -26 -8 -9 -28 -32 -43 -52 -15 -21 -29 -39 -32 -42 -3
-3 -23 -27 -45 -55 -31 -39 -14 -27 75 55 63 58 140 126 170 152 30 26 53 47
50 47 -3 -1 -37 -15 -77 -32z"/>
<path d="M1568 7517 c-70 -56 -125 -103 -124 -105 2 -1 32 9 68 23 55 22 73
36 127 101 34 41 61 77 59 79 -1 2 -60 -43 -130 -98z"/>
<path d="M798 7313 c7 -3 16 -2 19 1 4 3 -2 6 -13 5 -11 0 -14 -3 -6 -6z"/>
<path d="M1038 7313 c12 -2 30 -2 40 0 9 3 -1 5 -23 4 -22 0 -30 -2 -17 -4z"/>
<path d="M903 7303 c20 -2 54 -2 75 0 20 2 3 4 -38 4 -41 0 -58 -2 -37 -4z"/>
<path d="M9143 7263 c9 -2 25 -2 35 0 9 3 1 5 -18 5 -19 0 -27 -2 -17 -5z"/>
<path d="M9021 6776 c2 -2 47 -37 99 -77 100 -78 229 -171 170 -122 -115 94
-256 203 -264 203 -5 0 -7 -2 -5 -4z"/>
<path d="M668 6559 c-10 -5 -18 -15 -18 -22 0 -8 3 -9 8 -1 4 6 16 16 27 22
11 6 16 11 10 11 -5 0 -18 -4 -27 -10z"/>
<path d="M847 6564 c-3 -4 -43 -21 -89 -40 -46 -19 -77 -34 -70 -34 19 0 161
60 168 71 6 10 0 12 -9 3z"/>
<path d="M9346 6528 c10 -14 21 -24 23 -22 3 3 -6 15 -18 27 l-24 22 19 -27z"/>
<path d="M9300 6520 c8 -5 22 -9 30 -9 10 0 8 3 -5 9 -27 12 -43 12 -25 0z"/>
<path d="M638 6499 c-4 -22 -2 -25 14 -21 11 3 15 8 10 11 -5 3 -11 13 -14 21
-3 10 -6 6 -10 -11z"/>
<path d="M520 5491 c0 -6 4 -13 10 -16 6 -3 7 1 4 9 -7 18 -14 21 -14 7z"/>
<path d="M560 5435 c13 -14 26 -25 28 -25 3 0 -5 11 -18 25 -13 14 -26 25 -28
25 -3 0 5 -11 18 -25z"/>
<path d="M708 5363 c7 -3 16 -2 19 1 4 3 -2 6 -13 5 -11 0 -14 -3 -6 -6z"/>
<path d="M9048 5313 c6 -2 18 -2 25 0 6 3 1 5 -13 5 -14 0 -19 -2 -12 -5z"/>
<path d="M9143 5303 c15 -2 37 -2 50 0 12 2 0 4 -28 4 -27 0 -38 -2 -22 -4z"/>
<path d="M1188 4613 c12 -2 30 -2 40 0 9 3 -1 5 -23 4 -22 0 -30 -2 -17 -4z"/>
<path d="M8688 4613 c7 -3 16 -2 19 1 4 3 -2 6 -13 5 -11 0 -14 -3 -6 -6z"/>
<path d="M1284 4595 c50 -18 74 -42 91 -91 9 -26 27 -49 56 -70 30 -21 48 -43
57 -70 12 -38 12 -38 7 -5 -6 41 -18 56 -67 87 -21 14 -38 32 -38 42 0 47 -78
122 -125 122 -12 -1 -3 -7 19 -15z"/>
<path d="M8599 4563 c-13 -16 -12 -17 4 -4 16 13 21 21 13 21 -2 0 -10 -8 -17
-17z"/>
<path d="M1502 4288 c-2 -33 5 -45 59 -100 l61 -63 -55 62 c-42 48 -57 72 -60
100 l-4 38 -1 -37z"/>
<path d="M7430 3990 c-8 -5 -10 -10 -5 -10 6 0 17 5 25 10 8 5 11 10 5 10 -5
0 -17 -5 -25 -10z"/>
<path d="M3022 3400 c0 -19 2 -27 5 -17 2 9 2 25 0 35 -3 9 -5 1 -5 -18z"/>
<path d="M5071 3364 c0 -11 3 -14 6 -6 3 7 2 16 -1 19 -3 4 -6 -2 -5 -13z"/>
<path d="M3011 3334 c0 -11 3 -14 6 -6 3 7 2 16 -1 19 -3 4 -6 -2 -5 -13z"/>
<path d="M5080 3324 c0 -10 5 -26 10 -34 8 -11 9 -7 4 15 -8 37 -14 45 -14 19z"/>
<path d="M5345 3309 c-4 -6 -5 -12 -2 -15 2 -3 7 2 10 11 7 17 1 20 -8 4z"/>
<path d="M2986 3263 c-6 -14 -5 -15 5 -6 7 7 10 15 7 18 -3 3 -9 -2 -12 -12z"/>
<path d="M2966 3223 c-6 -14 -5 -15 5 -6 7 7 10 15 7 18 -3 3 -9 -2 -12 -12z"/>
</g>
</svg>
