<?xml version="1.0" standalone="no"?>
<!DOCTYPE svg PUBLIC "-//W3C//DTD SVG 20010904//EN"
 "http://www.w3.org/TR/2001/REC-SVG-20010904/DTD/svg10.dtd">
<svg version="1.0" xmlns="http://www.w3.org/2000/svg"
 width="1246.000000pt" height="1280.000000pt" viewBox="0 0 1246.000000 1280.000000"
 preserveAspectRatio="xMidYMid meet">
<metadata>
Created by potrace 1.15, written by Peter Selinger 2001-2017
</metadata>
<g transform="translate(0.000000,1280.000000) scale(0.100000,-0.100000)"
fill="#000000" stroke="none">
<path d="M5494 11850 l-728 -940 -898 0 c-494 0 -898 -2 -898 -5 0 -3 169
-291 375 -641 206 -349 375 -640 375 -645 0 -5 -402 -9 -1025 -9 -564 0 -1025
-2 -1025 -5 0 -3 201 -348 446 -767 343 -586 444 -766 437 -778 -9 -13 -146
-15 -1277 -18 -696 -1 -1266 -4 -1266 -7 0 -2 283 -370 630 -817 346 -447 629
-816 627 -820 -1 -5 -283 -371 -627 -814 -344 -444 -626 -811 -628 -815 -2 -5
569 -10 1270 -11 1172 -3 1273 -4 1276 -19 2 -10 -197 -359 -442 -777 -246
-418 -446 -763 -446 -766 0 -3 443 -6 985 -6 782 0 985 -3 984 -12 0 -7 -150
-299 -333 -648 l-332 -635 896 -3 896 -2 728 -940 c401 -517 732 -940 736
-940 4 0 335 423 736 940 l728 940 896 2 896 3 -332 635 c-183 349 -333 641
-333 648 -1 9 202 12 984 12 542 0 985 3 985 6 0 3 -200 347 -446 766 -245
418 -444 768 -442 777 3 15 106 16 1276 19 701 1 1272 6 1270 11 -2 4 -284
371 -628 815 -344 443 -626 809 -627 814 -2 4 281 373 627 820 347 447 630
815 630 818 0 2 -570 5 -1266 6 -1134 3 -1268 5 -1277 19 -7 12 92 188 437
777 245 419 446 764 446 767 0 3 -459 5 -1020 5 -667 0 -1020 3 -1020 10 0 5
167 296 370 646 204 349 370 637 370 640 0 2 -404 4 -898 4 l-898 0 -728 940
c-401 517 -732 940 -736 940 -4 0 -335 -423 -736 -940z m1375 -115 c347 -448
631 -817 631 -820 0 -3 -276 -5 -613 -5 l-614 0 -19 35 c-10 19 -21 35 -24 35
-3 -1 -14 -15 -25 -33 l-20 -32 -613 -3 c-336 -1 -612 0 -612 3 0 10 1262
1635 1270 1635 4 0 292 -367 639 -815z m-2219 -970 c0 -7 -801 -1040 -808
-1042 -5 -2 -551 914 -610 1023 l-13 24 716 0 c393 0 715 -2 715 -5z m1450 -3
c0 -4 -4 -12 -9 -18 -5 -5 -154 -256 -331 -559 -177 -302 -327 -556 -334 -563
-9 -9 -167 -12 -745 -10 l-732 3 447 578 447 577 629 0 c345 0 628 -4 628 -8z
m1964 -569 l447 -578 -732 -3 c-578 -2 -736 1 -745 10 -7 7 -157 261 -334 563
-177 303 -326 554 -331 560 -5 5 -9 13 -9 17 0 4 283 8 628 8 l629 0 447 -577z
m1176 574 c0 -2 -114 -199 -253 -438 -139 -239 -277 -476 -307 -527 -43 -75
-56 -91 -65 -80 -23 24 -805 1038 -805 1043 0 3 322 5 715 5 393 0 715 -1 715
-3z m-2695 -608 c171 -292 312 -535 313 -540 2 -5 -122 -9 -315 -9 l-319 0
-23 47 -23 48 -24 -48 -24 -47 -266 0 c-159 0 -264 4 -262 9 7 21 623 1070
628 1070 3 0 145 -238 315 -530z m-2907 -699 c-9 -27 -973 -1259 -979 -1253
-8 8 -739 1254 -739 1260 0 1 387 3 861 3 576 0 860 -3 857 -10z m1685 -22
c-11 -18 -162 -277 -337 -576 -175 -299 -322 -540 -326 -535 -11 11 -670 1131
-670 1138 0 3 304 5 676 5 l676 0 -19 -32z m736 25 c0 -5 -159 -325 -352 -713
l-352 -705 -265 0 -265 0 -37 62 -38 62 381 651 381 650 274 0 c151 0 274 -3
273 -7z m1275 -652 l386 -660 -22 -38 c-45 -79 -17 -73 -353 -73 l-303 0 -362
698 c-200 383 -367 705 -372 715 -8 16 10 17 316 17 l324 0 386 -659z m1146
653 c0 -6 -642 -1113 -665 -1146 -10 -15 -58 60 -335 535 -178 303 -332 567
-343 585 l-19 32 681 0 c375 0 681 -3 681 -6z m2060 3 c0 -6 -731 -1252 -739
-1260 -6 -6 -970 1226 -979 1253 -3 7 281 10 857 10 474 0 861 -2 861 -3z
m-6335 -660 l376 -639 -38 -61 -39 -62 -878 -3 c-851 -2 -878 -2 -874 16 5 19
1068 1396 1073 1390 2 -2 173 -290 380 -641z m4980 -61 c285 -368 520 -677
522 -687 5 -18 -23 -19 -871 -19 l-876 0 -35 55 -36 55 327 563 c463 796 424
731 439 716 7 -8 245 -315 530 -683z m-2657 -34 c188 -362 342 -662 342 -665
0 -4 -134 -6 -297 -5 l-298 3 -20 37 c-11 21 -22 38 -25 38 -3 0 -14 -17 -25
-38 l-20 -37 -320 -3 c-176 -1 -325 0 -332 2 -8 4 87 205 280 593 161 323 308
621 327 661 18 39 36 72 39 72 3 0 160 -296 349 -658z m-4104 -823 c-6 -10
-972 -1258 -1034 -1336 l-25 -32 -524 677 c-289 373 -526 683 -529 690 -3 9
233 12 1058 12 767 0 1059 -3 1054 -11z m676 -731 c239 -409 435 -750 434
-759 0 -16 -834 -1449 -862 -1481 -8 -10 -23 -18 -33 -18 -12 0 -214 254 -599
750 l-581 750 342 443 c827 1067 819 1057 842 1057 19 0 87 -109 457 -742z
m1317 735 c-90 -157 -265 -455 -279 -475 -15 -22 -28 -28 -54 -28 l-35 0 16
-31 c9 -17 14 -37 11 -46 -9 -23 -427 -737 -440 -750 -8 -9 -109 155 -401 654
-214 367 -391 670 -393 675 -2 4 352 8 788 8 435 0 789 -3 787 -7z m469 -242
c79 -134 144 -248 144 -252 0 -5 -164 -9 -365 -9 -201 0 -365 2 -365 5 0 3 66
118 146 256 l147 250 74 -3 75 -3 144 -244z m393 242 c0 -5 -37 -82 -83 -172
l-83 -165 -97 163 c-53 90 -96 167 -96 172 0 5 79 9 180 9 99 0 180 -3 179 -7z
m821 -4 c0 -11 -236 -465 -253 -486 -7 -10 -84 -13 -322 -13 -171 0 -314 3
-318 6 -3 4 50 118 119 255 l124 249 325 0 c223 0 325 -3 325 -11z m980 -239
c71 -135 129 -248 130 -252 0 -5 -132 -8 -294 -8 -223 0 -296 3 -303 13 -18
21 -253 475 -253 486 0 8 89 11 296 9 l296 -3 128 -245z m488 242 c-17 -44
-234 -400 -239 -394 -9 8 -209 390 -209 397 0 3 102 5 226 5 124 0 224 -4 222
-8z m446 -242 c80 -137 146 -252 146 -255 0 -3 -160 -5 -356 -5 -196 0 -354 3
-352 8 2 4 68 119 147 255 l144 247 63 0 62 0 146 -250z m1604 242 c-1 -5
-178 -308 -393 -675 -294 -501 -393 -663 -401 -654 -13 13 -431 727 -440 751
-3 8 2 28 11 45 l16 31 -35 0 c-26 0 -39 6 -54 28 -14 20 -189 318 -279 475
-2 4 352 7 787 7 436 0 790 -4 788 -8z m804 -744 l579 -748 -581 -750 c-385
-496 -587 -750 -599 -750 -10 0 -25 8 -33 18 -28 32 -862 1465 -862 1481 -1 9
195 350 434 759 401 684 437 743 459 740 20 -2 147 -161 603 -750z m1725 739
c-9 -24 -1049 -1362 -1056 -1359 -6 4 -1042 1340 -1056 1361 -4 8 303 11 1055
11 877 0 1061 -2 1057 -13z m-5809 -281 c56 -107 102 -199 102 -205 0 -8 -67
-11 -210 -11 -143 0 -210 3 -210 11 0 14 203 399 210 399 3 0 52 -87 108 -194z
m-1378 -361 c0 -3 -31 -68 -70 -145 l-70 -139 -45 -3 -45 -3 25 -37 25 -37
-73 -147 -74 -147 -30 54 c-28 49 -304 582 -311 601 -2 4 147 8 332 8 185 0
336 -2 336 -5z m800 -6 c0 -6 -32 -72 -71 -145 l-70 -134 -78 0 -77 0 -82 139
c-45 76 -82 141 -82 145 0 3 104 6 230 6 164 0 230 -3 230 -11z m837 -129 c40
-74 72 -138 73 -142 0 -5 -198 -8 -440 -8 -242 0 -440 2 -440 6 0 7 131 256
143 272 7 9 75 12 301 10 l291 -3 72 -135z m593 135 c0 -3 -37 -68 -81 -145
l-82 -140 -93 0 -93 0 -70 134 c-39 73 -71 139 -71 145 0 8 70 11 245 11 135
0 245 -2 245 -5z m979 -2 c0 -5 -78 -163 -173 -352 l-173 -345 -25 45 c-47 83
-148 283 -148 293 0 6 9 22 20 36 28 36 25 40 -22 40 l-43 0 -72 139 c-40 76
-73 141 -73 145 0 3 160 6 355 6 195 0 355 -3 354 -7z m-2955 -148 l77 -130
-147 -3 c-81 -1 -149 0 -152 3 -3 3 25 67 62 142 37 75 71 132 75 127 5 -5 43
-67 85 -139z m2175 -37 l52 -98 -121 0 -121 0 12 23 c12 23 71 124 96 166 8
13 18 19 22 15 5 -5 31 -53 60 -106z m-3030 -267 l191 -369 -192 -391 c-149
-305 -194 -389 -203 -379 -19 21 -435 737 -435 749 0 5 93 168 206 362 224
382 233 397 238 397 2 0 90 -166 195 -369z m4169 -18 c117 -199 212 -367 212
-373 0 -11 -416 -728 -435 -748 -10 -11 -45 48 -175 300 -89 172 -176 339
-193 371 l-31 59 194 389 c147 294 197 386 206 376 6 -6 106 -175 222 -374z
m-3125 0 c13 -21 32 -53 43 -71 l19 -33 -67 -132 c-37 -73 -73 -141 -81 -151
-13 -17 -25 -2 -160 198 -81 120 -147 219 -147 222 0 2 83 4 185 4 l185 0 23
-37z m1395 -48 l42 -86 -292 -502 c-160 -276 -293 -504 -296 -507 -3 -3 -6 0
-8 5 -3 6 -139 239 -304 518 -165 280 -300 513 -300 518 0 5 14 38 32 74 l32
65 526 0 526 0 42 -85z m620 77 c-9 -22 -264 -421 -269 -421 -4 -1 -36 57 -73
128 l-66 130 50 85 51 86 155 0 c86 0 154 -4 152 -8z m-2330 -378 l141 -211
-96 -184 c-52 -101 -99 -188 -103 -192 -6 -7 -192 340 -304 566 -8 14 8 53 69
177 l79 158 36 -51 c20 -29 100 -147 178 -263z m2567 124 l86 -168 -142 -290
c-78 -159 -145 -290 -148 -290 -6 0 -213 395 -219 416 -2 10 275 458 311 502
5 7 13 9 17 5 4 -4 47 -83 95 -175z m-1811 -521 c152 -258 276 -470 276 -473
0 -2 -58 -4 -128 -4 -110 0 -131 3 -145 18 -8 9 -112 160 -231 336 l-215 318
26 52 c71 141 126 237 133 229 5 -4 132 -219 284 -476z m1144 334 c34 -65 62
-123 62 -130 0 -11 -391 -633 -418 -663 -13 -15 -33 -18 -134 -18 -65 0 -118
1 -118 3 0 2 98 172 218 378 120 206 240 413 267 461 28 48 52 88 55 88 3 0
33 -53 68 -119z m-5086 -771 c282 -366 517 -671 521 -677 7 -10 -207 -13
-1053 -13 -922 0 -1061 2 -1057 14 3 8 241 319 529 690 396 511 526 672 534
663 6 -7 243 -311 526 -677z m9722 7 c284 -367 519 -674 523 -682 4 -13 -130
-15 -1056 -15 -886 0 -1061 2 -1054 13 32 54 1058 1366 1063 1360 4 -5 240
-309 524 -676z m-7765 267 l224 -385 -16 -35 -17 -34 38 0 37 0 143 -245 c78
-134 142 -248 142 -254 0 -8 -235 -11 -786 -11 -440 0 -784 4 -782 9 8 22 784
1341 788 1340 3 0 106 -173 229 -385z m936 86 l148 -284 -29 -56 -29 -55 -297
-3 c-164 -1 -298 0 -298 2 0 2 77 161 170 352 99 202 174 344 179 338 5 -5 75
-137 156 -294z m4430 -367 c215 -366 392 -670 393 -674 2 -5 -342 -9 -782 -9
-551 0 -786 3 -786 11 0 6 64 120 143 254 l142 245 37 0 38 0 -17 34 -16 35
224 385 c123 212 226 385 229 385 3 1 181 -299 395 -666z m-1221 293 c91 -175
166 -321 166 -322 0 -2 -133 -4 -295 -4 l-295 0 -20 33 c-11 17 -20 37 -20 43
0 25 281 587 289 578 5 -5 84 -153 175 -328z m-2500 -68 c91 -135 166 -249
166 -252 0 -4 -114 -5 -252 -4 l-253 3 -29 54 -29 54 53 101 c134 257 163 307
170 299 4 -4 82 -119 174 -255z m1755 34 l111 -212 -20 -40 -20 -40 -260 0
c-161 0 -260 4 -260 10 0 8 288 467 313 498 5 7 13 9 17 5 5 -4 58 -104 119
-221z m-2459 -442 c0 -10 -217 -429 -229 -443 -6 -6 -271 432 -271 448 0 3
113 5 250 5 157 0 250 -4 250 -10z m400 -231 c69 -133 126 -248 128 -255 3
-12 -49 -14 -302 -14 -213 0 -306 3 -306 11 0 6 57 121 128 255 l127 244 50 0
50 0 125 -241z m740 -5 c91 -135 167 -249 168 -255 6 -15 -593 -12 -606 4 -16
19 -252 476 -252 487 0 6 94 10 263 10 l262 -1 165 -245z m290 209 l22 -37 21
37 21 37 119 0 c65 0 117 -4 115 -8 -8 -20 -273 -432 -278 -432 -7 1 -290 424
-290 433 0 4 56 7 124 7 l124 0 22 -37z m1020 25 c-1 -7 -56 -121 -123 -253
l-122 -240 -307 -3 c-170 -1 -308 0 -308 2 0 5 297 475 312 494 8 9 76 12 279
12 209 0 269 -3 269 -12z m363 -232 c70 -134 127 -249 127 -255 0 -8 -86 -11
-280 -11 -179 0 -280 4 -280 10 0 5 55 120 122 255 164 327 140 327 311 1z
m547 239 c0 -16 -265 -454 -271 -448 -12 14 -229 433 -229 443 0 6 93 10 250
10 138 0 250 -2 250 -5z m-3700 -655 c0 -10 -677 -1311 -688 -1322 -8 -7
-1016 1292 -1020 1316 -3 15 65 16 852 16 553 0 856 -3 856 -10z m1322 -705
c202 -390 368 -711 368 -712 0 -2 -143 -3 -319 -3 l-318 0 -417 711 c-229 390
-416 712 -416 715 0 2 165 3 367 2 l367 -3 368 -710z m451 684 l24 -31 19 31
18 31 319 0 c184 0 317 -4 315 -9 -13 -35 -653 -1321 -657 -1321 -5 0 -674
1284 -689 1322 -2 4 138 8 311 8 l316 0 24 -31z m1547 27 c0 -3 -187 -325
-416 -715 l-417 -711 -279 0 c-154 0 -278 3 -276 8 2 4 161 325 355 715 l352
707 340 0 c188 0 341 -2 341 -4z m1928 -12 c-4 -24 -1012 -1323 -1020 -1316
-11 11 -688 1312 -688 1322 0 7 303 10 856 10 787 0 855 -1 852 -16z m-4773
-719 c197 -335 368 -629 382 -652 l25 -43 -721 0 c-511 0 -721 3 -721 11 0 12
672 1301 676 1297 1 -2 163 -277 359 -613z m3304 -57 c176 -339 321 -621 321
-627 0 -8 -207 -11 -720 -11 l-721 0 13 24 c7 13 179 307 383 654 l370 631 16
-27 c9 -15 161 -304 338 -644z m-5079 -3 c264 -341 480 -623 480 -627 0 -5
-387 -8 -860 -8 -473 0 -860 2 -860 4 0 3 697 1197 727 1245 9 13 19 19 24 14
5 -5 225 -287 489 -628z m7015 -4 c201 -343 365 -625 365 -627 0 -2 -387 -4
-861 -4 -600 0 -860 3 -857 11 9 28 972 1259 979 1252 5 -5 173 -289 374 -632z
m-4415 -1343 c184 -314 337 -575 338 -580 2 -4 -279 -8 -625 -8 l-629 0 -439
568 c-241 312 -443 573 -448 580 -8 9 140 12 729 12 l739 0 335 -572z m489
525 l23 -48 24 48 24 47 271 0 c157 0 269 -4 267 -9 -7 -21 -623 -1070 -628
-1070 -5 0 -621 1049 -628 1070 -2 5 128 9 310 9 l314 0 23 -47z m2254 35 c-5
-7 -207 -268 -448 -580 l-439 -568 -629 0 c-346 0 -627 4 -625 8 2 5 154 266
338 580 l335 572 739 0 c589 0 737 -3 729 -12z m-4264 -605 c226 -293 411
-535 411 -538 0 -3 -322 -5 -715 -5 -489 0 -715 3 -715 10 0 9 338 662 517
999 53 99 56 102 73 85 9 -11 202 -259 429 -551z m4720 14 c155 -295 281 -542
281 -547 0 -7 -249 -10 -715 -10 -393 0 -715 2 -715 5 0 15 854 1105 860 1098
5 -4 135 -250 289 -546z m-2753 -732 c10 -19 21 -35 24 -35 3 0 14 16 24 35
l19 35 614 0 c338 0 613 -4 611 -8 -7 -19 -1261 -1632 -1268 -1632 -7 0 -1270
1625 -1270 1635 0 3 276 5 613 5 l614 0 19 -35z"/>
</g>
</svg>
