<?xml version="1.0" standalone="no"?>
<!DOCTYPE svg PUBLIC "-//W3C//DTD SVG 20010904//EN"
 "http://www.w3.org/TR/2001/REC-SVG-20010904/DTD/svg10.dtd">
<svg version="1.0" xmlns="http://www.w3.org/2000/svg"
 width="1280.000000pt" height="1280.000000pt" viewBox="0 0 1280.000000 1280.000000"
 preserveAspectRatio="xMidYMid meet">
<metadata>
Created by potrace 1.15, written by Peter Selinger 2001-2017
</metadata>
<g transform="translate(0.000000,1280.000000) scale(0.100000,-0.100000)"
fill="#000000" stroke="none">
<path d="M6345 11774 c-89 -21 -117 -31 -165 -57 -42 -23 -227 -201 -789 -761
-403 -402 -753 -757 -777 -790 -63 -83 -88 -170 -82 -289 3 -77 9 -103 35
-160 107 -228 372 -323 603 -216 58 27 102 67 423 387 l357 356 0 -1490 c0
-953 4 -1511 10 -1545 22 -117 122 -254 225 -307 232 -118 509 -27 616 201 16
34 33 86 39 116 6 35 10 571 10 1540 l0 1485 363 -360 c397 -396 403 -400 547
-423 217 -35 437 108 495 323 28 104 18 213 -29 312 -37 78 -45 87 -794 835
-513 512 -772 764 -803 781 -90 49 -220 77 -284 62z"/>
<path d="M2750 8248 c-36 -13 -88 -40 -115 -60 -86 -63 -1519 -1508 -1549
-1561 -80 -141 -80 -305 1 -455 31 -56 1504 -1535 1570 -1576 69 -42 154 -66
237 -66 330 0 542 329 409 635 -24 53 -67 100 -387 422 l-360 363 1519 2
c1468 3 1522 4 1570 22 107 41 210 129 255 216 70 137 65 310 -13 443 -57 96
-186 186 -298 207 -32 6 -615 10 -1543 10 l-1490 0 356 358 c320 320 360 364
387 422 106 228 16 487 -207 598 -69 34 -83 37 -176 40 -84 2 -112 -1 -166
-20z"/>
<path d="M9775 8256 c-136 -43 -244 -145 -292 -276 -42 -114 -38 -226 13 -343
25 -56 62 -97 388 -424 l360 -363 -1490 0 c-957 0 -1511 -4 -1545 -10 -133
-25 -260 -126 -322 -257 -30 -64 -32 -74 -32 -184 0 -113 1 -116 38 -191 64
-130 183 -222 321 -247 42 -8 513 -11 1545 -11 l1485 0 -360 -362 c-327 -329
-363 -369 -388 -426 -56 -128 -55 -254 3 -378 78 -168 239 -261 432 -252 76 4
97 9 166 42 76 38 96 57 835 795 787 787 780 779 825 905 8 23 14 78 14 123 1
89 -15 151 -58 231 -30 55 -1451 1486 -1546 1558 -77 58 -164 84 -271 83 -44
0 -99 -6 -121 -13z"/>
<path d="M6286 5939 c-154 -38 -296 -190 -326 -349 -6 -34 -10 -584 -10 -1544
l0 -1490 -362 360 c-328 326 -369 363 -425 388 -234 102 -489 7 -596 -222 -26
-56 -32 -82 -35 -159 -6 -119 19 -206 82 -289 71 -95 1503 -1517 1557 -1546
144 -78 281 -82 428 -13 74 35 92 52 832 793 739 739 758 759 795 835 33 69
38 90 42 166 9 193 -84 354 -252 432 -124 58 -250 59 -379 3 -56 -25 -97 -62
-424 -388 l-363 -360 0 1485 c0 1032 -3 1503 -11 1545 -25 137 -117 257 -245
320 -67 34 -83 37 -172 40 -53 2 -114 -1 -136 -7z"/>
</g>
</svg>
