<?xml version="1.0" standalone="no"?>
<!DOCTYPE svg PUBLIC "-//W3C//DTD SVG 20010904//EN"
 "http://www.w3.org/TR/2001/REC-SVG-20010904/DTD/svg10.dtd">
<svg version="1.0" xmlns="http://www.w3.org/2000/svg"
 width="1142.000000pt" height="1280.000000pt" viewBox="0 0 1142.000000 1280.000000"
 preserveAspectRatio="xMidYMid meet">
<metadata>
Created by potrace 1.15, written by Peter Selinger 2001-2017
</metadata>
<g transform="translate(0.000000,1280.000000) scale(0.100000,-0.100000)"
fill="#000000" stroke="none">
<path d="M7512 12728 c6 -29 8 -116 5 -193 -11 -279 -86 -503 -367 -1095 -251
-529 -326 -761 -337 -1040 -4 -123 -2 -160 16 -246 21 -103 63 -216 107 -291
l24 -42 -30 -16 c-39 -20 -64 -68 -57 -112 17 -101 112 -227 375 -496 265
-271 266 -272 267 -351 0 -33 -3 -81 -8 -106 -6 -40 -2 -33 41 55 58 119 136
225 274 372 168 179 256 312 321 488 92 247 130 578 131 1135 0 302 -11 429
-55 596 -52 200 -186 479 -441 915 -86 147 -181 314 -213 373 -31 58 -58 106
-59 106 -2 0 1 -24 6 -52z"/>
<path d="M4120 10536 c0 -3 27 -42 60 -88 72 -100 198 -312 350 -588 200 -364
335 -557 500 -714 105 -99 192 -163 314 -227 l91 -49 -47 0 c-27 0 -48 -4 -48
-9 0 -5 39 -46 88 -91 364 -339 954 -649 1385 -726 124 -22 313 -22 396 0 35
9 65 15 68 13 7 -8 -129 -340 -216 -527 -94 -202 -207 -416 -341 -647 l-95
-163 -7 116 c-17 262 -122 582 -251 767 -43 62 -52 69 -41 35 4 -13 -20 11
-53 52 -251 315 -680 543 -1260 669 -175 38 -354 65 -608 91 -217 23 -331 40
-645 100 -351 67 -485 83 -685 84 -188 0 -291 -13 -406 -53 -53 -18 -53 -19
-24 -25 243 -54 413 -124 587 -242 200 -136 343 -275 674 -649 271 -308 417
-453 599 -600 607 -488 1218 -751 1637 -705 100 11 193 37 261 72 22 11 41 17
43 15 14 -13 -415 -611 -710 -992 l-101 -129 -6 79 c-17 214 -160 447 -441
720 -128 125 -177 166 -298 252 -211 149 -545 327 -805 430 -355 139 -568 182
-1210 243 -584 56 -844 107 -1099 219 -27 12 -50 20 -52 18 -7 -7 163 -195
285 -317 70 -69 247 -242 395 -384 148 -143 328 -328 401 -410 264 -301 515
-523 812 -719 414 -273 758 -432 1106 -509 82 -18 133 -22 257 -22 168 0 248
14 349 60 30 13 55 23 56 22 2 -2 -67 -91 -152 -198 -86 -107 -237 -298 -336
-425 -99 -126 -185 -235 -191 -242 -8 -9 -10 10 -7 72 9 234 -140 410 -574
678 -115 70 -201 137 -404 312 -257 222 -386 305 -545 354 -93 29 -100 28 -92
-9 3 -16 4 -30 2 -30 -2 0 -28 11 -57 24 -98 43 -276 96 -426 126 -166 33
-280 48 -628 85 -569 60 -817 111 -1060 221 -55 25 -107 48 -115 52 -8 3 75
-82 184 -189 186 -181 296 -305 339 -379 l19 -31 -36 6 c-74 14 -73 -3 5 -56
171 -117 297 -228 624 -549 277 -272 398 -381 542 -489 294 -221 789 -453
1163 -545 183 -46 229 -51 430 -51 181 1 201 3 275 27 44 14 88 29 98 33 10 4
-30 -59 -89 -141 -83 -116 -308 -449 -411 -610 -10 -16 -12 -4 -12 66 -2 240
-128 426 -397 586 -278 165 -697 287 -1389 403 -686 116 -1197 255 -1540 420
-199 96 -310 167 -500 323 -28 23 -17 7 36 -52 97 -109 243 -285 399 -480 706
-883 1009 -1181 1510 -1482 390 -235 720 -342 1045 -341 129 0 164 4 249 27
114 30 257 96 334 155 29 23 54 41 56 41 2 0 -28 -57 -66 -127 -141 -257 -360
-708 -530 -1091 -148 -335 -408 -936 -405 -938 14 -14 304 550 547 1066 196
414 420 863 500 1000 l50 85 0 -55 c0 -94 28 -247 64 -355 130 -386 473 -802
951 -1150 316 -230 488 -305 1135 -495 551 -163 832 -319 1074 -600 55 -64 55
-62 -1 110 -87 267 -278 576 -567 919 -130 155 -456 514 -645 710 -555 579
-1067 977 -1437 1116 -114 43 -185 58 -301 64 l-111 6 101 157 c128 197 275
411 442 642 l130 180 8 -53 c17 -122 110 -346 259 -625 125 -233 304 -529 384
-635 l34 -43 10 28 c11 28 12 27 54 -62 139 -291 372 -510 760 -710 166 -86
291 -140 636 -276 581 -229 794 -335 1000 -493 39 -31 69 -50 64 -43 -4 7 -24
38 -44 68 -94 141 -229 381 -450 800 -295 560 -461 799 -769 1114 -581 590
-1102 941 -1519 1022 -83 16 -257 18 -317 4 -22 -5 -40 -8 -42 -7 -7 7 262
360 632 829 l140 177 6 -92 c8 -115 32 -180 110 -297 134 -200 414 -433 753
-625 407 -230 925 -371 1651 -449 188 -21 335 -33 335 -28 0 1 -12 14 -27 27
l-28 25 45 -6 c301 -38 591 -164 821 -356 l63 -52 -24 39 c-299 495 -884 1136
-1400 1536 -508 393 -971 609 -1391 650 -253 24 -509 -29 -704 -146 -32 -19
-59 -35 -61 -35 -2 0 73 101 165 224 230 305 395 537 581 818 l157 237 5 -79
c4 -69 11 -92 48 -167 82 -167 273 -327 560 -472 366 -185 868 -340 1359 -420
361 -59 544 -50 1096 53 500 94 696 115 923 97 75 -6 155 -14 177 -17 34 -6
-6 24 -260 197 -507 343 -800 528 -1120 706 -563 314 -1028 492 -1460 560
-152 24 -464 24 -592 0 -194 -36 -408 -123 -541 -221 -85 -62 -90 -65 -70 -34
82 125 320 580 414 791 57 128 158 379 174 434 15 48 25 48 34 -1 12 -63 65
-152 124 -208 218 -208 658 -248 1307 -117 434 87 804 225 1190 444 146 82
415 249 415 257 0 3 -16 16 -36 29 -36 22 -36 22 -15 38 45 34 195 115 282
153 234 100 458 153 704 165 l130 6 -100 23 c-1079 248 -1913 324 -2555 234
-531 -74 -932 -254 -1238 -554 -67 -67 -122 -117 -122 -112 0 5 9 40 21 78 30
103 18 91 -21 -20 l-34 -97 -26 85 c-86 277 -348 849 -409 892 -10 7 -27 34
-39 60 -129 292 -618 631 -1312 908 -328 131 -528 178 -1135 269 -110 17 -224
35 -254 41 -62 12 -61 11 -61 6z"/>
</g>
</svg>
