<?xml version="1.0" standalone="no"?>
<!DOCTYPE svg PUBLIC "-//W3C//DTD SVG 20010904//EN"
 "http://www.w3.org/TR/2001/REC-SVG-20010904/DTD/svg10.dtd">
<svg version="1.0" xmlns="http://www.w3.org/2000/svg"
 width="1280.000000pt" height="1280.000000pt" viewBox="0 0 1280.000000 1280.000000"
 preserveAspectRatio="xMidYMid meet">
<metadata>
Created by potrace 1.15, written by Peter Selinger 2001-2017
</metadata>
<g transform="translate(0.000000,1280.000000) scale(0.100000,-0.100000)"
fill="#000000" stroke="none">
<path d="M6318 12630 c-192 -33 -356 -168 -413 -339 -13 -40 -66 -97 -393
-424 l-378 -377 -95 -26 -95 -26 -245 65 c-843 226 -780 207 -833 249 -102 81
-207 118 -331 118 -236 0 -440 -156 -500 -381 -15 -55 -19 -214 -6 -258 4 -17
-30 -160 -106 -445 -62 -232 -123 -459 -135 -506 -21 -83 -23 -87 -97 -163
l-76 -77 -395 -106 c-217 -58 -451 -120 -519 -139 -96 -25 -131 -31 -155 -24
-48 14 -176 11 -241 -6 -205 -54 -364 -244 -381 -458 -11 -131 25 -250 109
-363 45 -61 57 -87 81 -175 15 -57 75 -281 133 -498 l105 -393 -27 -107 -28
-106 -376 -378 c-279 -280 -385 -380 -411 -388 -76 -25 -152 -74 -214 -139
-74 -79 -112 -152 -134 -261 -41 -197 54 -416 230 -530 32 -20 78 -43 102 -50
40 -12 90 -58 419 -389 l374 -375 28 -109 c26 -100 27 -112 15 -160 -7 -28
-68 -257 -135 -508 -120 -445 -124 -458 -163 -505 -78 -94 -115 -202 -115
-333 1 -282 232 -510 518 -510 38 0 86 5 105 10 31 9 97 -7 540 -125 l504
-136 86 -89 85 -90 133 -498 134 -499 -11 -77 c-23 -162 24 -307 139 -429 99
-106 223 -160 370 -161 133 0 261 48 355 133 26 24 101 46 525 159 l495 132
123 -33 123 -33 367 -367 c331 -331 369 -373 386 -420 79 -223 320 -370 553
-337 39 5 91 17 115 26 72 28 174 102 219 157 40 50 99 162 99 189 0 7 165
178 368 380 l367 367 125 32 125 32 499 -134 c457 -122 503 -136 539 -167 98
-81 210 -122 337 -122 150 0 255 45 365 155 126 125 177 287 145 456 -10 52
-6 71 121 549 l132 495 91 91 91 92 385 102 c212 57 439 117 505 135 81 21
130 29 150 24 57 -13 190 -9 246 7 177 52 319 195 365 368 16 60 18 192 3 255
-15 65 -56 147 -104 206 -43 52 -44 56 -174 541 -72 269 -131 500 -131 514 1
14 13 69 29 123 l27 98 375 375 c277 277 383 377 409 385 96 31 206 115 264
203 186 280 61 662 -253 776 -54 20 -83 47 -428 393 l-370 372 -27 106 -28
105 137 508 c133 497 137 509 177 559 102 129 142 301 103 452 -49 190 -208
345 -393 384 -64 13 -162 14 -217 1 -36 -8 -95 6 -541 125 -276 74 -504 135
-508 135 -3 0 -40 34 -82 76 l-76 77 -139 515 c-130 485 -137 518 -128 565 21
111 6 212 -47 322 -41 85 -96 151 -167 199 -198 131 -431 122 -622 -25 -54
-41 -76 -50 -220 -89 -88 -23 -316 -84 -506 -135 l-345 -93 -95 25 -94 25
-387 386 c-214 213 -388 392 -388 397 0 26 -71 154 -109 197 -111 125 -305
195 -463 168z m-201 -2976 c-1 -1 -49 -7 -107 -13 -275 -31 -646 -130 -903
-241 -54 -23 -99 -41 -101 -39 -3 3 247 943 284 1073 l12 39 408 -408 c225
-225 408 -410 407 -411z m1518 263 c81 -302 145 -550 143 -552 -2 -2 -76 25
-163 60 -270 108 -492 167 -783 207 l-162 23 407 407 c224 224 408 406 409
405 1 -1 68 -249 149 -550z m-3655 -683 c300 -80 546 -147 548 -148 1 -2 -48
-42 -110 -89 -253 -192 -486 -431 -685 -703 -16 -22 -22 -26 -27 -14 -6 16
-296 1099 -296 1105 0 3 6 2 13 0 6 -3 257 -70 557 -151z m5245 -415 c-80
-299 -148 -545 -150 -548 -3 -2 -6 -2 -8 0 -2 2 -21 29 -43 59 -163 228 -431
498 -677 683 l-87 65 52 16 c29 8 157 42 283 76 127 34 331 89 455 122 124 33
245 66 270 73 25 6 46 8 48 4 2 -4 -63 -251 -143 -550z m-5785 -1022 c0 -2
-18 -46 -41 -98 -121 -277 -207 -590 -244 -892 -8 -66 -16 -122 -18 -123 -2
-2 -187 181 -411 405 l-409 409 54 15 c30 9 268 72 529 142 261 69 486 130
500 135 28 10 40 12 40 7z m6471 -163 c299 -80 545 -147 546 -148 1 -1 -181
-185 -406 -410 l-408 -408 -7 82 c-22 271 -115 630 -236 918 -27 61 -45 112
-40 112 4 0 252 -66 551 -146z m-6761 -1604 c34 -301 123 -639 244 -919 20
-46 34 -86 31 -89 -2 -3 -82 16 -177 41 -620 165 -922 247 -926 252 -4 3 178
190 403 415 225 225 410 408 411 407 1 -1 8 -49 14 -107z m6909 -324 l403
-403 -99 -27 c-545 -148 -1013 -271 -1013 -266 0 4 17 47 39 96 120 278 209
605 242 897 7 59 15 107 18 107 4 0 188 -182 410 -404z m-6200 -1361 c169
-207 352 -385 553 -538 59 -45 106 -83 104 -84 -2 -3 -328 -91 -1009 -273 -94
-25 -107 -26 -103 -12 5 18 270 1010 287 1076 l10 38 46 -63 c25 -35 76 -100
112 -144z m5361 -385 c77 -289 140 -531 140 -538 0 -7 -3 -11 -7 -9 -5 3 -246
69 -538 146 -291 78 -538 145 -548 149 -16 6 -11 13 30 42 245 174 547 472
727 719 35 47 41 51 48 35 4 -10 71 -255 148 -544z m-4110 -561 c243 -107 620
-208 895 -239 55 -7 101 -13 102 -14 1 -1 -182 -186 -407 -411 -271 -271 -411
-404 -414 -395 -3 8 -49 177 -101 375 -53 198 -118 442 -146 543 -27 100 -49
185 -49 188 0 3 6 4 13 1 6 -3 55 -25 107 -48z m2514 -515 c-81 -302 -149
-551 -151 -554 -4 -5 -813 801 -813 811 0 4 33 10 73 13 295 29 638 117 927
239 58 24 106 43 108 42 1 -1 -64 -249 -144 -551z"/>
</g>
</svg>
