<?xml version="1.0" standalone="no"?>
<!DOCTYPE svg PUBLIC "-//W3C//DTD SVG 20010904//EN"
 "http://www.w3.org/TR/2001/REC-SVG-20010904/DTD/svg10.dtd">
<svg version="1.0" xmlns="http://www.w3.org/2000/svg"
 width="1280.000000pt" height="1280.000000pt" viewBox="0 0 1280.000000 1280.000000"
 preserveAspectRatio="xMidYMid meet">
<metadata>
Created by potrace 1.15, written by Peter Selinger 2001-2017
</metadata>
<g transform="translate(0.000000,1280.000000) scale(0.100000,-0.100000)"
fill="#000000" stroke="none">
<path d="M6047 12536 c-196 -95 -361 -176 -366 -181 -5 -6 -35 -125 -66 -265
-32 -140 -61 -259 -65 -263 -4 -4 -69 97 -145 225 -76 128 -142 235 -146 238
-5 3 -186 30 -404 59 l-395 54 -176 -169 c-97 -93 -228 -218 -291 -279 l-115
-110 25 -275 c13 -151 24 -276 22 -278 -1 -1 -97 81 -213 182 -168 146 -215
183 -234 179 -13 -2 -191 -35 -395 -72 -205 -37 -374 -69 -376 -72 -11 -13
-377 -699 -377 -707 0 -5 48 -120 106 -256 58 -137 104 -249 102 -251 -2 -2
-118 46 -258 105 l-255 108 -95 -51 c-52 -28 -212 -115 -355 -192 l-259 -140
-72 -395 -72 -395 33 -40 c18 -22 101 -116 183 -210 82 -93 148 -171 147 -173
-2 -2 -128 8 -281 23 -224 20 -280 23 -289 13 -6 -7 -112 -119 -235 -248 -123
-129 -243 -255 -266 -280 l-43 -45 54 -399 c30 -219 56 -400 57 -401 2 -1 108
-64 236 -141 127 -76 232 -141 232 -144 0 -3 -118 -31 -263 -64 -144 -32 -267
-64 -274 -70 -7 -6 -89 -170 -183 -365 l-170 -355 171 -355 c94 -196 176 -361
183 -366 7 -6 131 -37 274 -69 144 -33 259 -62 257 -66 -3 -4 -108 -69 -235
-145 -126 -75 -232 -140 -234 -144 -8 -13 -107 -763 -104 -786 2 -14 112 -136
277 -309 l274 -287 41 6 c49 6 479 45 501 45 9 0 -58 -85 -156 -198 -95 -108
-179 -204 -186 -213 -12 -14 -3 -74 58 -412 l72 -396 356 -191 355 -190 226
96 c124 53 240 103 258 111 l32 13 -13 -32 c-8 -18 -58 -135 -111 -261 l-97
-227 186 -348 c103 -191 190 -351 194 -355 8 -7 753 -147 786 -147 8 0 107 81
221 181 113 99 207 179 209 177 1 -2 -9 -127 -22 -278 l-25 -276 123 -120
c326 -317 454 -434 477 -434 13 0 188 23 390 50 202 28 372 50 378 50 6 0 76
108 155 240 79 131 145 237 147 236 2 -2 30 -123 63 -268 33 -144 65 -268 72
-274 17 -15 702 -344 718 -344 7 0 173 77 369 172 l357 171 62 271 c34 149 63
271 64 272 1 1 67 -106 147 -239 l145 -242 398 -53 397 -54 100 94 c55 51 185
174 289 273 179 170 189 182 190 218 1 21 -8 137 -20 258 -11 122 -19 231 -17
244 3 19 31 -2 212 -160 129 -113 214 -181 225 -179 9 2 180 33 381 70 201 36
372 67 381 70 17 5 396 701 392 719 -2 6 -50 120 -108 255 -58 134 -103 245
-101 247 2 2 115 -45 252 -103 137 -59 254 -107 259 -107 6 0 168 85 361 189
l351 188 72 398 72 397 -182 208 c-100 114 -177 209 -172 210 5 2 130 -8 279
-22 l269 -25 54 57 c30 32 145 153 255 268 111 116 212 222 224 237 l24 26
-54 397 -53 397 -237 141 c-131 78 -238 144 -238 147 0 3 119 32 265 65 146
32 269 61 274 64 8 6 351 714 351 726 0 5 -340 716 -345 723 -2 2 -122 30
-266 63 -145 33 -268 61 -274 63 -5 1 99 67 230 146 132 79 241 144 243 145 1
1 27 182 57 401 l54 399 -52 55 c-29 30 -104 109 -167 175 -64 66 -166 173
-228 237 l-112 118 -271 -25 c-150 -14 -274 -23 -276 -21 -2 2 77 97 176 210
100 114 181 212 181 219 0 31 -140 781 -147 787 -4 4 -164 92 -355 194 l-347
187 -251 -107 c-138 -58 -253 -104 -256 -102 -2 3 43 116 101 252 58 136 105
251 105 256 0 7 -358 682 -375 708 -3 4 -767 142 -786 142 -9 0 -108 -80 -220
-179 -177 -154 -204 -175 -207 -156 -2 13 6 122 17 244 12 121 21 237 21 258
0 37 -10 47 -289 314 l-289 276 -198 -28 c-110 -15 -289 -39 -400 -54 l-201
-28 -143 -239 c-79 -131 -144 -237 -145 -236 -2 2 -31 124 -65 273 -33 148
-62 271 -63 272 -2 1 -165 80 -363 176 l-361 174 -356 -171z m-261 -1328 c93
-116 170 -215 172 -219 2 -4 -16 -10 -40 -13 -179 -24 -347 -49 -421 -65 -59
-12 -87 -15 -84 -7 37 109 193 516 198 516 3 0 82 -95 175 -212z m1508 -49
c54 -143 96 -262 94 -264 -1 -2 -59 8 -127 21 -69 14 -189 33 -268 43 -79 10
-145 20 -147 22 -5 5 336 438 345 439 3 0 49 -117 103 -261z m-2931 -389 c114
-74 207 -138 207 -141 0 -3 -48 -28 -107 -55 -59 -27 -167 -82 -240 -121 -73
-40 -136 -73 -140 -73 -6 0 2 283 14 463 l6 97 27 -17 c15 -10 120 -79 233
-153z m4350 -133 c7 -147 8 -267 4 -267 -4 0 -58 28 -120 63 -62 34 -170 89
-240 122 -70 33 -127 62 -127 65 0 3 105 74 233 158 151 99 233 148 235 139 2
-8 8 -134 15 -280z m-2707 211 c-4 -35 -19 -158 -34 -275 l-28 -212 108 -238
c93 -206 105 -239 90 -244 -9 -3 -55 -9 -102 -13 -95 -7 -281 -37 -408 -65
l-83 -18 6 41 c3 23 17 141 30 263 l25 223 -115 242 c-63 133 -115 245 -115
249 0 14 283 67 500 93 63 8 119 14 124 15 5 1 6 -27 2 -61z m1137 12 c122
-21 256 -49 269 -56 3 -2 -46 -115 -111 -250 l-117 -246 29 -260 c16 -142 27
-261 25 -263 -2 -2 -29 3 -61 11 -81 21 -328 61 -422 69 -140 11 -138 -19 -14
256 l109 240 -35 270 c-19 148 -35 271 -35 272 0 6 242 -23 363 -43z m-2493
-299 c0 -5 22 -126 49 -270 l50 -262 131 -144 c202 -222 223 -246 219 -248 -2
-2 -53 -25 -114 -51 -118 -52 -260 -126 -364 -188 -35 -22 -65 -38 -66 -36 -2
2 -28 119 -57 260 l-53 256 -185 196 c-102 109 -184 200 -184 203 3 13 252
147 404 219 163 77 170 79 170 65z m3667 -71 c163 -78 404 -211 400 -221 -1
-4 -85 -95 -187 -203 l-184 -196 -43 -207 c-24 -115 -48 -231 -53 -260 l-11
-51 -92 55 c-80 47 -324 171 -425 214 l-33 14 179 196 178 197 50 266 c33 178
53 266 61 266 7 0 79 -32 160 -70z m-5228 -550 c141 -39 262 -73 269 -75 7 -3
-36 -50 -100 -109 -62 -57 -151 -146 -197 -196 -46 -50 -87 -88 -91 -83 -6 7
-150 513 -150 528 0 8 4 7 269 -65z m6887 42 c-3 -10 -37 -132 -76 -271 -38
-139 -70 -254 -72 -255 -2 -1 -91 87 -199 196 -187 189 -196 198 -170 205 14
3 134 37 266 74 132 37 244 67 248 68 5 1 6 -7 3 -17z m-6392 -400 l129 -237
219 -125 c121 -69 224 -128 230 -131 6 -4 -12 -26 -38 -50 -95 -84 -280 -269
-329 -328 -27 -33 -53 -60 -57 -60 -3 -1 -64 101 -134 225 -85 150 -137 232
-155 243 -14 9 -121 68 -237 131 -117 63 -212 119 -212 123 0 25 423 447 448
447 4 0 65 -107 136 -238z m6057 -51 c82 -85 149 -159 149 -165 0 -6 -107 -69
-238 -140 l-237 -128 -129 -229 -130 -229 -113 119 c-63 66 -161 165 -219 219
l-105 99 227 129 c197 112 230 134 251 169 13 22 74 131 134 243 l111 202 75
-67 c42 -38 143 -137 224 -222z m-3281 -106 l0 -335 30 0 30 0 0 330 c0 282 2
331 15 336 22 9 314 -14 456 -36 170 -26 478 -97 497 -115 2 -2 -42 -143 -98
-315 -56 -171 -98 -315 -94 -320 5 -4 19 -11 31 -14 20 -6 27 10 124 309 103
315 103 316 129 310 93 -23 409 -166 565 -256 120 -69 275 -171 275 -180 0 -5
-85 -126 -190 -270 -104 -143 -190 -265 -190 -269 0 -4 11 -15 24 -23 l24 -16
143 197 c79 108 167 230 197 270 l54 73 46 -37 c202 -162 403 -359 551 -539
50 -60 91 -112 91 -115 -1 -3 -122 -92 -269 -199 -267 -193 -269 -195 -254
-218 8 -13 20 -23 25 -23 5 0 124 84 265 186 141 102 261 188 267 190 19 7
175 -244 275 -445 55 -108 171 -388 171 -410 0 -5 -142 -56 -315 -112 -293
-96 -315 -104 -309 -123 3 -12 10 -25 15 -30 5 -6 126 28 311 88 167 54 307
99 312 100 13 2 58 -152 89 -304 38 -180 57 -334 64 -507 l6 -153 -331 0 -332
0 0 -30 0 -30 330 0 330 0 0 -90 c0 -119 -25 -343 -56 -500 -25 -132 -78 -342
-91 -364 -6 -10 -80 11 -316 88 -188 61 -311 96 -316 90 -5 -5 -12 -18 -15
-30 -6 -19 16 -27 310 -123 269 -87 315 -105 309 -119 -4 -9 -22 -60 -42 -112
-43 -114 -146 -333 -209 -444 -86 -150 -186 -296 -197 -289 -6 4 -125 89 -263
190 -139 101 -257 183 -262 183 -5 0 -17 -10 -25 -23 -15 -23 -12 -25 246
-213 144 -105 262 -195 262 -202 0 -21 -141 -188 -275 -326 -117 -120 -383
-356 -401 -356 -4 0 -93 119 -199 265 l-192 264 -24 -16 c-13 -8 -24 -19 -24
-23 0 -5 86 -126 191 -270 104 -144 189 -263 187 -265 -22 -17 -200 -131 -253
-162 -164 -95 -492 -245 -587 -268 l-27 -7 -101 311 c-96 295 -103 311 -123
305 -12 -3 -26 -10 -31 -14 -6 -6 147 -503 190 -613 6 -15 6 -15 -196 -67
-206 -52 -455 -87 -665 -92 l-100 -3 -3 328 -2 327 -30 0 -30 0 0 -331 0 -330
-107 6 c-156 9 -292 24 -423 46 -208 35 -430 94 -430 113 0 6 45 146 99 311
54 165 95 303 92 306 -3 4 -17 9 -32 12 -25 6 -25 5 -124 -299 -55 -169 -105
-308 -111 -311 -20 -7 -291 105 -449 186 -160 82 -393 225 -401 246 -3 7 80
130 185 273 l190 261 -26 21 c-15 11 -29 17 -33 13 -4 -4 -85 -116 -180 -248
-95 -132 -181 -248 -190 -258 -17 -18 -21 -15 -121 64 -133 106 -391 364 -497
497 -45 56 -82 104 -82 107 0 2 119 90 265 195 239 173 264 194 254 212 -6 10
-16 21 -23 24 -8 3 -132 -81 -276 -186 -144 -105 -263 -190 -265 -188 -18 20
-166 259 -212 343 -95 172 -230 491 -220 518 2 7 38 23 78 35 141 45 534 174
537 177 10 9 -13 55 -27 55 -9 -1 -151 -45 -316 -99 l-300 -98 -13 36 c-67
188 -142 645 -142 868 l0 63 330 0 330 0 0 30 0 30 -330 0 -330 0 0 68 c0 110
19 297 45 457 24 143 85 400 102 429 6 10 72 -8 312 -85 167 -55 310 -99 317
-99 11 0 30 48 21 56 -2 2 -142 49 -312 104 -169 55 -310 101 -312 103 -5 6
72 206 126 325 59 132 171 333 251 452 33 50 62 90 65 90 2 0 122 -86 266
-191 144 -104 267 -188 275 -185 7 3 17 14 23 24 10 18 -15 39 -254 212 -146
105 -265 195 -265 200 0 23 179 231 319 370 133 133 358 328 366 318 1 -2 87
-120 190 -263 104 -143 191 -264 195 -268 4 -4 18 2 33 13 l26 21 -190 261
c-105 144 -193 266 -195 272 -4 11 140 109 281 189 151 87 468 230 558 252
l26 7 102 -314 c56 -172 103 -314 104 -316 2 -2 16 3 32 10 l30 13 -102 313
c-101 308 -102 314 -81 322 11 5 62 21 111 34 225 62 526 106 778 114 l57 2 0
-335z m-3910 -671 c0 -3 -27 -54 -59 -112 -33 -59 -90 -169 -127 -246 l-66
-138 -155 233 -156 234 29 7 c24 6 194 15 492 26 23 1 42 -1 42 -4z m440 -331
l55 -50 255 -52 c140 -29 256 -54 258 -56 2 -1 -12 -27 -32 -57 -49 -78 -159
-288 -201 -388 -20 -47 -40 -88 -44 -93 -4 -4 -95 73 -202 170 l-195 178 -267
49 c-256 47 -267 50 -261 70 10 35 190 396 239 479 l46 78 147 -139 c81 -77
172 -162 202 -189z m7383 275 c91 -157 275 -525 265 -533 -2 -1 -118 -23 -258
-49 -140 -26 -263 -50 -272 -54 -9 -4 -100 -83 -203 -177 -103 -93 -190 -171
-194 -173 -5 -1 -16 19 -26 45 -29 78 -140 301 -200 402 -30 52 -54 95 -52 97
2 2 113 26 248 54 134 27 253 54 264 59 11 6 106 91 210 190 105 99 191 181
192 181 0 0 12 -19 26 -42z m475 26 c83 -4 152 -10 152 -14 0 -4 -70 -113
-154 -241 -125 -188 -156 -230 -162 -214 -15 42 -145 304 -194 394 l-52 94
128 -6 c71 -4 198 -10 282 -13z m-8483 -1398 l240 -114 259 29 c143 16 261 27
264 25 2 -3 -5 -49 -17 -103 -28 -132 -47 -255 -62 -390 -6 -62 -13 -113 -14
-113 -1 0 -111 49 -244 109 l-241 110 -266 -35 c-147 -19 -268 -33 -271 -31
-10 11 60 487 88 590 5 20 13 37 17 37 4 0 116 -51 247 -114z m-355 16 c-10
-46 -28 -152 -40 -235 -11 -84 -24 -171 -28 -194 l-7 -41 -218 175 c-120 96
-216 178 -212 181 6 7 519 202 522 199 0 -1 -7 -40 -17 -85z m8894 -49 c31
-163 52 -308 62 -415 5 -63 4 -78 -7 -78 -8 1 -129 16 -269 34 l-255 34 -242
-109 c-133 -60 -244 -109 -247 -109 -3 0 -6 17 -6 37 0 67 -30 287 -59 429
-16 76 -27 140 -26 142 1 1 120 -11 264 -27 l262 -29 237 113 c130 62 242 114
248 114 7 1 22 -54 38 -136z m361 2 c116 -43 213 -81 218 -85 7 -6 -416 -350
-431 -350 -4 0 -14 53 -21 118 -11 101 -50 341 -68 410 l-5 23 48 -19 c27 -11
144 -54 259 -97z m-8207 -1282 c12 -98 34 -234 48 -301 14 -68 24 -126 21
-128 -2 -2 -121 9 -265 25 l-261 30 -242 -116 c-181 -86 -244 -111 -250 -102
-15 25 -71 355 -94 562 -5 44 -3 57 7 57 7 0 129 -15 271 -34 l258 -33 237
108 c130 59 240 108 243 108 3 1 15 -79 27 -176z m7135 57 l242 -109 260 34
c143 19 264 35 269 35 20 0 -67 -576 -93 -619 -6 -9 -72 17 -252 102 l-244
115 -259 -29 c-142 -16 -261 -28 -263 -25 -2 2 9 71 26 152 29 145 61 367 61
425 0 16 2 29 5 29 3 0 114 -49 248 -110z m-8238 -220 c9 -74 27 -193 41 -265
13 -71 24 -133 24 -136 0 -6 -516 184 -525 193 -2 2 96 83 218 181 122 97 223
173 224 169 1 -4 9 -68 18 -142z m9328 -59 c114 -90 206 -166 204 -167 -13
-13 -527 -198 -527 -190 0 6 11 67 24 136 14 69 33 189 42 267 16 126 20 140
34 130 9 -7 109 -86 223 -176z m-7982 -708 c44 -103 160 -332 208 -412 28 -46
50 -85 49 -87 -3 -2 -415 -88 -483 -100 -34 -6 -65 -31 -208 -168 -93 -89
-183 -172 -199 -185 -36 -29 -19 -48 -130 154 -73 132 -193 384 -186 390 2 2
116 24 253 49 138 26 257 49 266 52 8 2 100 83 205 178 104 96 193 175 197
175 4 1 17 -20 28 -46z m6591 -129 c100 -92 191 -172 203 -179 11 -7 135 -34
275 -60 140 -26 256 -48 258 -50 14 -13 -273 -565 -293 -565 -3 0 -92 82 -198
183 l-192 182 -260 54 c-143 29 -262 55 -264 56 -1 2 20 42 49 90 54 90 174
327 206 407 11 27 22 48 27 48 4 0 89 -75 189 -166z m-7529 -498 c41 -85 98
-195 126 -245 28 -50 51 -94 51 -97 0 -4 -51 -4 -112 -1 -62 4 -187 10 -278
13 -91 4 -167 8 -169 10 -3 3 299 471 306 473 1 1 36 -68 76 -153z m8485 -108
l151 -227 -42 -5 c-49 -6 -521 -26 -524 -22 -2 1 32 66 75 143 43 78 100 189
127 247 26 59 51 103 55 99 4 -4 75 -110 158 -235z m-6799 -369 c69 -69 148
-144 175 -167 27 -23 47 -44 45 -45 -2 -2 -108 -63 -235 -135 l-230 -131 -128
-236 c-114 -208 -130 -234 -145 -223 -97 76 -431 414 -431 437 0 5 105 66 234
136 l234 127 132 235 133 234 45 -53 c25 -29 102 -110 171 -179z m5245 -41
l118 -207 234 -127 c129 -70 234 -131 234 -136 0 -15 -428 -438 -443 -438 -8
0 -70 104 -140 233 l-127 232 -234 133 -234 133 87 79 c48 43 148 141 222 218
l134 140 15 -27 c9 -14 69 -119 134 -233z m-4523 -514 c117 -67 229 -123 357
-179 l74 -32 -182 -199 c-99 -110 -183 -208 -186 -219 -2 -11 -24 -127 -49
-259 -24 -131 -47 -241 -49 -244 -8 -7 -56 13 -237 103 -165 82 -329 172 -329
181 0 3 82 92 183 198 l184 193 20 99 c12 54 36 172 54 262 18 89 36 162 39
162 3 0 58 -30 121 -66z m3612 -201 l54 -261 182 -192 c99 -106 181 -195 181
-199 0 -19 -553 -302 -565 -289 -1 2 -24 121 -51 265 l-48 263 -178 194 c-98
107 -178 199 -178 203 0 5 17 15 38 22 62 22 311 145 412 204 52 30 96 54 97
53 1 -1 27 -120 56 -263z m-5257 105 c37 -40 127 -130 198 -200 131 -126 131
-126 102 -134 -17 -4 -138 -37 -270 -74 -133 -37 -242 -63 -244 -59 -3 7 139
539 144 539 1 0 33 -33 70 -72z m6864 -213 c40 -146 71 -268 68 -270 -3 -4
-484 124 -526 140 -7 3 67 84 180 199 106 106 196 194 199 195 3 0 38 -118 79
-264z m-4185 -80 c132 -27 334 -55 395 -55 21 0 42 -4 45 -10 3 -5 -43 -118
-103 -250 l-109 -240 33 -252 c18 -139 33 -259 34 -267 0 -16 -96 -11 -265 15
-103 15 -358 64 -363 69 -2 1 49 112 112 245 l116 242 -30 265 c-17 145 -30
267 -30 270 0 3 10 3 23 -1 12 -3 76 -17 142 -31z m1497 -258 l-28 -248 112
-237 c62 -130 113 -240 114 -243 1 -15 -305 -71 -507 -92 -68 -7 -123 -13
-123 -12 0 0 16 121 35 267 l34 267 -109 242 c-61 133 -108 244 -105 247 2 2
46 8 97 13 99 10 356 51 448 72 53 12 55 12 57 -8 2 -11 -10 -131 -25 -268z
m-2991 -373 c57 -32 159 -83 226 -115 l123 -57 -236 -156 c-130 -87 -237 -156
-239 -154 -3 3 -25 488 -25 542 0 27 1 28 23 13 13 -8 71 -41 128 -73z m4485
-207 c-7 -153 -15 -279 -17 -281 -2 -2 -110 66 -239 151 l-235 155 170 83 c94
45 206 103 250 128 44 25 81 45 82 44 1 -2 -4 -127 -11 -280z m-3147 -267 c62
-12 175 -30 250 -39 91 -12 135 -22 133 -30 -4 -21 -337 -430 -344 -423 -4 4
-47 115 -96 247 -50 132 -94 249 -98 259 -6 16 -4 18 17 13 13 -3 75 -15 138
-27z m1726 -240 c-54 -143 -100 -260 -104 -259 -3 0 -84 98 -179 217 -170 214
-172 217 -145 223 16 4 100 17 188 29 88 12 198 29 245 39 47 9 87 16 89 14 2
-1 -40 -120 -94 -263z"/>
<path d="M6187 8879 c-216 -18 -485 -79 -677 -154 -839 -328 -1418 -1056
-1557 -1955 -25 -161 -25 -529 0 -690 110 -714 488 -1312 1078 -1706 643 -429
1472 -528 2204 -262 317 115 619 305 869 548 382 371 621 826 717 1367 27 152
37 479 19 648 -93 910 -690 1699 -1540 2038 -349 139 -736 197 -1113 166z"/>
</g>
</svg>
