<?xml version="1.0" standalone="no"?>
<!DOCTYPE svg PUBLIC "-//W3C//DTD SVG 20010904//EN"
 "http://www.w3.org/TR/2001/REC-SVG-20010904/DTD/svg10.dtd">
<svg version="1.0" xmlns="http://www.w3.org/2000/svg"
 width="1280.000000pt" height="1280.000000pt" viewBox="0 0 1280.000000 1280.000000"
 preserveAspectRatio="xMidYMid meet">
<metadata>
Created by potrace 1.15, written by Peter Selinger 2001-2017
</metadata>
<g transform="translate(0.000000,1280.000000) scale(0.100000,-0.100000)"
fill="#000000" stroke="none">
<path d="M5933 11040 c-604 -863 -1103 -1568 -1109 -1565 -7 2 -659 403 -1450
891 -792 488 -1446 889 -1454 890 -10 3 -283 -380 -842 -1179 -454 -650 -823
-1183 -819 -1185 5 -1 347 40 762 93 1525 193 1509 191 1517 178 5 -7 147
-477 317 -1044 l309 -1031 395 -312 c331 -261 1771 -1397 2371 -1870 2070
-1632 1886 -1484 1882 -1508 -1 -11 -49 -220 -107 -465 -59 -245 -105 -447
-103 -448 2 -1 356 -281 788 -622 432 -340 1083 -854 1447 -1141 364 -287 669
-525 678 -528 8 -4 15 -2 15 4 0 10 -73 285 -235 887 -46 171 -104 389 -129
485 -26 96 -55 207 -65 245 -28 104 -60 224 -160 595 -49 184 -99 370 -110
413 -12 42 -30 112 -42 155 -11 42 -60 226 -109 407 -49 182 -98 365 -109 408
-12 42 -30 111 -41 152 -11 41 -29 110 -41 153 -11 42 -60 226 -109 407 -49
182 -98 365 -109 407 -12 43 -30 113 -42 155 -11 43 -60 227 -109 408 -49 182
-98 366 -110 410 -12 44 -27 103 -35 130 -14 55 -205 767 -236 880 -10 39 -26
98 -35 132 l-16 63 1924 2747 c1058 1512 1928 2754 1932 2761 6 9 -547 12
-2753 12 l-2760 0 -1098 -1570z"/>
</g>
</svg>
