<?xml version="1.0" standalone="no"?>
<!DOCTYPE svg PUBLIC "-//W3C//DTD SVG 20010904//EN"
 "http://www.w3.org/TR/2001/REC-SVG-20010904/DTD/svg10.dtd">
<svg version="1.0" xmlns="http://www.w3.org/2000/svg"
 width="1260.000000pt" height="1280.000000pt" viewBox="0 0 1260.000000 1280.000000"
 preserveAspectRatio="xMidYMid meet">
<metadata>
Created by potrace 1.15, written by Peter Selinger 2001-2017
</metadata>
<g transform="translate(0.000000,1280.000000) scale(0.100000,-0.100000)"
fill="#000000" stroke="none">
<path d="M6010 12794 c-25 -2 -115 -8 -200 -14 -1106 -78 -2235 -493 -3156
-1161 -1318 -956 -2222 -2373 -2533 -3969 -86 -444 -115 -756 -115 -1250 0
-413 11 -577 60 -920 154 -1077 572 -2089 1218 -2950 766 -1022 1829 -1798
3011 -2198 1836 -621 3844 -360 5450 710 905 603 1641 1428 2136 2393 394 769
614 1527 696 2405 24 259 24 861 0 1120 -104 1108 -454 2111 -1052 3015 -772
1166 -1934 2064 -3235 2498 -486 163 -925 255 -1435 303 -149 14 -744 27 -845
18z m655 -294 c811 -53 1552 -252 2275 -611 813 -404 1517 -980 2082 -1704
668 -857 1102 -1901 1243 -2987 65 -503 63 -1119 -5 -1627 -251 -1872 -1342
-3516 -2965 -4471 -192 -112 -584 -304 -795 -388 -526 -210 -1057 -338 -1660
-399 -247 -25 -833 -25 -1080 0 -608 62 -1120 185 -1660 400 -1941 771 -3364
2539 -3724 4627 -101 584 -116 1274 -41 1858 214 1649 1083 3140 2404 4126
528 394 1106 694 1726 896 473 154 954 246 1450 279 180 12 570 12 750 1z"/>
<path d="M5990 12379 c-2097 -112 -3976 -1349 -4934 -3249 -343 -679 -533
-1333 -622 -2140 -21 -197 -30 -755 -15 -975 28 -401 86 -768 177 -1123 368
-1433 1245 -2676 2464 -3492 701 -470 1495 -782 2325 -914 925 -147 1872 -69
2760 229 1481 496 2702 1562 3409 2975 330 660 526 1330 605 2070 42 386 42
894 0 1280 -178 1657 -1012 3147 -2319 4146 -1105 845 -2466 1266 -3850 1193z
m561 -214 c603 -105 1009 -237 1274 -413 148 -99 251 -187 441 -376 175 -176
353 -376 483 -543 l63 -81 86 -12 c515 -71 1073 -227 1332 -373 238 -134 550
-415 851 -767 242 -283 243 -285 332 -525 134 -361 216 -652 264 -935 26 -158
24 -445 -6 -610 -52 -294 -179 -721 -304 -1022 l-44 -106 44 -109 c136 -338
253 -731 305 -1023 29 -166 31 -453 5 -610 -51 -299 -151 -645 -294 -1013 -54
-139 -64 -156 -147 -260 -361 -452 -735 -806 -1016 -960 -195 -107 -568 -226
-945 -302 -119 -24 -425 -75 -451 -75 -6 0 -40 -37 -75 -83 -281 -362 -673
-752 -925 -919 -224 -149 -574 -273 -1038 -368 -417 -85 -491 -89 -756 -42
-656 118 -1049 255 -1334 466 -244 180 -593 537 -845 863 -35 46 -69 83 -75
83 -26 0 -331 51 -451 75 -377 76 -750 195 -945 302 -281 154 -656 508 -1016
960 -81 101 -94 124 -142 246 -138 350 -248 727 -299 1027 -24 144 -24 435 0
580 51 299 157 664 297 1018 l56 144 -53 131 c-120 298 -249 734 -293 992 -66
386 -16 748 183 1341 141 418 150 435 397 723 294 345 592 619 819 754 279
166 800 316 1378 398 l82 11 63 82 c196 253 567 646 748 790 246 196 449 295
819 400 224 64 513 125 806 170 52 8 177 -3 326 -29z"/>
<path d="M6214 12093 c-162 -205 -350 -412 -534 -590 -230 -221 -427 -359
-645 -449 -277 -114 -718 -227 -1094 -280 -141 -20 -138 -24 24 -49 466 -70
896 -189 1170 -325 218 -108 372 -227 630 -485 162 -162 291 -306 439 -492 44
-55 82 -100 84 -99 1 2 -16 47 -39 102 -65 159 -186 526 -228 694 -82 322
-110 554 -91 759 31 339 144 755 339 1249 11 28 19 52 17 52 -1 0 -34 -39 -72
-87z"/>
<path d="M6313 12170 c3 -8 25 -62 48 -120 89 -224 185 -528 238 -752 106
-443 101 -700 -20 -1177 -43 -169 -165 -539 -228 -695 -23 -55 -40 -100 -39
-102 2 -1 39 43 83 99 197 248 500 569 676 716 284 236 555 363 1029 480 182
45 497 106 603 117 37 4 70 10 72 14 2 4 -51 15 -118 24 -500 70 -1041 230
-1299 383 -262 156 -623 500 -937 893 -96 120 -117 143 -108 120z"/>
<path d="M3680 10614 c-285 -356 -637 -702 -879 -864 -193 -129 -551 -262
-926 -344 -165 -36 -434 -84 -514 -92 -82 -9 -65 -16 89 -39 256 -37 614 -118
825 -185 223 -72 421 -164 555 -258 246 -173 567 -491 839 -832 128 -160 124
-162 50 23 -81 201 -191 553 -238 762 -83 371 -89 568 -26 910 44 235 163 630
278 923 25 61 44 112 42 112 -1 0 -44 -52 -95 -116z"/>
<path d="M3805 10715 c181 -472 268 -756 325 -1065 31 -163 38 -434 15 -594
-40 -291 -143 -657 -291 -1039 -30 -77 -54 -141 -54 -144 0 -2 41 46 92 109
163 203 260 310 438 488 306 307 489 435 789 555 244 97 704 210 1041 256 52
7 98 15 103 19 4 4 -37 12 -90 19 -144 18 -475 85 -653 132 -285 75 -524 165
-681 259 -268 159 -653 534 -983 955 -52 66 -61 75 -51 50z"/>
<path d="M8776 10704 c-36 -54 -269 -326 -403 -470 -212 -226 -441 -422 -612
-524 -157 -94 -396 -184 -681 -259 -178 -47 -509 -114 -653 -132 -53 -7 -94
-15 -90 -19 5 -4 51 -12 103 -19 148 -19 520 -96 680 -140 303 -84 544 -183
707 -291 247 -165 590 -503 886 -873 48 -60 87 -106 87 -104 0 3 -24 67 -53
144 -149 384 -247 730 -288 1013 -27 185 -23 441 10 620 49 261 163 647 280
944 28 72 49 131 47 133 -2 2 -11 -8 -20 -23z"/>
<path d="M8855 10648 c95 -237 206 -582 260 -811 111 -470 93 -786 -75 -1348
-48 -159 -114 -355 -159 -466 -74 -185 -78 -183 50 -23 272 341 593 659 839
832 134 94 332 186 555 258 211 67 569 148 825 185 154 23 171 30 89 39 -80 8
-349 56 -514 92 -371 81 -714 207 -911 335 -244 158 -600 506 -894 873 -51 64
-94 116 -96 116 -1 0 13 -37 31 -82z"/>
<path d="M1290 9272 c0 -5 14 -42 31 -83 122 -297 247 -715 301 -1009 30 -166
32 -481 4 -635 -57 -315 -171 -704 -300 -1019 -20 -50 -36 -94 -36 -98 0 -5
45 48 100 116 332 413 681 746 945 901 204 120 530 232 920 314 172 37 428 81
466 81 15 0 30 4 33 8 2 4 -50 15 -118 25 -67 9 -200 32 -296 52 -503 102
-846 221 -1080 377 -246 164 -584 497 -882 869 -48 60 -88 106 -88 101z"/>
<path d="M6243 9227 c-71 -93 -221 -268 -359 -418 -219 -237 -464 -448 -645
-554 -263 -155 -730 -293 -1274 -379 -82 -13 -143 -26 -135 -29 8 -2 94 -17
190 -32 443 -70 873 -192 1130 -320 112 -56 241 -143 365 -246 194 -161 496
-481 705 -746 35 -45 66 -81 67 -79 2 1 -15 47 -38 102 -65 159 -186 526 -228
694 -125 492 -127 743 -10 1220 43 174 170 567 238 735 22 54 39 101 37 102
-2 2 -21 -20 -43 -50z"/>
<path d="M6315 9263 c84 -197 209 -569 265 -788 126 -493 126 -755 -1 -1255
-42 -168 -163 -535 -228 -694 -23 -55 -40 -101 -38 -102 1 -2 32 34 67 79 127
161 307 364 455 512 336 337 558 483 921 604 253 84 600 165 884 206 63 9 122
19 130 22 8 3 -52 16 -135 29 -427 67 -829 173 -1094 288 -194 84 -349 191
-571 391 -173 157 -463 474 -613 673 -40 53 -55 65 -42 35z"/>
<path d="M11213 9161 c-128 -161 -339 -395 -474 -527 -311 -300 -528 -437
-875 -553 -248 -83 -632 -172 -900 -208 -68 -10 -120 -21 -118 -25 3 -4 18 -8
33 -8 38 0 294 -44 466 -81 390 -82 716 -194 920 -314 264 -155 613 -488 945
-901 55 -68 100 -121 100 -116 0 4 -16 48 -36 98 -129 316 -243 706 -300 1019
-28 154 -26 469 4 634 48 270 169 678 286 974 26 66 46 120 44 122 -2 1 -44
-50 -95 -114z"/>
<path d="M3683 7717 c-295 -365 -643 -708 -878 -864 -271 -179 -673 -310
-1270 -414 -93 -16 -182 -29 -197 -29 -16 0 -28 -3 -28 -8 0 -4 56 -15 125
-25 269 -38 645 -124 883 -203 336 -111 539 -235 817 -497 205 -192 356 -358
613 -672 l32 -40 -21 55 c-169 433 -268 766 -321 1075 -30 181 -31 429 0 607
56 327 156 664 321 1076 11 28 19 52 18 52 -2 0 -44 -51 -94 -113z"/>
<path d="M3800 7828 c0 -2 23 -63 51 -134 130 -329 251 -752 289 -1011 26
-182 26 -383 0 -563 -41 -279 -157 -682 -299 -1039 -23 -57 -40 -105 -39 -107
2 -1 30 32 63 74 117 151 302 360 460 517 353 354 575 495 979 624 219 70 607
156 864 192 50 7 92 16 92 19 0 3 -54 14 -119 23 -165 24 -392 70 -563 112
-359 90 -600 184 -793 309 -249 162 -603 509 -896 878 -94 119 -89 113 -89
106z"/>
<path d="M8735 7752 c-117 -152 -302 -360 -465 -522 -313 -314 -521 -455 -843
-575 -241 -88 -689 -195 -1002 -237 -52 -6 -92 -15 -90 -19 3 -3 33 -10 67
-13 117 -13 442 -77 619 -121 593 -148 841 -287 1249 -695 163 -162 348 -370
465 -522 33 -42 61 -75 63 -74 1 2 -16 50 -39 107 -144 363 -259 761 -300
1049 -27 185 -23 441 10 620 49 263 163 646 280 944 28 71 50 131 48 132 -1 2
-29 -32 -62 -74z"/>
<path d="M8861 7730 c148 -379 249 -724 301 -1028 28 -162 30 -426 4 -577 -50
-301 -165 -703 -285 -1002 -74 -185 -78 -183 50 -23 188 235 494 556 674 705
199 166 409 280 677 369 238 79 614 165 883 203 69 10 125 21 125 25 0 5 -12
8 -27 8 -37 0 -337 52 -488 85 -376 81 -699 191 -892 303 -282 165 -630 502
-1030 997 l-33 40 41 -105z"/>
<path d="M1290 6372 c0 -5 14 -42 31 -83 123 -298 248 -716 301 -1009 32 -180
32 -480 0 -660 -54 -294 -179 -712 -301 -1009 -17 -41 -31 -78 -31 -83 0 -5
28 26 62 69 136 172 301 357 467 523 264 264 423 385 648 492 262 126 726 251
1173 317 69 10 118 21 110 24 -8 3 -67 13 -130 22 -277 39 -649 125 -882 204
-275 93 -442 182 -648 348 -187 150 -481 457 -701 730 -54 68 -99 119 -99 115z"/>
<path d="M6220 6297 c-206 -261 -506 -579 -700 -741 -187 -156 -330 -242 -540
-326 -245 -98 -681 -207 -1025 -256 -66 -9 -124 -20 -128 -24 -4 -4 20 -10 54
-14 100 -10 435 -73 590 -112 617 -151 879 -294 1285 -701 147 -147 354 -380
464 -521 35 -45 65 -81 66 -79 2 2 -21 65 -51 141 -78 196 -177 504 -224 696
-97 398 -109 623 -50 951 44 248 159 635 275 927 29 75 52 137 51 138 -2 2
-32 -34 -67 -79z"/>
<path d="M6312 6370 c3 -8 25 -62 48 -120 70 -175 186 -535 229 -710 97 -399
109 -625 50 -951 -44 -248 -159 -635 -275 -927 -29 -75 -52 -137 -51 -139 2
-1 40 43 84 100 327 416 718 786 997 942 264 147 754 287 1301 369 50 7 83 16
75 19 -8 3 -67 13 -130 22 -342 49 -776 158 -1022 256 -282 112 -476 249 -773
544 -150 150 -298 315 -434 485 -97 121 -106 131 -99 110z"/>
<path d="M11212 6260 c-207 -262 -514 -582 -702 -733 -206 -166 -373 -255
-648 -348 -233 -79 -605 -165 -882 -204 -63 -9 -122 -19 -130 -22 -8 -3 41
-14 110 -24 299 -44 644 -124 897 -207 287 -95 492 -211 723 -410 190 -163
465 -458 670 -717 71 -90 71 -90 0 90 -114 293 -224 670 -272 936 -33 179 -32
481 0 659 53 290 154 632 284 963 27 71 48 129 47 131 -2 1 -46 -50 -97 -114z"/>
<path d="M3704 4843 c-341 -433 -740 -812 -1005 -956 -276 -150 -764 -292
-1249 -362 -63 -9 -122 -19 -130 -22 -8 -3 53 -16 135 -29 528 -83 1013 -226
1262 -372 285 -168 623 -496 1030 -998 l32 -39 -35 90 c-152 390 -254 739
-306 1043 -29 168 -31 418 -4 577 52 317 190 783 330 1118 9 20 15 37 13 37
-2 0 -35 -39 -73 -87z"/>
<path d="M3800 4926 c0 -3 14 -40 31 -83 151 -378 268 -781 310 -1073 27 -185
23 -442 -11 -620 -48 -257 -142 -582 -254 -876 -84 -223 -82 -214 -54 -179
174 224 455 535 616 681 269 247 424 347 691 451 257 99 717 211 1045 254 53
7 93 16 89 19 -5 4 -51 13 -103 19 -146 19 -518 96 -682 141 -524 144 -760
282 -1148 670 -169 168 -312 328 -460 515 -39 48 -70 85 -70 81z"/>
<path d="M8719 4831 c-146 -183 -274 -327 -449 -501 -388 -389 -623 -526
-1148 -670 -164 -45 -536 -122 -682 -141 -52 -6 -98 -15 -103 -19 -4 -3 36
-12 89 -19 328 -43 788 -155 1045 -254 267 -104 422 -204 691 -451 161 -146
442 -457 616 -681 28 -35 30 -44 -54 179 -112 294 -206 619 -254 876 -34 178
-38 435 -11 620 42 292 158 694 310 1074 18 43 30 80 29 81 -2 1 -37 -41 -79
-94z"/>
<path d="M8839 4883 c10 -27 33 -82 49 -124 87 -217 202 -596 246 -812 61
-297 68 -500 26 -755 -47 -289 -167 -697 -305 -1039 -18 -46 -32 -83 -31 -83
2 0 44 51 93 113 282 351 643 708 878 864 275 183 747 332 1350 427 83 13 143
26 135 29 -8 3 -67 13 -130 22 -478 68 -974 212 -1249 362 -266 145 -662 521
-1005 956 -38 48 -71 87 -72 87 -2 0 5 -21 15 -47z"/>
<path d="M6222 3400 c-289 -371 -665 -742 -917 -906 -272 -176 -685 -309
-1278 -409 -189 -32 -243 -45 -184 -45 47 0 377 -60 562 -101 412 -93 696
-201 910 -343 257 -172 575 -484 875 -859 52 -64 95 -116 96 -114 2 1 -15 48
-37 102 -122 302 -241 700 -288 960 -60 338 -46 578 59 993 43 170 164 537
229 696 23 55 40 101 38 102 -1 2 -31 -33 -65 -76z"/>
<path d="M6312 3470 c3 -8 25 -62 48 -120 67 -168 176 -502 219 -670 123 -484
126 -737 16 -1195 -55 -229 -152 -532 -246 -765 -21 -52 -37 -96 -35 -97 1 -2
34 36 72 84 331 420 692 768 970 935 256 154 728 294 1284 383 80 12 138 25
130 28 -8 2 -67 12 -130 21 -179 26 -492 92 -667 141 -298 82 -507 168 -678
279 -250 163 -594 500 -893 876 -87 110 -97 121 -90 100z"/>
</g>
</svg>
