<?xml version="1.0" standalone="no"?>
<!DOCTYPE svg PUBLIC "-//W3C//DTD SVG 20010904//EN"
 "http://www.w3.org/TR/2001/REC-SVG-20010904/DTD/svg10.dtd">
<svg version="1.0" xmlns="http://www.w3.org/2000/svg"
 width="1280.000000pt" height="640.000000pt" viewBox="0 0 1280.000000 640.000000"
 preserveAspectRatio="xMidYMid meet">
<metadata>
Created by potrace 1.15, written by Peter Selinger 2001-2017
</metadata>
<g transform="translate(0.000000,640.000000) scale(0.100000,-0.100000)"
fill="#000000" stroke="none">
<path d="M140 4501 c-139 -43 -135 -38 -111 -128 11 -40 13 -41 64 -48 28 -3
76 -11 105 -16 l52 -10 -2 -1091 -3 -1091 -45 -13 c-25 -8 -80 -19 -123 -26
-62 -9 -76 -15 -73 -27 3 -9 10 -37 17 -63 l11 -48 102 -32 c89 -29 114 -33
211 -33 83 1 130 6 190 24 311 88 565 334 835 809 l52 92 70 -127 c259 -475
522 -722 840 -787 141 -29 358 -15 523 34 274 81 360 118 486 211 192 141 340
330 546 697 l30 54 51 -95 c130 -244 243 -402 396 -552 160 -157 280 -224 539
-299 173 -50 244 -61 402 -61 173 0 231 12 364 76 247 117 439 325 675 732
l68 118 80 -142 c251 -448 499 -688 793 -766 96 -25 336 -25 451 0 138 30 345
96 430 137 240 115 472 368 679 738 32 56 61 102 65 102 3 0 33 -48 65 -107
134 -249 241 -398 384 -536 158 -151 280 -217 541 -292 470 -135 774 -64 1081
252 129 133 233 279 363 511 l58 102 66 -117 c134 -243 288 -453 409 -560 180
-159 359 -239 556 -250 93 -6 105 -4 228 33 l131 39 -6 29 c-4 17 -11 46 -16
66 l-10 36 -96 12 c-53 7 -100 15 -105 18 -5 3 -9 473 -9 1094 0 977 2 1088
16 1094 37 14 148 36 184 36 21 0 41 4 44 8 3 4 -2 35 -10 68 l-16 61 -126 38
c-117 35 -131 37 -211 32 -113 -9 -215 -38 -326 -92 -242 -120 -445 -346 -685
-764 l-42 -73 -63 113 c-138 253 -231 385 -365 520 -265 269 -547 349 -924
264 -255 -57 -436 -132 -577 -236 -86 -64 -238 -223 -313 -328 -62 -86 -179
-277 -221 -361 -14 -28 -27 -50 -29 -50 -2 0 -34 55 -71 122 -206 373 -410
600 -645 718 -88 44 -286 109 -432 142 -144 32 -349 32 -460 1 -167 -49 -306
-133 -445 -271 -136 -135 -249 -295 -434 -616 -9 -16 -21 -1 -86 115 -222 394
-407 597 -649 715 -228 111 -459 109 -835 -6 -194 -60 -325 -133 -459 -257
-143 -132 -303 -348 -425 -571 -27 -50 -53 -92 -56 -92 -3 0 -13 17 -23 38
-83 177 -255 436 -372 560 -153 163 -291 249 -516 320 -219 70 -313 87 -478
86 -128 -1 -156 -4 -235 -28 -291 -88 -539 -324 -775 -736 -23 -41 -54 -95
-67 -118 l-25 -44 -81 144 c-247 434 -470 654 -757 746 -161 52 -256 53 -420
3z m10073 -200 c4 -4 5 -499 1 -1098 l-7 -1091 -55 -11 c-31 -6 -64 -11 -74
-11 -17 0 -18 40 -18 1113 0 613 2 1116 5 1119 7 7 138 -12 148 -21z m-7473
-1102 l0 -1120 -57 7 c-32 4 -69 11 -82 16 l-24 9 6 502 c4 276 7 766 7 1089
l0 586 33 11 c33 10 68 17 100 20 16 1 17 -59 17 -1120z m245 1082 l60 -38 0
-1019 0 -1019 -69 -47 c-38 -27 -72 -48 -75 -48 -3 0 -5 497 -3 1105 2 872 5
1105 15 1104 6 0 39 -17 72 -38z m2237 21 c4 -4 7 -498 6 -1097 l-3 -1090 -50
-11 c-27 -7 -61 -13 -75 -13 l-25 -1 3 1116 2 1117 67 -6 c37 -4 70 -10 75
-15z m2503 -60 c0 -39 -2 -543 -3 -1118 l-2 -1046 -32 5 c-18 3 -52 9 -75 12
l-43 7 0 1093 0 1092 43 11 c115 30 112 31 112 -56z m254 37 l64 -41 -6 -666
c-4 -367 -7 -825 -7 -1019 l0 -352 -60 -41 c-33 -22 -66 -43 -75 -46 -13 -6
-15 114 -15 1100 0 1263 -12 1136 99 1065z m-3063 -2197 c-6 -6 -130 63 -144
81 -8 10 -10 284 -5 1029 l6 1016 71 47 71 47 3 -1108 c1 -609 0 -1109 -2
-1112z m4986 1111 c-2 -604 -5 -1100 -8 -1102 -6 -6 -87 35 -120 62 l-24 18 0
1013 0 1014 67 46 c37 25 72 46 77 46 8 0 10 -332 8 -1097z m-4385 978 l29
-26 -4 -931 -4 -930 -61 -41 c-34 -22 -68 -44 -74 -47 -10 -6 -13 202 -13
1024 l0 1031 49 -27 c28 -14 63 -38 78 -53z m4938 36 l70 -43 1 -934 c1 -685
-1 -939 -10 -949 -13 -17 -125 -91 -138 -91 -4 0 -8 464 -8 1030 0 567 4 1030
8 1030 4 0 39 -19 77 -43z m-9957 -20 l62 -39 0 -924 0 -924 -67 -50 c-38 -27
-74 -50 -82 -50 -12 0 -13 67 -8 458 4 251 7 710 7 1020 0 448 3 562 13 556 6
-4 40 -25 75 -47z m1932 -997 c0 -566 -2 -1030 -5 -1030 -9 0 -66 30 -112 59
l-43 26 0 716 c0 394 3 818 7 944 l6 227 66 44 c36 24 69 43 74 44 4 0 7 -463
7 -1030z m4980 -1 l0 -1030 -57 31 c-32 17 -66 37 -76 44 -16 13 -17 67 -15
952 l3 939 69 47 c38 27 71 48 73 48 2 0 3 -464 3 -1031z m4987 369 c-4 -359
-7 -818 -7 -1021 l0 -368 -32 17 c-18 9 -52 30 -75 46 l-43 29 0 922 0 923 48
35 c68 51 95 69 106 69 6 0 7 -246 3 -652z m-4101 426 l54 -70 0 -677 0 -676
-60 -78 c-33 -43 -68 -89 -79 -103 l-21 -25 0 874 0 874 26 -24 c14 -13 50
-56 80 -95z m-5001 14 l65 -82 0 -679 0 -679 -47 -61 c-26 -34 -59 -77 -75
-95 l-28 -33 0 861 c0 544 4 859 10 855 5 -3 39 -42 75 -87z m1315 -825 l0
-866 -21 19 c-12 10 -48 52 -81 93 l-58 74 0 678 1 678 56 73 c56 73 94 118
100 118 2 0 3 -390 3 -867z m4980 1 c0 -800 -1 -856 -17 -843 -9 8 -43 47 -75
87 l-58 73 0 679 0 678 70 91 c39 50 73 91 75 91 3 0 5 -385 5 -856z m1180
757 l70 -85 0 -607 0 -607 -62 -83 c-78 -103 -84 -109 -92 -109 -3 0 -6 356
-6 791 0 525 3 790 10 787 6 -2 42 -41 80 -87z m-4939 -70 l29 -45 -6 -590 -6
-591 -70 -92 c-38 -51 -72 -93 -74 -93 -2 0 -4 352 -4 783 l1 782 50 -55 c28
-30 64 -75 80 -99z m-5033 50 l72 -88 0 -586 0 -586 -60 -79 c-32 -43 -66 -85
-75 -92 -13 -11 -15 63 -15 754 0 421 2 766 3 766 2 0 36 -40 75 -89z m1322
-732 c0 -628 -3 -790 -12 -787 -7 3 -43 42 -80 87 l-68 82 0 609 0 608 56 73
c57 74 95 119 101 119 2 0 3 -356 3 -791z m4975 -777 c-3 -3 -11 1 -18 10 -6
8 -38 47 -70 86 l-58 71 1 602 1 602 46 61 c26 33 58 76 72 94 l26 32 3 -777
c1 -427 0 -779 -3 -781z m4987 1046 c-1 -271 -3 -617 -5 -768 l-2 -275 -72 90
-73 90 0 583 c0 584 0 584 22 615 40 58 120 157 126 157 4 0 6 -222 4 -492z
m-3457 -1 l109 -213 -103 -194 c-57 -107 -110 -204 -117 -215 -12 -17 -14 43
-14 408 0 235 4 427 8 427 5 0 58 -96 117 -213z m680 163 l-26 -51 3 -413 3
-413 -28 51 c-16 28 -67 127 -113 219 l-85 169 82 156 c96 184 178 332 185
332 2 0 -7 -23 -21 -50z m-5661 -180 l97 -190 -95 -186 c-53 -103 -103 -196
-111 -207 -13 -19 -15 24 -15 393 1 349 3 412 14 397 7 -9 57 -103 110 -207z
m654 -477 l-3 -218 -33 57 c-58 104 -192 364 -192 375 0 11 137 275 193 373
l32 55 3 -212 c1 -116 1 -310 0 -430z m6807 442 l80 -155 -80 -155 c-126 -244
-115 -259 -114 155 0 413 -11 397 114 155z m-4996 9 c45 -84 81 -158 81 -165
0 -15 -154 -307 -171 -323 -5 -6 -9 115 -9 324 0 198 4 330 9 325 5 -6 45 -78
90 -161z m-4973 -32 l69 -132 -65 -126 c-36 -70 -75 -143 -87 -163 l-22 -36
-1 325 c0 374 -13 359 106 132z m674 -202 c0 -192 -3 -350 -7 -350 -5 0 -48
79 -98 175 l-90 175 54 103 c80 153 132 247 137 247 2 0 4 -157 4 -350z m4980
-2 c0 -208 -4 -328 -9 -322 -17 16 -171 308 -171 323 0 14 168 331 176 331 2
0 4 -149 4 -332z m4982 5 l-3 -328 -22 36 c-12 21 -51 93 -87 163 l-65 125 38
73 c47 93 137 258 140 258 1 0 1 -147 -1 -327z"/>
</g>
</svg>
