<?xml version="1.0" standalone="no"?>
<!DOCTYPE svg PUBLIC "-//W3C//DTD SVG 20010904//EN"
 "http://www.w3.org/TR/2001/REC-SVG-20010904/DTD/svg10.dtd">
<svg version="1.0" xmlns="http://www.w3.org/2000/svg"
 width="1280.000000pt" height="886.000000pt" viewBox="0 0 1280.000000 886.000000"
 preserveAspectRatio="xMidYMid meet">
<metadata>
Created by potrace 1.15, written by Peter Selinger 2001-2017
</metadata>
<g transform="translate(0.000000,886.000000) scale(0.100000,-0.100000)"
fill="#000000" stroke="none">
<path d="M7676 8848 c-3 -7 -30 -182 -62 -389 l-57 -377 -61 -16 c-159 -42
-445 -108 -571 -131 -165 -30 -161 -29 -250 -67 -372 -161 -732 -521 -795
-797 -18 -78 -8 -258 20 -346 87 -276 316 -526 677 -741 115 -69 115 -67 -11
-80 -61 -6 -75 -12 -145 -62 -111 -79 -240 -185 -378 -311 -434 -395 -728
-860 -798 -1261 -21 -120 -22 -347 -1 -493 74 -517 344 -1150 743 -1744 l82
-123 -184 0 -184 0 -164 212 c-414 537 -559 752 -687 1021 -95 200 -153 385
-186 598 -21 140 -21 371 0 468 56 255 187 508 400 775 89 113 398 426 420
426 12 0 46 40 46 55 0 4 -13 4 -29 0 -27 -6 -38 1 -118 82 -222 221 -368 434
-435 638 -32 98 -32 242 0 339 70 211 244 440 492 650 l45 38 -40 -5 c-22 -3
-218 -44 -435 -91 -217 -47 -415 -88 -439 -92 l-44 -7 7 179 c3 98 7 235 7
304 1 71 13 228 30 364 16 132 27 242 24 244 -13 13 -21 -26 -60 -284 l-41
-275 -338 -338 c-329 -329 -340 -339 -390 -349 -28 -7 -127 -25 -221 -42 -151
-27 -177 -35 -240 -71 -182 -104 -401 -289 -505 -427 -63 -83 -125 -206 -147
-292 -18 -71 -21 -211 -6 -275 l10 -40 -891 -898 c-490 -493 -894 -897 -898
-897 -4 0 -193 138 -420 307 -365 271 -466 340 -445 307 3 -5 183 -156 401
-334 l395 -324 -83 -80 c-205 -200 -288 -412 -288 -741 0 -693 370 -1097 1074
-1174 204 -23 404 -9 643 45 209 46 426 119 564 189 l68 34 58 -92 c244 -383
534 -773 755 -1012 247 -269 466 -563 680 -915 l77 -125 1814 -3 c998 -1 2048
2 2334 7 580 10 579 10 723 86 270 141 497 502 622 985 17 69 37 136 44 150
16 34 124 107 194 132 45 16 98 22 257 29 278 13 338 33 462 152 81 78 158
191 273 402 108 199 143 249 202 291 100 72 206 110 464 164 197 42 239 59
273 114 29 47 45 125 37 180 -6 37 -11 46 -24 42 -9 -2 -32 -8 -51 -11 l-34
-7 7 73 c46 463 328 1329 758 2323 103 240 110 270 60 264 -22 -2 -32 -15 -59
-70 -27 -56 -39 -71 -75 -89 -52 -26 -163 -107 -197 -143 l-24 -26 -573 0
-572 0 -31 -25 c-16 -14 -40 -49 -53 -78 -13 -29 -33 -72 -45 -97 -12 -24 -20
-46 -18 -48 2 -2 243 -4 535 -3 l531 2 -23 -35 -23 -36 -534 -2 -535 -3 -52
-115 c-29 -63 -53 -119 -54 -123 0 -4 234 -6 520 -5 286 2 520 0 520 -3 0 -3
-5 -20 -11 -38 l-11 -31 -526 0 -527 0 -42 -89 c-24 -48 -43 -102 -43 -119 l0
-32 513 -2 c281 -1 525 -1 541 -1 28 1 28 1 22 -45 -34 -259 -32 -595 4 -901
7 -61 4 -94 -15 -195 -13 -66 -29 -166 -35 -221 -7 -55 -13 -101 -14 -102 -1
-2 -160 -28 -381 -63 -116 -18 -547 -71 -551 -67 -20 19 -203 348 -269 482
-127 259 -192 446 -242 705 -25 126 -27 154 -27 410 -1 292 6 361 60 624 48
237 120 443 258 746 201 438 567 1036 960 1568 67 90 127 172 134 183 8 10 12
23 10 29 -2 6 -93 -92 -203 -217 -525 -598 -1374 -1547 -1380 -1541 -1 2 19
262 46 578 28 337 44 579 39 584 -11 11 -15 -9 -34 -159 -35 -281 -137 -1062
-142 -1088 -6 -28 -277 -329 -784 -872 -445 -476 -929 -980 -935 -974 -2 2
-16 76 -31 164 -25 140 -28 186 -29 370 0 180 3 226 23 322 128 635 604 1390
1349 2144 112 113 200 208 197 212 -3 3 -36 -6 -73 -20 -231 -88 -583 -213
-603 -213 -13 0 -71 18 -128 41 -327 127 -547 284 -628 447 -35 73 -37 80 -37
177 1 66 7 122 19 165 83 289 337 592 829 987 86 70 157 131 157 135 0 15 -34
8 -349 -76 -329 -88 -485 -129 -861 -228 -470 -122 -622 -160 -627 -154 -6 5
60 642 74 724 5 31 -13 48 -21 20z m-3230 -1618 c-20 -128 -38 -235 -41 -238
-5 -5 -471 -101 -495 -102 -8 0 115 130 275 290 159 159 291 288 292 286 2 -2
-12 -108 -31 -236z m34 -224 c-12 -12 -13 29 -2 100 l7 49 3 -69 c2 -39 -2
-74 -8 -80z m3692 -286 c223 -15 485 -46 718 -86 113 -20 222 -38 243 -41 20
-3 37 -9 37 -12 0 -7 -471 -165 -700 -235 -367 -112 -1063 -297 -1075 -285 -5
6 63 640 70 647 1 2 50 7 106 11 155 12 428 12 601 1z m-836 -57 c-3 -16 -26
-165 -52 -333 -26 -168 -48 -306 -49 -308 -4 -4 -390 -79 -451 -87 l-52 -7
-30 79 c-139 361 -3 544 488 657 143 33 153 33 146 -1z m-3180 -834 l76 -12
-5 -41 c-18 -125 -88 -584 -92 -602 -4 -19 -19 -23 -157 -43 -84 -11 -193 -26
-243 -32 -117 -13 -412 -14 -447 -1 -21 9 -28 21 -37 60 -43 203 -6 364 112
480 108 106 240 161 467 196 57 8 255 5 326 -5z m248 -50 l49 -12 -6 -201 c-4
-111 -7 -235 -7 -277 l0 -76 -52 -11 c-29 -7 -75 -15 -102 -19 l-48 -6 6 29
c3 16 19 146 36 289 37 313 36 308 58 301 9 -3 39 -11 66 -17z m317 -90 c181
-56 509 -172 637 -224 l56 -23 -55 -15 c-94 -27 -497 -124 -669 -161 -91 -20
-175 -39 -187 -41 l-21 -5 5 243 c5 264 7 287 27 287 7 0 100 -27 207 -61z
m-2012 -108 c50 -99 139 -211 227 -286 73 -62 205 -151 266 -180 l36 -18 -83
-52 c-322 -202 -537 -481 -636 -823 -54 -190 -64 -487 -20 -673 93 -405 379
-828 773 -1146 38 -31 67 -58 64 -60 -5 -5 -514 125 -531 135 -54 33 -857 638
-864 650 -37 71 -39 438 -3 567 53 192 156 353 282 440 22 15 38 31 35 35 -9
14 -283 21 -440 10 -303 -20 -556 -74 -745 -157 -51 -22 0 32 696 729 413 414
783 788 824 831 40 42 75 77 77 77 1 0 21 -35 42 -79z m9942 -393 c-5 -13 -32
-77 -61 -143 -157 -365 -330 -812 -447 -1160 -70 -207 -192 -617 -194 -653 -4
-54 -19 94 -29 284 -25 461 33 851 162 1086 126 228 351 476 528 581 25 15 46
27 47 27 1 0 -1 -10 -6 -22z m-5430 -1909 c57 -5 147 -19 199 -30 94 -20 399
-117 446 -142 25 -13 21 -16 -238 -273 -249 -245 -640 -616 -657 -622 -7 -2
104 1039 114 1066 5 15 7 15 136 1z m-415 -36 c-3 -16 -31 -190 -61 -388 -59
-380 -76 -459 -126 -602 -33 -93 -104 -240 -146 -305 l-26 -38 -172 0 -173 0
-26 108 c-52 220 -70 396 -56 545 20 210 72 331 194 453 121 121 256 187 476
233 126 26 123 26 116 -6z m-2976 -90 c0 -28 -133 -889 -139 -894 -3 -3 -62 8
-131 25 l-125 31 -47 140 c-141 419 -82 642 185 694 52 11 257 14 257 4z m268
-53 c42 -17 122 -54 177 -83 l100 -52 -4 -181 c-7 -396 -17 -663 -23 -669 -8
-8 -451 85 -464 98 -3 3 20 208 50 457 31 248 56 453 56 456 0 10 37 2 108
-26z m5726 22 c6 -10 -78 -660 -87 -668 -3 -3 -135 -16 -294 -28 l-288 -23
-65 57 c-115 100 -359 397 -360 437 0 14 266 101 456 149 128 32 323 68 419
77 79 7 214 7 219 -1z m314 -100 c59 -27 157 -77 217 -111 200 -115 532 -341
510 -348 -11 -3 -475 -53 -729 -78 -87 -9 -161 -13 -164 -10 -9 9 41 595 50
595 5 0 57 -22 116 -48z m-7891 -334 c395 -324 398 -327 450 -412 45 -73 50
-86 35 -90 -40 -13 -338 -55 -467 -66 -178 -16 -417 -7 -544 19 -110 23 -222
74 -280 126 -50 46 -98 142 -106 215 -21 180 105 397 276 478 74 35 169 62
211 59 20 -1 141 -95 425 -329z m2386 101 c177 -128 399 -307 597 -481 186
-164 413 -375 419 -390 3 -10 -26 -8 -269 18 -236 26 -902 135 -969 159 -14 5
-13 132 5 658 l7 178 40 -24 c22 -13 99 -66 170 -118z m4012 -82 c165 -100
433 -275 467 -304 16 -14 15 -17 -13 -40 -41 -35 -71 -90 -130 -239 -28 -71
-62 -141 -76 -156 -44 -46 -104 -63 -223 -63 -58 0 -473 1 -922 3 l-818 2 6
63 c4 37 13 69 23 78 45 46 808 445 1131 592 145 66 370 164 380 166 3 1 82
-45 175 -102z m-4915 -727 c1301 -288 2403 -491 3230 -594 433 -54 498 -58
1078 -63 l552 -5 93 26 c156 45 251 100 502 287 367 274 549 387 659 408 28 5
186 12 351 14 295 5 299 5 265 -13 -58 -30 -142 -48 -380 -81 -204 -28 -232
-35 -305 -68 -99 -46 -268 -160 -531 -358 -239 -179 -311 -223 -436 -268 -171
-61 -209 -65 -600 -65 -629 1 -981 28 -1688 131 -627 91 -1647 282 -2021 378
-273 70 -1203 351 -1219 369 -3 3 6 2 20 -1 14 -4 207 -47 430 -97z m240 -634
c331 -76 730 -164 1075 -237 383 -81 362 -75 375 -99 15 -29 -18 -57 -76 -66
-184 -27 -818 135 -1370 351 -149 58 -267 113 -219 101 11 -3 108 -26 215 -50z"/>
</g>
</svg>
