<?xml version="1.0" standalone="no"?>
<!DOCTYPE svg PUBLIC "-//W3C//DTD SVG 20010904//EN"
 "http://www.w3.org/TR/2001/REC-SVG-20010904/DTD/svg10.dtd">
<svg version="1.0" xmlns="http://www.w3.org/2000/svg"
 width="1280.000000pt" height="976.000000pt" viewBox="0 0 1280.000000 976.000000"
 preserveAspectRatio="xMidYMid meet">
<metadata>
Created by potrace 1.15, written by Peter Selinger 2001-2017
</metadata>
<g transform="translate(0.000000,976.000000) scale(0.100000,-0.100000)"
fill="#000000" stroke="none">
<path d="M6730 9751 c-47 -5 -55 -9 -58 -28 -2 -12 -13 -25 -25 -29 -89 -27
-685 -258 -809 -314 -48 -21 -59 -39 -35 -57 13 -11 600 -169 760 -205 l97
-21 0 -83 0 -83 -272 -90 c-352 -116 -503 -161 -536 -161 -25 0 -24 -3 31 -58
31 -32 57 -63 57 -69 0 -7 10 -18 23 -24 12 -7 42 -30 67 -53 105 -95 214
-182 253 -203 85 -45 128 -27 305 126 l62 54 -2 -184 -3 -184 -55 -12 c-402
-91 -853 -204 -866 -218 -25 -25 -61 -256 -46 -290 6 -14 20 -25 29 -25 11 0
29 -19 45 -44 l27 -45 -30 -78 c-83 -215 -129 -490 -109 -663 32 -286 228
-918 309 -999 28 -28 33 -26 193 120 115 105 372 309 388 309 3 0 26 -38 51
-83 l46 -82 -5 -116 -4 -116 -67 -7 c-36 -4 -174 -20 -306 -36 -132 -16 -286
-34 -342 -41 l-103 -12 0 -134 0 -135 29 4 c27 2 32 -3 59 -54 18 -33 42 -111
61 -194 52 -228 129 -515 192 -720 l59 -192 -47 -171 c-32 -117 -51 -171 -61
-171 -10 0 -12 -8 -7 -28 4 -19 -18 -114 -65 -292 -76 -282 -244 -949 -256
-1013 -3 -21 -16 -47 -27 -58 -17 -16 -19 -23 -10 -37 8 -13 5 -44 -10 -125
-12 -59 -24 -107 -27 -107 -4 0 -78 76 -166 170 l-159 169 -22 108 c-15 79
-18 113 -11 127 8 15 7 22 -6 32 -12 8 -43 112 -97 325 -81 319 -109 424 -205
773 -33 118 -53 208 -50 222 4 14 1 26 -8 31 -12 7 -57 156 -278 920 l-29 102
23 34 22 35 31 -56 c40 -72 97 -106 163 -98 115 15 259 140 322 278 32 71 37
77 65 78 17 0 36 4 43 9 14 8 51 375 39 387 -3 3 -198 -26 -433 -65 -363 -61
-429 -70 -436 -57 -9 17 -48 10 -48 -9 0 -14 -26 -23 -52 -17 -17 3 -18 22
-18 219 l0 215 38 -7 c125 -23 439 -156 621 -263 34 -20 43 -22 38 -10 -3 9
-11 109 -18 222 -19 326 10 684 75 907 64 222 201 489 327 641 36 42 47 48
123 68 102 27 105 32 113 184 6 104 5 109 -13 104 -10 -3 -85 -24 -167 -48
-81 -24 -148 -41 -150 -39 -2 2 -29 139 -60 304 -48 252 -60 303 -78 317 -29
24 -18 44 32 59 36 11 45 20 65 63 31 66 32 120 2 140 -31 22 -34 21 -200 -25
l-148 -41 -296 237 c-169 135 -299 247 -304 261 -8 21 -31 30 -63 25 -4 -1
-10 6 -13 14 -4 10 -10 12 -18 6 -7 -6 -30 -6 -61 0 -59 11 -75 7 -75 -21 0
-11 -1 -20 -3 -20 -1 0 -42 -14 -91 -30 -115 -39 -278 -85 -866 -246 -412
-112 -440 -121 -440 -143 0 -25 19 -31 95 -31 79 0 222 -24 530 -90 490 -105
622 -131 698 -137 l77 -6 0 -37 0 -37 -102 -31 c-238 -72 -491 -145 -597 -173
-63 -16 -118 -34 -122 -40 -4 -6 -12 -8 -19 -4 -34 21 -40 -97 -11 -220 11
-44 17 -83 14 -88 -5 -9 -1652 -1465 -2815 -2488 l-176 -155 -97 -33 c-96 -32
-98 -33 -135 -16 -23 10 -47 14 -60 10 l-22 -7 24 -25 c20 -22 23 -36 26 -124
4 -116 -20 -92 232 -223 l165 -85 467 -563 c444 -534 468 -565 474 -611 7 -51
23 -67 67 -67 14 0 30 -6 36 -13 13 -16 -6 -19 414 68 153 31 284 55 291 52 7
-3 21 -21 30 -41 15 -32 16 -48 7 -131 -25 -223 0 -305 96 -305 90 0 322 112
353 171 6 10 16 19 23 19 21 0 442 -171 445 -181 2 -5 12 -9 21 -9 10 0 31 -5
48 -10 29 -11 30 -13 52 -143 28 -161 85 -388 141 -562 263 -810 744 -1468
1375 -1880 470 -307 987 -479 1645 -547 186 -19 743 -16 945 6 307 32 554 76
805 143 1308 345 2379 1256 3031 2577 81 164 198 441 215 509 l6 28 297 -6
c163 -4 436 -10 606 -15 171 -4 313 -5 316 -1 6 5 39 218 39 248 0 8 -21 13
-57 15 l-58 3 -47 185 -47 185 0 190 -1 190 66 151 66 151 61 11 c33 6 64 15
69 20 5 5 18 54 29 108 33 159 15 244 -50 244 -14 0 -69 -9 -121 -19 -72 -15
-98 -16 -107 -8 -15 16 -1793 2956 -1793 2966 0 4 32 15 71 25 39 11 76 25 83
32 19 18 48 144 44 185 -2 25 -8 35 -23 37 -11 1 -126 -29 -255 -67 -129 -38
-368 -108 -530 -156 -162 -48 -352 -104 -422 -125 l-128 -37 0 41 c0 42 1 43
55 65 94 39 193 152 266 306 19 39 34 71 35 73 1 2 39 -4 84 -12 103 -20 183
-20 219 -2 37 20 88 119 136 265 l38 114 50 -129 c108 -280 153 -388 162 -391
6 -1 16 1 24 6 11 7 -7 63 -97 295 -62 158 -112 295 -112 306 0 10 8 21 18 25
18 6 93 119 112 169 14 39 -9 76 -49 76 -15 0 -88 -18 -161 -40 -73 -22 -139
-40 -147 -40 -7 0 -150 61 -318 136 l-305 137 0 93 c0 77 -3 94 -15 94 -8 0
-15 5 -15 11 0 7 -39 9 -117 6 -114 -3 -129 -7 -433 -96 -487 -142 -601 -184
-608 -225 -6 -27 6 -34 93 -56 44 -12 159 -45 255 -75 313 -96 464 -136 520
-138 l55 -2 -3 -75 c-2 -41 -7 -78 -10 -82 -9 -9 -361 -102 -507 -134 -94 -20
-135 -24 -190 -20 l-70 6 -3 -108 c-4 -126 3 -138 65 -128 l38 7 48 -96 c50
-98 128 -195 178 -220 15 -8 42 -15 59 -15 39 0 149 54 245 121 39 27 74 49
77 49 3 0 19 -23 37 -51 l31 -50 0 -144 0 -144 -37 -11 c-21 -5 -93 -25 -161
-44 l-123 -33 -53 71 c-74 101 -894 1249 -943 1321 -38 56 -42 66 -47 150 -4
50 -9 109 -12 131 l-6 42 -94 -31 -93 -31 -218 107 c-120 58 -283 135 -363
170 l-145 64 -3 51 c-4 71 -22 82 -127 80 -44 -1 -105 -4 -135 -7z m408 -242
c246 -109 514 -242 500 -250 -22 -11 -650 -221 -653 -217 -4 5 7 528 12 528 2
0 65 -27 141 -61z m-2478 -589 c143 -115 257 -211 253 -213 -14 -8 -510 -157
-522 -157 -8 0 -11 84 -11 296 0 190 3 293 10 289 5 -3 127 -100 270 -215z
m5436 -27 c-6 -7 -520 -163 -535 -163 -12 0 -13 19 -8 107 4 58 7 150 7 204
l0 97 270 -121 c148 -66 268 -122 266 -124z m-1697 -553 c250 -349 468 -654
485 -677 16 -24 28 -44 25 -46 -7 -6 -336 -85 -443 -107 -54 -11 -116 -20
-137 -20 -33 0 -41 4 -56 33 l-18 32 -3 -29 c-3 -27 23 -248 34 -288 4 -14 10
-15 56 -2 29 7 53 12 54 11 1 -1 -15 -31 -36 -65 -93 -154 -140 -311 -147
-497 -5 -114 -2 -149 21 -270 35 -183 126 -551 171 -691 39 -124 61 -160 91
-150 10 3 53 54 94 114 249 357 429 513 623 537 l57 7 -2 -298 -3 -299 -250
-42 c-137 -23 -351 -56 -473 -74 l-224 -32 -24 29 -24 29 6 -30 c3 -16 13 -82
22 -145 l18 -115 31 3 c36 4 34 8 58 -118 63 -322 183 -767 270 -1001 l33 -89
-30 -102 c-16 -57 -36 -108 -45 -115 -10 -7 -13 -20 -10 -34 3 -12 -24 -127
-63 -268 -37 -135 -85 -309 -105 -386 -20 -77 -40 -143 -44 -147 -5 -6 -264
439 -1063 1827 -137 239 -138 241 -165 361 -31 144 -28 166 17 124 112 -105
364 -28 678 208 147 110 213 172 210 196 -3 18 -10 21 -46 21 l-42 0 -32 83
c-20 53 -36 82 -46 82 -8 0 -88 -9 -176 -20 -314 -39 -745 -90 -760 -90 -14 0
-16 31 -16 255 l0 255 35 0 c165 0 526 -145 709 -285 81 -61 89 -50 48 65 -56
154 -102 433 -109 650 -5 153 -3 173 22 285 36 160 119 422 217 684 120 322
178 465 193 477 8 6 53 21 100 33 l85 23 0 120 0 120 -27 -7 c-30 -8 -639
-152 -1011 -240 -128 -30 -237 -55 -242 -55 -6 0 -10 11 -10 24 0 17 14 34 50
60 61 44 113 113 141 187 l21 57 46 -15 c67 -21 194 -13 248 15 23 11 62 44
87 72 51 57 133 216 168 328 l23 73 76 23 75 24 15 -22 c8 -11 219 -307 469
-656z m-3134 -170 c29 -151 52 -276 51 -278 -5 -4 -914 -262 -926 -262 -7 0
-10 28 -8 88 l3 87 51 6 c60 8 145 51 180 91 35 42 48 102 37 170 -5 32 -9 58
-8 58 1 0 35 -13 74 -30 196 -80 285 -58 375 93 34 57 73 158 97 247 9 32 14
39 17 25 2 -11 28 -144 57 -295z m-1519 -200 c95 -39 291 -107 364 -126 l35
-10 3 -136 c2 -123 1 -137 -15 -142 -198 -60 -786 -205 -865 -212 l-68 -7 0
-135 0 -134 -31 -36 c-37 -42 -70 -114 -90 -192 -15 -61 -18 -270 -6 -366 l8
-62 -288 -254 c-446 -392 -788 -688 -1059 -915 l-121 -101 -146 146 c-139 139
-147 149 -153 194 -4 27 -12 54 -18 61 -8 11 -182 48 -217 47 -4 0 -4 -19 -2
-43 l5 -43 -103 -29 c-57 -15 -196 -57 -309 -91 -112 -35 -206 -62 -208 -60
-1 2 451 404 1005 893 554 489 1220 1077 1480 1306 l472 418 93 33 c51 18 102
34 114 35 11 0 65 -17 120 -39z m7823 -1594 c531 -878 878 -1462 872 -1466 -6
-3 -136 -32 -289 -64 -152 -31 -441 -92 -641 -135 l-363 -78 -117 156 c-203
271 -551 750 -551 759 0 5 9 17 21 28 19 17 20 25 13 109 -7 93 -17 135 -36
146 -8 5 -8 51 1 166 18 242 48 771 71 1253 12 239 23 449 26 466 6 43 85 146
100 131 6 -7 408 -669 893 -1471z m-1063 951 c-45 -867 -84 -1478 -95 -1489
-4 -5 -33 -13 -66 -19 -55 -10 -60 -9 -75 11 -31 42 -82 618 -84 955 -1 264 4
293 74 449 55 123 251 439 258 416 2 -5 -3 -151 -12 -323z m-4686 231 c0 -7
-5 -20 -10 -28 -9 -13 -11 -13 -20 0 -14 21 -12 28 8 33 9 3 18 5 20 6 1 0 2
-5 2 -11z m-2720 -1238 c0 -33 68 -284 105 -385 44 -123 111 -264 157 -331
l35 -52 -68 -11 c-37 -6 -81 -11 -97 -11 -20 0 -35 -8 -45 -23 -14 -21 -11
-29 40 -122 47 -84 54 -104 49 -134 -6 -42 14 -126 41 -174 25 -42 78 -77 118
-77 l32 0 21 -102 c12 -57 35 -177 53 -268 36 -186 77 -343 112 -422 l24 -53
-65 -221 -65 -222 -131 55 c-72 30 -268 111 -436 180 l-305 126 -403 401
c-222 221 -453 453 -513 517 l-109 117 183 153 c246 207 611 523 962 832 159
140 293 253 297 251 4 -3 8 -14 8 -24z m3530 -180 c0 -27 -2 -50 -4 -50 -2 0
-14 16 -26 35 -18 29 -20 38 -10 50 25 30 40 17 40 -35z m3011 4 c119 -41 320
-128 429 -186 61 -32 83 -50 117 -98 l42 -59 -52 -10 c-29 -6 -173 -31 -322
-56 -148 -25 -282 -48 -297 -51 l-28 -6 0 251 c0 138 2 251 4 251 2 0 50 -16
107 -36z m-5501 -223 l0 -249 -27 -6 c-49 -11 -638 -104 -640 -102 -2 2 32 56
75 122 135 205 238 321 358 401 66 44 160 82 202 83 l32 0 0 -249z m6537 -736
c120 -165 262 -358 316 -429 53 -71 95 -131 93 -133 -2 -2 -147 -35 -322 -73
-176 -38 -424 -92 -553 -119 -129 -28 -240 -51 -247 -51 -8 0 -21 25 -30 58
-9 31 -56 191 -104 355 l-88 299 32 52 32 53 39 -15 c22 -8 78 -15 125 -16 80
-1 91 1 162 37 86 42 207 149 273 240 22 31 43 53 47 49 3 -4 105 -142 225
-307z m-9587 254 c0 -11 87 -553 97 -600 4 -24 -2 -31 -56 -68 l-61 -42 -435
221 c-239 122 -435 223 -435 226 0 3 10 9 22 13 16 6 28 4 41 -7 16 -14 20
-13 50 16 34 33 142 71 522 183 94 28 181 54 195 59 36 12 60 12 60 -1z m3040
-99 c0 -5 -8 -10 -17 -10 -15 0 -16 2 -3 10 19 12 20 12 20 0z m-2560 -230
c-1 -8 -160 -133 -164 -129 -1 2 -15 74 -30 159 -16 85 -30 166 -33 180 -4 19
23 -3 111 -90 64 -63 116 -117 116 -120z m2465 212 c-9 -8 -149 -32 -183 -32
-8 0 -12 6 -10 13 5 12 65 23 153 25 27 1 45 -2 40 -6z m-225 -26 c0 -10 -33
-18 -117 -31 -155 -24 -186 -24 -191 -4 -2 13 18 18 130 31 176 20 178 20 178
4z m-412 -57 c4 -24 -43 -31 -63 -9 -23 25 -18 31 22 28 25 -2 39 -8 41 -19z
m2997 -327 c-49 -172 -60 -200 -70 -185 -18 26 -225 400 -225 406 0 3 24 3 53
0 81 -8 159 18 211 71 l41 43 24 -66 24 -66 -58 -203z m-317 155 c33 -62 100
-183 149 -270 l90 -158 -37 -134 c-60 -214 -52 -205 -88 -90 -68 221 -202 731
-202 773 0 30 29 -10 88 -121z m1043 51 c34 -59 48 -97 75 -222 19 -83 36
-159 38 -168 3 -13 -7 -19 -47 -28 -27 -6 -52 -8 -55 -5 -9 8 -80 469 -75 482
10 24 22 13 64 -59z m-3293 27 c7 -19 33 -62 58 -96 l46 -62 -16 -56 c-44
-156 -114 -362 -119 -353 -14 22 -187 436 -187 446 0 6 23 22 50 35 28 13 72
45 98 71 26 26 49 47 52 48 4 1 12 -14 18 -33z m4712 -164 c65 -180 166 -424
219 -529 l40 -79 -31 -112 c-17 -61 -35 -111 -39 -111 -11 0 -91 249 -150 470
-43 160 -129 529 -129 548 0 4 9 -4 19 -17 10 -14 42 -90 71 -170z m455 114
c5 -32 -10 -97 -80 -335 -48 -162 -91 -299 -95 -303 -11 -13 -131 265 -231
535 l-28 76 57 -26 c74 -34 165 -41 216 -17 20 10 60 43 89 75 56 61 63 61 72
-5z m-4344 -48 c12 -42 20 -80 16 -83 -3 -3 -27 -6 -53 -7 l-47 -2 -13 55 -12
55 36 40 c21 23 40 36 44 30 3 -5 16 -45 29 -88z m2359 66 c0 -5 16 -104 35
-222 19 -118 34 -215 32 -216 -11 -7 -90 -25 -93 -22 -11 10 -23 166 -24 291
0 116 3 143 17 158 17 19 33 24 33 11z m-4932 -513 c420 -424 462 -468 462
-498 0 -28 -3 -31 -17 -23 -10 5 -67 14 -128 21 l-110 12 -395 200 c-217 110
-396 201 -397 202 -5 4 -74 398 -71 405 5 12 181 152 188 148 3 -1 213 -212
468 -467z m4459 445 c20 -12 31 -26 28 -35 -2 -8 -18 -88 -36 -178 -27 -135
-35 -162 -48 -158 -9 2 -33 7 -53 11 -21 3 -38 10 -38 16 0 21 104 369 109
367 3 -2 21 -12 38 -23z m3202 -118 c18 -60 30 -111 28 -113 -2 -3 -27 -7 -54
-10 l-49 -6 -19 97 -19 97 34 28 c19 16 38 26 41 22 4 -4 21 -56 38 -115z
m-5226 37 c6 -30 5 -31 -43 -40 l-49 -10 -7 30 c-4 17 -2 32 3 33 6 2 25 15
44 29 37 27 39 26 52 -42z m-897 -91 c31 -76 81 -193 110 -261 54 -126 56
-141 26 -198 -5 -10 -18 -54 -28 -96 -9 -43 -21 -78 -25 -78 -9 0 -41 97 -68
205 -17 70 -111 541 -111 559 0 3 8 6 19 6 15 0 31 -30 77 -137z m5451 -100
c-19 -91 -38 -167 -41 -170 -3 -3 -28 -2 -54 3 l-49 9 53 179 c29 98 55 185
58 192 4 9 14 4 37 -18 l31 -32 -35 -163z m531 104 c10 -48 16 -90 12 -92 -4
-2 -26 -7 -48 -11 l-42 -7 0 86 c0 84 1 87 28 101 15 8 28 13 29 12 1 -1 11
-41 21 -89z m-5555 54 l25 -10 -19 -83 c-11 -46 -21 -92 -24 -103 -4 -17 -13
-20 -64 -21 -39 -1 -58 3 -56 10 2 6 18 56 35 111 17 55 33 106 36 113 3 10 9
10 23 2 11 -5 31 -14 44 -19z m2567 -126 c0 -141 -2 -155 -17 -155 -44 1 -45
10 -16 163 15 81 29 147 31 147 1 0 2 -70 2 -155z m-1870 -62 c27 -95 50 -175
50 -177 0 -2 -31 -4 -69 -4 l-70 -1 -16 72 c-15 68 -55 256 -55 262 0 1 23 5
50 9 28 4 50 12 51 19 1 17 2 13 59 -180z m-610 67 l0 -100 -31 0 c-24 0 -29
3 -25 18 3 9 12 49 21 87 29 128 35 128 35 -5z m5099 84 c4 -4 -8 -84 -36
-237 l-16 -89 -46 7 c-25 4 -48 8 -50 10 -3 3 54 280 65 313 3 9 14 11 41 6
21 -4 40 -8 42 -10z m-4695 -31 c6 -21 66 -302 66 -308 0 -3 -27 -5 -60 -5
-33 0 -60 3 -60 8 0 4 -11 72 -25 152 -14 80 -25 148 -25 152 0 6 32 13 77 17
13 0 24 -6 27 -16z m3264 -918 c291 -506 544 -946 562 -978 l32 -57 -17 -73
c-10 -39 -21 -76 -25 -81 -9 -9 -83 32 -315 177 -238 149 -415 268 -424 286
-16 31 -83 375 -78 405 2 19 -1 35 -9 41 -8 6 -42 143 -78 315 -88 411 -185
860 -192 885 -4 13 -3 17 4 10 5 -5 248 -424 540 -930z m-3373 650 c20 -121
76 -449 124 -730 48 -280 86 -511 85 -513 -2 -4 -57 54 -184 197 l-92 104 6
45 c3 24 6 295 7 601 0 320 4 548 9 536 5 -11 25 -119 45 -240z m5410 5 c26
-91 50 -170 52 -176 3 -8 -19 -11 -66 -12 -57 0 -71 3 -75 16 -7 22 -66 303
-66 312 0 4 20 11 45 14 33 5 45 12 45 24 1 34 17 -11 65 -178z m-8630 123
c16 -75 18 -73 -42 -41 l-41 22 31 23 c41 29 45 28 52 -4z m8439 -65 c9 -40
25 -112 35 -160 l19 -87 -55 -7 c-29 -3 -56 -4 -59 -2 -5 5 -54 280 -54 303 0
14 22 21 72 24 25 1 27 -3 42 -71z m-384 -23 c0 -72 -3 -85 -16 -85 -14 0 -15
7 -10 43 4 23 10 61 13 85 3 23 7 42 9 42 2 0 4 -38 4 -85z m-7943 -570 c28
-165 49 -302 47 -304 -2 -2 -12 7 -23 20 -10 13 -186 225 -390 471 -204 246
-371 449 -371 452 0 4 154 -71 343 -166 l342 -173 52 -300z m2598 615 c3 -5
21 -10 38 -10 56 0 57 -6 33 -115 -22 -96 -24 -100 -52 -106 -103 -23 -114 -1
-71 139 30 98 39 114 52 92z m3379 -233 c28 -127 52 -240 54 -250 4 -15 -1
-17 -29 -16 -19 1 -51 -2 -71 -6 -21 -4 -38 -3 -38 1 0 5 -16 106 -35 224 -19
118 -35 221 -35 227 0 7 18 16 41 19 22 4 43 13 46 20 3 8 8 14 12 14 3 0 28
-105 55 -233z m-3165 156 c-2 -103 -8 -117 -57 -127 -23 -5 -45 -7 -48 -4 -4
5 3 44 31 166 4 18 12 22 40 22 l35 0 -1 -57z m2301 27 c54 0 57 -5 47 -65 -6
-30 -13 -55 -16 -55 -7 0 -91 133 -91 144 0 4 7 0 16 -8 8 -9 28 -16 44 -16z
m660 -17 c0 -5 16 -104 35 -222 19 -118 32 -217 30 -220 -3 -2 -30 -6 -60 -9
-42 -3 -55 -1 -55 9 0 8 -11 100 -25 204 -14 105 -25 197 -25 206 0 22 100 53
100 32z m-492 -13 c16 0 15 -130 -2 -225 l-12 -70 -42 65 c-23 36 -40 72 -38
80 3 8 10 42 16 75 16 86 17 88 43 81 12 -3 28 -6 35 -6z m2370 -47 c32 -6 46
-13 45 -23 -3 -27 -64 -305 -67 -308 -2 -1 -24 32 -49 74 l-45 77 14 46 c8 25
22 75 32 110 9 35 18 57 20 49 2 -10 20 -19 50 -25z m-2565 -55 l45 -73 -15
-75 -15 -75 -74 -1 c-41 0 -74 2 -74 6 0 3 11 46 25 95 15 50 33 114 41 143 8
28 16 52 18 52 2 0 24 -33 49 -72z m-1554 -134 c27 -93 48 -170 47 -171 -1 -1
-40 5 -87 13 l-86 16 -27 126 c-15 70 -29 135 -32 145 -4 14 1 17 28 17 18 0
49 8 68 18 19 9 36 15 38 11 1 -3 24 -81 51 -175z m4313 147 c3 -3 -6 -73 -20
-156 l-27 -150 -55 4 c-30 1 -56 4 -58 6 -3 3 53 281 63 312 3 8 15 8 47 1 24
-6 46 -14 50 -17z m93 -299 l-7 -272 -59 32 c-33 18 -58 37 -56 43 2 5 21 115
43 244 32 195 42 235 57 239 9 2 18 12 18 21 1 9 4 5 6 -9 3 -14 2 -148 -2
-298z m-4614 156 c25 -121 26 -128 8 -128 -30 0 -119 21 -119 28 0 10 -29 182
-35 210 -5 22 -4 23 57 20 l62 -3 27 -127z m4890 19 c4 -28 33 -195 63 -371
31 -175 56 -320 56 -322 0 -2 -31 17 -70 42 l-70 47 0 335 c0 184 3 332 7 329
3 -4 10 -31 14 -60z m-5431 31 c0 -20 -47 -269 -51 -272 -2 -2 -13 -6 -25 -10
-17 -5 -24 1 -42 36 l-21 43 21 97 21 97 41 10 c57 12 56 12 56 -1z m-157 -50
c-14 -73 -18 -76 -42 -31 -26 52 -26 51 2 56 46 9 47 8 40 -25z m5957 -124 l0
-144 39 0 c31 0 41 -4 46 -21 4 -11 4 -23 2 -26 -7 -6 -149 18 -160 27 -5 4
-19 59 -33 121 -13 63 -26 124 -29 136 -5 20 0 23 46 29 28 4 56 12 62 19 7 7
15 11 20 8 4 -2 7 -69 7 -149z m-6033 50 c39 -83 40 -88 29 -137 -12 -53 -9
-51 -87 -70 -23 -6 -30 -1 -52 32 l-26 39 32 104 c28 93 40 117 58 118 3 0 24
-39 46 -86z m3122 -114 c6 -47 22 -173 36 -280 14 -107 24 -201 23 -208 -2 -8
-24 11 -51 44 -39 49 -47 64 -42 88 3 16 6 146 6 290 2 263 4 269 28 66z
m2736 103 c9 -43 23 -104 30 -135 7 -32 9 -58 5 -58 -9 0 -124 22 -128 25 -2
2 -42 214 -42 227 0 4 19 9 43 11 23 2 50 4 59 5 13 2 20 -15 33 -75z m-3207
32 c12 -19 22 -37 22 -40 0 -3 -16 -5 -36 -5 -33 0 -36 2 -30 23 3 12 6 30 6
40 0 26 13 20 38 -18z m2341 -51 c12 -20 20 -38 18 -40 -2 -2 -18 -7 -35 -10
-24 -5 -32 -3 -32 8 0 16 20 78 25 78 2 0 13 -16 24 -36z m-2565 -19 c11 -8
34 -15 50 -16 65 -1 65 -1 35 -144 -14 -71 -29 -123 -32 -115 -37 87 -93 258
-89 272 5 22 11 22 36 3z m-2164 -152 l-1 -158 -25 30 c-28 33 -28 31 3 198 8
48 17 87 19 87 2 0 4 -71 4 -157z m-2217 -75 c-10 -50 41 -133 144 -236 52
-52 93 -95 91 -97 -10 -7 -479 -97 -484 -92 -7 6 -114 589 -114 618 0 16 32 3
184 -73 181 -90 185 -93 179 -120z m4650 195 c6 -10 -32 -236 -41 -244 -4 -4
-31 -11 -59 -16 -48 -9 -53 -8 -53 7 0 15 30 172 45 238 5 19 12 22 55 22 27
0 51 -3 53 -7z m-1951 -18 c25 -4 50 -10 57 -15 13 -7 97 -377 88 -386 -2 -3
-37 3 -78 13 l-73 18 -26 155 c-42 245 -41 232 -26 227 7 -3 34 -8 58 -12z
m4281 -30 c20 -3 37 -11 37 -18 0 -32 -55 -263 -64 -269 -19 -13 -23 -9 -61
75 -43 92 -45 109 -21 189 l17 57 27 -14 c15 -8 44 -17 65 -20z m-4044 -18
l64 -13 53 -189 c29 -105 55 -199 58 -211 6 -21 6 -21 -47 -4 -28 9 -76 23
-104 30 -31 8 -55 20 -57 29 -11 36 -76 352 -76 366 0 11 7 14 23 10 12 -3 51
-11 86 -18z m2607 -464 c-4 -4 -161 39 -168 45 -4 4 -18 81 -33 172 -14 91
-28 177 -31 192 -5 25 -2 27 50 38 30 6 60 18 67 26 11 13 22 -25 65 -228 29
-133 51 -244 50 -245z m1615 471 l36 -6 -10 -49 c-5 -27 -13 -49 -17 -49 -9 0
-90 94 -90 104 0 8 34 8 81 0z m-2764 -230 c-2 -2 -33 -10 -70 -18 -58 -12
-67 -12 -67 1 0 13 44 178 56 213 3 8 23 -31 45 -89 21 -57 38 -106 36 -107z
m863 192 c0 -3 13 -87 30 -187 16 -101 28 -184 27 -186 -4 -4 -121 28 -129 35
-5 5 -48 296 -48 325 0 3 21 8 48 10 26 2 53 4 60 5 6 1 12 0 12 -2z m-3445
-47 c-10 -15 -25 -10 -19 6 4 8 10 12 15 9 5 -3 7 -10 4 -15z m5346 -123 c-6
-28 -12 -31 -66 -43 -33 -7 -64 -12 -68 -13 -9 0 -7 12 20 132 l14 67 53 -56
c46 -50 52 -60 47 -87z m-5071 87 c21 -35 21 -41 10 -115 -7 -43 -17 -75 -22
-72 -5 3 -26 28 -48 55 -27 35 -37 55 -33 71 21 93 24 98 47 98 17 0 30 -11
46 -37z m2598 -436 l-3 -152 -39 69 -39 69 39 241 39 241 3 -158 c1 -87 1
-227 0 -310z m3135 447 c20 -3 40 -11 43 -16 9 -15 85 -371 80 -376 -3 -2 -38
3 -79 12 l-74 17 -27 162 c-15 89 -30 175 -33 191 -6 27 -4 28 23 22 16 -3 46
-8 67 -12z m-5863 -3 c0 -5 -3 -17 -6 -25 -6 -15 -8 -15 -19 1 -7 10 -11 21
-9 25 7 11 34 10 34 -1z m-58 -64 l35 -42 -16 -68 c-9 -38 -23 -72 -31 -77
-18 -10 -180 -44 -185 -39 -1 2 5 31 15 64 10 33 28 92 39 130 l21 71 44 2
c41 1 47 -2 78 -41z m6116 29 c35 -8 65 -16 68 -19 2 -2 1 -88 -3 -189 l-8
-186 -35 12 c-34 11 -35 14 -52 91 -9 44 -28 131 -41 193 -28 128 -33 120 71
98z m-1160 -88 c12 -28 20 -53 18 -55 -2 -3 -22 -7 -44 -10 l-41 -5 17 61 c9
33 19 61 22 61 3 0 15 -24 28 -52z m418 -1 l59 -33 3 -212 c1 -117 0 -212 -3
-212 -3 0 -45 32 -93 71 l-89 71 29 166 c15 92 28 170 28 175 0 11 3 10 66
-26z m-5087 -32 c31 -43 32 -47 29 -136 l-3 -93 -42 57 c-24 31 -43 64 -43 73
0 17 22 144 25 144 1 0 16 -20 34 -45z m2416 -2 c-3 -16 -12 -68 -20 -117 -8
-49 -16 -91 -18 -92 -4 -4 -87 189 -87 202 0 6 21 15 48 21 79 17 82 16 77
-14z m-2593 -54 c-4 -4 -17 -10 -30 -14 -21 -6 -22 -4 -16 22 10 43 14 45 34
21 10 -13 16 -26 12 -29z m2408 24 c0 -22 -69 -375 -74 -381 -2 -2 -54 -18
-115 -36 l-111 -33 7 26 c3 14 30 112 58 216 l52 190 74 17 c98 21 109 21 109
1z m2709 -90 c-10 -54 -18 -104 -19 -112 0 -18 -50 27 -90 81 -22 30 -26 44
-21 70 6 30 12 34 56 45 28 6 60 12 71 12 l21 1 -18 -97z m-205 22 c15 -23 14
-34 -19 -185 -19 -89 -35 -163 -35 -165 0 -1 -24 -9 -52 -16 -29 -6 -77 -20
-107 -30 -50 -18 -53 -18 -49 -1 3 9 29 103 58 209 l53 192 41 10 c71 16 92
13 110 -14z m-4859 -15 c6 -10 -22 -185 -34 -207 -4 -8 -20 -6 -56 10 -27 11
-52 22 -54 24 -8 6 22 143 33 152 31 24 101 37 111 21z m747 -24 l53 -11 36
-170 c21 -94 35 -172 34 -174 -2 -2 -36 9 -75 24 -39 15 -76 25 -84 22 -9 -4
-19 34 -40 151 -32 191 -32 184 -1 176 13 -3 48 -11 77 -18z m1736 -195 c-3
-34 -5 -35 -70 -52 -37 -9 -69 -15 -71 -13 -3 3 34 206 49 264 5 22 12 12 51
-70 31 -67 43 -105 41 -129z m-2749 163 c46 10 85 15 87 13 3 -2 -1 -27 -8
-56 -13 -58 -6 -57 -113 -12 -55 23 -71 35 -73 53 -3 22 -3 22 10 4 14 -18 17
-18 97 -2z m1227 -23 c40 -12 79 -19 87 -15 9 3 17 -2 21 -13 30 -100 205
-786 201 -790 -1 -3 -247 86 -252 91 -5 5 -75 338 -72 340 2 2 45 -5 94 -15
87 -18 115 -18 115 -2 -1 21 -21 34 -71 43 -29 6 -77 17 -105 25 l-51 15 -32
152 c-17 84 -34 164 -38 177 -5 19 -3 22 13 18 10 -3 51 -15 90 -26z m2247 8
c26 -6 50 -15 53 -20 6 -10 34 -175 34 -203 0 -13 -18 -2 -67 45 -87 80 -89
84 -98 148 -7 49 -6 53 11 47 11 -3 40 -10 67 -17z m2412 -32 c33 -22 62 -42
64 -43 2 -2 21 -101 42 -221 l38 -218 -39 -39 -38 -39 -82 69 -82 69 6 59 c3
32 6 140 6 238 0 141 3 178 13 172 6 -4 39 -25 72 -47z m-5501 -56 c26 -38 36
-64 36 -92 0 -22 -4 -39 -10 -39 -13 0 -113 40 -122 49 -4 4 -1 42 7 85 8 43
15 81 15 84 0 11 37 -32 74 -87z m2921 30 l50 -53 45 -352 c26 -193 45 -353
44 -355 -3 -4 -124 70 -171 106 l-33 24 0 345 c0 190 3 344 8 342 4 -1 30 -27
57 -57z m1937 -8 c56 -57 57 -58 49 -101 -5 -23 -11 -45 -14 -48 -6 -6 -116
-33 -138 -34 -13 0 -12 16 10 120 14 66 28 120 31 120 3 0 31 -26 62 -57z
m-1560 12 l77 -19 16 -70 c50 -232 62 -296 56 -296 -3 0 -51 33 -106 73 l-100
73 -16 95 c-29 176 -29 171 -16 166 7 -2 47 -12 89 -22z m2470 -56 c22 -12 24
-39 3 -39 -8 0 -34 14 -58 31 l-42 31 40 -7 c22 -4 48 -11 57 -16z m-116 -36
c-7 -7 -26 7 -26 19 0 6 6 6 15 -2 9 -7 13 -15 11 -17z m-5261 -118 c54 -60
114 -127 133 -147 34 -36 36 -42 67 -230 18 -106 32 -194 30 -196 -7 -8 -254
314 -327 428 l-36 55 5 113 c5 90 8 111 18 100 6 -7 56 -62 110 -123z m5500
125 c4 -6 -7 -10 -24 -10 -17 0 -31 5 -31 10 0 6 11 10 24 10 14 0 28 -4 31
-10z m-830 -96 l95 -76 0 -107 c0 -58 -3 -210 -7 -337 l-6 -230 -109 -85
c-145 -112 -248 -182 -255 -176 -3 3 36 246 86 540 50 294 91 537 91 541 0 13
13 4 105 -70z m-1909 -50 c41 -34 42 -35 59 -145 9 -61 14 -113 10 -117 -3 -3
-38 5 -78 18 l-72 25 -17 130 c-9 72 -17 144 -17 161 l-1 32 38 -35 c20 -19
56 -50 78 -69z m-694 5 l43 -76 -8 -698 c-4 -385 -10 -701 -12 -703 -2 -2 -71
5 -152 17 -81 12 -152 21 -157 21 -11 0 -8 27 85 590 43 267 96 585 116 708
20 122 37 221 39 219 1 -1 22 -36 46 -78z m-112 29 c0 -7 -12 -86 -26 -175
-19 -116 -30 -160 -39 -157 -7 3 -41 -6 -75 -20 -35 -14 -64 -25 -66 -23 -1 1
14 81 33 178 l35 176 62 15 c79 20 76 20 76 6z m2513 -192 c-15 -91 -31 -162
-36 -157 -5 5 -42 -5 -84 -21 -41 -16 -77 -27 -79 -25 -5 5 64 328 71 335 5 6
149 40 153 37 2 -2 -10 -77 -25 -169z m-2742 -23 c-42 -206 -29 -190 -181
-221 -82 -16 -95 -22 -98 -41 -3 -18 1 -21 35 -21 21 0 72 9 112 20 40 12 76
19 78 16 4 -4 -50 -292 -63 -338 -3 -10 -31 -25 -72 -39 -37 -12 -98 -35 -136
-51 -38 -15 -70 -28 -71 -28 -3 0 -4 -2 70 300 120 493 130 525 156 527 13 1
60 13 104 27 44 14 85 25 91 25 7 1 -1 -62 -25 -176z m3607 87 c22 0 32 -4 29
-12 -2 -7 -20 -13 -40 -13 -35 0 -37 1 -47 48 -14 68 -11 80 8 25 14 -45 18
-48 50 -48z m-5044 41 c43 -17 80 -32 83 -35 7 -7 64 -268 61 -278 -4 -12
-208 210 -218 237 -12 33 -21 105 -13 105 5 0 43 -13 87 -29z m3957 -153 c-20
-90 -39 -168 -44 -175 -7 -11 -121 -40 -182 -45 -25 -3 -30 -8 -30 -28 0 -23
3 -25 40 -22 22 2 66 10 99 18 32 8 60 14 62 12 4 -5 -54 -278 -64 -302 -7
-16 -22 4 -85 113 -42 73 -77 135 -77 139 -1 4 23 98 52 209 51 195 54 203 78
203 14 0 52 9 85 20 111 35 107 44 66 -142z m-1266 43 c50 -36 91 -66 93 -67
4 -3 31 -115 32 -131 0 -7 -24 -1 -62 17 -35 15 -82 34 -105 40 -24 7 -43 14
-43 14 0 1 -7 39 -15 86 -19 105 -19 124 -2 114 6 -5 53 -37 102 -73z m-2589
-248 c-7 -7 -129 35 -136 47 -4 8 -10 40 -14 70 l-6 55 79 -85 c44 -47 78 -86
77 -87z m4694 117 l55 -49 -62 -63 -63 -63 0 113 c0 61 3 112 8 112 4 0 32
-23 62 -50z m-2300 -13 l65 -22 27 -170 c15 -93 27 -176 25 -183 -2 -10 -64
27 -174 102 0 1 -10 67 -20 149 -22 169 -28 159 77 124z m389 9 c24 -20 354
-230 527 -335 l152 -91 -24 -92 c-15 -60 -30 -97 -43 -108 -17 -13 -18 -18 -7
-32 10 -14 8 -40 -14 -148 -15 -71 -29 -133 -32 -136 -4 -3 -109 64 -235 149
l-228 155 -63 318 c-35 176 -63 322 -62 327 0 11 12 9 29 -7z m-1279 -53 c0
-16 -59 -356 -62 -357 -21 -11 -168 -52 -168 -47 0 26 69 344 76 351 8 8 128
56 147 59 4 0 7 -2 7 -6z m1159 -52 c11 -6 29 -11 40 -11 13 0 23 -8 26 -22
17 -72 92 -458 88 -458 -2 0 -57 36 -122 80 -94 63 -120 85 -125 107 -8 40
-56 340 -56 352 0 10 102 -23 149 -48z m1375 22 c-2 -10 -15 -88 -29 -173 -15
-85 -27 -156 -28 -156 -8 -6 -180 -54 -186 -52 -4 2 9 78 28 170 l35 167 81
29 c96 36 104 37 99 15z m-4062 -79 c46 -14 86 -29 90 -33 10 -9 87 -381 79
-381 -3 0 -57 51 -120 114 l-114 114 -18 94 c-21 110 -22 118 -10 118 6 0 47
-12 93 -26z m2313 -157 c2 -7 27 -196 55 -422 28 -225 53 -425 57 -442 l5 -33
-114 0 c-63 0 -143 3 -176 6 l-61 7 5 246 c2 135 7 368 10 517 l6 272 105 -69
c57 -39 106 -75 108 -82z m-1991 45 l90 -37 18 -80 c9 -44 18 -84 18 -89 0 -5
-38 31 -83 80 -114 121 -151 164 -141 164 5 -1 49 -17 98 -38z m-117 -26 c15
-18 81 -90 145 -158 l118 -125 11 -77 c9 -60 15 -76 26 -72 8 3 19 6 25 6 6 0
8 14 4 38 -6 35 0 31 144 -118 82 -85 150 -158 150 -162 1 -24 -276 110 -410
200 -183 122 -174 107 -218 320 -21 100 -35 182 -31 182 4 0 20 -15 36 -34z
m3433 -73 c30 -53 57 -101 59 -107 4 -9 -124 58 -143 75 -9 8 12 129 23 129 3
0 31 -44 61 -97z m-1083 -109 c11 -28 -6 -26 -81 13 -52 28 -78 37 -86 29 -7
-7 -10 -4 -10 11 0 11 -3 35 -7 53 l-6 33 92 -62 c51 -34 95 -69 98 -77z
m1040 -5 c30 -17 52 -34 49 -37 -4 -3 -38 -18 -76 -33 -60 -23 -70 -25 -66
-11 3 10 8 31 11 47 11 50 16 65 22 65 3 0 30 -14 60 -31z m-2137 15 c0 -18
-103 -640 -107 -644 -4 -5 -162 26 -170 34 -3 2 20 129 49 282 l55 278 79 27
c86 30 94 32 94 23z m2526 -77 c-7 -43 -15 -79 -17 -82 -7 -6 -169 85 -169 95
0 5 39 21 88 35 48 14 92 27 97 29 15 5 15 5 1 -77z m-1501 21 c67 -34 85 -47
89 -68 19 -96 69 -441 65 -445 -4 -3 -162 56 -187 70 -2 2 -62 452 -62 473 0
17 0 17 95 -30z m180 -13 c20 -16 19 -16 -5 -9 -29 8 -50 23 -50 36 0 10 24
-2 55 -27z m-1440 -27 c-10 -49 -95 -487 -95 -493 0 -10 -44 -1 -147 31 -62
19 -82 29 -74 37 8 8 6 16 -5 28 -14 16 -14 28 6 131 34 184 34 183 83 203 99
42 213 84 225 85 8 0 11 -8 7 -22z m2509 3 c3 -4 -9 -77 -27 -162 l-32 -154
-118 -59 c-85 -41 -122 -55 -130 -47 -7 7 -2 50 18 148 15 76 30 150 33 165 4
24 16 32 106 66 151 59 142 56 150 43z m-981 -66 c49 -12 93 -27 99 -33 10
-10 85 -391 90 -459 3 -33 0 -38 -19 -41 -17 -2 -203 76 -220 92 -4 3 -73 441
-73 461 0 12 5 15 18 10 9 -4 57 -17 105 -30z m1085 -86 l31 -55 -64 -37 c-35
-20 -66 -37 -69 -37 -3 0 19 112 39 199 6 23 7 23 19 5 7 -10 27 -44 44 -75z
m72 56 c56 -28 62 -45 25 -69 -24 -16 -25 -15 -41 16 -9 18 -24 43 -32 56 -18
28 -13 28 48 -3z m-764 -201 c118 -80 213 -151 211 -157 -2 -6 -29 -22 -60
-34 -70 -28 -288 -95 -294 -90 -2 2 -19 89 -39 193 -19 104 -38 199 -41 212
-3 12 -2 22 2 22 3 0 103 -66 221 -146z m-499 -247 c6 -7 14 -30 18 -53 l6
-41 -38 -6 c-21 -4 -63 -7 -94 -7 -64 0 -61 -6 -75 127 l-7 62 89 -35 c49 -20
94 -41 101 -47z m122 -51 c41 -21 42 -23 20 -29 -33 -9 -69 -9 -69 1 0 4 -3
17 -6 30 -8 27 -1 27 55 -2z"/>
</g>
</svg>
