<?xml version="1.0" standalone="no"?>
<!DOCTYPE svg PUBLIC "-//W3C//DTD SVG 20010904//EN"
 "http://www.w3.org/TR/2001/REC-SVG-20010904/DTD/svg10.dtd">
<svg version="1.0" xmlns="http://www.w3.org/2000/svg"
 width="1280.000000pt" height="1280.000000pt" viewBox="0 0 1280.000000 1280.000000"
 preserveAspectRatio="xMidYMid meet">
<metadata>
Created by potrace 1.15, written by Peter Selinger 2001-2017
</metadata>
<g transform="translate(0.000000,1280.000000) scale(0.100000,-0.100000)"
fill="#000000" stroke="none">
<path d="M6117 11663 c-152 -615 -277 -1124 -277 -1131 0 -8 7 -11 18 -8 143
40 941 40 1085 0 10 -3 17 0 17 8 0 22 -554 2248 -560 2248 -3 0 -130 -503
-283 -1117z"/>
<path d="M4426 12434 c2 -27 20 -272 39 -544 118 -1694 121 -1729 128 -1736 2
-2 39 12 83 32 128 59 310 129 449 173 136 44 408 114 489 126 30 5 46 12 43
19 -6 15 -1217 1958 -1228 1970 -5 5 -6 -13 -3 -40z"/>
<path d="M7757 11492 c-339 -544 -617 -991 -617 -994 0 -3 21 -9 47 -13 81
-12 352 -82 488 -126 139 -44 321 -114 449 -173 44 -20 81 -34 83 -32 7 6 15
111 83 1091 33 473 67 943 74 1045 8 102 13 186 12 187 -2 2 -280 -442 -619
-985z"/>
<path d="M2804 11168 c570 -1409 709 -1753 713 -1757 1 -2 24 15 50 38 261
230 466 382 705 523 87 51 157 95 157 98 0 5 -1733 1463 -1769 1488 -13 10 32
-113 144 -390z"/>
<path d="M9262 10823 c-490 -412 -891 -750 -891 -753 0 -3 70 -47 157 -98 238
-140 435 -287 705 -524 26 -22 49 -39 50 -37 4 4 219 536 713 1757 89 221 161
402 159 402 -1 0 -403 -336 -893 -747z"/>
<path d="M6170 10234 c-188 -16 -294 -29 -416 -49 -1598 -269 -2871 -1541
-3139 -3138 -41 -244 -49 -359 -49 -647 0 -288 8 -403 49 -647 174 -1036 776
-1961 1662 -2551 504 -337 1064 -541 1698 -619 195 -24 655 -24 850 0 1000
123 1854 578 2502 1332 796 928 1097 2216 797 3417 -322 1291 -1293 2324
-2569 2731 -214 69 -466 122 -720 152 -123 15 -566 28 -665 19z"/>
<path d="M1246 10136 c37 -49 1479 -1765 1484 -1765 3 -1 30 43 60 96 122 215
288 450 451 637 132 152 152 176 148 180 -2 2 -274 112 -604 246 -330 133
-793 321 -1030 417 -236 96 -452 183 -479 194 l-48 20 18 -25z"/>
<path d="M11505 10134 c-65 -27 -607 -247 -1515 -614 -316 -128 -577 -234
-579 -236 -4 -4 16 -28 148 -180 164 -188 339 -438 459 -651 25 -46 48 -83 51
-82 6 0 1447 1714 1484 1764 10 14 17 25 15 25 -1 -1 -30 -12 -63 -26z"/>
<path d="M325 8372 c18 -17 1976 -1234 1979 -1231 1 2 17 71 35 154 59 270
139 516 248 765 30 69 57 130 60 137 3 7 -8 14 -29 17 -18 3 -523 39 -1123 81
-600 41 -1110 77 -1135 80 -25 3 -40 1 -35 -3z"/>
<path d="M12425 8374 c-16 -2 -520 -38 -1120 -79 -599 -42 -1105 -78 -1123
-81 -21 -3 -32 -10 -29 -17 3 -7 30 -68 60 -137 109 -250 190 -498 248 -766
18 -82 34 -151 35 -153 4 -5 1973 1223 1974 1232 0 4 -3 6 -7 5 -5 0 -21 -3
-38 -4z"/>
<path d="M1128 6682 c-610 -152 -1108 -279 -1108 -282 0 -3 469 -122 1043
-264 1198 -298 1207 -300 1211 -295 2 2 -4 58 -12 124 -27 225 -18 863 14 978
4 13 0 17 -18 16 -13 -1 -521 -125 -1130 -277z"/>
<path d="M10524 6943 c32 -115 41 -753 14 -978 -8 -66 -13 -122 -11 -125 2 -2
304 71 671 162 367 92 873 217 1125 279 251 62 457 116 457 119 0 6 -2225 560
-2248 560 -8 0 -11 -7 -8 -17z"/>
<path d="M1755 5322 c-297 -185 -741 -463 -988 -616 -246 -153 -446 -280 -445
-281 2 -1 244 15 538 36 294 21 815 58 1158 82 342 24 625 46 627 49 3 2 -17
54 -44 114 -112 250 -210 553 -267 822 -16 72 -31 132 -34 132 -3 0 -248 -152
-545 -338z"/>
<path d="M10466 5528 c-57 -269 -155 -572 -267 -822 -27 -60 -47 -112 -44
-114 2 -3 285 -25 627 -49 343 -24 864 -61 1158 -82 294 -21 536 -37 538 -36
1 1 -32 24 -75 51 -43 26 -485 302 -982 612 -498 310 -910 566 -916 568 -6 3
-21 -47 -39 -128z"/>
<path d="M1990 3554 c-404 -481 -741 -884 -748 -894 -10 -13 96 25 340 124
194 79 679 275 1078 436 399 161 727 295 729 296 5 4 -23 39 -123 151 -161
181 -356 454 -476 666 -30 53 -57 97 -60 97 -3 -1 -336 -395 -740 -876z"/>
<path d="M10006 4328 c-132 -233 -353 -536 -524 -720 -40 -43 -72 -81 -72 -85
0 -5 334 -143 743 -308 408 -165 894 -362 1080 -437 234 -95 335 -131 325
-118 -25 35 -1483 1769 -1488 1770 -3 0 -32 -46 -64 -102z"/>
<path d="M3251 2737 c-638 -1575 -611 -1509 -586 -1490 52 39 1764 1478 1764
1484 1 3 -23 19 -51 34 -240 129 -556 356 -766 549 -45 42 -85 76 -90 76 -4 0
-126 -294 -271 -653z"/>
<path d="M9176 3304 c-216 -196 -518 -412 -753 -539 -29 -15 -53 -31 -52 -34
0 -6 1712 -1445 1764 -1484 25 -19 18 0 -545 1388 -123 303 -242 596 -264 652
-23 57 -44 103 -48 103 -4 0 -50 -39 -102 -86z"/>
<path d="M4586 2608 c-3 -24 -24 -302 -46 -618 -45 -648 -96 -1378 -109 -1550
-5 -63 -8 -116 -6 -117 1 -2 280 443 619 988 340 544 617 991 615 993 -2 1
-62 15 -134 31 -266 57 -562 153 -815 265 -63 27 -115 50 -116 50 -2 0 -5 -19
-8 -42z"/>
<path d="M8085 2599 c-237 -108 -541 -207 -810 -264 -71 -16 -132 -30 -134
-31 -2 -2 275 -449 615 -993 339 -545 618 -990 619 -988 2 1 -1 54 -6 117 -17
236 -89 1260 -119 1685 -32 468 -37 525 -48 524 -4 0 -56 -23 -117 -50z"/>
<path d="M5840 2268 c0 -22 554 -2248 560 -2248 6 0 560 2226 560 2248 0 8 -7
11 -17 8 -10 -2 -74 -10 -143 -18 -230 -24 -834 -12 -942 18 -11 3 -18 0 -18
-8z"/>
</g>
</svg>
