<?xml version="1.0" standalone="no"?>
<!DOCTYPE svg PUBLIC "-//W3C//DTD SVG 20010904//EN"
 "http://www.w3.org/TR/2001/REC-SVG-20010904/DTD/svg10.dtd">
<svg version="1.0" xmlns="http://www.w3.org/2000/svg"
 width="1280.000000pt" height="1280.000000pt" viewBox="0 0 1280.000000 1280.000000"
 preserveAspectRatio="xMidYMid meet">
<metadata>
Created by potrace 1.15, written by Peter Selinger 2001-2017
</metadata>
<g transform="translate(0.000000,1280.000000) scale(0.100000,-0.100000)"
fill="#000000" stroke="none">
<path d="M6115 12794 c-27 -2 -115 -8 -195 -14 -162 -12 -451 -50 -610 -79
-316 -59 -826 -194 -1125 -298 -849 -296 -1682 -819 -2416 -1519 -651 -620
-1318 -1870 -1593 -2984 -214 -868 -231 -1824 -50 -2730 224 -1117 699 -2108
1422 -2970 137 -163 523 -548 682 -680 934 -777 2095 -1293 3320 -1476 315
-47 998 -57 1400 -20 771 71 1443 245 2118 549 180 81 527 261 687 357 1164
693 2094 1801 2602 3100 55 140 199 565 243 715 87 297 148 652 182 1060 16
194 16 929 -1 1175 -34 505 -193 1157 -426 1745 -437 1103 -1168 2079 -2063
2753 -349 263 -809 540 -1200 722 -678 316 -1362 501 -2132 575 -155 15 -727
28 -845 19z m718 -804 c1150 -70 2210 -504 3150 -1292 152 -128 532 -505 661
-657 509 -601 859 -1224 1094 -1952 77 -237 158 -588 177 -764 46 -438 59
-705 52 -1103 -3 -185 -11 -384 -17 -442 -57 -562 -144 -927 -333 -1405 -238
-603 -513 -1067 -931 -1570 -129 -155 -526 -552 -685 -685 -701 -582 -1475
-969 -2331 -1164 -307 -69 -409 -82 -985 -116 -850 -51 -1625 68 -2385 367
-205 81 -621 285 -799 392 -1459 881 -2454 2382 -2660 4011 -38 300 -44 487
-32 995 12 496 29 664 102 1010 342 1621 1504 3083 3075 3868 570 285 1228
455 1954 506 172 12 697 12 893 1z"/>
<path d="M6143 11429 c-338 -39 -670 -179 -958 -404 -108 -84 -295 -280 -378
-396 -81 -114 -206 -359 -247 -489 -17 -52 -44 -160 -60 -240 -100 -497 -90
-992 30 -1454 32 -121 107 -341 140 -406 9 -19 25 -60 35 -90 47 -146 142
-346 330 -695 169 -313 175 -326 229 -445 123 -268 182 -482 193 -700 5 -108
3 -126 -36 -314 -115 -542 -211 -776 -413 -1002 -34 -39 -105 -119 -157 -178
-263 -298 -643 -558 -997 -680 -226 -77 -516 -119 -646 -91 -143 30 -263 94
-376 200 -93 87 -150 166 -207 286 -75 159 -90 235 -89 439 0 162 2 182 28
265 36 117 62 160 141 233 126 115 289 179 481 189 283 14 521 -108 625 -322
56 -116 86 -294 70 -409 -20 -145 -83 -249 -272 -451 -111 -119 -159 -186
-159 -222 0 -13 2 -23 4 -23 3 0 40 5 82 11 344 48 673 291 829 613 65 134 85
217 92 376 4 100 1 159 -11 227 -61 349 -309 678 -754 999 -91 66 -113 77
-190 96 -101 25 -307 30 -407 9 -240 -50 -494 -181 -755 -389 -131 -105 -401
-371 -470 -463 -106 -143 -187 -329 -226 -524 -28 -138 -26 -414 4 -562 55
-274 152 -473 353 -723 349 -434 783 -680 1304 -740 370 -42 911 73 1262 267
620 344 1122 816 1443 1355 44 73 101 165 129 203 27 39 111 167 186 285 161
252 252 376 354 482 128 135 282 238 437 292 38 14 111 43 161 65 256 112 498
161 803 161 419 0 860 -111 1329 -336 258 -123 444 -273 539 -434 104 -174
164 -541 132 -797 -44 -352 -226 -602 -486 -668 -118 -29 -282 -45 -368 -34
-495 60 -828 553 -633 939 72 142 115 208 174 267 129 129 313 176 663 172
l135 -2 3 44 c12 184 -408 387 -757 366 -109 -6 -175 -27 -271 -82 -456 -267
-737 -628 -779 -1002 -11 -105 0 -298 24 -418 65 -319 234 -575 500 -758 57
-40 221 -131 370 -206 81 -41 204 -83 320 -108 127 -28 499 -25 663 5 262 48
292 59 453 158 442 273 775 734 845 1169 21 129 29 466 15 595 -35 302 -103
498 -255 738 -148 233 -309 418 -505 581 -488 404 -1113 650 -1936 761 -88 12
-189 26 -225 31 -36 5 -252 16 -480 24 -431 15 -521 22 -680 57 -190 41 -299
91 -535 246 -189 124 -240 164 -362 283 -307 301 -483 653 -538 1076 -8 65
-22 154 -30 198 -41 232 -51 536 -22 720 33 211 105 386 214 526 64 82 240
227 328 270 102 50 174 60 455 66 178 4 273 2 313 -7 160 -33 307 -154 390
-320 68 -136 89 -227 90 -380 1 -209 -51 -348 -178 -476 -107 -109 -225 -159
-402 -171 -258 -17 -527 101 -675 297 -96 127 -148 272 -148 415 l0 78 -22
-19 c-31 -28 -74 -129 -92 -217 -21 -98 -21 -316 -1 -433 20 -115 57 -229 108
-329 31 -62 60 -99 127 -165 430 -422 1210 -439 1691 -36 108 90 199 209 273
356 96 193 137 336 157 557 20 207 -16 472 -89 668 -52 138 -197 427 -257 510
-193 271 -525 476 -890 549 -195 39 -468 54 -632 35z m-78 -4444 c100 -21 202
-56 430 -148 111 -44 238 -88 285 -98 125 -26 194 -54 229 -95 80 -91 5 -193
-334 -454 -103 -79 -242 -196 -309 -260 -170 -161 -247 -197 -323 -150 -65 39
-98 145 -143 464 -17 120 -42 255 -56 300 -48 161 -64 230 -64 283 0 149 90
199 285 158z"/>
</g>
</svg>
