<?xml version="1.0" standalone="no"?>
<!DOCTYPE svg PUBLIC "-//W3C//DTD SVG 20010904//EN"
 "http://www.w3.org/TR/2001/REC-SVG-20010904/DTD/svg10.dtd">
<svg version="1.0" xmlns="http://www.w3.org/2000/svg"
 width="1171.000000pt" height="1280.000000pt" viewBox="0 0 1171.000000 1280.000000"
 preserveAspectRatio="xMidYMid meet">
<metadata>
Created by potrace 1.15, written by Peter Selinger 2001-2017
</metadata>
<g transform="translate(0.000000,1280.000000) scale(0.100000,-0.100000)"
fill="#000000" stroke="none">
<path d="M5311 11707 c-294 -595 -544 -1093 -555 -1106 -25 -29 -91 -60 -126
-61 -33 0 -3 -16 -608 324 -282 159 -515 286 -517 284 -3 -3 47 -288 110 -634
247 -1346 317 -1727 410 -2233 83 -451 95 -527 85 -552 -18 -42 -83 -97 -124
-105 -48 -9 -115 2 -152 25 -17 11 -294 318 -615 682 -832 947 -820 934 -833
934 -11 0 -102 -176 -243 -470 -149 -311 -252 -419 -410 -432 -143 -11 -388
36 -861 168 -158 44 -366 100 -462 125 -96 25 -183 48 -193 51 -15 4 -18 1
-14 -14 33 -115 79 -250 179 -528 245 -676 312 -908 338 -1173 18 -187 -12
-341 -83 -434 -31 -39 -40 -43 -237 -110 -368 -125 -390 -133 -390 -139 0 -3
630 -559 1400 -1235 l1400 -1229 19 -60 c37 -113 55 -226 55 -345 -1 -199 -38
-300 -202 -553 -122 -186 -128 -197 -109 -197 8 0 82 9 163 20 82 10 347 44
589 75 242 31 562 71 710 90 313 40 854 109 1272 162 161 20 295 34 298 32 3
-3 -13 -693 -35 -1534 -22 -841 -38 -1530 -36 -1532 5 -5 618 15 623 21 3 3
-25 687 -63 1520 -38 833 -66 1517 -64 1519 3 2 147 -13 320 -34 173 -20 603
-71 955 -113 352 -42 887 -105 1188 -141 301 -36 556 -65 567 -65 16 0 7 24
-61 164 -85 176 -141 330 -160 440 -24 142 -2 413 50 602 10 39 94 110 1403
1200 765 637 1398 1164 1406 1170 11 8 -44 31 -234 100 -274 98 -291 109 -338
208 -39 82 -49 160 -43 319 8 223 52 430 212 1002 107 386 196 778 179 794 -3
3 -55 -11 -117 -32 -154 -50 -317 -99 -488 -146 -570 -156 -933 -203 -1075
-141 -47 20 -29 -10 -327 563 l-155 299 -746 -820 c-428 -471 -755 -822 -768
-826 -46 -12 -105 -5 -148 17 -36 18 -51 34 -75 81 l-30 59 103 511 c57 281
212 1054 346 1719 134 664 242 1207 240 1207 -2 0 -247 -137 -545 -305 -299
-168 -559 -310 -579 -316 -52 -16 -112 3 -158 49 -28 29 -163 290 -567 1100
-291 584 -532 1062 -535 1062 -3 0 -245 -488 -539 -1083z"/>
</g>
</svg>
