<?xml version="1.0" standalone="no"?>
<!DOCTYPE svg PUBLIC "-//W3C//DTD SVG 20010904//EN"
 "http://www.w3.org/TR/2001/REC-SVG-20010904/DTD/svg10.dtd">
<svg version="1.0" xmlns="http://www.w3.org/2000/svg"
 width="1280.000000pt" height="1265.000000pt" viewBox="0 0 1280.000000 1265.000000"
 preserveAspectRatio="xMidYMid meet">
<metadata>
Created by potrace 1.15, written by Peter Selinger 2001-2017
</metadata>
<g transform="translate(0.000000,1265.000000) scale(0.100000,-0.100000)"
fill="#000000" stroke="none">
<path d="M1405 12640 c-657 -75 -1163 -472 -1339 -1052 -48 -157 -60 -240 -60
-433 0 -226 19 -354 89 -575 53 -171 147 -372 218 -469 90 -124 322 -327 586
-515 297 -211 565 -379 1553 -972 1195 -718 1607 -983 2028 -1307 410 -315
492 -412 706 -837 l106 -210 -114 -107 c-295 -280 -449 -423 -683 -634 -307
-276 -616 -539 -848 -722 l-99 -77 -76 0 c-256 0 -600 -75 -882 -192 -977
-404 -1570 -1426 -1439 -2480 42 -344 173 -706 362 -1001 49 -78 74 -97 121
-97 50 0 69 39 196 387 313 863 443 1210 472 1267 40 75 162 201 238 243 123
69 292 99 422 74 59 -12 1128 -395 1247 -447 224 -99 371 -326 371 -574 0
-113 -13 -160 -155 -545 -348 -950 -455 -1250 -455 -1280 0 -39 46 -85 85 -85
66 0 397 116 550 193 470 235 838 600 1074 1065 118 235 193 468 233 726 25
167 30 483 9 636 -27 200 -83 420 -151 594 l-39 100 35 43 c112 136 511 583
768 858 231 247 650 685 657 685 3 0 212 -186 465 -413 253 -226 953 -854
1556 -1395 1160 -1040 1128 -1009 1128 -1095 0 -19 -16 -96 -36 -173 -55 -214
-51 -303 24 -429 88 -149 139 -208 275 -318 131 -106 273 -196 672 -427 193
-111 408 -240 478 -286 70 -46 130 -84 132 -84 2 0 209 212 459 471 389 402
456 475 456 500 0 21 -25 62 -90 149 -49 66 -183 261 -297 433 -253 381 -356
519 -493 661 -213 221 -324 268 -668 285 -201 11 -300 29 -377 69 -19 9 -665
664 -1438 1455 l-1405 1438 117 113 c691 670 1434 1299 1885 1596 l99 64 241
1 c264 2 376 14 582 65 433 106 805 312 1118 618 362 353 598 802 686 1305 31
172 38 504 16 677 -49 373 -172 714 -370 1023 -42 65 -55 76 -98 84 -29 4 -39
0 -64 -24 -16 -16 -36 -52 -45 -79 -54 -160 -544 -1488 -565 -1530 -128 -253
-427 -394 -699 -330 -82 20 -1174 418 -1255 458 -89 44 -213 169 -262 263 -77
148 -93 324 -45 480 13 44 151 427 306 850 296 807 296 809 253 848 -32 29
-66 29 -163 2 -188 -52 -323 -105 -486 -190 -592 -308 -1020 -830 -1202 -1465
-111 -387 -118 -816 -19 -1208 l21 -83 -38 -54 c-53 -77 -308 -394 -450 -560
-270 -315 -908 -1011 -928 -1014 -19 -2 -401 194 -491 252 -175 114 -430 366
-682 674 -288 351 -590 771 -1229 1713 -821 1210 -1130 1626 -1406 1897 -136
134 -192 175 -324 238 -205 98 -415 165 -632 200 -117 20 -386 27 -498 15z"/>
</g>
</svg>
