<?xml version="1.0" standalone="no"?>
<!DOCTYPE svg PUBLIC "-//W3C//DTD SVG 20010904//EN"
 "http://www.w3.org/TR/2001/REC-SVG-20010904/DTD/svg10.dtd">
<svg version="1.0" xmlns="http://www.w3.org/2000/svg"
 width="1280.000000pt" height="1280.000000pt" viewBox="0 0 1280.000000 1280.000000"
 preserveAspectRatio="xMidYMid meet">
<metadata>
Created by potrace 1.15, written by Peter Selinger 2001-2017
</metadata>
<g transform="translate(0.000000,1280.000000) scale(0.100000,-0.100000)"
fill="#000000" stroke="none">
<path d="M6190 10819 c-442 -38 -919 -148 -1305 -301 -243 -96 -618 -296 -865
-461 -393 -263 -735 -592 -1027 -987 -89 -120 -278 -412 -349 -539 -110 -196
-273 -594 -343 -836 -145 -505 -188 -823 -178 -1333 8 -395 41 -623 162 -1105
59 -232 217 -626 347 -860 247 -448 482 -762 809 -1082 235 -230 407 -365 729
-570 209 -133 315 -191 511 -279 423 -191 851 -309 1349 -371 176 -22 600 -31
784 -16 275 22 607 85 944 177 295 81 640 238 1012 462 335 201 573 386 837
651 406 407 781 991 978 1525 209 562 307 1114 292 1641 -21 724 -225 1462
-571 2065 -317 551 -704 990 -1186 1347 -639 472 -1359 760 -2150 858 -150 19
-628 28 -780 14z m788 -153 c379 -51 758 -150 1112 -291 375 -149 794 -402
1137 -686 160 -134 438 -416 564 -574 415 -521 701 -1110 833 -1711 94 -430
111 -578 111 -974 0 -337 -9 -443 -61 -715 -94 -488 -281 -1003 -497 -1365
-87 -146 -252 -395 -333 -501 -384 -507 -884 -907 -1539 -1229 -331 -164 -580
-245 -1040 -340 -443 -91 -968 -96 -1455 -14 -457 77 -918 232 -1295 433 -106
57 -361 216 -495 309 -515 359 -955 868 -1285 1486 -93 174 -233 511 -289 696
-28 94 -105 427 -130 560 -80 444 -83 945 -6 1397 43 251 144 607 240 848 124
309 197 453 362 711 282 439 559 755 908 1035 377 301 863 568 1320 723 268
92 662 177 945 205 61 6 126 13 145 15 88 10 641 -3 748 -18z"/>
<path d="M6286 10238 c-20 -68 -78 -258 -128 -423 l-91 -300 7 -345 c4 -190
13 -700 21 -1135 8 -434 17 -891 20 -1015 2 -124 7 -369 10 -545 3 -176 7
-403 10 -505 3 -102 8 -349 11 -550 l6 -365 -58 -63 c-57 -61 -62 -63 -144
-83 l-85 -21 -295 29 c-162 16 -298 28 -302 26 -4 -2 9 -38 28 -81 19 -42 56
-125 81 -185 97 -231 129 -246 558 -266 150 -7 210 -13 240 -26 22 -10 41 -16
42 -14 2 2 12 -13 23 -34 15 -28 18 -42 10 -57 -15 -28 -12 -82 6 -108 14 -20
14 -24 0 -44 -20 -28 -20 -65 -1 -101 12 -24 12 -32 -1 -64 -14 -33 -14 -40 1
-80 13 -33 14 -48 6 -56 -16 -16 -13 -88 4 -111 12 -16 12 -21 0 -40 -19 -26
-19 -76 -1 -102 13 -18 13 -26 -1 -65 -15 -41 -15 -47 1 -80 15 -32 15 -38 1
-73 -15 -35 -15 -41 3 -76 15 -32 16 -41 5 -56 -18 -24 -16 -85 3 -112 14 -20
14 -24 0 -44 -20 -28 -20 -61 -1 -98 13 -25 13 -33 -1 -65 -19 -47 -6 -93 39
-131 18 -15 31 -32 29 -37 -6 -20 45 -78 86 -98 76 -37 152 -17 206 54 31 41
46 138 41 267 -4 80 -11 451 -20 1020 -5 286 2 328 59 388 44 47 97 59 361 81
127 11 252 27 278 35 68 20 115 60 143 120 26 56 29 83 13 118 -8 20 -2 44 36
142 25 66 43 121 40 124 -3 4 -365 -42 -574 -72 -13 -2 -44 2 -71 9 -61 16
-160 109 -191 180 -29 65 -36 181 -43 715 -4 234 -8 488 -11 565 -3 77 -7 298
-10 490 -5 325 -7 451 -20 1025 -3 118 -8 393 -11 610 -6 399 -17 713 -33 915
-8 97 -16 131 -71 290 -34 99 -96 279 -136 399 -41 120 -78 225 -83 233 -5 9
-21 -28 -45 -109z"/>
</g>
</svg>
