<?xml version="1.0" standalone="no"?>
<!DOCTYPE svg PUBLIC "-//W3C//DTD SVG 20010904//EN"
 "http://www.w3.org/TR/2001/REC-SVG-20010904/DTD/svg10.dtd">
<svg version="1.0" xmlns="http://www.w3.org/2000/svg"
 width="1038.000000pt" height="1280.000000pt" viewBox="0 0 1038.000000 1280.000000"
 preserveAspectRatio="xMidYMid meet">
<metadata>
Created by potrace 1.15, written by Peter Selinger 2001-2017
</metadata>
<g transform="translate(0.000000,1280.000000) scale(0.100000,-0.100000)"
fill="#000000" stroke="none">
<path d="M6793 12746 c-114 -142 -225 -349 -276 -512 -50 -158 -61 -244 -62
-456 l0 -197 -31 62 c-43 85 -88 215 -110 317 -19 93 -24 284 -11 410 l8 75
-35 -39 c-40 -43 -114 -182 -152 -282 -49 -131 -78 -336 -72 -522 1 -67 0
-122 -3 -122 -10 0 -97 174 -123 249 -31 87 -50 246 -42 346 l7 70 -21 -25
c-40 -49 -100 -187 -130 -300 -27 -99 -32 -139 -37 -287 -3 -95 -9 -173 -13
-173 -18 0 -188 67 -280 111 -483 230 -713 602 -698 1132 3 100 1 146 -6 144
-21 -6 -106 -193 -133 -292 -25 -91 -27 -115 -27 -260 1 -138 5 -173 27 -256
48 -184 121 -338 254 -537 42 -62 73 -115 71 -118 -11 -10 -301 16 -448 41
-394 66 -564 135 -862 345 -20 13 -20 13 -13 -10 12 -41 63 -126 128 -213 153
-207 367 -363 605 -442 46 -15 80 -30 75 -34 -4 -4 -44 -34 -88 -66 -113 -84
-309 -282 -396 -400 -397 -536 -501 -1132 -288 -1653 153 -375 488 -701 918
-892 115 -52 168 -70 428 -154 94 -30 200 -69 235 -86 129 -65 256 -179 305
-274 29 -56 64 -171 73 -242 31 -240 -97 -431 -334 -499 -257 -74 -494 178
-385 410 29 61 82 97 154 103 173 14 258 -216 100 -268 -45 -15 -89 5 -146 67
-50 54 -62 46 -56 -39 4 -76 39 -127 108 -162 108 -53 246 -24 353 75 64 58
84 95 95 173 21 145 -22 270 -128 377 -156 155 -376 203 -665 144 -238 -49
-353 -65 -501 -71 l-150 -7 -80 65 c-153 124 -253 247 -320 391 -55 119 -69
186 -69 334 -1 72 -5 129 -10 126 -14 -9 -72 -144 -100 -231 -71 -227 -50
-460 63 -698 l50 -104 -37 -9 c-95 -26 -150 -33 -230 -29 -120 4 -198 42 -302
147 -132 133 -189 274 -197 486 -16 398 131 728 442 993 56 48 55 48 -80 5
-286 -91 -501 -286 -666 -607 -35 -68 -58 -103 -62 -93 -3 8 -11 69 -18 134
-14 148 0 370 37 553 80 395 291 821 605 1216 113 143 424 459 566 577 50 41
138 110 194 153 57 43 98 79 91 82 -15 5 -268 -64 -442 -121 -378 -124 -801
-330 -1145 -560 -418 -279 -791 -608 -1098 -969 -248 -293 -430 -563 -655
-973 -259 -472 -465 -1146 -528 -1720 -22 -206 -26 -1026 -6 -1230 31 -318
102 -719 168 -959 42 -151 122 -387 136 -401 7 -7 8 -3 5 10 -22 77 -87 603
-108 880 -18 222 -18 972 -1 1140 71 696 217 1216 497 1770 119 237 220 405
365 610 126 177 381 485 402 485 4 0 -17 -50 -48 -110 -144 -289 -236 -604
-270 -930 -20 -186 -14 -606 10 -755 36 -222 87 -454 133 -599 33 -107 84
-238 89 -233 3 2 -2 49 -10 103 -29 187 -37 270 -46 469 -22 511 49 982 216
1439 43 117 210 474 218 465 2 -2 -8 -87 -21 -189 -32 -242 -36 -610 -9 -794
69 -470 275 -866 622 -1195 100 -95 281 -238 289 -229 3 3 -25 43 -63 90 -85
105 -152 211 -191 303 -33 77 -57 163 -48 171 3 3 40 -22 82 -55 250 -199 547
-288 872 -261 147 12 261 37 447 97 64 21 -113 -144 -257 -238 -94 -62 -207
-120 -293 -149 -28 -10 -68 -27 -90 -38 l-39 -20 85 5 c248 14 574 115 901
278 72 37 127 60 123 53 -43 -74 -169 -205 -281 -291 -64 -49 -248 -173 -266
-180 -7 -2 -9 -7 -6 -11 9 -10 196 29 312 65 116 35 271 100 378 158 l76 41
61 -54 c82 -73 139 -111 229 -153 249 -115 558 -80 872 100 111 64 258 171
365 267 43 38 82 70 87 70 14 0 22 -110 16 -234 -8 -179 -56 -338 -151 -503
-25 -43 -43 -79 -41 -81 14 -14 175 136 273 254 144 171 235 329 292 504 34
104 47 175 56 315 l6 100 44 -50 c55 -62 111 -172 124 -245 18 -96 -5 -205
-67 -317 -19 -35 -32 -63 -28 -63 16 0 107 74 158 130 71 76 119 156 154 255
26 76 28 89 28 252 0 95 3 173 7 173 4 0 27 -28 51 -62 99 -139 135 -255 117
-375 -6 -37 -14 -85 -19 -105 -12 -53 5 -49 69 14 75 74 125 157 159 262 29
89 30 90 41 61 55 -144 77 -365 47 -480 -40 -157 -115 -287 -225 -393 -36 -34
-63 -65 -59 -68 8 -9 142 15 204 37 l54 18 -21 -29 c-37 -52 -113 -110 -194
-150 -231 -112 -482 -45 -619 165 l-39 60 7 -55 c20 -172 133 -354 289 -465
69 -48 197 -114 333 -170 106 -43 105 -42 26 -116 -40 -38 -61 -49 -123 -65
-153 -38 -334 -18 -475 53 -122 62 -243 187 -315 327 -33 64 -43 96 -66 215
-13 65 -53 -70 -61 -206 -5 -91 5 -213 24 -278 4 -12 -27 9 -78 56 -358 323
-744 527 -1180 623 -310 69 -655 74 -999 16 -440 -75 -935 -29 -1248 116 -77
35 -130 71 -199 138 l-43 40 0 -31 c0 -55 29 -198 59 -290 39 -118 97 -234
161 -318 28 -37 48 -71 43 -75 -39 -35 -225 -179 -294 -228 -363 -259 -767
-423 -1081 -439 -83 -4 -118 -10 -118 -18 0 -13 107 -88 169 -120 56 -28 168
-64 254 -80 96 -18 308 -20 424 -3 45 7 85 9 89 6 12 -12 -67 -243 -121 -353
-104 -212 -317 -451 -533 -600 -99 -68 -117 -85 -88 -85 30 0 211 40 274 61
88 28 268 114 362 172 41 25 76 44 79 42 8 -9 -33 -216 -60 -302 -16 -50 -54
-144 -84 -209 -31 -64 -54 -119 -51 -121 21 -21 215 147 300 260 l29 37 62
-127 c248 -504 677 -850 1235 -994 70 -18 123 -38 137 -51 59 -55 80 -166 53
-279 -7 -27 -10 -52 -8 -54 6 -7 113 59 176 108 75 57 118 113 158 204 l33 78
88 7 c124 11 314 36 403 54 253 51 618 159 853 253 43 17 80 31 82 31 3 0 5
-35 5 -77 0 -174 73 -334 178 -395 l29 -18 7 73 c24 253 168 422 380 448 141
18 259 -19 360 -112 110 -100 167 -232 169 -384 1 -156 -61 -286 -199 -421
-46 -44 -84 -84 -84 -87 0 -7 97 21 199 57 213 75 381 216 472 398 23 47 44
77 49 72 25 -25 52 -185 57 -334 4 -133 2 -170 -17 -260 -42 -206 -135 -368
-309 -540 -157 -156 -365 -289 -591 -376 -91 -35 -99 -36 -196 -32 -108 4
-154 21 -154 58 0 10 40 92 89 182 49 90 101 197 115 239 34 100 58 243 54
321 l-3 63 -76 -95 c-141 -177 -306 -314 -486 -404 -40 -20 -73 -32 -73 -27 0
5 14 40 31 78 91 200 122 331 122 523 1 148 -26 341 -44 323 -5 -5 -26 -52
-48 -104 -72 -179 -187 -349 -329 -487 -235 -229 -509 -335 -862 -334 -391 0
-808 148 -1195 422 -60 43 -111 77 -113 75 -14 -14 157 -275 287 -438 179
-225 349 -387 604 -578 413 -309 984 -574 1386 -644 222 -38 461 -57 461 -36
0 5 -44 41 -97 82 -54 40 -124 98 -157 128 -87 84 -245 275 -235 286 2 2 31
-3 64 -10 119 -27 274 -45 476 -56 207 -10 370 -1 564 32 604 104 1076 463
1397 1064 l53 100 120 7 c156 9 247 30 346 79 73 37 199 138 199 160 0 5 -21
9 -47 9 -60 0 -211 24 -280 45 -147 44 -300 202 -332 344 -9 39 -8 41 18 47
288 62 458 214 469 419 l4 70 -49 -46 c-73 -71 -123 -93 -213 -93 -126 -1
-213 50 -420 249 -195 187 -372 314 -572 410 -526 252 -1068 269 -1899 60
-133 -34 -319 -63 -479 -75 -194 -14 -510 2 -662 34 -461 97 -783 319 -929
641 -30 67 -75 232 -66 241 3 4 43 -19 89 -49 158 -105 325 -175 478 -203 81
-14 202 -18 214 -7 4 4 -33 46 -82 93 -289 276 -316 582 -80 901 166 225 461
356 700 310 82 -16 197 -73 258 -128 169 -152 156 -419 -28 -585 -29 -25 -73
-53 -99 -62 -88 -30 -224 -17 -314 29 -79 41 -208 194 -224 265 -4 17 -11 33
-17 36 -17 11 -2 -169 22 -260 26 -102 92 -226 158 -297 62 -67 175 -130 269
-149 128 -27 311 7 463 86 100 52 159 95 309 227 61 53 111 95 111 93 0 -2 -9
-33 -20 -69 -24 -77 -93 -184 -184 -286 -36 -41 -66 -77 -66 -81 0 -11 103 8
187 35 138 44 250 120 341 231 l42 51 107 -53 c193 -94 406 -162 623 -200 151
-26 469 -23 635 5 157 28 322 75 470 135 61 24 112 42 114 40 10 -10 -103
-215 -163 -294 -80 -106 -220 -242 -353 -343 -57 -43 -103 -80 -103 -82 0 -13
133 41 278 114 210 105 424 261 570 416 45 47 82 83 82 80 0 -4 -17 -44 -39
-89 -63 -136 -161 -269 -329 -449 -30 -32 -52 -60 -49 -63 17 -17 329 166 537
315 269 192 436 338 718 626 122 125 222 222 222 216 0 -39 -36 -173 -66 -248
-48 -119 -139 -268 -231 -377 -18 -22 -33 -44 -33 -49 0 -13 105 47 185 108
142 106 250 233 321 378 32 65 42 78 59 74 11 -3 49 -12 85 -22 130 -35 283
-3 374 77 75 65 124 189 113 284 -6 57 -15 65 -35 34 -36 -55 -92 -100 -125
-100 -62 0 -181 98 -213 176 -18 43 -18 135 0 179 33 79 127 165 241 220 l55
27 43 -38 c24 -22 62 -50 85 -64 145 -86 185 -129 219 -236 9 -30 20 -54 24
-54 11 0 45 118 60 203 15 92 7 236 -19 317 -25 76 -79 170 -140 240 -37 43
-47 49 -70 44 -215 -47 -358 -124 -549 -293 -51 -45 -93 -80 -93 -77 0 11 84
143 126 197 188 245 403 375 649 396 185 15 381 -93 452 -248 24 -53 29 -58
34 -37 12 41 9 151 -6 221 -29 138 -114 252 -228 306 -71 34 -116 45 -236 60
-103 13 -187 50 -260 115 -52 46 -71 51 -71 18 -1 -32 -41 -107 -77 -144 -66
-67 -122 -69 -179 -6 -71 77 -53 162 57 273 46 47 65 76 83 127 48 130 142
262 313 439 64 65 114 121 112 124 -12 11 -440 -334 -636 -514 -278 -255 -440
-476 -483 -660 -14 -60 -8 -207 9 -224 7 -7 22 -3 48 15 59 38 119 58 174 58
56 0 80 -10 122 -48 34 -32 36 -82 6 -152 -33 -76 -126 -134 -257 -161 l-60
-13 0 -125 c0 -111 -3 -138 -29 -226 -36 -119 -80 -235 -98 -254 -7 -7 -59
-31 -115 -52 -56 -21 -171 -75 -257 -120 -85 -44 -156 -79 -158 -77 -3 2 12
26 31 54 148 207 297 541 370 826 154 609 68 1233 -223 1623 -90 121 -267 295
-381 375 -246 173 -582 313 -992 414 -223 55 -356 78 -640 111 -510 60 -758
122 -1056 265 -342 163 -569 364 -713 631 -76 141 -121 314 -121 466 0 198
103 465 238 613 99 110 267 221 397 263 504 163 1175 -7 1705 -431 186 -149
282 -254 305 -331 6 -21 2 -20 -53 18 -96 65 -162 88 -335 120 -177 33 -280
64 -353 107 -66 39 -163 137 -205 207 -18 31 -37 57 -41 57 -10 0 1 -65 24
-145 41 -142 106 -242 270 -414 66 -68 117 -125 116 -127 -7 -6 -182 37 -269
67 -237 81 -448 209 -646 394 -46 42 -83 74 -83 70 0 -4 21 -42 46 -84 131
-216 338 -441 512 -556 189 -125 374 -188 602 -206 134 -11 136 -11 280 -74
155 -67 214 -90 435 -165 l140 -47 130 -128 c94 -93 149 -157 200 -234 42 -63
88 -119 114 -138 24 -19 45 -32 47 -30 2 2 -12 39 -31 83 -18 44 -47 143 -64
223 -25 119 -38 156 -71 212 -22 37 -40 70 -40 73 0 3 31 -14 68 -38 166 -106
334 -182 464 -210 40 -9 138 -22 218 -31 269 -27 418 -85 544 -210 58 -58 84
-95 142 -205 40 -74 84 -168 100 -207 15 -40 31 -73 35 -73 11 0 75 202 88
275 52 299 -1 517 -167 688 -99 102 -214 172 -354 217 -123 39 -214 120 -308
273 -49 79 -105 207 -117 268 l-6 30 39 -6 c53 -9 170 -65 219 -105 30 -24 41
-28 43 -17 2 8 -13 69 -33 137 -39 133 -100 263 -178 380 -69 103 -271 302
-381 375 -58 38 -107 81 -143 124 -179 216 -326 519 -368 759 -19 109 -19 309
0 409 8 43 15 84 15 92 0 24 -60 -68 -120 -183 -106 -203 -165 -395 -191 -625
-7 -61 -16 -111 -19 -111 -4 0 -57 47 -117 105 -100 95 -216 233 -285 341 -80
125 -163 328 -199 489 -19 81 -19 438 -1 520 8 33 29 108 48 167 19 59 34 112
34 118 0 24 -28 6 -67 -44z m902 -2498 c132 -85 218 -171 269 -268 21 -39 36
-73 33 -76 -2 -2 -36 2 -76 11 -40 8 -110 15 -155 15 -103 0 -214 27 -321 79
l-80 38 31 29 c17 16 61 40 98 53 36 13 66 27 66 31 0 5 -11 21 -24 37 -32 39
-50 76 -75 157 -12 37 -21 70 -21 72 0 2 33 -21 73 -51 39 -31 122 -88 182
-127z"/>
</g>
</svg>
