<?xml version="1.0" standalone="no"?>
<!DOCTYPE svg PUBLIC "-//W3C//DTD SVG 20010904//EN"
 "http://www.w3.org/TR/2001/REC-SVG-20010904/DTD/svg10.dtd">
<svg version="1.0" xmlns="http://www.w3.org/2000/svg"
 width="1280.000000pt" height="1280.000000pt" viewBox="0 0 1280.000000 1280.000000"
 preserveAspectRatio="xMidYMid meet">
<metadata>
Created by potrace 1.15, written by Peter Selinger 2001-2017
</metadata>
<g transform="translate(0.000000,1280.000000) scale(0.100000,-0.100000)"
fill="#000000" stroke="none">
<path d="M6416 12748 c-463 -795 -1194 -2073 -1189 -2078 5 -4 440 -256 968
-560 528 -304 1055 -608 1170 -675 116 -67 211 -121 212 -120 3 2 0 12 -179
560 -71 220 -157 483 -190 585 -33 102 -68 210 -78 240 -10 30 -73 224 -140
430 -67 206 -153 472 -192 590 -38 118 -101 312 -140 430 -155 476 -210 640
-213 640 -2 0 -15 -19 -29 -42z"/>
<path d="M3240 10736 l0 -1226 1360 0 c748 0 1360 2 1360 5 0 4 -2662 2401
-2703 2434 -16 13 -17 -55 -17 -1213z"/>
<path d="M8578 11307 c-582 -336 -1058 -615 -1058 -618 0 -8 1338 -2329 1350
-2343 11 -12 0 -62 150 649 28 132 59 281 70 330 11 50 42 198 70 330 28 132
59 281 70 330 11 50 42 198 70 330 28 132 59 281 70 330 11 50 42 198 70 330
28 132 59 281 70 330 11 50 42 198 70 330 28 132 53 250 55 263 3 12 4 22 3
21 -2 0 -479 -276 -1060 -612z"/>
<path d="M998 9437 c817 -1416 1108 -1917 1113 -1917 4 0 497 283 1096 628
598 346 1126 651 1172 677 70 40 81 50 65 57 -10 4 -94 23 -186 43 -93 19
-242 51 -333 70 -91 19 -239 51 -330 70 -91 19 -240 51 -332 71 -93 19 -242
51 -333 70 -91 19 -239 51 -330 70 -421 89 -501 106 -657 139 -93 20 -208 44
-258 55 -49 11 -198 42 -330 70 -132 28 -283 60 -335 71 -52 11 -105 22 -117
25 -18 3 -3 -30 95 -199z"/>
<path d="M9510 8200 c0 -748 2 -1360 4 -1360 5 0 2395 2654 2429 2697 l18 23
-1225 0 -1226 0 0 -1360z"/>
<path d="M3435 7566 c-62 -21 -799 -262 -1465 -478 -102 -33 -210 -68 -240
-78 -30 -10 -224 -73 -430 -140 -206 -67 -469 -152 -585 -190 -115 -38 -309
-101 -430 -140 -267 -86 -278 -91 -268 -101 7 -6 2034 -1178 2089 -1207 20
-11 49 36 577 951 305 529 612 1060 681 1180 69 119 122 217 118 217 -4 -1
-25 -7 -47 -14z"/>
<path d="M10302 6937 c-204 -353 -510 -883 -680 -1177 -170 -294 -308 -536
-308 -537 2 -3 72 20 431 137 116 37 379 123 585 190 206 67 400 130 430 140
30 10 138 45 240 78 561 183 1285 418 1604 522 103 34 184 66 180 70 -9 8
-2032 1178 -2085 1206 l-27 13 -370 -642z"/>
<path d="M2061 4605 l-1223 -1360 1223 -3 c672 -1 1224 -1 1226 1 2 2 2 615 1
1363 l-3 1359 -1224 -1360z"/>
<path d="M10525 5191 c-82 -48 -604 -350 -1160 -670 -555 -321 -1014 -587
-1019 -591 -10 -10 -7 -11 224 -60 107 -22 236 -49 285 -60 50 -11 164 -35
255 -54 91 -19 240 -51 333 -70 92 -20 241 -52 332 -71 91 -19 239 -51 330
-70 91 -19 239 -51 330 -70 91 -19 239 -51 330 -70 91 -19 240 -51 333 -71 92
-19 241 -51 332 -70 91 -19 237 -50 325 -69 87 -19 160 -33 161 -32 0 1 -101
178 -225 393 -124 215 -399 691 -611 1058 -211 366 -389 666 -395 665 -5 0
-77 -40 -160 -88z"/>
<path d="M3917 4444 c-6 -22 -32 -138 -82 -376 -19 -93 -51 -243 -71 -335 -19
-93 -51 -241 -70 -330 -18 -90 -50 -236 -68 -325 -19 -90 -51 -239 -71 -333
-40 -187 -88 -413 -141 -662 -18 -90 -50 -237 -69 -328 -19 -91 -51 -239 -70
-330 -19 -91 -51 -240 -70 -332 -20 -93 -38 -178 -40 -190 -4 -18 29 -2 198
95 1433 827 1917 1108 1917 1114 0 4 -74 135 -164 290 -89 156 -391 679 -671
1163 -279 484 -511 884 -515 889 -4 4 -10 0 -13 -10z"/>
<path d="M5220 3487 c0 -4 84 -264 260 -802 71 -219 288 -886 392 -1205 33
-102 68 -210 78 -240 10 -30 73 -224 140 -430 223 -689 262 -802 270 -793 7 6
1087 1873 1191 2058 l29 52 -932 538 c-1357 784 -1428 824 -1428 822z"/>
<path d="M6840 3285 c0 -3 2617 -2360 2703 -2433 16 -14 17 44 17 1211 l0
1227 -1360 0 c-748 0 -1360 -2 -1360 -5z"/>
</g>
</svg>
