<?xml version="1.0" standalone="no"?>
<!DOCTYPE svg PUBLIC "-//W3C//DTD SVG 20010904//EN"
 "http://www.w3.org/TR/2001/REC-SVG-20010904/DTD/svg10.dtd">
<svg version="1.0" xmlns="http://www.w3.org/2000/svg"
 width="1244.000000pt" height="1280.000000pt" viewBox="0 0 1244.000000 1280.000000"
 preserveAspectRatio="xMidYMid meet">
<metadata>
Created by potrace 1.15, written by Peter Selinger 2001-2017
</metadata>
<g transform="translate(0.000000,1280.000000) scale(0.100000,-0.100000)"
fill="#000000" stroke="none">
<path d="M5935 12370 c-491 -50 -851 -126 -1299 -274 -350 -115 -535 -191
-801 -326 -383 -194 -560 -307 -869 -554 -364 -291 -641 -559 -910 -882 -376
-450 -702 -985 -930 -1523 -102 -241 -130 -317 -209 -556 -184 -555 -278
-1071 -307 -1682 -36 -771 112 -1793 362 -2488 170 -472 542 -1149 854 -1550
243 -314 352 -435 612 -681 569 -540 1160 -897 1944 -1174 239 -85 651 -185
889 -215 388 -50 706 -49 1359 6 283 24 599 84 910 174 380 110 574 186 910
356 551 278 966 562 1365 935 405 378 550 541 845 949 241 333 328 475 455
739 311 645 480 1130 604 1726 44 209 48 238 78 525 25 234 28 296 27 615 0
655 -61 1120 -218 1687 -65 233 -125 414 -191 573 -137 332 -342 756 -459 949
-305 501 -659 930 -1076 1302 -403 360 -780 614 -1240 834 -459 221 -749 317
-1260 419 -293 59 -482 87 -700 106 -178 15 -631 21 -745 10z m770 -571 c357
-28 885 -119 885 -153 0 -6 -15 -65 -34 -131 -159 -552 -683 -2435 -791 -2840
-154 -579 -227 -837 -268 -945 -56 -146 -134 -335 -157 -379 l-17 -34 -21 79
c-54 207 -72 315 -201 1264 -61 443 -156 1120 -211 1505 -183 1275 -226 1595
-211 1604 19 12 231 33 416 41 180 9 416 4 610 -11z m-1313 -279 c52 -346 197
-1344 228 -1565 17 -121 60 -416 96 -655 152 -1025 176 -1182 196 -1320 15
-110 22 -214 25 -430 5 -270 4 -283 -12 -270 -41 34 -248 361 -827 1303 -148
241 -403 653 -567 915 -416 668 -726 1167 -806 1302 -37 63 -74 122 -82 131
-7 8 -13 20 -13 26 0 24 381 251 610 363 167 83 336 151 550 224 193 65 539
166 560 163 11 -2 21 -48 42 -187z m2646 -11 c176 -70 344 -152 500 -245 73
-44 171 -101 219 -129 174 -101 783 -573 783 -607 0 -6 -134 -170 -297 -366
-608 -725 -1375 -1650 -1653 -1992 -427 -524 -549 -663 -774 -873 l-119 -112
7 50 c14 98 89 433 131 585 24 85 133 470 243 855 110 385 252 885 316 1110
224 797 395 1402 448 1588 29 103 56 187 61 187 4 0 65 -23 135 -51z m-4619
-767 c14 -20 246 -390 516 -822 271 -432 539 -859 597 -950 58 -91 158 -248
223 -350 137 -216 610 -974 648 -1040 22 -39 175 -368 197 -425 4 -11 17 -43
29 -72 l20 -52 -38 -12 c-35 -10 -42 -9 -97 22 -128 70 -347 204 -749 458
-658 414 -882 551 -1450 883 -291 171 -633 373 -760 448 -126 75 -305 181
-397 234 l-167 98 30 60 c72 142 343 538 492 716 136 164 420 455 589 604 157
138 278 238 287 238 4 0 17 -17 30 -38z m6490 -606 c153 -186 245 -311 348
-471 140 -217 234 -378 307 -523 99 -197 280 -610 288 -655 3 -21 81 13 -997
-440 -412 -174 -1020 -431 -1350 -572 -1175 -503 -1278 -546 -1442 -591 -60
-17 -64 -16 -83 1 -11 10 -20 22 -20 27 0 30 278 408 420 573 47 55 178 210
290 345 281 337 983 1169 1465 1735 220 259 449 530 509 602 109 129 110 131
134 115 13 -8 72 -74 131 -146z m-7966 -1263 c278 -157 1716 -1009 2492 -1475
698 -420 838 -506 888 -552 l28 -26 -41 -83 c-22 -46 -40 -89 -40 -95 0 -8
-18 -12 -48 -12 -98 0 -527 31 -822 60 -168 16 -512 50 -765 75 -253 24 -644
61 -870 80 -225 20 -504 44 -620 55 -115 11 -343 31 -505 45 -162 14 -313 28
-334 31 l-39 6 7 82 c25 327 191 959 379 1441 67 173 182 415 197 415 6 0 48
-21 93 -47z m9033 -750 c8 -32 24 -87 35 -123 19 -68 108 -488 127 -600 6 -36
10 -81 10 -100 0 -19 7 -93 15 -165 28 -234 40 -467 35 -723 -2 -138 -7 -254
-11 -259 -14 -13 -895 37 -1702 97 -434 33 -983 73 -1220 90 -236 16 -529 37
-650 45 -218 16 -464 41 -472 48 -2 2 -8 32 -15 67 -13 75 -18 69 147 159 162
88 304 150 827 360 260 104 706 286 990 405 446 186 1171 483 1693 694 83 33
155 61 162 61 7 1 20 -25 29 -56z m-9231 -1448 c226 -19 950 -80 1610 -135
1140 -95 1682 -142 1824 -158 l63 -7 19 -75 c15 -59 17 -77 7 -86 -32 -30
-314 -177 -389 -203 -46 -16 -156 -56 -244 -89 -88 -33 -466 -174 -840 -312
-374 -139 -1049 -393 -1500 -565 -451 -172 -832 -316 -846 -320 -24 -6 -28 -3
-38 27 -17 55 -88 347 -105 433 -19 100 -62 456 -76 635 -20 246 -10 850 15
890 3 5 25 7 48 4 23 -2 227 -20 452 -39z m5828 -530 c253 -18 611 -48 907
-75 118 -11 341 -29 495 -40 154 -11 456 -36 670 -55 327 -29 669 -53 1413
-101 l102 -6 -5 -32 c-3 -17 -14 -87 -26 -156 -104 -632 -262 -1124 -550
-1719 -60 -124 -111 -226 -113 -228 -4 -4 -400 264 -1181 798 -344 236 -716
482 -1713 1134 -192 125 -502 357 -502 375 0 4 10 33 21 64 l22 56 124 0 c68
0 219 -7 336 -15z m-2053 -198 c0 -1 -42 -59 -92 -129 -227 -308 -317 -416
-548 -652 -344 -353 -2416 -2436 -2423 -2436 -20 0 -286 369 -414 575 -157
252 -394 738 -481 985 -58 167 -57 158 -30 170 79 33 3265 1254 3483 1334 304
113 505 173 505 153z m1573 -269 c134 -82 722 -480 1142 -772 127 -87 412
-284 635 -436 541 -370 1434 -981 1438 -985 20 -19 -270 -428 -453 -640 -34
-38 -71 -86 -83 -106 -33 -54 -383 -393 -546 -528 -156 -130 -369 -291 -384
-291 -6 0 -144 267 -307 592 -498 994 -616 1217 -1043 1968 -410 721 -515 920
-612 1159 l-42 103 28 23 c26 21 31 21 61 8 19 -7 93 -50 166 -95z m-1421
-339 c-85 -333 -103 -385 -572 -1589 -136 -349 -395 -1023 -576 -1498 -237
-622 -333 -862 -344 -862 -21 0 -259 130 -470 256 -332 198 -621 424 -953 745
l-108 104 532 545 c293 300 774 795 1068 1100 1203 1247 1481 1524 1489 1487
2 -8 -28 -137 -66 -288z m948 87 c56 -76 117 -162 135 -191 58 -90 366 -650
532 -965 88 -168 256 -487 373 -710 265 -504 503 -965 743 -1445 l186 -370
-72 -46 c-275 -175 -802 -401 -1247 -533 -140 -42 -586 -143 -594 -135 -4 4
-28 533 -71 1534 -14 319 -32 706 -40 860 -8 154 -19 381 -25 505 -10 231 -18
396 -46 935 -19 369 -11 738 16 708 4 -4 54 -71 110 -147z m-474 -137 c43
-238 70 -432 79 -564 3 -55 30 -766 60 -1580 70 -1916 78 -2145 74 -2150 -14
-13 -328 -25 -439 -16 -489 39 -559 47 -705 77 -251 53 -643 162 -715 199
l-27 14 219 578 c121 318 324 853 453 1188 128 336 299 786 379 1002 320 859
564 1468 583 1450 1 -2 19 -91 39 -198z"/>
</g>
</svg>
