<?xml version="1.0" standalone="no"?>
<!DOCTYPE svg PUBLIC "-//W3C//DTD SVG 20010904//EN"
 "http://www.w3.org/TR/2001/REC-SVG-20010904/DTD/svg10.dtd">
<svg version="1.0" xmlns="http://www.w3.org/2000/svg"
 width="1280.000000pt" height="1168.000000pt" viewBox="0 0 1280.000000 1168.000000"
 preserveAspectRatio="xMidYMid meet">
<metadata>
Created by potrace 1.15, written by Peter Selinger 2001-2017
</metadata>
<g transform="translate(0.000000,1168.000000) scale(0.100000,-0.100000)"
fill="#000000" stroke="none">
<path d="M4005 11581 c-1161 -750 -1908 -1955 -2046 -3303 l-13 -127 -95 -68
c-587 -420 -1103 -1036 -1411 -1688 -265 -559 -413 -1158 -434 -1755 -4 -110
-3 -133 4 -95 63 322 107 492 174 678 272 749 764 1377 1421 1814 117 78 355
217 361 210 2 -2 13 -61 24 -131 41 -256 93 -467 180 -727 290 -864 828 -1606
1567 -2158 l142 -106 6 -55 c64 -603 194 -1064 445 -1575 292 -595 723 -1131
1222 -1520 42 -33 77 -62 77 -65 0 -3 -54 -37 -122 -77 -466 -273 -926 -426
-1487 -495 -162 -20 -632 -17 -805 5 -314 40 -700 137 -918 231 -22 10 -36 13
-33 8 11 -17 391 -200 541 -260 383 -153 777 -250 1207 -299 215 -24 705 -24
913 0 503 59 933 175 1373 370 l102 46 103 -46 c439 -195 869 -311 1372 -370
208 -24 698 -24 913 0 430 49 824 146 1207 299 150 60 530 243 541 260 3 5
-11 2 -33 -8 -218 -94 -604 -191 -918 -231 -173 -22 -643 -25 -805 -5 -561 69
-1021 222 -1487 495 -68 40 -122 74 -122 77 0 3 35 32 77 65 499 389 930 925
1222 1520 251 511 381 972 445 1575 l6 55 142 106 c942 704 1561 1726 1747
2885 11 70 22 129 24 131 6 7 244 -132 361 -210 657 -437 1149 -1065 1421
-1814 67 -186 111 -356 174 -678 14 -73 3 203 -16 383 -120 1171 -705 2251
-1623 3001 -59 47 -149 117 -202 154 l-95 68 -13 127 c-129 1255 -802 2416
-1831 3158 -114 82 -340 227 -345 222 -2 -2 28 -28 68 -58 108 -82 410 -388
525 -532 449 -563 721 -1229 792 -1937 15 -157 24 -408 16 -482 l-7 -66 -111
43 c-319 126 -702 223 -1063 268 -801 101 -1645 -25 -2382 -358 l-103 -46
-102 46 c-738 333 -1582 459 -2383 358 -361 -45 -744 -142 -1063 -268 l-111
-43 -7 66 c-8 74 1 325 16 482 71 708 344 1375 792 1937 117 146 395 429 513
521 96 76 91 71 79 71 -5 -1 -63 -36 -129 -79z m80 -3955 c277 -40 489 -88
713 -163 193 -64 183 -52 114 -132 -317 -367 -598 -859 -786 -1374 l-18 -47
-40 32 c-209 165 -470 444 -651 696 -156 217 -330 535 -424 777 -73 187 -71
171 -21 178 24 4 90 13 148 22 188 29 281 34 570 30 185 -3 324 -9 395 -19z
m5520 1 c268 -39 266 -39 259 -61 -51 -168 -230 -540 -353 -736 -214 -339
-507 -673 -779 -888 l-40 -32 -18 47 c-134 368 -326 745 -520 1025 -85 121
-198 271 -266 349 -51 60 -56 69 -41 78 10 5 81 30 158 56 235 78 522 141 750
164 61 6 126 13 145 15 83 9 610 -4 705 -17z m-3111 -1343 c255 -318 465 -695
601 -1075 l13 -36 -96 -16 c-159 -27 -248 -36 -434 -46 -256 -14 -530 2 -790
46 l-96 16 13 36 c104 292 274 622 449 873 84 119 234 308 246 308 5 0 47 -48
94 -106z m-854 -2869 c484 -85 997 -87 1494 -4 65 11 121 18 123 15 3 -2 -5
-55 -17 -118 -86 -453 -253 -878 -501 -1276 -60 -97 -240 -343 -309 -422 l-30
-35 -30 35 c-69 79 -249 325 -309 422 -247 396 -414 821 -500 1271 -23 121
-24 127 -13 127 4 0 45 -7 92 -15z"/>
</g>
</svg>
