<?xml version="1.0" standalone="no"?>
<!DOCTYPE svg PUBLIC "-//W3C//DTD SVG 20010904//EN"
 "http://www.w3.org/TR/2001/REC-SVG-20010904/DTD/svg10.dtd">
<svg version="1.0" xmlns="http://www.w3.org/2000/svg"
 width="1280.000000pt" height="1190.000000pt" viewBox="0 0 1280.000000 1190.000000"
 preserveAspectRatio="xMidYMid meet">
<metadata>
Created by potrace 1.15, written by Peter Selinger 2001-2017
</metadata>
<g transform="translate(0.000000,1190.000000) scale(0.100000,-0.100000)"
fill="#000000" stroke="none">
<path d="M6260 11697 c-699 -500 -1294 -1159 -1730 -1917 -80 -140 -247 -475
-309 -620 l-40 -95 -152 -89 c-1041 -604 -1789 -1507 -2174 -2626 -173 -501
-256 -999 -256 -1542 l0 -218 -37 -47 c-173 -221 -385 -554 -539 -848 -324
-617 -528 -1245 -633 -1945 -25 -171 -50 -420 -43 -438 11 -28 385 -187 671
-285 392 -135 789 -228 1192 -281 500 -65 1065 -67 1532 -5 l77 10 118 -71
c256 -155 618 -321 921 -424 1073 -366 2257 -336 3317 84 230 91 523 236 717
357 l88 54 77 -10 c474 -63 1035 -60 1565 9 356 45 786 148 1160 277 288 98
660 257 670 285 7 16 -14 241 -37 403 -138 975 -494 1867 -1066 2677 -40 57
-90 125 -111 151 l-38 49 0 212 c0 1383 -581 2668 -1630 3604 -219 196 -510
403 -798 569 l-153 88 -40 95 c-62 145 -229 480 -309 620 -387 672 -889 1256
-1496 1741 -158 126 -351 263 -373 264 -9 1 -73 -39 -141 -88z m246 -1569
c125 -129 254 -279 374 -437 l92 -123 -54 6 c-312 35 -724 35 -1036 0 l-54 -6
92 123 c51 67 133 170 183 228 93 109 286 311 297 311 3 0 51 -46 106 -102z
m329 -1763 c251 -33 474 -84 694 -158 l125 -42 28 -100 c62 -226 108 -458 138
-700 21 -164 47 -581 38 -590 -3 -3 -66 8 -139 24 -439 97 -847 141 -1319 141
-472 0 -880 -44 -1319 -141 -73 -16 -136 -27 -139 -24 -9 9 17 426 38 595 23
190 85 500 133 675 l33 120 80 28 c268 96 578 160 924 191 106 9 570 -3 685
-19z m-3097 -1290 c-5 -77 -7 -276 -4 -442 l5 -302 -89 -45 c-173 -86 -425
-233 -582 -338 -49 -32 -88 -57 -88 -54 0 14 77 221 116 312 104 244 232 470
388 689 57 79 258 327 261 322 1 -1 -2 -65 -7 -142z m5388 62 c236 -276 436
-598 578 -931 39 -91 116 -298 116 -312 0 -3 -39 22 -87 54 -140 93 -345 214
-513 301 l-155 80 0 423 c-1 233 -5 431 -9 441 -16 35 11 14 70 -56z m-2375
-1417 c370 -29 949 -137 949 -177 0 -42 -115 -395 -188 -578 -99 -247 -194
-438 -344 -690 -189 -317 -404 -598 -687 -895 l-81 -85 -81 85 c-462 484 -796
999 -1031 1585 -73 183 -188 536 -188 578 0 39 576 148 925 176 159 12 569 13
726 1z m-2598 -1181 c166 -424 412 -878 690 -1274 138 -196 279 -369 536 -657
41 -47 43 -50 25 -64 -38 -29 -482 -244 -599 -290 -230 -90 -624 -214 -679
-214 -42 0 -315 262 -480 460 -389 467 -662 1040 -771 1620 l-16 85 148 145
c269 263 568 495 877 682 l81 48 71 -213 c40 -116 92 -264 117 -328z m4902
404 c286 -187 502 -361 753 -608 l133 -130 -7 -40 c-54 -335 -208 -768 -386
-1090 -75 -136 -224 -362 -312 -474 -175 -223 -513 -561 -561 -561 -68 0 -542
155 -769 252 -137 58 -472 224 -510 253 -18 13 -16 16 25 63 257 288 398 461
536 657 359 512 624 1041 819 1637 l58 178 45 -26 c25 -15 105 -65 176 -111z
m-7020 -2143 c96 -222 305 -580 475 -814 l43 -59 -74 7 c-182 16 -448 64 -664
118 -66 16 -121 31 -123 32 -1 2 13 57 33 124 86 296 244 707 264 686 5 -5 25
-47 46 -94z m8810 43 c44 -96 105 -250 151 -386 47 -137 116 -368 112 -373 -2
-1 -57 -16 -123 -32 -216 -54 -482 -102 -664 -118 l-74 -7 42 59 c182 251 397
622 494 852 15 34 28 62 31 62 2 0 16 -26 31 -57z m-4312 -1192 c161 -102 373
-224 516 -295 62 -32 111 -59 108 -62 -8 -8 -278 -52 -392 -63 -346 -35 -673
-21 -1034 44 -46 8 -86 17 -89 19 -2 3 47 30 109 62 147 73 373 203 519 298
63 41 121 75 127 75 7 1 68 -35 136 -78z"/>
</g>
</svg>
