<?xml version="1.0" standalone="no"?>
<!DOCTYPE svg PUBLIC "-//W3C//DTD SVG 20010904//EN"
 "http://www.w3.org/TR/2001/REC-SVG-20010904/DTD/svg10.dtd">
<svg version="1.0" xmlns="http://www.w3.org/2000/svg"
 width="1280.000000pt" height="1132.000000pt" viewBox="0 0 1280.000000 1132.000000"
 preserveAspectRatio="xMidYMid meet">
<metadata>
Created by potrace 1.15, written by Peter Selinger 2001-2017
</metadata>
<g transform="translate(0.000000,1132.000000) scale(0.100000,-0.100000)"
fill="#000000" stroke="none">
<path d="M3 11069 c6 -275 30 -416 112 -664 125 -378 358 -802 622 -1130 106
-133 299 -334 408 -425 288 -241 812 -594 911 -615 42 -8 140 -89 181 -149 67
-98 35 -141 -107 -141 -101 1 -185 26 -380 114 -405 184 -846 514 -1172 878
-189 210 -216 238 -224 231 -38 -39 572 -772 846 -1016 276 -247 843 -610
1103 -707 59 -22 151 -117 236 -243 88 -132 167 -225 282 -337 176 -170 357
-305 525 -392 181 -93 600 -202 900 -233 184 -19 201 -10 394 210 133 151 214
225 335 307 140 94 315 163 493 194 129 22 160 23 197 9 36 -14 22 -37 -52
-86 -164 -108 -416 -421 -537 -668 -64 -130 -77 -201 -83 -461 -5 -229 8 -386
44 -534 35 -146 118 -263 301 -427 205 -183 342 -246 587 -269 39 -4 101 -14
138 -22 84 -18 88 -40 12 -62 -77 -22 -496 -21 -593 1 -298 69 -699 362 -892
653 -79 120 -117 165 -137 165 -22 0 -15 -20 58 -165 121 -237 214 -358 514
-665 282 -289 398 -436 480 -613 97 -210 124 -333 132 -593 13 -443 -69 -827
-259 -1214 -66 -136 -98 -211 -98 -231 0 -23 36 -4 87 44 54 51 191 226 248
317 140 222 254 510 296 748 18 95 22 173 26 417 6 321 -5 512 -35 651 l-18
81 170 6 c195 7 262 21 382 78 162 77 373 261 452 394 82 138 114 271 114 465
0 202 -36 399 -96 525 -90 187 -326 376 -536 430 -48 13 -90 16 -160 12 -105
-5 -176 -29 -255 -85 -160 -112 -195 -345 -85 -562 45 -89 129 -150 146 -105
3 8 -4 45 -17 82 -31 94 -29 159 7 231 76 148 255 156 384 16 51 -55 76 -106
90 -182 26 -148 -49 -314 -178 -389 -84 -49 -234 -67 -354 -42 -183 38 -346
188 -417 383 -22 62 -25 87 -25 201 -1 196 29 270 152 387 82 77 252 192 337
227 56 24 74 26 256 29 225 4 280 -5 389 -64 178 -98 387 -294 510 -481 148
-225 163 -276 164 -578 1 -250 -4 -277 -79 -427 -82 -164 -283 -500 -314 -526
-90 -75 -429 -261 -517 -283 -24 -6 -48 -17 -54 -24 -16 -19 -30 -163 -30
-310 0 -291 -36 -510 -145 -888 -261 -909 -467 -1327 -899 -1822 -43 -49 -191
-207 -330 -350 -309 -319 -350 -364 -344 -371 11 -10 306 146 420 223 420 281
848 726 1167 1213 117 178 168 294 280 627 142 423 255 878 280 1129 11 103
33 156 101 242 49 62 54 60 96 -31 l29 -62 -1 -260 c-1 -282 -11 -393 -64
-655 -58 -289 -143 -548 -292 -890 -89 -205 -118 -281 -118 -317 0 -50 27 -23
133 132 228 335 397 687 553 1150 109 327 126 431 139 865 7 244 19 371 40
430 9 24 46 85 83 134 112 151 163 241 236 418 119 288 159 501 159 848 -1
399 -45 645 -180 1009 l-28 74 -163 42 c-415 108 -594 206 -858 466 -106 105
-142 155 -130 184 7 20 43 18 186 -11 68 -14 140 -17 365 -17 485 -1 650 36
884 196 97 66 289 258 363 362 156 221 241 460 223 629 -24 218 -88 404 -194
561 -74 109 -44 116 64 14 77 -73 139 -162 183 -259 39 -88 81 -217 97 -303
46 -245 -21 -647 -166 -996 -73 -176 -80 -201 -51 -201 38 0 110 70 179 173
95 143 192 379 297 716 65 211 110 329 173 456 130 260 318 459 597 630 136
83 366 199 459 229 172 58 530 116 717 116 104 0 131 8 105 30 -36 30 -131 42
-363 47 -271 6 -384 -3 -632 -53 -532 -106 -712 -188 -993 -453 l-109 -102
-147 144 c-82 79 -179 166 -217 195 -131 98 -297 175 -449 208 -97 20 -303 23
-390 5 -297 -62 -576 -238 -694 -437 -58 -99 -109 -229 -128 -327 -28 -148 8
-314 97 -452 64 -96 138 -155 241 -189 129 -43 201 -31 325 55 76 52 186 161
205 204 23 49 26 162 5 190 -20 28 -40 13 -86 -63 -58 -98 -115 -134 -210
-134 -64 1 -123 32 -157 84 -24 36 -28 51 -28 117 0 101 32 169 117 255 72 71
114 90 245 106 97 12 200 -1 249 -31 122 -75 221 -426 174 -619 -35 -148 -150
-285 -300 -358 -111 -54 -181 -72 -315 -79 -253 -13 -466 67 -583 219 -201
261 -215 783 -31 1128 115 215 298 381 564 513 218 108 403 157 598 157 235 0
414 -64 677 -242 154 -105 204 -131 233 -122 12 3 115 55 228 115 239 127 372
187 565 257 385 139 718 225 1187 309 294 52 678 32 1133 -61 187 -38 266 -60
543 -152 142 -46 262 -84 269 -84 100 0 -409 268 -741 391 -165 61 -486 128
-905 188 -336 49 -470 56 -642 37 -400 -47 -979 -194 -1365 -348 -169 -68
-281 -106 -344 -119 -53 -10 -64 -9 -86 5 -33 22 -35 81 -3 122 183 235 1103
565 1858 666 l175 23 -90 6 c-220 16 -563 5 -810 -27 -368 -47 -752 -152
-1145 -314 -430 -178 -467 -189 -545 -170 -131 32 -454 22 -715 -21 -244 -41
-517 -151 -810 -327 -296 -177 -510 -371 -668 -604 l-93 -137 54 -108 c79
-158 105 -230 134 -366 22 -107 24 -140 21 -267 -4 -129 -8 -155 -36 -240 -37
-110 -97 -218 -131 -233 -33 -16 -47 7 -55 89 -13 129 -90 300 -228 505 -141
212 -307 357 -553 485 -220 114 -413 166 -618 165 -154 -1 -234 -22 -387 -102
-217 -113 -373 -284 -539 -590 -57 -103 -104 -163 -124 -156 -23 8 -12 171 18
262 86 263 293 550 490 680 194 128 424 218 665 259 149 26 210 42 210 56 0
41 -310 35 -534 -10 -135 -28 -232 -58 -474 -147 -259 -95 -329 -112 -477
-119 -168 -9 -636 12 -732 32 -184 38 -503 201 -746 382 -103 76 -284 251
-410 395 -76 86 -114 103 -102 45 45 -206 485 -691 842 -926 194 -128 356
-202 681 -310 218 -73 272 -99 272 -132 0 -10 -11 -64 -24 -120 -69 -284 -52
-545 54 -791 94 -220 287 -424 519 -547 192 -103 401 -110 643 -22 189 68 381
225 449 365 29 62 33 79 33 150 0 63 -6 93 -27 143 -79 191 -243 320 -417 330
-85 5 -145 -8 -184 -39 -24 -19 -26 -23 -13 -36 8 -9 48 -19 90 -23 157 -18
247 -108 247 -246 0 -127 -111 -220 -261 -218 -94 0 -173 41 -262 133 -190
197 -181 427 26 665 226 261 726 128 921 -244 63 -119 104 -329 91 -460 -30
-306 -178 -495 -536 -684 -338 -178 -662 -192 -977 -41 -238 114 -490 335
-639 562 -116 176 -167 337 -192 608 -16 163 -31 255 -46 285 -10 19 -29 31
-77 44 -134 40 -541 263 -846 463 -782 514 -1280 1119 -1531 1858 -39 115
-121 426 -121 458 0 9 -5 19 -11 23 -9 5 -10 -52 -6 -217z"/>
</g>
</svg>
