<?xml version="1.0" standalone="no"?>
<!DOCTYPE svg PUBLIC "-//W3C//DTD SVG 20010904//EN"
 "http://www.w3.org/TR/2001/REC-SVG-20010904/DTD/svg10.dtd">
<svg version="1.0" xmlns="http://www.w3.org/2000/svg"
 width="1280.000000pt" height="1242.000000pt" viewBox="0 0 1280.000000 1242.000000"
 preserveAspectRatio="xMidYMid meet">
<metadata>
Created by potrace 1.15, written by Peter Selinger 2001-2017
</metadata>
<g transform="translate(0.000000,1242.000000) scale(0.100000,-0.100000)"
fill="#000000" stroke="none">
<path d="M7167 11341 c-17 -77 -87 -236 -122 -276 -16 -19 -16 -18 0 8 9 16
15 30 13 32 -2 2 -46 -30 -98 -72 -303 -241 -500 -323 -778 -323 -239 1 -425
67 -687 244 -66 44 -122 83 -125 86 -3 3 -20 16 -39 29 -34 24 -34 21 1 -34
l20 -30 -25 28 c-36 42 -102 173 -127 249 -19 60 -24 67 -43 63 -12 -3 -80
-18 -152 -34 -250 -57 -485 -126 -735 -218 -69 -26 -126 -47 -127 -48 -2 -1 6
-27 17 -58 90 -255 48 -554 -108 -784 -47 -70 -139 -173 -154 -173 -6 0 -5 8
3 18 10 12 7 11 -11 -4 -91 -75 -216 -128 -390 -166 -85 -19 -128 -21 -405
-20 -310 1 -310 1 -270 -18 58 -27 36 -24 -42 5 -90 34 -179 85 -254 145 l-62
50 -40 -33 c-71 -55 -403 -385 -493 -488 l-86 -99 28 -22 c54 -40 160 -153
201 -213 249 -368 204 -825 -111 -1141 -235 -234 -591 -345 -926 -288 -152 27
-136 34 -176 -86 -43 -131 -97 -326 -124 -450 -18 -80 -70 -361 -70 -381 0 -4
27 -9 59 -13 97 -11 200 -44 316 -101 433 -211 638 -668 494 -1100 -101 -302
-366 -542 -689 -625 -47 -12 -87 -24 -89 -25 -3 -4 66 -261 98 -360 19 -59 20
-60 52 -57 19 2 122 4 229 5 186 1 199 0 285 -27 205 -62 317 -128 455 -266
190 -190 273 -382 273 -630 0 -250 -79 -440 -262 -632 l-93 -98 88 -102 c126
-146 347 -371 484 -493 l117 -104 24 26 c95 103 314 230 469 272 304 82 634
32 887 -136 145 -96 302 -284 356 -429 51 -136 61 -190 61 -339 -1 -123 -4
-151 -28 -228 -14 -49 -35 -106 -46 -127 -19 -37 -19 -40 -3 -49 10 -5 113
-41 228 -79 216 -72 435 -133 632 -175 l112 -24 17 56 c42 146 157 321 282
429 129 112 304 197 477 233 114 24 323 25 427 4 289 -60 519 -212 669 -443
50 -76 101 -196 119 -278 6 -27 12 -54 14 -60 8 -22 405 46 719 123 156 39
187 49 182 62 -43 110 -57 321 -30 452 60 301 269 552 565 680 126 54 236 79
381 86 313 15 603 -95 810 -307 l76 -78 131 98 c212 158 468 377 616 529 l60
61 -59 57 c-196 193 -287 426 -272 696 8 139 25 205 87 332 135 277 388 465
725 537 35 7 123 12 210 12 128 0 165 -4 251 -27 56 -14 107 -27 114 -29 28
-7 201 465 269 739 12 45 21 86 21 91 0 6 -32 20 -70 31 -205 63 -418 218
-538 393 -48 70 -100 181 -124 265 -19 66 -23 102 -23 233 0 131 4 167 23 233
76 265 269 483 535 607 82 38 215 80 255 80 11 0 23 4 27 9 13 21 -58 386
-119 608 -59 216 -148 471 -238 678 -17 39 -32 72 -34 74 -1 1 -39 -9 -83 -24
-216 -72 -476 -74 -690 -5 -348 111 -605 389 -668 725 -21 108 -13 292 17 395
44 154 151 326 268 430 l56 50 -30 31 c-102 108 -420 379 -602 513 l-93 68
-58 -55 c-68 -65 -179 -140 -198 -133 -7 3 -12 1 -10 -5 1 -5 -17 -18 -40 -29
-53 -24 -56 -18 -5 10 l37 21 -111 -5 c-61 -3 -144 -11 -185 -18 -42 -7 -158
-13 -269 -13 -182 0 -202 2 -294 28 -172 48 -320 131 -429 242 -21 22 -36 34
-32 28 3 -7 4 -13 0 -13 -11 0 -98 143 -123 203 -66 162 -89 361 -58 506 9 41
15 76 13 77 -6 7 -267 76 -387 103 -157 35 -532 101 -574 101 -1 0 -9 -35 -19
-79z m-1792 -361 c10 -11 16 -20 13 -20 -3 0 -13 9 -23 20 -10 11 -16 20 -13
20 3 0 13 -9 23 -20z m1625 16 c0 -2 -8 -10 -17 -17 -16 -13 -17 -12 -4 4 13
16 21 21 21 13z m1443 -693 c29 -26 43 -41 32 -33 -37 27 -155 144 -155 155 0
5 16 -9 36 -32 19 -23 59 -64 87 -90z m117 -90 c0 -7 -39 17 -46 28 -3 6 5 3
20 -6 14 -10 26 -19 26 -22z m50 -29 c0 -2 -9 0 -20 6 -11 6 -20 13 -20 16 0
2 9 0 20 -6 11 -6 20 -13 20 -16z m-4725 -164 c-9 -14 -105 -84 -135 -99 -21
-9 -22 -9 -6 1 10 7 46 34 80 60 67 51 70 53 61 38z m-165 -115 c0 -6 -97 -55
-107 -55 -4 1 17 14 47 30 61 32 60 32 60 25z m2617 -2611 c-3 -3 -12 -4 -19
-1 -8 3 -5 6 6 6 11 1 17 -2 13 -5z m136 -1 c-13 -2 -33 -2 -45 0 -13 2 -3 4
22 4 25 0 35 -2 23 -4z m84 -9 c-3 -3 -12 -4 -19 -1 -8 3 -5 6 6 6 11 1 17 -2
13 -5z m93 -50 c182 -38 357 -122 498 -241 122 -103 216 -223 279 -358 71
-151 87 -224 87 -415 0 -141 -3 -177 -23 -250 -21 -80 -108 -275 -135 -303 -6
-6 -23 -28 -36 -47 -13 -19 -39 -51 -57 -70 -18 -19 -33 -38 -33 -42 0 -9
-165 -138 -225 -175 -102 -64 -235 -116 -385 -149 -92 -20 -322 -23 -430 -5
-237 39 -471 164 -638 343 -137 147 -216 302 -257 507 -23 112 -17 301 14 421
22 84 125 310 142 310 5 0 9 4 9 10 0 11 15 30 72 94 21 22 38 44 38 47 0 11
145 126 211 167 143 91 315 151 489 173 88 10 288 2 380 -17z m-383 -2100 c-3
-3 -12 -4 -19 -1 -8 3 -5 6 6 6 11 1 17 -2 13 -5z m106 -11 c-13 -2 -33 -2
-45 0 -13 2 -3 4 22 4 25 0 35 -2 23 -4z m114 1 c-3 -3 -12 -4 -19 -1 -8 3 -5
6 6 6 11 1 17 -2 13 -5z"/>
<path d="M10817 8229 c7 -7 15 -10 18 -7 3 3 -2 9 -12 12 -14 6 -15 5 -6 -5z"/>
<path d="M10870 8205 c14 -8 30 -14 35 -14 6 0 -1 6 -15 14 -14 8 -29 14 -35
14 -5 0 1 -6 15 -14z"/>
<path d="M10935 8180 c27 -12 43 -12 25 0 -8 5 -22 9 -30 9 -10 0 -8 -3 5 -9z"/>
<path d="M10988 8163 c7 -3 16 -2 19 1 4 3 -2 6 -13 5 -11 0 -14 -3 -6 -6z"/>
<path d="M11028 8153 c7 -3 16 -2 19 1 4 3 -2 6 -13 5 -11 0 -14 -3 -6 -6z"/>
<path d="M11068 8143 c7 -3 16 -2 19 1 4 3 -2 6 -13 5 -11 0 -14 -3 -6 -6z"/>
</g>
</svg>
