<?xml version="1.0" standalone="no"?>
<!DOCTYPE svg PUBLIC "-//W3C//DTD SVG 20010904//EN"
 "http://www.w3.org/TR/2001/REC-SVG-20010904/DTD/svg10.dtd">
<svg version="1.0" xmlns="http://www.w3.org/2000/svg"
 width="1125.000000pt" height="1280.000000pt" viewBox="0 0 1125.000000 1280.000000"
 preserveAspectRatio="xMidYMid meet">
<metadata>
Created by potrace 1.15, written by Peter Selinger 2001-2017
</metadata>
<g transform="translate(0.000000,1280.000000) scale(0.100000,-0.100000)"
fill="#000000" stroke="none">
<path d="M5501 12785 c-436 -95 -789 -692 -1065 -1800 -130 -524 -247 -1213
-321 -1892 -4 -35 -8 -63 -10 -63 -2 0 -88 36 -192 81 -1024 441 -1910 720
-2593 816 -181 25 -601 25 -719 0 -179 -39 -310 -100 -408 -192 -78 -72 -123
-142 -161 -247 -22 -63 -26 -89 -26 -193 0 -139 21 -237 85 -394 236 -578
1061 -1424 2281 -2339 l218 -163 -138 -101 c-548 -402 -1105 -872 -1502 -1268
-532 -530 -826 -949 -921 -1316 -34 -131 -33 -301 3 -402 38 -106 83 -175 162
-249 99 -91 226 -151 407 -190 120 -26 527 -26 719 0 658 89 1551 368 2558
801 123 53 225 96 227 96 2 0 6 -28 10 -62 56 -514 145 -1089 236 -1523 227
-1079 532 -1780 888 -2044 323 -239 674 -169 968 194 130 161 296 484 399 778
228 651 396 1461 515 2472 11 99 22 181 23 183 2 1 104 -41 227 -94 1008 -433
1901 -712 2559 -801 192 -26 599 -26 719 0 181 39 308 99 407 190 79 74 124
143 162 249 36 101 37 271 3 402 -95 367 -389 786 -921 1316 -397 396 -954
866 -1502 1268 l-138 101 218 163 c1220 915 2045 1761 2281 2339 64 157 85
255 85 394 0 104 -4 130 -26 193 -38 105 -83 175 -161 247 -98 92 -229 153
-408 192 -118 25 -538 25 -719 0 -684 -96 -1569 -375 -2594 -816 -104 -45
-190 -80 -191 -79 -2 2 -13 84 -24 183 -171 1458 -464 2571 -823 3122 -231
355 -507 510 -797 448z m202 -516 c88 -58 181 -187 285 -394 259 -519 479
-1427 622 -2566 47 -383 57 -502 40 -507 -8 -3 -242 -119 -520 -258 l-505
-254 -520 261 -519 261 2 36 c2 21 17 154 33 297 157 1363 428 2425 746 2920
94 145 192 235 258 235 19 0 51 -13 78 -31z m-4453 -2835 c633 -81 1549 -376
2600 -836 113 -50 206 -91 207 -92 2 -1 -4 -83 -12 -182 -8 -98 -21 -318 -30
-489 -9 -170 -18 -351 -21 -402 l-6 -92 -161 -103 c-194 -122 -519 -336 -681
-447 -65 -45 -122 -81 -128 -81 -20 0 -469 335 -768 574 -1049 837 -1718 1598
-1748 1988 -4 64 -3 68 25 97 34 34 134 68 240 81 91 12 330 4 483 -16z m9221
16 c119 -14 215 -45 252 -81 28 -29 29 -33 25 -97 -30 -390 -699 -1151 -1748
-1988 -299 -239 -748 -574 -768 -574 -6 0 -63 36 -128 81 -162 111 -487 325
-681 447 l-161 103 -6 92 c-3 51 -10 196 -17 322 -6 127 -19 347 -29 490 -11
142 -18 260 -17 261 7 5 440 193 582 252 1182 490 2193 750 2696 692z m-5381
-1452 c0 -3 -35 -25 -77 -49 -43 -23 -169 -96 -281 -161 -112 -66 -210 -122
-218 -125 -13 -5 -14 7 -10 78 3 46 10 163 16 259 6 96 13 198 16 227 l5 52
275 -137 c151 -75 274 -140 274 -144z m1635 60 c28 -427 27 -401 11 -395 -8 3
-106 59 -218 125 -112 65 -238 138 -280 161 -43 24 -78 46 -78 49 0 8 543 282
548 277 2 -2 10 -99 17 -217z m-967 -409 c285 -160 540 -306 767 -441 l240
-143 6 -140 c8 -181 8 -869 0 -1050 l-6 -140 -265 -158 c-146 -87 -386 -226
-535 -309 -148 -83 -286 -160 -305 -171 l-35 -20 -296 166 c-163 91 -419 239
-570 329 l-274 163 -6 130 c-9 168 -9 902 0 1070 l6 130 240 143 c293 174 882
510 898 511 4 1 64 -31 135 -70z m-1778 -1250 c0 -296 -2 -340 -15 -336 -26
11 -505 330 -505 337 0 8 501 340 513 340 4 0 7 -153 7 -341z m3564 170 c135
-89 246 -165 246 -169 0 -7 -479 -327 -505 -337 -13 -4 -15 40 -15 337 0 289
2 341 14 337 8 -3 125 -79 260 -168z m-4200 -692 c177 -118 394 -260 483 -316
l161 -102 6 -92 c3 -51 10 -193 16 -317 12 -248 37 -627 46 -706 l6 -50 -39
-16 c-21 -9 -121 -52 -222 -97 -689 -304 -1407 -560 -1951 -696 -572 -144
-984 -179 -1226 -104 -91 28 -124 61 -124 126 1 422 874 1364 2145 2314 337
252 359 268 369 269 5 0 153 -96 330 -213z m5065 91 c631 -463 1098 -854 1518
-1270 530 -523 822 -947 823 -1191 0 -40 -5 -54 -28 -77 -61 -60 -262 -97
-477 -86 -603 31 -1466 278 -2549 731 -136 56 -497 214 -503 219 -1 1 6 119
17 261 10 143 23 364 29 490 7 127 14 271 17 322 l6 92 216 138 c120 75 336
217 482 315 146 98 269 178 274 178 5 0 83 -55 175 -122z m-3651 -971 c136
-79 266 -154 290 -167 23 -13 42 -26 42 -29 0 -4 -123 -68 -274 -143 l-275
-137 -5 52 c-3 29 -10 131 -16 227 -6 96 -13 212 -16 258 -3 45 -2 82 1 82 3
0 117 -64 253 -143z m1988 66 c-3 -43 -10 -159 -16 -258 -6 -99 -13 -203 -16
-232 l-5 -52 -275 137 c-151 75 -274 139 -274 142 0 3 66 44 148 90 81 46 210
121 287 167 77 45 144 82 148 83 5 0 6 -35 3 -77z m-616 -807 c278 -139 512
-255 520 -258 17 -5 7 -124 -40 -507 -162 -1289 -424 -2284 -727 -2756 -94
-145 -192 -235 -258 -235 -66 0 -164 90 -258 235 -318 495 -589 1556 -746
2920 -16 143 -31 276 -33 297 l-2 36 514 260 c283 143 517 260 520 261 3 0
232 -113 510 -253z"/>
<path d="M5542 7228 c-288 -24 -560 -218 -678 -484 -52 -119 -68 -199 -68
-344 0 -145 16 -225 68 -344 103 -233 336 -419 589 -472 81 -17 248 -19 327
-4 233 44 445 194 565 397 185 317 141 723 -107 989 -182 194 -423 285 -696
262z m226 -523 c205 -94 258 -370 104 -534 -69 -73 -145 -105 -247 -106 -71 0
-88 4 -147 33 -73 36 -124 87 -160 161 -30 61 -37 180 -14 248 34 102 138 198
240 222 64 16 160 5 224 -24z"/>
</g>
</svg>
