<?xml version="1.0" standalone="no"?>
<!DOCTYPE svg PUBLIC "-//W3C//DTD SVG 20010904//EN"
 "http://www.w3.org/TR/2001/REC-SVG-20010904/DTD/svg10.dtd">
<svg version="1.0" xmlns="http://www.w3.org/2000/svg"
 width="1280.000000pt" height="1280.000000pt" viewBox="0 0 1280.000000 1280.000000"
 preserveAspectRatio="xMidYMid meet">
<metadata>
Created by potrace 1.15, written by Peter Selinger 2001-2017
</metadata>
<g transform="translate(0.000000,1280.000000) scale(0.100000,-0.100000)"
fill="#000000" stroke="none">
<path d="M6033 12790 c-409 -27 -913 -104 -973 -149 -61 -44 -60 -36 -60 -519
l-1 -443 -22 -9 c-12 -4 -98 -31 -192 -60 -190 -58 -383 -128 -555 -203 -136
-58 -420 -199 -505 -250 l-60 -36 -310 308 c-170 170 -320 314 -332 320 -30
15 -97 14 -136 -3 -41 -17 -256 -171 -412 -295 -394 -312 -817 -735 -1126
-1126 -186 -235 -297 -397 -309 -450 -18 -78 -10 -88 325 -425 l314 -315 -36
-60 c-51 -86 -192 -370 -250 -505 -75 -172 -145 -365 -203 -555 -29 -93 -56
-180 -60 -192 l-9 -22 -443 -1 c-485 0 -474 1 -521 -62 -34 -46 -98 -426 -134
-793 -24 -252 -24 -838 0 -1090 36 -367 100 -748 135 -794 46 -62 36 -61 520
-61 l443 -1 9 -22 c4 -12 31 -98 60 -192 58 -190 128 -383 203 -555 58 -136
199 -420 250 -505 l36 -60 -308 -310 c-170 -170 -314 -320 -320 -332 -15 -30
-14 -97 3 -136 17 -41 171 -256 295 -412 312 -394 735 -817 1126 -1126 235
-186 397 -297 450 -309 78 -18 88 -10 425 325 l315 314 60 -36 c86 -51 370
-192 505 -250 172 -75 365 -145 555 -203 94 -29 180 -56 192 -60 l22 -9 1
-443 c0 -485 -1 -474 62 -521 46 -34 426 -98 793 -134 252 -24 838 -24 1090 0
367 36 748 100 794 135 62 46 61 36 61 520 l1 443 22 9 c12 4 99 31 192 60
190 58 383 128 555 203 136 58 420 199 505 250 l60 36 310 -308 c171 -170 320
-314 332 -320 30 -15 97 -14 136 3 41 17 256 171 412 295 394 312 817 735
1126 1126 186 235 297 397 309 450 18 78 10 88 -325 425 l-314 315 36 60 c51
86 192 370 250 505 75 172 145 365 203 555 29 94 56 180 60 192 l9 22 443 1
c485 0 474 -1 521 62 34 46 98 426 134 793 24 252 24 838 0 1090 -36 367 -100
748 -135 794 -46 62 -36 61 -520 61 l-443 1 -9 22 c-4 12 -31 99 -60 192 -58
190 -128 383 -203 555 -58 136 -199 420 -250 505 l-36 60 308 310 c170 171
314 320 320 332 15 30 14 97 -3 136 -17 41 -171 256 -295 412 -312 394 -735
817 -1126 1126 -235 186 -397 297 -450 309 -78 18 -88 10 -425 -325 l-315
-314 -60 36 c-86 51 -370 192 -505 250 -172 75 -365 145 -555 203 -93 29 -180
56 -192 60 l-22 9 -1 443 c0 485 1 474 -62 521 -46 34 -432 99 -783 132 -200
19 -733 27 -922 15z m660 -3441 c1017 -92 1935 -737 2383 -1674 170 -355 261
-715 283 -1118 41 -739 -194 -1457 -668 -2037 -471 -578 -1145 -953 -1901
-1060 -208 -29 -572 -29 -780 0 -660 93 -1242 382 -1705 845 -463 463 -752
1045 -845 1705 -29 208 -29 572 0 780 107 756 482 1430 1060 1901 619 505
1364 731 2173 658z"/>
</g>
</svg>
