<?xml version="1.0" standalone="no"?>
<!DOCTYPE svg PUBLIC "-//W3C//DTD SVG 20010904//EN"
 "http://www.w3.org/TR/2001/REC-SVG-20010904/DTD/svg10.dtd">
<svg version="1.0" xmlns="http://www.w3.org/2000/svg"
 width="1280.000000pt" height="1269.000000pt" viewBox="0 0 1280.000000 1269.000000"
 preserveAspectRatio="xMidYMid meet">
<metadata>
Created by potrace 1.15, written by Peter Selinger 2001-2017
</metadata>
<g transform="translate(0.000000,1269.000000) scale(0.100000,-0.100000)"
fill="#000000" stroke="none">
<path d="M6070 12680 c-178 -6 -277 -16 -580 -57 l-365 -51 -392 -106 c-392
-106 -393 -106 -770 -260 -376 -154 -379 -155 -723 -351 -329 -189 -360 -209
-675 -443 -322 -239 -337 -252 -609 -516 -265 -258 -291 -286 -539 -596 -257
-319 -265 -331 -472 -670 -207 -339 -214 -352 -376 -715 -151 -337 -173 -393
-243 -625 -43 -140 -95 -311 -116 -380 -38 -122 -56 -212 -139 -705 -39 -230
-41 -256 -56 -640 l-16 -400 41 -399 c22 -220 45 -418 50 -440 5 -23 48 -196
94 -386 l86 -345 150 -375 c109 -273 198 -472 323 -730 l174 -355 296 -3 c163
-1 297 1 297 6 0 4 -75 154 -166 333 -100 196 -230 472 -328 699 l-163 375
-106 385 -105 385 -39 395 -40 395 23 410 23 410 75 393 76 392 130 389 c130
388 131 390 309 757 176 364 181 374 394 699 216 328 217 330 484 635 l267
305 307 261 306 262 342 217 343 218 371 167 372 168 390 117 390 117 390 60
390 61 420 4 420 5 340 -46 c187 -26 370 -51 407 -56 37 -6 243 -60 458 -121
l391 -111 374 -164 374 -164 348 -218 348 -217 305 -257 306 -256 270 -304
c267 -300 272 -307 495 -638 l226 -335 178 -364 177 -364 129 -386 129 -386
75 -400 74 -400 20 -405 20 -405 -44 -405 c-41 -376 -47 -417 -89 -570 -24
-91 -70 -259 -101 -375 -50 -186 -74 -253 -212 -580 -103 -245 -216 -490 -334
-727 -99 -197 -179 -360 -179 -363 0 -3 143 -5 318 -5 l317 0 173 383 c153
340 227 523 412 1012 33 85 82 262 144 510 l94 380 36 390 36 390 -21 395 -21
395 -79 410 c-46 238 -93 454 -113 515 -18 58 -74 233 -125 390 -84 264 -104
313 -262 655 -165 358 -177 381 -387 720 -204 331 -230 368 -470 670 -245 309
-264 330 -545 606 -288 282 -296 289 -612 525 -315 235 -326 242 -674 437
l-354 198 -386 148 -386 148 -400 96 -400 96 -400 46 c-435 49 -527 52 -1095
35z"/>
<path d="M6266 11363 c-3 -197 -11 -605 -16 -908 -6 -302 -14 -802 -20 -1110
-5 -308 -14 -819 -20 -1135 -6 -316 -15 -825 -20 -1130 -5 -305 -15 -814 -20
-1130 -6 -316 -15 -816 -20 -1110 -5 -294 -14 -830 -20 -1190 -6 -360 -13
-715 -16 -788 l-6 -132 -2474 2 c-1361 2 -2474 2 -2474 1 0 -7 196 -251 412
-513 227 -275 262 -312 533 -570 l290 -275 335 -236 335 -236 360 -186 c352
-182 369 -189 730 -322 l370 -137 390 -89 390 -90 405 -40 405 -40 409 11 408
11 397 59 396 58 385 106 385 106 375 157 375 157 345 205 345 206 295 238
c369 299 731 647 1144 1100 155 170 282 312 284 316 1 3 -1120 6 -2490 6
l-2493 0 -3 400 -2 400 1817 349 c1000 192 1936 372 2080 399 l261 51 -248
255 c-226 233 -270 284 -488 570 -231 303 -246 326 -440 660 -294 508 -503
939 -677 1396 -73 193 -138 364 -145 380 -6 17 -56 210 -110 430 l-99 400 -46
384 c-60 500 -80 940 -69 1574 3 229 4 417 0 417 -3 0 -437 -203 -963 -451
-527 -248 -965 -453 -974 -456 -18 -5 -21 63 -39 1007 -5 283 -13 584 -16 668
l-6 152 -118 0 -117 0 -7 -357z"/>
<path d="M5845 10351 c-6 -5 -102 -70 -215 -143 -113 -74 -344 -232 -515 -353
-283 -200 -336 -243 -607 -485 l-297 -265 -258 -310 c-246 -294 -269 -327
-475 -645 -189 -294 -239 -379 -400 -695 -102 -198 -206 -414 -231 -480 -25
-66 -90 -237 -145 -380 -93 -244 -105 -285 -195 -655 l-96 -395 -36 -375 -37
-375 4 -430 c4 -402 42 -1185 58 -1185 15 0 2385 1151 2388 1159 2 6 -24 133
-57 283 -97 438 -98 445 -150 838 l-49 375 -7 393 -6 392 46 408 c39 353 52
437 96 632 127 564 131 577 272 960 135 365 135 366 323 720 143 270 236 432
392 675 112 176 209 326 214 333 12 14 -3 17 -17 3z"/>
</g>
</svg>
