<?xml version="1.0" standalone="no"?>
<!DOCTYPE svg PUBLIC "-//W3C//DTD SVG 20010904//EN"
 "http://www.w3.org/TR/2001/REC-SVG-20010904/DTD/svg10.dtd">
<svg version="1.0" xmlns="http://www.w3.org/2000/svg"
 width="1280.000000pt" height="1141.000000pt" viewBox="0 0 1280.000000 1141.000000"
 preserveAspectRatio="xMidYMid meet">
<metadata>
Created by potrace 1.15, written by Peter Selinger 2001-2017
</metadata>
<g transform="translate(0.000000,1141.000000) scale(0.100000,-0.100000)"
fill="#000000" stroke="none">
<path d="M8845 11404 c-368 -54 -651 -147 -1044 -343 -363 -182 -682 -390
-1036 -675 -187 -150 -521 -481 -648 -642 -328 -415 -491 -809 -523 -1262 l-7
-93 -36 88 c-209 507 -613 869 -1450 1304 -97 50 -297 154 -445 231 -357 184
-493 273 -589 386 -98 116 -146 225 -187 431 -15 79 -33 148 -38 153 -17 17
-38 3 -85 -57 -171 -218 -292 -591 -354 -1085 -25 -208 -25 -874 0 -1105 119
-1073 429 -1791 956 -2213 53 -42 107 -85 121 -94 24 -16 20 -17 -100 -11
-224 10 -433 -21 -671 -101 -344 -115 -656 -280 -1200 -633 -342 -223 -428
-277 -529 -333 -192 -109 -324 -150 -479 -150 -113 0 -162 10 -333 67 -75 25
-145 43 -154 39 -23 -9 -14 -48 36 -151 99 -202 283 -421 525 -626 764 -646
1980 -1138 2811 -1139 297 0 620 67 863 181 46 21 85 39 87 39 1 0 -22 -39
-53 -87 -170 -271 -254 -535 -300 -943 -20 -188 -23 -721 -5 -1020 46 -743 35
-921 -70 -1123 -46 -88 -142 -196 -268 -303 -43 -36 -81 -73 -84 -81 -10 -24
57 -43 177 -50 575 -30 1486 374 2267 1008 551 447 922 921 1079 1381 41 120
85 303 96 398 3 30 8 72 12 94 l5 39 55 -109 c243 -485 665 -820 1663 -1319
533 -267 708 -383 814 -543 72 -109 109 -212 141 -391 18 -104 30 -141 44
-141 18 0 76 70 133 160 166 265 274 684 309 1205 16 225 5 713 -20 935 -91
797 -292 1398 -612 1823 -99 132 -269 302 -397 397 -55 41 -99 76 -98 78 2 1
50 -3 107 -9 206 -23 458 2 674 66 400 119 663 259 1450 767 272 176 418 261
523 307 217 95 400 95 665 0 61 -21 121 -39 135 -39 22 0 24 3 19 34 -7 43
-84 198 -139 279 -370 551 -1308 1146 -2268 1440 -736 226 -1341 218 -1859
-24 -46 -21 -85 -39 -87 -39 -2 0 21 37 50 83 245 376 338 830 322 1567 -3
157 -11 362 -18 455 -6 94 -12 316 -12 495 -1 288 1 333 18 395 51 190 144
320 354 495 77 64 82 77 35 96 -37 16 -278 28 -348 18z m-133 -316 c-88 -118
-156 -280 -187 -439 -18 -96 -21 -313 -6 -444 81 -696 4 -1381 -215 -1939
-139 -352 -378 -729 -619 -978 -83 -86 -277 -221 -390 -274 -286 -132 -705
-112 -1078 50 -132 58 178 -146 348 -229 230 -112 395 -155 594 -155 244 0
355 47 951 399 897 530 1280 639 1890 540 348 -56 737 -181 1120 -358 320
-148 701 -366 854 -487 90 -72 391 -353 384 -359 -2 -2 -37 0 -78 4 -109 10
-262 -3 -376 -33 -137 -36 -290 -115 -479 -249 -644 -453 -1173 -683 -1790
-779 -167 -26 -551 -36 -733 -19 -239 23 -539 88 -692 151 -111 46 -251 126
-322 185 -226 186 -392 516 -440 873 -12 87 -13 92 -20 56 -16 -85 -21 -360
-9 -476 41 -391 164 -635 413 -821 107 -80 184 -126 572 -346 346 -196 527
-307 664 -408 309 -227 512 -453 637 -708 256 -524 384 -1192 385 -2010 0
-207 -9 -323 -36 -460 -17 -89 -78 -341 -96 -394 l-10 -34 -28 64 c-47 111
-117 209 -229 320 -127 126 -214 182 -456 293 -526 242 -925 504 -1258 826
-409 396 -699 871 -846 1385 -29 105 -44 242 -45 415 0 133 3 167 23 240 51
182 143 351 277 510 62 74 228 228 285 264 67 42 12 24 -113 -37 -398 -195
-680 -470 -771 -752 -47 -143 -51 -208 -52 -850 -2 -608 -6 -694 -41 -935 -45
-303 -138 -559 -278 -769 -315 -470 -850 -931 -1542 -1329 -198 -113 -286
-156 -421 -202 -111 -39 -391 -120 -413 -120 -5 0 8 24 30 52 152 200 227 491
201 783 -6 66 -15 170 -21 230 -73 795 65 1559 386 2150 128 235 339 523 476
650 142 132 347 260 487 304 134 42 195 51 350 51 229 0 418 -42 660 -147 38
-17 -10 22 -113 92 -297 199 -594 305 -858 305 -130 0 -216 -18 -347 -72 -126
-52 -204 -95 -579 -315 -489 -288 -715 -401 -976 -488 -220 -73 -479 -113
-641 -100 -396 33 -755 121 -1170 287 -276 110 -752 356 -990 513 -99 64 -267
210 -400 345 -95 97 -98 102 -65 94 19 -4 87 -7 151 -7 256 2 464 78 726 266
693 497 1308 750 1987 818 257 25 679 0 925 -56 136 -31 439 -168 546 -246
252 -185 434 -528 487 -920 12 -90 13 -92 20 -49 15 105 20 349 9 466 -32 324
-127 563 -290 725 -126 125 -216 184 -719 468 -440 249 -593 348 -802 522
-252 209 -409 414 -527 687 -231 535 -345 1216 -330 1975 3 191 9 267 26 360
18 99 90 398 107 447 3 9 15 -9 29 -44 98 -240 305 -442 591 -577 422 -199
592 -290 817 -441 239 -160 400 -291 587 -478 460 -460 757 -1024 876 -1665
42 -227 -32 -490 -208 -740 -71 -102 -243 -278 -336 -345 -34 -24 -60 -46 -58
-48 6 -5 191 84 288 139 279 160 509 393 598 607 69 164 80 301 80 967 -1 569
7 712 49 955 38 219 116 447 207 605 177 306 539 686 949 996 327 247 800 529
1030 614 106 40 418 133 448 134 14 1 10 -10 -21 -51z"/>
</g>
</svg>
