<?xml version="1.0" standalone="no"?>
<!DOCTYPE svg PUBLIC "-//W3C//DTD SVG 20010904//EN"
 "http://www.w3.org/TR/2001/REC-SVG-20010904/DTD/svg10.dtd">
<svg version="1.0" xmlns="http://www.w3.org/2000/svg"
 width="1237.000000pt" height="1280.000000pt" viewBox="0 0 1237.000000 1280.000000"
 preserveAspectRatio="xMidYMid meet">
<metadata>
Created by potrace 1.15, written by Peter Selinger 2001-2017
</metadata>
<g transform="translate(0.000000,1280.000000) scale(0.100000,-0.100000)"
fill="#000000" stroke="none">
<path d="M2098 12773 c-23 -6 -23 -4 11 -141 174 -691 647 -1327 1416 -1907
490 -369 1155 -735 1934 -1066 l174 -74 -59 -16 c-33 -9 -151 -43 -264 -74
-432 -121 -768 -252 -1208 -469 l-154 -75 -121 29 c-541 129 -1069 162 -1487
94 -568 -93 -1048 -340 -1510 -776 -102 -97 -103 -98 -86 -122 16 -25 17 -25
53 -9 21 8 63 28 93 43 82 41 278 122 422 174 710 257 1273 267 1539 28 27
-24 49 -47 49 -51 0 -5 -53 -48 -117 -97 -374 -283 -645 -542 -868 -829 l-95
-123 -179 -60 c-586 -198 -902 -371 -1171 -641 -189 -190 -333 -423 -428 -691
-17 -47 -33 -92 -36 -101 -5 -11 2 -19 21 -28 25 -12 29 -11 43 10 246 376
539 636 820 730 148 49 334 52 453 7 32 -12 33 -22 8 -82 -36 -84 -112 -350
-141 -496 -42 -210 -60 -385 -67 -640 l-6 -225 -103 -98 c-379 -360 -576 -812
-662 -1527 -32 -258 -36 -331 -20 -341 30 -19 47 -9 58 34 6 23 33 114 61 202
124 389 265 661 429 825 104 104 206 160 296 160 31 0 32 -2 43 -62 60 -318
195 -738 335 -1042 20 -43 36 -83 36 -88 0 -5 -23 -35 -51 -66 -221 -249 -351
-579 -405 -1032 -22 -179 -24 -639 -5 -905 15 -218 15 -217 49 -213 24 3 27 7
29 48 16 312 61 621 124 842 95 338 232 560 424 689 48 33 164 85 170 77 5 -7
684 -1063 805 -1253 142 -222 191 -320 240 -480 64 -206 88 -374 97 -668 l6
-197 3116 2 3116 3 13 80 c19 123 27 463 13 585 -29 247 -93 464 -206 695
-134 275 -278 469 -544 735 -239 238 -454 410 -796 634 -329 216 -601 367
-1421 789 -604 311 -850 457 -1012 601 -289 256 -509 666 -589 1101 -22 122
-22 363 1 465 47 209 169 502 289 692 146 231 352 458 552 606 104 77 365 222
401 222 25 0 243 -199 311 -285 89 -112 128 -201 228 -510 114 -352 170 -497
260 -680 257 -523 656 -904 1448 -1379 197 -118 234 -136 356 -172 180 -52
373 -50 731 9 l195 32 0 29 c0 28 -4 30 -60 43 -33 8 -145 27 -249 44 -104 16
-191 31 -194 33 -2 3 12 12 31 21 58 27 163 121 210 187 34 47 97 166 97 182
0 1 -48 -22 -107 -51 -138 -68 -228 -88 -373 -80 -58 2 -143 15 -190 27 -78
20 -305 108 -298 115 2 2 48 18 103 35 196 62 425 164 425 189 0 34 -15 38
-180 44 -261 10 -483 56 -595 122 -72 42 -208 213 -275 344 -20 40 -20 43 -3
37 92 -36 262 -32 481 9 l152 29 0 28 c0 22 -6 29 -27 34 -299 67 -701 280
-873 461 -60 62 -91 109 -156 228 -155 284 -220 428 -289 640 -41 123 -90 323
-82 331 2 2 355 -344 784 -768 906 -898 1031 -1011 1378 -1242 470 -313 873
-477 1375 -561 451 -76 574 -134 830 -394 131 -134 147 -147 168 -138 12 6 22
15 22 22 0 6 -15 51 -34 99 -114 289 -305 466 -615 570 -56 19 -105 37 -108
40 -8 8 108 -2 242 -20 238 -32 442 -105 669 -236 l68 -40 21 20 20 21 -41 49
c-146 174 -337 308 -527 370 -168 55 -257 65 -610 68 -245 1 -341 6 -410 18
-389 71 -717 217 -1065 474 -222 164 -943 914 -1287 1339 -175 215 -454 603
-434 603 26 0 220 -77 341 -136 207 -100 342 -195 491 -343 74 -75 147 -159
178 -206 58 -89 129 -232 156 -313 16 -51 19 -53 48 -50 31 3 32 5 40 63 5 33
6 137 3 230 -4 137 -9 189 -29 266 -27 104 -74 229 -113 298 l-24 43 38 -6
c62 -11 192 -81 277 -149 109 -88 290 -277 403 -423 108 -137 316 -445 417
-617 l70 -118 6 108 c19 334 2 588 -56 817 -8 28 -7 28 26 21 19 -4 70 -19
114 -32 332 -104 551 -315 785 -757 34 -64 64 -116 67 -116 12 0 96 198 114
271 38 150 18 331 -53 472 -10 20 -15 37 -11 37 26 0 156 -60 221 -102 201
-131 320 -312 553 -835 50 -114 69 -143 69 -109 0 21 98 420 126 514 13 45 30
82 37 82 46 0 120 -83 167 -185 51 -113 89 -313 90 -466 0 -68 6 -79 46 -79
16 0 48 67 98 208 134 377 160 680 79 936 -61 195 -165 358 -343 537 -135 136
-222 205 -389 306 -151 92 -247 136 -586 272 -704 280 -1012 438 -1086 558
-23 37 -23 39 16 131 70 168 43 314 -89 473 -30 37 -126 130 -213 207 -185
164 -267 247 -629 637 -555 598 -773 795 -1174 1060 -278 184 -442 269 -695
364 -476 177 -1190 280 -1693 245 -86 -7 -91 -8 -97 -32 -3 -13 -5 -26 -3 -28
2 -1 72 -14 156 -29 910 -154 1714 -502 2010 -869 174 -216 181 -409 22 -588
-87 -98 -220 -167 -380 -199 -96 -19 -380 -17 -520 5 -588 89 -1522 414 -2260
787 -1052 531 -1765 1166 -2206 1966 -16 29 -33 52 -39 52 -5 -1 -18 -3 -27
-6z m6172 -3408 c220 -18 452 -141 571 -301 41 -55 142 -234 136 -240 -2 -2
-28 6 -58 18 -44 17 -85 22 -214 27 -219 9 -230 14 -466 238 -123 116 -205
182 -278 225 l-44 26 44 6 c99 13 160 14 309 1z m3145 -1826 c86 -24 214 -128
254 -208 12 -22 21 -42 21 -44 0 -12 -144 25 -189 47 -28 15 -94 68 -148 121
l-98 94 60 1 c33 0 78 -5 100 -11z"/>
</g>
</svg>
