<?xml version="1.0" standalone="no"?>
<!DOCTYPE svg PUBLIC "-//W3C//DTD SVG 20010904//EN"
 "http://www.w3.org/TR/2001/REC-SVG-20010904/DTD/svg10.dtd">
<svg version="1.0" xmlns="http://www.w3.org/2000/svg"
 width="1032.000000pt" height="1280.000000pt" viewBox="0 0 1032.000000 1280.000000"
 preserveAspectRatio="xMidYMid meet">
<metadata>
Created by potrace 1.15, written by Peter Selinger 2001-2017
</metadata>
<g transform="translate(0.000000,1280.000000) scale(0.100000,-0.100000)"
fill="#000000" stroke="none">
<path d="M5766 12775 c-16 -62 -62 -141 -160 -274 -120 -162 -176 -270 -212
-407 -23 -87 -27 -119 -27 -264 -1 -176 10 -245 60 -405 29 -92 96 -240 147
-324 20 -33 36 -72 36 -89 0 -16 11 -50 25 -73 14 -25 25 -60 25 -81 0 -20 13
-77 30 -126 82 -244 102 -626 66 -1267 -5 -86 -25 -172 -40 -168 -4 1 -34 40
-68 85 -34 46 -125 162 -202 258 -222 275 -226 281 -291 475 -94 277 -90 338
42 592 46 90 80 163 75 163 -32 0 -172 -124 -244 -218 -39 -50 -43 -61 -65
-190 -13 -75 -27 -190 -30 -254 l-6 -117 56 -114 c32 -65 130 -225 232 -377
185 -277 243 -382 269 -491 25 -103 21 -163 -14 -226 -17 -30 -30 -67 -30 -87
0 -28 -6 -38 -40 -60 -35 -23 -39 -29 -34 -55 6 -27 -6 -43 -125 -174 -72 -80
-141 -152 -154 -160 -14 -9 -34 -41 -47 -76 -13 -36 -35 -72 -52 -86 -22 -18
-33 -43 -49 -102 -10 -43 -34 -107 -51 -143 -22 -45 -32 -80 -32 -115 -1 -76
-22 -70 -84 24 -48 73 -101 177 -275 543 -36 76 -95 187 -131 247 -121 200
-155 302 -163 491 -8 201 32 339 128 432 63 61 72 87 37 110 -42 28 -65 30
-71 9 -2 -10 -24 -33 -48 -50 -84 -57 -100 -74 -148 -145 -68 -101 -79 -126
-96 -213 -8 -43 -20 -90 -26 -105 l-11 -28 -57 52 c-31 28 -87 75 -126 104
-85 63 -419 280 -522 337 -93 52 -130 88 -162 157 -52 113 -39 266 39 467 29
77 38 89 133 181 263 255 403 366 607 482 234 133 286 200 278 359 -4 86 -26
151 -61 180 -17 14 -18 10 -38 -124 -13 -91 -36 -143 -76 -175 -32 -24 -237
-143 -423 -244 -240 -130 -269 -155 -473 -404 -195 -236 -238 -311 -252 -432
-3 -30 -13 -64 -21 -75 -14 -19 -15 -18 -47 20 -204 247 -232 294 -281 490
-53 212 -66 296 -66 419 0 124 15 205 98 526 56 217 77 362 67 454 -9 87 -40
215 -69 285 -24 60 -64 126 -72 118 -2 -2 4 -39 13 -83 10 -52 16 -131 16
-234 1 -183 -13 -249 -117 -539 -35 -97 -71 -199 -80 -228 -16 -49 -18 -51
-45 -43 -52 15 -86 38 -201 138 -161 141 -200 196 -215 307 -11 83 -35 160
-60 191 l-23 29 -7 -100 c-14 -190 7 -304 78 -411 17 -27 96 -111 174 -188
186 -182 205 -217 228 -431 9 -87 22 -134 78 -285 27 -74 60 -177 73 -228 16
-62 34 -106 53 -130 15 -21 55 -77 87 -127 91 -137 103 -152 181 -210 50 -38
88 -78 122 -128 27 -39 64 -86 82 -103 57 -53 374 -261 452 -297 54 -25 80
-43 93 -67 12 -20 40 -43 74 -60 130 -66 216 -149 377 -365 138 -187 221 -332
257 -452 7 -21 6 -21 -39 -7 -26 7 -97 21 -158 30 -123 18 -427 16 -787 -6
-344 -22 -559 0 -799 80 -153 51 -215 78 -294 133 -36 24 -102 59 -147 78
-140 58 -233 165 -282 324 -18 58 -22 95 -23 215 l0 145 43 72 c34 56 46 89
57 155 8 45 28 121 45 167 39 106 43 183 11 234 -56 90 -81 69 -81 -68 0 -99
-5 -110 -103 -248 -21 -30 -40 -70 -44 -93 -3 -21 -28 -87 -54 -145 -27 -58
-57 -139 -67 -179 l-18 -73 -28 33 c-46 55 -74 121 -120 287 -51 179 -78 250
-140 366 -24 45 -53 114 -65 154 -17 56 -32 83 -70 125 -109 119 -208 154
-270 96 -28 -25 -26 -35 8 -43 40 -8 107 -69 145 -129 56 -89 96 -204 156
-445 71 -282 86 -329 140 -420 28 -47 44 -88 49 -124 6 -48 18 -69 96 -173
107 -142 271 -311 375 -383 91 -65 250 -144 345 -173 45 -14 77 -30 89 -46 10
-13 40 -33 65 -44 25 -10 57 -30 71 -42 18 -17 46 -27 98 -34 74 -11 126 -34
120 -54 -2 -6 -127 -80 -278 -165 -151 -85 -370 -212 -486 -282 -119 -73 -227
-131 -249 -135 -20 -4 -93 -25 -161 -46 -235 -73 -345 -76 -549 -16 -66 20
-129 36 -140 36 -11 0 -67 41 -125 91 -143 124 -218 179 -310 228 -86 46 -108
49 -140 23 l-22 -18 27 -26 c15 -15 52 -41 83 -59 38 -21 101 -77 192 -171
154 -160 224 -218 313 -257 134 -61 319 -83 507 -62 90 11 368 61 423 77 15 5
13 -4 -13 -57 -18 -34 -57 -133 -87 -218 -84 -240 -130 -327 -215 -406 -39
-36 -105 -88 -145 -115 -74 -49 -76 -50 -153 -50 -56 0 -81 -4 -90 -15 -10
-12 -6 -18 22 -35 77 -47 187 -47 279 0 157 80 271 170 336 268 48 72 80 140
169 350 82 196 133 286 210 372 110 123 171 164 479 318 429 214 552 255 855
287 161 18 420 19 545 4 166 -20 322 -77 385 -141 39 -38 199 -268 253 -363
84 -147 143 -321 167 -494 8 -57 7 -99 -5 -185 -8 -61 -26 -214 -40 -341 -36
-316 -61 -468 -87 -518 -18 -36 -22 -68 -29 -217 -4 -96 -11 -202 -14 -235 -3
-33 -23 -243 -45 -467 -22 -224 -47 -501 -56 -615 -21 -282 -21 -714 0 -973
29 -362 38 -414 121 -678 19 -63 42 -155 50 -205 16 -101 19 -314 6 -418 -8
-64 -13 -73 -99 -186 -129 -171 -152 -189 -339 -263 -181 -71 -261 -93 -388
-109 -215 -26 -462 -122 -667 -260 -122 -82 -182 -138 -353 -329 -193 -216
-303 -293 -469 -327 -60 -12 -81 -13 -92 -4 -18 14 -29 6 -20 -16 11 -29 111
-67 195 -72 92 -7 221 16 290 52 85 43 226 162 347 291 262 283 323 325 479
336 l40 3 3 -273 2 -273 -31 -17 c-62 -35 -66 -40 -44 -57 45 -35 94 -31 145
11 51 44 73 98 72 179 -1 59 4 84 34 158 27 68 35 99 33 142 -2 51 0 58 32 91
45 47 58 53 229 109 280 92 696 277 772 344 20 17 62 68 94 111 31 44 68 87
80 95 l24 15 0 -71 c0 -39 -7 -144 -16 -233 -42 -417 8 -585 265 -895 47 -57
115 -138 150 -180 89 -106 137 -180 183 -278 39 -82 39 -85 27 -134 -9 -35
-10 -52 -2 -60 18 -18 50 -1 75 39 20 32 23 50 22 132 0 168 -63 303 -244 524
-38 47 -70 87 -70 88 0 2 42 2 92 0 75 -3 121 3 236 27 97 21 170 31 229 31
85 0 86 0 119 -35 45 -48 58 -46 52 10 -4 30 -18 63 -43 99 -30 44 -43 55 -73
60 -66 11 -147 6 -258 -14 -60 -11 -137 -20 -171 -20 -61 0 -65 2 -149 61
-101 72 -123 109 -124 206 0 74 10 124 61 307 22 77 42 170 46 208 3 37 9 68
12 68 3 0 53 -48 111 -108 61 -63 138 -130 185 -161 44 -29 206 -115 360 -192
154 -77 309 -155 343 -174 37 -20 78 -35 97 -35 57 0 259 -56 358 -100 121
-53 414 -214 449 -247 14 -14 47 -64 72 -112 59 -111 90 -150 106 -134 7 6 18
62 25 125 11 106 11 115 -8 156 -11 25 -52 75 -95 115 -42 40 -97 93 -124 120
-26 26 -56 47 -67 47 -11 0 -64 30 -117 66 -56 38 -126 76 -164 89 -81 27
-108 41 -137 68 -33 29 -29 37 20 37 66 0 155 25 320 89 84 32 194 69 245 82
87 21 100 22 195 11 56 -7 119 -15 140 -18 34 -6 37 -5 37 17 0 47 -41 89
-120 124 -39 17 -66 20 -210 19 l-165 0 -215 -57 c-329 -86 -471 -94 -607 -36
-26 11 -67 23 -92 26 -29 4 -67 20 -104 44 -33 22 -81 43 -115 50 -69 15 -102
44 -208 181 -253 330 -564 995 -668 1429 -38 157 -73 358 -88 499 -17 164 -17
747 0 940 76 847 167 1420 313 1965 66 245 118 398 144 420 13 11 35 43 48 70
26 51 75 104 137 146 19 13 60 47 91 76 42 40 84 66 166 103 278 124 469 157
793 139 213 -13 316 -30 384 -63 62 -31 292 -224 349 -292 22 -27 61 -71 87
-99 52 -56 67 -87 109 -227 35 -113 59 -164 96 -198 15 -14 51 -55 82 -92 67
-82 213 -207 262 -224 58 -21 185 -18 231 6 42 22 70 63 70 105 0 23 -3 25
-27 19 -16 -4 -38 -11 -51 -15 -59 -22 -94 -11 -184 56 -163 123 -249 249
-270 398 -15 105 -11 112 49 88 256 -99 754 -90 1002 19 92 40 162 54 241 47
101 -9 163 -33 262 -100 85 -58 94 -68 135 -142 56 -102 81 -125 138 -125 89
0 96 21 32 95 -24 28 -67 97 -94 155 -28 58 -59 112 -69 122 -11 9 -75 46
-144 83 -69 37 -131 72 -137 77 -17 14 47 92 90 109 18 7 77 34 132 60 253
119 412 162 605 163 152 1 170 -5 210 -68 26 -42 37 -45 46 -11 17 69 -34 150
-121 194 -157 78 -366 67 -660 -36 -71 -25 -165 -56 -207 -69 -97 -29 -140
-51 -236 -120 -112 -81 -161 -103 -254 -115 -50 -6 -100 -20 -131 -36 -118
-59 -465 -83 -620 -43 -92 24 -300 114 -399 171 -39 23 -96 68 -128 100 -39
39 -66 59 -82 59 -28 0 -54 17 -123 78 -61 55 -127 86 -315 147 -156 50 -240
83 -240 94 0 4 14 15 30 25 50 29 160 144 255 266 209 269 290 348 420 413
108 53 191 70 429 87 125 9 153 14 177 32 24 18 48 23 147 28 115 6 118 6 179
-23 68 -32 183 -46 285 -33 48 6 61 13 116 64 55 52 85 103 68 119 -3 3 -14
-1 -23 -9 -10 -8 -40 -24 -68 -34 -64 -24 -212 -25 -266 -1 -40 18 -99 64 -99
77 0 5 37 28 83 52 65 34 104 64 188 148 58 58 133 139 166 181 52 65 67 78
100 84 70 13 83 43 31 75 -44 27 -85 25 -144 -6 -58 -31 -98 -67 -166 -152
-30 -37 -80 -83 -122 -111 -40 -27 -101 -73 -136 -103 -79 -66 -118 -89 -207
-121 -135 -49 -362 -83 -679 -103 l-112 -7 34 125 c55 205 110 354 184 503 82
164 113 206 184 242 44 23 66 28 161 31 75 3 140 -1 205 -13 174 -31 165 -31
209 4 21 17 44 44 49 59 l10 28 -77 1 c-60 0 -99 7 -186 36 -134 44 -195 54
-260 46 -27 -3 -52 -5 -54 -3 -2 2 6 18 18 37 32 52 147 157 243 220 201 134
318 161 779 177 372 13 380 15 408 91 15 43 3 49 -69 34 -104 -23 -176 -19
-278 15 -84 28 -103 30 -232 30 -158 0 -240 -14 -389 -64 -219 -75 -369 -165
-524 -315 -115 -112 -159 -175 -257 -370 -39 -79 -96 -184 -127 -233 -73 -118
-135 -253 -221 -478 -90 -237 -138 -346 -196 -444 -71 -120 -114 -166 -192
-206 -52 -26 -92 -59 -164 -133 -52 -54 -108 -107 -125 -117 -51 -32 -195 -86
-305 -114 -173 -46 -340 -103 -425 -147 -44 -22 -106 -47 -138 -55 -74 -18
-113 -38 -216 -113 -46 -33 -99 -66 -117 -73 -21 -7 -38 -22 -45 -40 -14 -34
-62 -88 -78 -88 -29 0 1 166 48 260 39 79 76 132 186 270 180 227 245 344 337
605 26 77 62 167 78 200 108 218 172 825 131 1239 -15 158 -3 269 41 396 72
204 173 342 298 405 71 36 126 41 208 20 64 -17 71 -17 119 -1 57 19 126 74
149 118 16 30 16 31 -8 25 -68 -17 -133 -18 -243 -2 -66 9 -122 18 -124 21 -9
9 85 96 149 139 92 61 171 98 302 143 108 38 115 39 143 24 67 -34 183 -53
214 -33 33 21 -22 106 -93 143 -31 17 -64 23 -137 26 -124 5 -217 -19 -359
-95 -58 -31 -139 -74 -180 -95 -49 -25 -87 -52 -110 -81 -19 -23 -88 -91 -153
-151 -93 -86 -124 -122 -152 -175 -19 -37 -55 -90 -80 -118 -25 -28 -45 -55
-45 -60 0 -23 -23 -84 -36 -98 -27 -27 -40 -17 -53 43 -18 81 -71 203 -168
385 -135 250 -183 381 -183 498 0 30 -5 72 -11 94 -15 56 -15 49 20 260 52
307 74 371 156 442 25 23 45 49 45 58 0 10 13 41 28 69 43 76 46 100 19 132
l-24 27 -7 -28z"/>
</g>
</svg>
