<?xml version="1.0" standalone="no"?>
<!DOCTYPE svg PUBLIC "-//W3C//DTD SVG 20010904//EN"
 "http://www.w3.org/TR/2001/REC-SVG-20010904/DTD/svg10.dtd">
<svg version="1.0" xmlns="http://www.w3.org/2000/svg"
 width="858.000000pt" height="1280.000000pt" viewBox="0 0 858.000000 1280.000000"
 preserveAspectRatio="xMidYMid meet">
<metadata>
Created by potrace 1.15, written by Peter Selinger 2001-2017
</metadata>
<g transform="translate(0.000000,1280.000000) scale(0.100000,-0.100000)"
fill="#000000" stroke="none">
<path d="M7983 12406 c-58 -26 -112 -143 -113 -243 0 -38 3 -37 -44 -18 -139
58 -231 32 -214 -59 4 -20 0 -25 -25 -30 -45 -9 -57 -24 -57 -72 0 -39 -2 -44
-23 -44 -36 0 -60 -33 -55 -74 3 -32 1 -36 -23 -41 -42 -9 -63 -39 -56 -80 5
-32 4 -35 -19 -35 -39 0 -67 -36 -61 -79 4 -34 3 -37 -22 -39 -37 -3 -64 -39
-58 -79 5 -29 3 -32 -24 -38 -39 -9 -63 -46 -55 -85 5 -27 3 -30 -19 -30 -37
0 -68 -38 -60 -77 5 -29 3 -32 -25 -38 -41 -9 -62 -41 -54 -82 5 -29 4 -33
-15 -33 -12 0 -33 -11 -46 -24 -20 -20 -23 -31 -18 -60 5 -33 4 -36 -19 -36
-37 0 -61 -32 -56 -74 3 -31 1 -35 -23 -40 -43 -8 -61 -34 -57 -78 3 -33 1
-38 -17 -38 -11 0 -31 -7 -44 -16 -19 -13 -22 -24 -19 -55 3 -35 1 -39 -23
-44 -41 -9 -62 -38 -57 -79 3 -31 1 -35 -23 -40 -44 -8 -62 -34 -56 -78 5 -35
3 -38 -19 -38 -37 0 -67 -36 -62 -76 3 -30 1 -34 -24 -40 -37 -8 -62 -46 -55
-83 5 -26 3 -29 -25 -35 -17 -3 -941 -6 -2054 -6 l-2024 0 0 23 c0 33 -26 64
-58 72 -25 5 -27 9 -24 39 5 41 -25 76 -62 76 -23 0 -24 3 -19 35 7 41 -14 71
-56 80 -24 5 -26 9 -23 43 4 42 -16 68 -58 74 -22 3 -24 7 -22 44 3 34 -1 45
-20 58 -12 9 -32 16 -44 16 -17 0 -20 5 -16 25 9 47 -6 73 -46 86 -35 10 -38
13 -34 45 5 41 -19 74 -54 74 -21 0 -24 4 -22 40 2 46 -13 66 -54 75 -26 6
-29 11 -25 33 8 41 -8 69 -47 82 -31 10 -35 14 -30 38 7 35 -28 82 -61 82 -22
0 -24 3 -19 30 8 39 -16 76 -55 85 -27 6 -29 9 -24 40 6 39 -23 75 -61 75 -22
0 -24 3 -19 34 7 45 -10 74 -50 81 -31 6 -33 9 -29 41 5 41 -16 70 -57 79 -24
5 -26 9 -23 44 3 31 0 42 -19 55 -13 9 -33 16 -44 16 -18 0 -20 5 -17 34 5 46
-12 74 -51 81 -30 6 -32 9 -29 43 7 76 -78 99 -198 53 -30 -11 -56 -21 -57
-21 -2 0 -3 15 -3 33 -1 105 -55 218 -118 244 -34 14 -40 14 -72 -3 -70 -38
-110 -136 -110 -269 0 -49 6 -100 16 -129 l17 -48 -34 -26 c-57 -42 -145 -138
-163 -176 -25 -53 -24 -95 4 -118 12 -10 30 -18 41 -18 15 0 18 -7 16 -39 -1
-46 14 -67 52 -76 26 -5 28 -10 27 -46 -1 -45 20 -69 61 -69 22 0 23 -3 17
-34 -5 -29 -2 -39 20 -60 14 -15 34 -26 45 -26 17 0 20 -5 15 -30 -8 -39 16
-75 53 -83 26 -5 29 -9 25 -40 -5 -41 24 -77 62 -77 22 0 24 -3 19 -38 -4 -34
-1 -42 22 -60 15 -12 35 -22 44 -22 13 0 16 -8 13 -38 -4 -42 16 -68 58 -74
22 -3 25 -7 22 -41 -4 -46 9 -64 52 -73 28 -5 32 -9 28 -30 -8 -44 6 -72 43
-84 32 -10 35 -15 35 -49 0 -43 24 -71 60 -71 20 0 22 -3 16 -32 -8 -41 14
-74 54 -83 28 -6 31 -10 25 -32 -9 -37 3 -63 38 -78 29 -13 19 -14 -114 -15
-129 0 -150 -2 -170 -19 l-24 -19 -3 -2559 c-2 -1702 1 -2613 8 -2723 23 -364
131 -698 341 -1057 52 -88 180 -279 243 -363 l34 -45 -274 -384 c-268 -376
-275 -387 -323 -510 -130 -334 -165 -506 -165 -796 1 -181 19 -373 37 -391 8
-8 202 23 322 51 256 60 473 175 635 335 106 105 140 152 375 520 114 179 209
327 211 329 2 2 30 -17 61 -42 345 -279 665 -506 1040 -738 322 -200 724 -412
778 -413 55 0 399 178 720 372 402 245 792 521 1113 790 62 52 117 91 121 86
5 -5 116 -177 247 -383 131 -206 269 -412 306 -457 183 -223 432 -366 759
-437 178 -39 280 -52 289 -38 17 29 35 238 34 406 -1 237 -30 398 -120 655
-75 217 -86 237 -389 661 -159 222 -297 416 -308 430 l-18 26 84 124 c299 438
447 828 477 1255 7 100 10 997 8 2721 -3 2451 -4 2573 -21 2590 -13 14 -39 19
-110 23 -77 4 -92 8 -95 23 -3 12 3 17 20 17 42 0 63 24 62 69 -1 36 1 41 28
46 38 9 60 43 52 83 -6 27 -3 32 13 32 37 0 63 28 63 70 0 35 3 39 35 50 37
12 51 40 43 84 -4 21 0 25 28 31 40 7 57 34 52 81 -4 31 -2 34 22 34 39 0 63
31 58 74 -3 32 -1 36 23 41 42 9 63 39 56 79 -5 32 -4 34 29 40 39 8 58 35 52
77 -4 25 0 30 29 40 40 13 57 41 49 80 -5 24 -2 29 15 29 11 0 31 12 46 26 21
21 24 32 20 60 -5 31 -3 34 18 34 33 0 67 46 60 81 -6 24 -2 28 30 39 39 13
56 41 48 81 -4 22 0 27 29 35 66 19 67 86 1 176 -29 40 -61 71 -157 149 -4 4
0 31 9 59 24 74 17 225 -14 296 -40 91 -96 127 -158 100z m-6430 -2773 c-18
-2 -48 -2 -65 0 -18 2 -4 4 32 4 36 0 50 -2 33 -4z m1349 0 c-51 -2 -132 -2
-180 0 -48 1 -6 3 93 3 99 0 138 -2 87 -3z m861 0 c-90 -2 -236 -2 -325 0 -90
1 -17 3 162 3 179 0 252 -2 163 -3z m1370 0 c-100 -2 -266 -2 -370 0 -103 1
-21 2 182 2 204 0 288 -1 188 -2z m745 0 c-42 -2 -114 -2 -160 0 -46 1 -11 3
77 3 88 0 125 -2 83 -3z m1115 0 c-13 -2 -33 -2 -45 0 -13 2 -3 4 22 4 25 0
35 -2 23 -4z"/>
</g>
</svg>
