<?xml version="1.0" standalone="no"?>
<!DOCTYPE svg PUBLIC "-//W3C//DTD SVG 20010904//EN"
 "http://www.w3.org/TR/2001/REC-SVG-20010904/DTD/svg10.dtd">
<svg version="1.0" xmlns="http://www.w3.org/2000/svg"
 width="1280.000000pt" height="1277.000000pt" viewBox="0 0 1280.000000 1277.000000"
 preserveAspectRatio="xMidYMid meet">
<metadata>
Created by potrace 1.15, written by Peter Selinger 2001-2017
</metadata>
<g transform="translate(0.000000,1277.000000) scale(0.100000,-0.100000)"
fill="#000000" stroke="none">
<path d="M6191 12576 l-193 -194 36 -558 c50 -752 101 -1526 132 -1997 14
-214 24 -390 22 -392 -2 -1 -46 -6 -99 -10 l-95 -7 -123 924 c-67 508 -145
1097 -173 1311 -29 213 -54 387 -57 386 -4 0 -72 -79 -152 -176 l-145 -176 32
-161 c65 -318 424 -2127 424 -2134 0 -5 -28 -14 -62 -21 -292 -58 -660 -204
-932 -368 -85 -51 -111 -63 -117 -52 -5 8 -302 453 -661 989 l-653 975 -65 0
c-154 -1 -360 -11 -357 -17 1 -4 351 -462 777 -1018 426 -556 783 -1021 792
-1034 17 -22 16 -23 -53 -77 -38 -30 -73 -55 -78 -57 -8 -3 -1931 2179 -1939
2199 -2 5 -132 9 -288 9 l-284 0 0 -269 0 -268 1103 -968 c606 -532 1106 -972
1111 -979 6 -9 -12 -37 -54 -88 l-64 -76 -80 62 c-45 35 -479 368 -966 741
-487 373 -922 707 -967 742 l-83 64 0 -223 1 -223 981 -655 c539 -360 985
-658 990 -661 5 -3 -13 -39 -40 -80 -173 -262 -332 -635 -402 -942 l-23 -97
-31 6 c-17 3 -537 106 -1156 229 l-1125 223 -148 -151 c-81 -84 -144 -153
-140 -154 5 -2 568 -77 1253 -168 685 -91 1260 -168 1279 -172 l33 -6 -7 -86
c-4 -47 -10 -89 -13 -92 -4 -4 -666 38 -1472 91 l-1465 98 -199 -198 -199
-198 184 -198 185 -198 54 3 c30 1 696 45 1480 96 783 52 1425 93 1426 92 5
-5 23 -191 19 -195 -2 -2 -589 -81 -1304 -176 -716 -94 -1301 -173 -1301 -176
0 -3 69 -70 153 -150 83 -80 152 -150 151 -156 -1 -6 489 88 1164 223 641 128
1167 232 1168 230 1 -1 18 -68 38 -149 80 -325 229 -675 387 -910 l39 -56 -63
-45 c-34 -24 -476 -320 -981 -657 l-919 -613 7 -211 c4 -116 8 -212 10 -214 2
-1 464 351 1027 782 563 432 1027 786 1031 786 4 0 35 -34 69 -77 l63 -76 -37
-31 c-20 -17 -515 -452 -1101 -966 l-1065 -935 -1 -276 0 -276 157 -6 c87 -4
211 -7 275 -7 l118 0 702 803 c386 441 814 930 952 1087 137 157 257 294 267
304 17 19 19 18 88 -39 39 -31 71 -59 71 -60 0 -2 -362 -474 -805 -1050 l-805
-1047 232 3 231 4 655 983 c361 540 659 982 663 982 4 0 47 -25 96 -56 123
-78 404 -214 554 -268 125 -45 291 -93 401 -117 51 -11 57 -15 53 -33 -17 -72
-455 -2285 -455 -2297 0 -8 71 -85 159 -173 l158 -158 6 54 c5 47 149 1145
287 2187 28 206 50 375 50 376 0 1 24 -2 53 -6 28 -4 74 -8 101 -8 l48 -1 -6
-72 c-3 -40 -22 -316 -41 -613 -20 -297 -49 -738 -65 -980 -16 -242 -41 -630
-56 -863 l-28 -423 199 -199 198 -198 146 151 c81 84 170 177 198 208 l52 55
-19 290 c-11 159 -42 633 -70 1054 -28 421 -61 931 -75 1135 -14 203 -25 388
-25 410 l0 41 97 12 c54 6 98 10 99 9 1 -1 34 -245 73 -542 184 -1400 269
-2037 273 -2040 1 -2 46 36 98 83 53 48 124 112 158 143 l62 56 -230 1155
c-126 635 -230 1161 -230 1169 0 10 26 20 79 32 321 72 696 235 992 430 l25
17 665 -995 664 -994 228 -3 c125 -2 227 -1 227 2 0 3 -365 479 -811 1059
-765 995 -809 1054 -790 1067 10 8 43 34 72 59 52 44 54 45 69 26 8 -11 447
-513 975 -1115 l960 -1096 276 0 277 0 7 243 c4 133 5 261 3 283 l-3 42 -1100
962 c-605 529 -1106 968 -1113 975 -11 10 -2 27 51 93 l65 81 1048 -805 1049
-804 3 67 c1 38 -1 139 -5 227 l-8 159 -986 660 -987 660 56 91 c158 260 293
595 367 916 21 90 23 95 46 92 13 -2 548 -109 1189 -237 l1165 -233 152 157
c84 86 153 158 153 161 0 3 -595 83 -1323 179 -727 95 -1324 175 -1326 177 -2
2 0 42 4 89 l7 85 39 0 c22 0 689 -43 1481 -96 l1442 -95 207 207 206 206
-204 190 -205 191 -1479 -98 c-814 -54 -1481 -96 -1484 -94 -5 6 -27 191 -23
194 2 1 575 77 1273 169 699 93 1287 171 1308 175 l37 6 -161 153 c-129 122
-166 153 -183 148 -46 -11 -2293 -456 -2304 -456 -7 0 -12 9 -12 19 0 29 -55
234 -93 346 -71 207 -192 464 -302 638 -30 49 -55 91 -55 95 0 4 449 307 998
674 l999 667 6 173 c8 208 9 318 2 318 -3 0 -481 -369 -1062 -821 -581 -452
-1062 -823 -1068 -825 -13 -5 -117 114 -110 126 3 4 507 448 1120 986 l1115
978 0 268 0 268 -285 0 -284 0 -543 -618 c-299 -340 -736 -839 -973 -1110
-236 -270 -434 -491 -438 -491 -6 -1 -98 72 -150 119 -4 3 350 472 788 1041
437 569 795 1037 795 1042 0 4 -98 7 -218 7 l-217 0 -659 -985 c-634 -948
-660 -985 -680 -972 -295 190 -585 316 -925 403 -74 19 -136 36 -138 38 -3 2
44 238 323 1640 132 665 134 679 116 700 -15 17 -218 240 -268 295 -8 8 -16
13 -18 10 -6 -6 -87 -609 -308 -2294 -23 -176 -42 -321 -42 -322 -1 -2 -180
19 -184 22 -1 1 7 127 18 281 11 153 42 605 70 1004 28 399 59 851 70 1005 11
154 25 350 30 435 6 85 12 172 15 192 5 36 5 37 -205 227 -115 105 -211 191
-212 191 -2 0 -90 -87 -197 -194z"/>
</g>
</svg>
