<?xml version="1.0" standalone="no"?>
<!DOCTYPE svg PUBLIC "-//W3C//DTD SVG 20010904//EN"
 "http://www.w3.org/TR/2001/REC-SVG-20010904/DTD/svg10.dtd">
<svg version="1.0" xmlns="http://www.w3.org/2000/svg"
 width="1280.000000pt" height="1172.000000pt" viewBox="0 0 1280.000000 1172.000000"
 preserveAspectRatio="xMidYMid meet">
<metadata>
Created by potrace 1.15, written by Peter Selinger 2001-2017
</metadata>
<g transform="translate(0.000000,1172.000000) scale(0.100000,-0.100000)"
fill="#000000" stroke="none">
<path d="M812 11712 c-27 -19 36 -47 197 -87 202 -51 680 -206 916 -298 947
-370 1597 -892 2027 -1627 125 -214 197 -377 294 -666 75 -226 115 -384 117
-468 l2 -61 -45 1 c-30 1 -109 26 -240 76 -568 220 -1056 335 -1604 379 -191
15 -646 7 -816 -16 -462 -60 -819 -164 -1182 -346 -139 -70 -212 -115 -252
-158 -39 -41 -27 -40 120 8 240 78 653 168 989 214 216 29 657 31 870 4 522
-68 979 -229 1295 -456 98 -71 94 -70 86 -26 -13 67 -23 179 -18 193 7 19 43
10 159 -39 129 -54 292 -138 373 -191 194 -127 291 -308 231 -431 -27 -56 -78
-91 -160 -113 -56 -14 -82 -15 -185 -5 -138 12 -178 6 -238 -36 -86 -60 -93
-63 -141 -63 -27 0 -96 11 -155 25 -997 229 -2204 346 -2802 271 -273 -34
-475 -71 -589 -108 -50 -16 -60 -23 -47 -30 9 -5 206 -13 438 -18 1015 -23
1411 -66 2013 -216 461 -115 813 -250 1374 -528 151 -74 276 -134 278 -132 2
2 -9 41 -23 87 -49 149 -35 255 42 333 88 87 194 83 330 -13 148 -103 354
-370 356 -461 2 -49 -19 -61 -124 -71 -121 -11 -164 -24 -184 -55 -25 -37 -5
-91 56 -154 63 -64 92 -76 246 -100 80 -12 137 -26 158 -39 22 -14 56 -61 108
-148 237 -399 651 -870 853 -973 111 -57 103 -32 -56 166 -199 247 -265 386
-276 580 -7 120 4 176 57 289 54 116 132 215 353 445 180 187 201 212 238 290
41 85 185 348 198 363 4 4 60 -98 124 -227 134 -270 155 -298 368 -472 247
-202 349 -348 380 -543 17 -115 -10 -260 -71 -381 -70 -139 -222 -330 -326
-411 -36 -29 -63 -57 -61 -63 7 -19 66 -9 131 23 210 103 568 514 811 931 100
173 117 187 261 220 161 38 284 117 270 174 -7 29 -41 41 -136 50 -102 10
-170 70 -170 153 1 77 103 199 269 321 96 72 266 159 331 170 85 15 150 -14
184 -82 17 -35 18 -45 7 -106 -7 -37 -30 -119 -52 -181 -21 -62 -39 -114 -39
-116 0 -10 46 8 273 111 815 367 1481 607 1839 660 130 20 414 34 943 46 463
11 850 26 949 36 56 6 58 7 35 19 -70 37 -355 74 -764 100 -272 17 -1012 20
-1219 4 -278 -20 -682 -83 -1166 -180 -316 -63 -468 -81 -494 -60 -8 7 -18 26
-21 42 -13 59 -36 66 -232 72 -211 7 -254 16 -291 65 -24 31 -27 45 -27 107 0
64 4 81 40 150 53 105 155 210 250 258 81 40 235 99 350 133 96 29 172 35 185
14 23 -36 3 -86 -55 -138 -20 -19 -34 -36 -32 -39 8 -7 102 44 217 116 205
130 352 201 563 272 348 116 763 169 1157 148 243 -14 394 -39 840 -140 299
-67 547 -119 568 -119 31 1 -15 29 -173 105 -346 168 -638 262 -1010 325 -256
42 -367 51 -705 57 -486 8 -712 -17 -1125 -122 -354 -90 -652 -193 -920 -317
-261 -122 -261 -122 -252 2 19 256 270 917 463 1215 233 361 612 764 976 1038
494 371 1271 717 1994 887 91 21 168 41 170 43 11 11 -354 16 -478 7 -557 -41
-1259 -264 -1933 -614 -294 -153 -1248 -704 -1228 -709 10 -3 65 -17 123 -32
144 -37 200 -62 200 -89 0 -24 -25 -70 -124 -231 -133 -215 -332 -647 -432
-940 -95 -275 -136 -485 -156 -807 -14 -217 -2 -468 32 -703 25 -165 27 -249
7 -296 -25 -60 -108 -191 -168 -265 -212 -261 -494 -286 -754 -67 -269 227
-554 799 -635 1278 -20 115 -22 150 -16 312 7 175 6 183 -13 202 -25 25 -35
26 -54 6 -25 -24 -34 -65 -87 -380 -81 -481 -161 -775 -280 -1023 -134 -278
-287 -439 -483 -510 -93 -34 -240 -36 -329 -5 -164 57 -352 232 -409 382 -35
90 -36 237 -5 446 80 527 50 907 -107 1371 -99 290 -290 689 -548 1140 l-29
51 58 45 c73 58 90 66 154 78 29 6 59 17 67 25 13 13 11 19 -19 51 -146 153
-1035 633 -1635 884 -418 175 -856 304 -1270 374 -270 46 -663 79 -693 58z"/>
<path d="M9330 6590 c-333 -47 -767 -253 -1170 -556 -216 -162 -351 -288 -745
-690 -482 -492 -828 -815 -921 -859 -34 -16 -39 -16 -80 0 -26 10 -94 60 -171
128 -176 154 -767 745 -950 952 -149 167 -278 291 -461 439 -406 330 -750 505
-1117 572 -151 27 -461 12 -498 -25 -25 -25 28 -41 228 -71 414 -63 847 -239
993 -405 48 -54 53 -76 82 -310 23 -196 38 -255 95 -370 143 -291 416 -484
910 -645 72 -23 182 -67 245 -97 220 -104 446 -277 500 -383 28 -55 25 -77
-45 -290 -144 -441 -182 -742 -127 -1010 32 -160 45 -133 197 435 150 560 153
564 239 315 48 -135 105 -335 171 -590 54 -212 77 -280 93 -280 43 0 36 500
-9 723 -26 128 -84 303 -153 457 l-54 124 49 71 c174 248 377 443 512 493 28
11 125 32 215 46 186 31 307 67 437 131 235 116 415 332 499 600 33 105 42
148 65 308 10 73 25 148 34 167 42 101 341 296 622 406 167 65 321 102 498
119 159 15 189 25 162 55 -34 37 -214 58 -345 40z m-4440 -816 c58 -49 82
-124 96 -294 8 -102 13 -115 59 -130 48 -16 81 -6 100 30 9 17 21 30 28 30 16
0 160 -152 252 -265 76 -95 101 -133 91 -143 -8 -8 -189 27 -253 49 -257 88
-416 253 -459 477 -23 123 -16 212 22 253 22 25 27 24 64 -7z m3227 -42 c5
-15 8 -61 7 -103 -3 -224 -146 -425 -389 -546 -65 -33 -227 -87 -288 -98 -50
-8 -58 13 -27 72 35 66 279 355 293 346 7 -3 27 -18 45 -31 45 -34 126 -43
140 -15 6 10 15 76 21 145 10 136 26 181 78 230 56 54 105 54 120 0z"/>
<path d="M3084 6195 c-202 -44 -416 -191 -558 -385 -38 -52 -45 -66 -32 -68 9
-2 72 22 139 53 262 122 371 158 529 174 168 17 348 -18 477 -91 207 -119 372
-406 359 -627 -6 -101 -52 -203 -108 -238 -119 -73 -109 -116 66 -288 220
-217 535 -422 864 -563 208 -89 410 -144 410 -111 0 17 -75 78 -238 193 -299
212 -490 408 -586 602 -101 205 -113 409 -42 712 l33 142 -92 88 c-216 207
-532 356 -865 407 -116 18 -274 18 -356 0z"/>
<path d="M9500 6204 c-96 -12 -203 -39 -278 -70 -106 -44 -296 -139 -404 -203
-80 -47 -259 -179 -273 -200 -3 -6 5 -70 19 -143 51 -270 58 -394 30 -539 -53
-282 -231 -503 -631 -785 -179 -126 -243 -180 -243 -206 0 -18 4 -19 53 -13
118 16 405 129 600 236 295 163 595 411 734 607 45 63 44 89 -4 98 -58 10 -89
38 -125 111 -28 58 -33 79 -36 162 -5 116 13 194 69 301 128 247 365 403 634
417 183 10 317 -24 575 -147 241 -115 260 -115 175 -2 -123 164 -329 303 -520
352 -79 20 -295 34 -375 24z"/>
<path d="M4445 5224 c14 -76 67 -220 107 -289 52 -90 127 -183 220 -274 148
-147 529 -456 617 -501 22 -11 47 -33 56 -50 39 -74 100 -322 135 -540 25
-159 80 -360 170 -620 145 -417 173 -568 130 -711 -34 -116 -20 -153 39 -103
39 33 65 82 80 152 25 120 8 277 -68 610 -77 340 -82 389 -82 772 0 319 10
427 41 467 25 32 26 92 4 139 -25 52 -103 86 -274 119 -295 59 -639 252 -880
494 -65 65 -125 140 -185 231 -97 145 -121 167 -110 104z"/>
<path d="M8384 5202 c-22 -28 -61 -85 -88 -127 -59 -94 -212 -255 -321 -340
-237 -184 -450 -288 -732 -360 -155 -39 -230 -72 -268 -116 -32 -39 -32 -66 2
-115 48 -71 55 -112 60 -353 8 -332 -19 -596 -93 -921 -47 -210 -44 -195 -60
-290 -18 -113 -18 -253 1 -318 25 -82 101 -170 126 -145 8 8 5 32 -11 89 -45
159 -18 304 150 804 109 325 133 415 165 639 39 260 67 354 134 439 14 18 80
74 146 125 274 209 388 307 532 460 160 170 259 333 298 491 22 91 9 104 -41
38z"/>
<path d="M5215 3588 c4 -13 35 -86 70 -163 127 -282 168 -486 181 -890 7 -212
-4 -327 -36 -359 -31 -31 -67 -13 -157 82 -46 47 -84 84 -86 81 -3 -2 -47 -67
-99 -144 -116 -171 -153 -236 -168 -296 -16 -64 5 -108 108 -226 229 -262 367
-479 802 -1263 153 -276 192 -340 211 -340 25 0 -25 214 -89 385 -86 231 -229
525 -479 990 -157 290 -223 420 -223 435 0 16 102 70 133 70 15 0 58 -16 96
-35 88 -46 158 -49 198 -9 l26 26 -6 202 c-11 329 -45 602 -107 855 -77 317
-176 505 -308 590 -59 37 -76 40 -67 9z"/>
<path d="M7584 3571 c-103 -69 -180 -195 -252 -413 -91 -274 -128 -545 -158
-1160 l-6 -138 58 0 c74 0 120 13 151 42 34 32 139 33 180 2 25 -19 28 -28 28
-75 0 -50 -9 -69 -97 -229 -205 -374 -473 -922 -571 -1171 -64 -161 -119 -346
-115 -389 2 -28 8 -36 26 -38 17 -3 25 2 29 19 26 99 513 975 697 1254 113
170 225 316 345 445 l89 97 -60 114 c-80 152 -139 250 -199 333 l-51 68 -31
-38 c-59 -74 -133 -143 -160 -149 -35 -9 -63 14 -77 64 -18 60 -24 297 -11
441 19 216 48 374 97 537 38 126 93 251 147 336 21 32 37 64 37 72 0 26 -35
17 -96 -24z"/>
<path d="M6889 1798 c-123 -44 -224 -141 -288 -278 -37 -79 -70 -202 -78 -291
-5 -61 -3 -72 36 -163 58 -136 68 -186 44 -233 -46 -95 -214 -111 -301 -30
-66 62 -67 111 -2 242 89 180 91 308 9 467 -57 107 -164 217 -256 261 -61 29
-77 32 -158 32 -80 0 -96 -3 -145 -29 -126 -65 -200 -142 -200 -206 0 -72 98
-182 214 -240 60 -31 136 -41 136 -18 0 6 -17 34 -39 62 -72 95 -78 126 -30
172 24 23 39 29 74 29 105 0 195 -137 195 -298 0 -106 -27 -154 -151 -269 -54
-50 -99 -96 -99 -102 0 -6 55 -72 121 -146 200 -223 292 -353 415 -583 l68
-128 66 133 c126 255 413 637 498 663 42 12 22 49 -98 180 -101 109 -124 156
-124 246 1 182 153 349 274 299 59 -25 48 -82 -36 -187 -65 -81 -68 -109 -12
-106 54 3 159 55 213 104 56 52 89 113 105 197 16 81 4 111 -65 156 -125 83
-265 106 -386 64z"/>
</g>
</svg>
