<?xml version="1.0" standalone="no"?>
<!DOCTYPE svg PUBLIC "-//W3C//DTD SVG 20010904//EN"
 "http://www.w3.org/TR/2001/REC-SVG-20010904/DTD/svg10.dtd">
<svg version="1.0" xmlns="http://www.w3.org/2000/svg"
 width="1280.000000pt" height="1124.000000pt" viewBox="0 0 1280.000000 1124.000000"
 preserveAspectRatio="xMidYMid meet">
<metadata>
Created by potrace 1.15, written by Peter Selinger 2001-2017
</metadata>
<g transform="translate(0.000000,1124.000000) scale(0.100000,-0.100000)"
fill="#000000" stroke="none">
<path d="M10715 11158 c-615 -196 -1393 -444 -1529 -486 l-149 -47 -1275
-1430 c-701 -786 -1281 -1437 -1287 -1445 -11 -13 62 -99 457 -540 258 -289
473 -525 478 -525 9 0 8 -1 1730 1535 657 587 1200 1073 1207 1081 10 13 89
257 499 1543 68 214 123 390 122 392 -2 1 -115 -34 -253 -78z"/>
<path d="M1836 10947 c17 -55 360 -1134 529 -1662 41 -126 77 -237 80 -245 4
-8 277 -256 608 -551 543 -483 2099 -1870 5367 -4786 l1135 -1013 277 277 277
277 -68 75 c-38 42 -1459 1635 -3160 3541 -1700 1906 -3101 3473 -3113 3482
-21 15 -290 103 -1508 489 -190 60 -364 116 -388 124 -43 14 -43 14 -36 -8z"/>
<path d="M3949 4922 c-657 -735 -1208 -1353 -1226 -1373 l-32 -35 277 -277
277 -276 970 865 c534 477 1162 1038 1398 1247 235 210 426 385 425 388 -3 7
-870 783 -887 793 -5 3 -546 -596 -1202 -1332z"/>
<path d="M1727 4772 l-337 -337 525 -525 525 -525 147 145 c81 80 147 150 147
157 -2 16 -658 1422 -664 1423 -3 0 -157 -152 -343 -338z"/>
<path d="M10392 4123 l-334 -716 149 -149 148 -148 527 527 528 528 -337 337
c-186 186 -340 338 -343 338 -3 -1 -155 -323 -338 -717z"/>
<path d="M1640 2424 l-875 -876 -375 -250 c-206 -138 -378 -253 -382 -257 -4
-4 165 -179 375 -389 l383 -383 244 368 244 368 890 893 891 892 -255 255
c-140 140 -257 255 -260 255 -3 0 -399 -394 -880 -876z"/>
<path d="M10020 2775 l-255 -255 887 -888 886 -887 242 -365 c133 -201 245
-368 249 -372 4 -4 179 165 389 375 l383 383 -393 262 -393 262 -863 870
c-475 479 -867 870 -871 870 -3 0 -121 -115 -261 -255z"/>
<path d="M3262 2867 c-78 -78 -142 -147 -142 -152 0 -6 235 -245 523 -533
l522 -522 340 340 c186 186 337 341 335 343 -7 5 -1427 667 -1431 667 -3 0
-68 -64 -147 -143z"/>
<path d="M8680 2410 c-387 -182 -708 -334 -712 -338 -4 -4 144 -159 330 -345
l337 -337 525 525 525 525 -145 148 c-80 82 -147 150 -150 150 -3 1 -322 -147
-710 -328z"/>
</g>
</svg>
