<?xml version="1.0" standalone="no"?>
<!DOCTYPE svg PUBLIC "-//W3C//DTD SVG 20010904//EN"
 "http://www.w3.org/TR/2001/REC-SVG-20010904/DTD/svg10.dtd">
<svg version="1.0" xmlns="http://www.w3.org/2000/svg"
 width="1280.000000pt" height="1280.000000pt" viewBox="0 0 1280.000000 1280.000000"
 preserveAspectRatio="xMidYMid meet">
<metadata>
Created by potrace 1.15, written by Peter Selinger 2001-2017
</metadata>
<g transform="translate(0.000000,1280.000000) scale(0.100000,-0.100000)"
fill="#000000" stroke="none">
<path d="M2680 12410 l0 -390 853 0 c470 0 856 -2 858 -4 2 -2 3 -43 1 -90
l-3 -86 -1715 0 -1714 0 0 -1717 0 -1718 -87 2 -88 1 -3 856 -2 856 -390 0
-390 0 0 -3720 0 -3720 390 0 390 0 0 855 0 855 90 0 90 0 0 -1715 0 -1715
1714 0 1715 0 3 -86 c2 -47 1 -88 -1 -90 -2 -2 -388 -4 -858 -4 l-853 0 0
-390 0 -390 3720 0 3720 0 0 390 0 390 -853 0 c-470 0 -856 2 -858 4 -2 2 -3
43 -1 90 l3 86 1715 0 1714 0 0 1715 0 1715 90 0 90 0 0 -855 0 -855 390 0
390 0 0 3720 0 3720 -390 0 -390 0 -2 -856 -3 -856 -88 -1 -87 -2 0 1718 0
1717 -1714 0 -1715 0 -3 86 c-2 47 -1 88 1 90 2 2 388 4 858 4 l853 0 0 390 0
390 -3720 0 -3720 0 0 -390z"/>
</g>
</svg>
