<?xml version="1.0" standalone="no"?>
<!DOCTYPE svg PUBLIC "-//W3C//DTD SVG 20010904//EN"
 "http://www.w3.org/TR/2001/REC-SVG-20010904/DTD/svg10.dtd">
<svg version="1.0" xmlns="http://www.w3.org/2000/svg"
 width="1280.000000pt" height="1280.000000pt" viewBox="0 0 1280.000000 1280.000000"
 preserveAspectRatio="xMidYMid meet">
<metadata>
Created by potrace 1.15, written by Peter Selinger 2001-2017
</metadata>
<g transform="translate(0.000000,1280.000000) scale(0.100000,-0.100000)"
fill="#000000" stroke="none">
<path d="M6353 10963 c-64 -58 -368 -457 -517 -681 -335 -503 -580 -1036 -676
-1470 -63 -288 -85 -534 -77 -885 7 -323 31 -522 103 -875 14 -68 24 -126 21
-128 -2 -2 -55 20 -118 50 -532 255 -1120 227 -1569 -76 -279 -188 -456 -426
-531 -713 -33 -126 -34 -393 -2 -535 47 -212 154 -489 249 -650 47 -80 176
-230 216 -251 14 -8 29 -5 61 13 35 20 50 39 95 123 113 211 195 310 356 432
223 169 455 233 795 220 118 -4 163 -10 236 -32 303 -89 509 -242 624 -465 42
-82 85 -207 96 -283 l8 -49 -32 16 c-146 76 -311 -42 -311 -223 0 -96 88 -210
217 -283 29 -16 53 -35 53 -42 0 -27 -132 -276 -181 -339 -86 -113 -201 -185
-363 -227 -177 -45 -434 -4 -574 92 -71 49 -210 192 -280 290 -35 49 -67 88
-72 88 -4 0 -24 -18 -43 -39 -44 -49 -82 -164 -99 -296 -35 -279 79 -641 277
-874 167 -197 410 -319 703 -351 215 -23 440 31 638 156 52 33 86 49 88 41 2
-7 11 -51 20 -98 24 -129 59 -228 137 -385 107 -220 355 -575 453 -649 48 -37
71 -29 139 45 191 206 413 566 496 803 24 70 71 261 71 291 0 3 28 -13 63 -35
179 -116 364 -172 567 -172 313 1 622 139 802 359 252 309 341 725 228 1064
-19 58 -78 140 -101 140 -4 0 -34 -37 -65 -83 -84 -120 -253 -284 -334 -324
-110 -56 -206 -76 -360 -77 -127 -1 -140 1 -223 31 -48 17 -112 46 -143 64
-114 69 -227 218 -310 409 -20 45 -34 83 -32 84 2 2 25 16 52 32 70 40 176
142 197 189 27 58 25 147 -5 210 -55 119 -178 166 -287 110 l-30 -16 6 38 c65
382 301 631 720 759 86 27 99 28 300 28 180 0 225 -3 315 -23 141 -30 236 -70
352 -147 189 -125 316 -272 424 -486 37 -73 51 -91 88 -113 56 -33 59 -31 162
78 115 122 218 316 304 576 63 187 82 288 88 454 5 165 -6 256 -45 382 -125
398 -516 737 -982 849 -366 89 -770 37 -1130 -144 -46 -23 -85 -40 -87 -38 -2
3 10 69 26 149 36 172 76 439 90 602 21 243 12 638 -21 882 -93 694 -481 1473
-1141 2292 -126 156 -140 165 -195 116z"/>
</g>
</svg>
