<?xml version="1.0" standalone="no"?>
<!DOCTYPE svg PUBLIC "-//W3C//DTD SVG 20010904//EN"
 "http://www.w3.org/TR/2001/REC-SVG-20010904/DTD/svg10.dtd">
<svg version="1.0" xmlns="http://www.w3.org/2000/svg"
 width="1280.000000pt" height="1280.000000pt" viewBox="0 0 1280.000000 1280.000000"
 preserveAspectRatio="xMidYMid meet">
<metadata>
Created by potrace 1.15, written by Peter Selinger 2001-2017
</metadata>
<g transform="translate(0.000000,1280.000000) scale(0.100000,-0.100000)"
fill="#000000" stroke="none">
<path d="M5610 12568 c-128 -428 -229 -674 -307 -750 l-38 -37 -67 9 c-124 18
-234 -20 -338 -117 -98 -90 -170 -223 -200 -366 -7 -38 -16 -57 -23 -53 -531
234 -1062 100 -1537 -390 l-85 -87 -105 11 c-58 7 -121 12 -140 12 -55 -1
-112 -33 -195 -109 -113 -105 -127 -103 -280 54 -84 86 -109 106 -158 124 -32
11 -78 21 -103 21 -40 0 -45 2 -39 18 23 53 21 55 -87 116 -57 33 -124 74
-151 93 -47 33 -60 34 -32 4 7 -9 47 -75 88 -146 41 -72 78 -129 83 -129 5 1
21 4 35 8 26 6 26 4 32 -55 10 -93 48 -159 147 -251 146 -137 151 -157 57
-256 -124 -130 -134 -161 -114 -335 l13 -119 -78 -70 c-191 -173 -365 -418
-447 -631 -61 -159 -76 -245 -75 -432 1 -149 4 -182 27 -266 14 -53 37 -125
51 -160 14 -34 23 -66 21 -69 -3 -4 -27 -10 -54 -13 -170 -20 -377 -164 -451
-313 -36 -73 -50 -182 -32 -246 10 -36 9 -38 -33 -77 -64 -59 -241 -142 -430
-201 -161 -50 -278 -85 -404 -120 l-134 -37 189 -7 c104 -3 254 -11 334 -17
80 -6 237 -9 350 -7 201 3 206 4 262 31 131 64 197 205 216 459 l7 102 40 9
c58 13 193 1 261 -22 60 -21 134 -84 134 -115 0 -14 -20 -42 -226 -308 -395
-510 -537 -786 -449 -874 l26 -26 -27 -20 c-25 -20 -26 -25 -22 -88 6 -75 57
-194 148 -345 64 -105 261 -382 414 -580 129 -168 135 -184 84 -234 -56 -55
-126 -75 -265 -75 -67 -1 -124 2 -128 5 -3 4 -10 62 -15 130 -23 294 -104 426
-288 465 -79 16 -311 18 -547 4 -88 -5 -238 -10 -333 -11 -96 0 -172 -2 -170
-4 1 -1 89 -28 193 -60 466 -140 690 -231 772 -317 l32 -33 -9 -67 c-18 -124
20 -234 117 -338 90 -98 223 -170 366 -200 38 -7 57 -16 53 -23 -234 -531
-100 -1062 390 -1537 l87 -85 -11 -105 c-7 -58 -12 -121 -12 -140 1 -55 33
-112 109 -195 105 -113 103 -127 -54 -280 -86 -84 -106 -109 -124 -158 -11
-32 -21 -78 -21 -103 0 -40 -2 -45 -17 -39 -54 23 -56 21 -117 -87 -33 -57
-74 -124 -93 -150 -33 -48 -34 -61 -4 -33 9 7 75 47 146 88 72 41 129 78 129
83 -1 5 -4 21 -8 35 -6 26 -4 26 55 32 93 10 159 48 251 147 137 146 157 151
256 57 130 -123 160 -134 335 -114 l119 13 68 -75 c192 -213 465 -397 701
-474 250 -82 545 -72 790 27 34 14 66 23 69 21 4 -3 10 -27 13 -54 20 -171
163 -376 315 -452 64 -33 72 -34 179 -34 110 0 112 -1 142 -29 51 -49 143
-246 201 -431 50 -161 85 -278 120 -404 l37 -134 7 189 c3 104 11 254 17 334
6 80 9 237 7 350 -3 201 -4 206 -31 262 -64 131 -205 197 -459 216 l-102 7 -9
40 c-13 58 -1 193 22 261 21 60 84 134 115 134 8 0 48 -26 89 -57 41 -32 148
-114 237 -183 497 -384 769 -522 856 -435 l26 26 20 -27 c20 -25 25 -26 88
-22 75 6 194 57 345 148 105 64 382 261 580 414 168 129 184 135 234 84 55
-56 75 -126 75 -265 1 -67 -2 -124 -5 -128 -4 -3 -62 -10 -130 -15 -294 -23
-426 -104 -465 -288 -16 -79 -18 -311 -4 -547 5 -88 10 -238 11 -333 0 -96 2
-172 4 -170 1 1 30 95 64 208 129 428 230 676 308 752 l38 37 67 -9 c124 -18
234 20 338 117 98 90 170 223 200 366 7 38 16 57 23 53 531 -234 1062 -100
1537 390 l85 87 105 -11 c58 -7 121 -12 140 -12 55 1 112 33 195 109 113 105
127 103 280 -54 84 -86 109 -106 158 -124 32 -11 78 -21 103 -21 40 0 45 -2
39 -17 -23 -54 -21 -56 87 -117 57 -33 124 -74 151 -93 47 -33 60 -34 32 -4
-7 9 -47 75 -88 146 -41 72 -78 129 -83 129 -5 -1 -21 -4 -35 -8 -26 -6 -26
-4 -32 55 -10 93 -48 159 -147 251 -146 137 -151 157 -57 256 124 130 134 161
114 335 l-13 119 78 70 c191 173 365 418 447 631 61 159 76 245 75 432 -1 149
-4 182 -27 266 -14 53 -37 125 -51 160 -14 34 -23 66 -21 69 3 4 27 10 54 13
170 20 377 164 451 313 36 73 50 182 32 246 -10 36 -9 38 33 77 64 59 241 142
430 201 161 50 278 85 404 120 l134 37 -189 7 c-104 3 -254 11 -334 17 -80 6
-237 9 -350 7 -201 -3 -206 -4 -262 -31 -131 -64 -197 -205 -216 -459 l-7
-102 -40 -9 c-58 -13 -193 -1 -261 22 -60 21 -134 84 -134 115 0 14 20 42 226
308 395 510 537 786 449 874 l-26 26 27 20 c25 20 26 25 22 88 -6 75 -57 194
-148 345 -64 105 -261 382 -414 580 -129 168 -135 184 -84 234 56 55 126 75
265 75 67 1 124 -2 128 -5 3 -4 10 -62 15 -130 23 -294 104 -426 288 -465 79
-16 311 -18 547 -4 88 5 238 10 333 11 96 0 172 2 170 4 -1 1 -88 28 -193 60
-466 140 -690 231 -772 317 l-32 33 9 67 c18 124 -20 234 -117 338 -90 98
-223 170 -366 200 -38 7 -57 16 -53 23 234 531 100 1062 -390 1537 l-87 85 11
105 c7 58 12 121 12 140 -1 55 -33 112 -109 195 -105 113 -103 127 54 280 86
84 106 109 124 158 11 32 21 78 21 103 0 40 2 45 18 39 53 -23 55 -21 116 87
33 57 74 124 93 151 33 47 34 60 4 32 -9 -7 -75 -47 -146 -88 -72 -41 -129
-78 -129 -83 1 -5 4 -21 8 -35 6 -26 4 -26 -55 -32 -93 -10 -159 -48 -251
-147 -137 -146 -157 -151 -256 -57 -130 123 -160 134 -335 114 l-119 -13 -68
75 c-192 213 -465 397 -701 474 -250 82 -545 72 -790 -27 -34 -14 -66 -23 -69
-21 -4 3 -10 27 -13 54 -20 171 -163 376 -315 452 -64 33 -72 34 -179 34 -110
0 -112 1 -142 29 -51 49 -143 246 -201 431 -50 161 -85 278 -120 404 l-37 134
-7 -189 c-3 -104 -11 -254 -17 -334 -6 -80 -9 -237 -7 -350 3 -201 4 -206 31
-262 64 -131 205 -197 459 -216 l102 -7 9 -40 c13 -58 1 -193 -22 -261 -21
-60 -84 -134 -115 -134 -14 0 -42 20 -308 226 -402 312 -648 459 -789 471 -52
5 -60 3 -84 -21 l-27 -27 -20 27 c-20 25 -25 26 -88 22 -75 -6 -194 -57 -345
-148 -105 -64 -382 -261 -580 -414 -168 -129 -184 -135 -234 -84 -55 56 -75
126 -75 265 -1 67 2 124 5 128 4 3 62 10 130 15 294 23 426 104 465 288 16 79
18 311 4 547 -5 88 -10 238 -11 333 0 94 -1 172 -3 172 -1 0 -31 -96 -66 -212z
m624 -1230 c30 -9 62 -33 120 -92 74 -75 79 -79 93 -60 75 105 186 170 271
161 121 -13 191 -157 164 -336 -20 -138 -68 -175 -222 -175 -52 1 -127 6 -166
13 -53 9 -87 10 -130 2 -32 -6 -103 -11 -159 -11 -175 0 -225 45 -233 210 -11
226 90 337 262 288z m-1597 -353 c270 -44 443 -170 498 -364 36 -125 26 -239
-26 -310 -25 -35 -27 -41 -12 -43 115 -9 169 40 284 261 61 116 122 191 183
224 33 17 58 22 126 22 116 0 163 -24 308 -159 84 -79 132 -115 189 -143 76
-38 79 -38 213 -41 218 -6 276 17 460 185 131 119 180 145 280 151 150 9 229
-55 340 -273 94 -185 155 -245 246 -245 40 0 41 3 14 40 -50 71 -62 164 -35
279 44 184 178 310 395 371 121 33 297 46 448 32 416 -39 748 -215 943 -498
67 -97 149 -313 149 -391 0 -44 16 -22 34 47 9 38 43 120 74 182 70 138 97
162 176 152 132 -17 210 -65 373 -231 137 -139 184 -216 205 -332 9 -55 8 -69
-6 -95 -31 -59 -167 -131 -330 -176 -38 -11 -71 -21 -73 -23 -2 -3 16 -7 39
-11 134 -21 297 -93 414 -182 129 -98 226 -217 307 -379 95 -188 136 -361 144
-600 9 -307 -45 -506 -179 -651 -127 -137 -381 -185 -506 -94 -45 33 -56 25
-46 -33 17 -90 68 -136 263 -238 116 -61 191 -122 224 -183 17 -33 22 -58 22
-126 0 -115 -26 -164 -161 -309 -77 -83 -113 -131 -141 -188 -38 -76 -38 -79
-41 -213 -6 -218 18 -277 184 -460 119 -129 146 -179 152 -280 9 -150 -55
-229 -273 -339 -184 -94 -245 -155 -245 -246 0 -41 2 -42 40 -15 71 50 164 62
279 35 184 -44 310 -178 371 -395 33 -121 46 -297 32 -448 -45 -477 -273 -847
-624 -1011 -82 -39 -220 -81 -265 -81 -41 0 -24 -16 29 -29 68 -15 209 -76
275 -117 73 -46 86 -76 73 -161 -20 -124 -62 -188 -233 -356 -94 -92 -135
-125 -191 -152 -74 -37 -173 -60 -211 -51 -60 15 -142 153 -190 320 -14 50
-27 91 -29 93 -2 2 -6 -16 -10 -39 -39 -246 -203 -495 -423 -641 -217 -144
-446 -214 -734 -224 -132 -5 -186 -2 -270 12 -280 46 -448 168 -504 364 -35
124 -26 239 25 309 35 49 24 57 -50 41 -73 -16 -121 -69 -205 -229 -76 -144
-135 -219 -199 -253 -33 -17 -58 -22 -126 -22 -115 0 -164 26 -312 163 -86 80
-131 114 -188 141 -73 35 -79 36 -210 39 -218 6 -276 -18 -460 -185 -131 -119
-180 -145 -280 -151 -149 -9 -224 50 -335 266 -98 191 -158 252 -250 252 -41
0 -42 -2 -15 -40 69 -97 64 -260 -12 -402 -110 -206 -412 -313 -791 -280 -479
43 -852 271 -1016 624 -39 82 -81 220 -81 265 0 41 -16 24 -29 -29 -15 -68
-76 -209 -117 -275 -46 -72 -77 -87 -157 -73 -129 22 -195 65 -354 227 -137
139 -184 216 -205 332 -9 56 -9 68 7 98 31 57 152 122 313 169 47 13 87 26 89
28 2 2 -16 6 -39 10 -133 21 -293 91 -413 181 -209 158 -348 389 -421 705 -35
148 -44 395 -19 540 47 282 168 449 364 505 124 35 239 26 309 -25 45 -33 56
-25 46 33 -17 90 -68 136 -263 238 -116 61 -191 122 -224 183 -17 33 -22 58
-22 126 0 116 24 163 159 308 79 84 115 132 143 189 38 76 38 79 41 213 6 218
-17 276 -185 460 -119 131 -145 180 -151 280 -9 150 55 229 273 340 186 95
245 154 245 245 0 41 -2 42 -40 15 -97 -69 -260 -64 -402 12 -206 110 -313
412 -280 791 43 479 271 852 624 1016 82 39 220 81 265 81 13 0 23 5 23 10 0
6 -6 10 -14 10 -33 0 -180 56 -262 99 -107 56 -138 94 -129 156 23 147 63 215
229 379 92 91 141 131 192 158 84 44 190 66 233 48 56 -23 129 -154 176 -317
14 -48 27 -88 29 -90 2 -2 6 16 10 39 29 186 144 398 288 534 113 106 286 207
440 258 78 25 244 63 308 69 95 10 314 6 397 -8z m-2758 -4128 c67 -34 86 -78
85 -197 0 -52 -6 -127 -13 -166 -9 -53 -10 -87 -2 -130 6 -32 11 -103 11 -159
0 -175 -45 -225 -210 -233 -237 -11 -356 111 -276 283 15 32 48 73 92 114 66
60 68 63 49 77 -63 45 -126 120 -146 173 -49 131 12 229 162 261 71 15 197 3
248 -23z m9319 -41 c100 -27 152 -86 152 -173 0 -74 -36 -139 -116 -211 -66
-61 -68 -64 -49 -78 146 -108 201 -250 134 -349 -47 -69 -184 -107 -313 -87
-134 21 -171 70 -170 222 1 52 6 127 13 166 9 53 10 87 2 130 -6 32 -11 102
-11 156 0 146 29 200 120 226 52 15 178 14 238 -2z m-4882 -4867 c43 -7 79 -7
119 0 32 6 104 11 160 11 175 0 225 -45 233 -210 11 -237 -111 -356 -283 -276
-33 15 -73 47 -113 92 -61 66 -64 68 -78 49 -8 -11 -37 -44 -66 -72 -118 -121
-278 -120 -338 3 -62 126 -42 337 35 388 55 36 174 41 331 15z"/>
<path d="M4187 10625 c-335 -55 -569 -215 -697 -480 -60 -124 -88 -233 -100
-395 -12 -155 -16 -170 -39 -170 -24 0 -70 44 -192 184 -123 141 -216 222
-279 240 -44 13 -45 13 -48 -10 -8 -60 72 -157 316 -384 62 -58 112 -112 112
-121 0 -25 -21 -30 -165 -39 -154 -10 -210 -20 -319 -58 -123 -43 -219 -104
-317 -201 -163 -163 -242 -354 -270 -646 -17 -184 5 -345 62 -458 30 -57 110
-139 169 -171 27 -15 50 -25 50 -22 0 3 -9 27 -19 54 -35 88 -52 200 -53 333
0 337 102 539 331 658 76 39 114 52 371 132 74 23 160 52 190 66 59 26 59 24
-10 -27 -371 -281 -583 -592 -621 -912 -20 -174 18 -356 116 -548 30 -57 53
-104 52 -105 -1 0 -36 -17 -77 -37 -100 -50 -176 -112 -251 -206 -130 -162
-154 -265 -99 -435 53 -164 60 -215 60 -427 0 -229 -7 -278 -61 -448 -34 -106
-40 -136 -36 -184 15 -168 210 -403 407 -491 l49 -22 -40 -65 c-46 -77 -103
-219 -123 -310 -62 -278 8 -546 213 -820 70 -94 231 -255 344 -345 48 -37 87
-70 87 -72 0 -2 -17 5 -37 16 -21 10 -103 40 -183 65 -368 119 -416 142 -520
246 -116 115 -159 219 -181 437 -17 167 12 378 67 486 19 36 8 34 -62 -11 -99
-64 -165 -157 -200 -283 -21 -75 -29 -295 -15 -402 49 -368 208 -612 486 -747
124 -60 233 -88 395 -100 155 -12 170 -16 170 -39 0 -24 -44 -70 -184 -192
-141 -122 -217 -211 -238 -277 -16 -47 -16 -47 8 -50 60 -8 157 72 384 316 58
62 112 112 121 112 25 0 30 -21 39 -165 10 -154 20 -210 58 -319 43 -123 104
-219 201 -317 163 -163 354 -242 646 -270 184 -17 345 5 458 62 57 30 139 110
171 169 15 27 26 50 24 50 -2 0 -26 -9 -53 -19 -92 -35 -204 -52 -336 -53
-337 0 -539 102 -658 331 -39 76 -52 114 -132 371 -23 74 -52 159 -66 189 -13
30 -22 53 -20 51 3 -3 42 -52 87 -110 211 -267 448 -450 685 -529 242 -81 478
-57 735 74 57 30 104 53 105 52 0 -1 17 -36 37 -77 50 -100 112 -176 206 -251
162 -130 265 -154 435 -99 164 53 215 60 427 60 229 0 278 -7 448 -61 106 -34
136 -40 184 -36 166 14 404 210 489 402 11 25 24 45 29 45 5 0 35 -16 67 -35
71 -43 215 -99 303 -119 277 -62 550 9 820 212 95 72 256 233 345 345 37 48
70 87 72 87 2 0 -5 -17 -16 -37 -10 -21 -40 -103 -65 -183 -119 -367 -142
-416 -246 -521 -113 -114 -219 -158 -437 -180 -167 -17 -378 12 -485 67 -16 8
-28 11 -28 6 0 -21 80 -131 121 -165 97 -84 201 -116 394 -124 226 -8 406 27
580 113 172 86 291 206 375 379 60 124 88 233 100 395 12 155 16 170 39 170
24 0 70 -44 192 -184 123 -141 216 -222 279 -240 44 -13 45 -13 48 10 8 60
-72 157 -316 384 -62 58 -112 112 -112 121 0 25 21 30 165 39 154 10 210 20
319 58 123 43 219 104 317 201 163 163 242 354 270 646 24 261 -25 449 -146
564 -41 39 -135 101 -135 89 0 -2 9 -26 19 -53 35 -92 52 -204 53 -336 0 -337
-102 -539 -331 -658 -76 -39 -114 -52 -371 -132 -74 -23 -160 -52 -190 -65
-55 -24 -55 -24 -25 -1 177 132 356 307 447 433 119 167 188 335 209 506 20
174 -18 356 -116 548 -30 57 -53 104 -52 105 1 0 36 17 77 37 100 50 176 112
251 206 130 162 154 265 99 435 -53 164 -60 215 -60 427 0 229 7 278 61 448
34 106 40 136 36 184 -14 166 -210 404 -402 489 -25 11 -45 24 -45 29 0 5 16
35 35 67 43 71 99 215 119 303 62 278 -8 546 -213 820 -70 94 -231 255 -344
345 -48 37 -87 70 -87 72 0 2 17 -5 38 -16 20 -10 102 -40 182 -65 367 -119
416 -142 521 -246 115 -113 158 -217 180 -437 17 -167 -12 -378 -67 -485 -8
-16 -11 -28 -6 -28 21 0 131 80 165 121 84 97 116 201 124 394 8 226 -27 406
-113 580 -86 172 -205 290 -379 376 -121 59 -229 86 -395 99 -155 12 -170 16
-170 39 0 24 44 70 184 192 141 123 222 216 240 279 13 44 13 45 -10 48 -60 8
-157 -72 -384 -316 -58 -62 -112 -112 -121 -112 -25 0 -30 21 -39 165 -10 151
-20 206 -55 312 -42 126 -100 217 -200 319 -166 167 -354 247 -650 275 -261
24 -449 -25 -564 -146 -39 -41 -101 -135 -89 -135 2 0 26 9 53 19 92 35 204
52 336 53 337 0 539 -102 658 -331 39 -76 52 -114 132 -371 23 -74 52 -160 65
-190 24 -55 24 -55 1 -25 -132 177 -307 356 -433 447 -166 119 -333 188 -504
208 -174 22 -362 -19 -558 -120 -53 -27 -96 -48 -97 -47 0 1 -17 36 -37 77
-50 100 -112 176 -206 251 -162 130 -265 154 -435 99 -164 -53 -215 -60 -427
-60 -229 0 -278 7 -448 61 -106 34 -136 40 -184 36 -166 -14 -404 -210 -489
-402 -11 -25 -24 -45 -29 -45 -5 0 -35 16 -67 35 -70 42 -212 98 -308 122
-101 24 -295 22 -397 -5 -273 -73 -529 -262 -778 -574 -29 -38 -55 -68 -57
-68 -2 0 5 17 16 38 10 20 40 102 65 182 119 368 142 416 246 520 115 115 220
159 437 181 167 17 378 -12 486 -67 36 -19 34 -8 -11 62 -64 99 -157 164 -283
200 -77 22 -340 27 -452 9z m1851 -561 c62 -30 96 -72 114 -137 17 -64 -5
-148 -64 -247 -42 -70 -161 -204 -223 -249 l-30 -22 35 17 c99 48 259 180 340
281 34 41 79 111 101 154 21 44 41 79 43 79 8 0 -7 -150 -21 -205 -8 -33 -41
-123 -73 -200 -53 -127 -84 -215 -75 -215 2 0 26 16 55 35 28 19 80 43 115 54
56 18 68 18 107 6 47 -14 126 -53 166 -81 12 -9 22 -12 22 -7 0 15 -33 107
-83 233 -60 150 -77 218 -77 309 l0 75 36 -74 c49 -103 108 -182 201 -271 73
-69 189 -156 253 -189 29 -15 24 -9 -49 51 -75 60 -167 179 -210 268 -29 63
-35 86 -35 140 0 78 17 116 71 160 156 129 419 46 513 -162 40 -89 50 -149 60
-357 10 -189 24 -269 62 -344 18 -35 22 -38 33 -23 6 9 15 65 18 124 12 203
75 387 163 477 118 119 256 120 556 1 328 -131 638 -355 843 -610 41 -51 104
-116 141 -145 302 -237 585 -678 684 -1064 41 -160 21 -266 -65 -352 -94 -94
-250 -148 -476 -164 -141 -10 -156 -14 -139 -36 34 -40 235 -84 389 -84 180 0
314 -34 409 -104 97 -72 146 -168 146 -291 0 -58 -5 -81 -28 -129 -71 -145
-212 -162 -395 -49 -72 45 -195 157 -240 218 l-22 30 17 -35 c9 -19 34 -60 55
-90 110 -161 238 -279 381 -351 44 -22 78 -42 77 -44 -2 -1 -47 1 -99 6 -103
9 -149 22 -313 92 -100 43 -207 80 -207 72 0 -1 16 -26 35 -55 19 -28 43 -80
54 -115 18 -56 18 -68 6 -107 -14 -47 -53 -126 -82 -167 l-18 -24 30 7 c17 4
71 23 120 42 264 103 276 106 380 111 l100 5 -80 -40 c-146 -72 -291 -203
-392 -353 -63 -93 -86 -138 -46 -89 61 76 98 112 169 166 196 147 352 159 444
33 108 -149 35 -390 -148 -487 -87 -46 -166 -61 -377 -72 -194 -9 -273 -24
-349 -62 -35 -18 -38 -22 -23 -33 9 -6 65 -15 124 -18 201 -12 388 -76 476
-163 120 -118 121 -259 2 -553 -135 -337 -353 -639 -610 -846 -51 -41 -116
-104 -145 -141 -215 -274 -607 -540 -961 -654 -234 -76 -354 -67 -455 35 -94
94 -148 250 -164 477 -5 72 -12 133 -14 136 -14 13 -36 -13 -55 -63 -30 -81
-51 -213 -51 -329 -2 -350 -144 -548 -395 -550 -58 -1 -80 4 -128 28 -146 71
-164 212 -50 395 45 72 157 195 218 240 l30 22 -35 -17 c-99 -48 -259 -180
-340 -281 -34 -41 -79 -111 -101 -155 -22 -44 -42 -78 -45 -76 -9 10 16 196
34 248 11 30 40 103 65 163 43 100 80 207 72 207 -1 0 -26 -15 -54 -34 -27
-19 -78 -43 -113 -55 -58 -19 -67 -20 -109 -7 -48 15 -127 54 -168 83 l-24 18
7 -30 c4 -17 23 -70 42 -120 103 -264 106 -276 111 -380 l5 -100 -40 80 c-72
146 -203 291 -353 392 -93 63 -138 86 -89 46 76 -61 112 -98 166 -169 147
-196 159 -352 33 -444 -149 -108 -390 -35 -487 148 -46 87 -61 166 -72 377 -9
194 -24 273 -62 349 -18 35 -22 38 -33 23 -6 -9 -15 -65 -18 -124 -16 -269
-112 -475 -254 -543 -106 -51 -287 -18 -543 99 -310 141 -566 334 -766 577
-46 55 -108 120 -139 143 -30 23 -95 82 -144 130 -220 220 -407 523 -506 817
-82 243 -74 367 30 470 94 94 248 147 475 163 73 5 134 12 137 15 14 14 -11
36 -62 55 -81 30 -213 51 -329 51 -350 2 -548 144 -550 395 -1 58 4 80 28 128
70 144 205 163 387 54 69 -41 203 -161 248 -222 l22 -30 -17 35 c-48 99 -180
259 -281 340 -41 34 -111 79 -154 101 -44 21 -79 41 -79 43 0 8 150 -7 205
-21 33 -8 123 -41 200 -73 127 -53 215 -84 215 -75 0 2 -15 26 -34 54 -19 27
-43 78 -55 113 -18 53 -19 69 -10 103 12 41 57 133 85 173 9 12 12 22 7 22
-15 0 -107 -33 -233 -83 -150 -60 -218 -77 -309 -77 l-75 0 80 39 c144 70 290
201 391 352 63 93 86 138 46 89 -91 -113 -199 -200 -310 -253 -55 -25 -80 -31
-133 -31 -76 0 -115 18 -159 71 -122 148 -53 400 138 501 85 46 172 62 381 72
189 10 269 24 344 62 35 18 38 22 23 33 -9 7 -65 15 -124 18 -201 11 -386 74
-475 161 -110 109 -120 220 -43 452 122 362 368 722 650 949 51 41 116 104
145 141 212 270 592 530 944 649 246 82 368 74 472 -30 87 -86 147 -247 159
-425 11 -161 16 -190 30 -190 43 0 84 167 95 390 9 186 24 260 67 350 85 175
295 254 461 174z"/>
<path d="M6255 9275 c-236 -58 -582 -286 -826 -542 -200 -211 -334 -431 -400
-658 -13 -42 -28 -79 -35 -82 -17 -6 -68 22 -99 55 -56 58 -69 99 -70 210 l0
104 39 13 c77 27 146 124 146 205 0 41 -4 44 -50 40 -64 -5 -161 -84 -194
-158 l-18 -39 -71 -7 c-132 -11 -223 30 -246 112 -20 68 85 291 192 407 76 83
139 115 226 115 153 -1 214 -74 231 -276 9 -120 21 -142 52 -104 55 68 109
217 116 322 6 101 -11 169 -54 215 l-34 36 -123 -6 c-415 -21 -756 -185 -923
-443 -21 -32 -51 -62 -80 -79 -68 -40 -184 -155 -238 -235 -132 -196 -211
-455 -218 -711 -3 -109 3 -123 77 -163 33 -17 57 -21 140 -21 83 0 113 5 180
28 106 36 187 83 183 105 -2 13 -20 19 -78 25 -178 19 -226 37 -276 103 -24
31 -29 48 -33 111 -5 103 15 149 98 232 36 36 92 81 123 99 79 47 212 103 257
109 103 14 170 -92 156 -244 -7 -73 -7 -74 -47 -94 -89 -46 -175 -160 -166
-222 3 -19 9 -22 49 -21 69 3 144 45 179 101 17 26 30 55 30 64 0 43 184 32
265 -16 69 -40 131 -124 108 -146 -4 -4 -44 -17 -88 -29 -241 -67 -482 -218
-710 -445 -129 -129 -212 -230 -308 -375 -137 -208 -222 -427 -200 -513 7 -27
7 -49 0 -73 -30 -98 72 -349 239 -591 268 -386 635 -674 976 -765 87 -24 91
-31 57 -87 -25 -41 -51 -64 -104 -93 -34 -19 -56 -22 -143 -23 l-104 0 -13 39
c-27 79 -122 146 -206 146 -40 0 -43 -4 -39 -50 5 -64 84 -161 158 -194 l39
-18 7 -71 c11 -132 -30 -223 -112 -246 -71 -21 -302 91 -413 199 -82 80 -101
116 -107 202 -11 162 65 231 274 248 59 4 111 13 117 19 37 37 -192 140 -335
149 -101 6 -169 -11 -215 -54 l-36 -34 6 -123 c21 -416 180 -748 442 -922 32
-21 63 -53 80 -81 39 -67 155 -184 233 -236 188 -126 393 -194 653 -217 158
-14 179 -7 223 74 31 59 30 213 -3 310 -47 139 -96 215 -121 189 -5 -5 -13
-54 -19 -109 -5 -55 -15 -117 -21 -137 -14 -48 -53 -94 -101 -118 -52 -27
-158 -27 -217 0 -55 25 -157 128 -200 202 -50 84 -104 216 -109 262 -10 102
99 168 252 151 64 -6 66 -8 86 -47 46 -89 160 -175 222 -166 19 3 22 9 21 49
-3 69 -45 144 -101 179 -26 17 -55 30 -64 30 -43 0 -32 184 16 265 40 69 124
131 146 108 4 -4 17 -44 29 -88 100 -361 412 -748 820 -1018 209 -138 427
-222 514 -199 25 6 49 7 63 1 38 -14 75 -11 169 17 331 96 779 450 1011 799
89 134 161 292 194 423 13 52 14 53 42 48 38 -8 76 -38 110 -88 37 -56 48
-104 45 -199 l-3 -81 -39 -13 c-75 -26 -140 -113 -147 -199 -4 -44 10 -56 55
-46 76 17 157 85 190 158 l18 40 73 7 c140 13 247 -46 247 -138 0 -87 -110
-297 -206 -392 -74 -74 -121 -98 -204 -103 -156 -11 -225 68 -242 274 -4 59
-13 111 -19 117 -37 37 -140 -192 -149 -335 -6 -101 11 -169 54 -215 l34 -36
123 6 c308 16 553 99 751 257 73 58 138 130 178 197 11 18 50 53 88 78 77 51
177 153 233 238 123 186 203 451 209 698 3 109 -3 123 -77 163 -59 31 -213 30
-310 -3 -93 -32 -184 -78 -192 -97 -10 -26 8 -33 97 -39 157 -12 244 -53 276
-132 21 -49 17 -160 -6 -211 -25 -55 -128 -157 -202 -200 -84 -50 -216 -104
-262 -109 -102 -10 -168 99 -151 252 6 64 8 66 47 86 89 46 175 160 166 222
-3 19 -9 22 -51 20 -91 -3 -188 -76 -204 -155 -5 -24 -11 -28 -58 -33 -130
-17 -279 54 -315 150 -9 25 -8 31 6 42 10 7 25 13 34 13 25 0 164 48 242 83
289 132 604 418 821 747 138 209 222 427 199 514 -6 25 -7 49 -1 63 14 38 11
75 -17 169 -79 273 -343 643 -629 882 -180 151 -342 243 -538 306 -116 37
-124 49 -82 106 32 43 96 87 147 100 21 6 75 10 119 8 l81 -3 13 -39 c27 -77
123 -146 205 -146 41 0 44 4 40 50 -5 64 -84 161 -158 194 l-39 18 -7 71 c-11
132 30 223 112 246 40 12 160 -29 269 -90 104 -59 214 -167 236 -234 32 -93
14 -209 -39 -257 -42 -37 -114 -59 -220 -68 -59 -4 -111 -13 -117 -19 -37 -37
192 -140 335 -149 101 -6 169 11 215 54 l36 34 -6 123 c-21 415 -185 756 -443
923 -32 21 -62 51 -79 80 -40 68 -155 184 -235 238 -196 132 -456 211 -711
218 -109 3 -123 -3 -163 -77 -31 -59 -30 -213 3 -310 48 -139 96 -215 121
-189 5 5 13 58 19 117 11 126 35 184 94 231 34 27 48 31 113 34 104 6 150 -13
233 -97 36 -36 81 -92 99 -123 47 -79 103 -212 109 -257 14 -103 -92 -170
-244 -156 -73 7 -74 7 -94 47 -46 89 -160 175 -222 166 -19 -3 -22 -9 -20 -50
3 -91 78 -189 155 -205 24 -5 28 -11 33 -58 13 -99 -25 -214 -92 -277 -32 -30
-83 -53 -94 -41 -4 4 -17 43 -29 87 -118 425 -542 898 -1015 1131 -142 70
-261 103 -318 88 -25 -7 -49 -8 -64 -2 -31 12 -76 10 -138 -6z m69 -329 c73
-33 103 -33 185 0 37 15 88 27 116 28 47 1 50 -1 53 -25 5 -39 -32 -120 -156
-347 l-110 -204 -18 34 c-9 18 -56 108 -105 199 -122 232 -156 318 -131 343
13 14 106 -2 166 -28z m-274 -390 c49 -25 98 -74 122 -120 11 -21 33 -90 49
-153 49 -192 83 -233 190 -233 105 0 140 43 189 229 33 125 56 175 101 220 44
45 83 62 157 71 256 32 461 -144 783 -672 l102 -168 161 -101 c390 -246 557
-394 639 -565 30 -64 32 -76 32 -174 0 -116 -10 -146 -69 -208 -44 -47 -91
-69 -223 -103 -192 -49 -233 -83 -233 -190 0 -105 43 -140 229 -189 125 -33
175 -56 220 -101 45 -44 62 -83 71 -157 32 -256 -144 -461 -672 -783 l-168
-102 -102 -161 c-249 -395 -388 -553 -558 -635 -72 -34 -80 -36 -180 -36 -89
0 -111 3 -145 22 -89 48 -126 110 -170 282 -45 179 -80 221 -186 221 -105 0
-140 -43 -189 -229 -33 -125 -56 -175 -101 -220 -44 -45 -83 -62 -157 -71
-256 -32 -461 144 -783 672 l-102 168 -146 92 c-402 253 -567 397 -650 568
-34 72 -36 80 -36 180 0 89 3 111 22 145 48 89 110 126 282 170 179 45 221 80
221 186 0 105 -43 140 -229 189 -125 33 -175 56 -220 101 -45 44 -62 83 -71
157 -32 256 144 461 672 783 l168 102 113 179 c258 411 419 581 612 645 57 18
210 12 255 -11z m-2112 -1900 c31 -13 148 -73 260 -133 l203 -111 -208 -110
c-218 -115 -327 -160 -357 -149 -16 6 -18 15 -13 60 3 28 17 78 31 111 32 73
33 105 1 181 -27 66 -41 136 -31 160 8 22 48 19 114 -9z m5036 -66 c-1 -36
-11 -76 -28 -114 -33 -73 -33 -103 0 -185 15 -37 27 -88 28 -116 1 -47 -1 -50
-25 -53 -39 -5 -119 31 -347 155 l-203 110 201 107 c237 125 304 155 345 153
30 -2 30 -3 29 -57z m-2476 -2397 c115 -218 160 -327 149 -357 -6 -16 -15 -18
-60 -13 -28 3 -78 17 -111 31 -73 32 -103 33 -183 1 -35 -14 -87 -27 -116 -28
-48 -2 -52 0 -55 22 -6 37 22 100 147 333 64 120 117 218 118 218 0 0 51 -93
111 -207z"/>
<path d="M5937 8410 c-3 -8 -11 -33 -17 -55 -20 -65 -69 -156 -116 -215 -63
-77 -152 -152 -331 -276 -142 -99 -213 -158 -269 -224 -12 -14 -46 -46 -75
-71 -32 -27 -104 -116 -178 -220 -213 -297 -325 -395 -516 -450 l-60 -17 30
-12 c77 -30 209 -62 319 -76 189 -24 181 -17 85 -82 -93 -64 -88 -82 10 -33
46 24 74 31 117 31 l56 0 -62 -67 c-103 -109 -156 -203 -145 -255 9 -40 93
-164 153 -225 l51 -53 -62 0 c-50 0 -73 6 -116 30 -54 30 -88 39 -76 20 4 -6
41 -34 83 -63 73 -49 75 -52 47 -54 -103 -9 -232 -27 -307 -44 -101 -22 -190
-55 -168 -62 157 -51 244 -101 335 -194 62 -62 116 -132 241 -312 71 -103 142
-186 199 -232 11 -9 41 -41 66 -70 27 -32 116 -104 220 -178 297 -213 395
-325 450 -516 l17 -60 12 30 c30 77 61 208 76 319 9 66 18 132 21 145 3 20 12
12 61 -60 64 -93 82 -88 33 10 -24 46 -31 74 -31 117 l0 56 74 -69 c95 -87
178 -138 226 -138 48 0 156 66 238 144 l62 59 0 -59 c0 -46 -7 -73 -30 -119
-55 -109 -35 -105 43 8 l52 77 7 -80 c12 -130 38 -274 65 -358 14 -43 28 -75
31 -73 2 3 15 37 29 77 45 135 146 261 298 374 39 28 121 87 184 131 103 71
186 142 232 199 9 11 41 41 70 66 32 27 104 116 178 220 213 297 325 395 516
450 l60 17 -30 12 c-77 30 -205 61 -317 75 -191 26 -183 18 -87 83 93 64 88
82 -10 33 -46 -24 -74 -31 -117 -31 l-56 0 62 67 c71 76 136 170 145 212 11
52 -59 174 -156 271 l-50 50 63 0 c51 0 73 -6 117 -30 54 -30 88 -39 76 -20
-4 6 -41 34 -83 63 l-77 52 80 7 c183 16 452 78 428 98 -4 4 -28 12 -53 19
-67 19 -158 67 -220 117 -77 63 -152 152 -276 331 -99 142 -158 213 -224 269
-14 12 -46 46 -71 75 -27 32 -116 104 -220 178 -297 213 -395 325 -450 516
l-17 60 -12 -30 c-30 -77 -62 -209 -76 -319 -24 -189 -17 -181 -82 -85 -64 93
-82 88 -33 -10 24 -46 31 -74 31 -117 l0 -56 -67 62 c-109 103 -203 156 -255
145 -41 -10 -167 -95 -226 -154 l-52 -52 0 63 c0 51 6 73 30 117 30 54 39 88
20 76 -6 -4 -34 -41 -63 -83 -49 -73 -52 -75 -54 -47 -9 102 -27 232 -43 305
-21 100 -56 192 -63 170z m552 -813 c76 -46 160 -140 209 -235 32 -61 49 -83
67 -88 31 -8 31 -10 0 -79 l-24 -55 33 25 c18 13 65 38 105 55 l73 30 -6 -32
c-12 -59 -47 -119 -85 -142 -20 -13 -66 -40 -103 -60 -138 -75 -267 -196 -327
-307 l-28 -50 -30 53 c-70 123 -194 238 -350 324 -83 45 -110 68 -133 114 -19
38 -35 100 -26 100 19 0 134 -53 162 -75 18 -14 35 -25 37 -25 3 0 -3 17 -13
38 -33 70 -34 81 -6 88 20 5 36 25 68 88 50 98 155 207 238 248 61 30 63 30
139 -15z m-831 -678 c45 -22 62 -44 126 -161 75 -138 196 -267 307 -327 l50
-28 -53 -30 c-123 -70 -238 -194 -324 -350 -45 -83 -68 -110 -114 -133 -38
-19 -100 -35 -100 -26 0 19 53 134 75 162 14 18 25 35 25 37 0 3 -17 -3 -38
-13 -48 -23 -93 -35 -91 -24 6 33 -7 46 -83 86 -103 52 -210 156 -251 241
l-28 58 28 52 c44 82 154 186 250 235 62 32 84 49 89 67 8 31 10 31 79 0 l55
-24 -25 33 c-13 18 -38 65 -55 105 l-30 73 32 -6 c18 -4 52 -16 76 -27z m1592
16 c0 -18 -54 -133 -75 -161 -14 -18 -25 -35 -25 -37 0 -3 17 3 38 13 48 23
93 35 91 24 -6 -33 7 -46 84 -85 101 -53 208 -156 250 -242 l28 -58 -28 -52
c-44 -82 -154 -186 -250 -235 -62 -32 -84 -49 -89 -67 -8 -31 -10 -31 -79 0
l-55 24 25 -33 c13 -18 38 -65 55 -105 l30 -73 -32 6 c-59 12 -119 47 -142 85
-13 20 -40 66 -60 103 -76 139 -210 281 -313 331 -24 12 -43 24 -43 27 0 3 15
11 33 18 99 36 248 191 337 349 51 91 74 119 115 140 47 25 105 40 105 28z
m-822 -847 c69 -123 193 -238 349 -324 83 -45 110 -68 133 -114 19 -38 35
-100 26 -100 -19 0 -134 53 -162 75 -18 14 -35 25 -37 25 -3 0 3 -17 13 -37
33 -71 34 -82 6 -89 -20 -5 -36 -25 -68 -88 -52 -100 -155 -208 -241 -249
l-58 -28 -52 28 c-82 44 -186 154 -235 250 -32 62 -49 84 -67 89 -31 8 -31 10
0 79 l24 55 -33 -25 c-47 -35 -176 -88 -176 -71 0 23 29 96 49 124 10 15 58
49 107 75 171 94 302 212 361 324 16 29 29 53 30 53 0 0 14 -24 31 -52z"/>
<path d="M6309 7305 c-45 -30 -105 -109 -87 -113 7 -2 36 -51 65 -110 28 -59
65 -123 82 -142 l31 -35 39 42 c21 23 60 87 87 142 27 55 55 102 62 103 18 4
-51 92 -93 118 -48 30 -139 28 -186 -5z"/>
<path d="M5557 6564 c-67 -52 -87 -89 -87 -159 0 -41 6 -67 21 -92 26 -42 113
-110 117 -91 1 7 51 36 110 65 59 29 123 66 142 83 l35 30 -42 39 c-23 21 -87
60 -142 87 -55 27 -102 55 -103 62 -2 9 -19 1 -51 -24z"/>
<path d="M7190 6578 c0 -7 -49 -36 -108 -65 -59 -28 -123 -65 -142 -82 l-35
-31 42 -39 c23 -21 87 -60 142 -87 55 -27 102 -55 103 -62 4 -18 92 51 118 93
14 23 20 50 20 90 0 67 -21 109 -78 153 -52 40 -62 45 -62 30z"/>
<path d="M6357 5849 c-20 -22 -57 -85 -84 -139 -26 -55 -54 -101 -61 -102 -18
-4 51 -92 93 -118 45 -28 136 -27 182 1 43 27 110 113 91 117 -8 1 -33 44 -56
95 -43 92 -104 187 -121 187 -5 0 -25 -18 -44 -41z"/>
</g>
</svg>
