<?xml version="1.0" standalone="no"?>
<!DOCTYPE svg PUBLIC "-//W3C//DTD SVG 20010904//EN"
 "http://www.w3.org/TR/2001/REC-SVG-20010904/DTD/svg10.dtd">
<svg version="1.0" xmlns="http://www.w3.org/2000/svg"
 width="1104.000000pt" height="1280.000000pt" viewBox="0 0 1104.000000 1280.000000"
 preserveAspectRatio="xMidYMid meet">
<metadata>
Created by potrace 1.15, written by Peter Selinger 2001-2017
</metadata>
<g transform="translate(0.000000,1280.000000) scale(0.100000,-0.100000)"
fill="#000000" stroke="none">
<path d="M4855 12786 c-150 -29 -240 -78 -331 -180 -32 -36 -66 -66 -75 -66
-29 0 -167 -39 -236 -66 -190 -76 -298 -190 -321 -340 -16 -98 -2 -155 76
-309 l69 -139 12 54 c18 85 42 115 121 153 39 19 62 22 180 22 143 0 234 -17
369 -67 l64 -24 -159 0 c-209 1 -355 -31 -445 -96 -23 -17 -72 -45 -108 -62
-58 -27 -76 -31 -151 -30 -75 0 -104 6 -240 52 -199 66 -255 75 -393 66 -96
-6 -108 -9 -92 -20 10 -8 100 -59 200 -115 169 -94 184 -104 195 -138 18 -56
76 -129 127 -161 139 -88 302 -54 502 106 45 36 100 88 124 115 35 40 48 49
75 49 42 0 319 -139 442 -221 217 -145 305 -318 270 -532 -37 -235 -141 -362
-343 -420 -66 -19 -96 -21 -339 -19 l-267 1 -6 -53 c-12 -98 18 -198 84 -280
41 -52 133 -124 204 -161 31 -16 57 -32 57 -35 0 -9 -228 -131 -293 -158 -80
-33 -203 -35 -289 -5 l-57 20 -3 -31 c-18 -187 142 -332 490 -446 62 -21 114
-39 117 -41 7 -8 -110 -89 -185 -128 -184 -96 -379 -113 -573 -49 -101 33
-417 193 -489 248 -142 107 -233 223 -458 580 -78 124 -171 267 -207 318 -76
110 -113 186 -148 306 -48 168 -44 346 12 499 25 65 27 68 87 96 77 37 134 86
179 154 125 187 119 493 -14 777 -90 192 -154 257 -344 351 -381 187 -782 142
-1059 -120 -74 -71 -125 -146 -187 -275 -88 -183 -139 -362 -264 -915 -95
-421 -156 -630 -250 -856 -104 -253 -267 -475 -450 -614 l-66 -50 53 -16 c257
-77 452 -52 626 80 34 26 101 94 148 151 77 94 89 104 119 104 36 0 45 -12 45
-64 0 -27 -82 -149 -470 -696 -352 -498 -467 -667 -459 -676 8 -10 25 -5 77
23 332 178 586 396 775 666 34 49 67 96 73 104 9 13 16 3 37 -51 l27 -66 -40
-81 c-126 -250 -324 -542 -533 -784 -100 -117 -342 -360 -465 -466 l-72 -64
22 -18 c44 -34 183 -97 237 -107 114 -21 261 -1 360 49 124 64 396 306 602
536 71 79 105 109 137 122 23 9 44 14 46 12 2 -2 7 -29 11 -59 l6 -55 -253
-340 c-549 -738 -709 -937 -1021 -1273 -84 -90 -153 -169 -155 -176 -2 -8 29
-17 95 -28 l98 -16 95 71 c534 396 864 709 1062 1007 67 101 152 260 176 328
10 30 13 32 62 32 41 0 56 -5 77 -26 23 -23 25 -31 21 -97 -4 -72 -5 -73 -85
-186 -44 -63 -145 -216 -224 -340 -352 -555 -442 -690 -571 -850 -107 -134
-259 -292 -366 -381 -83 -70 -284 -211 -316 -224 -16 -5 68 -90 142 -143 35
-25 98 -59 140 -76 138 -54 360 -49 524 13 99 37 371 272 540 467 157 180 328
424 493 702 91 152 134 194 194 189 46 -4 61 -33 61 -120 l0 -67 -105 -165
c-474 -750 -897 -1297 -1467 -1899 -171 -180 -171 -194 0 -96 920 529 1473
1112 1799 1897 38 90 57 122 90 153 49 45 68 43 84 -10 10 -34 6 -46 -60 -193
-357 -795 -811 -1511 -1389 -2191 -74 -87 -132 -160 -130 -162 2 -3 33 -18 69
-34 188 -84 388 -84 566 0 71 34 282 172 368 243 346 279 605 612 965 1236 84
146 175 298 203 338 54 78 110 132 139 132 16 0 14 -9 -13 -87 -78 -219 -205
-514 -301 -693 -28 -52 -120 -215 -204 -361 -160 -280 -204 -369 -229 -465
-15 -58 -20 -145 -9 -156 9 -10 113 48 185 102 202 152 379 398 649 905 155
292 213 387 265 441 39 41 76 56 89 36 3 -5 -10 -34 -29 -64 -67 -112 -137
-250 -285 -559 -83 -173 -182 -372 -221 -444 -175 -320 -371 -569 -578 -736
-44 -35 -77 -67 -73 -70 4 -4 91 -34 195 -69 103 -34 187 -65 186 -68 0 -4
-223 -189 -495 -411 l-495 -404 -172 -43 c-169 -43 -173 -43 -219 -28 -127 41
-239 150 -368 360 -130 211 -215 286 -338 301 -53 6 -234 -25 -324 -56 -76
-26 -172 -75 -228 -116 -95 -69 -218 -216 -309 -367 l-22 -37 57 19 c132 46
214 19 309 -100 58 -73 151 -146 227 -179 110 -47 184 -55 468 -48 155 4 271
3 280 -3 12 -7 12 -16 -3 -64 -33 -103 -141 -223 -257 -285 -99 -53 -188 -71
-340 -70 -98 1 -146 -3 -176 -14 -231 -85 -372 -386 -350 -751 6 -110 28 -232
64 -355 20 -71 21 -71 47 12 54 176 155 247 348 247 243 0 336 66 390 276 30
116 109 261 194 357 80 90 293 260 308 246 2 -3 0 -137 -5 -299 l-10 -293 -64
-67 c-71 -76 -99 -135 -122 -260 -23 -126 -19 -159 30 -270 57 -129 140 -253
217 -324 67 -63 97 -83 238 -163 93 -53 93 -53 88 -25 -4 15 -13 59 -21 97
-33 151 -16 226 81 347 91 115 107 153 107 258 0 111 -18 182 -65 255 -69 108
-72 134 -77 543 l-3 362 54 0 c116 0 218 -55 277 -151 44 -72 119 -142 187
-176 57 -28 61 -28 238 -28 150 0 187 -3 220 -18 82 -37 114 -88 124 -197 4
-48 10 -66 22 -68 12 -2 29 29 67 125 71 180 83 224 89 339 7 129 -13 224 -73
342 -93 185 -153 232 -294 232 -83 0 -114 -8 -275 -70 -191 -74 -269 -86 -343
-54 -34 14 -35 17 -19 27 378 237 676 465 910 699 l107 108 74 -24 c106 -33
193 -96 338 -243 94 -96 129 -125 134 -114 3 9 54 147 114 306 220 591 343
879 503 1180 223 419 416 625 586 625 l54 0 -6 -112 c-7 -120 -24 -213 -58
-318 -86 -268 -303 -600 -620 -949 -57 -62 -128 -140 -158 -173 l-54 -59 39 6
c337 54 513 120 814 305 l129 79 -50 -112 c-28 -62 -64 -133 -81 -159 -50 -79
-131 -144 -247 -200 -58 -28 -126 -66 -151 -83 -25 -18 -108 -67 -184 -109
-77 -43 -162 -95 -190 -115 -124 -92 -224 -232 -295 -416 -50 -128 -59 -160
-40 -153 161 62 701 227 854 262 160 36 287 47 300 26 9 -14 -95 -221 -163
-324 -62 -94 -181 -230 -272 -310 l-55 -48 -150 6 c-82 3 -207 9 -277 12 -99
5 -143 3 -200 -10 -89 -20 -202 -75 -283 -138 -66 -50 -198 -182 -269 -268
l-45 -55 27 -12 c15 -6 140 -39 277 -72 380 -92 513 -130 590 -165 l70 -32
-54 -31 c-70 -41 -214 -88 -332 -110 -74 -13 -153 -17 -369 -17 -151 -1 -322
1 -380 4 -99 4 -110 3 -204 -29 -104 -36 -221 -101 -300 -166 -156 -130 -265
-353 -266 -541 0 -61 17 -173 29 -186 3 -4 48 31 99 77 185 167 269 206 462
213 99 3 149 0 240 -17 216 -39 355 -53 592 -58 254 -6 371 3 513 39 208 52
377 153 477 287 23 31 45 60 49 65 9 11 22 -19 93 -224 75 -215 140 -345 221
-448 72 -91 181 -178 282 -226 l61 -29 94 46 c220 109 327 251 448 597 28 80
60 169 72 198 l21 53 25 -38 c104 -158 295 -279 525 -333 252 -59 707 -49
1095 24 130 24 212 29 297 16 151 -23 239 -70 399 -215 l95 -86 11 38 c6 21
14 79 17 128 20 329 -231 641 -603 750 l-89 26 -168 -12 c-300 -21 -604 -3
-790 47 -65 18 -191 72 -228 98 -22 15 -22 16 36 42 92 40 193 70 447 130 128
30 284 69 346 86 100 27 111 32 100 47 -54 70 -179 208 -226 248 -220 191
-363 236 -655 208 -84 -8 -194 -15 -245 -15 l-93 0 -123 123 c-72 72 -147 159
-183 212 -56 84 -183 322 -183 345 0 13 109 13 186 0 167 -29 367 -85 717
-200 147 -48 267 -84 267 -81 0 19 -52 158 -88 234 -50 106 -104 187 -173 256
-67 66 -128 108 -294 201 -71 39 -151 87 -176 105 -26 18 -78 46 -116 62 -94
40 -174 95 -229 157 -42 48 -72 101 -143 259 -35 78 -42 79 102 -12 195 -122
367 -203 537 -250 79 -22 302 -62 309 -55 2 2 -34 43 -81 91 -285 292 -528
614 -656 868 -95 190 -138 344 -149 534 -6 107 -6 108 18 114 28 7 99 -7 143
-30 101 -51 208 -162 319 -332 203 -310 387 -715 661 -1456 53 -143 101 -271
107 -285 11 -25 13 -24 108 77 163 172 261 243 384 278 l59 17 126 -125 c214
-211 376 -341 689 -550 117 -78 209 -145 205 -149 -5 -5 -33 -14 -64 -20 -69
-14 -143 3 -353 82 -125 48 -148 53 -220 53 -105 1 -160 -24 -221 -102 -48
-61 -102 -165 -131 -251 -28 -85 -25 -290 6 -390 18 -58 106 -284 116 -298 1
-1 10 0 19 4 12 4 16 19 16 53 0 69 17 118 57 162 53 59 103 70 303 67 164 -3
165 -3 219 26 66 34 154 116 188 173 54 93 141 144 256 151 l77 5 0 -332 c0
-401 -13 -494 -84 -578 -35 -42 -60 -142 -60 -248 0 -109 15 -149 99 -250 85
-103 100 -141 99 -250 0 -52 -8 -117 -18 -154 -9 -35 -15 -65 -13 -68 9 -8
226 120 287 169 92 75 155 160 231 312 77 156 80 175 55 316 -23 125 -51 184
-122 260 l-64 67 -10 299 c-5 164 -8 299 -6 301 9 9 190 -131 258 -199 124
-125 186 -227 244 -405 51 -159 94 -220 179 -253 17 -7 102 -18 190 -25 173
-15 213 -26 271 -77 38 -34 99 -147 110 -205 3 -18 10 -33 14 -33 11 0 58 185
75 296 39 256 -5 512 -115 677 -57 85 -115 136 -197 175 -54 25 -66 27 -180
24 -154 -3 -240 14 -352 69 -108 53 -193 137 -244 239 -21 40 -37 83 -37 97
l0 23 303 -2 c267 -3 309 -1 366 15 123 35 177 71 301 196 97 98 122 119 162
130 49 14 113 6 183 -23 19 -8 35 -13 35 -10 0 2 -27 46 -61 96 -184 278 -344
394 -628 455 -245 52 -348 8 -486 -210 -119 -186 -146 -226 -189 -274 -55 -61
-133 -116 -210 -147 l-57 -23 -168 42 c-92 23 -174 46 -182 50 -8 5 -234 189
-503 409 l-489 400 29 13 c16 6 105 38 197 69 135 45 166 59 155 68 -7 7 -57
50 -110 95 -109 93 -210 203 -308 336 -141 190 -225 342 -460 827 -95 196
-203 410 -240 475 -37 65 -65 121 -63 126 11 18 52 4 85 -30 50 -53 110 -150
218 -353 310 -585 469 -814 675 -980 61 -48 182 -120 203 -120 17 0 15 81 -3
156 -21 91 -66 181 -237 479 -236 410 -375 699 -487 1013 -38 104 -39 112 -21
112 31 0 92 -62 152 -153 30 -45 124 -201 208 -347 242 -420 388 -632 599
-872 262 -296 613 -557 831 -617 90 -25 217 -27 308 -6 69 16 212 73 212 83 0
4 -54 70 -121 147 -565 658 -1018 1369 -1386 2175 -85 184 -85 185 -71 224 7
22 18 41 25 43 7 3 32 -14 56 -36 34 -31 53 -62 82 -133 80 -197 220 -458 338
-633 321 -476 810 -904 1456 -1274 99 -56 127 -68 138 -59 12 9 -11 37 -124
152 -375 380 -740 826 -1104 1346 -122 174 -186 270 -361 544 l-108 169 0 66
c0 69 13 107 43 125 13 9 28 5 70 -16 49 -26 58 -38 144 -180 324 -537 579
-842 908 -1088 133 -100 270 -138 459 -127 161 9 284 62 408 177 40 37 71 70
68 72 -3 3 -57 39 -121 81 -330 218 -564 483 -919 1037 -291 454 -425 661
-475 733 -53 76 -55 80 -55 146 0 90 18 111 95 111 l55 0 17 -42 c32 -83 113
-229 183 -332 199 -292 505 -583 1023 -971 l118 -88 85 12 c92 13 114 19 114
31 0 5 -51 62 -113 127 -300 315 -527 596 -1022 1263 -153 206 -282 380 -287
387 -15 18 1 123 19 123 37 0 98 -49 201 -163 269 -298 490 -479 649 -533 159
-55 333 -33 476 59 l68 43 -108 96 c-204 180 -456 453 -615 663 -109 145 -232
342 -342 548 l-47 88 27 69 27 70 44 -67 c189 -288 471 -541 790 -709 67 -36
95 -46 103 -38 8 8 -111 183 -457 670 -466 657 -468 659 -468 709 l0 50 40 3
c39 3 42 1 93 -66 115 -153 239 -247 378 -288 82 -25 234 -23 344 4 144 35
140 30 67 85 -89 65 -221 206 -291 311 -32 49 -87 147 -121 220 -112 231 -175
437 -289 936 -157 686 -221 881 -355 1082 -100 149 -274 266 -475 321 -120 32
-324 30 -457 -5 -133 -36 -236 -81 -338 -148 -109 -71 -136 -105 -211 -255
-97 -195 -137 -375 -120 -545 16 -150 58 -248 144 -333 47 -46 146 -107 174
-107 29 0 122 -147 146 -229 48 -166 -7 -318 -217 -601 -456 -613 -819 -956
-1225 -1159 -112 -56 -191 -71 -378 -71 -201 0 -330 38 -422 124 -53 50 -106
139 -117 197 l-7 36 104 6 c125 6 197 25 303 76 137 68 234 182 295 350 l31
84 -48 -7 c-26 -3 -133 -9 -238 -12 -269 -9 -401 11 -502 79 -54 36 -93 101
-93 156 l0 34 98 -6 c189 -13 339 23 410 96 44 45 71 113 78 197 l7 74 -61
-48 c-95 -75 -150 -86 -217 -42 -26 17 -106 121 -155 203 l-35 57 -4 151 c-5
224 32 446 98 588 82 177 112 366 75 483 -10 33 -37 87 -60 120 -61 89 -74
118 -74 165 0 47 28 100 62 116 13 6 48 14 79 16 123 11 198 83 294 282 34 71
61 132 60 133 -2 2 -43 -8 -92 -22 -376 -110 -762 -113 -1055 -7 -46 16 -137
50 -204 75 -66 25 -165 54 -220 66 -128 27 -334 35 -429 16z"/>
</g>
</svg>
