<?xml version="1.0" standalone="no"?>
<!DOCTYPE svg PUBLIC "-//W3C//DTD SVG 20010904//EN"
 "http://www.w3.org/TR/2001/REC-SVG-20010904/DTD/svg10.dtd">
<svg version="1.0" xmlns="http://www.w3.org/2000/svg"
 width="1280.000000pt" height="1280.000000pt" viewBox="0 0 1280.000000 1280.000000"
 preserveAspectRatio="xMidYMid meet">
<metadata>
Created by potrace 1.15, written by Peter Selinger 2001-2017
</metadata>
<g transform="translate(0.000000,1280.000000) scale(0.100000,-0.100000)"
fill="#000000" stroke="none">
<path d="M5550 12603 c-213 -33 -428 -117 -615 -240 -281 -185 -618 -535 -853
-885 -92 -136 -292 -478 -280 -478 2 0 113 -7 248 -15 135 -8 255 -15 267 -15
25 0 87 81 271 357 227 340 396 511 619 625 98 51 215 92 313 109 87 15 304
13 415 -4 l90 -14 235 159 c129 88 241 166 249 173 12 12 -8 24 -120 78 -246
120 -408 158 -658 156 -86 -1 -167 -3 -181 -6z"/>
<path d="M7240 12459 c-334 -43 -682 -191 -954 -407 -102 -81 -233 -214 -302
-307 -59 -80 -133 -210 -124 -218 3 -2 61 -44 130 -92 69 -49 146 -103 171
-122 l47 -33 43 72 c57 97 216 255 339 337 187 124 444 235 642 278 117 25
396 25 487 0 95 -26 183 -73 248 -132 l58 -53 59 30 c32 16 120 54 195 83 75
29 168 67 206 85 l70 32 -40 34 c-179 157 -270 219 -427 294 -122 58 -251 95
-406 115 -120 16 -335 18 -442 4z"/>
<path d="M4115 12085 c-180 -25 -303 -64 -480 -152 -499 -248 -845 -674 -984
-1214 -62 -238 -62 -409 0 -594 75 -225 197 -424 353 -580 102 -101 212 -192
222 -183 2 3 23 119 45 257 l39 251 -54 66 c-65 79 -119 185 -140 274 -32 135
-15 359 40 527 108 333 371 647 658 788 84 42 221 85 270 85 14 0 29 14 45 43
13 23 61 98 106 167 67 102 96 136 156 184 41 32 84 63 97 69 12 6 22 14 22
19 0 12 -293 8 -395 -7z"/>
<path d="M8665 11899 c-496 -55 -913 -383 -1075 -844 -32 -91 -82 -276 -76
-282 1 -2 110 37 241 85 l239 89 55 93 c92 153 246 302 386 373 98 49 175 69
290 74 279 13 535 -117 723 -366 31 -42 57 -77 58 -79 1 -1 82 -13 180 -27 98
-13 201 -29 228 -35 53 -12 215 -76 231 -91 13 -13 25 -11 25 3 0 19 -169 315
-254 443 -120 182 -266 312 -465 414 -238 121 -537 179 -786 150z"/>
<path d="M6995 11826 c-137 -51 -216 -88 -264 -125 l-23 -18 37 -48 c48 -64
79 -127 115 -233 62 -185 62 -336 0 -405 -24 -28 -35 -31 -95 -35 -37 -3 -93
1 -124 8 -202 44 -591 275 -1139 675 -128 94 -241 176 -251 183 -16 11 -37 -7
-196 -160 l-178 -173 207 -140 c530 -359 610 -412 741 -493 178 -109 472 -260
595 -305 158 -58 230 -70 398 -64 118 3 159 9 209 26 167 60 297 221 354 436
16 60 21 112 22 210 1 190 -34 349 -114 509 -34 68 -126 198 -144 202 -5 2
-73 -21 -150 -50z"/>
<path d="M8657 11350 c-114 -26 -210 -49 -213 -52 -3 -3 20 -68 52 -144 184
-448 231 -564 280 -704 62 -172 104 -320 104 -364 l0 -28 234 3 c129 2 237 7
241 11 16 16 -121 605 -182 782 -19 56 -61 155 -93 221 -66 134 -186 326 -203
324 -7 -1 -105 -22 -220 -49z"/>
<path d="M5417 10833 c-245 -421 -343 -560 -527 -743 -245 -245 -493 -383
-792 -441 -54 -10 -112 -19 -128 -19 -16 0 -31 -3 -33 -7 -3 -5 -8 -117 -12
-250 l-7 -243 48 6 c474 58 890 279 1305 693 175 175 292 319 436 536 99 149
205 333 199 344 -9 13 -383 271 -394 271 -5 0 -48 -66 -95 -147z"/>
<path d="M9378 10731 l77 -231 35 -5 c237 -35 408 -87 605 -184 531 -261 1016
-763 1291 -1336 181 -378 252 -717 224 -1075 l-5 -64 220 -143 c196 -127 220
-141 227 -123 36 98 59 515 39 715 -53 526 -281 1074 -628 1505 -209 261 -502
518 -813 713 -381 240 -799 385 -1302 452 l-47 6 77 -230z"/>
<path d="M8345 10905 c-378 -72 -765 -214 -1250 -460 -178 -90 -582 -311 -619
-338 -17 -13 -6 -24 160 -159 99 -80 188 -151 199 -158 19 -11 48 3 275 129
343 191 550 290 790 378 237 87 497 155 649 169 38 4 74 10 80 13 14 9 -6 79
-69 236 -27 66 -54 141 -60 168 -7 26 -17 47 -24 46 -6 0 -65 -11 -131 -24z"/>
<path d="M3428 10893 l-127 -4 -10 -52 c-31 -154 -80 -441 -77 -445 3 -2 44 1
93 8 48 6 179 14 289 17 312 9 503 -14 1001 -122 142 -31 269 -58 284 -61 22
-5 30 2 61 48 20 29 66 89 103 133 97 116 159 205 149 215 -15 14 -272 106
-384 138 -204 58 -330 83 -513 102 -118 12 -577 31 -677 28 -36 -1 -122 -4
-192 -5z"/>
<path d="M2432 10714 c-287 -76 -520 -215 -771 -459 -387 -377 -677 -837 -859
-1366 -201 -582 -234 -1114 -98 -1555 19 -61 51 -187 71 -280 21 -93 48 -203
62 -244 25 -77 90 -210 103 -210 14 0 206 206 288 309 l83 103 -24 37 c-200
302 -253 817 -142 1366 119 587 419 1158 770 1469 107 94 181 145 284 196 72
36 186 75 241 82 25 3 25 4 57 253 17 138 33 267 36 288 3 20 2 37 -1 36 -4 0
-49 -11 -100 -25z"/>
<path d="M5689 10187 c-141 -227 -135 -217 -117 -217 28 0 208 -89 294 -145
192 -124 331 -244 664 -570 124 -122 256 -246 293 -277 l69 -56 39 13 c55 20
127 31 339 55 101 12 186 22 187 24 5 4 -562 563 -707 696 -380 350 -671 568
-868 649 l-69 29 -124 -201z"/>
<path d="M3456 10319 c-2 -8 -7 -54 -10 -104 -3 -49 -26 -212 -51 -362 -63
-382 -103 -668 -111 -791 l-7 -105 84 6 c46 4 154 10 240 13 l156 7 6 107 c7
117 30 277 106 738 28 166 54 345 57 397 l7 95 -184 0 c-101 0 -208 3 -236 6
-40 5 -54 3 -57 -7z"/>
<path d="M9885 10148 c3 -73 7 -323 10 -556 4 -391 6 -426 24 -467 25 -56 87
-118 182 -182 77 -52 258 -147 265 -140 4 4 -15 1259 -19 1263 -6 6 -451 214
-458 214 -4 0 -6 -60 -4 -132z"/>
<path d="M7921 10179 c-106 -43 -196 -81 -198 -83 -9 -9 65 -130 120 -197 187
-226 569 -373 1061 -409 82 -6 285 -7 497 -3 l359 6 0 254 0 255 -107 -6
c-596 -32 -781 -31 -987 4 -217 37 -341 91 -455 196 -38 35 -75 64 -82 63 -8
0 -101 -36 -208 -80z"/>
<path d="M10497 9663 c11 -180 10 -344 -4 -369 -10 -18 -8 -23 16 -37 45 -27
146 -141 191 -215 61 -104 83 -173 84 -272 1 -119 -11 -146 -77 -160 -84 -19
-211 -24 -276 -11 -147 29 -316 127 -454 264 -46 46 -154 179 -246 301 l-163
218 -231 -6 c-128 -4 -248 -9 -269 -12 l-36 -5 25 -57 c39 -89 139 -266 218
-387 198 -303 422 -534 630 -651 329 -183 814 -227 1060 -96 234 126 317 460
199 810 -78 233 -267 511 -448 662 -71 59 -204 150 -219 150 -5 0 -5 -54 0
-127z"/>
<path d="M5660 9428 c-385 -350 -505 -478 -641 -683 -69 -103 -197 -359 -228
-455 -64 -201 -45 -378 59 -533 105 -157 262 -264 537 -363 52 -19 98 -34 103
-34 6 0 10 13 10 29 0 35 26 117 73 231 20 47 39 108 43 137 l6 52 -43 11
c-82 21 -184 77 -227 124 -140 151 -77 383 193 711 109 131 369 386 573 560
l163 139 -23 21 c-181 171 -318 295 -325 294 -4 0 -127 -109 -273 -241z"/>
<path d="M2206 9600 c-88 -23 -198 -78 -274 -135 -83 -63 -225 -214 -305 -326
-129 -180 -299 -561 -322 -722 l-7 -48 264 132 264 132 48 91 c114 213 224
348 323 393 73 33 107 26 176 -37 107 -98 147 -221 127 -395 -17 -155 -52
-274 -139 -474 -38 -88 -166 -331 -218 -413 l-23 -37 51 -48 c29 -26 78 -82
109 -123 72 -93 145 -164 159 -156 6 4 38 43 72 87 356 467 515 1128 383 1587
-60 206 -195 376 -367 460 -112 56 -201 64 -321 32z"/>
<path d="M4995 9004 c-82 -16 -1394 -107 -1740 -122 l-170 -7 -44 -258 c-24
-141 -42 -260 -39 -263 8 -7 524 21 838 46 135 11 389 31 565 45 176 14 325
27 331 29 6 3 14 20 18 38 8 44 151 254 329 486 7 9 0 12 -29 11 -22 -1 -48
-3 -59 -5z"/>
<path d="M7440 8950 c-262 -20 -671 -119 -914 -220 -42 -18 -76 -36 -74 -41 2
-4 94 -89 205 -189 l203 -181 97 30 c289 90 518 126 748 118 406 -14 712 -139
1449 -594 93 -57 170 -103 171 -101 2 2 24 44 49 95 47 94 106 256 106 291 0
38 -239 228 -438 349 -130 78 -371 197 -507 251 -402 159 -750 220 -1095 192z"/>
<path d="M5727 8728 c-140 -164 -154 -184 -139 -196 9 -7 132 -89 272 -181
140 -93 291 -198 335 -234 81 -66 242 -227 306 -305 l34 -42 200 39 c110 21
234 45 275 52 41 6 79 15 83 19 11 10 -149 204 -269 326 -177 179 -408 366
-671 542 -100 67 -257 162 -268 162 -2 0 -73 -82 -158 -182z"/>
<path d="M2060 8541 c-340 -137 -691 -284 -807 -337 l-73 -33 0 -295 c0 -163
2 -296 4 -296 3 0 83 44 178 97 95 53 313 165 483 249 171 84 322 163 337 176
39 33 187 414 195 503 3 36 4 65 2 65 -2 0 -146 -58 -319 -129z"/>
<path d="M7515 8377 l-180 -9 0 -187 c0 -184 0 -187 -28 -244 -32 -64 -66 -94
-149 -132 -95 -43 -224 -63 -643 -101 -104 -9 -191 -17 -192 -18 -2 -1 -34
-103 -72 -227 -60 -197 -67 -225 -52 -231 26 -11 539 -9 678 3 380 32 647 122
794 270 81 80 142 197 163 309 8 41 17 189 21 328 l7 252 -83 -2 c-46 -1 -165
-6 -264 -11z"/>
<path d="M9615 8377 c-2 -7 -15 -61 -30 -122 -73 -302 -153 -502 -417 -1036
l-211 -427 134 -241 c74 -132 136 -240 139 -240 9 -1 297 601 389 811 205 470
382 927 380 985 0 22 -378 288 -384 270z"/>
<path d="M3481 8294 c-112 -8 -206 -16 -208 -18 -3 -2 -9 -141 -14 -308 -14
-425 2 -670 62 -963 82 -394 304 -878 536 -1166 100 -122 321 -324 420 -383
17 -9 50 67 99 221 20 65 48 140 61 168 l25 49 -22 15 c-76 51 -294 330 -383
492 -159 289 -279 696 -317 1078 -19 194 -10 693 15 809 6 26 26 26 -274 6z"/>
<path d="M5900 8245 c0 -9 -54 -176 -120 -373 -132 -390 -214 -653 -225 -721
l-7 -43 228 6 c126 4 240 9 254 12 22 4 28 14 47 87 11 45 57 181 101 302 44
121 88 256 97 300 l18 80 -189 182 c-104 101 -192 183 -196 183 -5 0 -8 -7 -8
-15z"/>
<path d="M9943 7649 l-90 -219 109 -76 c233 -161 520 -411 711 -619 95 -104
195 -231 211 -268 3 -7 17 2 36 23 32 36 260 348 260 356 0 10 -401 432 -531
559 -212 206 -413 362 -564 438 l-51 25 -91 -219z"/>
<path d="M1723 7738 l-221 -110 56 -47 c249 -208 472 -586 553 -940 28 -122
36 -343 16 -441 -9 -41 -18 -82 -21 -90 -4 -11 19 -29 79 -64 52 -30 130 -91
207 -161 79 -73 125 -109 130 -101 17 30 78 251 93 341 70 409 -59 907 -340
1311 -65 92 -236 310 -296 376 l-34 37 -222 -111z"/>
<path d="M10795 7811 c-110 -20 -285 -68 -299 -81 -7 -7 126 -159 348 -398
l21 -22 110 16 c194 29 353 -6 531 -115 305 -188 505 -541 555 -980 18 -157
10 -208 -51 -327 l-51 -102 52 -68 c76 -100 106 -173 140 -335 16 -79 31 -145
33 -146 6 -7 144 147 179 200 298 448 245 1152 -127 1711 -220 330 -550 556
-936 641 -117 26 -380 29 -505 6z"/>
<path d="M482 7407 c-206 -254 -312 -559 -312 -899 0 -511 254 -966 656 -1176
250 -129 563 -169 855 -109 110 23 263 67 276 80 9 10 -26 74 -58 103 -19 18
-81 64 -139 104 -58 40 -130 96 -160 125 l-55 53 -115 7 c-438 26 -699 194
-781 502 -43 158 -26 403 45 649 l32 112 -90 256 c-49 141 -93 256 -96 256 -4
0 -30 -28 -58 -63z"/>
<path d="M1624 7202 c-91 -75 -282 -279 -443 -472 -225 -268 -441 -552 -441
-578 0 -19 146 -165 221 -222 l80 -60 46 32 c99 71 291 300 611 725 84 111
174 225 201 255 l48 53 -122 155 c-67 85 -127 156 -133 158 -5 1 -36 -19 -68
-46z"/>
<path d="M9926 7194 c-56 -74 -94 -164 -153 -369 -55 -190 -55 -190 -60 -360
-15 -465 89 -963 269 -1295 78 -144 167 -267 311 -434 l34 -40 199 108 c109
59 201 110 203 112 2 2 -21 30 -51 63 -102 110 -187 260 -276 491 -129 333
-194 655 -196 970 -1 212 15 307 69 415 l32 64 -162 160 c-89 89 -167 161
-173 161 -6 0 -27 -21 -46 -46z"/>
<path d="M11397 7173 c-4 -3 -7 -14 -7 -24 0 -9 -12 -52 -26 -95 -83 -249
-272 -510 -684 -949 -62 -66 -150 -163 -195 -215 l-82 -95 103 -210 c57 -115
105 -214 107 -219 8 -25 166 85 253 176 248 261 623 817 831 1233 53 104 60
87 -99 230 -79 71 -155 139 -169 152 -14 13 -28 20 -32 16z"/>
<path d="M6980 7147 c-146 -11 -266 -21 -268 -22 -1 -1 -11 -58 -23 -126 -27
-167 -51 -260 -111 -419 -58 -156 -86 -214 -124 -260 -24 -28 -26 -35 -14 -54
32 -53 243 -316 252 -316 23 0 208 199 261 280 106 164 191 358 236 538 11 42
29 145 41 227 12 83 24 153 26 157 2 4 1 8 -3 10 -5 2 -127 -5 -273 -15z"/>
<path d="M8200 7139 c-147 -38 -319 -137 -527 -303 -56 -44 -102 -85 -103 -90
0 -8 245 -247 323 -316 l38 -33 108 106 c120 118 167 146 249 147 108 0 172
-59 262 -245 134 -274 287 -783 347 -1152 17 -110 19 -113 44 -113 38 0 124
28 222 72 48 22 115 44 148 51 l61 11 -7 75 c-10 111 -41 269 -80 407 -55 193
-254 676 -380 924 -202 394 -418 534 -705 459z"/>
<path d="M6015 7070 c-214 -20 -412 -71 -632 -162 -68 -28 -123 -52 -123 -55
0 -9 333 -403 340 -403 4 0 31 13 61 29 87 47 223 90 320 102 90 11 306 0 417
-21 l43 -8 33 67 c59 116 97 239 103 327 4 50 2 84 -4 87 -22 13 -218 37 -340
41 -70 3 -168 1 -218 -4z"/>
<path d="M4383 7055 c-92 -26 -147 -61 -266 -171 l-117 -107 43 -81 c24 -45
81 -152 127 -239 l84 -159 24 49 c61 121 147 182 270 191 133 9 268 -61 428
-224 138 -140 256 -333 280 -458 3 -20 7 -36 9 -36 2 0 238 66 442 123 l72 20
-17 22 c-113 146 -155 204 -252 349 -200 299 -322 436 -483 541 -106 68 -271
148 -352 170 -87 23 -228 28 -292 10z"/>
<path d="M7226 6540 c-43 -122 -76 -222 -75 -224 2 -1 26 -10 52 -20 84 -31
162 -123 282 -331 92 -160 113 -187 138 -179 105 32 246 114 365 211 l42 35
-116 170 c-192 283 -230 333 -301 397 -68 63 -215 145 -278 157 l-30 5 -79
-221z"/>
<path d="M5935 6449 c-115 -27 -216 -52 -223 -54 -28 -10 92 -262 209 -437
174 -260 412 -509 561 -584 28 -14 51 -24 53 -22 7 7 50 121 96 256 27 79 56
157 64 173 l15 29 -52 26 c-67 33 -190 159 -280 285 -66 91 -154 254 -181 334
-9 26 -20 41 -33 42 -10 1 -113 -21 -229 -48z"/>
<path d="M1643 6397 c-15 -17 -198 -254 -265 -343 -13 -18 309 -325 547 -524
208 -174 622 -478 846 -623 107 -69 299 -180 304 -175 1 1 32 77 68 168 58
144 96 267 97 307 0 7 -36 31 -80 53 -405 203 -898 578 -1386 1052 l-111 108
-20 -23z"/>
<path d="M4726 6288 c-150 -256 -325 -954 -326 -1296 l0 -103 36 -15 c19 -8
100 -30 179 -49 124 -30 181 -47 256 -79 14 -6 15 -1 8 41 -13 80 -10 276 7
394 8 62 56 274 105 471 49 198 87 363 84 367 -2 5 -76 76 -164 160 l-160 152
-25 -43z"/>
<path d="M11406 6092 c-89 -126 -135 -201 -130 -208 5 -6 30 -37 56 -69 136
-169 246 -454 293 -760 25 -160 23 -435 -3 -585 -43 -242 -116 -407 -235 -537
l-39 -42 53 -263 c29 -145 55 -267 59 -271 20 -23 318 267 418 409 118 164
217 400 261 620 42 206 37 463 -13 654 -20 76 -57 213 -132 495 -30 110 -146
349 -242 495 -70 107 -188 260 -200 259 -4 0 -69 -89 -146 -197z"/>
<path d="M7046 6118 c-192 -193 -346 -490 -422 -816 -35 -147 -44 -363 -20
-483 51 -258 231 -441 501 -509 44 -11 108 -23 143 -26 l62 -7 64 134 c63 134
137 289 143 300 2 3 -26 9 -62 13 -194 20 -283 110 -301 305 -19 199 115 549
294 769 l44 54 -44 47 c-24 25 -100 106 -167 179 -68 72 -128 132 -133 132 -5
0 -51 -42 -102 -92z"/>
<path d="M8425 6119 c-253 -184 -701 -409 -905 -455 -57 -13 -71 -20 -75 -38
-3 -11 -30 -124 -60 -250 -30 -126 -53 -231 -51 -234 3 -2 42 1 88 7 271 39
750 197 1046 345 84 42 218 123 251 152 4 4 -199 516 -208 525 -3 3 -42 -20
-86 -52z"/>
<path d="M3567 5928 c-196 -461 -420 -1353 -444 -1764 l-6 -101 59 -6 c32 -4
149 -7 259 -8 l200 -1 2 74 c8 254 39 423 185 1010 l121 486 -168 196 c-92
108 -169 196 -170 196 -2 0 -18 -37 -38 -82z"/>
<path d="M5765 5823 c-113 -40 -297 -72 -490 -84 -99 -7 -181 -13 -182 -14 -2
-1 -12 -97 -23 -215 -15 -168 -17 -216 -7 -222 20 -12 107 -29 183 -35 171
-14 500 55 722 152 209 90 214 93 202 116 -21 38 -84 101 -161 160 -73 55
-159 142 -159 160 0 11 -1 11 -85 -18z"/>
<path d="M366 5473 c-4 -21 -9 -108 -13 -193 -12 -318 41 -575 176 -856 271
-562 779 -893 1444 -939 l87 -6 0 39 c0 21 14 92 30 158 17 65 33 146 36 179
l6 60 -90 17 c-312 60 -556 190 -782 417 -233 234 -367 483 -417 780 l-18 102
-205 126 c-113 69 -215 132 -226 140 -20 13 -22 12 -28 -24z"/>
<path d="M9720 5308 c-266 -176 -838 -388 -1325 -489 -85 -18 -155 -37 -155
-43 0 -6 -20 -116 -44 -245 l-43 -233 71 7 c328 31 868 172 1225 319 210 86
561 278 561 307 0 10 -208 430 -213 428 -1 0 -36 -23 -77 -51z"/>
<path d="M5875 5260 c-88 -26 -193 -57 -232 -69 l-73 -22 0 -87 c-1 -114 -15
-224 -36 -264 -42 -84 -140 -152 -297 -207 -281 -98 -529 -47 -1147 237 l-195
90 -12 -92 c-6 -50 -21 -136 -33 -191 -11 -55 -23 -131 -27 -170 l-5 -70 63
-38 c204 -120 646 -231 1032 -258 124 -9 206 -9 338 0 217 14 338 38 443 89
208 100 308 276 335 589 15 175 24 513 15 512 -5 0 -81 -22 -169 -49z"/>
<path d="M7944 5196 c-132 -34 -245 -66 -252 -70 -7 -4 -12 -30 -12 -60 0
-141 -57 -343 -149 -531 -107 -218 -233 -387 -432 -580 -263 -255 -571 -444
-894 -548 -60 -19 -127 -38 -147 -42 -23 -4 -38 -13 -38 -22 0 -36 51 -107
151 -209 71 -72 117 -129 132 -162 l23 -50 120 54 c482 217 844 461 1145 770
395 408 578 821 596 1347 3 92 4 167 2 166 -2 0 -112 -29 -245 -63z"/>
<path d="M11375 5151 c-537 -240 -1215 -672 -1496 -951 -149 -149 -221 -268
-238 -397 -36 -261 211 -485 662 -603 121 -32 387 -80 400 -73 4 2 7 107 7
233 l0 230 -22 4 c-13 3 -66 8 -119 11 -331 21 -478 119 -404 270 88 181 556
470 1205 745 107 45 196 84 198 85 3 3 -57 497 -61 502 -2 1 -61 -24 -132 -56z"/>
<path d="M1940 5134 c-55 -11 -156 -47 -220 -79 -167 -84 -307 -228 -436 -448
-30 -51 -54 -97 -54 -103 0 -6 84 -81 187 -165 257 -212 233 -194 244 -178 49
81 197 276 249 329 139 143 240 147 284 12 55 -171 57 -580 6 -1132 -10 -113
-22 -257 -26 -321 l-7 -117 49 -36 c105 -77 336 -175 415 -176 23 0 26 51 45
685 8 292 18 591 23 666 9 155 0 317 -24 434 -58 282 -240 524 -454 603 -65
24 -216 38 -281 26z"/>
<path d="M9390 4490 c-30 -10 -135 -45 -234 -76 l-178 -57 6 -46 c31 -235 25
-535 -15 -769 -32 -189 -150 -661 -232 -927 -32 -104 -33 -110 -15 -117 10 -4
85 -15 166 -23 81 -9 192 -22 247 -30 55 -7 103 -11 106 -7 10 10 94 365 123
517 76 400 116 845 116 1308 0 281 8 260 -90 227z"/>
<path d="M10823 4236 c-117 -62 -215 -115 -219 -118 -3 -3 13 -45 36 -92 56
-118 115 -301 136 -421 23 -132 23 -341 0 -459 -57 -297 -226 -542 -483 -703
-68 -42 -72 -47 -77 -86 -13 -97 -38 -508 -32 -514 4 -4 35 -1 69 5 204 41
491 269 757 603 186 233 261 370 312 574 20 79 23 115 23 285 -1 178 -3 205
-29 314 -15 65 -43 164 -63 220 -63 183 -196 506 -207 506 -6 -1 -107 -52
-223 -114z"/>
<path d="M5051 4053 c-278 -3 -302 -5 -297 -20 18 -45 181 -259 407 -534 439
-533 589 -734 679 -911 29 -57 54 -104 55 -106 7 -8 115 66 209 142 58 47 123
95 146 106 l41 21 -33 62 c-58 109 -168 265 -383 542 -255 329 -338 443 -425
588 -37 62 -74 112 -81 112 -8 0 -151 -1 -318 -2z"/>
<path d="M2800 3725 l0 -248 48 7 c211 29 488 26 732 -10 521 -76 914 -270
1088 -537 l47 -72 62 22 c35 12 118 29 185 38 123 15 252 47 263 64 8 13 -100
170 -195 284 -186 223 -395 364 -730 496 -337 133 -628 181 -1120 186 -162 1
-314 6 -337 10 l-43 8 0 -248z"/>
<path d="M1106 3548 c31 -384 148 -650 394 -897 343 -343 864 -535 1670 -615
80 -8 198 -18 263 -22 l117 -7 0 30 c0 42 -29 121 -93 251 -31 63 -61 140 -68
172 l-11 58 -92 7 c-252 18 -532 64 -736 120 -355 98 -594 226 -773 415 -91
96 -159 213 -196 335 l-22 70 -222 78 c-122 42 -226 77 -230 77 -4 0 -5 -33
-1 -72z"/>
<path d="M8665 3466 c-284 -101 -458 -191 -634 -325 -267 -204 -493 -516 -619
-856 -53 -142 -95 -287 -85 -295 5 -4 28 -12 53 -19 25 -7 108 -42 184 -78
132 -62 217 -96 221 -91 1 2 15 41 30 88 86 265 237 565 380 755 29 38 95 111
147 161 132 130 231 187 365 215 74 15 66 -9 88 257 18 222 18 232 3 231 -7 0
-67 -19 -133 -43z"/>
<path d="M3170 3373 c0 -25 84 -281 147 -448 219 -580 482 -1115 595 -1210 28
-24 37 -26 80 -21 27 4 106 11 177 16 126 9 214 30 260 62 19 14 18 17 -41 89
-178 217 -335 548 -493 1044 -65 201 -138 400 -156 419 -4 5 -122 19 -261 32
-279 25 -308 27 -308 17z"/>
<path d="M9580 3303 c-1 -10 -33 -149 -73 -309 l-73 -291 34 -49 c48 -69 118
-217 136 -290 9 -35 16 -103 16 -157 0 -316 -234 -577 -625 -696 -55 -16 -116
-33 -135 -36 -27 -5 -40 -15 -57 -43 -34 -59 -120 -152 -233 -252 -124 -109
-210 -192 -210 -201 0 -13 270 -19 400 -9 398 32 677 153 943 410 278 268 407
613 376 1001 -24 298 -132 560 -320 775 -55 63 -162 164 -173 164 -3 0 -6 -8
-6 -17z"/>
<path d="M5420 2933 c-132 -24 -323 -79 -780 -227 -140 -46 -309 -95 -375
-111 -66 -15 -128 -30 -138 -34 -16 -5 5 -38 135 -219 l153 -212 55 6 c88 10
203 47 560 181 377 141 529 193 643 218 42 9 77 22 77 29 0 31 -67 120 -139
185 -60 54 -88 88 -108 131 -28 59 -32 62 -83 53z"/>
<path d="M6904 2710 c-178 -17 -418 -76 -587 -144 -345 -139 -646 -382 -764
-617 -74 -149 -70 -334 12 -508 65 -136 230 -277 413 -351 315 -128 727 -111
1037 42 80 40 185 112 185 126 0 9 -385 217 -471 255 l-55 24 -95 -24 c-221
-58 -408 -19 -486 99 -24 35 -28 52 -28 112 0 88 33 162 103 231 57 57 227
143 352 179 178 50 467 81 659 69 l98 -6 51 139 c124 337 123 332 104 338
-102 31 -379 50 -528 36z"/>
<path d="M8083 2298 c-56 -139 -100 -254 -98 -256 1 -1 43 -9 92 -17 50 -8
204 -44 344 -79 509 -130 724 -176 819 -176 l45 1 119 211 c138 245 139 221
-14 268 -296 92 -1121 300 -1188 300 -15 0 -39 -51 -119 -252z"/>
<path d="M5253 2301 c-23 -11 -81 -43 -130 -71 -48 -29 -125 -64 -170 -79 -78
-24 -84 -28 -94 -61 -18 -54 -60 -109 -161 -212 -92 -93 -211 -194 -280 -236
-87 -54 -619 -83 -859 -47 -148 22 -239 48 -349 102 -120 59 -211 145 -259
246 -18 37 -35 67 -39 67 -4 0 -137 20 -297 44 -159 24 -292 42 -295 39 -8 -8
41 -136 92 -238 27 -55 75 -135 106 -179 120 -166 352 -351 562 -450 417 -194
938 -213 1393 -49 412 148 732 475 843 863 25 86 54 259 47 273 -8 13 -68 7
-110 -12z"/>
<path d="M6647 2051 c-158 -43 -290 -80 -293 -83 -14 -15 153 -132 641 -447
81 -52 205 -139 276 -193 l130 -98 37 30 c20 16 124 69 229 119 203 94 272
130 292 155 10 12 -3 23 -81 72 -125 78 -248 142 -450 235 -186 86 -324 164
-423 239 -36 28 -67 50 -68 49 -1 0 -131 -36 -290 -78z"/>
<path d="M8343 1880 c-12 -44 -73 -158 -121 -226 -81 -114 -156 -188 -265
-262 -669 -453 -1416 -633 -2072 -501 -287 59 -518 155 -767 322 l-118 78 -30
-35 c-44 -50 -104 -85 -290 -171 -91 -42 -169 -80 -173 -84 -4 -5 34 -33 85
-64 51 -31 125 -81 163 -112 322 -261 673 -393 1345 -507 356 -61 609 -37 998
92 735 244 1439 768 1689 1257 26 51 44 95 41 98 -3 3 -106 32 -229 65 -123
33 -230 62 -237 65 -8 3 -16 -4 -19 -15z"/>
</g>
</svg>
