<?xml version="1.0" standalone="no"?>
<!DOCTYPE svg PUBLIC "-//W3C//DTD SVG 20010904//EN"
 "http://www.w3.org/TR/2001/REC-SVG-20010904/DTD/svg10.dtd">
<svg version="1.0" xmlns="http://www.w3.org/2000/svg"
 width="1280.000000pt" height="1280.000000pt" viewBox="0 0 1280.000000 1280.000000"
 preserveAspectRatio="xMidYMid meet">
<metadata>
Created by potrace 1.15, written by Peter Selinger 2001-2017
</metadata>
<g transform="translate(0.000000,1280.000000) scale(0.100000,-0.100000)"
fill="#000000" stroke="none">
<path d="M6394 12775 c-38 -19 -56 -35 -72 -68 -26 -53 -52 -126 -52 -149 0
-10 -3 -18 -8 -18 -4 0 -12 8 -18 18 -6 9 -43 39 -82 66 -64 44 -77 49 -141
54 -90 6 -133 -3 -164 -33 -33 -34 -49 -118 -41 -222 l7 -82 -49 24 c-95 47
-280 25 -327 -37 -18 -24 -19 -31 -7 -95 14 -73 123 -316 179 -396 58 -85 238
-208 498 -340 l123 -62 0 -267 c0 -148 -3 -268 -7 -267 -11 0 -101 111 -143
174 -55 83 -220 296 -279 362 -144 159 -504 408 -746 515 -104 46 -268 77
-407 78 -218 0 -537 -99 -590 -184 -23 -39 -17 -81 17 -116 l25 -25 213 -1
c225 -2 284 -11 440 -67 79 -29 259 -151 354 -240 101 -96 298 -408 360 -572
14 -38 50 -125 79 -193 30 -67 77 -184 105 -260 28 -77 85 -199 131 -281 79
-143 82 -148 238 -302 l157 -156 -48 -99 c-27 -54 -63 -144 -81 -199 -31 -96
-32 -107 -34 -284 -2 -136 -6 -186 -15 -192 -10 -6 -19 12 -35 64 -81 274
-195 474 -342 603 -93 81 -117 89 -287 89 -121 0 -161 -4 -205 -19 -69 -24
-122 -57 -143 -89 -15 -23 -15 -25 9 -36 14 -6 44 -14 67 -17 54 -9 143 -54
186 -95 66 -64 148 -208 216 -379 41 -104 89 -196 147 -279 63 -91 250 -202
463 -276 71 -24 140 -53 154 -63 14 -10 37 -42 51 -71 15 -29 33 -56 40 -61
11 -7 9 -13 -11 -29 -39 -34 -64 -35 -148 -7 -87 29 -180 34 -259 14 -63 -15
-87 -32 -107 -76 -36 -78 -78 -104 -145 -92 -52 10 -149 -4 -194 -27 -52 -27
-116 -84 -116 -105 0 -40 -29 -75 -79 -97 -27 -11 -54 -21 -59 -21 -5 0 -18
-12 -28 -27 -10 -16 -50 -62 -89 -103 -46 -49 -82 -98 -103 -141 -17 -37 -43
-76 -59 -88 -15 -12 -60 -46 -100 -77 -85 -64 -93 -83 -93 -220 l0 -91 -52
-49 c-29 -27 -74 -65 -100 -84 l-47 -35 -2 -65 c-2 -121 3 -174 18 -212 17
-41 11 -86 -12 -94 -8 -3 -28 4 -44 15 -16 12 -32 21 -37 21 -4 0 -30 11 -58
24 -28 14 -64 29 -81 36 -64 23 -75 39 -84 125 -12 101 -29 140 -133 300 -107
164 -147 204 -285 287 -15 10 -69 48 -120 85 -50 37 -110 82 -133 98 -77 54
-96 78 -120 150 -17 52 -23 90 -22 147 l2 77 -34 -20 c-59 -35 -123 -123 -147
-201 -55 -186 -64 -384 -22 -479 18 -40 180 -214 283 -305 19 -16 62 -61 94
-99 l59 -69 -79 -13 c-62 -9 -102 -24 -195 -72 -93 -48 -127 -61 -162 -61 -69
0 -77 6 -77 57 0 81 -97 228 -199 301 -100 72 -224 129 -361 167 -97 26 -175
57 -275 106 -77 38 -144 69 -150 69 -44 -1 -354 157 -440 223 -90 71 -262 217
-291 248 -67 71 -185 226 -213 279 -17 31 -40 102 -52 160 -20 90 -23 134 -24
315 0 139 5 233 14 278 l13 68 25 -53 c34 -73 94 -148 142 -178 46 -28 51 -40
18 -40 -34 0 -65 -38 -78 -96 -10 -42 -9 -60 6 -109 41 -142 146 -244 267
-260 23 -3 57 -8 73 -11 l31 -4 -1 -79 c0 -72 3 -83 30 -122 60 -84 176 -127
375 -137 l124 -7 31 -62 c47 -97 94 -147 182 -190 74 -37 80 -38 182 -38 98 0
111 2 174 32 58 28 177 123 177 142 0 4 -35 12 -77 18 -229 35 -321 110 -311
257 5 85 36 126 115 156 48 18 91 23 243 30 214 10 284 27 455 112 213 106
388 245 495 394 70 96 81 100 165 60 51 -24 126 -96 147 -141 11 -24 8 -30
-34 -73 -79 -82 -94 -127 -107 -333 -9 -153 -24 -209 -60 -228 -16 -9 -28 -8
-50 3 -36 19 -81 106 -81 155 0 46 30 95 70 116 26 13 29 19 19 31 -16 20 -86
17 -136 -6 -24 -10 -63 -39 -87 -64 -141 -145 -112 -317 68 -403 26 -12 35
-22 30 -32 -3 -9 -11 -40 -17 -69 -27 -125 58 -247 201 -288 77 -23 220 -15
286 14 106 48 186 134 186 200 0 18 4 21 23 17 31 -8 113 21 164 57 23 17 52
50 65 74 l23 44 -20 38 c-24 44 -36 45 -120 8 -81 -35 -143 -35 -176 0 -22 24
-24 33 -22 122 2 153 9 171 73 205 44 23 64 28 99 24 24 -3 48 -11 52 -18 4
-8 35 -51 68 -96 69 -95 120 -132 200 -148 l56 -12 3 36 c8 87 -42 170 -160
262 -76 60 -78 63 -78 106 0 50 18 98 48 130 17 17 38 23 106 28 112 10 172 0
204 -32 22 -22 24 -31 19 -77 -3 -30 -19 -80 -37 -116 -17 -34 -29 -68 -26
-76 3 -8 21 -22 40 -31 33 -15 38 -15 77 2 70 32 139 133 139 205 0 38 1 40
31 40 46 0 95 27 141 79 191 215 106 588 -136 594 -28 1 -68 -2 -88 -7 -37 -8
-37 -8 -62 42 -55 109 -117 155 -206 155 -98 -1 -192 -58 -252 -152 -29 -47
-37 -112 -17 -141 9 -13 12 -12 22 4 57 92 167 98 250 15 45 -45 46 -72 4
-103 -26 -19 -46 -21 -225 -26 -221 -6 -251 -14 -326 -84 -22 -20 -45 -36 -52
-36 -6 0 -35 21 -63 46 -56 51 -97 120 -106 181 l-6 38 83 50 c191 115 406
374 508 613 46 108 57 155 70 309 17 193 50 286 116 329 34 23 113 29 159 14
105 -35 175 -175 175 -352 0 -26 4 -48 10 -48 5 0 37 27 70 59 70 68 115 156
131 250 26 162 -61 330 -211 410 l-60 32 6 72 c8 91 -10 252 -35 318 -43 113
-114 163 -221 157 l-58 -3 -4 75 c-8 139 -79 243 -206 303 -111 52 -219 37
-245 -34 -14 -37 -19 -36 -36 4 -22 49 -116 133 -189 169 -80 39 -171 49 -220
24 -31 -16 -72 -79 -72 -112 0 -11 -5 -14 -17 -9 -96 37 -222 44 -338 20 -94
-19 -241 -93 -307 -154 -57 -52 -112 -137 -122 -186 l-6 -30 172 -1 c185 -1
253 -13 389 -68 149 -60 434 -271 533 -394 157 -196 287 -464 326 -676 58
-312 -156 -765 -419 -890 -58 -27 -77 -31 -151 -31 -126 0 -194 35 -320 163
-170 172 -242 304 -244 447 -1 69 3 88 27 137 54 111 182 176 302 154 57 -11
112 -67 126 -130 11 -51 2 -105 -36 -223 -6 -18 -2 -22 24 -28 99 -22 221 67
295 216 77 153 88 350 27 473 -36 74 -82 118 -161 155 -51 24 -66 26 -192 27
-164 0 -167 2 -168 103 0 86 -16 134 -63 187 -29 33 -52 48 -93 60 -66 19
-111 13 -212 -27 -101 -40 -119 -38 -172 17 -81 83 -160 104 -245 65 -54 -25
-124 -96 -159 -162 -41 -76 -64 -99 -100 -99 -53 0 -134 -27 -199 -65 -48 -28
-74 -52 -105 -99 -45 -66 -72 -133 -72 -176 0 -49 -10 -59 -100 -106 -136 -70
-210 -160 -210 -254 1 -38 32 -100 78 -153 23 -27 42 -55 42 -64 0 -8 -15 -50
-34 -92 -72 -158 -68 -242 13 -321 51 -50 102 -70 179 -70 39 0 57 -6 78 -23
l26 -23 -12 -77 c-34 -208 33 -364 185 -433 212 -97 563 -1 658 181 19 38 30
126 16 139 -3 4 -25 -1 -49 -9 -116 -41 -217 -28 -274 36 -105 115 -12 335
163 385 141 42 309 -31 486 -210 148 -150 194 -237 195 -363 0 -126 -59 -233
-185 -333 -186 -148 -493 -242 -695 -212 -272 39 -650 262 -825 487 -144 184
-245 369 -287 525 -18 70 -22 111 -23 230 0 80 4 173 8 207 l9 61 -34 -7 c-73
-17 -132 -52 -203 -123 -160 -161 -229 -410 -170 -614 6 -18 0 -23 -39 -34
-49 -14 -91 -53 -102 -96 -4 -14 -4 -47 -2 -75 5 -45 3 -49 -16 -49 -57 -1
-167 -80 -214 -154 -54 -86 -110 -214 -127 -291 -15 -66 -17 -109 -12 -250 5
-153 9 -178 35 -256 57 -164 188 -344 425 -580 210 -210 424 -384 618 -504 56
-34 122 -98 160 -152 l29 -42 -37 -8 c-21 -4 -159 -8 -306 -8 l-269 0 -19 23
c-10 13 -28 56 -39 95 -25 91 -64 168 -113 225 -20 24 -55 69 -76 101 -74 109
-313 283 -486 354 -41 17 -107 33 -159 39 -79 10 -91 10 -122 -7 -47 -25 -68
-85 -68 -189 0 -68 5 -90 27 -133 15 -29 27 -54 27 -57 0 -2 -24 2 -52 10 -72
19 -201 18 -238 -1 -16 -8 -34 -23 -39 -33 -17 -32 -23 -108 -11 -150 14 -54
84 -139 135 -166 32 -16 36 -21 20 -24 -120 -20 -183 -54 -217 -116 -43 -78
-4 -205 75 -244 53 -26 126 -52 150 -52 9 0 17 -3 17 -8 0 -4 -8 -12 -17 -18
-10 -6 -40 -43 -67 -83 -47 -68 -50 -75 -54 -150 -2 -44 -2 -91 2 -104 17 -69
108 -102 253 -91 l82 7 -24 -49 c-47 -95 -25 -280 37 -327 24 -18 31 -19 94
-7 88 17 298 112 400 181 82 56 206 239 337 496 l62 123 268 0 c147 0 267 -3
266 -7 0 -11 -103 -95 -189 -154 -120 -82 -311 -233 -375 -295 -55 -53 -221
-265 -304 -386 -51 -76 -138 -234 -181 -329 -45 -100 -80 -279 -80 -408 0
-192 78 -473 157 -567 43 -51 101 -54 144 -8 24 25 24 29 25 237 2 225 11 284
67 440 29 79 151 259 240 354 103 108 406 296 602 372 55 21 141 57 191 79 49
22 153 63 229 92 80 29 201 86 284 131 141 79 147 83 301 239 l158 158 84 -43
c46 -24 133 -61 193 -81 118 -40 88 -38 453 -43 67 -1 50 -23 -41 -52 -215
-69 -339 -130 -467 -231 -94 -75 -160 -150 -190 -219 -21 -50 -22 -63 -17
-194 6 -171 28 -246 90 -308 l40 -40 13 24 c7 13 16 44 20 69 8 57 53 145 95
189 64 67 234 162 406 226 73 28 174 83 252 137 90 63 202 250 275 461 57 164
75 191 143 211 20 6 24 1 42 -58 11 -36 29 -78 41 -93 19 -27 19 -32 6 -108
-10 -57 -11 -86 -3 -100 5 -11 16 -55 24 -98 7 -44 20 -89 28 -100 8 -12 15
-39 15 -61 0 -44 18 -155 29 -172 3 -6 19 -31 35 -55 24 -36 31 -60 39 -139 8
-84 13 -101 44 -147 37 -54 59 -67 133 -79 45 -7 104 -38 129 -68 16 -20 50
-112 51 -138 0 -10 8 -21 18 -27 26 -14 221 -61 253 -61 19 0 35 -9 51 -30 69
-91 77 -97 125 -104 27 -3 92 -2 146 3 93 9 100 8 152 -15 67 -31 187 -43 243
-25 52 18 108 1 152 -44 32 -33 33 -37 20 -58 -7 -12 -20 -35 -28 -52 -35 -74
-52 -112 -62 -140 -23 -64 -39 -75 -125 -84 -101 -12 -140 -29 -300 -133 -164
-107 -204 -147 -287 -285 -10 -15 -48 -69 -85 -120 -37 -50 -81 -110 -98 -133
-54 -77 -78 -96 -150 -120 -52 -17 -90 -23 -147 -22 l-77 2 20 -34 c35 -59
123 -123 201 -147 186 -55 381 -64 478 -21 41 18 213 176 306 282 16 19 61 62
99 94 l69 59 13 -79 c9 -62 24 -102 72 -195 48 -93 61 -127 61 -162 0 -70 -6
-77 -59 -77 -86 0 -234 -103 -309 -215 -78 -116 -119 -207 -157 -345 -27 -99
-55 -172 -106 -275 -38 -77 -69 -144 -69 -150 1 -44 -157 -354 -223 -440 -71
-90 -217 -262 -248 -291 -71 -67 -226 -185 -279 -213 -31 -17 -102 -40 -160
-53 -91 -20 -133 -23 -315 -23 -139 0 -233 5 -278 14 l-68 13 53 25 c73 34
148 94 178 142 28 46 40 51 40 18 0 -58 101 -98 192 -77 141 33 257 148 273
272 3 23 8 57 11 73 l4 31 79 -1 c72 0 83 3 123 30 84 60 138 218 138 409 l0
92 66 28 c86 38 155 106 197 193 30 63 32 76 32 173 0 97 -2 110 -32 173 -28
58 -123 177 -142 177 -4 0 -12 -35 -18 -78 -35 -228 -110 -320 -257 -310 -85
5 -126 36 -156 115 -19 48 -24 89 -30 243 -7 170 -10 193 -39 279 -89 266
-275 533 -467 671 -96 70 -100 81 -60 165 24 51 96 126 141 147 24 11 30 8 73
-34 82 -79 127 -94 333 -107 153 -9 209 -24 228 -60 29 -54 -57 -121 -156
-121 -66 0 -95 15 -119 61 -12 25 -18 28 -30 18 -20 -16 -17 -86 6 -136 10
-24 39 -63 64 -87 145 -141 317 -112 403 68 12 26 22 35 32 30 90 -35 185 -26
249 23 88 67 126 165 120 308 -3 79 -8 101 -36 156 -49 100 -127 169 -189 169
-14 0 -18 9 -19 43 -1 50 -33 120 -74 165 -27 30 -33 32 -99 32 -39 0 -73 -5
-76 -11 -4 -6 5 -38 21 -72 15 -35 30 -86 32 -117 3 -49 1 -58 -23 -80 -25
-23 -33 -25 -123 -23 -155 2 -172 8 -205 73 -22 43 -27 64 -24 99 3 24 11 48
18 52 8 4 50 34 94 66 94 70 135 124 150 201 l12 57 -36 3 c-85 8 -172 -44
-261 -158 -62 -78 -64 -80 -107 -80 -50 0 -98 18 -130 48 -17 17 -23 38 -28
106 -10 112 0 172 32 204 22 22 31 24 77 19 30 -3 80 -19 116 -37 34 -17 68
-29 76 -26 8 3 22 21 31 40 15 33 15 38 -2 77 -32 70 -133 139 -205 139 -38 0
-40 1 -40 31 0 46 -27 95 -79 141 -215 191 -588 106 -594 -136 -1 -28 2 -68 7
-88 8 -37 8 -37 -42 -62 -109 -55 -155 -117 -155 -206 1 -98 58 -192 152 -252
47 -29 112 -37 141 -17 13 9 12 12 -4 22 -92 57 -98 167 -15 250 45 45 72 46
103 4 19 -26 21 -46 26 -225 7 -220 12 -240 80 -322 22 -26 40 -52 40 -58 0
-5 -21 -33 -46 -61 -51 -57 -116 -95 -179 -105 l-40 -7 -49 83 c-71 118 -236
281 -386 381 -183 121 -307 173 -455 188 -267 28 -339 46 -388 97 -68 72 -62
189 15 269 51 52 182 93 300 93 26 0 48 4 48 10 0 5 -27 37 -59 70 -68 70
-156 115 -250 131 -165 26 -337 -65 -415 -220 l-26 -51 -73 6 c-91 8 -252 -10
-318 -35 -113 -43 -163 -114 -157 -221 l3 -58 -80 -5 c-138 -8 -238 -77 -298
-205 -53 -112 -38 -218 34 -245 37 -14 36 -19 -4 -36 -49 -22 -133 -116 -169
-189 -39 -80 -49 -171 -24 -220 16 -31 79 -72 112 -72 11 0 14 -5 9 -17 -64
-166 -36 -387 70 -559 66 -105 169 -191 250 -208 l30 -6 1 172 c1 185 13 254
68 389 60 149 271 434 394 533 191 153 442 277 654 321 322 68 774 -136 910
-412 30 -61 33 -76 33 -153 0 -75 -4 -93 -33 -155 -60 -126 -291 -330 -438
-384 -168 -63 -321 -17 -398 119 -27 48 -31 64 -31 132 0 85 14 114 73 154 60
41 128 38 279 -11 18 -6 22 -2 28 24 4 18 0 52 -9 85 -29 100 -136 190 -289
245 -62 22 -89 25 -197 26 -114 0 -130 -2 -180 -26 -80 -37 -125 -81 -162
-157 -32 -65 -33 -70 -34 -204 0 -164 -2 -167 -103 -168 -86 0 -134 -16 -187
-63 -33 -29 -48 -52 -60 -93 -19 -66 -13 -111 27 -212 40 -101 38 -119 -17
-172 -83 -81 -104 -160 -65 -245 25 -54 96 -124 162 -159 76 -41 99 -64 99
-100 1 -58 21 -121 61 -192 32 -56 53 -78 102 -112 70 -47 134 -72 183 -72 42
0 54 -13 104 -110 66 -126 159 -200 250 -200 38 1 100 32 153 78 27 23 55 42
64 42 8 0 50 -15 92 -34 158 -72 242 -68 321 13 50 51 70 102 70 179 0 39 6
57 23 78 l23 26 77 -12 c148 -24 273 4 360 79 81 72 128 232 108 373 -33 241
-157 410 -303 412 -25 1 -49 -2 -52 -5 -4 -3 0 -25 9 -48 62 -176 -8 -321
-156 -321 -46 0 -125 29 -165 61 -160 127 -146 341 38 558 82 98 200 197 278
235 59 28 74 31 160 31 107 0 150 -15 237 -85 197 -157 344 -543 304 -800 -32
-202 -172 -479 -345 -682 -143 -166 -444 -357 -661 -419 -67 -19 -105 -23
-230 -23 -82 -1 -178 3 -212 7 l-61 9 7 -34 c17 -73 52 -132 123 -203 161
-160 410 -229 614 -170 18 6 23 0 34 -38 6 -25 25 -58 42 -74 27 -26 36 -28
104 -28 67 0 74 -2 74 -20 1 -58 79 -165 155 -213 82 -52 212 -110 288 -127
65 -15 104 -17 250 -12 156 5 180 9 258 35 162 56 345 190 578 423 208 209
388 429 506 620 34 55 98 122 151 160 l42 28 7 -22 c11 -33 18 -405 10 -503
-9 -105 -17 -115 -117 -143 -93 -27 -170 -65 -226 -113 -24 -21 -69 -56 -101
-77 -110 -75 -283 -312 -353 -484 -18 -43 -34 -108 -40 -161 -10 -79 -10 -91
7 -122 25 -47 86 -69 190 -68 67 0 89 4 132 27 29 15 54 27 57 27 2 0 -3 -26
-11 -57 -9 -37 -14 -89 -11 -146 3 -82 5 -91 30 -112 33 -29 111 -40 167 -25
54 14 141 85 166 135 15 32 20 36 23 20 21 -125 53 -185 114 -216 84 -43 206
-6 246 74 26 53 52 126 52 150 0 22 12 22 26 0 6 -10 43 -40 82 -67 64 -44 77
-49 141 -54 90 -6 133 3 164 33 33 34 49 118 41 222 l-7 82 49 -24 c61 -30
174 -34 250 -9 87 29 101 54 83 148 -13 66 -126 314 -177 389 -59 85 -239 208
-499 340 l-123 62 0 268 c0 147 3 267 8 266 10 0 94 -103 153 -189 84 -122
233 -312 295 -375 54 -55 270 -224 388 -305 70 -47 237 -139 332 -182 93 -43
277 -78 403 -78 183 0 470 78 562 152 54 45 60 105 13 149 -25 24 -29 24 -234
26 -224 2 -298 13 -448 70 -82 31 -254 147 -349 236 -101 96 -298 408 -360
572 -14 39 -50 125 -79 193 -30 67 -76 184 -104 258 -42 114 -131 295 -198
404 -9 14 -86 95 -172 181 l-157 156 48 99 c27 54 63 144 81 199 31 96 33 107
35 284 1 136 5 186 14 192 10 6 19 -12 35 -64 82 -276 188 -462 344 -604 78
-70 120 -86 242 -91 58 -2 138 1 176 8 87 14 182 59 210 97 20 28 20 30 3 40
-10 6 -40 15 -67 19 -73 10 -155 56 -208 115 -67 74 -119 167 -192 340 -66
159 -93 211 -156 299 -66 92 -258 206 -470 278 -65 22 -129 47 -142 56 -13 8
-40 45 -59 80 l-34 65 22 21 c24 23 50 19 66 -11 17 -33 109 -79 157 -79 49 0
144 48 169 86 24 37 117 94 153 94 45 0 187 38 219 58 42 27 68 63 97 130 27
61 31 65 126 125 55 34 122 76 149 92 48 28 119 119 119 150 0 22 117 133 166
158 44 22 54 33 78 87 40 88 45 113 37 167 -9 55 7 94 70 178 62 82 87 242 53
330 -26 65 -27 100 -9 236 l17 129 -26 45 c-25 41 -26 50 -20 122 8 94 -5 149
-51 219 l-33 51 14 59 c34 140 34 149 13 214 -15 42 -31 68 -51 83 -40 30 -68
87 -68 140 0 43 -35 110 -97 184 -27 33 -71 46 -104 32 -24 -9 -34 -8 -64 11
-36 23 -39 30 -36 110 2 42 -2 50 -59 118 -69 80 -87 86 -170 57 -66 -23 -76
-20 -115 38 -39 58 -64 71 -155 82 -53 6 -57 5 -97 -29 -22 -20 -46 -36 -52
-36 -6 0 -54 29 -108 65 -104 69 -142 79 -193 50 -14 -8 -43 -14 -64 -15 -33
0 -45 6 -76 40 -35 38 -40 40 -96 41 -81 1 -119 17 -42 18 56 1 59 2 89 44 17
23 35 53 40 67 5 14 18 43 29 65 10 22 24 54 30 70 23 64 39 75 125 84 101 12
140 29 300 133 164 107 204 147 287 285 10 15 48 69 85 120 37 50 82 110 98
133 54 77 78 96 150 120 52 17 90 23 147 22 l77 -2 -20 34 c-35 59 -123 123
-201 147 -186 55 -381 64 -478 21 -41 -18 -213 -176 -306 -282 -16 -19 -61
-62 -100 -94 l-69 -59 -12 79 c-10 63 -24 102 -73 196 -47 92 -60 126 -60 161
0 70 6 77 59 77 86 0 234 103 309 215 78 116 119 207 157 345 27 99 55 172
106 275 38 77 69 145 69 151 0 45 156 352 223 439 71 90 217 262 248 291 71
67 226 185 279 213 31 17 102 40 160 52 90 20 134 23 315 24 139 0 233 -5 278
-14 l68 -13 -53 -25 c-73 -34 -148 -94 -178 -142 -28 -46 -40 -51 -40 -18 0
33 -37 63 -91 77 -55 14 -147 -5 -215 -45 -86 -50 -164 -169 -164 -250 -1 -79
-2 -81 -90 -80 -71 0 -82 -3 -121 -30 -84 -60 -127 -176 -137 -375 l-7 -125
-60 -28 c-81 -39 -132 -81 -170 -141 -52 -82 -68 -145 -63 -246 4 -77 9 -98
40 -162 40 -79 134 -183 142 -157 2 8 11 54 20 104 20 117 64 207 118 243 53
34 148 43 202 17 83 -39 105 -107 116 -345 9 -214 26 -283 112 -455 107 -215
244 -388 394 -495 96 -70 100 -81 60 -165 -24 -51 -96 -126 -141 -147 -24 -11
-30 -8 -73 34 -81 79 -125 93 -332 107 -154 9 -210 24 -229 60 -29 54 57 121
156 121 66 0 95 -15 119 -61 12 -25 18 -28 30 -18 20 16 17 86 -6 136 -10 24
-39 62 -64 87 -145 140 -317 111 -403 -68 -14 -30 -21 -36 -38 -31 -11 4 -41
12 -68 18 -119 27 -242 -60 -283 -201 -23 -77 -15 -220 14 -286 47 -104 134
-186 198 -186 16 0 19 -7 20 -42 0 -50 32 -120 74 -166 27 -30 33 -32 99 -32
39 0 73 5 76 11 4 6 -5 38 -21 72 -15 35 -30 86 -32 117 -3 49 -1 58 23 80 25
23 33 25 123 23 153 -2 171 -9 205 -73 23 -44 28 -64 24 -99 -3 -24 -11 -48
-18 -52 -8 -4 -51 -35 -96 -68 -95 -69 -132 -120 -148 -200 l-12 -56 36 -3
c87 -8 170 42 262 160 60 76 63 78 106 78 52 0 100 -19 130 -51 18 -20 23 -41
29 -119 8 -113 -5 -172 -42 -196 -35 -23 -107 -13 -184 26 -34 17 -68 29 -76
26 -8 -3 -22 -21 -31 -40 -15 -33 -15 -38 2 -77 32 -70 133 -139 205 -139 38
0 40 -1 40 -31 0 -46 27 -95 79 -141 215 -191 588 -106 594 136 1 28 -2 67 -7
87 l-8 37 62 33 c111 59 159 142 140 242 -11 57 -22 79 -68 136 -67 83 -171
125 -222 90 -13 -9 -12 -12 4 -22 92 -57 98 -167 15 -250 -45 -45 -72 -46
-103 -4 -19 26 -21 46 -26 225 -7 222 -13 245 -80 318 -22 24 -40 50 -40 58 0
7 21 37 46 65 49 55 115 94 175 105 42 7 47 3 105 -94 105 -174 380 -397 610
-494 101 -42 151 -53 301 -66 193 -17 286 -50 329 -116 23 -34 29 -113 14
-159 -35 -105 -175 -175 -352 -175 -26 0 -48 -4 -48 -10 0 -5 27 -37 59 -70
68 -70 156 -115 250 -131 162 -26 330 61 410 211 l32 59 77 -6 c94 -7 246 11
313 37 113 42 163 114 157 220 l-3 58 80 5 c96 5 164 36 227 100 116 119 137
313 37 350 -37 14 -36 19 4 36 49 22 133 116 169 189 39 80 49 171 24 220 -16
31 -79 72 -112 72 -11 0 -14 5 -9 18 37 95 44 221 20 337 -19 93 -92 237 -153
305 -52 58 -137 114 -187 124 l-30 6 -1 -167 c0 -235 -38 -370 -150 -550 -81
-128 -236 -316 -313 -378 -195 -156 -464 -286 -675 -325 -313 -58 -765 155
-890 419 -27 58 -31 77 -31 151 0 75 4 93 31 151 60 127 272 317 424 381 62
26 89 31 155 32 69 1 88 -3 137 -27 89 -43 146 -128 155 -227 7 -73 -9 -121
-52 -159 -64 -56 -133 -61 -259 -19 -32 10 -61 16 -65 13 -3 -4 -6 -30 -6 -59
2 -177 262 -336 529 -324 80 3 102 8 159 36 75 37 119 83 156 162 24 51 26 66
27 192 0 164 2 167 103 168 92 0 139 17 192 70 79 79 85 164 24 310 -36 86
-34 108 21 160 111 107 111 219 0 331 -24 25 -68 57 -97 73 -76 41 -99 64 -99
100 0 53 -27 134 -65 199 -28 48 -52 74 -99 105 -68 46 -133 72 -180 72 -45 0
-59 14 -106 106 -64 129 -157 204 -250 204 -38 -1 -100 -32 -153 -78 -27 -23
-55 -42 -64 -42 -8 0 -50 15 -92 34 -151 69 -232 68 -314 -5 -52 -45 -77 -105
-77 -185 0 -41 -5 -59 -23 -80 l-23 -26 -77 12 c-208 34 -364 -33 -433 -185
-97 -212 -1 -563 181 -658 38 -19 126 -30 139 -16 4 3 -1 26 -10 50 -23 62
-24 184 -1 229 66 133 287 109 389 -41 62 -92 60 -211 -6 -344 -66 -134 -244
-313 -376 -378 -81 -40 -189 -49 -269 -22 -109 36 -228 154 -311 308 -93 172
-144 407 -122 557 39 273 265 654 489 827 186 144 369 243 523 285 70 18 111
22 230 23 80 0 173 -4 207 -8 l61 -9 -7 34 c-17 73 -52 132 -123 203 -161 160
-410 229 -614 170 -18 -6 -23 0 -34 39 -14 49 -53 91 -96 102 -14 4 -47 4 -75
2 -45 -5 -49 -3 -49 16 -1 36 -35 99 -83 152 -58 64 -228 155 -348 185 -75 19
-103 21 -259 16 -159 -5 -183 -8 -261 -35 -165 -57 -344 -188 -580 -425 -210
-210 -385 -426 -504 -618 -34 -56 -98 -122 -152 -160 l-42 -29 -8 37 c-4 21
-8 159 -8 306 l0 269 23 19 c13 10 56 28 95 39 92 26 170 65 225 112 24 21 69
56 101 77 109 74 283 313 354 486 17 41 33 107 39 159 10 79 10 91 -7 122 -25
47 -85 68 -189 68 -68 0 -90 -5 -133 -27 -29 -15 -54 -27 -57 -27 -2 0 2 24
10 53 19 71 18 200 -1 237 -8 16 -23 34 -33 39 -32 17 -108 23 -150 11 -55
-14 -142 -85 -167 -135 l-19 -40 -8 40 c-18 86 -31 121 -55 150 -58 69 -142
83 -229 40z m-106 -5251 c16 -5 22 -14 22 -35 0 -37 32 -69 68 -69 42 1 107
34 131 69 24 34 49 38 114 20 l37 -10 0 -59 c0 -55 2 -60 29 -74 27 -14 31
-14 57 7 22 17 45 23 101 25 l72 4 20 -33 c12 -19 21 -49 21 -67 0 -18 7 -47
16 -64 13 -26 19 -29 42 -22 15 4 59 6 97 5 63 -1 72 -4 93 -29 24 -28 24 -38
6 -139 -6 -30 -4 -32 33 -38 58 -9 85 -27 110 -70 30 -52 29 -97 -3 -150 l-26
-45 41 -16 c58 -23 75 -53 66 -123 -6 -48 -14 -64 -56 -113 -27 -31 -49 -61
-49 -66 0 -5 11 -21 25 -36 41 -44 75 -99 75 -121 0 -68 -53 -155 -94 -155
-37 0 -46 -18 -39 -80 5 -50 3 -59 -17 -78 -23 -21 -91 -39 -109 -28 -5 4 -22
-5 -38 -18 -27 -23 -28 -28 -30 -125 -3 -107 -18 -163 -50 -179 -12 -7 -35 -4
-73 8 l-55 18 -42 -41 c-42 -41 -48 -55 -57 -142 -9 -84 -16 -87 -113 -53 -58
21 -63 21 -81 5 -10 -9 -24 -40 -31 -69 -15 -66 -25 -78 -68 -78 -48 0 -95 22
-123 58 -14 18 -35 45 -48 62 -19 24 -31 30 -62 30 -33 0 -44 -7 -85 -52 -43
-48 -51 -53 -91 -53 -34 0 -49 6 -73 29 -17 17 -31 37 -31 47 0 38 -53 43
-132 11 -24 -10 -30 -8 -51 18 -15 17 -27 47 -31 77 -13 97 -52 129 -116 94
-28 -16 -99 -16 -114 -1 -6 6 -9 44 -8 85 3 97 -21 150 -70 160 -45 8 -76 25
-83 43 -3 9 2 37 12 64 16 45 16 50 0 82 -15 32 -22 36 -78 48 -52 10 -65 18
-81 43 -10 16 -18 36 -18 44 0 7 23 44 50 81 28 37 50 74 50 82 0 8 -18 27
-39 43 -65 50 -81 81 -81 162 0 62 3 75 26 102 23 27 31 31 59 25 74 -14 102
22 57 70 -36 38 -45 80 -23 100 9 8 49 18 91 22 106 10 109 15 108 181 0 109
3 137 17 159 l17 26 122 -7 123 -7 21 27 c14 18 22 42 22 68 0 22 5 56 12 74
l12 33 74 0 c90 0 118 13 160 78 34 53 30 51 122 60 8 1 25 -1 38 -4z"/>
<path d="M11765 8741 c-11 -5 -29 -19 -40 -31 -19 -20 -20 -38 -22 -231 -2
-223 -13 -297 -69 -447 -36 -95 -170 -287 -266 -379 -95 -92 -405 -277 -573
-342 -55 -21 -141 -57 -191 -79 -49 -22 -153 -63 -229 -92 -80 -30 -202 -86
-285 -132 -143 -79 -147 -83 -301 -238 l-156 -157 -99 48 c-54 27 -144 63
-199 81 -96 31 -107 32 -284 34 -138 2 -186 6 -192 16 -6 9 7 17 49 28 137 39
316 114 408 173 66 41 167 126 210 175 72 82 87 123 92 244 2 58 -1 138 -8
176 -14 88 -59 182 -97 210 l-30 21 -11 -25 c-7 -13 -15 -44 -18 -67 -9 -53
-54 -143 -94 -184 -68 -71 -200 -147 -380 -218 -104 -41 -196 -89 -279 -147
-91 -63 -205 -255 -277 -465 -23 -70 -51 -138 -62 -152 -10 -14 -44 -38 -75
-54 l-57 -27 0 -75 0 -75 43 -31 c23 -17 53 -35 67 -40 14 -5 43 -18 65 -29
22 -10 54 -24 70 -30 64 -23 75 -39 84 -125 12 -102 29 -141 133 -300 107
-164 147 -204 285 -287 15 -10 69 -48 120 -85 50 -37 110 -81 133 -98 78 -55
97 -79 120 -151 16 -48 22 -92 21 -146 l-1 -77 34 20 c59 35 123 123 147 201
55 186 64 381 21 478 -18 41 -176 213 -282 306 -19 16 -62 61 -94 100 l-59 69
79 12 c63 10 102 24 196 73 92 47 126 60 161 60 69 0 77 -6 77 -57 0 -81 97
-228 199 -301 101 -73 224 -129 361 -167 99 -27 172 -55 275 -106 77 -38 145
-69 151 -69 45 0 352 -156 439 -223 90 -71 262 -217 291 -248 75 -80 187 -229
215 -285 54 -108 73 -230 74 -464 0 -130 -5 -231 -13 -277 l-14 -72 -34 68
c-34 68 -119 165 -155 176 -23 8 -16 25 10 25 27 0 58 40 71 91 10 38 9 58 -4
110 -36 139 -146 248 -268 264 -23 3 -57 8 -73 11 l-31 4 1 79 c0 72 -3 83
-30 123 -60 84 -218 138 -409 138 l-92 0 -28 66 c-38 86 -106 155 -193 197
-63 30 -75 32 -174 32 -101 0 -108 -1 -180 -37 -79 -39 -185 -134 -158 -142 8
-2 55 -11 104 -20 119 -22 207 -65 243 -118 34 -53 43 -148 17 -202 -39 -83
-107 -105 -345 -116 -214 -9 -283 -26 -455 -112 -215 -107 -388 -244 -495
-394 -70 -96 -81 -100 -165 -60 -51 24 -126 96 -147 141 -11 24 -8 30 34 73
79 81 93 125 107 332 9 154 24 210 60 230 48 25 131 -76 131 -159 0 -46 -30
-95 -70 -116 -26 -13 -29 -19 -19 -31 16 -20 86 -17 136 6 24 10 62 39 87 64
140 145 111 317 -68 403 -30 14 -36 21 -31 38 4 11 12 41 18 68 27 119 -60
242 -201 283 -77 23 -220 15 -286 -14 -104 -47 -186 -134 -186 -198 0 -16 -7
-19 -42 -20 -55 0 -127 -35 -177 -86 -50 -49 -59 -87 -34 -131 23 -38 36 -38
118 -3 78 33 135 34 172 2 27 -24 28 -27 26 -123 -3 -155 -9 -172 -73 -206
-44 -23 -64 -28 -99 -24 -24 3 -48 11 -52 18 -4 8 -34 50 -66 94 -70 94 -124
135 -201 150 l-57 12 -3 -36 c-8 -87 42 -170 160 -262 76 -60 78 -63 78 -106
0 -52 -19 -100 -51 -130 -20 -18 -41 -23 -119 -29 -113 -8 -172 5 -196 42 -23
35 -13 107 26 184 17 34 29 68 26 76 -3 8 -21 22 -40 31 -33 15 -38 15 -77 -2
-70 -32 -139 -133 -139 -205 0 -38 -1 -40 -31 -40 -46 0 -95 -27 -141 -79
-191 -215 -106 -588 136 -594 28 -1 67 2 87 7 l37 8 33 -62 c59 -110 142 -159
241 -140 61 12 92 28 150 79 72 64 109 165 77 211 -9 13 -12 12 -22 -4 -57
-92 -167 -98 -250 -15 -45 45 -46 72 -4 103 26 19 46 21 225 26 220 6 251 14
325 84 21 20 44 36 51 36 8 0 37 -21 65 -46 55 -49 94 -115 105 -176 8 -41 6
-43 -114 -118 -147 -92 -364 -355 -454 -550 -51 -112 -67 -166 -77 -265 -27
-261 -39 -311 -86 -373 -63 -83 -194 -83 -280 0 -52 51 -93 182 -93 300 0 26
-4 48 -10 48 -5 0 -37 -27 -70 -59 -68 -67 -113 -152 -131 -245 -29 -161 64
-342 219 -420 l50 -25 -5 -78 c-7 -96 11 -247 37 -314 42 -113 114 -163 220
-157 l58 3 4 -80 c8 -136 78 -238 204 -297 113 -53 220 -39 247 33 14 37 19
36 36 -4 22 -49 116 -133 189 -169 49 -24 82 -33 131 -36 87 -4 123 17 148 88
13 37 22 49 33 44 93 -36 220 -43 335 -19 93 19 237 92 305 153 58 52 114 137
124 187 l6 30 -172 1 c-185 1 -253 13 -389 68 -149 60 -434 271 -533 394 -157
196 -291 474 -327 679 -55 314 158 762 420 887 58 27 77 31 151 31 114 0 187
-34 295 -136 198 -189 299 -394 266 -543 -29 -130 -143 -224 -274 -226 -159
-1 -228 145 -153 325 22 51 21 53 -18 61 -94 17 -220 -75 -288 -213 -50 -100
-71 -201 -66 -317 3 -80 8 -102 36 -159 37 -75 83 -119 162 -156 51 -24 66
-26 192 -27 164 0 167 -2 168 -103 0 -86 16 -134 63 -187 29 -33 52 -48 93
-60 66 -19 111 -13 212 27 101 40 119 38 172 -17 81 -83 160 -104 245 -65 54
25 124 96 159 162 41 76 64 99 100 99 53 0 134 27 199 65 48 28 74 52 105 99
45 66 72 133 72 176 0 49 10 59 100 106 136 70 210 160 210 254 -1 38 -32 100
-78 153 -23 27 -42 55 -42 64 0 8 15 50 34 92 72 158 68 240 -13 320 -51 51
-100 71 -176 71 -27 0 -60 8 -77 18 -29 17 -29 18 -21 72 4 30 8 98 8 151 0
87 -3 101 -33 161 -37 75 -83 120 -157 154 -212 97 -563 1 -658 -181 -19 -38
-30 -126 -16 -139 3 -4 25 1 49 9 116 41 217 28 274 -36 105 -115 12 -335
-163 -385 -141 -42 -309 31 -486 210 -154 155 -199 245 -193 381 4 90 24 143
88 222 153 193 539 342 790 305 207 -30 488 -171 694 -349 117 -101 268 -310
351 -486 70 -147 89 -236 90 -407 0 -80 -4 -173 -8 -207 l-9 -61 34 7 c73 17
132 52 203 123 160 161 229 410 170 614 -6 18 0 23 39 34 49 14 91 53 102 96
4 14 4 47 2 75 -5 45 -3 49 16 49 36 1 99 35 152 83 64 58 155 228 185 348 19
75 21 103 16 259 -5 164 -7 181 -37 264 -59 166 -188 342 -421 575 -209 208
-429 388 -620 506 -55 34 -122 98 -160 151 l-28 42 22 7 c33 11 405 18 503 10
104 -8 114 -16 143 -116 27 -95 66 -172 113 -227 21 -24 56 -69 77 -101 74
-109 313 -283 486 -354 41 -17 107 -33 159 -39 79 -10 91 -10 122 7 47 25 69
86 68 190 0 67 -4 89 -27 132 -15 29 -27 54 -27 57 0 2 24 -2 53 -10 71 -19
200 -18 237 1 16 8 34 23 39 33 17 32 23 108 11 150 -14 54 -84 139 -135 166
-32 16 -36 21 -20 24 120 20 183 54 217 116 43 78 4 205 -75 244 -53 26 -126
52 -149 52 -10 0 -18 3 -18 8 0 4 8 12 18 18 9 6 39 44 66 84 47 68 50 76 54
151 5 89 -13 148 -51 168 -44 22 -119 31 -202 25 l-84 -7 22 44 c30 60 35 178
12 251 -30 91 -54 105 -149 87 -66 -13 -314 -126 -389 -177 -86 -60 -244 -295
-359 -534 l-42 -88 -268 0 c-147 0 -268 3 -267 8 0 10 104 94 190 153 116 80
318 241 381 302 140 139 384 501 481 714 41 92 77 279 77 405 0 176 -81 475
-152 558 -36 43 -74 57 -113 41z"/>
</g>
</svg>
