<?xml version="1.0" standalone="no"?>
<!DOCTYPE svg PUBLIC "-//W3C//DTD SVG 20010904//EN"
 "http://www.w3.org/TR/2001/REC-SVG-20010904/DTD/svg10.dtd">
<svg version="1.0" xmlns="http://www.w3.org/2000/svg"
 width="1280.000000pt" height="1280.000000pt" viewBox="0 0 1280.000000 1280.000000"
 preserveAspectRatio="xMidYMid meet">
<metadata>
Created by potrace 1.15, written by Peter Selinger 2001-2017
</metadata>
<g transform="translate(0.000000,1280.000000) scale(0.100000,-0.100000)"
fill="#000000" stroke="none">
<path d="M6095 12794 c-1469 -78 -2833 -633 -3930 -1599 -129 -114 -446 -431
-560 -560 -828 -941 -1365 -2099 -1539 -3325 -49 -341 -60 -508 -60 -910 0
-402 11 -569 60 -910 174 -1226 711 -2384 1539 -3325 114 -129 431 -446 560
-560 941 -828 2099 -1365 3325 -1539 341 -49 508 -60 910 -60 402 0 569 11
910 60 1226 174 2384 711 3325 1539 129 114 446 431 560 560 828 941 1365
2099 1539 3325 49 341 60 508 60 910 0 402 -11 569 -60 910 -209 1470 -933
2828 -2042 3832 -1042 942 -2320 1502 -3727 1633 -162 15 -716 27 -870 19z
m589 -953 l59 -6 -244 -230 c-134 -127 -741 -701 -1349 -1275 -1299 -1227
-1355 -1280 -1483 -1419 -170 -184 -371 -457 -478 -650 -24 -44 -46 -81 -49
-81 -3 0 -121 483 -262 1073 l-256 1072 76 74 c241 231 650 534 967 716 737
424 1522 664 2365 724 138 10 571 11 654 2z m1419 -265 c665 -220 1259 -550
1808 -1006 156 -130 524 -498 651 -650 190 -230 358 -465 501 -702 103 -170
224 -403 206 -396 -14 5 -56 18 -694 208 -550 164 -888 265 -1245 371 -184 55
-483 145 -665 199 -181 54 -483 144 -670 200 -574 172 -674 199 -850 235 -237
48 -387 65 -628 72 -114 3 -206 9 -205 13 2 3 331 316 733 696 401 379 759
717 795 751 36 34 73 62 83 63 10 0 91 -24 180 -54z m-5779 -4093 c252 -1061
476 -1993 498 -2073 80 -291 217 -618 363 -865 25 -43 44 -79 42 -81 -2 -2
-84 20 -183 50 -98 30 -345 104 -549 164 -203 61 -566 169 -805 240 -239 72
-467 140 -507 151 -82 25 -72 7 -112 191 -130 596 -155 1267 -71 1885 92 670
327 1363 662 1945 91 160 190 319 198 320 3 0 212 -867 464 -1927z m4230 1677
c278 -17 555 -74 802 -165 158 -58 428 -196 571 -292 323 -216 611 -512 818
-838 71 -113 202 -379 250 -509 224 -607 224 -1305 0 -1912 -48 -130 -179
-396 -250 -509 -148 -233 -376 -492 -587 -667 -204 -170 -471 -328 -723 -431
-625 -255 -1354 -267 -1991 -32 -130 48 -396 179 -509 250 -339 215 -665 541
-880 880 -71 113 -202 379 -250 509 -224 607 -224 1305 0 1912 48 130 179 396
250 509 148 233 376 492 587 667 216 180 542 368 802 463 236 87 530 149 776
164 74 4 142 9 150 9 8 1 91 -3 184 -8z m3316 -909 c146 -43 495 -147 775
-231 938 -280 1040 -311 1046 -318 8 -9 52 -213 78 -362 107 -602 107 -1281 0
-1885 -96 -546 -274 -1071 -529 -1561 -95 -183 -286 -504 -300 -504 -5 0 -99
392 -671 2800 -257 1081 -300 1252 -362 1430 -72 207 -202 490 -297 645 -45
74 -47 78 -22 71 9 -3 136 -41 282 -85z m-119 -3981 c45 -190 160 -671 255
-1070 l173 -725 -82 -79 c-45 -44 -136 -125 -202 -180 -989 -824 -2227 -1271
-3500 -1265 -115 1 -238 4 -273 8 l-63 6 324 305 c1562 1475 2685 2541 2748
2611 176 194 348 428 473 642 32 54 60 97 61 95 2 -2 41 -159 86 -348z m-8021
-354 c236 -70 964 -287 1665 -496 473 -141 1381 -412 1745 -520 516 -154 746
-196 1133 -207 119 -3 217 -9 216 -12 0 -5 -1044 -992 -1502 -1422 l-103 -97
-189 63 c-1341 442 -2446 1372 -3101 2607 -41 77 -74 142 -74 144 0 2 6 2 13
-1 6 -2 95 -29 197 -59z"/>
</g>
</svg>
