<?xml version="1.0" standalone="no"?>
<!DOCTYPE svg PUBLIC "-//W3C//DTD SVG 20010904//EN"
 "http://www.w3.org/TR/2001/REC-SVG-20010904/DTD/svg10.dtd">
<svg version="1.0" xmlns="http://www.w3.org/2000/svg"
 width="1280.000000pt" height="1280.000000pt" viewBox="0 0 1280.000000 1280.000000"
 preserveAspectRatio="xMidYMid meet">
<metadata>
Created by potrace 1.15, written by Peter Selinger 2001-2017
</metadata>
<g transform="translate(0.000000,1280.000000) scale(0.100000,-0.100000)"
fill="#000000" stroke="none">
<path d="M6085 12794 c-110 -6 -329 -25 -415 -35 -1807 -211 -3431 -1170
-4482 -2647 -598 -839 -981 -1799 -1127 -2827 -44 -308 -56 -489 -56 -885 0
-396 12 -577 56 -885 198 -1388 828 -2653 1814 -3640 981 -982 2253 -1616
3640 -1814 308 -44 489 -56 885 -56 396 0 577 12 885 56 1752 250 3307 1194
4327 2627 598 839 981 1799 1127 2827 44 308 56 489 56 885 0 396 -12 577 -56
885 -250 1752 -1194 3307 -2627 4327 -928 661 -1964 1046 -3137 1163 -141 15
-750 27 -890 19z m-584 -1481 c-10 -21 -221 -472 -469 -1003 -247 -531 -730
-1566 -1072 -2300 -1040 -2230 -1380 -2960 -1652 -3545 -144 -308 -264 -564
-268 -568 -12 -14 -242 456 -318 648 -240 610 -352 1201 -352 1855 0 654 113
1247 352 1855 245 618 610 1180 1083 1664 694 710 1568 1192 2550 1405 61 13
122 24 138 25 l27 1 -19 -37z m1934 12 c1190 -250 2261 -932 2992 -1907 442
-588 763 -1307 907 -2028 69 -343 96 -626 96 -990 0 -654 -112 -1245 -352
-1855 -76 -191 -306 -662 -318 -648 -4 4 -61 125 -127 268 -130 279 -622 1333
-1343 2880 -246 528 -728 1561 -1070 2295 -342 734 -693 1487 -780 1673 -123
262 -154 337 -141 337 9 0 71 -11 136 -25z m-978 -1438 c49 -107 377 -812
1202 -2580 209 -449 381 -818 381 -820 0 -1 -738 -2 -1640 -2 -902 0 -1640 1
-1640 2 0 2 172 371 381 820 825 1768 1153 2473 1202 2580 29 62 54 112 57
112 3 0 28 -50 57 -112z m2362 -5067 c544 -1166 986 -2116 986 -2122 0 -4 -58
-57 -129 -118 -764 -654 -1704 -1064 -2701 -1180 -363 -41 -787 -41 -1150 0
-799 93 -1568 377 -2236 826 -191 129 -297 211 -570 444 l-29 25 194 415 c186
399 863 1849 913 1958 l24 52 2280 -2 2280 -3 138 -295z"/>
</g>
</svg>
