<?xml version="1.0" standalone="no"?>
<!DOCTYPE svg PUBLIC "-//W3C//DTD SVG 20010904//EN"
 "http://www.w3.org/TR/2001/REC-SVG-20010904/DTD/svg10.dtd">
<svg version="1.0" xmlns="http://www.w3.org/2000/svg"
 width="1260.000000pt" height="1280.000000pt" viewBox="0 0 1260.000000 1280.000000"
 preserveAspectRatio="xMidYMid meet">
<metadata>
Created by potrace 1.15, written by Peter Selinger 2001-2017
</metadata>
<g transform="translate(0.000000,1280.000000) scale(0.100000,-0.100000)"
fill="#000000" stroke="none">
<path d="M5861 12787 c-13 -17 -72 -196 -102 -314 -15 -57 -23 -119 -23 -178
-1 -77 3 -98 25 -146 33 -70 90 -134 143 -161 40 -20 42 -20 158 -2 61 10 120
91 167 232 29 85 27 141 -6 210 -38 77 -129 167 -185 183 -57 17 -83 41 -120
117 -35 71 -41 77 -57 59z m169 -458 c56 -30 94 -65 80 -74 -20 -12 -214 -9
-238 4 -28 15 -28 42 1 68 39 37 90 37 157 2z"/>
<path d="M8260 12655 c-68 -168 -131 -434 -133 -560 -1 -64 3 -88 21 -121 45
-87 188 -184 270 -184 77 0 216 108 260 203 67 142 47 324 -42 392 -18 13 -76
43 -130 65 -155 64 -215 112 -217 169 0 14 -4 35 -9 46 -7 18 -9 18 -20 -10z
m101 -425 c68 -13 172 -63 191 -93 20 -30 29 -69 20 -85 -8 -12 -73 -29 -154
-39 -45 -5 -50 -4 -86 33 -40 40 -91 162 -77 184 8 13 38 13 106 0z"/>
<path d="M6699 12448 c-38 -52 -127 -236 -164 -338 -37 -101 -38 -179 -3 -246
36 -71 53 -149 98 -463 41 -288 52 -346 89 -486 12 -44 44 -210 72 -370 127
-734 177 -985 221 -1102 12 -32 17 -62 12 -75 -3 -13 -122 -138 -264 -278
-240 -238 -260 -261 -300 -339 -23 -46 -67 -120 -96 -163 -75 -110 -92 -147
-115 -246 -24 -109 -36 -331 -20 -388 18 -68 79 -126 184 -178 203 -99 426
-147 800 -172 89 -5 98 -8 102 -27 3 -12 21 -119 40 -237 40 -251 57 -432 44
-467 -16 -43 -47 -48 -294 -47 -648 2 -1003 92 -1239 313 -21 20 -81 88 -132
152 -87 109 -166 189 -186 189 -37 0 -133 -441 -126 -574 4 -71 4 -72 95 -206
201 -296 300 -582 277 -794 -15 -129 -44 -173 -214 -318 -127 -109 -177 -138
-236 -138 -55 0 -90 25 -177 125 -125 142 -147 218 -69 230 106 16 114 38 51
135 -85 132 -461 489 -573 545 -43 22 -52 23 -70 11 -50 -32 -107 -184 -132
-351 -24 -151 -16 -191 52 -294 87 -130 177 -287 275 -481 49 -96 101 -195
114 -219 14 -24 25 -54 25 -66 0 -116 -444 -428 -754 -529 -175 -58 -264 -70
-491 -70 -186 0 -220 2 -296 22 -416 109 -607 295 -683 667 -24 116 -38 323
-35 492 3 131 7 164 22 186 26 40 59 35 99 -13 51 -62 166 -147 353 -260 130
-79 171 -99 178 -89 186 315 226 374 286 415 61 41 89 34 282 -72 63 -35 123
-64 132 -64 28 0 211 249 272 370 79 156 42 199 -340 400 l-119 63 -39 -44
c-61 -70 -135 -186 -149 -232 -18 -61 -134 -177 -177 -177 -52 0 -141 51 -279
162 -60 48 -80 58 -111 58 -64 0 -123 -73 -226 -280 -47 -95 -106 -188 -123
-195 -29 -11 -35 7 -28 89 8 90 56 352 87 464 37 139 86 204 222 295 348 233
564 317 892 348 73 7 223 9 380 6 289 -6 344 -14 530 -82 133 -48 270 -85 321
-85 74 0 78 13 82 226 4 222 -5 275 -57 341 -75 95 -248 220 -459 331 -160 85
-246 145 -337 237 -124 125 -212 267 -318 511 -104 241 -149 415 -126 482 12
34 55 59 122 71 l42 7 -1 55 c-1 76 -46 166 -170 344 -53 77 -143 210 -199
296 -105 160 -179 249 -208 249 -33 0 -97 -121 -156 -297 -52 -156 -60 -216
-31 -263 44 -73 81 -163 111 -266 30 -106 38 -143 85 -394 44 -240 58 -284
239 -810 64 -187 64 -249 0 -250 -31 0 -288 -119 -486 -225 -213 -113 -289
-159 -376 -226 -35 -27 -70 -49 -77 -49 -52 0 -938 -885 -1206 -1205 -164
-195 -241 -275 -322 -333 -52 -37 -84 -68 -93 -89 -10 -25 -29 -39 -87 -67
-121 -58 -216 -80 -348 -80 -102 -1 -121 2 -164 23 -239 119 -318 506 -230
1141 32 233 85 400 224 713 56 126 75 222 50 252 -21 25 -57 18 -83 -17 -58
-77 -234 -470 -302 -675 -68 -202 -134 -510 -155 -722 -14 -142 -13 -215 6
-328 82 -511 315 -895 597 -985 53 -17 76 -19 157 -12 260 22 406 -8 333 -67
-26 -22 -51 -89 -72 -191 -38 -183 -46 -300 -46 -673 0 -299 3 -379 18 -475
54 -336 116 -536 228 -725 26 -44 59 -106 74 -138 21 -44 48 -75 119 -137 279
-245 495 -360 760 -406 162 -29 488 -1 824 70 109 24 116 18 146 -132 47 -235
210 -549 373 -722 128 -136 359 -272 518 -305 219 -45 381 41 674 358 57 61
137 153 177 204 74 93 105 119 129 110 16 -7 31 -116 45 -322 11 -164 25 -267
41 -296 4 -9 17 -75 29 -145 26 -172 52 -259 110 -379 110 -227 277 -414 435
-486 85 -38 205 -63 276 -56 79 7 127 37 227 141 125 131 206 264 314 516 27
63 64 140 82 170 18 30 39 78 45 107 14 57 90 187 207 354 166 236 307 381
464 476 41 25 116 72 165 104 110 70 156 84 230 69 53 -11 149 -62 194 -103
13 -12 61 -71 106 -132 110 -148 240 -292 359 -396 183 -161 239 -182 481
-183 141 -1 169 2 235 22 223 70 476 243 848 578 293 263 324 286 494 355 181
73 241 188 255 489 6 133 5 136 -18 164 -21 24 -34 29 -90 33 -94 8 -160 -14
-253 -84 -42 -32 -95 -70 -119 -85 -23 -15 -85 -67 -138 -115 -515 -471 -583
-524 -754 -594 -49 -20 -113 -48 -141 -63 -72 -38 -197 -53 -309 -38 -272 36
-496 202 -733 542 -102 147 -167 214 -240 248 -108 49 -271 15 -434 -90 -141
-91 -394 -326 -585 -543 -148 -169 -199 -244 -263 -390 -93 -213 -304 -638
-359 -723 -67 -105 -140 -169 -258 -229 -75 -38 -106 -48 -157 -51 -56 -4 -71
-1 -117 24 -74 41 -207 175 -257 260 -109 184 -144 399 -145 889 -1 501 11
524 483 994 267 266 436 421 561 513 85 64 131 89 212 119 33 12 64 31 73 44
27 42 69 62 514 248 151 64 334 143 405 177 193 92 331 149 373 156 35 5 40 3
93 -53 30 -32 88 -105 129 -163 105 -149 135 -184 220 -253 128 -103 238 -141
410 -141 216 0 508 95 561 181 12 19 47 51 78 71 73 48 142 141 233 312 39 74
89 162 110 196 46 74 63 121 88 239 39 183 51 294 56 495 3 113 7 215 10 227
2 13 18 38 35 57 33 39 308 225 489 332 63 37 162 98 218 136 57 37 112 68
123 68 29 0 37 -26 54 -186 9 -82 34 -288 56 -459 22 -170 46 -362 54 -427 28
-220 46 -514 55 -903 9 -385 19 -504 46 -558 44 -84 128 34 184 255 78 311
117 902 91 1399 -16 325 -136 1555 -167 1711 -4 22 0 29 24 42 35 18 151 39
332 61 190 23 366 60 427 91 30 14 72 47 98 77 75 84 182 251 245 381 83 172
111 262 117 372 5 83 3 97 -19 145 -31 66 -161 231 -277 353 -76 79 -97 94
-186 137 -191 91 -341 128 -654 159 -314 31 -425 61 -456 121 -29 54 -11 145
30 155 32 8 71 -15 135 -80 58 -60 83 -68 101 -34 16 30 4 117 -21 148 -35 44
-57 92 -85 190 -27 95 -203 516 -277 664 -22 43 -49 115 -60 160 -24 96 -47
143 -126 262 -58 86 -145 184 -163 184 -29 0 -177 -277 -202 -379 -17 -67 -11
-103 48 -282 49 -150 61 -214 75 -404 5 -71 16 -152 24 -180 21 -70 35 -200
37 -340 2 -130 -3 -159 -29 -171 -28 -13 -576 -17 -682 -4 -102 11 -180 31
-216 55 -19 12 -23 26 -29 102 -21 282 -59 583 -130 1013 -44 271 -45 281 -29
318 27 64 89 52 178 -33 54 -52 115 -83 137 -69 18 11 5 117 -26 214 -66 207
-199 504 -404 905 -166 323 -329 605 -351 605 -17 0 -120 -276 -151 -405 -26
-108 -24 -146 12 -287 63 -252 97 -449 133 -784 44 -401 64 -528 116 -734 16
-63 38 -196 49 -295 11 -99 32 -247 46 -328 14 -82 28 -186 31 -232 6 -76 5
-84 -13 -93 -44 -24 -394 -44 -998 -58 l-290 -6 -79 440 c-43 242 -80 451 -83
464 -4 22 6 28 134 80 269 111 369 140 497 142 127 2 178 -23 261 -129 52 -65
87 -34 101 90 3 33 19 89 34 125 37 85 47 126 61 241 15 133 5 166 -75 244
-81 80 -141 109 -226 109 -36 1 -81 -5 -100 -13 -30 -12 -185 -83 -739 -337
-41 -19 -75 -34 -76 -34 -1 0 -12 21 -23 48 -61 144 -126 466 -168 837 -20
178 -25 508 -8 525 22 22 58 -1 145 -91 83 -84 121 -108 154 -95 38 14 6 132
-71 256 -66 107 -107 190 -152 310 -52 138 -96 236 -237 525 -64 132 -139 290
-167 350 -49 109 -90 175 -108 175 -6 0 -24 -19 -41 -42z m395 -3717 c23 -26
44 -246 37 -388 -1 -16 -89 -33 -173 -33 -150 0 -247 33 -276 92 -25 53 31
134 161 235 137 106 214 135 251 94z m3343 -1031 c30 -19 41 -50 48 -135 4
-38 13 -114 21 -167 20 -139 19 -201 -5 -222 -29 -27 -130 -54 -264 -73 -159
-21 -560 -25 -595 -5 -38 22 -52 74 -67 241 -16 177 -24 209 -61 258 -14 19
-24 36 -22 38 2 3 496 64 633 78 92 10 290 2 312 -13z m798 -15 c294 -77 548
-213 630 -338 23 -35 15 -42 -64 -52 -160 -20 -266 -35 -356 -50 -69 -11 -144
-15 -242 -13 -125 3 -145 5 -170 24 -46 34 -56 81 -57 251 -1 147 0 152 23
177 21 22 33 26 82 26 31 0 101 -11 154 -25z m-2256 -90 c65 -20 105 -57 120
-111 6 -21 18 -97 26 -169 8 -71 22 -160 31 -197 8 -37 12 -72 9 -78 -23 -38
-226 -89 -455 -114 -71 -8 -509 -45 -625 -53 -158 -10 -244 21 -265 95 -11 40
-37 598 -28 607 4 4 351 26 623 39 44 2 177 2 295 0 166 -2 227 -6 269 -19z
m1616 -1099 c19 -8 41 -28 50 -46 20 -39 70 -257 85 -371 21 -161 -6 -202
-202 -306 -73 -38 -205 -116 -293 -173 -183 -118 -245 -150 -296 -150 -41 0
-70 25 -93 81 -17 41 -36 177 -36 259 0 30 -14 136 -30 235 -16 99 -30 213
-30 253 0 70 2 76 33 106 41 42 70 48 392 90 292 38 370 42 420 22z m-1344
-144 c54 -68 97 -309 159 -902 16 -151 65 -505 99 -720 55 -339 51 -434 -20
-515 -77 -88 -443 -205 -640 -205 -126 0 -257 49 -331 125 -77 78 -75 125 8
242 158 221 263 616 251 943 -10 268 -84 431 -281 617 -180 170 -263 169 -439
-9 -107 -109 -195 -221 -230 -296 -49 -105 -107 -446 -107 -632 0 -62 9 -137
25 -215 14 -66 28 -150 31 -187 l7 -66 -42 -26 c-50 -32 -112 -60 -301 -136
-80 -32 -262 -108 -406 -168 -144 -61 -284 -117 -311 -125 -67 -20 -95 -35
-223 -120 -59 -40 -161 -107 -226 -149 -234 -152 -474 -354 -628 -527 -180
-203 -401 -485 -626 -801 -94 -131 -161 -212 -270 -324 -247 -254 -475 -437
-605 -485 -147 -55 -341 -63 -480 -20 -60 18 -78 30 -130 83 -109 113 -185
295 -185 446 0 113 18 137 167 235 488 318 1009 661 1067 702 80 55 448 418
582 573 129 149 179 221 235 335 73 152 101 279 134 630 9 94 23 197 31 230
19 76 74 158 206 300 222 241 240 285 328 780 23 127 44 233 48 236 4 4 309 4
679 1 l671 -5 26 -136 c31 -168 46 -285 46 -371 0 -154 71 -157 145 -7 48 99
65 170 75 319 10 145 23 204 48 217 37 20 185 43 387 61 265 25 446 45 655 75
98 14 203 23 258 22 85 -2 96 -4 113 -25z m-6831 -103 c0 -54 -28 -211 -62
-338 -76 -290 -87 -712 -28 -1056 23 -136 44 -201 116 -359 69 -153 150 -289
215 -360 42 -47 222 -183 327 -248 15 -10 97 -31 182 -48 85 -16 165 -35 177
-41 12 -7 27 -25 34 -41 17 -40 5 -152 -20 -192 -39 -60 -52 -102 -81 -248
-36 -180 -54 -244 -93 -328 -83 -176 -191 -217 -597 -227 -322 -8 -442 14
-646 118 -308 156 -521 418 -627 769 -70 233 -87 526 -47 830 41 310 39 358
-21 401 -39 28 -37 58 7 100 58 54 123 147 135 192 23 87 91 178 351 464 91
100 208 232 260 295 110 131 289 307 356 349 52 33 62 28 62 -32z m5920 -917
c68 -33 138 -174 147 -292 12 -152 -59 -247 -197 -266 -104 -14 -177 35 -259
173 -114 193 -81 342 86 388 72 20 181 18 223 -3z m-3087 -774 c10 -20 23 -66
28 -101 14 -90 0 -120 -93 -194 -40 -32 -118 -101 -173 -154 -55 -53 -125
-118 -155 -145 -119 -104 -510 -411 -591 -464 -47 -31 -116 -81 -155 -112 -38
-31 -91 -65 -119 -75 -27 -11 -126 -63 -219 -116 -243 -139 -366 -186 -374
-144 -3 17 88 366 130 497 26 81 72 174 110 222 28 36 134 98 168 98 23 0 120
41 320 135 91 43 189 86 219 96 94 33 214 103 428 251 314 217 372 250 428
246 24 -2 34 -11 48 -40z"/>
<path d="M6515 5874 c-73 -37 -179 -173 -267 -343 -39 -75 -40 -79 -25 -107
35 -68 214 -217 360 -298 103 -58 102 -103 -8 -321 -62 -124 -78 -163 -82
-212 -7 -75 5 -99 57 -113 22 -6 77 -36 122 -66 149 -100 191 -115 258 -88 53
21 98 78 170 213 30 57 76 128 103 158 26 30 47 59 47 65 0 23 -79 85 -170
133 -88 46 -189 118 -217 154 -29 37 -3 134 88 338 70 158 74 195 29 266 -25
39 -42 53 -95 77 -36 16 -94 50 -129 75 -115 82 -180 101 -241 69z"/>
<path d="M1590 5072 c-30 -30 -60 -114 -60 -168 0 -52 25 -96 116 -205 101
-120 209 -264 246 -329 100 -175 229 -574 248 -767 10 -104 17 -125 34 -97 6
11 12 99 14 219 4 215 -16 484 -43 588 -19 73 -164 374 -247 514 -92 155 -208
273 -268 273 -7 0 -24 -13 -40 -28z"/>
<path d="M4854 12292 c-49 -35 -96 -121 -123 -222 -26 -99 -31 -143 -40 -353
-4 -97 -10 -180 -14 -183 -13 -13 -31 3 -357 301 -63 58 -125 108 -138 111
-84 22 -146 -165 -93 -282 26 -57 66 -85 209 -142 135 -55 178 -83 224 -146
70 -95 158 -307 158 -379 0 -48 -28 -78 -123 -133 -174 -100 -495 -317 -658
-446 -105 -82 -131 -131 -133 -245 -1 -39 2 -74 6 -78 13 -14 54 10 331 194
155 103 327 213 382 245 55 32 181 107 280 166 99 59 232 136 295 170 63 35
203 113 310 175 107 62 250 140 317 175 144 73 198 124 233 216 28 75 37 139
20 159 -20 24 -75 18 -157 -16 -71 -30 -176 -91 -533 -311 -160 -98 -469 -268
-487 -268 -7 0 -5 15 4 43 23 65 41 238 53 497 16 342 30 421 81 464 26 22 40
26 94 26 77 0 110 13 125 51 35 84 -89 239 -190 239 -25 0 -50 -10 -76 -28z"/>
<path d="M3272 11838 c-21 -27 -44 -150 -81 -448 -61 -485 -27 -656 160 -807
35 -29 79 -60 97 -70 l34 -18 41 46 c56 61 112 178 137 282 10 47 31 111 45
142 14 32 25 75 25 97 0 39 -26 98 -43 98 -16 0 -39 -74 -41 -132 -3 -66 -15
-80 -83 -97 -95 -25 -194 -7 -211 37 -30 76 -54 295 -56 509 -1 154 0 163 21
182 29 27 37 70 23 123 -13 48 -26 68 -45 68 -7 0 -17 -6 -23 -12z"/>
<path d="M10945 11172 c-27 -15 -77 -46 -110 -68 -80 -54 -210 -126 -384 -214
-80 -39 -161 -85 -180 -100 -20 -16 -81 -54 -136 -86 -137 -78 -195 -122 -301
-229 -120 -120 -158 -191 -115 -215 48 -25 123 -2 198 62 71 60 155 108 478
272 396 202 542 285 600 341 56 54 65 79 65 172 0 99 -27 114 -115 65z"/>
<path d="M6392 11015 c-78 -36 -214 -117 -487 -290 -132 -84 -364 -228 -515
-320 -530 -323 -779 -488 -1001 -665 -70 -56 -91 -79 -108 -121 -26 -60 -24
-89 7 -105 47 -23 171 27 361 148 218 139 558 349 911 563 346 211 539 331
795 497 55 36 113 80 129 99 26 31 28 38 23 94 -8 78 -25 125 -45 125 -10 0
-41 -11 -70 -25z"/>
<path d="M2334 10709 c-95 -27 -214 -207 -222 -335 -6 -85 22 -140 132 -262
114 -128 116 -131 81 -184 -15 -24 -80 -94 -144 -157 l-116 -114 -6 89 c-9
136 -50 222 -172 359 -35 39 -36 40 -51 20 -56 -69 -108 -148 -126 -189 -21
-49 -27 -126 -10 -126 5 0 31 14 57 30 33 21 59 30 90 30 89 0 118 -47 118
-185 -1 -120 -30 -214 -88 -285 -62 -77 -70 -90 -63 -97 31 -31 358 259 638
566 l68 74 68 -6 c75 -7 85 -2 110 56 17 41 15 148 -3 174 -29 42 -45 105 -54
221 -12 138 -29 195 -78 252 -60 70 -142 94 -229 69z m97 -257 c23 -21 32 -39
36 -72 6 -52 -8 -115 -25 -115 -16 0 -81 63 -103 100 -18 29 -26 95 -12 108
17 17 74 6 104 -21z"/>
<path d="M5770 9849 c-73 -43 -179 -214 -199 -323 -21 -111 6 -187 105 -297
128 -143 118 -161 -295 -529 -160 -143 -282 -243 -531 -439 -56 -45 -89 -76
-81 -79 23 -8 309 141 441 230 139 93 198 138 445 343 248 205 300 245 324
245 26 0 92 -33 110 -54 22 -27 56 -19 91 20 37 43 53 79 45 105 -4 10 -36 53
-72 96 -111 131 -125 190 -73 301 36 75 38 121 9 197 -25 67 -107 161 -164
186 -53 24 -112 23 -155 -2z m106 -210 c36 -22 68 -67 78 -112 8 -32 -4 -83
-37 -157 l-23 -52 -43 65 c-57 87 -84 162 -78 210 9 69 42 84 103 46z"/>
<path d="M11950 9654 c-76 -71 -96 -139 -125 -419 -9 -82 -18 -157 -20 -165
-2 -8 -9 -34 -15 -57 -6 -24 -16 -43 -22 -43 -18 0 -76 67 -182 210 -55 74
-123 159 -150 189 -54 58 -158 131 -186 131 -17 0 -64 -45 -72 -70 -21 -65
366 -616 576 -820 55 -53 57 -54 83 -40 40 23 81 80 104 145 23 65 34 150 48
380 11 169 22 217 58 252 20 21 31 24 60 20 49 -8 88 1 118 29 49 45 27 111
-76 228 -80 90 -127 97 -199 30z"/>
<path d="M9724 9445 c-20 -50 -99 -337 -125 -461 -28 -127 -30 -265 -6 -315
24 -48 61 -82 126 -114 73 -37 125 -43 152 -19 29 26 60 91 97 201 37 107 48
168 34 177 -5 3 -32 -10 -58 -29 -110 -80 -168 -93 -214 -47 -43 44 -49 125
-17 239 14 48 29 104 32 123 4 19 16 50 26 68 22 38 24 106 6 166 -16 52 -34
56 -53 11z"/>
<path d="M2581 9385 c-39 -107 -69 -249 -110 -515 -36 -233 -46 -286 -60 -323
-32 -84 12 -317 89 -467 34 -66 124 -156 178 -177 86 -33 180 -18 219 36 30
40 77 137 102 210 53 156 70 345 36 398 l-18 27 -18 -22 c-9 -12 -27 -66 -39
-120 -33 -143 -58 -180 -137 -201 -80 -22 -120 7 -150 108 -15 49 -17 114 -18
536 0 457 -1 483 -21 540 l-20 60 -33 -90z"/>
<path d="M7972 9156 c-1 -10 -17 -33 -36 -50 -43 -41 -62 -99 -86 -267 -25
-167 -25 -315 -2 -384 15 -44 22 -52 56 -63 46 -15 124 -4 184 27 51 26 139
122 147 162 12 54 -8 63 -142 67 l-116 4 5 216 c2 120 1 237 -2 262 -4 25 -8
37 -8 26z"/>
<path d="M1625 9113 c-113 -34 -214 -136 -251 -251 -12 -39 -15 -77 -12 -140
5 -96 16 -124 97 -245 41 -63 46 -76 46 -126 0 -47 -6 -67 -35 -115 -97 -160
-299 -392 -336 -384 -16 3 -19 12 -17 53 7 228 -3 303 -48 370 -59 85 -159 87
-222 3 -14 -18 -43 -70 -66 -115 -30 -61 -38 -84 -28 -90 6 -4 65 -7 129 -5
l118 2 0 -97 c-1 -152 -16 -285 -37 -334 -13 -28 -56 -79 -117 -139 -106 -104
-124 -126 -108 -142 21 -21 62 4 172 106 64 60 134 115 164 129 28 14 75 46
104 72 76 68 230 250 344 407 55 76 109 145 121 153 23 16 88 18 177 6 74 -11
101 -2 122 40 36 69 18 134 -52 189 -47 37 -70 76 -70 119 0 16 11 81 25 145
69 321 -6 455 -220 389z m79 -249 c19 -19 21 -103 3 -153 -7 -19 -24 -43 -39
-54 -26 -19 -27 -19 -59 -1 -71 42 -99 126 -59 177 13 16 32 33 44 37 35 14
93 11 110 -6z"/>
<path d="M1410 7311 c-88 -59 -140 -174 -208 -461 -64 -265 -84 -269 -207 -42
-104 193 -245 373 -315 402 -27 11 -34 10 -71 -14 -78 -52 -85 -123 -26 -246
37 -74 145 -189 245 -259 80 -57 124 -122 191 -287 89 -216 111 -268 120 -283
16 -25 41 -3 71 61 56 121 100 348 100 518 0 126 17 255 40 307 11 24 33 51
52 63 34 22 73 23 208 5 60 -8 75 4 74 57 -1 50 -24 100 -68 146 -66 70 -134
81 -206 33z"/>
<path d="M12329 6317 c-93 -63 -144 -213 -174 -511 -18 -180 -37 -256 -64
-256 -24 0 -40 20 -89 108 -82 145 -287 385 -367 428 l-36 19 -19 -25 c-40
-52 -57 -207 -31 -273 17 -44 88 -107 221 -197 160 -109 214 -161 234 -231 34
-113 14 -267 -54 -413 -17 -38 -38 -101 -46 -140 -20 -97 -35 -132 -115 -271
-82 -143 -108 -214 -116 -315 -7 -97 9 -178 87 -429 114 -366 163 -576 180
-768 14 -157 32 -187 88 -147 21 14 22 23 22 133 0 210 -66 616 -149 916 -52
185 -71 285 -72 373 -1 84 13 114 67 137 31 13 193 41 440 75 l81 12 7 60 c10
101 7 193 -9 238 -8 23 -46 84 -85 136 -41 57 -72 110 -76 131 -17 89 42 620
86 774 14 51 51 87 96 94 107 17 151 52 161 125 13 97 -109 240 -205 240 -16
0 -44 -10 -63 -23z m-210 -1516 c36 -23 -33 -71 -102 -71 -31 0 -57 14 -57 32
0 5 15 17 33 28 33 21 101 26 126 11z"/>
<path d="M3553 5704 c-63 -31 -172 -195 -214 -322 -25 -74 -23 -155 4 -196 10
-14 52 -49 95 -78 42 -28 128 -91 190 -140 137 -106 165 -122 191 -108 35 18
115 117 180 222 115 183 134 261 85 345 -62 106 -358 293 -464 293 -19 0 -49
-8 -67 -16z"/>
<path d="M10583 4193 c-15 -22 -18 -59 -23 -229 -3 -133 -9 -207 -16 -214 -32
-32 -77 41 -114 186 -27 101 -51 141 -96 160 -84 35 -98 -4 -88 -240 6 -154 5
-178 -10 -201 -13 -20 -25 -25 -56 -25 -49 0 -77 32 -85 98 -19 153 -29 203
-49 238 -18 33 -27 39 -58 42 -53 4 -61 -18 -61 -158 1 -208 39 -385 98 -448
30 -33 37 -36 86 -36 45 0 69 9 144 48 l90 48 115 -6 c140 -7 151 -2 239 108
79 100 111 169 111 241 0 126 -135 415 -194 415 -9 0 -23 -12 -33 -27z"/>
<path d="M6573 3131 c-146 -50 -239 -199 -231 -370 4 -102 36 -164 138 -274
44 -47 80 -87 80 -89 0 -7 -374 -356 -495 -462 -60 -53 -124 -103 -142 -111
-68 -33 -233 -171 -233 -196 0 -8 17 -10 54 -6 129 13 412 201 626 416 85 85
114 122 145 184 61 121 116 142 249 92 65 -24 69 -25 103 -9 19 10 46 33 59
53 26 40 24 63 -10 130 -30 56 -46 175 -46 329 0 81 -5 165 -11 187 -15 55
-83 119 -142 133 -61 16 -82 15 -144 -7z m69 -241 c14 0 40 -12 57 -26 25 -21
31 -34 31 -64 0 -65 -41 -97 -118 -92 -29 3 -99 75 -107 113 -11 48 33 84 90
73 11 -2 32 -4 47 -4z"/>
<path d="M8613 3028 c-56 -62 -192 -320 -228 -433 -25 -82 -54 -63 372 -254
111 -50 213 -93 228 -97 22 -5 33 0 66 32 50 48 104 135 128 206 18 51 58 134
121 247 l30 54 -26 28 c-73 76 -499 239 -624 239 -35 0 -51 -5 -67 -22z"/>
<path d="M10896 1715 c-202 -122 -474 -318 -589 -424 -66 -62 -113 -91 -147
-91 -13 0 -41 -20 -68 -49 -26 -27 -119 -112 -207 -188 -183 -160 -293 -272
-318 -325 -35 -73 -13 -138 47 -138 78 0 298 150 776 529 546 433 680 563 680
656 0 41 -27 95 -47 95 -10 0 -67 -29 -127 -65z"/>
</g>
</svg>
