<?xml version="1.0" standalone="no"?>
<!DOCTYPE svg PUBLIC "-//W3C//DTD SVG 20010904//EN"
 "http://www.w3.org/TR/2001/REC-SVG-20010904/DTD/svg10.dtd">
<svg version="1.0" xmlns="http://www.w3.org/2000/svg"
 width="1169.000000pt" height="1280.000000pt" viewBox="0 0 1169.000000 1280.000000"
 preserveAspectRatio="xMidYMid meet">
<metadata>
Created by potrace 1.15, written by Peter Selinger 2001-2017
</metadata>
<g transform="translate(0.000000,1280.000000) scale(0.100000,-0.100000)"
fill="#000000" stroke="none">
<path d="M6080 12794 c-685 -44 -1054 -112 -1646 -304 -677 -219 -1443 -661
-2034 -1174 -392 -341 -729 -703 -1096 -1181 -234 -304 -500 -735 -655 -1062
-308 -648 -463 -1151 -573 -1858 -76 -490 -99 -1082 -56 -1477 82 -765 159
-1106 393 -1748 120 -331 295 -681 530 -1064 214 -350 663 -883 972 -1155 437
-385 737 -597 1240 -873 988 -541 1930 -825 2930 -883 981 -57 1893 121 2710
528 385 191 665 369 975 616 459 366 927 852 1223 1269 77 108 155 220 175
247 54 76 10 28 -155 -170 -394 -473 -1037 -993 -1631 -1318 -432 -237 -953
-435 -1498 -568 -1188 -290 -2572 -172 -3689 316 -1123 491 -1984 1216 -2643
2225 -291 447 -549 990 -677 1425 -26 88 -62 210 -80 270 -63 209 -143 645
-175 956 -81 772 -8 1514 226 2292 179 596 417 1095 781 1637 524 781 1310
1485 2136 1911 375 194 726 335 1077 434 370 105 773 188 1034 215 110 11 239
25 286 30 47 6 207 10 355 10 589 0 1139 -83 1740 -264 675 -202 1303 -524
1900 -975 221 -167 492 -408 644 -572 188 -203 193 -207 70 -49 -162 208 -500
573 -726 784 -422 394 -753 624 -1298 902 -350 179 -579 271 -955 385 -334
102 -803 193 -1155 224 -160 14 -553 26 -655 19z"/>
<path d="M6680 11834 c0 -2 132 -105 293 -228 431 -331 790 -648 1059 -934
582 -621 1019 -1268 1265 -1872 118 -290 221 -642 287 -975 55 -281 86 -612
86 -925 0 -1011 -372 -2224 -1000 -3265 -406 -673 -703 -1085 -1139 -1585
-312 -357 -667 -730 -883 -926 l-157 -143 57 -8 c31 -4 221 -7 422 -7 426 0
638 19 906 80 401 90 895 274 1173 435 282 164 609 402 771 561 152 148 479
492 593 623 134 155 357 462 460 635 302 506 574 1211 687 1778 53 270 69 376
97 617 24 219 27 273 26 615 0 376 -6 487 -49 840 -42 348 -109 637 -251 1075
-98 304 -286 716 -473 1039 -204 354 -339 531 -691 906 l-276 295 -309 229
c-297 222 -319 236 -626 406 -304 169 -332 182 -640 303 -370 145 -683 241
-1038 318 -275 60 -650 125 -650 113z"/>
</g>
</svg>
