<?xml version="1.0" standalone="no"?>
<!DOCTYPE svg PUBLIC "-//W3C//DTD SVG 20010904//EN"
 "http://www.w3.org/TR/2001/REC-SVG-20010904/DTD/svg10.dtd">
<svg version="1.0" xmlns="http://www.w3.org/2000/svg"
 width="1280.000000pt" height="1189.000000pt" viewBox="0 0 1280.000000 1189.000000"
 preserveAspectRatio="xMidYMid meet">
<metadata>
Created by potrace 1.15, written by Peter Selinger 2001-2017
</metadata>
<g transform="translate(0.000000,1189.000000) scale(0.100000,-0.100000)"
fill="#000000" stroke="none">
<path d="M60 11873 c-29 -15 -36 -24 -38 -55 -5 -55 29 -109 136 -220 147
-152 367 -311 684 -495 l136 -80 -74 5 c-90 6 -130 -8 -139 -47 -8 -39 7 -71
61 -132 86 -97 207 -198 355 -297 80 -53 154 -101 163 -107 13 -7 -8 -9 -71
-7 -106 3 -137 -9 -141 -56 -7 -74 152 -226 374 -358 14 -8 -5 -12 -88 -17
-117 -6 -168 -23 -193 -61 -16 -24 -16 -28 5 -71 37 -77 163 -178 333 -266
l88 -45 -68 -13 c-117 -22 -157 -63 -132 -138 25 -76 184 -212 332 -284 l47
-23 -78 -19 c-149 -36 -182 -48 -217 -78 -57 -51 -46 -110 34 -187 63 -60 136
-104 253 -152 51 -21 86 -41 78 -43 -242 -74 -369 -144 -382 -210 -18 -95 152
-212 377 -257 33 -7 67 -14 75 -17 9 -2 -15 -18 -55 -37 -79 -37 -206 -116
-247 -154 -41 -37 -53 -83 -33 -121 44 -86 238 -150 455 -152 78 0 90 -2 70
-11 -163 -71 -294 -152 -353 -218 -44 -48 -46 -68 -11 -109 49 -58 224 -93
434 -85 97 4 102 3 70 -10 -157 -61 -380 -224 -380 -277 0 -24 50 -60 105 -74
102 -26 342 -15 515 24 59 13 62 7 6 -12 -108 -37 -333 -200 -370 -268 -55
-100 54 -154 299 -147 l132 3 -36 -24 c-88 -59 -191 -155 -212 -198 -20 -41
-20 -45 -5 -68 49 -75 254 -96 479 -49 24 5 8 -15 -90 -113 -126 -126 -153
-167 -135 -208 12 -25 63 -45 118 -45 81 0 266 45 434 107 8 3 -15 -26 -51
-63 -224 -235 -257 -349 -103 -362 89 -7 228 21 359 74 13 5 4 -10 -25 -45
-25 -29 -62 -73 -83 -98 -73 -87 -88 -149 -42 -179 21 -14 42 -16 118 -11 97
6 201 33 328 86 40 17 74 29 76 28 1 -2 -12 -23 -29 -47 -62 -84 -138 -233
-138 -271 0 -118 158 -101 463 49 5 2 4 -5 -2 -16 -23 -43 -81 -216 -81 -241
0 -15 7 -37 16 -50 15 -21 23 -23 74 -19 64 5 190 60 274 122 28 19 51 34 53
33 1 -2 -4 -34 -12 -72 -20 -96 -19 -137 6 -169 16 -21 29 -26 64 -26 94 0
210 66 347 198 44 43 69 60 72 51 2 -8 9 -34 16 -58 6 -23 14 -49 17 -57 6
-16 -77 -56 -137 -68 -19 -3 -65 -29 -102 -57 -56 -42 -69 -57 -79 -92 -14
-53 -33 -75 -86 -98 -36 -15 -54 -37 -138 -163 -53 -80 -126 -181 -163 -223
-98 -113 -172 -224 -230 -343 -29 -58 -83 -154 -121 -215 -38 -60 -77 -132
-87 -158 -23 -58 -78 -112 -131 -126 -217 -59 -287 -80 -403 -119 -114 -39
-147 -46 -215 -46 -120 -1 -152 16 -227 126 -152 223 -347 317 -544 263 -52
-14 -64 -21 -59 -34 4 -15 -2 -17 -42 -17 -70 1 -108 -19 -164 -88 -69 -85
-112 -174 -116 -244 l-4 -57 25 46 c32 60 75 95 138 114 69 20 160 21 152 1
-4 -11 5 -17 30 -21 50 -10 80 0 125 40 21 19 44 35 50 35 17 0 98 -77 122
-116 39 -65 13 -76 -108 -48 -46 11 -98 15 -158 12 -110 -5 -152 -25 -242
-111 -68 -65 -103 -125 -103 -177 0 -24 -10 -44 -39 -75 -132 -143 -115 -316
44 -448 l30 -25 -3 48 c-3 34 2 60 18 91 26 51 68 99 87 99 52 0 107 66 151
183 32 84 64 107 147 106 90 -1 91 -7 5 -81 -149 -128 -230 -271 -230 -404 0
-36 5 -75 11 -87 20 -39 82 -97 99 -92 12 4 15 -7 16 -63 1 -158 86 -270 230
-302 31 -7 35 -6 29 8 -23 54 -35 112 -34 161 2 87 9 103 47 106 40 3 68 27
81 69 6 17 12 108 14 201 5 234 25 276 139 291 56 8 72 -7 87 -76 20 -91 14
-141 -24 -222 -39 -82 -54 -163 -36 -196 6 -12 25 -29 41 -37 27 -14 33 -14
61 0 17 9 33 14 36 11 8 -8 -62 -150 -99 -203 -18 -25 -49 -56 -68 -69 -40
-28 -27 -30 55 -9 117 31 160 58 287 182 149 146 178 198 178 313 -1 114 -51
219 -170 352 -53 60 -56 78 -13 78 47 0 237 31 343 55 75 18 144 26 240 29
118 3 148 8 234 36 54 17 119 41 145 52 41 18 69 20 281 22 209 1 239 4 275
21 33 15 64 19 170 19 123 1 133 3 190 30 37 18 83 53 120 91 68 70 137 110
210 120 73 11 145 40 210 86 l57 40 44 -46 c70 -73 128 -210 148 -350 6 -39 5
-41 -49 -78 -194 -134 -461 -383 -607 -567 -160 -201 -287 -423 -356 -621 -35
-99 -61 -199 -64 -249 l-3 -35 80 3 c95 3 176 22 257 60 32 16 58 27 58 26 0
-1 -14 -55 -30 -120 -62 -247 -79 -418 -47 -481 35 -67 88 -57 243 47 113 77
136 89 132 73 -1 -5 2 -131 6 -281 9 -308 0 -282 98 -261 94 20 182 67 261
138 l27 25 0 -65 c1 -35 7 -93 14 -127 17 -78 78 -204 108 -224 70 -45 124
-29 254 78 l102 84 68 -97 c71 -103 171 -213 192 -213 7 0 48 35 91 78 59 58
87 96 116 154 l38 78 61 -57 c64 -60 181 -122 246 -130 28 -4 42 0 64 18 24
21 31 42 56 167 16 79 30 168 32 198 2 30 4 54 6 54 1 0 44 -26 95 -58 193
-122 226 -133 268 -91 18 18 20 31 18 97 -1 42 2 159 6 259 l8 182 71 -48
c135 -91 226 -127 262 -103 22 15 34 52 34 109 0 81 -47 351 -80 463 -5 19
-10 36 -10 36 0 1 21 -5 48 -13 153 -47 372 -80 372 -55 0 28 -37 174 -66 262
-140 424 -478 859 -921 1187 -68 50 -73 56 -73 92 0 91 72 292 119 335 19 17
21 17 48 -2 56 -39 132 -71 192 -81 91 -15 143 -42 226 -121 44 -42 99 -82
133 -98 53 -25 65 -27 174 -24 101 2 125 -1 170 -20 49 -19 72 -21 283 -23
l230 -1 97 -37 c150 -57 201 -68 348 -72 92 -2 159 -10 210 -23 80 -22 225
-47 328 -58 34 -4 64 -9 66 -13 2 -3 -21 -35 -52 -71 -121 -141 -166 -238
-167 -355 0 -108 42 -182 160 -286 17 -14 50 -47 73 -73 68 -72 170 -123 283
-141 l44 -7 -36 26 c-49 34 -102 107 -144 201 -35 75 -35 77 -13 70 61 -19 83
-17 108 10 37 40 32 104 -15 203 -32 67 -37 86 -37 147 1 77 18 143 43 158 24
15 105 -1 137 -28 44 -37 55 -90 56 -275 1 -132 5 -171 18 -196 22 -41 42 -56
75 -57 35 -2 41 -10 48 -72 5 -46 -10 -143 -30 -188 -19 -44 113 4 174 64 51
50 74 111 79 206 3 47 9 80 14 77 16 -10 80 48 99 90 23 51 24 115 3 187 -30
103 -71 164 -185 273 -116 113 -117 116 -26 116 82 0 116 -23 142 -96 24 -68
65 -144 89 -163 9 -8 33 -19 53 -26 69 -23 133 -136 119 -207 -3 -15 -2 -28 3
-28 17 0 108 107 131 154 47 97 22 218 -64 313 -23 27 -36 50 -36 69 -1 96
-148 254 -264 285 -58 16 -184 13 -257 -6 -71 -19 -109 -14 -109 14 0 22 67
111 102 135 33 23 48 20 88 -19 41 -40 89 -53 135 -35 23 9 26 13 15 20 -24
16 101 12 154 -4 65 -20 110 -57 137 -113 23 -45 24 -46 27 -20 8 69 -61 213
-145 301 -46 49 -105 72 -155 62 -23 -5 -28 -2 -28 14 0 30 -93 53 -194 48
-65 -4 -94 -11 -150 -37 -83 -40 -198 -146 -262 -242 -55 -84 -80 -104 -145
-119 -71 -17 -137 -7 -292 44 -116 38 -281 87 -400 117 -57 15 -101 61 -146
152 -22 45 -70 129 -106 187 -37 58 -89 150 -116 205 -48 99 -123 208 -219
317 -27 31 -90 116 -138 190 -93 139 -121 171 -161 183 -33 10 -68 53 -76 94
-9 49 -112 132 -189 152 -23 5 -53 15 -67 20 l-26 10 20 57 c11 31 22 59 23
61 2 2 31 -21 64 -52 152 -141 312 -205 370 -147 30 30 34 64 16 157 -10 47
-16 87 -14 89 2 2 26 -13 54 -32 27 -20 86 -54 131 -76 125 -61 200 -64 223
-9 14 34 2 86 -50 212 -16 40 -28 74 -27 75 1 1 43 -17 92 -41 103 -51 252
-90 302 -80 44 8 73 38 73 74 0 39 -75 182 -142 271 -21 28 -38 53 -38 55 0 3
17 -3 38 -14 110 -56 312 -111 407 -111 151 0 152 67 2 245 -42 49 -75 90 -74
92 2 1 33 -9 69 -22 91 -33 232 -58 296 -53 40 4 60 11 79 31 25 24 26 28 15
66 -15 47 -112 181 -194 267 l-58 61 116 -39 c251 -84 444 -84 444 1 0 38 -39
88 -159 205 -85 82 -98 98 -74 93 103 -22 244 -30 321 -19 141 20 191 61 162
133 -13 32 -138 148 -210 195 -22 15 -40 27 -40 28 0 1 51 0 114 -2 247 -8
367 45 321 142 -31 64 -266 238 -368 272 -27 9 -47 17 -45 19 2 1 48 -6 103
-16 214 -40 447 -35 523 11 36 22 43 60 17 98 -37 52 -317 228 -372 234 -10 1
65 5 167 8 207 8 289 26 341 76 56 54 30 106 -97 193 -43 30 -123 76 -178 102
l-101 49 77 0 c198 0 365 47 446 123 42 41 44 89 5 135 -35 40 -179 134 -260
169 -65 28 -79 43 -42 43 38 0 181 41 245 70 177 80 233 165 162 245 -36 42
-182 114 -296 147 l-72 21 90 38 c118 48 191 93 255 154 64 62 83 110 60 154
-21 41 -74 66 -208 100 l-111 29 64 32 c184 92 320 225 320 310 0 60 -46 92
-153 105 l-56 7 87 46 c156 81 303 196 338 264 46 90 -28 137 -219 139 -68 0
-79 2 -63 12 179 112 308 218 358 296 34 54 35 72 7 97 -16 15 -41 20 -112 24
l-90 5 84 51 c191 117 379 272 460 379 29 38 39 61 39 88 0 55 -29 70 -129 66
-44 -2 -78 -3 -77 -1 2 1 66 39 142 83 373 218 630 413 748 570 103 137 80
209 -67 209 -52 0 -313 -38 -412 -60 -140 -31 -284 -79 -458 -154 l-192 -83
-28 30 c-27 29 -30 30 -91 24 -92 -9 -172 -39 -312 -117 -148 -83 -547 -332
-770 -481 -89 -59 -201 -127 -250 -152 -105 -53 -262 -155 -394 -257 -229
-177 -714 -720 -926 -1037 -96 -144 -154 -253 -199 -378 -59 -162 -67 -200
-63 -305 3 -81 7 -104 34 -161 30 -62 84 -128 132 -161 l22 -15 -24 -54 c-55
-126 -79 -306 -57 -420 7 -35 30 -101 51 -148 48 -107 62 -161 61 -228 0 -60
-20 -106 -57 -129 -14 -9 -66 -27 -115 -40 -97 -26 -202 -75 -261 -124 -20
-17 -58 -62 -83 -100 -48 -73 -99 -110 -148 -110 -19 0 -28 9 -42 43 -10 23
-28 56 -40 72 -32 45 -52 102 -65 188 -6 43 -20 97 -30 120 -10 23 -23 69 -30
102 -23 118 -116 284 -332 589 l-85 119 37 33 37 33 -65 66 c-61 63 -64 68
-58 104 11 69 -9 175 -48 253 -64 131 -80 222 -81 463 0 137 4 229 13 266 16
71 17 230 2 305 -38 185 -183 324 -387 369 -43 10 -175 42 -293 73 -204 51
-220 54 -310 50 -69 -4 -116 -13 -170 -32 -41 -15 -111 -32 -155 -37 -86 -10
-131 -22 -185 -49 -19 -10 -73 -30 -120 -44 -182 -54 -294 -164 -315 -309 -8
-52 2 -157 15 -157 4 0 33 21 63 46 54 44 57 45 92 34 19 -6 64 -40 100 -75
54 -52 75 -65 116 -74 27 -6 59 -11 70 -11 24 0 130 -52 186 -93 59 -42 68
-74 53 -190 -48 -380 -239 -679 -575 -900 -88 -58 -156 -112 -211 -169 -78
-80 -164 -197 -164 -224 0 -7 -60 -83 -134 -170 -76 -89 -148 -184 -166 -219
-31 -60 -31 -65 -37 -244 l-6 -183 -39 -46 c-21 -26 -38 -53 -38 -61 0 -10
-11 -12 -45 -9 -57 7 -89 28 -128 86 -88 130 -193 201 -367 246 -79 21 -100
31 -127 60 -61 66 -53 172 26 345 75 162 76 312 6 516 l-33 95 68 68 c92 92
114 149 115 292 0 99 -3 112 -44 230 -58 165 -112 270 -220 432 -209 312 -669
831 -905 1020 -123 100 -334 239 -419 277 -34 16 -161 93 -282 173 -288 189
-619 394 -764 474 -186 102 -327 128 -378 70 l-21 -25 -197 85 c-239 103 -390
147 -650 189 -166 27 -264 30 -305 8z"/>
</g>
</svg>
