<?xml version="1.0" standalone="no"?>
<!DOCTYPE svg PUBLIC "-//W3C//DTD SVG 20010904//EN"
 "http://www.w3.org/TR/2001/REC-SVG-20010904/DTD/svg10.dtd">
<svg version="1.0" xmlns="http://www.w3.org/2000/svg"
 width="1280.000000pt" height="1074.000000pt" viewBox="0 0 1280.000000 1074.000000"
 preserveAspectRatio="xMidYMid meet">
<metadata>
Created by potrace 1.15, written by Peter Selinger 2001-2017
</metadata>
<g transform="translate(0.000000,1074.000000) scale(0.100000,-0.100000)"
fill="#000000" stroke="none">
<path d="M5683 10663 c-83 -81 -100 -110 -307 -529 -142 -287 -245 -479 -501
-929 -121 -213 -256 -488 -330 -670 -59 -147 -106 -234 -211 -396 -35 -54 -89
-147 -121 -206 -31 -60 -68 -124 -82 -143 -57 -78 -272 -331 -361 -425 -119
-125 -143 -156 -215 -280 -67 -114 -120 -175 -181 -211 -24 -14 -109 -43 -190
-65 -192 -52 -261 -88 -287 -151 l-15 -36 -104 -3 c-90 -4 -109 -8 -148 -31
-25 -14 -57 -39 -72 -55 -39 -41 -112 -201 -228 -503 -114 -295 -170 -412
-257 -545 -84 -127 -141 -182 -253 -243 -53 -28 -114 -64 -137 -81 -54 -39
-122 -145 -278 -431 -200 -369 -370 -645 -521 -851 -35 -48 -122 -176 -195
-285 -73 -110 -159 -236 -191 -281 -38 -52 -91 -151 -148 -273 -59 -126 -120
-238 -179 -328 -124 -189 -163 -276 -165 -367 l-1 -70 30 -3 c82 -10 213 38
392 144 141 83 245 128 350 153 109 25 126 23 211 -36 39 -27 75 -43 95 -44
88 -3 177 5 260 23 59 13 153 23 262 27 206 8 218 13 367 141 123 106 183 140
303 171 79 21 113 24 275 24 164 0 195 -3 268 -24 117 -33 182 -79 278 -197
45 -54 94 -110 109 -124 15 -14 94 -104 175 -201 158 -188 198 -223 327 -288
45 -22 117 -63 159 -91 99 -64 147 -77 324 -86 170 -8 226 -20 335 -76 204
-104 328 -215 687 -618 91 -102 194 -210 229 -241 169 -147 314 -215 569 -264
105 -20 207 -69 292 -139 35 -29 120 -118 189 -197 156 -178 238 -255 309
-288 l55 -26 375 3 c223 2 438 -2 531 -9 151 -11 157 -11 204 10 66 29 179
146 242 252 29 46 61 93 71 102 50 45 230 91 417 106 72 6 189 16 260 22 167
13 387 44 545 75 361 71 449 114 731 356 280 240 420 334 614 413 60 25 135
58 165 72 70 35 153 112 179 168 11 24 29 46 39 49 11 4 27 15 37 26 17 18 16
21 -8 62 -14 24 -53 79 -87 123 -75 97 -100 144 -100 188 l0 34 73 13 c39 7
162 16 272 20 181 8 217 12 377 48 179 41 292 84 362 137 19 14 50 56 70 94
20 38 41 73 48 79 7 5 65 12 128 14 109 3 119 5 192 40 198 94 241 162 183
286 -19 41 -64 93 -194 220 -101 101 -199 209 -246 272 -43 58 -124 152 -180
210 -65 68 -143 165 -219 275 -160 229 -223 304 -537 635 -286 303 -333 367
-696 950 -316 507 -383 625 -498 882 -72 159 -150 276 -259 384 -215 216 -381
251 -513 111 -22 -23 -64 -68 -94 -100 -42 -46 -75 -69 -157 -110 -97 -48
-111 -52 -188 -56 -72 -3 -90 0 -139 22 -70 33 -99 65 -188 207 -112 180 -320
451 -468 608 -204 219 -196 206 -393 612 -107 222 -169 321 -253 404 -81 81
-138 107 -285 131 -28 4 -38 11 -38 25 0 65 -151 400 -290 640 -46 80 -112
210 -148 290 -167 378 -312 616 -506 830 -32 36 -112 131 -177 211 -162 200
-232 259 -309 259 -16 0 -30 5 -30 10 0 21 -19 8 -87 -57z"/>
</g>
</svg>
