<?xml version="1.0" standalone="no"?>
<!DOCTYPE svg PUBLIC "-//W3C//DTD SVG 20010904//EN"
 "http://www.w3.org/TR/2001/REC-SVG-20010904/DTD/svg10.dtd">
<svg version="1.0" xmlns="http://www.w3.org/2000/svg"
 width="1280.000000pt" height="1263.000000pt" viewBox="0 0 1280.000000 1263.000000"
 preserveAspectRatio="xMidYMid meet">
<metadata>
Created by potrace 1.15, written by Peter Selinger 2001-2017
</metadata>
<g transform="translate(0.000000,1263.000000) scale(0.100000,-0.100000)"
fill="#000000" stroke="none">
<path d="M5407 11354 l-997 -1009 363 -365 c200 -201 648 -652 995 -1003 348
-351 637 -637 642 -635 6 2 455 453 999 1003 l989 999 -269 276 c-148 151
-596 605 -996 1009 l-728 734 -998 -1009z"/>
<path d="M8019 9793 c-256 -257 -705 -710 -998 -1007 l-533 -538 503 -507
c277 -278 727 -730 999 -1005 l495 -498 996 1003 997 1004 -19 25 c-10 14
-459 467 -996 1008 l-978 983 -466 -468z"/>
<path d="M3365 9239 c-545 -551 -992 -1006 -994 -1011 -2 -6 199 -213 446
-462 246 -248 695 -699 995 -1002 l547 -551 513 516 c282 284 731 735 997
1003 l484 487 -101 108 c-56 59 -506 514 -999 1011 l-898 902 -990 -1001z"/>
<path d="M1267 7165 l-998 -1009 369 -370 c202 -204 650 -656 995 -1005 344
-348 631 -631 638 -629 7 2 457 454 1000 1003 l987 999 -319 326 c-175 179
-624 633 -996 1009 l-678 684 -998 -1008z"/>
<path d="M5434 7169 c-544 -550 -989 -1004 -989 -1009 0 -8 1971 -2003 1985
-2008 9 -3 1990 1996 1990 2008 0 10 -1980 2010 -1990 2010 -4 0 -452 -450
-996 -1001z"/>
<path d="M9534 7167 l-991 -1002 108 -115 c60 -63 508 -517 997 -1009 l887
-894 999 1008 998 1007 -439 442 c-241 242 -690 694 -996 1004 -306 309 -561
562 -565 561 -4 0 -453 -451 -998 -1002z"/>
<path d="M3337 5114 l-998 -1008 428 -430 c1140 -1148 1568 -1576 1573 -1576
5 0 1339 1344 1789 1802 l203 207 -548 553 c-302 304 -751 757 -999 1006
l-451 453 -997 -1007z"/>
<path d="M7487 5105 l-997 -1007 622 -629 c343 -346 792 -800 998 -1009 l375
-380 996 1007 997 1008 -379 385 c-208 212 -657 666 -996 1009 l-618 624 -998
-1008z"/>
<path d="M5410 3049 c-545 -550 -990 -1004 -988 -1009 5 -13 1982 -2008 1989
-2006 8 1 1983 1996 1987 2006 4 9 -1975 2010 -1988 2010 -4 0 -454 -450
-1000 -1001z"/>
</g>
</svg>
