<?xml version="1.0" standalone="no"?>
<!DOCTYPE svg PUBLIC "-//W3C//DTD SVG 20010904//EN"
 "http://www.w3.org/TR/2001/REC-SVG-20010904/DTD/svg10.dtd">
<svg version="1.0" xmlns="http://www.w3.org/2000/svg"
 width="1280.000000pt" height="1280.000000pt" viewBox="0 0 1280.000000 1280.000000"
 preserveAspectRatio="xMidYMid meet">
<metadata>
Created by potrace 1.15, written by Peter Selinger 2001-2017
</metadata>
<g transform="translate(0.000000,1280.000000) scale(0.100000,-0.100000)"
fill="#000000" stroke="none">
<path d="M1437 11362 l-1437 -1437 785 -785 785 -785 -785 -785 -785 -785 192
-192 193 -193 -193 -193 -192 -192 785 -785 785 -785 -785 -785 -785 -785
1438 -1438 1437 -1437 785 785 785 785 785 -785 785 -785 193 192 192 193 192
-193 193 -192 785 785 785 785 785 -785 785 -785 1437 1437 1438 1438 -785
785 -785 785 785 785 785 785 -192 192 -193 193 193 193 192 192 -785 785
-785 785 785 785 785 785 -1437 1437 -1438 1438 -785 -785 -785 -785 -785 785
-785 785 -192 -192 -193 -193 -193 193 -192 192 -785 -785 -785 -785 -785 785
-785 785 -1438 -1438z m3793 163 l785 785 70 -70 70 -70 -1120 -1120 -1120
-1120 785 -785 785 -785 -523 -522 -522 -523 -785 785 -785 785 -1120 -1120
-1120 -1120 -70 70 -70 70 785 785 785 785 -785 785 -785 785 1192 1192 1193
1193 785 -785 785 -785 785 785z m3910 0 l785 785 1192 -1192 1193 -1193 -785
-785 -785 -785 785 -785 785 -785 -70 -70 -70 -70 -1120 1120 -1120 1120 -785
-785 -785 -785 -522 523 -523 522 785 785 785 785 -1120 1120 -1120 1120 70
70 70 70 785 -785 785 -785 785 785z m-1740 -600 l995 -995 -785 -785 -785
-785 768 -767 767 -768 785 785 785 785 998 -998 997 -997 -997 -997 -998
-998 -785 785 -785 785 -767 -768 -768 -767 785 -785 785 -785 -998 -998 -997
-997 -997 997 -998 998 785 785 785 785 -768 767 -767 768 -785 -785 -785
-785 -998 998 -997 997 997 997 998 998 785 -785 785 -785 767 768 768 767
-785 785 -785 785 995 995 c547 547 997 995 1000 995 3 0 453 -448 1000 -995z
m-5648 -5892 l1118 -1118 785 785 785 785 522 -523 523 -522 -785 -785 -785
-785 1120 -1120 1120 -1120 -70 -70 -70 -70 -785 785 -785 785 -785 -785 -785
-785 -1192 1192 -1193 1193 785 785 785 785 -785 785 -785 785 67 67 c37 38
70 68 73 68 3 0 508 -503 1122 -1117z m10491 1049 l67 -67 -785 -785 -785
-785 785 -785 785 -785 -1193 -1193 -1192 -1192 -785 785 -785 785 -785 -785
-785 -785 -70 70 -70 70 1120 1120 1120 1120 -785 785 -785 785 523 522 522
523 785 -785 785 -785 1118 1118 c614 614 1119 1117 1122 1117 3 0 36 -30 73
-68z"/>
<path d="M5575 10740 l-820 -820 823 -823 822 -822 822 822 823 823 -820 820
c-451 451 -822 820 -825 820 -3 0 -374 -369 -825 -820z m1405 -245 l575 -575
-578 -578 -577 -577 -577 577 -578 578 575 575 c316 316 577 575 580 575 3 0
264 -259 580 -575z"/>
<path d="M2067 7232 l-817 -817 823 -823 822 -822 818 818 c449 449 817 822
817 827 0 13 -1622 1635 -1635 1635 -6 0 -378 -368 -828 -818z m1410 -244
l573 -573 -577 -577 -578 -578 -577 577 -578 578 572 572 c315 315 577 573
583 573 5 0 268 -258 582 -572z"/>
<path d="M9082 7237 c-446 -446 -812 -817 -812 -822 0 -5 368 -378 817 -827
l818 -818 822 822 823 823 -817 817 c-450 450 -822 818 -828 818 -6 0 -376
-366 -823 -813z m1405 -249 l573 -573 -577 -577 -578 -578 -577 577 -578 578
572 572 c315 315 577 573 583 573 5 0 268 -258 582 -572z"/>
<path d="M5575 7220 l-820 -820 823 -823 822 -822 822 822 823 823 -820 820
c-451 451 -822 820 -825 820 -3 0 -374 -369 -825 -820z m1405 -245 l575 -575
-578 -578 -577 -577 -577 577 -578 578 575 575 c316 316 577 575 580 575 3 0
264 -259 580 -575z"/>
<path d="M5575 3730 l-820 -820 823 -823 822 -822 822 822 823 823 -820 820
c-451 451 -822 820 -825 820 -3 0 -374 -369 -825 -820z m1405 -245 l575 -575
-578 -578 -577 -577 -577 577 -578 578 575 575 c316 316 577 575 580 575 3 0
264 -259 580 -575z"/>
</g>
</svg>
