<?xml version="1.0" standalone="no"?>
<!DOCTYPE svg PUBLIC "-//W3C//DTD SVG 20010904//EN"
 "http://www.w3.org/TR/2001/REC-SVG-20010904/DTD/svg10.dtd">
<svg version="1.0" xmlns="http://www.w3.org/2000/svg"
 width="1248.000000pt" height="1280.000000pt" viewBox="0 0 1248.000000 1280.000000"
 preserveAspectRatio="xMidYMid meet">
<metadata>
Created by potrace 1.15, written by Peter Selinger 2001-2017
</metadata>
<g transform="translate(0.000000,1280.000000) scale(0.100000,-0.100000)"
fill="#000000" stroke="none">
<path d="M6830 12749 c-85 -27 -228 -69 -316 -94 -213 -59 -286 -86 -426 -156
l-117 -58 -115 43 c-254 97 -535 138 -791 116 -153 -13 -357 -53 -394 -77 -14
-9 -107 -93 -206 -187 -99 -94 -232 -219 -295 -278 -64 -58 -140 -136 -170
-172 l-55 -66 -120 0 c-364 0 -729 -112 -1036 -316 -84 -56 -100 -71 -117
-112 -67 -153 -201 -409 -252 -482 -33 -47 -92 -148 -131 -225 -38 -77 -75
-143 -82 -147 -7 -3 -71 -25 -143 -48 -207 -65 -403 -171 -589 -318 -87 -69
-228 -212 -291 -293 l-47 -62 -38 -236 c-21 -130 -45 -256 -54 -281 -29 -81
-65 -233 -79 -339 -8 -57 -16 -104 -18 -105 -2 -1 -43 -29 -92 -61 -318 -209
-580 -533 -710 -879 l-24 -63 34 -264 c19 -145 41 -316 49 -379 16 -125 41
-232 81 -351 l26 -75 -57 -100 c-95 -164 -153 -308 -198 -490 -43 -171 -52
-257 -51 -469 l0 -200 160 -235 c88 -129 195 -288 238 -354 43 -65 102 -146
130 -180 69 -81 68 -78 57 -128 -35 -157 -43 -457 -15 -631 29 -189 91 -392
164 -537 l38 -76 189 -131 c103 -72 222 -163 263 -203 93 -89 195 -172 287
-233 l71 -47 7 -67 c34 -342 186 -704 412 -983 110 -135 96 -128 413 -230 178
-57 326 -112 396 -145 116 -57 300 -124 397 -146 l59 -13 45 -90 c171 -340
440 -623 762 -800 l83 -46 252 1 c225 1 527 13 451 17 -62 4 -192 33 -291 67
-364 121 -664 377 -837 713 -26 50 -47 93 -47 96 0 3 26 6 58 6 76 0 248 25
347 50 252 64 494 187 707 359 42 34 126 114 186 177 l109 114 6 -112 c18
-347 152 -703 377 -1003 66 -88 268 -293 323 -330 15 -10 24 -21 20 -25 -23
-21 -136 -42 -403 -75 -162 -20 -304 -41 -315 -46 -12 -6 56 -8 180 -5 218 4
314 17 483 66 l103 30 106 -66 c306 -192 692 -296 1043 -282 l107 4 209 131
c115 72 250 154 299 183 114 68 211 139 311 230 78 70 80 71 124 66 114 -14
342 -18 445 -7 134 15 309 53 424 92 103 36 342 152 363 176 8 10 79 124 158
253 80 129 170 274 201 322 32 48 81 135 111 193 51 101 55 106 93 115 22 6
97 29 167 51 285 92 548 256 758 475 142 147 133 129 180 384 30 159 56 267
90 370 45 133 90 321 90 374 0 16 16 31 63 58 124 72 244 166 362 283 180 179
268 305 382 541 l55 114 -23 197 c-14 131 -22 271 -24 413 -1 118 -8 250 -14
293 l-12 78 58 62 c253 271 425 647 473 1031 l11 88 -99 237 c-55 130 -105
254 -112 276 -23 74 -127 282 -190 379 l-63 97 22 77 c58 211 76 357 68 582
-7 213 -32 348 -99 547 l-31 93 -201 172 c-110 95 -250 217 -311 271 -60 54
-146 124 -191 155 l-81 57 -12 115 c-38 368 -197 740 -436 1021 l-56 67 -212
75 c-139 50 -269 105 -378 161 -92 46 -209 98 -260 114 l-94 30 -51 119 c-152
350 -381 625 -689 828 l-89 58 -155 8 c-86 5 -205 14 -266 20 -60 6 -169 11
-241 11 l-132 -1 -76 84 c-233 256 -569 457 -906 543 -137 35 -141 35 -310
-19z m-10 -163 c177 -31 382 -109 525 -198 92 -58 209 -155 289 -238 l79 -83
-92 -33 c-248 -90 -504 -254 -675 -433 -32 -34 -60 -61 -61 -59 -1 2 -16 30
-33 63 -149 297 -440 595 -744 762 -48 26 -88 50 -88 53 0 14 124 67 295 125
l190 65 115 -5 c63 -2 153 -11 200 -19z m-1580 -280 c138 -21 287 -63 362
-102 l29 -15 -92 -102 c-168 -189 -296 -408 -374 -638 -19 -59 -35 -114 -35
-123 0 -26 -18 -19 -68 27 -256 235 -663 419 -1004 453 -38 4 -68 9 -68 12 0
25 359 336 429 372 90 45 308 107 436 123 77 10 300 5 385 -7z m650 -265 c102
-72 262 -233 334 -336 151 -215 242 -464 265 -725 10 -110 10 -121 -15 -215
-29 -117 -54 -270 -54 -338 0 -31 -11 -75 -31 -123 -90 -216 -261 -378 -437
-415 -56 -11 -210 -8 -243 5 -13 6 -17 33 -22 164 -7 175 -28 293 -84 467 -72
224 -216 482 -366 654 l-65 74 23 86 c78 290 222 550 424 763 l64 68 59 -33
c33 -18 99 -62 148 -96z m2535 34 c349 -117 664 -393 830 -729 24 -50 51 -110
59 -133 l15 -43 -117 0 c-190 0 -395 -36 -576 -100 -48 -17 -90 -30 -92 -27
-2 2 -8 48 -14 101 -23 223 -82 432 -179 631 -56 115 -167 295 -190 310 -6 3
-8 11 -5 17 12 19 182 3 269 -27z m-632 -122 c244 -372 311 -833 182 -1242
-19 -60 -34 -85 -66 -116 -110 -107 -236 -286 -325 -465 -53 -106 -57 -111
-125 -156 -181 -120 -372 -153 -534 -93 -33 12 -61 23 -63 24 -2 2 14 38 36
81 110 220 163 463 163 749 0 234 -24 384 -98 609 l-46 139 124 122 c142 138
293 245 460 325 111 53 202 88 231 89 10 1 34 -26 61 -66z m-4073 -487 c0 -2
-15 -37 -34 -77 -44 -96 -99 -278 -121 -399 -24 -140 -30 -391 -12 -525 9 -60
14 -111 12 -113 -2 -2 -40 16 -86 39 -343 172 -743 234 -1119 173 -46 -7 -86
-11 -88 -9 -10 10 54 124 145 261 156 232 321 380 561 499 149 74 341 130 512
148 48 5 230 8 230 3z m188 -25 c536 -104 975 -504 1127 -1029 58 -199 75
-445 41 -602 -48 -223 -194 -389 -391 -445 -58 -17 -223 -23 -265 -10 -11 3
-29 33 -45 73 -60 151 -171 337 -282 474 -81 100 -257 264 -360 337 l-92 65
-11 64 c-26 150 -32 244 -27 402 8 233 49 414 148 658 16 38 22 39 157 13z
m5450 -358 c37 -130 47 -211 46 -398 0 -158 -4 -207 -22 -289 -87 -392 -302
-711 -626 -928 -196 -131 -350 -188 -527 -196 -133 -5 -193 5 -285 50 -58 28
-174 120 -174 137 0 5 24 24 53 43 139 93 292 255 410 433 179 272 284 592
305 928 l7 111 60 23 c99 40 287 91 386 106 52 8 153 15 225 16 l131 1 11 -37z
m463 -47 c67 -20 342 -169 420 -226 146 -109 336 -336 419 -499 41 -84 97
-239 119 -333 19 -82 43 -259 36 -267 -3 -2 -55 11 -117 28 -162 45 -264 61
-423 68 -182 8 -303 -6 -564 -65 -21 -4 -23 -2 -16 14 35 80 90 260 113 364
24 116 26 143 27 365 0 248 -11 340 -60 500 -22 75 -25 72 46 51z m-1985 -643
c-22 -41 -76 -119 -76 -110 0 9 80 137 86 137 3 0 -2 -12 -10 -27z m-5231
-228 c295 -28 608 -171 832 -380 185 -171 319 -380 397 -615 111 -334 42 -612
-188 -762 -52 -33 -194 -88 -229 -88 -7 0 -33 28 -57 62 -68 94 -243 266 -356
350 -178 132 -360 225 -562 288 l-99 31 -46 98 c-52 111 -99 257 -128 393 -22
107 -36 421 -22 532 8 66 10 70 38 78 38 11 256 26 315 22 25 -2 72 -6 105 -9z
m-500 -52 c-14 -34 -18 -379 -5 -480 20 -165 65 -331 131 -486 16 -38 28 -72
26 -74 -2 -2 -46 3 -98 11 -151 23 -265 28 -407 16 -271 -22 -500 -88 -754
-218 -17 -8 8 115 54 263 70 228 158 387 305 547 175 190 357 311 603 399 120
43 156 49 145 22z m8370 -378 c98 -14 262 -52 319 -74 l29 -12 -7 -97 c-49
-689 -551 -1245 -1227 -1358 -123 -20 -314 -15 -399 11 -245 75 -384 250 -397
500 l-5 100 55 27 c137 67 324 205 457 338 101 101 231 271 292 382 24 43 48
85 53 94 13 18 195 68 320 88 120 18 385 19 510 1z m-3781 -197 c92 -93 163
-139 274 -179 111 -39 215 -53 330 -45 53 3 109 9 123 12 24 5 26 2 44 -63 76
-281 310 -495 610 -558 97 -20 273 -23 373 -6 40 7 75 11 78 9 2 -3 -5 -40
-16 -84 -101 -390 67 -757 425 -933 44 -22 103 -47 130 -56 28 -8 55 -18 62
-20 9 -3 3 -24 -17 -69 -55 -120 -74 -209 -74 -336 0 -118 11 -178 54 -292 24
-65 101 -186 155 -247 l37 -41 -59 -65 c-72 -80 -134 -192 -165 -300 -31 -110
-31 -312 0 -428 26 -95 85 -223 141 -305 l41 -60 -53 -11 c-303 -64 -521 -248
-618 -521 -51 -144 -60 -339 -23 -495 18 -77 40 -149 53 -173 10 -19 7 -19
-117 -14 -255 10 -453 -61 -615 -223 -129 -127 -221 -320 -244 -513 -4 -40 -9
-52 -20 -48 -80 31 -148 41 -288 41 -139 0 -156 -2 -229 -28 -140 -49 -257
-130 -361 -248 -27 -30 -52 -55 -56 -57 -5 -2 -23 8 -41 21 -50 38 -169 95
-240 114 -98 28 -308 25 -413 -5 -158 -45 -309 -137 -439 -268 -56 -56 -76
-72 -76 -57 0 47 -45 196 -85 278 -120 250 -352 405 -647 434 -146 14 -338
-13 -472 -65 -21 -8 -40 -13 -42 -12 -1 2 7 35 18 73 29 102 36 316 13 421
-43 198 -163 368 -340 483 -129 85 -291 140 -458 156 -37 4 -67 10 -65 13 2 4
20 36 40 72 49 86 94 225 108 333 38 282 -111 581 -378 760 -40 27 -72 52 -72
56 0 4 10 16 21 27 38 34 109 140 143 216 63 136 83 317 51 468 -15 72 -64
207 -90 246 -13 20 -11 23 26 43 266 150 415 463 379 794 -9 82 -39 212 -64
277 -5 13 12 15 121 16 151 1 230 18 348 73 155 72 269 182 352 337 77 146
119 352 106 521 l-6 81 99 -34 c415 -141 804 18 1005 411 25 49 48 97 51 105
3 11 15 8 54 -17 72 -46 147 -78 249 -103 195 -49 430 -4 603 115 42 29 79 53
81 54 2 0 40 -36 85 -81z m4736 -275 c165 -162 178 -177 221 -265 161 -323
200 -673 113 -1023 -14 -54 -27 -101 -29 -103 -2 -2 -32 19 -67 46 -221 173
-502 303 -758 351 -36 7 -75 14 -88 17 -21 4 -20 8 32 82 202 290 317 626 333
974 l6 127 31 -17 c17 -9 110 -94 206 -189z m-9503 -648 c186 -30 356 -93 518
-190 285 -170 515 -445 585 -697 26 -96 27 -233 1 -317 -18 -59 -66 -151 -78
-151 -3 0 -45 27 -92 59 -213 145 -493 247 -774 282 -141 17 -443 6 -572 -20
-55 -12 -101 -21 -102 -21 -6 0 -127 166 -163 225 -98 159 -190 387 -224 557
-26 125 -29 119 72 166 242 112 549 152 829 107z m-942 -300 c46 -244 158
-497 311 -701 l53 -72 -92 -32 c-177 -61 -376 -167 -520 -277 -91 -69 -270
-246 -334 -330 -31 -40 -59 -73 -63 -73 -14 0 -43 120 -75 309 -31 188 -32
200 -19 274 70 403 291 744 632 974 89 60 81 66 107 -72z m9970 -116 c205 -45
411 -134 590 -254 61 -40 125 -86 143 -102 l33 -28 -60 -120 c-188 -381 -515
-656 -916 -770 -144 -41 -246 -53 -335 -38 -41 7 -154 16 -250 19 -96 3 -195
12 -220 19 -215 62 -385 199 -449 364 -28 69 -43 174 -35 237 l6 53 67 6 c420
39 857 255 1146 568 l70 76 60 -5 c33 -3 101 -14 150 -25z m1082 -737 c18 -26
72 -132 120 -237 l88 -190 0 -200 c0 -214 -10 -287 -61 -450 -55 -175 -183
-398 -312 -544 l-48 -54 -48 99 c-104 217 -269 429 -452 581 l-106 88 28 20
c279 201 420 341 564 561 54 83 164 299 175 347 4 15 10 27 14 27 3 0 20 -21
38 -48z m-10159 -407 c64 -5 99 -14 157 -40 90 -41 232 -90 326 -111 123 -28
278 -146 368 -279 94 -141 119 -299 72 -455 l-22 -72 -42 7 c-126 21 -176 25
-322 25 -181 0 -307 -16 -470 -60 -187 -50 -352 -120 -509 -218 -92 -57 -74
-59 -241 25 -188 94 -381 241 -516 394 -77 87 -139 168 -139 182 0 18 100 135
183 213 153 145 342 257 543 323 169 55 354 84 479 75 28 -2 87 -6 133 -9z
m9361 -595 c149 -113 309 -287 414 -452 42 -65 127 -231 127 -248 0 -32 -204
-177 -345 -246 -193 -93 -370 -140 -575 -150 -598 -31 -1211 335 -1296 774
-16 81 -13 141 12 228 l14 51 89 -33 c178 -67 343 -94 571 -94 285 1 556 61
795 179 55 27 103 50 107 50 4 1 43 -26 87 -59z m-10678 -122 c163 -221 469
-468 687 -553 23 -10 42 -21 42 -25 0 -4 -31 -33 -70 -65 -192 -157 -383 -407
-491 -643 -42 -92 -109 -279 -109 -305 0 -55 -64 28 -196 252 -85 146 -111
198 -125 257 -77 323 -37 684 107 978 36 72 95 176 100 176 1 0 25 -33 55 -72z
m1999 -810 c291 -40 505 -203 565 -429 25 -94 16 -268 -17 -337 -11 -22 -25
-28 -93 -43 -315 -68 -701 -290 -923 -532 l-42 -47 -131 0 c-271 0 -532 61
-774 182 -133 66 -215 119 -215 140 0 27 60 188 100 269 89 176 248 373 400
494 317 252 719 360 1130 303z m9356 -235 c10 -84 -2 -367 -20 -448 -82 -381
-306 -710 -627 -922 -53 -34 -101 -63 -106 -63 -5 0 -15 42 -22 92 -39 274
-154 544 -335 788 -39 52 -72 98 -74 103 -2 4 16 7 40 7 56 0 212 26 313 51
256 65 542 214 735 382 41 36 78 66 82 66 4 1 10 -25 14 -56z m-2403 -87 c261
-196 587 -321 931 -355 60 -6 131 -11 158 -11 47 0 49 -1 104 -67 206 -246
361 -593 399 -890 l7 -52 -39 -19 c-64 -33 -205 -79 -314 -104 -89 -20 -132
-23 -299 -23 -167 0 -210 3 -299 23 -300 67 -536 199 -754 419 -351 355 -417
762 -166 1014 31 31 85 73 120 93 35 19 65 36 66 36 1 0 40 -29 86 -64z
m-8488 -876 c239 -147 531 -236 818 -247 81 -3 147 -7 147 -9 0 -2 -20 -31
-45 -65 -224 -304 -352 -682 -358 -1056 -1 -73 -3 -133 -5 -133 -31 -1 -317
257 -398 358 -151 188 -261 453 -295 709 -14 105 -7 384 12 461 12 49 13 51
33 38 12 -7 53 -33 91 -56z m2505 -184 c133 -33 216 -81 297 -170 94 -103 138
-226 136 -386 -1 -108 10 -91 -137 -204 -167 -129 -370 -367 -467 -550 -41
-77 -43 -79 -115 -113 -261 -120 -584 -178 -864 -154 -134 11 -276 35 -370 64
l-45 13 2 110 c9 364 161 712 428 979 209 209 457 343 745 404 114 24 308 27
390 7z m5252 -198 c188 -256 500 -490 808 -607 47 -18 95 -37 107 -41 25 -10
47 -50 94 -167 106 -264 152 -544 130 -800 -16 -194 -15 -191 -70 -200 -73
-13 -359 -9 -436 6 -286 54 -519 165 -730 348 -282 244 -476 629 -477 948 -1
305 174 515 470 565 26 4 50 8 53 9 3 0 26 -27 51 -61z m2324 -585 c-13 -94
-124 -406 -177 -499 -198 -344 -496 -576 -885 -689 -48 -14 -89 -23 -91 -21
-3 2 0 35 6 73 48 318 -1 687 -129 969 -17 37 -29 69 -27 70 2 2 44 -5 95 -16
133 -27 341 -43 457 -36 241 16 486 75 675 164 36 17 69 31 74 31 4 1 5 -20 2
-46z m-3456 -270 c7 -32 26 -96 42 -142 131 -372 392 -704 726 -926 l72 -48 0
-87 c0 -279 -65 -552 -191 -807 -34 -68 -65 -123 -69 -123 -16 0 -207 58 -257
79 -395 158 -712 497 -843 899 -26 83 -30 108 -30 212 0 74 -8 162 -21 237
-23 132 -20 199 13 316 44 161 158 318 275 380 58 31 180 66 234 66 36 1 36 1
49 -56z m-2816 27 c33 -5 92 -25 130 -43 133 -63 227 -173 280 -325 l28 -83
-40 -102 c-68 -173 -102 -310 -123 -487 -12 -105 -12 -105 -67 -180 -247 -332
-647 -586 -1052 -669 -143 -29 -312 -44 -322 -29 -13 21 -57 170 -75 254 -26
126 -24 430 5 561 73 334 247 626 500 836 256 213 508 305 736 267z m1672
-283 c2 -2 -2 -33 -11 -68 -30 -129 -40 -298 -27 -446 31 -343 133 -631 319
-906 l76 -112 -48 -91 c-121 -231 -319 -452 -553 -617 l-53 -38 -47 40 c-428
362 -613 935 -477 1482 58 234 193 483 325 603 82 74 198 135 295 156 39 9
192 6 201 -3z m-3241 -194 c-5 -10 -25 -67 -46 -128 -131 -380 -126 -848 13
-1223 11 -29 18 -55 16 -57 -12 -12 -148 38 -383 140 -305 133 -358 167 -499
317 -153 161 -255 334 -326 547 -38 112 -70 264 -70 327 l0 31 82 -24 c143
-41 246 -56 434 -60 138 -4 207 -1 290 12 132 20 302 64 404 104 89 35 94 36
85 14z m5367 -739 c210 -106 463 -171 728 -189 85 -5 261 4 378 21 l44 7 -27
-54 c-15 -30 -83 -133 -150 -229 -103 -146 -135 -184 -192 -227 -186 -141
-403 -237 -634 -279 -102 -19 -343 -25 -441 -11 l-56 8 39 70 c141 248 229
573 229 847 0 39 2 72 5 72 3 0 38 -16 77 -36z m-1641 -739 c230 -240 564
-432 881 -507 51 -12 95 -23 97 -25 26 -19 -380 -300 -469 -326 -391 -111
-839 -43 -1180 177 l-72 47 73 51 c222 152 404 351 537 585 26 46 48 83 49 83
2 0 39 -38 84 -85z"/>
</g>
</svg>
